<svg id="svg" version="1.1" width="400" height="324" viewBox="0 0 400 324" xmlns="http://www.w3.org/2000/svg" xmlns:xlink="http://www.w3.org/1999/xlink" ><g id="svgg"><path id="path0" d="M176.499 17.039 C 172.577 18.191,167.253 19.730,164.668 20.458 C 162.083 21.187,154.498 23.393,147.812 25.361 C 141.126 27.329,133.687 29.494,131.280 30.172 C 128.874 30.850,122.237 32.817,116.532 34.542 C 99.032 39.835,95.290 40.940,80.389 45.215 C 74.595 46.878,68.614 48.604,67.099 49.051 C 59.286 51.356,55.286 52.557,52.350 53.479 C 50.567 54.038,45.972 55.371,42.139 56.441 C 31.827 59.320,25.852 61.262,25.122 61.972 C 23.125 63.914,30.682 66.221,46.677 68.552 C 64.657 71.173,92.599 75.430,106.321 77.638 C 110.154 78.255,118.833 79.643,125.608 80.722 C 153.520 85.168,178.213 89.386,208.266 94.840 C 226.635 98.174,225.705 97.744,228.632 104.246 C 236.190 121.036,237.058 137.356,231.124 151.120 C 228.745 156.639,226.481 159.609,224.344 160.017 C 222.875 160.298,218.224 159.506,189.789 154.135 C 186.580 153.529,179.943 152.290,175.041 151.381 C 170.138 150.472,163.501 149.231,160.292 148.622 C 157.083 148.013,150.810 146.847,146.353 146.031 C 141.896 145.215,137.593 144.413,136.791 144.248 C 134.968 143.873,128.700 142.700,119.449 141.002 C 115.527 140.282,110.421 139.337,108.104 138.901 C 103.859 138.103,71.807 132.131,65.478 130.958 C 58.938 129.747,52.954 128.631,47.164 127.545 C 39.455 126.098,29.303 124.220,27.847 123.971 C 26.318 123.710,24.258 124.287,23.029 125.321 C 21.330 126.751,21.760 127.598,24.959 129.119 C 25.940 129.586,26.961 130.101,27.229 130.264 C 28.029 130.752,31.442 131.337,34.036 131.431 C 35.373 131.480,38.509 131.912,41.005 132.392 C 66.381 137.276,76.766 139.393,84.765 141.312 C 89.935 142.552,96.426 143.932,99.190 144.378 C 104.710 145.269,110.306 146.285,118.963 147.966 C 122.083 148.571,128.574 149.816,133.387 150.732 C 138.201 151.648,144.619 152.890,147.650 153.492 C 150.681 154.094,156.734 155.258,161.102 156.078 C 165.470 156.898,170.839 157.933,173.033 158.377 C 175.226 158.821,179.712 159.689,183.000 160.306 C 196.621 162.859,201.122 163.733,207.131 164.994 C 214.570 166.554,216.426 166.806,222.690 167.105 L 227.391 167.330 230.891 166.009 C 232.817 165.283,236.743 164.018,239.618 163.199 C 242.492 162.379,246.532 161.004,248.597 160.144 C 252.080 158.692,266.222 153.049,274.878 149.657 C 302.449 138.856,322.587 130.999,335.486 126.013 C 339.732 124.371,343.743 122.609,344.562 122.025 C 346.055 120.962,348.453 119.968,363.695 114.102 C 378.170 108.531,378.225 108.494,380.490 102.755 C 386.182 88.338,385.328 73.139,377.964 57.796 C 373.315 48.110,372.857 47.745,363.214 46.012 C 354.983 44.534,349.291 43.465,346.029 42.784 C 341.455 41.831,325.543 38.943,319.287 37.931 C 312.256 36.794,299.137 34.399,290.762 32.724 C 287.285 32.028,281.451 30.941,277.796 30.307 C 274.141 29.673,269.182 28.795,266.775 28.357 C 264.368 27.918,259.117 27.195,255.105 26.749 C 246.443 25.787,226.787 22.505,213.155 19.745 C 208.523 18.807,200.605 17.344,191.248 15.699 C 185.054 14.610,184.645 14.647,176.499 17.039 M284.730 82.365 C 286.851 84.032,290.487 94.018,292.097 102.593 C 294.506 115.425,291.711 135.101,286.904 139.145 C 285.810 140.066,286.404 139.829,264.344 148.139 C 255.429 151.497,246.207 154.978,243.849 155.874 C 235.552 159.029,235.099 158.692,237.898 151.448 C 244.097 135.402,243.546 119.002,236.285 103.492 C 233.298 97.111,232.053 97.987,255.001 90.334 C 282.565 81.142,283.021 81.020,284.730 82.365 M52.292 192.998 C 52.828 193.417,61.991 197.147,65.964 198.562 C 66.856 198.879,67.731 199.242,67.909 199.368 C 68.088 199.494,69.400 199.995,70.827 200.481 C 72.253 200.968,74.325 201.788,75.432 202.304 C 76.539 202.819,77.615 203.241,77.824 203.241 C 78.033 203.241,79.534 203.805,81.160 204.495 C 82.786 205.184,84.919 206.003,85.900 206.314 C 86.880 206.626,87.974 207.058,88.331 207.274 C 88.687 207.490,90.365 208.145,92.058 208.729 C 93.752 209.313,95.429 209.972,95.786 210.194 C 96.143 210.416,97.455 210.931,98.703 211.340 C 99.951 211.749,101.531 212.363,102.213 212.706 C 102.895 213.048,104.864 213.843,106.589 214.472 C 108.313 215.101,110.818 216.016,112.156 216.506 C 113.493 216.996,115.316 217.761,116.207 218.206 C 117.099 218.651,118.339 219.202,118.963 219.430 C 119.587 219.658,121.483 220.394,123.177 221.065 C 129.043 223.389,129.660 223.606,129.660 223.350 C 129.660 223.044,123.870 220.429,118.639 218.371 C 116.588 217.565,111.775 215.671,107.942 214.163 C 104.109 212.655,97.326 210.003,92.869 208.270 C 85.389 205.362,77.253 202.187,69.206 199.038 C 67.423 198.341,64.214 197.097,62.075 196.275 C 59.935 195.453,57.164 194.370,55.916 193.869 C 53.011 192.701,51.429 192.320,52.292 192.998 M369.854 205.225 C 367.982 205.567,363.898 206.344,360.778 206.952 C 355.261 208.027,346.661 209.688,332.739 212.366 C 328.995 213.087,323.015 214.239,319.449 214.927 C 315.883 215.614,309.465 216.850,305.186 217.672 C 300.908 218.494,295.292 219.589,292.707 220.106 C 290.122 220.623,285.381 221.499,282.172 222.053 C 278.963 222.607,272.107 223.915,266.937 224.958 C 261.767 226.002,254.400 227.453,250.567 228.181 C 243.790 229.470,238.494 230.495,219.538 234.185 C 211.027 235.841,207.741 236.698,208.187 237.144 C 208.288 237.245,209.448 237.025,210.766 236.655 C 212.084 236.285,214.668 235.757,216.509 235.482 C 220.097 234.946,223.378 234.295,226.276 233.544 C 227.267 233.287,229.728 232.847,231.745 232.566 C 233.761 232.285,236.742 231.704,238.370 231.276 C 239.997 230.848,242.642 230.338,244.246 230.142 C 247.595 229.733,249.909 229.333,252.674 228.683 C 256.847 227.702,262.214 227.921,261.779 229.054 C 261.685 229.298,261.738 229.498,261.896 229.498 C 262.053 229.498,262.253 229.315,262.339 229.092 C 262.424 228.870,262.479 229.005,262.460 229.394 C 262.442 229.783,262.326 230.039,262.203 229.963 C 262.081 229.887,261.889 230.064,261.777 230.356 C 261.665 230.648,261.486 230.800,261.380 230.694 C 261.274 230.588,260.974 230.714,260.713 230.975 C 260.453 231.235,260.115 231.372,259.964 231.278 C 259.812 231.184,259.595 231.258,259.481 231.442 C 259.368 231.627,259.139 231.693,258.973 231.591 C 258.807 231.488,258.671 231.547,258.671 231.722 C 258.671 232.010,257.033 232.537,256.525 232.412 C 256.408 232.383,256.223 232.491,256.114 232.651 C 255.795 233.119,238.897 239.348,235.656 240.192 C 232.662 240.971,232.131 241.946,233.373 244.381 C 233.722 245.065,233.917 245.716,233.806 245.827 C 233.694 245.938,233.747 246.029,233.923 246.029 C 234.098 246.029,234.735 247.233,235.338 248.703 C 235.941 250.174,236.552 251.427,236.696 251.486 C 236.840 251.546,236.878 251.724,236.780 251.881 C 236.683 252.038,237.037 253.667,237.567 255.500 C 239.354 261.683,239.927 267.625,239.529 275.851 C 239.395 278.614,239.353 280.985,239.435 281.118 C 239.517 281.252,239.412 281.361,239.201 281.361 C 238.949 281.361,238.882 281.689,239.007 282.311 C 239.111 282.833,239.093 283.307,238.966 283.365 C 238.840 283.422,238.463 284.562,238.128 285.900 C 237.794 287.237,237.086 289.571,236.553 291.086 C 235.534 293.989,235.083 296.272,235.530 296.272 C 236.036 296.272,238.736 295.170,238.934 294.884 C 239.043 294.726,239.189 294.632,239.258 294.677 C 239.531 294.852,242.788 293.608,242.788 293.329 C 242.788 293.165,242.897 293.048,243.031 293.069 C 243.165 293.090,243.383 293.072,243.517 293.029 C 243.651 292.985,243.942 292.925,244.165 292.895 C 244.388 292.864,244.526 292.639,244.471 292.394 C 244.389 292.025,244.468 292.027,244.937 292.409 C 245.443 292.820,245.478 292.804,245.272 292.256 C 245.077 291.735,245.116 291.704,245.536 292.052 C 245.858 292.320,246.029 292.339,246.029 292.108 C 246.029 291.914,246.248 291.839,246.515 291.941 C 246.783 292.044,247.002 291.958,247.002 291.750 C 247.002 291.542,247.138 291.456,247.305 291.559 C 247.472 291.662,249.450 291.012,251.702 290.113 C 253.953 289.215,255.919 288.557,256.071 288.651 C 256.223 288.744,256.395 288.711,256.455 288.576 C 256.591 288.270,266.091 284.359,268.071 283.794 C 268.874 283.565,270.405 282.982,271.475 282.499 C 272.545 282.015,274.587 281.194,276.013 280.674 C 277.439 280.154,278.788 279.484,279.011 279.186 C 279.234 278.888,279.417 278.768,279.417 278.919 C 279.417 279.372,280.746 278.024,281.239 277.071 C 281.492 276.582,281.695 276.144,281.690 276.097 C 281.686 276.051,281.964 274.992,282.309 273.744 C 282.654 272.496,282.991 270.888,283.057 270.171 C 283.123 269.453,283.263 268.724,283.368 268.550 C 284.216 267.143,284.521 252.486,283.821 246.840 C 283.330 242.887,279.168 229.498,278.430 229.498 C 278.025 229.498,278.329 226.751,278.843 225.770 C 280.166 223.239,281.224 222.703,286.214 222.035 C 287.724 221.833,290.276 221.379,291.886 221.025 C 293.496 220.672,297.147 219.964,300.000 219.451 C 302.853 218.938,306.426 218.222,307.942 217.859 C 309.457 217.496,312.162 216.981,313.953 216.713 C 315.745 216.446,318.443 215.934,319.950 215.576 C 321.457 215.219,324.951 214.550,327.715 214.090 C 330.478 213.631,333.799 212.978,335.094 212.639 C 336.389 212.300,339.403 211.725,341.792 211.360 C 344.181 210.996,347.643 210.338,349.486 209.898 C 351.329 209.459,354.359 208.875,356.219 208.601 C 358.080 208.327,361.143 207.746,363.026 207.310 C 364.910 206.874,367.545 206.356,368.882 206.158 C 373.064 205.538,374.732 205.149,374.540 204.838 C 374.300 204.450,373.927 204.481,369.854 205.225 " stroke="none" fill="#3cdddd" fill-rule="evenodd"></path><path id="path2" d="M334.846 126.225 C 330.656 127.867,324.019 130.458,320.097 131.983 C 314.225 134.266,297.900 140.646,274.878 149.656 C 251.779 158.696,245.705 161.242,245.705 161.883 C 245.705 163.649,249.268 163.407,266.613 160.461 C 280.424 158.115,293.785 155.851,323.015 150.902 C 331.929 149.393,341.775 147.722,344.895 147.189 C 348.015 146.655,354.870 145.490,360.130 144.599 C 381.614 140.959,381.222 141.047,382.719 139.550 C 384.898 137.371,383.846 135.592,379.639 134.340 C 378.091 133.879,375.583 133.066,374.068 132.532 C 371.028 131.461,363.242 128.980,351.907 125.471 C 342.855 122.669,344.052 122.616,334.846 126.225 M26.166 131.404 C 23.429 133.940,20.298 144.851,19.876 153.323 C 19.428 162.312,23.422 177.996,27.169 181.958 C 28.369 183.227,29.152 183.592,35.302 185.745 C 42.595 188.298,46.001 189.643,49.592 191.391 C 51.261 192.204,52.823 192.869,53.063 192.869 C 53.303 192.869,54.554 193.299,55.842 193.825 C 57.131 194.351,59.935 195.453,62.075 196.275 C 64.214 197.097,67.423 198.341,69.206 199.038 C 77.253 202.187,85.389 205.362,92.869 208.270 C 100.287 211.154,107.291 213.903,119.449 218.701 C 121.945 219.686,125.956 221.411,128.363 222.535 C 130.770 223.658,133.104 224.673,133.549 224.789 C 133.995 224.906,135.381 225.424,136.629 225.941 C 137.877 226.458,142.472 228.276,146.840 229.982 C 151.207 231.687,157.334 234.090,160.454 235.322 C 178.469 242.433,178.370 242.402,181.453 241.889 C 188.041 240.795,193.516 239.782,195.883 239.219 C 197.354 238.870,200.467 238.296,202.801 237.943 C 205.135 237.590,207.818 236.997,208.763 236.624 C 209.709 236.252,214.578 235.150,219.585 234.175 C 238.610 230.472,243.804 229.467,250.567 228.181 C 254.400 227.453,261.767 226.002,266.937 224.958 C 272.107 223.915,278.963 222.607,282.172 222.053 C 285.381 221.499,290.122 220.623,292.707 220.106 C 295.292 219.589,300.908 218.493,305.186 217.671 C 309.465 216.848,316.029 215.585,319.773 214.864 C 336.921 211.560,340.024 210.963,347.326 209.559 C 351.605 208.737,357.220 207.644,359.806 207.130 C 362.391 206.617,366.767 205.821,369.530 205.362 C 373.925 204.633,377.143 203.968,381.590 202.872 C 384.843 202.070,385.729 199.591,383.542 197.404 C 381.340 195.203,379.669 195.049,372.846 196.424 C 370.220 196.953,352.901 200.383,334.360 204.048 C 315.818 207.712,297.804 211.284,294.327 211.985 C 290.851 212.686,277.577 215.314,264.830 217.824 C 252.083 220.334,240.340 222.670,238.736 223.015 C 237.131 223.360,226.118 225.547,214.263 227.875 C 202.407 230.202,190.224 232.614,187.190 233.233 C 178.622 234.983,180.019 235.232,164.668 229.232 C 159.409 227.176,149.417 223.281,145.705 221.840 C 142.953 220.771,141.392 220.161,134.360 217.401 C 132.755 216.772,129.546 215.523,127.229 214.626 C 124.911 213.729,120.900 212.169,118.314 211.158 C 109.723 207.799,98.739 203.523,95.948 202.450 C 94.433 201.868,92.245 201.011,91.086 200.546 C 89.927 200.081,87.666 199.198,86.062 198.584 C 82.733 197.309,60.883 188.825,56.726 187.193 C 46.253 183.081,42.891 181.775,40.032 180.708 C 33.519 178.278,32.734 177.622,31.170 173.299 C 27.473 163.082,27.575 149.797,31.435 138.729 C 33.354 133.225,33.138 131.703,30.337 130.997 C 28.137 130.444,27.093 130.545,26.166 131.404 M92.536 143.936 C 91.388 145.794,97.077 147.934,146.677 164.303 C 158.088 168.068,169.611 171.876,172.285 172.763 C 180.171 175.381,178.347 175.380,193.952 172.778 C 213.190 169.569,214.911 169.102,214.911 167.084 C 214.911 166.442,208.707 165.124,183.000 160.306 C 179.712 159.689,175.226 158.821,173.033 158.377 C 170.839 157.933,165.470 156.898,161.102 156.078 C 156.734 155.258,150.681 154.094,147.650 153.492 C 144.619 152.890,138.201 151.648,133.387 150.732 C 128.574 149.816,122.083 148.571,118.963 147.966 C 99.150 144.119,93.002 143.181,92.536 143.936 " stroke="none" fill="#ff1ac6" fill-rule="evenodd"></path><path id="path3" d="M49.595 193.378 C 48.235 193.990,31.382 199.027,26.853 200.175 C 17.272 202.604,15.641 203.922,19.109 206.435 C 21.165 207.924,22.962 208.292,41.491 211.026 C 51.207 212.459,62.512 214.143,66.613 214.767 C 84.091 217.428,93.619 218.896,100.162 219.936 C 122.145 223.429,122.588 223.495,126.256 223.807 C 129.221 224.060,129.962 223.616,127.831 222.863 C 126.965 222.557,124.870 221.753,123.177 221.076 C 121.483 220.399,119.587 219.658,118.963 219.430 C 118.339 219.202,117.099 218.651,116.207 218.206 C 115.316 217.761,113.493 216.996,112.156 216.506 C 110.818 216.016,108.313 215.101,106.589 214.472 C 104.864 213.843,102.895 213.048,102.213 212.706 C 101.531 212.363,99.951 211.749,98.703 211.340 C 97.455 210.931,96.143 210.416,95.786 210.194 C 95.429 209.972,93.752 209.313,92.058 208.729 C 90.365 208.145,88.687 207.490,88.331 207.274 C 87.974 207.058,86.880 206.626,85.900 206.314 C 84.919 206.003,82.786 205.184,81.160 204.495 C 79.534 203.805,78.033 203.241,77.824 203.241 C 77.615 203.241,76.539 202.819,75.432 202.304 C 74.325 201.788,72.253 200.968,70.827 200.481 C 69.400 199.995,68.088 199.488,67.909 199.355 C 67.731 199.222,66.710 198.813,65.640 198.447 C 64.571 198.080,61.143 196.735,58.023 195.458 C 51.485 192.782,51.120 192.692,49.595 193.378 M374.229 205.184 C 373.872 205.320,371.976 205.673,370.015 205.969 C 368.055 206.265,364.910 206.866,363.026 207.305 C 361.143 207.744,358.080 208.327,356.219 208.601 C 354.359 208.875,351.329 209.459,349.486 209.898 C 347.643 210.338,344.181 210.996,341.792 211.360 C 339.403 211.725,336.389 212.300,335.094 212.639 C 333.799 212.978,330.478 213.631,327.715 214.090 C 324.951 214.550,321.457 215.219,319.950 215.576 C 318.443 215.934,315.745 216.446,313.953 216.713 C 312.162 216.981,309.457 217.496,307.942 217.859 C 306.426 218.222,302.853 218.938,300.000 219.451 C 297.147 219.964,293.496 220.672,291.886 221.025 C 290.276 221.379,287.724 221.833,286.214 222.035 C 281.224 222.703,280.166 223.239,278.843 225.770 C 278.329 226.751,278.025 229.498,278.430 229.498 C 279.168 229.498,283.330 242.887,283.821 246.840 C 284.521 252.486,284.216 267.143,283.368 268.550 C 283.263 268.724,283.123 269.453,283.057 270.171 C 282.991 270.888,282.675 272.423,282.354 273.582 C 282.034 274.741,281.755 275.800,281.735 275.935 C 281.593 276.893,279.417 279.694,279.417 278.919 C 279.417 278.768,279.234 278.888,279.011 279.186 C 278.788 279.484,277.439 280.154,276.013 280.674 C 274.587 281.194,272.545 282.015,271.475 282.499 C 270.405 282.982,268.874 283.565,268.071 283.794 C 266.091 284.359,256.591 288.270,256.455 288.576 C 256.395 288.711,256.223 288.744,256.071 288.651 C 255.919 288.557,253.953 289.215,251.702 290.113 C 249.450 291.012,247.472 291.662,247.305 291.559 C 247.138 291.456,247.002 291.542,247.002 291.750 C 247.002 291.958,246.783 292.044,246.515 291.941 C 246.248 291.839,246.029 291.914,246.029 292.108 C 246.029 292.339,245.858 292.320,245.536 292.052 C 245.116 291.704,245.077 291.735,245.272 292.256 C 245.478 292.804,245.443 292.820,244.937 292.409 C 244.468 292.027,244.389 292.025,244.471 292.394 C 244.526 292.639,244.388 292.864,244.165 292.895 C 243.942 292.925,243.651 292.985,243.517 293.029 C 243.383 293.072,243.165 293.090,243.031 293.069 C 242.897 293.048,242.788 293.165,242.788 293.329 C 242.788 293.614,240.018 294.679,239.420 294.623 C 239.262 294.608,239.043 294.726,238.934 294.884 C 238.736 295.170,236.036 296.272,235.530 296.272 C 235.083 296.272,235.534 293.989,236.553 291.086 C 237.086 289.571,237.794 287.237,238.128 285.900 C 238.463 284.562,238.840 283.422,238.966 283.365 C 239.093 283.307,239.111 282.833,239.007 282.311 C 238.882 281.689,238.949 281.361,239.201 281.361 C 239.412 281.361,239.517 281.252,239.435 281.118 C 239.353 280.985,239.395 278.614,239.529 275.851 C 239.927 267.625,239.354 261.683,237.567 255.500 C 237.037 253.667,236.683 252.038,236.780 251.881 C 236.878 251.724,236.840 251.546,236.696 251.486 C 236.552 251.427,235.941 250.174,235.338 248.703 C 234.735 247.233,234.098 246.029,233.923 246.029 C 233.747 246.029,233.694 245.938,233.806 245.827 C 233.917 245.716,233.722 245.065,233.373 244.381 C 232.131 241.946,232.662 240.971,235.656 240.192 C 238.897 239.348,255.795 233.119,256.114 232.651 C 256.223 232.491,256.408 232.383,256.525 232.412 C 257.033 232.537,258.671 232.010,258.671 231.722 C 258.671 231.547,258.807 231.488,258.973 231.591 C 259.139 231.693,259.368 231.627,259.481 231.442 C 259.595 231.258,259.812 231.184,259.964 231.278 C 260.115 231.372,260.453 231.235,260.713 230.975 C 260.974 230.714,261.274 230.588,261.380 230.694 C 261.486 230.800,261.665 230.648,261.777 230.356 C 261.889 230.064,262.081 229.887,262.203 229.963 C 262.326 230.039,262.442 229.783,262.460 229.394 C 262.479 229.005,262.424 228.870,262.339 229.092 C 262.253 229.315,262.053 229.498,261.896 229.498 C 261.738 229.498,261.685 229.298,261.779 229.054 C 262.214 227.921,256.847 227.702,252.674 228.683 C 249.909 229.333,247.595 229.733,244.246 230.142 C 242.642 230.338,239.997 230.848,238.370 231.276 C 236.742 231.704,233.761 232.285,231.745 232.566 C 229.728 232.847,227.267 233.287,226.276 233.544 C 223.357 234.300,220.046 234.956,216.462 235.488 C 213.347 235.951,208.886 237.035,208.497 237.425 C 208.173 237.748,210.739 238.594,214.512 239.409 C 220.355 240.672,220.973 241.255,223.964 248.337 C 230.106 262.880,231.133 277.434,226.882 289.688 C 225.422 293.898,223.081 298.461,221.579 300.026 C 219.325 302.374,222.097 302.659,191.410 296.925 C 184.635 295.659,176.321 294.113,172.934 293.488 C 169.546 292.864,160.940 291.263,153.809 289.931 C 146.677 288.599,138.436 287.065,135.494 286.521 C 132.553 285.977,126.353 284.821,121.718 283.952 C 117.083 283.082,112.488 282.226,111.507 282.049 C 108.430 281.492,76.773 275.601,66.937 273.754 C 61.767 272.784,51.556 270.881,44.246 269.525 C 36.937 268.170,29.095 266.705,26.821 266.270 C 20.299 265.021,16.856 265.875,16.856 268.741 C 16.856 270.386,18.263 270.804,34.360 273.935 C 37.123 274.472,41.937 275.409,45.057 276.017 C 48.177 276.624,52.188 277.351,53.971 277.631 C 58.158 278.289,74.420 281.423,80.065 282.660 C 85.676 283.890,101.489 286.928,107.786 287.986 C 110.464 288.436,116.955 289.666,122.211 290.720 C 127.467 291.774,132.350 292.731,133.063 292.848 C 136.727 293.449,157.182 297.386,160.130 298.057 C 163.887 298.913,184.349 302.848,187.682 303.355 C 190.792 303.829,211.355 307.831,215.440 308.757 C 221.245 310.074,221.197 310.083,231.767 305.825 C 248.920 298.914,286.487 284.137,291.737 282.235 C 296.743 280.421,314.989 273.284,320.894 270.829 C 323.293 269.832,329.492 267.428,334.670 265.486 C 339.848 263.544,344.887 261.599,345.867 261.164 C 346.848 260.729,351.880 258.743,357.050 256.751 C 371.054 251.354,371.464 251.183,372.539 250.278 C 374.448 248.672,376.632 242.923,378.156 235.494 C 380.488 224.128,377.856 203.810,374.229 205.184 " stroke="none" fill="#3cdddd" fill-rule="evenodd"></path><path id="path4" d="M179.579 13.085 C 177.528 13.687,173.006 15.022,169.530 16.053 C 166.053 17.084,161.969 18.175,160.454 18.477 C 157.183 19.129,139.518 24.258,135.278 25.786 C 133.643 26.375,129.997 27.462,127.174 28.201 C 119.334 30.253,110.192 32.971,107.044 34.184 C 103.351 35.607,83.677 41.391,80.456 42.000 C 79.082 42.260,73.947 43.648,69.044 45.085 C 60.263 47.659,57.788 48.446,51.378 50.700 C 49.595 51.327,44.149 52.869,39.275 54.128 C 22.908 58.355,18.993 60.563,21.599 64.098 C 23.476 66.646,27.296 67.992,36.522 69.357 C 40.235 69.907,45.170 70.636,47.488 70.978 C 60.129 72.842,77.162 75.407,80.875 76.005 C 82.480 76.264,87.220 76.994,91.410 77.628 C 95.600 78.262,101.726 79.213,105.024 79.742 C 121.598 82.398,125.935 83.088,129.660 83.662 C 131.888 84.006,136.264 84.719,139.384 85.247 C 142.504 85.775,150.746 87.159,157.699 88.323 C 179.622 91.993,183.712 92.706,204.376 96.464 C 225.639 100.332,223.941 99.702,226.279 104.586 C 234.242 121.218,234.763 139.250,227.679 153.022 C 224.630 158.949,227.971 158.984,194.489 152.673 C 188.064 151.462,182.469 150.420,175.365 149.109 C 173.493 148.764,168.460 147.822,164.182 147.016 C 159.903 146.211,150.859 144.520,144.084 143.260 C 137.310 142.000,129.797 140.601,127.391 140.153 C 124.984 139.705,121.921 139.139,120.583 138.895 C 119.246 138.651,114.579 137.783,110.211 136.965 C 105.843 136.147,96.361 134.380,89.141 133.037 C 81.921 131.695,73.387 130.102,70.178 129.498 C 66.969 128.894,59.530 127.508,53.647 126.418 C 47.763 125.327,39.888 123.846,36.146 123.127 C 28.066 121.573,25.464 121.523,22.844 122.872 C 18.820 124.943,18.758 128.477,22.711 130.480 C 23.578 130.920,24.444 131.571,24.634 131.927 C 24.967 132.549,25.022 132.534,26.081 131.527 C 27.382 130.289,27.256 130.027,24.868 129.011 C 21.811 127.711,21.332 126.749,23.029 125.321 C 24.258 124.287,26.318 123.710,27.847 123.971 C 29.303 124.220,39.455 126.098,47.164 127.545 C 52.954 128.631,58.938 129.747,65.478 130.958 C 71.807 132.131,103.859 138.103,108.104 138.901 C 110.421 139.337,115.527 140.282,119.449 141.002 C 128.700 142.700,134.968 143.873,136.791 144.248 C 137.593 144.413,141.896 145.215,146.353 146.031 C 150.810 146.847,157.083 148.013,160.292 148.622 C 163.501 149.231,170.138 150.472,175.041 151.381 C 179.943 152.290,186.580 153.529,189.789 154.135 C 218.224 159.506,222.875 160.298,224.344 160.017 C 226.481 159.609,228.745 156.639,231.124 151.120 C 237.058 137.356,236.190 121.036,228.632 104.246 C 225.705 97.744,226.635 98.174,208.266 94.840 C 178.213 89.386,153.520 85.168,125.608 80.722 C 118.833 79.643,110.154 78.255,106.321 77.638 C 92.599 75.430,64.657 71.173,46.677 68.552 C 30.682 66.221,23.125 63.914,25.122 61.972 C 25.852 61.262,31.827 59.320,42.139 56.441 C 45.972 55.371,50.567 54.038,52.350 53.479 C 55.286 52.557,59.286 51.356,67.099 49.051 C 68.614 48.604,74.595 46.878,80.389 45.215 C 95.290 40.940,99.032 39.835,116.532 34.542 C 122.237 32.817,128.874 30.850,131.280 30.172 C 133.687 29.494,141.126 27.330,147.812 25.365 C 154.498 23.399,162.301 21.127,165.154 20.315 C 168.006 19.503,173.387 17.955,177.111 16.875 C 184.792 14.647,185.110 14.620,191.248 15.699 C 200.605 17.344,208.523 18.807,213.155 19.745 C 226.787 22.505,246.443 25.787,255.105 26.749 C 259.117 27.195,264.368 27.918,266.775 28.357 C 269.182 28.795,274.141 29.673,277.796 30.307 C 281.451 30.941,287.285 32.028,290.762 32.724 C 299.137 34.399,312.256 36.794,319.287 37.931 C 325.543 38.943,341.455 41.831,346.029 42.784 C 349.291 43.465,354.983 44.534,363.214 46.012 C 372.857 47.745,373.315 48.110,377.964 57.796 C 385.328 73.139,386.182 88.338,380.490 102.755 C 378.225 108.494,378.170 108.531,363.695 114.102 C 348.894 119.799,346.070 120.962,344.607 121.968 L 343.185 122.945 345.511 123.535 C 346.790 123.860,347.951 124.197,348.091 124.284 C 348.232 124.370,348.335 124.126,348.322 123.741 C 348.287 122.714,349.759 122.008,360.690 117.802 C 378.687 110.880,379.801 110.152,382.714 103.405 C 388.873 89.139,387.553 72.842,378.761 54.616 C 374.601 45.991,374.581 45.979,360.616 43.462 C 355.446 42.530,349.488 41.341,347.377 40.819 C 342.830 39.696,323.348 36.137,320.097 35.836 C 316.924 35.543,295.286 31.579,292.539 30.788 C 291.294 30.430,285.024 29.268,278.606 28.206 C 272.188 27.144,266.426 26.122,265.802 25.937 C 265.178 25.751,260.802 24.930,256.078 24.112 C 251.353 23.295,245.956 22.353,244.084 22.020 C 242.212 21.687,240.081 21.410,239.348 21.404 C 237.511 21.390,215.562 17.361,212.966 16.562 C 211.807 16.205,209.109 15.605,206.969 15.228 C 204.830 14.851,200.381 14.027,197.083 13.397 C 188.256 11.709,184.496 11.642,179.579 13.085 M277.310 83.018 C 268.035 85.840,236.841 96.412,235.876 97.060 C 234.264 98.143,234.339 99.336,236.285 103.492 C 243.546 119.002,244.097 135.402,237.898 151.448 C 235.099 158.692,235.552 159.029,243.849 155.874 C 246.207 154.978,255.429 151.497,264.344 148.139 C 286.404 139.829,285.810 140.066,286.904 139.145 C 288.141 138.104,289.132 136.133,290.370 132.253 C 294.598 119.003,293.781 102.904,288.166 88.811 C 285.024 80.924,284.721 80.762,277.310 83.018 M32.670 131.528 C 32.269 131.700,32.200 131.902,32.422 132.253 C 33.007 133.179,32.726 135.026,31.435 138.729 C 27.575 149.797,27.473 163.082,31.170 173.299 C 32.734 177.622,33.519 178.278,40.032 180.708 C 42.891 181.775,46.253 183.081,56.726 187.193 C 60.883 188.825,82.733 197.309,86.062 198.584 C 87.666 199.198,89.927 200.081,91.086 200.546 C 92.245 201.011,94.433 201.868,95.948 202.450 C 98.739 203.523,109.723 207.799,118.314 211.158 C 120.900 212.169,124.911 213.729,127.229 214.626 C 129.546 215.523,132.682 216.745,134.198 217.342 C 135.713 217.939,138.630 219.078,140.681 219.874 C 146.227 222.025,150.428 223.662,158.347 226.755 C 162.269 228.288,167.010 230.140,168.882 230.870 C 170.754 231.601,173.149 232.539,174.204 232.955 C 176.231 233.753,177.033 233.760,175.476 232.965 C 174.969 232.706,172.804 231.810,170.665 230.974 C 168.525 230.138,166.483 229.325,166.126 229.168 C 165.770 229.012,164.457 228.496,163.209 228.023 C 160.315 226.927,150.974 223.261,147.846 221.995 C 146.528 221.461,144.121 220.542,142.498 219.952 C 140.874 219.362,136.702 217.759,133.225 216.390 C 129.749 215.021,125.373 213.310,123.501 212.589 C 121.629 211.868,117.618 210.282,114.587 209.065 C 111.556 207.847,107.107 206.098,104.700 205.177 C 102.293 204.257,98.647 202.854,96.596 202.061 C 94.546 201.267,91.124 199.960,88.992 199.157 C 86.859 198.354,84.671 197.497,84.129 197.253 C 82.968 196.729,77.300 194.516,68.882 191.299 C 63.277 189.158,53.491 185.317,50.567 184.112 C 48.874 183.414,45.373 182.046,42.788 181.073 C 33.912 177.731,33.732 177.634,32.759 175.727 C 30.441 171.184,28.479 159.355,29.015 153.160 C 29.773 144.407,32.561 135.474,34.681 135.009 C 35.448 134.840,43.517 135.954,44.089 136.308 C 44.222 136.390,47.083 136.964,50.447 137.583 C 53.811 138.203,58.314 139.065,60.454 139.498 C 62.593 139.932,66.445 140.682,69.013 141.167 C 81.533 143.526,97.816 148.255,117.504 155.250 C 120.758 156.406,161.420 169.800,165.802 171.160 C 167.585 171.713,169.554 172.371,170.178 172.622 C 173.449 173.938,177.241 175.037,178.415 175.008 L 179.741 174.975 178.444 174.680 C 177.731 174.518,174.959 173.657,172.285 172.767 C 169.611 171.877,158.088 168.068,146.677 164.303 C 96.097 147.611,90.474 145.471,92.772 143.791 C 93.815 143.028,72.004 138.233,41.167 132.444 C 36.013 131.477,33.436 131.199,32.670 131.528 M239.546 163.187 C 236.426 164.113,232.415 165.425,230.632 166.102 L 227.391 167.332 223.015 167.124 C 220.608 167.009,217.704 166.825,216.563 166.714 C 215.132 166.575,214.553 166.620,214.700 166.858 C 215.073 167.462,214.543 168.240,213.332 168.867 L 212.156 169.475 216.553 169.294 C 219.250 169.184,221.971 169.263,223.590 169.500 C 226.592 169.939,227.319 169.814,231.929 168.066 C 235.514 166.707,241.485 164.997,246.208 163.976 C 249.746 163.211,249.752 163.209,248.136 163.041 C 246.303 162.851,245.705 162.569,245.705 161.893 C 245.705 161.311,246.238 161.199,239.546 163.187 M47.688 190.843 C 47.814 191.636,47.494 192.002,46.160 192.592 C 44.158 193.477,29.023 197.942,27.030 198.235 C 14.484 200.079,11.755 204.628,20.259 209.521 C 22.953 211.072,23.410 211.193,30.146 212.153 C 34.368 212.755,36.602 213.090,55.916 216.013 C 58.768 216.445,62.780 217.043,64.830 217.342 C 66.880 217.641,72.131 218.449,76.499 219.137 C 80.867 219.825,85.170 220.481,86.062 220.594 C 86.953 220.707,91.329 221.375,95.786 222.077 C 100.243 222.780,105.786 223.647,108.104 224.005 C 110.421 224.363,113.995 224.943,116.045 225.293 C 127.287 227.216,136.028 228.497,138.898 228.643 C 141.989 228.800,150.545 231.662,159.319 235.474 C 159.854 235.707,161.386 236.301,162.723 236.796 C 164.060 237.290,165.300 237.798,165.478 237.925 C 165.656 238.052,166.240 238.315,166.775 238.509 C 168.070 238.980,173.138 240.922,175.365 241.800 C 178.046 242.859,180.363 242.853,185.737 241.776 C 199.836 238.951,199.500 238.990,202.593 239.820 C 203.930 240.179,207.688 240.987,210.944 241.615 C 218.337 243.040,218.469 243.115,220.281 246.907 C 228.246 263.584,228.691 281.374,221.485 295.044 C 219.175 299.425,219.499 299.342,211.021 297.735 C 200.454 295.732,192.570 294.261,187.682 293.379 C 181.347 292.237,164.890 289.167,158.023 287.847 C 153.679 287.012,148.259 286.004,127.391 282.151 C 124.092 281.542,119.862 280.754,117.990 280.400 C 116.118 280.045,112.180 279.307,109.238 278.758 C 106.297 278.210,101.629 277.333,98.865 276.810 C 96.102 276.287,91.070 275.353,87.682 274.733 C 77.625 272.894,71.030 271.674,67.585 271.015 C 65.802 270.674,62.666 270.089,60.616 269.715 C 58.566 269.341,53.460 268.385,49.271 267.590 C 45.081 266.795,38.882 265.634,35.494 265.011 C 32.107 264.388,28.169 263.655,26.742 263.382 C 19.657 262.025,13.080 265.777,15.158 269.991 C 15.952 271.601,17.150 272.166,21.744 273.098 C 23.958 273.547,26.426 274.129,27.229 274.392 C 29.387 275.099,50.263 279.091,53.647 279.445 C 55.251 279.612,60.721 280.555,65.802 281.540 C 70.883 282.525,75.478 283.408,76.013 283.503 C 76.548 283.597,78.225 284.027,79.741 284.457 C 83.127 285.419,103.363 289.332,106.483 289.628 C 108.939 289.862,114.758 290.984,124.959 293.192 C 128.525 293.964,132.391 294.695,133.549 294.817 C 137.518 295.235,157.450 299.118,161.102 300.185 C 163.794 300.972,185.058 305.024,186.494 305.024 C 188.063 305.024,210.166 309.335,214.749 310.535 C 220.780 312.114,221.821 311.981,230.520 308.512 C 234.381 306.972,238.445 305.256,239.552 304.697 C 241.775 303.575,260.165 296.246,265.104 294.514 C 266.825 293.911,269.473 292.883,270.988 292.229 C 275.712 290.193,290.797 284.378,293.517 283.545 C 297.213 282.413,314.208 275.774,318.683 273.714 C 323.194 271.638,330.509 268.785,338.708 265.904 C 342.011 264.744,345.553 263.371,346.580 262.852 C 348.208 262.031,352.339 260.395,369.933 253.604 C 374.824 251.717,377.029 248.790,378.570 242.139 C 381.480 229.580,381.547 218.687,378.777 208.171 C 378.194 205.958,378.065 204.947,378.289 204.358 C 378.572 203.612,378.536 203.571,377.768 203.764 C 376.099 204.183,374.242 204.819,374.628 204.841 C 376.711 204.954,379.053 215.638,379.074 225.122 C 379.096 235.079,375.878 247.469,372.539 250.278 C 371.464 251.183,371.054 251.354,357.050 256.751 C 351.880 258.743,346.848 260.729,345.867 261.164 C 344.887 261.599,339.848 263.544,334.670 265.486 C 329.492 267.428,323.293 269.832,320.894 270.829 C 314.989 273.284,296.743 280.421,291.737 282.235 C 286.487 284.137,248.920 298.914,231.767 305.825 C 221.197 310.083,221.245 310.074,215.440 308.757 C 211.355 307.831,190.792 303.829,187.682 303.355 C 184.349 302.848,163.887 298.913,160.130 298.057 C 157.182 297.386,136.727 293.449,133.063 292.848 C 132.350 292.731,127.467 291.774,122.211 290.720 C 116.955 289.666,110.464 288.436,107.786 287.986 C 101.489 286.928,85.676 283.890,80.065 282.660 C 74.420 281.423,58.158 278.289,53.971 277.631 C 52.188 277.351,48.177 276.624,45.057 276.017 C 41.937 275.409,37.123 274.472,34.360 273.935 C 18.263 270.804,16.856 270.386,16.856 268.741 C 16.856 265.875,20.299 265.021,26.821 266.270 C 29.095 266.705,36.937 268.170,44.246 269.525 C 51.556 270.881,61.767 272.784,66.937 273.754 C 76.773 275.601,108.430 281.492,111.507 282.049 C 112.488 282.226,117.083 283.082,121.718 283.952 C 126.353 284.821,132.553 285.977,135.494 286.521 C 138.436 287.065,146.677 288.599,153.809 289.931 C 160.940 291.263,169.546 292.864,172.934 293.488 C 176.321 294.113,184.635 295.659,191.410 296.925 C 222.097 302.659,219.325 302.374,221.579 300.026 C 229.209 292.076,231.583 271.909,226.762 256.004 C 223.403 244.920,220.725 240.689,216.540 239.852 C 212.437 239.032,209.513 238.204,208.750 237.645 C 207.841 236.980,207.618 237.004,198.379 238.792 C 193.022 239.828,184.770 241.340,181.616 241.864 C 178.331 242.409,178.940 242.597,160.940 235.514 C 157.196 234.041,151.434 231.776,148.136 230.481 C 144.838 229.186,140.681 227.542,138.898 226.827 C 133.840 224.800,130.515 223.610,129.984 223.635 C 129.716 223.648,128.841 223.713,128.039 223.781 C 126.302 223.926,122.034 223.420,113.452 222.052 C 94.094 218.964,90.291 218.372,66.613 214.767 C 62.512 214.143,51.207 212.459,41.491 211.026 C 20.500 207.929,18.301 207.345,17.635 204.690 C 17.211 203.002,18.480 202.382,26.904 200.157 C 32.239 198.748,46.653 194.472,49.721 193.388 L 51.953 192.599 49.973 191.599 C 47.871 190.538,47.627 190.458,47.688 190.843 " stroke="none" fill="#3cdddd" fill-rule="evenodd"></path></g></svg>