<svg id="svg" version="1.1" width="400" height="449.6732026143791" viewBox="0 0 400 449.6732026143791" xmlns="http://www.w3.org/2000/svg" xmlns:xlink="http://www.w3.org/1999/xlink" ><g id="svgg"><path id="path0" d="M190.593 0.793 C 187.055 1.593,182.629 3.269,181.603 4.197 C 181.239 4.526,179.515 5.543,177.771 6.456 C 176.027 7.370,173.880 8.609,173.000 9.210 C 171.489 10.242,169.020 11.646,160.877 16.103 C 158.965 17.150,156.920 18.359,156.333 18.791 C 155.746 19.222,153.556 20.489,151.468 21.605 C 149.379 22.721,147.452 23.896,147.186 24.217 C 146.920 24.538,146.535 24.800,146.330 24.800 C 146.125 24.800,144.212 25.819,142.079 27.064 C 139.945 28.309,136.400 30.320,134.200 31.533 C 132.000 32.746,130.110 33.864,130.000 34.017 C 129.890 34.170,128.810 34.793,127.600 35.402 C 126.390 36.011,124.495 37.087,123.390 37.792 C 122.284 38.498,119.674 40.015,117.590 41.163 C 115.505 42.311,112.900 43.801,111.800 44.474 C 110.700 45.146,108.862 46.197,107.716 46.810 C 106.569 47.422,105.129 48.270,104.516 48.695 C 103.902 49.119,101.780 50.336,99.800 51.399 C 97.820 52.462,96.110 53.458,96.000 53.613 C 95.890 53.768,94.887 54.355,93.772 54.918 C 92.657 55.480,90.137 56.919,88.172 58.115 C 86.207 59.310,83.610 60.784,82.400 61.390 C 81.190 61.996,79.930 62.722,79.600 63.005 C 79.065 63.463,76.486 64.937,72.979 66.789 C 72.307 67.143,71.227 67.800,70.579 68.248 C 69.930 68.695,67.975 69.834,66.232 70.778 C 64.490 71.723,62.870 72.663,62.632 72.869 C 62.395 73.074,60.490 74.194,58.400 75.357 C 53.217 78.240,46.618 82.016,44.200 83.482 C 43.100 84.149,40.310 85.770,38.000 87.084 C 32.224 90.370,28.465 92.527,24.000 95.118 C 21.910 96.331,19.030 97.970,17.600 98.761 C 14.255 100.612,7.833 106.946,6.003 110.200 C 5.260 111.520,4.531 112.690,4.382 112.800 C 3.504 113.449,1.560 118.534,0.586 122.725 C -0.460 127.230,-0.278 323.584,0.776 327.706 C 1.790 331.669,3.884 336.670,4.655 336.966 C 5.002 337.099,6.838 336.274,8.932 335.043 C 12.987 332.660,23.886 326.362,43.600 315.010 C 50.750 310.893,58.400 306.482,60.600 305.207 C 66.741 301.649,79.530 294.293,82.089 292.847 L 84.379 291.553 85.624 293.577 C 86.308 294.690,86.954 295.600,87.058 295.600 C 87.276 295.600,87.270 295.589,84.755 291.549 C 64.265 258.634,61.082 211.330,76.836 173.876 C 113.639 86.380,227.125 63.766,294.160 130.570 C 303.511 139.888,317.257 158.339,314.900 158.409 C 314.735 158.414,314.150 158.786,313.600 159.236 L 312.600 160.054 313.600 159.575 C 314.150 159.312,314.882 158.853,315.226 158.554 C 315.570 158.255,319.080 156.153,323.026 153.882 C 326.972 151.611,334.520 147.262,339.800 144.218 C 345.080 141.173,353.000 136.607,357.400 134.071 C 361.800 131.534,369.270 127.226,374.000 124.497 C 378.730 121.767,385.431 117.913,388.892 115.932 L 395.184 112.329 394.530 111.065 C 392.537 107.208,386.912 101.409,383.026 99.204 C 381.721 98.463,379.745 97.259,378.636 96.529 C 377.526 95.798,376.485 95.200,376.323 95.200 C 376.161 95.200,373.968 93.985,371.451 92.500 C 368.933 91.015,365.933 89.260,364.785 88.600 C 363.636 87.940,362.044 87.021,361.248 86.559 C 360.452 86.096,358.720 85.133,357.400 84.418 C 356.080 83.703,354.730 82.896,354.400 82.624 C 354.070 82.352,352.360 81.356,350.600 80.409 C 348.840 79.463,345.960 77.836,344.200 76.793 C 340.619 74.671,333.885 70.769,330.938 69.108 C 329.872 68.508,328.190 67.539,327.200 66.954 C 326.210 66.369,324.410 65.356,323.200 64.703 C 321.990 64.049,320.756 63.317,320.459 63.074 C 320.161 62.832,318.091 61.619,315.859 60.379 C 313.626 59.139,310.810 57.539,309.600 56.824 C 302.519 52.639,297.903 50.000,297.663 50.000 C 297.512 50.000,296.492 49.396,295.395 48.659 C 294.298 47.921,291.960 46.556,290.200 45.626 C 288.440 44.696,286.730 43.709,286.400 43.433 C 286.070 43.156,284.360 42.156,282.600 41.209 C 280.840 40.263,277.960 38.636,276.200 37.594 C 267.679 32.549,263.927 30.400,263.637 30.400 C 263.463 30.400,262.609 29.905,261.741 29.300 C 259.908 28.023,259.350 27.697,255.704 25.766 C 254.217 24.979,252.730 24.101,252.400 23.816 C 252.070 23.531,250.360 22.531,248.600 21.594 C 246.840 20.658,244.950 19.580,244.400 19.198 C 243.850 18.817,241.780 17.647,239.800 16.599 C 237.820 15.551,235.930 14.470,235.600 14.197 C 235.270 13.923,233.560 12.924,231.800 11.975 C 230.040 11.026,228.060 9.854,227.400 9.371 C 226.740 8.888,224.580 7.639,222.600 6.596 C 220.620 5.553,218.387 4.271,217.637 3.747 C 212.874 0.420,198.962 -1.100,190.593 0.793 M190.000 158.995 C 148.671 165.788,123.798 206.736,136.995 246.258 C 138.067 249.468,141.517 257.172,142.233 257.953 C 142.310 258.038,143.595 257.386,145.087 256.504 C 146.579 255.623,150.860 253.145,154.600 250.998 C 158.340 248.850,163.740 245.739,166.600 244.083 C 169.460 242.428,174.050 239.779,176.800 238.198 C 179.550 236.617,184.860 233.560,188.600 231.404 C 192.340 229.248,197.650 226.190,200.400 224.607 C 203.150 223.025,209.090 219.599,213.600 216.995 C 220.922 212.767,226.117 209.769,250.800 195.534 C 254.430 193.441,257.670 191.624,258.000 191.496 C 258.330 191.368,258.391 191.249,258.135 191.232 C 257.879 191.214,256.727 189.805,255.574 188.100 C 241.071 166.651,214.683 154.938,190.000 158.995 M306.900 163.029 C 305.525 163.809,304.400 164.539,304.400 164.653 C 304.400 164.874,308.748 162.506,309.380 161.940 C 310.084 161.310,309.413 161.605,306.900 163.029 M298.900 167.642 C 297.745 168.315,296.800 168.945,296.800 169.041 C 296.800 169.283,299.622 167.800,300.600 167.044 C 301.856 166.073,301.188 166.308,298.900 167.642 M288.900 173.429 C 287.525 174.209,286.400 174.939,286.400 175.053 C 286.400 175.274,290.748 172.906,291.380 172.340 C 292.084 171.710,291.413 172.005,288.900 173.429 M282.117 177.334 C 278.477 179.479,277.801 180.159,281.071 178.387 C 283.361 177.145,285.665 175.606,285.200 175.627 C 285.090 175.632,283.703 176.400,282.117 177.334 M272.300 183.021 C 270.595 184.014,269.200 184.926,269.200 185.046 C 269.200 185.167,269.785 184.914,270.500 184.485 C 271.215 184.056,272.655 183.215,273.700 182.615 C 274.745 182.015,275.600 181.451,275.600 181.362 C 275.600 181.102,275.547 181.129,272.300 183.021 M264.117 187.734 C 262.531 188.669,261.091 189.588,260.917 189.778 C 260.536 190.192,265.066 187.682,266.434 186.721 C 268.132 185.528,267.088 185.984,264.117 187.734 M303.600 209.782 L 303.600 217.182 296.100 217.305 L 288.600 217.428 296.200 217.414 L 303.800 217.400 303.909 210.100 L 304.018 202.800 311.209 202.800 L 318.400 202.800 318.400 210.200 L 318.400 217.600 325.800 217.600 L 333.200 217.600 333.200 224.791 L 333.200 231.982 325.900 232.091 L 318.600 232.200 318.491 239.500 L 318.382 246.800 311.200 246.800 L 304.018 246.800 303.909 239.500 L 303.800 232.200 296.300 232.186 L 288.799 232.173 296.200 232.295 L 303.600 232.418 303.600 239.809 L 303.600 247.200 311.200 247.200 L 318.800 247.200 318.800 239.800 L 318.800 232.400 326.200 232.400 L 333.600 232.400 333.600 224.800 L 333.600 217.200 326.209 217.200 L 318.818 217.200 318.709 209.900 L 318.600 202.600 311.100 202.491 L 303.600 202.382 303.600 209.782 M359.200 209.782 L 359.200 217.182 351.700 217.291 L 344.200 217.400 344.200 224.800 L 344.200 232.200 351.700 232.309 L 359.200 232.418 359.200 239.809 L 359.200 247.200 366.800 247.200 L 374.400 247.200 374.400 239.800 L 374.400 232.400 381.800 232.400 L 389.200 232.400 389.200 224.800 L 389.200 217.200 381.809 217.200 L 374.418 217.200 374.309 209.900 L 374.200 202.600 366.700 202.491 L 359.200 202.382 359.200 209.782 M374.000 210.200 L 374.000 217.600 381.400 217.600 L 388.800 217.600 388.800 224.791 L 388.800 231.982 381.500 232.091 L 374.200 232.200 374.091 239.500 L 373.982 246.800 366.800 246.800 L 359.618 246.800 359.509 239.500 L 359.400 232.200 352.100 232.091 L 344.800 231.982 344.800 224.800 L 344.800 217.618 352.100 217.509 L 359.400 217.400 359.509 210.100 L 359.618 202.800 366.809 202.800 L 374.000 202.800 374.000 210.200 M256.549 259.700 C 255.965 260.635,255.117 261.928,254.665 262.572 C 254.213 263.217,254.051 263.616,254.305 263.459 C 254.560 263.301,255.435 262.091,256.251 260.769 C 257.213 259.212,257.929 258.441,258.288 258.578 C 258.592 258.695,258.732 258.613,258.597 258.395 C 258.142 257.658,257.613 257.995,256.549 259.700 M143.222 259.800 C 143.718 260.680,144.390 261.670,144.716 262.000 C 145.505 262.799,144.210 260.509,143.118 259.174 C 142.446 258.353,142.463 258.451,143.222 259.800 M260.000 259.341 C 260.000 259.493,262.271 260.854,266.900 263.477 C 267.065 263.571,267.200 263.562,267.200 263.459 C 267.200 263.307,264.929 261.946,260.300 259.323 C 260.135 259.229,260.000 259.238,260.000 259.341 M147.224 265.600 C 148.382 267.383,157.350 276.340,159.200 277.561 C 160.260 278.260,160.163 278.116,158.800 276.969 C 157.810 276.136,155.278 273.732,153.173 271.627 C 151.068 269.522,148.664 266.990,147.831 266.000 C 146.648 264.594,146.515 264.507,147.224 265.600 M270.600 265.503 C 270.820 265.718,271.900 266.384,273.000 266.983 C 274.100 267.583,274.640 267.772,274.200 267.405 C 273.295 266.650,269.982 264.899,270.600 265.503 M247.600 270.771 C 244.850 273.584,241.880 276.466,241.000 277.177 C 240.048 277.946,239.907 278.134,240.652 277.641 C 242.359 276.513,246.532 272.681,249.205 269.787 C 254.720 263.817,253.920 264.307,247.600 270.771 M278.200 269.903 C 278.420 270.118,279.500 270.784,280.600 271.383 C 281.700 271.983,282.240 272.172,281.800 271.805 C 280.895 271.050,277.582 269.299,278.200 269.903 M285.600 274.179 C 285.600 274.289,286.140 274.659,286.800 275.000 C 287.460 275.341,288.000 275.531,288.000 275.421 C 288.000 275.311,287.460 274.941,286.800 274.600 C 286.140 274.259,285.600 274.069,285.600 274.179 M288.600 275.890 C 288.820 276.100,289.720 276.676,290.600 277.170 C 291.480 277.665,291.840 277.770,291.400 277.404 C 290.506 276.661,287.972 275.291,288.600 275.890 M161.200 278.920 C 161.200 279.124,165.019 281.672,166.400 282.389 C 167.943 283.190,167.193 282.573,164.575 280.888 C 161.388 278.836,161.200 278.727,161.200 278.920 M235.831 280.611 C 232.850 282.542,231.998 283.221,233.600 282.389 C 234.897 281.715,238.800 279.129,238.800 278.943 C 238.800 278.698,238.674 278.769,235.831 280.611 M296.200 280.281 C 296.420 280.508,297.500 281.197,298.600 281.813 C 299.700 282.428,300.420 282.746,300.200 282.519 C 299.980 282.292,298.900 281.603,297.800 280.987 C 296.700 280.372,295.980 280.054,296.200 280.281 M168.400 283.459 C 168.400 283.726,175.230 286.903,175.412 286.721 C 175.493 286.640,173.948 285.830,171.980 284.921 C 170.011 284.011,168.400 283.354,168.400 283.459 M227.800 285.015 C 225.820 285.974,224.353 286.768,224.541 286.780 C 225.039 286.809,231.600 283.693,231.600 283.426 C 231.600 283.145,232.021 282.969,227.800 285.015 M303.600 284.551 C 303.600 284.694,305.918 286.081,310.500 288.677 C 310.665 288.771,310.800 288.767,310.800 288.669 C 310.800 288.571,309.585 287.775,308.100 286.900 C 304.709 284.903,303.600 284.324,303.600 284.551 M312.000 289.357 C 312.000 289.455,312.675 289.941,313.500 290.437 C 314.325 290.933,315.069 291.392,315.154 291.457 C 315.239 291.522,315.048 291.986,314.730 292.488 C 313.151 294.978,312.354 296.400,312.538 296.400 C 313.478 296.400,315.670 291.440,314.964 290.911 C 313.958 290.158,312.000 289.131,312.000 289.357 M210.600 290.279 C 206.863 291.042,194.411 291.152,190.266 290.459 C 188.542 290.171,187.050 290.017,186.950 290.116 C 186.604 290.462,193.022 291.247,198.000 291.468 C 202.863 291.683,210.741 290.969,213.800 290.035 C 215.598 289.486,213.822 289.622,210.600 290.279 M89.477 299.631 C 89.875 300.308,90.456 301.073,90.768 301.331 C 91.080 301.589,90.832 301.035,90.215 300.100 C 88.920 298.137,88.409 297.812,89.477 299.631 M309.200 301.000 C 308.519 301.990,308.052 302.800,308.162 302.800 C 308.272 302.800,308.919 301.990,309.600 301.000 C 310.281 300.010,310.748 299.200,310.638 299.200 C 310.528 299.200,309.881 300.010,309.200 301.000 M93.642 305.398 C 94.352 306.387,95.298 307.512,95.745 307.898 C 96.192 308.284,95.685 307.475,94.620 306.100 C 92.380 303.210,91.741 302.752,93.642 305.398 M304.447 307.500 C 303.287 308.992,303.004 309.484,303.812 308.600 C 305.359 306.907,306.960 304.800,306.699 304.800 C 306.614 304.800,305.600 306.015,304.447 307.500 M98.048 310.778 C 100.902 314.325,108.270 321.821,112.170 325.145 C 116.916 329.189,119.600 331.343,119.600 331.105 C 119.600 330.999,117.755 329.405,115.500 327.561 C 111.253 324.089,103.182 316.275,98.808 311.400 C 97.097 309.492,96.855 309.294,98.048 310.778 M295.200 317.569 C 291.350 321.482,286.310 326.177,284.000 328.003 C 279.549 331.521,277.527 333.326,280.200 331.395 C 286.122 327.116,304.107 310.084,302.341 310.427 C 302.264 310.443,299.050 313.656,295.200 317.569 M122.800 333.362 C 122.800 333.472,123.610 334.119,124.600 334.800 C 125.590 335.481,126.400 335.948,126.400 335.838 C 126.400 335.728,125.590 335.081,124.600 334.400 C 123.610 333.719,122.800 333.252,122.800 333.362 M275.300 334.440 C 274.365 335.102,273.600 335.733,273.600 335.841 C 273.600 335.950,274.410 335.481,275.400 334.800 C 276.390 334.119,277.200 333.480,277.200 333.381 C 277.200 333.105,277.124 333.148,275.300 334.440 M128.000 336.927 C 128.000 337.048,129.575 338.087,131.500 339.236 C 135.720 341.756,135.600 341.690,135.600 341.469 C 135.600 341.371,134.295 340.520,132.700 339.579 C 131.105 338.637,129.395 337.605,128.900 337.287 C 128.405 336.969,128.000 336.807,128.000 336.927 M268.893 338.572 C 267.734 339.291,266.654 340.029,266.493 340.211 C 266.051 340.710,270.111 338.382,270.786 337.749 C 271.653 336.936,271.235 337.118,268.893 338.572 M264.700 341.029 C 263.205 341.840,263.296 342.178,264.800 341.400 C 265.460 341.059,266.000 340.694,266.000 340.590 C 266.000 340.332,265.957 340.347,264.700 341.029 M138.400 342.998 C 138.400 343.266,143.249 345.685,143.428 345.506 C 143.508 345.425,142.410 344.785,140.987 344.083 C 139.564 343.382,138.400 342.893,138.400 342.998 M259.200 344.000 C 258.430 344.422,257.944 344.774,258.120 344.783 C 258.544 344.805,260.800 343.632,260.800 343.390 C 260.800 343.128,260.777 343.137,259.200 344.000 M247.688 348.899 C 246.526 349.345,245.647 349.781,245.735 349.869 C 245.921 350.055,250.400 348.425,250.400 348.171 C 250.400 347.908,249.974 348.023,247.688 348.899 M151.802 349.141 C 152.683 349.550,153.853 350.000,154.402 350.142 C 154.951 350.285,154.679 350.067,153.798 349.659 C 152.917 349.250,151.747 348.800,151.198 348.658 C 150.649 348.515,150.921 348.733,151.802 349.141 M233.000 353.619 C 230.800 354.232,229.270 354.748,229.600 354.766 C 230.276 354.802,237.659 352.874,237.947 352.586 C 238.300 352.234,236.990 352.507,233.000 353.619 M163.235 352.968 C 163.490 353.223,171.469 355.205,172.072 355.164 C 172.589 355.128,164.155 352.831,163.433 352.810 C 163.232 352.805,163.142 352.876,163.235 352.968 M186.705 357.483 C 187.202 357.579,187.922 357.575,188.305 357.475 C 188.687 357.375,188.280 357.296,187.400 357.301 C 186.520 357.305,186.207 357.387,186.705 357.483 M211.905 357.483 C 212.402 357.579,213.122 357.575,213.505 357.475 C 213.887 357.375,213.480 357.296,212.600 357.301 C 211.720 357.305,211.407 357.387,211.905 357.483 M191.911 357.893 C 192.851 357.978,194.291 357.977,195.111 357.891 C 195.930 357.805,195.160 357.736,193.400 357.737 C 191.640 357.739,190.970 357.809,191.911 357.893 M204.700 357.893 C 205.635 357.977,207.165 357.977,208.100 357.893 C 209.035 357.809,208.270 357.740,206.400 357.740 C 204.530 357.740,203.765 357.809,204.700 357.893 " stroke="none" fill="#ffffff" fill-rule="evenodd"></path><path id="path1" d="M394.976 111.960 C 395.098 112.159,392.364 113.944,388.899 115.928 C 385.435 117.911,378.730 121.767,374.000 124.497 C 369.270 127.226,361.800 131.534,357.400 134.071 C 353.000 136.607,345.080 141.173,339.800 144.218 C 334.520 147.262,326.985 151.603,323.055 153.865 C 319.125 156.127,315.665 158.180,315.367 158.427 C 314.862 158.846,311.346 160.891,293.800 170.971 C 290.060 173.119,285.380 175.826,283.400 176.986 C 281.420 178.146,277.370 180.492,274.400 182.200 C 271.430 183.907,267.380 186.251,265.400 187.409 C 263.420 188.566,260.270 190.320,258.400 191.307 C 256.530 192.293,252.660 194.451,249.800 196.102 C 246.940 197.753,239.470 202.064,233.200 205.682 C 226.930 209.299,218.110 214.390,213.600 216.995 C 209.090 219.599,203.150 223.026,200.400 224.609 C 197.650 226.192,193.060 228.835,190.200 230.482 C 187.340 232.129,181.940 235.238,178.200 237.391 C 174.460 239.545,169.150 242.609,166.400 244.200 C 163.650 245.791,158.340 248.850,154.600 250.998 C 150.860 253.145,146.597 255.612,145.127 256.480 L 142.454 258.059 144.290 260.929 C 169.593 300.498,229.028 301.043,255.056 261.945 C 256.501 259.775,257.745 258.000,257.821 258.000 C 257.948 258.000,268.896 264.257,277.800 269.418 C 279.780 270.566,283.560 272.757,286.200 274.287 C 288.840 275.818,293.430 278.479,296.400 280.202 C 299.370 281.924,303.150 284.095,304.800 285.025 C 311.816 288.981,315.376 291.128,315.490 291.471 C 315.634 291.902,310.383 300.013,307.005 304.577 C 287.300 331.206,255.223 350.853,222.800 356.152 C 213.567 357.661,211.622 357.800,199.800 357.793 C 152.943 357.767,112.096 335.177,86.673 295.228 L 84.347 291.572 82.073 292.856 C 79.530 294.293,66.737 301.651,60.600 305.207 C 58.400 306.482,50.750 310.893,43.600 315.010 C 17.589 329.988,5.173 337.177,4.845 337.448 C 3.808 338.307,12.252 347.579,16.200 349.917 C 17.740 350.828,19.227 351.769,19.505 352.007 C 19.782 352.245,21.179 353.061,22.608 353.819 C 24.037 354.577,27.156 356.368,29.539 357.799 C 31.921 359.229,34.066 360.400,34.305 360.400 C 34.543 360.400,35.247 360.824,35.869 361.341 C 36.491 361.859,38.620 363.133,40.600 364.172 C 42.580 365.211,44.470 366.298,44.800 366.587 C 45.130 366.876,47.200 368.061,49.400 369.222 C 51.600 370.382,53.490 371.465,53.601 371.629 C 53.711 371.792,55.241 372.690,57.001 373.623 C 58.760 374.556,61.100 375.901,62.200 376.612 C 63.300 377.324,65.370 378.502,66.800 379.230 C 68.230 379.959,69.760 380.858,70.200 381.228 C 70.640 381.598,72.620 382.747,74.600 383.781 C 76.580 384.816,78.470 385.902,78.800 386.195 C 79.130 386.489,81.020 387.584,83.000 388.629 C 84.980 389.675,86.690 390.660,86.800 390.819 C 86.910 390.979,88.800 392.058,91.000 393.218 C 93.200 394.379,95.304 395.587,95.676 395.905 C 96.484 396.593,99.946 398.527,102.256 399.579 C 103.167 399.994,104.023 400.514,104.159 400.734 C 104.295 400.954,106.160 402.073,108.303 403.219 C 110.447 404.365,112.470 405.533,112.800 405.813 C 113.130 406.094,114.840 407.085,116.600 408.015 C 118.360 408.945,120.070 409.934,120.400 410.213 C 120.730 410.492,122.800 411.672,125.000 412.836 C 127.200 413.999,129.097 415.091,129.215 415.261 C 129.474 415.635,133.954 418.127,136.256 419.178 C 137.167 419.594,138.023 420.114,138.159 420.334 C 138.295 420.554,140.160 421.673,142.303 422.819 C 144.447 423.965,146.470 425.133,146.800 425.414 C 147.130 425.695,149.020 426.775,151.000 427.813 C 152.980 428.852,154.690 429.831,154.800 429.991 C 154.910 430.150,156.800 431.241,159.000 432.415 C 161.200 433.590,163.097 434.691,163.215 434.862 C 163.420 435.157,164.523 435.779,169.600 438.461 C 170.810 439.100,172.250 439.957,172.800 440.366 C 173.350 440.774,175.330 441.951,177.200 442.981 C 179.070 444.010,181.320 445.288,182.200 445.820 C 190.647 450.924,209.353 450.924,217.800 445.820 C 218.680 445.288,220.930 444.006,222.800 442.972 C 224.670 441.937,226.635 440.800,227.166 440.445 C 228.294 439.692,231.403 437.943,234.085 436.551 C 235.122 436.013,236.202 435.346,236.485 435.069 C 236.768 434.791,238.800 433.607,241.000 432.437 C 243.200 431.266,245.090 430.176,245.200 430.014 C 245.310 429.851,247.020 428.868,249.000 427.828 C 250.980 426.789,252.870 425.707,253.200 425.425 C 253.530 425.143,255.420 424.049,257.400 422.995 C 259.380 421.940,261.360 420.777,261.800 420.410 C 262.240 420.042,264.186 418.945,266.123 417.971 C 268.061 416.997,269.951 415.923,270.323 415.584 C 270.696 415.246,272.710 414.055,274.800 412.938 C 276.890 411.821,279.230 410.506,280.000 410.016 C 281.841 408.843,286.418 406.211,291.493 403.407 C 293.745 402.163,295.678 400.998,295.789 400.818 C 295.900 400.638,297.649 399.642,299.676 398.604 C 301.702 397.567,303.909 396.315,304.580 395.822 C 305.251 395.329,307.420 394.064,309.400 393.011 C 311.380 391.959,313.090 390.970,313.200 390.813 C 313.310 390.657,315.020 389.675,317.000 388.629 C 318.980 387.584,320.870 386.498,321.200 386.216 C 321.530 385.934,323.553 384.765,325.697 383.619 C 327.840 382.473,329.683 381.390,329.792 381.212 C 329.902 381.035,331.658 380.042,333.696 379.005 C 335.733 377.968,337.760 376.797,338.200 376.403 C 338.640 376.009,340.089 375.143,341.420 374.478 C 342.751 373.813,345.490 372.264,347.508 371.035 C 349.525 369.806,351.320 368.800,351.497 368.800 C 351.674 368.800,352.793 368.158,353.984 367.373 C 355.176 366.589,357.825 365.044,359.872 363.941 C 361.919 362.837,363.705 361.754,363.841 361.534 C 363.977 361.314,364.833 360.796,365.744 360.384 C 366.655 359.971,368.406 359.041,369.635 358.317 C 370.864 357.593,372.820 356.460,373.982 355.800 C 389.893 346.760,394.694 341.739,398.653 330.000 L 399.800 326.600 399.800 224.800 L 399.800 123.000 398.653 119.600 C 397.512 116.218,395.386 111.600,394.971 111.600 C 394.851 111.600,394.853 111.762,394.976 111.960 M318.709 209.900 L 318.818 217.200 326.209 217.200 L 333.600 217.200 333.600 224.800 L 333.600 232.400 326.200 232.400 L 318.800 232.400 318.800 239.800 L 318.800 247.200 311.200 247.200 L 303.600 247.200 303.600 239.800 L 303.600 232.400 296.200 232.400 L 288.800 232.400 288.800 224.800 L 288.800 217.200 296.200 217.200 L 303.600 217.200 303.600 209.791 L 303.600 202.382 311.100 202.491 L 318.600 202.600 318.709 209.900 M374.309 209.900 L 374.418 217.200 381.809 217.200 L 389.200 217.200 389.200 224.800 L 389.200 232.400 381.800 232.400 L 374.400 232.400 374.400 239.800 L 374.400 247.200 366.800 247.200 L 359.200 247.200 359.200 239.809 L 359.200 232.418 351.700 232.309 L 344.200 232.200 344.200 224.800 L 344.200 217.400 351.700 217.291 L 359.200 217.182 359.200 209.782 L 359.200 202.382 366.700 202.491 L 374.200 202.600 374.309 209.900 " stroke="none" fill="#ededed" fill-rule="evenodd"></path></g></svg>