<svg id="svg" version="1.1" width="1600" height="1600" xmlns="http://www.w3.org/2000/svg" xmlns:xlink="http://www.w3.org/1999/xlink" ><g id="svgg"><path id="path0" d="M41.330 41.330 C 20.936 61.724,4.250 78.571,4.250 78.768 C 4.250 78.964,33.359 108.234,68.937 143.812 L 133.624 208.499 83.335 258.812 C 47.866 294.299,32.889 309.441,32.512 310.199 C 31.441 312.353,15.905 371.176,15.893 373.125 C 15.867 377.216,19.113 380.660,23.250 380.930 C 25.016 381.046,84.391 365.466,86.635 364.298 C 88.695 363.227,372.431 79.012,374.334 76.114 C 384.054 61.314,382.902 42.641,371.442 29.250 C 359.426 15.207,338.363 11.838,322.424 21.410 C 318.484 23.776,316.515 25.690,262.812 79.352 L 208.498 133.623 143.811 68.936 C 108.234 33.359,78.964 4.250,78.768 4.250 C 78.571 4.250,61.724 20.936,41.330 41.330 M85.250 33.375 L 91.621 39.750 86.561 44.814 L 81.500 49.879 87.250 55.625 L 93.000 61.371 98.064 56.310 L 103.129 51.250 109.250 57.375 L 115.372 63.501 106.375 72.500 L 97.378 81.499 103.125 87.250 L 108.872 93.001 117.875 84.000 L 126.878 74.999 133.064 81.189 L 139.249 87.378 134.188 92.438 L 129.128 97.499 134.874 103.249 L 140.621 109.000 145.686 103.940 L 150.750 98.879 156.876 105.001 L 163.001 111.122 154.000 120.125 L 144.999 129.128 150.750 134.875 L 156.501 140.622 165.501 131.624 L 174.501 122.627 180.687 128.813 L 186.874 135.000 181.813 140.061 L 176.751 145.122 181.812 150.187 L 186.873 155.252 165.999 176.126 L 145.125 197.000 86.000 137.875 L 26.876 78.750 52.750 52.875 C 66.981 38.644,78.681 27.000,78.751 27.000 C 78.821 27.000,81.746 29.869,85.250 33.375 M215.438 213.437 L 79.126 349.749 63.063 333.688 L 46.999 317.626 183.312 181.313 L 319.624 45.001 335.687 61.062 L 351.751 77.124 215.438 213.437 M258.830 205.858 L 248.125 216.465 253.873 222.232 L 259.621 228.000 264.686 222.939 L 269.752 217.878 275.937 224.064 L 282.123 230.249 273.126 239.249 L 264.128 248.249 269.875 254.000 L 275.622 259.751 284.625 250.750 L 293.628 241.749 299.749 247.874 L 305.871 254.000 300.810 259.064 L 295.750 264.129 301.501 269.876 L 307.251 275.622 312.312 270.562 L 317.372 265.501 323.561 271.686 L 329.751 277.872 320.750 286.875 L 311.749 295.878 317.500 301.625 L 323.251 307.372 332.250 298.375 L 341.249 289.378 347.375 295.500 L 353.500 301.621 348.440 306.686 L 343.379 311.750 349.125 317.500 L 354.871 323.250 359.936 318.189 L 365.001 313.129 367.437 315.565 L 369.873 318.001 343.999 343.876 C 329.769 358.107,318.020 369.750,317.891 369.750 C 317.762 369.750,292.671 344.775,262.133 314.250 C 231.595 283.725,206.500 258.750,206.365 258.750 C 206.231 258.750,203.649 261.224,200.628 264.247 L 195.136 269.744 196.501 271.184 C 201.657 276.625,317.700 392.500,317.992 392.500 C 318.478 392.500,392.500 318.475,392.500 317.990 C 392.500 317.558,270.251 195.250,269.820 195.250 C 269.663 195.250,264.718 200.023,258.830 205.858 " stroke="none" fill="#3cdddd" fill-rule="evenodd"></path></g></svg>