<svg id="svg" version="1.1" width="400" height="359.68992248062017" viewBox="0 0 400 359.68992248062017" xmlns="http://www.w3.org/2000/svg" xmlns:xlink="http://www.w3.org/1999/xlink" ><g id="svgg"><path id="path0" d="M257.724 169.910 C 257.334 170.178,256.569 170.504,256.025 170.637 C 255.481 170.769,255.036 171.036,255.036 171.230 C 255.036 171.424,254.881 171.583,254.692 171.583 C 253.592 171.583,249.118 175.433,247.662 177.633 C 247.115 178.460,246.546 179.137,246.397 179.137 C 246.249 179.137,246.032 179.420,245.916 179.766 C 245.674 180.487,244.904 181.744,244.533 182.024 C 244.131 182.327,240.045 190.310,239.382 192.086 C 239.050 192.977,238.569 194.191,238.314 194.784 C 236.893 198.086,236.691 198.641,236.691 199.224 C 236.691 199.575,236.453 200.177,236.163 200.561 C 235.872 200.945,235.624 201.664,235.612 202.158 C 235.599 202.653,235.351 203.372,235.061 203.756 C 234.770 204.140,234.532 205.001,234.532 205.670 C 234.532 206.339,234.290 207.129,233.993 207.425 C 233.696 207.722,233.448 208.561,233.442 209.288 C 233.436 210.016,233.193 210.926,232.902 211.310 C 232.612 211.694,232.374 212.673,232.374 213.486 C 232.374 214.299,232.210 215.129,232.008 215.330 C 231.807 215.531,231.497 216.737,231.319 218.010 C 231.140 219.282,230.823 220.971,230.614 221.763 C 230.404 222.554,230.229 223.799,230.224 224.529 C 230.220 225.259,230.054 225.957,229.856 226.079 C 229.658 226.201,229.491 227.465,229.484 228.888 C 229.476 230.449,229.267 231.831,228.957 232.374 C 228.622 232.959,228.434 234.404,228.419 236.511 C 228.402 238.769,228.235 239.959,227.866 240.446 C 227.458 240.987,227.335 242.371,227.325 246.562 C 227.316 250.579,227.180 252.211,226.799 252.878 C 226.026 254.229,226.016 278.318,226.787 279.338 C 227.169 279.842,227.318 281.047,227.327 283.679 C 227.335 286.468,227.465 287.427,227.878 287.770 C 228.174 288.016,228.417 288.753,228.417 289.407 C 228.417 290.061,228.660 290.839,228.957 291.136 C 229.254 291.432,229.496 291.903,229.496 292.181 C 229.496 292.986,232.190 295.683,232.994 295.683 C 233.396 295.683,233.926 295.926,234.173 296.223 C 234.767 296.939,239.605 296.968,240.952 296.264 C 241.477 295.989,242.346 295.590,242.884 295.377 C 243.977 294.944,246.043 292.315,246.043 291.357 C 246.043 291.015,246.286 290.534,246.583 290.288 C 246.879 290.041,247.127 289.415,247.134 288.895 C 247.140 288.375,247.383 287.635,247.673 287.251 C 247.964 286.867,248.207 285.977,248.213 285.273 C 248.219 284.569,248.462 283.679,248.752 283.295 C 249.043 282.911,249.286 282.020,249.292 281.316 C 249.298 280.612,249.541 279.722,249.832 279.338 C 250.122 278.954,250.365 278.225,250.371 277.719 C 250.377 277.213,250.620 276.484,250.911 276.100 C 251.201 275.716,251.439 275.107,251.439 274.747 C 251.439 274.386,251.583 273.810,251.759 273.466 C 251.935 273.123,252.364 272.194,252.713 271.403 C 253.061 270.612,253.565 269.534,253.832 269.009 C 254.098 268.484,254.317 267.816,254.317 267.525 C 254.317 267.233,254.559 266.793,254.856 266.547 C 255.153 266.300,255.396 265.795,255.396 265.424 C 255.396 265.052,255.547 264.748,255.731 264.748 C 255.916 264.748,256.179 264.393,256.317 263.959 C 256.560 263.193,258.570 259.716,258.980 259.353 C 259.091 259.254,259.820 258.323,260.600 257.284 C 261.380 256.246,262.165 255.396,262.343 255.396 C 262.744 255.396,262.281 263.238,261.830 264.095 C 261.654 264.428,261.511 265.826,261.511 267.201 C 261.511 268.720,261.300 270.107,260.973 270.732 C 260.617 271.415,260.431 272.854,260.421 275.000 C 260.411 277.122,260.229 278.547,259.892 279.137 C 259.149 280.437,259.140 289.149,259.881 290.129 C 260.171 290.513,260.414 291.175,260.420 291.600 C 260.437 292.755,263.203 295.683,264.277 295.683 C 264.762 295.683,265.402 295.926,265.699 296.223 C 266.452 296.976,272.231 296.985,273.223 296.234 C 273.607 295.944,274.219 295.701,274.584 295.695 C 277.413 295.646,279.131 292.120,279.147 286.331 C 279.156 282.634,279.286 281.308,279.688 280.777 C 280.102 280.229,280.216 278.818,280.216 274.253 C 280.216 269.785,280.341 268.187,280.753 267.397 C 281.101 266.731,281.291 265.333,281.293 263.440 C 281.294 261.548,281.485 260.150,281.832 259.484 C 282.138 258.898,282.371 257.500,282.372 256.246 C 282.373 254.992,282.606 253.594,282.911 253.009 C 283.272 252.317,283.450 250.907,283.451 248.723 C 283.452 246.933,283.623 245.298,283.830 245.091 C 284.355 244.566,284.389 239.919,283.875 238.962 C 283.643 238.530,283.453 237.850,283.453 237.450 C 283.453 236.064,280.979 233.000,279.496 232.550 C 279.002 232.400,278.485 232.103,278.349 231.890 C 277.908 231.201,271.098 231.125,269.758 231.794 C 269.118 232.113,268.368 232.374,268.090 232.374 C 267.533 232.374,264.313 233.771,264.029 234.136 C 263.930 234.263,263.444 234.550,262.950 234.774 C 261.593 235.388,257.251 239.372,253.956 243.027 C 252.224 244.947,248.591 250.443,247.390 252.959 C 246.169 255.517,246.043 255.531,246.043 253.107 C 246.043 250.971,246.514 250.201,250.143 246.403 C 252.097 244.358,255.497 240.289,258.213 236.745 C 259.070 235.627,260.080 234.349,260.458 233.904 C 260.835 233.460,261.738 232.246,262.463 231.206 C 263.189 230.167,263.881 229.236,264.002 229.137 C 264.489 228.737,268.452 222.511,268.614 221.890 C 268.710 221.523,268.916 221.223,269.072 221.223 C 269.228 221.223,269.969 220.049,270.719 218.615 C 273.083 214.092,273.573 213.067,275.687 208.219 C 276.001 207.497,276.259 206.593,276.259 206.211 C 276.259 205.828,276.380 205.394,276.529 205.246 C 276.873 204.901,277.652 201.876,278.110 199.101 C 278.306 197.914,278.618 196.445,278.802 195.838 C 279.223 194.448,279.245 183.922,278.827 183.664 C 278.657 183.559,278.418 182.744,278.296 181.853 C 277.791 178.170,272.503 170.504,270.467 170.504 C 270.140 170.504,269.671 170.261,269.424 169.964 C 268.807 169.220,258.799 169.174,257.724 169.910 M71.583 181.290 C 71.286 181.484,68.858 181.656,66.187 181.671 C 63.516 181.687,60.117 181.852,58.633 182.039 C 57.149 182.227,54.266 182.518,52.226 182.687 C 50.186 182.856,48.333 183.178,48.107 183.403 C 47.882 183.629,46.799 183.814,45.701 183.815 C 44.603 183.816,43.241 184.059,42.675 184.355 C 42.108 184.650,41.137 184.893,40.516 184.894 C 39.896 184.896,38.925 185.138,38.358 185.434 C 37.791 185.729,36.872 185.971,36.316 185.971 C 35.759 185.971,35.060 186.214,34.764 186.511 C 34.467 186.808,33.873 187.050,33.445 187.050 C 33.016 187.050,32.195 187.293,31.620 187.590 C 31.046 187.887,30.105 188.372,29.531 188.669 C 28.956 188.966,28.228 189.209,27.912 189.209 C 27.596 189.209,27.338 189.332,27.338 189.483 C 27.338 189.635,26.529 190.142,25.540 190.612 C 24.550 191.082,23.741 191.606,23.741 191.776 C 23.741 191.947,23.518 192.086,23.246 192.086 C 21.697 192.086,14.409 200.844,14.377 202.745 C 14.371 203.115,14.128 203.731,13.837 204.116 C 13.547 204.500,13.309 205.250,13.309 205.783 C 13.309 206.316,13.068 207.216,12.772 207.783 C 12.007 209.250,12.007 218.448,12.772 219.915 C 13.068 220.482,13.310 221.291,13.312 221.714 C 13.313 222.136,13.531 222.897,13.796 223.405 C 14.061 223.913,14.386 224.763,14.520 225.294 C 14.653 225.825,14.921 226.259,15.115 226.259 C 15.309 226.259,15.468 226.477,15.468 226.744 C 15.468 227.563,19.230 231.655,19.983 231.655 C 20.221 231.655,20.617 231.897,20.863 232.194 C 21.476 232.932,25.848 232.940,26.820 232.206 C 27.204 231.915,27.815 231.672,28.178 231.666 C 28.904 231.654,33.094 228.511,33.094 227.979 C 33.094 227.796,33.336 227.404,33.633 227.107 C 34.624 226.116,34.341 222.567,33.094 220.324 C 32.500 219.257,32.014 218.061,32.014 217.667 C 32.014 217.272,31.853 216.849,31.655 216.727 C 31.186 216.437,31.186 210.901,31.655 210.612 C 31.853 210.489,32.014 210.075,32.014 209.691 C 32.014 208.783,36.121 204.676,37.029 204.676 C 37.413 204.676,37.815 204.534,37.923 204.360 C 38.183 203.939,41.463 202.878,42.514 202.875 C 42.971 202.874,43.809 202.631,44.376 202.336 C 44.961 202.031,46.359 201.798,47.613 201.796 C 48.867 201.795,50.265 201.562,50.850 201.257 C 51.608 200.862,53.101 200.719,56.490 200.719 L 61.099 200.719 60.896 202.788 C 60.785 203.925,60.550 205.039,60.374 205.263 C 60.198 205.487,59.901 206.701,59.714 207.961 C 59.065 212.321,58.452 215.412,58.183 215.679 C 58.035 215.827,57.914 216.953,57.914 218.181 C 57.914 219.728,57.748 220.553,57.374 220.863 C 57.015 221.161,56.830 221.988,56.822 223.335 C 56.815 224.449,56.578 225.764,56.295 226.259 C 56.012 226.754,55.770 228.129,55.757 229.317 C 55.742 230.623,55.524 231.750,55.204 232.173 C 54.872 232.613,54.676 233.697,54.676 235.100 C 54.676 236.377,54.447 237.768,54.139 238.358 C 53.823 238.964,53.601 240.358,53.599 241.745 C 53.598 243.040,53.418 244.280,53.200 244.498 C 52.981 244.717,52.717 246.327,52.613 248.077 C 52.510 249.827,52.268 251.456,52.077 251.697 C 51.886 251.938,51.586 253.395,51.411 254.935 C 50.851 259.854,50.188 263.963,49.910 264.240 C 49.762 264.388,49.635 265.736,49.628 267.236 C 49.620 268.920,49.418 270.308,49.101 270.863 C 48.773 271.437,48.578 272.870,48.562 274.820 C 48.546 276.920,48.373 278.096,48.010 278.576 C 47.095 279.785,47.263 289.846,48.229 291.698 C 49.281 293.718,51.553 295.683,52.835 295.683 C 53.403 295.683,54.070 295.926,54.317 296.223 C 54.653 296.628,55.555 296.763,57.932 296.763 C 60.268 296.763,61.241 296.621,61.639 296.223 C 61.936 295.926,62.602 295.683,63.119 295.683 C 65.894 295.683,69.424 291.239,69.424 287.744 C 69.424 286.345,69.606 285.214,69.874 284.946 C 70.169 284.651,70.367 282.986,70.451 280.108 C 70.520 277.694,70.743 275.516,70.945 275.268 C 71.148 275.020,71.391 273.321,71.485 271.491 C 71.579 269.662,71.882 267.472,72.159 266.624 C 72.436 265.776,72.662 264.026,72.662 262.734 C 72.662 261.442,72.822 260.086,73.017 259.721 C 73.212 259.356,73.479 257.661,73.611 255.955 C 73.742 254.249,73.987 252.768,74.155 252.664 C 74.323 252.561,74.466 251.231,74.472 249.709 C 74.480 247.849,74.656 246.714,75.011 246.244 C 75.348 245.800,75.544 244.688,75.551 243.187 C 75.558 241.685,75.754 240.574,76.091 240.129 C 76.416 239.699,76.623 238.595,76.630 237.251 C 76.637 235.908,76.844 234.804,77.170 234.374 C 77.491 233.950,77.698 232.871,77.698 231.627 C 77.698 230.500,77.940 229.115,78.235 228.548 C 78.531 227.982,78.774 226.688,78.775 225.673 C 78.776 224.659,79.020 223.248,79.317 222.537 C 79.613 221.827,79.856 220.464,79.856 219.508 C 79.856 218.552,80.041 217.585,80.267 217.359 C 80.493 217.133,80.808 215.846,80.968 214.499 C 81.128 213.152,81.524 210.755,81.848 209.173 C 82.171 207.590,82.514 205.486,82.608 204.496 C 82.703 203.507,83.006 202.201,83.282 201.594 L 83.785 200.490 95.759 200.647 C 103.931 200.753,107.894 200.933,108.238 201.211 C 109.355 202.114,123.909 201.973,125.447 201.044 C 127.217 199.975,129.109 197.893,129.339 196.763 C 129.439 196.268,129.678 195.366,129.869 194.759 C 131.317 190.152,126.797 183.813,122.065 183.813 C 121.483 183.813,120.819 183.625,120.589 183.395 C 120.359 183.164,118.829 182.910,117.189 182.830 C 115.550 182.750,113.765 182.514,113.222 182.307 C 111.097 181.494,72.702 180.556,71.583 181.290 M262.135 186.359 C 262.379 186.838,262.582 187.666,262.585 188.198 C 262.588 188.731,262.752 189.266,262.950 189.388 C 263.399 189.666,263.425 194.392,262.982 195.239 C 262.802 195.582,262.475 197.077,262.254 198.561 C 261.577 203.115,261.434 203.752,260.924 204.487 C 260.653 204.877,260.432 205.646,260.432 206.195 C 260.432 206.745,260.281 207.194,260.096 207.194 C 259.912 207.194,259.658 207.558,259.532 208.004 C 259.036 209.758,256.257 215.493,254.589 218.204 C 253.846 219.413,253.237 220.501,253.237 220.622 C 253.237 220.859,251.134 224.005,250.540 224.658 C 250.342 224.875,249.860 225.648,249.469 226.375 C 249.077 227.103,248.632 227.698,248.479 227.698 C 248.024 227.698,248.163 226.414,248.739 225.311 C 249.034 224.744,249.277 223.368,249.278 222.253 C 249.280 221.138,249.522 219.762,249.818 219.196 C 250.113 218.629,250.356 217.348,250.357 216.349 C 250.359 215.350,250.537 214.355,250.754 214.138 C 250.971 213.921,251.283 212.796,251.447 211.638 C 251.837 208.878,252.468 206.079,252.862 205.359 C 253.036 205.041,253.291 204.028,253.429 203.106 C 253.567 202.184,253.823 201.342,253.998 201.233 C 254.173 201.125,254.317 200.468,254.317 199.773 C 254.317 199.078,254.559 198.267,254.856 197.970 C 255.153 197.673,255.401 196.997,255.407 196.467 C 255.413 195.937,255.656 195.189,255.947 194.805 C 256.237 194.421,256.475 193.753,256.475 193.321 C 256.475 192.888,256.718 192.333,257.014 192.086 C 257.311 191.840,257.554 191.254,257.554 190.783 C 257.554 190.313,257.685 189.928,257.844 189.928 C 258.004 189.928,258.408 189.321,258.741 188.579 C 260.100 185.556,261.318 184.759,262.135 186.359 M127.567 231.821 C 127.000 232.125,126.208 232.374,125.806 232.374 C 125.034 232.374,119.928 234.711,119.213 235.392 C 118.982 235.611,118.435 236.034,117.996 236.331 C 115.642 237.924,113.296 240.247,111.048 243.206 C 109.563 245.163,106.475 251.362,106.475 252.388 C 106.475 252.883,106.232 253.532,105.935 253.828 C 105.638 254.125,105.390 254.963,105.383 255.691 C 105.376 256.419,105.139 257.419,104.856 257.914 C 104.094 259.247,104.084 274.375,104.845 275.381 C 105.135 275.765,105.378 276.655,105.384 277.359 C 105.391 278.063,105.633 278.954,105.924 279.338 C 106.214 279.722,106.457 280.294,106.463 280.609 C 106.470 280.924,106.877 281.895,107.369 282.767 C 107.861 283.639,108.375 284.595,108.511 284.892 C 108.948 285.845,111.752 289.359,112.817 290.288 C 114.894 292.098,117.670 294.062,118.705 294.453 C 119.002 294.565,119.776 294.888,120.426 295.170 C 121.076 295.452,122.209 295.689,122.944 295.695 C 123.679 295.701,124.595 295.944,124.979 296.234 C 125.975 296.988,133.738 296.988,134.733 296.234 C 135.117 295.944,136.056 295.701,136.819 295.695 C 138.465 295.681,144.481 292.872,146.430 291.207 C 147.137 290.602,148.333 289.576,149.087 288.926 C 149.842 288.275,151.034 286.980,151.738 286.048 C 152.441 285.115,153.142 284.265,153.295 284.159 C 153.537 283.991,154.075 283.052,155.665 280.022 C 155.869 279.634,156.321 278.669,156.669 277.878 C 157.018 277.086,157.522 276.009,157.788 275.484 C 158.055 274.959,158.279 274.069,158.285 273.506 C 158.291 272.943,158.534 272.168,158.824 271.784 C 159.145 271.360,159.353 270.282,159.353 269.040 C 159.353 267.915,159.612 266.374,159.929 265.616 C 160.635 263.924,160.538 256.438,159.800 255.699 C 159.547 255.447,159.353 254.355,159.353 253.191 C 159.353 251.839,159.167 250.945,158.813 250.591 C 158.516 250.294,158.273 249.566,158.273 248.972 C 158.273 248.379,158.031 247.650,157.734 247.354 C 157.437 247.057,157.187 246.600,157.179 246.339 C 157.170 246.077,156.767 245.216,156.283 244.424 C 155.799 243.633,155.248 242.632,155.057 242.199 C 154.494 240.919,152.908 239.209,149.264 235.956 C 147.797 234.647,143.199 232.374,142.017 232.374 C 141.494 232.374,141.000 232.172,140.918 231.924 C 140.673 231.189,128.912 231.098,127.567 231.821 M187.230 231.812 C 186.637 232.088,185.544 232.415,184.802 232.540 C 184.060 232.664,183.453 232.921,183.453 233.110 C 183.453 233.299,183.170 233.460,182.824 233.469 C 181.072 233.512,171.942 240.467,171.942 241.758 C 171.942 241.878,171.659 242.310,171.313 242.717 C 169.268 245.124,166.900 249.717,165.840 253.333 C 165.421 254.764,164.882 256.583,164.643 257.374 C 163.414 261.446,164.237 276.609,165.848 279.581 C 166.035 279.925,166.187 280.412,166.187 280.663 C 166.187 282.050,170.410 288.413,172.609 290.340 C 176.177 293.467,180.458 295.683,182.929 295.683 C 183.844 295.683,184.533 295.866,184.622 296.133 C 184.869 296.878,193.317 296.982,194.428 296.254 C 194.907 295.940,195.865 295.683,196.558 295.683 C 197.696 295.683,199.651 295.041,201.079 294.199 C 201.376 294.024,201.862 293.785,202.158 293.668 C 202.455 293.552,202.860 293.384,203.058 293.297 C 205.650 292.147,210.408 287.744,212.833 284.248 C 213.480 283.316,214.141 282.392,214.302 282.194 C 214.863 281.508,217.266 276.559,217.266 276.092 C 217.266 275.833,217.508 275.158,217.804 274.591 C 218.099 274.025,218.342 273.215,218.343 272.793 C 218.344 272.370,218.587 271.561,218.883 270.994 C 219.229 270.331,219.421 268.933,219.422 267.068 C 219.423 265.476,219.599 263.998,219.813 263.784 C 220.440 263.157,219.512 251.742,218.774 251.004 C 218.538 250.768,218.344 250.244,218.343 249.838 C 218.342 249.433,218.124 248.685,217.859 248.177 C 217.594 247.670,217.268 246.820,217.135 246.289 C 217.002 245.758,216.734 245.324,216.540 245.324 C 216.346 245.324,216.187 245.012,216.187 244.630 C 216.187 244.248,215.979 243.722,215.724 243.461 C 215.469 243.200,214.877 242.358,214.408 241.592 C 212.142 237.889,204.767 232.374,202.081 232.374 C 201.773 232.374,201.057 232.132,200.491 231.837 C 199.071 231.096,188.813 231.077,187.230 231.812 M314.388 231.530 C 314.092 231.627,313.525 231.844,313.129 232.012 C 312.734 232.180,311.764 232.407,310.974 232.517 C 310.184 232.627,309.483 232.883,309.415 233.085 C 309.348 233.288,308.942 233.460,308.513 233.469 C 308.085 233.477,307.086 233.880,306.295 234.364 C 305.504 234.848,304.532 235.390,304.137 235.568 C 303.741 235.746,302.964 236.314,302.410 236.831 C 301.855 237.347,301.279 237.770,301.130 237.770 C 300.075 237.770,292.446 247.348,292.446 248.672 C 292.446 248.927,292.257 249.326,292.026 249.557 C 291.625 249.958,290.817 251.886,290.408 253.417 C 290.303 253.813,289.990 254.647,289.712 255.270 C 289.435 255.894,289.209 256.834,289.209 257.361 C 289.209 257.887,288.952 259.103,288.638 260.062 C 287.918 262.263,288.014 273.772,288.759 274.515 C 289.006 274.762,289.210 275.539,289.211 276.241 C 289.212 276.943,289.455 277.982,289.750 278.548 C 290.046 279.115,290.288 279.798,290.288 280.066 C 290.288 284.139,299.797 293.634,305.027 294.782 C 305.621 294.913,306.199 295.169,306.312 295.351 C 306.425 295.534,307.323 295.683,308.307 295.683 C 309.331 295.683,310.468 295.926,310.963 296.251 C 312.079 296.982,321.965 296.879,322.213 296.133 C 322.307 295.849,323.062 295.683,324.267 295.683 C 325.314 295.683,326.798 295.432,327.564 295.125 C 330.403 293.987,333.813 292.288,333.813 292.012 C 333.813 291.855,334.020 291.727,334.273 291.727 C 335.197 291.727,342.086 284.570,342.086 283.610 C 342.086 283.456,342.301 283.074,342.564 282.762 C 342.826 282.450,343.248 281.471,343.501 280.588 C 344.033 278.726,344.964 279.295,344.964 281.483 C 344.964 286.678,351.201 295.683,354.799 295.683 C 355.277 295.683,355.869 295.926,356.115 296.223 C 356.735 296.971,361.806 296.979,362.791 296.234 C 363.175 295.944,363.767 295.701,364.108 295.695 C 365.395 295.671,367.848 294.011,370.389 291.446 L 373.022 288.788 373.022 290.103 C 373.022 291.591,372.985 291.635,369.784 294.059 C 368.498 295.033,367.357 295.956,367.248 296.111 C 367.139 296.266,366.234 297.002,365.237 297.747 C 359.700 301.881,348.279 313.334,345.697 317.342 C 345.151 318.190,344.357 319.274,343.934 319.749 C 343.511 320.225,343.165 320.818,343.165 321.068 C 343.165 321.318,343.033 321.577,342.871 321.643 C 342.709 321.709,341.961 323.058,341.208 324.640 C 340.455 326.223,339.616 327.948,339.344 328.473 C 339.072 328.998,338.849 329.815,338.849 330.289 C 338.849 330.763,338.647 331.353,338.399 331.600 C 337.652 332.346,337.552 343.553,338.279 345.010 C 338.592 345.639,338.849 346.339,338.849 346.566 C 338.849 347.747,344.076 353.597,345.131 353.597 C 345.265 353.597,345.618 353.840,345.915 354.137 C 346.211 354.433,346.859 354.676,347.354 354.676 C 347.848 354.676,348.496 354.919,348.792 355.216 C 349.567 355.991,358.891 356.000,359.913 355.227 C 360.297 354.937,360.892 354.694,361.236 354.688 C 363.669 354.643,371.326 348.344,373.930 344.245 C 375.440 341.868,378.417 336.005,378.417 335.408 C 378.417 335.124,378.576 334.892,378.770 334.892 C 378.964 334.892,379.231 334.447,379.363 333.903 C 379.496 333.359,379.822 332.594,380.090 332.204 C 380.357 331.814,380.576 331.045,380.576 330.496 C 380.576 329.946,380.725 329.496,380.907 329.496 C 381.089 329.496,381.353 328.971,381.494 328.329 C 381.635 327.687,381.959 326.675,382.213 326.081 C 382.467 325.486,382.940 324.029,383.265 322.842 C 383.589 321.655,384.008 320.402,384.194 320.059 C 384.380 319.715,384.538 318.987,384.544 318.440 C 384.550 317.893,384.793 317.132,385.083 316.748 C 385.374 316.364,385.612 315.372,385.612 314.544 C 385.612 313.644,385.829 312.857,386.151 312.590 C 386.467 312.328,386.695 311.526,386.702 310.657 C 386.708 309.841,386.951 308.858,387.242 308.474 C 387.532 308.090,387.770 307.097,387.770 306.267 C 387.770 305.437,388.012 304.295,388.307 303.728 C 388.603 303.161,388.845 301.961,388.847 301.061 C 388.848 300.161,389.028 299.245,389.247 299.026 C 389.467 298.807,389.730 297.520,389.834 296.166 C 389.937 294.813,390.178 293.508,390.369 293.267 C 390.560 293.026,390.859 291.569,391.032 290.029 C 391.600 284.977,392.117 281.493,392.464 280.370 C 392.652 279.763,392.811 278.225,392.817 276.953 C 392.824 275.492,393.023 274.383,393.357 273.942 C 393.702 273.485,393.889 272.365,393.896 270.705 C 393.904 269.044,394.091 267.924,394.436 267.467 C 394.781 267.011,394.968 265.890,394.975 264.230 C 394.983 262.570,395.170 261.449,395.515 260.992 C 395.836 260.568,396.043 259.490,396.043 258.246 C 396.043 257.119,396.285 255.734,396.581 255.167 C 396.883 254.586,397.119 253.187,397.120 251.960 C 397.121 250.763,397.295 249.611,397.506 249.400 C 397.717 249.189,397.975 247.740,398.079 246.181 C 398.183 244.621,398.513 242.671,398.811 241.848 C 399.729 239.319,399.355 233.944,398.201 233.062 C 397.707 232.684,397.064 232.172,396.772 231.925 C 395.771 231.074,389.206 231.114,387.299 231.983 C 386.393 232.396,385.536 232.734,385.396 232.734 C 384.949 232.734,382.374 235.622,382.374 236.122 C 382.374 236.386,382.131 236.804,381.835 237.050 C 381.538 237.297,381.290 237.923,381.284 238.443 C 381.277 238.963,381.034 239.703,380.744 240.087 C 380.453 240.471,380.216 241.311,380.216 241.954 C 380.216 242.597,380.072 243.212,379.897 243.320 C 379.721 243.429,379.474 244.126,379.346 244.870 C 379.218 245.614,378.895 246.790,378.628 247.482 C 378.360 248.174,377.702 250.198,377.166 251.978 C 376.629 253.759,375.963 255.645,375.685 256.171 C 375.407 256.696,375.180 257.465,375.180 257.879 C 375.180 258.294,375.029 258.633,374.844 258.633 C 374.660 258.633,374.402 258.997,374.270 259.442 C 374.139 259.888,373.562 261.236,372.987 262.438 C 372.413 263.641,371.942 264.721,371.942 264.838 C 371.942 266.413,365.988 274.101,364.768 274.101 C 363.569 274.101,363.443 263.419,364.621 261.701 C 364.889 261.310,365.108 260.077,365.108 258.957 C 365.108 257.838,365.351 256.341,365.647 255.631 C 365.944 254.921,366.187 253.616,366.187 252.731 C 366.187 251.846,366.330 251.033,366.505 250.925 C 366.679 250.817,366.934 249.839,367.069 248.751 C 367.205 247.664,367.467 246.681,367.651 246.567 C 367.835 246.453,367.986 245.630,367.986 244.737 C 367.986 243.774,368.205 242.895,368.525 242.575 C 368.884 242.216,369.065 241.318,369.065 239.897 C 369.065 238.722,369.259 237.448,369.497 237.068 C 369.822 236.547,369.829 236.169,369.525 235.544 C 369.303 235.086,369.024 234.267,368.906 233.723 C 368.788 233.179,368.544 232.734,368.364 232.734 C 368.184 232.734,367.753 232.451,367.407 232.104 C 366.491 231.189,358.256 231.195,356.655 232.112 C 356.061 232.451,355.418 232.730,355.225 232.732 C 354.617 232.735,351.439 236.403,351.439 237.101 C 351.439 237.469,351.296 237.770,351.122 237.770 C 350.768 237.770,349.748 240.452,349.300 242.565 C 349.139 243.323,348.826 244.124,348.604 244.345 C 348.383 244.567,348.196 245.323,348.190 246.025 C 348.184 246.728,347.941 247.616,347.650 248.000 C 347.360 248.384,347.122 249.364,347.122 250.177 C 347.122 250.990,346.947 251.830,346.732 252.045 C 346.518 252.259,346.262 253.465,346.164 254.725 C 346.067 255.984,345.828 257.436,345.633 257.951 C 345.439 258.466,345.138 260.975,344.963 263.526 C 344.789 266.078,344.504 268.894,344.330 269.784 L 344.014 271.403 343.500 270.325 C 341.560 266.256,336.581 266.540,333.357 270.902 C 332.015 272.718,326.598 277.905,325.467 278.457 C 324.814 278.775,323.817 279.257,323.252 279.528 C 321.246 280.488,315.613 280.185,313.239 278.991 C 310.416 277.570,310.110 276.284,312.590 276.262 C 313.085 276.258,313.953 276.013,314.520 275.717 C 315.086 275.422,315.824 275.180,316.159 275.180 C 316.495 275.180,317.083 274.942,317.467 274.652 C 317.851 274.361,318.510 274.118,318.931 274.112 C 319.352 274.106,319.898 273.858,320.144 273.561 C 320.390 273.264,320.967 273.022,321.426 273.022 C 321.884 273.022,322.351 272.874,322.463 272.693 C 322.574 272.512,323.399 272.010,324.295 271.576 C 325.191 271.142,326.124 270.602,326.368 270.376 C 326.612 270.149,327.338 269.670,327.982 269.310 C 331.359 267.421,337.050 259.740,337.050 257.071 C 337.050 256.590,337.292 255.734,337.588 255.167 C 338.345 253.715,338.356 245.760,337.601 244.763 C 337.311 244.379,337.068 243.550,337.062 242.921 C 337.056 242.293,336.808 241.535,336.511 241.238 C 336.214 240.942,335.971 240.495,335.971 240.247 C 335.971 239.752,333.360 236.507,332.199 235.559 C 331.801 235.234,331.086 234.627,330.610 234.210 C 330.135 233.794,329.447 233.453,329.082 233.453 C 328.716 233.453,328.417 233.299,328.417 233.110 C 328.417 232.921,327.825 232.655,327.102 232.520 C 326.378 232.384,325.367 232.054,324.854 231.786 C 323.941 231.310,315.670 231.107,314.388 231.530 M318.675 247.752 C 322.797 250.094,320.622 257.053,314.822 260.076 C 313.990 260.509,313.309 261.010,313.309 261.187 C 313.309 261.365,312.997 261.511,312.616 261.511 C 312.234 261.511,311.703 261.730,311.435 261.998 C 311.167 262.266,310.467 262.575,309.880 262.684 C 309.293 262.793,308.449 262.997,308.004 263.138 C 307.123 263.416,306.820 262.389,307.564 261.645 C 307.767 261.442,308.036 260.406,308.162 259.343 C 308.288 258.280,308.606 256.997,308.869 256.493 C 309.133 255.988,309.349 255.379,309.350 255.139 C 309.358 253.640,313.654 248.201,314.831 248.201 C 315.105 248.201,315.644 247.964,316.028 247.673 C 316.941 246.983,317.343 246.995,318.675 247.752 M134.779 249.184 C 135.712 249.387,138.289 252.041,138.647 253.166 C 138.785 253.601,139.031 253.957,139.195 253.957 C 140.469 253.957,140.281 269.901,138.986 271.753 C 138.713 272.143,138.489 272.662,138.489 272.906 C 138.489 273.931,135.496 277.673,134.169 278.305 C 131.296 279.674,129.261 279.295,126.920 276.954 C 125.963 275.997,125.180 274.894,125.180 274.503 C 125.180 274.112,124.937 273.550,124.640 273.253 C 123.855 272.467,123.865 258.436,124.652 257.395 C 124.942 257.011,125.180 256.429,125.180 256.102 C 125.180 255.475,126.136 253.379,126.779 252.596 C 127.287 251.979,129.001 250.270,129.575 249.810 C 130.244 249.273,132.823 248.624,133.453 248.834 C 133.750 248.933,134.346 249.090,134.779 249.184 M194.604 249.199 C 195.670 249.419,198.136 251.952,198.432 253.130 C 198.546 253.585,198.783 253.957,198.960 253.957 C 199.136 253.957,199.281 254.448,199.281 255.048 C 199.281 255.647,199.523 256.719,199.820 257.430 C 200.527 259.122,200.533 264.775,199.831 266.727 C 199.545 267.518,199.305 268.731,199.296 269.421 C 199.254 272.814,195.010 278.463,192.139 278.948 C 190.479 279.228,187.467 278.282,186.694 277.236 C 185.327 275.389,184.172 272.820,184.170 271.623 C 184.169 270.908,183.926 269.860,183.631 269.293 C 182.995 268.074,182.894 263.293,183.492 262.695 C 183.711 262.476,183.977 261.189,184.082 259.835 C 184.188 258.482,184.494 257.055,184.763 256.665 C 185.032 256.274,185.252 255.664,185.252 255.308 C 185.252 252.610,190.853 248.022,193.165 248.826 C 193.462 248.929,194.110 249.097,194.604 249.199 M368.070 315.018 C 367.967 315.958,367.664 317.046,367.395 317.436 C 367.126 317.826,366.901 318.636,366.895 319.235 C 366.889 319.834,366.646 320.638,366.355 321.022 C 366.065 321.406,365.822 322.134,365.816 322.641 C 365.810 323.147,365.567 323.875,365.276 324.259 C 364.986 324.643,364.748 325.393,364.748 325.924 C 364.748 326.455,364.505 327.092,364.209 327.338 C 363.912 327.584,363.664 328.130,363.658 328.551 C 363.651 328.972,363.409 329.631,363.118 330.015 C 362.828 330.399,362.590 331.006,362.590 331.364 C 362.590 331.722,362.462 332.014,362.305 332.014 C 362.149 332.014,361.771 332.540,361.467 333.183 C 359.775 336.756,357.083 339.928,355.742 339.928 C 353.970 339.928,352.803 335.073,354.148 333.295 C 354.439 332.911,354.676 332.211,354.676 331.740 C 354.676 331.269,354.919 330.641,355.216 330.344 C 355.513 330.048,355.755 329.493,355.755 329.111 C 355.755 328.729,355.906 328.417,356.091 328.417 C 356.275 328.417,356.541 328.053,356.680 327.608 C 356.968 326.693,358.969 323.466,359.752 322.656 C 360.035 322.362,360.910 321.313,361.696 320.324 C 362.739 319.011,367.702 313.692,368.211 313.341 C 368.236 313.324,368.173 314.078,368.070 315.018 " stroke="none" fill="#dc24a4" fill-rule="evenodd"></path><path id="path1" d="M60.971 22.918 C 60.576 23.014,60.098 23.238,59.910 23.416 C 59.722 23.595,58.018 23.741,56.123 23.741 C 53.753 23.741,52.454 23.898,51.959 24.245 C 51.564 24.522,50.273 24.826,49.091 24.921 C 46.854 25.101,43.864 25.717,42.626 26.252 C 42.230 26.424,40.935 26.845,39.748 27.188 C 38.561 27.532,37.185 28.006,36.691 28.242 C 32.649 30.169,30.216 31.477,30.216 31.723 C 30.216 31.883,30.004 32.014,29.746 32.014 C 28.877 32.014,21.942 38.441,21.942 39.247 C 21.942 39.395,21.731 39.731,21.472 39.992 C 20.780 40.693,18.882 44.824,18.114 47.302 C 15.583 55.475,18.766 71.695,23.234 73.394 C 23.672 73.560,24.137 73.868,24.267 74.079 C 24.397 74.289,25.127 74.460,25.891 74.460 C 26.654 74.460,27.341 74.648,27.417 74.877 C 27.589 75.392,29.814 75.366,30.337 74.843 C 30.547 74.632,31.315 74.460,32.042 74.460 C 32.779 74.460,33.563 74.221,33.813 73.921 C 34.059 73.624,34.478 73.381,34.744 73.381 C 36.393 73.381,39.568 68.759,39.568 66.357 C 39.568 65.137,37.246 59.684,36.611 59.412 C 36.137 59.210,36.285 51.871,36.781 50.984 C 37.791 49.177,39.230 47.584,40.442 46.931 C 41.149 46.551,41.727 46.127,41.727 45.990 C 41.727 45.853,42.212 45.634,42.806 45.504 C 43.399 45.373,43.885 45.118,43.885 44.935 C 43.885 44.753,44.340 44.604,44.895 44.604 C 45.451 44.604,46.220 44.367,46.604 44.076 C 46.988 43.786,47.873 43.543,48.571 43.537 C 49.269 43.530,50.169 43.295,50.571 43.013 C 51.921 42.068,78.599 41.267,81.408 42.088 L 82.779 42.488 82.530 46.334 C 82.393 48.449,82.140 50.452,81.968 50.786 C 81.796 51.119,81.649 52.899,81.642 54.743 C 81.633 56.967,81.456 58.396,81.115 58.993 C 80.776 59.586,80.597 61.010,80.588 63.178 C 80.580 65.372,80.397 66.807,80.038 67.495 C 79.709 68.126,79.500 69.518,79.499 71.089 C 79.495 75.106,77.925 77.338,75.103 77.338 C 74.798 77.338,74.361 77.564,74.132 77.840 C 73.903 78.116,73.155 78.447,72.469 78.576 C 71.784 78.704,71.223 78.964,71.223 79.153 C 71.223 79.342,70.830 79.496,70.349 79.496 C 69.869 79.496,69.233 79.739,68.936 80.036 C 68.640 80.333,68.154 80.576,67.857 80.576 C 67.560 80.576,67.102 80.791,66.839 81.054 C 66.575 81.318,65.916 81.645,65.374 81.781 C 64.832 81.917,64.388 82.187,64.388 82.381 C 64.388 82.575,64.145 82.734,63.848 82.734 C 63.366 82.734,59.084 84.801,58.633 85.252 C 58.254 85.631,56.973 86.358,56.025 86.731 C 55.481 86.945,55.036 87.267,55.036 87.445 C 55.036 87.624,54.868 87.770,54.662 87.770 C 54.236 87.770,52.041 89.249,51.859 89.658 C 51.793 89.807,51.591 89.928,51.410 89.928 C 51.097 89.928,48.013 92.078,45.329 94.168 C 40.819 97.680,32.014 107.674,32.014 109.281 C 32.014 109.518,31.856 109.712,31.662 109.712 C 31.467 109.712,31.197 110.156,31.061 110.698 C 30.925 111.240,30.598 111.899,30.335 112.162 C 30.072 112.426,29.851 112.913,29.845 113.245 C 29.838 113.577,29.596 114.163,29.305 114.547 C 29.015 114.931,28.777 115.668,28.777 116.184 C 28.777 116.700,28.596 117.304,28.374 117.526 C 27.718 118.181,27.242 122.488,27.230 127.878 C 27.215 134.010,27.565 135.965,29.193 138.849 C 29.361 139.146,29.660 139.765,29.858 140.225 C 30.057 140.685,30.420 141.286,30.667 141.561 C 31.573 142.572,31.926 143.048,32.328 143.798 C 33.252 145.525,40.061 149.987,41.810 150.011 C 42.259 150.018,42.940 150.261,43.324 150.551 C 44.348 151.326,58.529 151.326,59.554 150.551 C 59.938 150.261,60.758 150.018,61.377 150.011 C 61.996 150.005,62.703 149.757,62.950 149.460 C 63.196 149.164,63.762 148.921,64.209 148.921 C 64.655 148.921,65.221 148.678,65.468 148.381 C 65.714 148.085,66.074 147.842,66.269 147.842 C 66.463 147.842,67.342 147.356,68.221 146.763 C 69.101 146.169,69.900 145.683,69.997 145.683 C 70.521 145.683,78.417 137.937,78.417 137.423 C 78.417 137.246,78.657 136.862,78.950 136.569 C 79.549 135.970,82.734 131.382,82.734 131.118 C 82.734 131.024,83.343 129.933,84.088 128.693 C 85.577 126.214,86.825 123.644,88.502 119.604 C 89.507 117.182,89.875 116.304,90.428 115.006 C 90.746 114.257,91.007 113.265,91.007 112.802 C 91.007 112.338,91.250 111.757,91.547 111.511 C 91.844 111.265,92.091 110.638,92.098 110.118 C 92.104 109.598,92.347 108.858,92.637 108.474 C 92.928 108.090,93.165 107.260,93.165 106.630 C 93.165 106.000,93.408 105.282,93.705 105.036 C 94.002 104.790,94.245 104.141,94.245 103.594 C 94.245 103.048,94.486 102.137,94.782 101.570 C 95.078 101.003,95.320 99.965,95.322 99.263 C 95.323 98.560,95.491 97.818,95.696 97.614 C 96.050 97.259,96.223 96.523,97.124 91.547 C 97.339 90.360,97.655 89.131,97.825 88.817 C 97.996 88.503,98.250 87.327,98.390 86.204 C 98.530 85.082,98.788 84.075,98.963 83.967 C 99.138 83.859,99.286 82.687,99.292 81.364 C 99.299 79.820,99.493 78.706,99.832 78.259 C 100.164 77.819,100.360 76.734,100.360 75.332 C 100.360 74.055,100.589 72.664,100.897 72.073 C 101.225 71.445,101.435 70.053,101.437 68.507 C 101.438 67.043,101.618 65.792,101.863 65.547 C 102.097 65.313,102.351 63.717,102.430 61.968 C 102.510 60.233,102.804 58.303,103.086 57.679 C 103.380 57.028,103.597 55.414,103.597 53.884 C 103.597 52.421,103.773 51.047,103.988 50.832 C 104.203 50.617,104.467 49.159,104.574 47.592 C 104.778 44.617,105.541 43.551,107.493 43.514 C 111.103 43.445,113.349 34.570,110.788 30.492 C 109.803 28.924,107.400 26.978,106.448 26.978 C 106.227 26.978,105.617 26.743,105.091 26.455 C 103.794 25.745,101.017 25.125,98.214 24.921 C 96.934 24.828,95.563 24.524,95.166 24.246 C 94.674 23.902,93.397 23.741,91.148 23.741 C 88.924 23.741,87.517 23.566,86.822 23.204 C 85.815 22.679,63.014 22.427,60.971 22.918 M349.550 71.471 C 349.204 71.561,348.921 71.785,348.921 71.969 C 348.921 72.152,348.471 72.302,347.922 72.302 C 346.463 72.302,342.086 75.698,342.086 76.829 C 342.086 77.061,341.844 77.452,341.547 77.698 C 341.250 77.944,341.007 78.530,341.007 79.001 C 341.007 79.471,340.856 79.856,340.672 79.856 C 340.487 79.856,340.229 80.220,340.098 80.665 C 339.966 81.111,339.389 82.459,338.814 83.662 C 338.240 84.864,337.770 85.967,337.770 86.112 C 337.770 86.428,336.069 90.242,335.587 91.007 C 335.400 91.304,335.150 91.790,335.032 92.086 C 333.074 96.984,327.416 106.075,323.292 110.948 L 322.664 111.691 321.809 110.734 C 319.463 108.110,316.072 108.113,313.730 110.743 C 307.159 118.121,304.367 120.504,301.705 121.003 C 300.965 121.142,300.360 121.410,300.360 121.599 C 300.360 122.171,295.238 121.991,294.446 121.391 C 294.062 121.101,293.374 120.863,292.917 120.863 C 292.460 120.863,292.086 120.705,292.086 120.510 C 292.086 120.316,291.722 120.063,291.277 119.947 C 290.832 119.831,290.177 119.343,289.821 118.861 L 289.175 117.986 290.382 117.986 C 291.046 117.986,291.903 117.748,292.287 117.457 C 292.671 117.167,293.400 116.924,293.906 116.918 C 294.412 116.912,295.141 116.669,295.525 116.378 C 295.909 116.088,296.522 115.845,296.887 115.839 C 297.252 115.832,297.981 115.601,298.506 115.324 C 299.031 115.047,300.594 114.278,301.978 113.615 C 303.363 112.952,304.550 112.289,304.616 112.140 C 304.682 111.992,304.934 111.871,305.176 111.871 C 307.305 111.871,315.432 102.286,315.479 99.719 C 315.485 99.379,315.728 98.787,316.019 98.402 C 316.341 97.977,316.547 96.898,316.547 95.636 C 316.547 94.498,316.709 93.468,316.906 93.345 C 317.104 93.223,317.266 92.252,317.266 91.187 C 317.266 90.122,317.104 89.151,316.906 89.029 C 316.709 88.907,316.547 88.072,316.547 87.173 C 316.547 84.853,314.963 81.251,312.950 78.989 C 311.200 77.024,307.639 74.460,306.659 74.460 C 306.211 74.460,305.642 74.218,305.396 73.921 C 305.026 73.475,303.739 73.381,298.022 73.381 C 292.304 73.381,291.017 73.475,290.647 73.921 C 290.401 74.218,289.733 74.460,289.162 74.460 C 285.811 74.460,275.436 82.444,273.262 86.697 C 272.910 87.386,271.983 89.161,271.203 90.641 C 270.423 92.121,269.784 93.679,269.784 94.104 C 269.784 94.529,269.541 95.077,269.245 95.324 C 268.948 95.570,268.700 96.359,268.694 97.076 C 268.687 97.794,268.444 98.696,268.154 99.080 C 267.774 99.583,267.626 100.758,267.626 103.285 C 267.626 105.235,267.466 106.891,267.266 107.014 C 267.068 107.137,266.906 107.784,266.906 108.453 C 266.906 109.122,267.068 109.770,267.266 109.892 C 267.464 110.015,267.632 111.679,267.639 113.600 C 267.647 115.942,267.820 117.381,268.165 117.986 C 268.448 118.480,268.685 119.391,268.692 120.010 C 268.699 120.629,268.948 121.336,269.245 121.583 C 269.541 121.829,269.784 122.269,269.784 122.560 C 269.784 124.222,274.168 130.240,276.932 132.374 C 277.573 132.869,278.437 133.557,278.852 133.903 C 279.267 134.249,279.825 134.532,280.091 134.532 C 280.358 134.532,280.576 134.694,280.576 134.892 C 280.576 135.090,280.780 135.252,281.031 135.252 C 281.281 135.252,282.090 135.576,282.828 135.971 C 283.566 136.367,284.543 136.691,284.999 136.691 C 285.454 136.691,286.029 136.893,286.276 137.140 C 287.023 137.888,302.546 137.988,304.015 137.255 C 304.637 136.945,305.596 136.691,306.145 136.691 C 306.694 136.691,307.386 136.448,307.682 136.151 C 307.979 135.854,308.436 135.604,308.697 135.596 C 308.959 135.587,309.820 135.184,310.612 134.699 C 311.403 134.214,312.293 133.709,312.590 133.576 C 313.352 133.234,315.864 131.268,316.769 130.304 C 317.494 129.533,317.594 129.520,318.826 130.035 C 323.532 132.001,328.052 129.329,335.166 120.375 C 336.289 118.962,337.577 117.403,338.028 116.910 C 338.480 116.418,338.849 115.836,338.849 115.617 C 338.849 115.398,339.161 114.937,339.543 114.591 C 339.925 114.246,340.498 113.452,340.818 112.827 C 341.137 112.202,341.711 111.205,342.091 110.612 C 342.472 110.018,343.036 109.087,343.344 108.543 C 343.651 107.999,344.002 107.554,344.122 107.554 C 345.032 107.554,349.912 115.436,350.469 117.806 C 350.562 118.201,350.754 118.808,350.897 119.155 C 351.214 119.925,349.352 120.071,348.615 119.335 C 348.331 119.051,347.118 118.885,345.324 118.885 C 343.530 118.885,342.316 119.051,342.032 119.335 C 341.785 119.582,341.166 119.784,340.656 119.784 C 339.132 119.784,334.892 123.247,334.892 124.491 C 334.892 124.822,334.649 125.293,334.353 125.540 C 333.601 126.163,333.592 131.585,334.341 132.575 C 334.632 132.959,334.874 133.528,334.881 133.839 C 334.908 135.200,340.043 139.549,341.657 139.580 C 341.992 139.586,342.580 139.829,342.964 140.119 C 343.509 140.531,344.898 140.647,349.281 140.647 C 353.663 140.647,355.052 140.531,355.597 140.119 C 355.981 139.829,356.731 139.586,357.263 139.580 C 357.795 139.573,358.325 139.416,358.440 139.230 C 358.555 139.044,359.374 138.529,360.259 138.087 C 362.301 137.067,365.627 134.116,366.765 132.314 C 368.671 129.293,370.144 126.240,370.155 125.285 C 370.162 124.733,370.404 123.966,370.695 123.582 C 371.425 122.617,371.443 114.207,370.718 112.512 C 369.168 108.888,368.506 107.554,368.260 107.554 C 368.109 107.554,367.986 107.335,367.986 107.068 C 367.986 106.801,367.500 105.912,366.906 105.093 C 366.313 104.274,365.825 103.481,365.822 103.330 C 365.818 103.180,365.333 102.510,364.742 101.840 C 364.152 101.170,363.666 100.522,363.662 100.401 C 363.658 100.279,363.078 99.532,362.372 98.741 C 361.666 97.950,360.659 96.655,360.134 95.863 C 359.609 95.072,359.089 94.344,358.977 94.245 C 358.866 94.146,358.490 93.417,358.140 92.626 C 357.791 91.835,357.322 90.813,357.097 90.355 C 356.793 89.736,356.793 89.358,357.097 88.871 C 357.321 88.512,357.617 87.591,357.755 86.825 C 357.892 86.059,358.632 84.087,359.398 82.443 C 360.164 80.799,360.791 79.053,360.791 78.563 C 360.791 78.073,361.052 77.275,361.371 76.789 C 362.133 75.625,360.715 72.564,359.318 72.357 C 358.853 72.288,358.150 72.004,357.754 71.727 C 357.059 71.240,351.141 71.055,349.550 71.471 M143.324 72.830 C 142.930 73.128,141.832 73.363,140.806 73.370 C 139.780 73.376,138.682 73.612,138.288 73.909 C 137.904 74.200,137.247 74.443,136.828 74.449 C 136.064 74.460,130.386 77.204,129.454 78.012 C 129.181 78.249,128.390 78.847,127.698 79.340 C 125.831 80.671,120.694 85.833,119.536 87.541 C 118.981 88.359,118.442 89.110,118.338 89.209 C 117.707 89.808,114.748 95.151,114.748 95.690 C 114.748 95.912,114.505 96.337,114.209 96.634 C 113.912 96.931,113.664 97.526,113.658 97.957 C 113.651 98.388,113.409 99.055,113.118 99.439 C 112.828 99.823,112.590 100.412,112.590 100.747 C 112.590 101.082,112.348 101.820,112.053 102.387 C 111.757 102.954,111.514 104.006,111.513 104.725 C 111.512 105.444,111.269 106.497,110.973 107.063 C 110.197 108.551,110.186 121.120,110.960 122.143 C 111.250 122.528,111.493 123.302,111.499 123.865 C 111.506 124.428,111.729 125.319,111.995 125.844 C 112.262 126.369,112.865 127.567,113.337 128.507 C 113.808 129.447,114.318 130.216,114.471 130.216 C 114.623 130.216,114.748 130.395,114.748 130.614 C 114.748 131.322,116.827 133.661,118.416 134.740 C 119.268 135.318,120.178 135.994,120.439 136.241 C 120.701 136.488,121.127 136.691,121.387 136.691 C 121.647 136.691,122.324 136.932,122.891 137.228 C 123.653 137.626,125.165 137.766,128.710 137.768 C 134.601 137.770,136.185 137.192,139.397 133.865 L 141.485 131.703 142.369 133.387 C 143.470 135.486,144.127 136.246,145.101 136.550 C 145.520 136.681,145.979 136.968,146.120 137.189 C 146.501 137.784,156.863 137.735,157.563 137.135 C 159.564 135.418,160.116 134.807,160.772 133.584 C 161.178 132.825,161.511 131.542,161.511 130.731 C 161.511 129.920,161.632 129.136,161.781 128.989 C 161.929 128.842,162.241 124.404,162.474 119.127 C 162.707 113.850,163.159 107.752,163.479 105.576 C 163.798 103.399,164.174 100.372,164.314 98.848 C 164.454 97.325,164.771 95.876,165.018 95.629 C 165.294 95.353,165.468 94.184,165.468 92.598 C 165.468 91.117,165.698 89.465,166.007 88.725 C 166.304 88.014,166.547 86.396,166.547 85.128 C 166.547 83.517,166.384 82.687,166.007 82.374 C 165.710 82.128,165.468 81.635,165.468 81.279 C 165.468 80.700,164.572 79.657,162.701 78.058 C 162.251 77.673,160.879 77.466,157.927 77.338 L 153.784 77.158 153.284 76.079 C 152.616 74.636,151.443 73.384,150.747 73.370 C 150.435 73.364,149.866 73.121,149.482 72.830 C 149.031 72.489,147.939 72.302,146.403 72.302 C 144.867 72.302,143.775 72.489,143.324 72.830 M184.173 73.921 C 183.926 74.218,183.434 74.460,183.078 74.460 C 181.647 74.460,177.698 79.455,177.698 81.265 C 177.698 81.632,177.456 82.396,177.160 82.962 C 176.865 83.529,176.616 84.397,176.608 84.892 C 176.600 85.387,176.362 86.196,176.079 86.691 C 175.796 87.185,175.559 88.246,175.552 89.047 C 175.545 89.848,175.368 90.675,175.159 90.884 C 174.950 91.093,174.699 92.218,174.602 93.384 C 174.504 94.550,174.267 96.070,174.073 96.763 C 172.530 102.291,172.552 126.602,174.103 129.500 C 174.299 129.868,174.460 130.465,174.460 130.827 C 174.460 132.401,176.844 135.761,178.819 136.972 C 180.682 138.113,186.891 138.150,188.703 137.029 C 190.795 135.736,193.525 131.495,193.525 129.537 C 193.525 129.143,193.678 128.725,193.864 128.610 C 194.051 128.495,194.308 127.635,194.437 126.700 C 194.702 124.764,194.880 124.115,196.392 119.547 C 196.991 117.734,197.482 115.933,197.482 115.544 C 197.482 115.155,197.725 114.635,198.022 114.388 C 198.318 114.142,198.566 113.596,198.573 113.175 C 198.579 112.754,198.822 112.096,199.112 111.712 C 199.403 111.328,199.640 110.773,199.640 110.478 C 199.640 108.954,204.961 99.341,206.885 97.391 L 207.861 96.400 207.659 101.168 C 207.548 103.790,207.294 106.252,207.094 106.638 C 206.296 108.183,205.407 126.415,206.097 127.104 C 206.305 127.312,206.476 128.057,206.477 128.759 C 206.478 129.507,206.997 131.047,207.731 132.477 C 208.843 134.643,209.401 135.332,211.502 137.135 C 212.243 137.770,220.850 137.770,221.592 137.135 C 223.584 135.426,224.057 134.868,224.724 133.439 C 226.182 130.319,226.619 129.201,226.619 128.591 C 226.619 128.252,226.853 127.224,227.140 126.307 C 227.427 125.390,227.849 123.912,228.077 123.022 C 228.305 122.131,228.718 120.750,228.994 119.952 C 229.270 119.154,229.496 118.142,229.496 117.704 C 229.496 117.265,229.655 116.906,229.849 116.906 C 230.043 116.906,230.300 116.461,230.419 115.917 C 230.631 114.947,231.286 113.351,232.249 111.455 C 232.516 110.930,232.734 110.312,232.734 110.081 C 232.734 109.850,232.977 109.418,233.273 109.121 C 233.570 108.825,233.813 108.270,233.813 107.888 C 233.813 107.506,233.975 107.194,234.173 107.194 C 234.371 107.194,234.532 107.038,234.532 106.847 C 234.532 106.554,235.258 105.194,237.590 101.122 C 238.229 100.007,241.064 96.763,241.400 96.763 C 241.944 96.763,241.775 101.265,241.189 102.387 C 240.852 103.034,240.651 104.428,240.650 106.133 C 240.648 107.627,240.472 109.025,240.257 109.240 C 240.041 109.455,239.724 111.227,239.550 113.179 C 239.377 115.130,239.055 118.183,238.835 119.964 C 237.776 128.523,238.778 133.985,241.864 136.482 L 243.232 137.590 248.475 137.590 C 252.349 137.590,253.756 137.473,253.867 137.140 C 253.949 136.893,254.238 136.691,254.508 136.691 C 255.207 136.691,257.168 134.522,257.436 133.453 C 257.560 132.959,257.880 132.235,258.147 131.844 C 258.520 131.300,258.633 129.244,258.633 123.013 C 258.633 117.980,258.772 114.753,259.000 114.526 C 259.201 114.324,259.523 112.147,259.715 109.688 C 259.907 107.228,260.318 103.597,260.628 101.619 C 260.938 99.640,261.385 96.537,261.621 94.722 C 261.857 92.908,262.172 91.303,262.320 91.155 C 262.882 90.597,262.634 78.542,262.050 78.058 C 261.754 77.811,261.511 77.381,261.511 77.102 C 261.511 76.521,259.517 74.460,258.955 74.460 C 258.750 74.460,258.339 74.218,258.042 73.921 C 257.267 73.146,247.943 73.137,246.921 73.909 C 246.537 74.200,245.868 74.443,245.435 74.449 C 245.001 74.455,244.555 74.608,244.444 74.789 C 244.332 74.970,243.473 75.488,242.534 75.941 C 239.366 77.471,233.072 83.690,230.018 88.309 C 227.910 91.496,226.831 91.810,228.044 88.883 C 229.789 84.669,227.618 74.460,224.977 74.460 C 224.741 74.460,224.347 74.218,224.101 73.921 C 223.741 73.487,222.642 73.381,218.507 73.381 C 214.412 73.381,213.251 73.492,212.821 73.921 C 212.524 74.218,212.035 74.460,211.734 74.460 C 211.132 74.460,207.977 76.288,206.145 77.698 C 203.556 79.691,197.482 86.378,197.482 87.235 C 197.482 87.373,196.996 88.100,196.403 88.849 C 195.809 89.598,195.324 90.371,195.324 90.565 C 195.324 90.760,195.095 91.109,194.816 91.340 C 194.297 91.771,194.339 89.493,194.876 88.129 C 195.080 87.612,195.685 85.250,196.396 82.194 C 197.255 78.507,196.615 74.175,195.128 73.605 C 193.804 73.097,184.637 73.361,184.173 73.921 M146.763 89.054 C 146.763 89.563,146.520 90.222,146.223 90.519 C 145.874 90.869,145.679 91.778,145.672 93.101 C 145.665 94.324,145.449 95.424,145.132 95.842 C 144.812 96.266,144.604 97.345,144.604 98.589 C 144.604 99.715,144.363 101.101,144.067 101.668 C 143.771 102.234,143.529 103.376,143.527 104.205 C 143.526 105.035,143.373 105.807,143.186 105.922 C 143.000 106.038,142.735 106.880,142.598 107.795 C 142.461 108.710,142.129 109.880,141.860 110.395 C 141.591 110.910,141.370 111.607,141.369 111.944 C 141.366 112.740,139.876 116.385,139.124 117.436 C 136.931 120.502,133.094 123.156,133.094 121.607 C 133.094 121.422,132.799 121.178,132.438 121.063 C 130.455 120.434,129.548 114.504,130.620 109.173 C 130.819 108.183,131.072 106.736,131.183 105.955 C 131.293 105.175,131.607 104.313,131.879 104.041 C 132.151 103.769,132.374 103.314,132.374 103.030 C 132.374 102.424,133.728 99.547,134.931 97.595 C 137.161 93.979,141.037 90.313,143.566 89.427 C 144.632 89.054,145.657 88.609,145.845 88.439 C 146.448 87.894,146.763 88.105,146.763 89.054 M298.692 90.157 C 301.239 92.704,298.461 99.104,293.705 101.647 C 287.454 104.989,286.331 105.211,286.331 103.106 C 286.331 102.234,286.573 101.057,286.868 100.491 C 287.164 99.924,287.412 99.056,287.419 98.561 C 287.427 98.067,287.671 97.348,287.961 96.964 C 288.252 96.580,288.489 95.973,288.489 95.615 C 288.489 95.257,288.640 94.964,288.825 94.964 C 289.009 94.964,289.273 94.607,289.412 94.171 C 289.550 93.736,289.881 93.161,290.147 92.895 C 290.414 92.629,290.837 92.117,291.089 91.759 C 292.858 89.238,296.918 88.383,298.692 90.157 M75.180 96.382 C 75.180 96.963,75.018 97.540,74.820 97.662 C 74.622 97.784,74.455 98.644,74.449 99.572 C 74.443 100.500,74.200 101.573,73.909 101.957 C 73.619 102.341,73.376 103.232,73.370 103.936 C 73.364 104.640,73.121 105.530,72.830 105.914 C 72.540 106.298,72.297 107.107,72.291 107.713 C 72.284 108.318,72.042 109.127,71.751 109.511 C 71.461 109.895,71.218 110.624,71.212 111.130 C 71.205 111.636,70.962 112.365,70.672 112.749 C 70.382 113.133,70.139 113.780,70.132 114.187 C 70.126 114.595,69.883 115.242,69.593 115.626 C 69.302 116.010,69.065 116.575,69.065 116.880 C 69.065 117.186,68.674 118.247,68.197 119.239 C 67.720 120.231,67.228 121.286,67.104 121.583 C 66.701 122.545,64.921 125.354,63.489 127.284 C 58.132 134.506,49.302 136.501,48.015 130.779 C 47.291 127.561,47.229 126.699,47.529 124.009 C 47.880 120.865,48.770 117.402,49.314 117.066 C 49.493 116.955,49.640 116.550,49.640 116.166 C 49.640 115.782,49.791 115.468,49.976 115.468 C 50.160 115.468,50.426 115.106,50.566 114.664 C 51.350 112.194,56.368 106.827,61.147 103.345 C 62.831 102.119,64.371 100.977,64.568 100.809 C 64.766 100.641,65.171 100.388,65.468 100.248 C 65.764 100.107,66.493 99.671,67.086 99.278 C 67.680 98.885,68.611 98.385,69.155 98.167 C 69.699 97.950,70.144 97.625,70.144 97.447 C 70.144 97.268,70.346 97.113,70.594 97.101 C 70.841 97.089,71.772 96.702,72.662 96.240 C 74.846 95.107,75.180 95.126,75.180 96.382 " stroke="none" fill="#3cdcdc" fill-rule="evenodd"></path></g></svg>