<svg id="svg" version="1.1" width="400" height="400" viewBox="0 0 400 400" xmlns="http://www.w3.org/2000/svg" xmlns:xlink="http://www.w3.org/1999/xlink" ><g id="svgg"><path id="path0" d="M178.500 0.275 C 176.465 0.360,174.800 0.603,174.800 0.815 C 174.800 1.027,173.551 1.200,172.024 1.200 C 170.497 1.200,169.136 1.380,169.000 1.600 C 168.864 1.820,167.784 2.000,166.600 2.000 C 165.416 2.000,164.336 2.180,164.200 2.400 C 164.064 2.620,163.063 2.800,161.976 2.800 C 160.889 2.800,160.000 2.980,160.000 3.200 C 160.000 3.420,159.291 3.600,158.424 3.600 C 157.557 3.600,156.736 3.780,156.600 4.000 C 156.464 4.220,155.553 4.400,154.576 4.400 C 153.599 4.400,152.800 4.580,152.800 4.800 C 152.800 5.020,152.080 5.200,151.200 5.200 C 150.320 5.200,149.600 5.380,149.600 5.600 C 149.600 5.820,148.970 6.000,148.200 6.000 C 147.430 6.000,146.800 6.180,146.800 6.400 C 146.800 6.620,146.170 6.800,145.400 6.800 C 144.630 6.800,144.000 6.980,144.000 7.200 C 144.000 7.420,143.370 7.600,142.600 7.600 C 141.830 7.600,141.200 7.780,141.200 8.000 C 141.200 8.220,140.660 8.400,140.000 8.400 C 139.340 8.400,138.800 8.580,138.800 8.800 C 138.800 9.020,138.260 9.200,137.600 9.200 C 136.940 9.200,136.400 9.356,136.400 9.546 C 136.400 9.736,135.635 9.997,134.700 10.125 C 133.027 10.355,128.270 12.044,125.905 13.247 C 125.523 13.441,124.938 13.600,124.605 13.600 C 124.272 13.600,124.000 13.747,124.000 13.928 C 124.000 14.108,123.100 14.500,122.000 14.800 C 120.900 15.100,120.000 15.492,120.000 15.672 C 120.000 15.853,119.640 16.000,119.200 16.000 C 118.760 16.000,118.400 16.180,118.400 16.400 C 118.400 16.620,118.147 16.800,117.838 16.800 C 117.529 16.800,116.584 17.146,115.738 17.570 C 114.892 17.993,113.615 18.577,112.900 18.867 C 112.185 19.158,111.600 19.531,111.600 19.698 C 111.600 19.864,111.240 20.000,110.800 20.000 C 110.360 20.000,110.000 20.180,110.000 20.400 C 110.000 20.620,109.640 20.800,109.200 20.800 C 108.760 20.800,108.400 20.980,108.400 21.200 C 108.400 21.420,108.040 21.600,107.600 21.600 C 107.160 21.600,106.800 21.746,106.800 21.925 C 106.800 22.104,106.170 22.498,105.400 22.800 C 104.630 23.102,104.000 23.496,104.000 23.675 C 104.000 23.854,103.730 24.000,103.400 24.000 C 103.070 24.000,102.800 24.180,102.800 24.400 C 102.800 24.620,102.440 24.800,102.000 24.800 C 101.560 24.800,101.200 24.980,101.200 25.200 C 101.200 25.420,100.840 25.600,100.400 25.600 C 99.960 25.600,99.600 25.780,99.600 26.000 C 99.600 26.220,99.330 26.400,99.000 26.400 C 98.670 26.400,98.400 26.566,98.400 26.768 C 98.400 26.971,97.860 27.255,97.200 27.400 C 96.540 27.545,96.000 27.807,96.000 27.983 C 96.000 28.159,95.460 28.527,94.800 28.800 C 94.140 29.073,93.600 29.455,93.600 29.649 C 93.600 29.842,93.364 30.000,93.075 30.000 C 92.787 30.000,92.164 30.360,91.692 30.800 C 91.220 31.240,90.596 31.600,90.305 31.600 C 90.014 31.600,89.517 31.960,89.200 32.400 C 88.883 32.840,88.369 33.200,88.059 33.200 C 87.748 33.200,87.203 33.516,86.847 33.903 C 86.491 34.289,85.705 34.860,85.100 35.170 C 84.495 35.481,84.000 35.885,84.000 36.068 C 84.000 36.250,83.730 36.400,83.400 36.400 C 83.070 36.400,82.800 36.580,82.800 36.800 C 82.800 37.020,82.570 37.200,82.288 37.200 C 82.007 37.200,81.517 37.560,81.200 38.000 C 80.883 38.440,80.420 38.800,80.171 38.800 C 79.922 38.800,79.154 39.340,78.463 40.000 C 77.772 40.660,77.098 41.200,76.964 41.200 C 76.830 41.200,76.242 41.713,75.655 42.341 C 75.069 42.968,74.052 43.766,73.395 44.115 C 72.738 44.464,71.469 45.435,70.576 46.274 C 69.683 47.113,68.153 48.426,67.176 49.191 C 66.199 49.956,64.230 51.804,62.800 53.298 C 59.805 56.427,57.206 59.027,53.063 63.041 C 51.450 64.604,49.606 66.579,48.965 67.431 C 48.324 68.282,47.113 69.703,46.274 70.589 C 45.435 71.475,44.464 72.738,44.115 73.395 C 43.766 74.052,42.968 75.069,42.341 75.655 C 41.713 76.242,41.200 76.830,41.200 76.964 C 41.200 77.098,40.660 77.772,40.000 78.463 C 39.340 79.154,38.800 79.922,38.800 80.171 C 38.800 80.420,38.440 80.883,38.000 81.200 C 37.560 81.517,37.200 82.007,37.200 82.288 C 37.200 82.570,37.020 82.800,36.800 82.800 C 36.580 82.800,36.400 83.070,36.400 83.400 C 36.400 83.730,36.250 84.000,36.068 84.000 C 35.885 84.000,35.481 84.495,35.170 85.100 C 34.860 85.705,34.289 86.491,33.903 86.847 C 33.516 87.203,33.200 87.748,33.200 88.059 C 33.200 88.369,32.840 88.883,32.400 89.200 C 31.960 89.517,31.600 90.014,31.600 90.305 C 31.600 90.596,31.240 91.220,30.800 91.692 C 30.360 92.164,30.000 92.787,30.000 93.075 C 30.000 93.364,29.842 93.600,29.649 93.600 C 29.455 93.600,29.073 94.140,28.800 94.800 C 28.527 95.460,28.159 96.000,27.983 96.000 C 27.807 96.000,27.545 96.540,27.400 97.200 C 27.255 97.860,26.971 98.400,26.768 98.400 C 26.566 98.400,26.400 98.670,26.400 99.000 C 26.400 99.330,26.220 99.600,26.000 99.600 C 25.780 99.600,25.600 99.960,25.600 100.400 C 25.600 100.840,25.420 101.200,25.200 101.200 C 24.980 101.200,24.800 101.560,24.800 102.000 C 24.800 102.440,24.620 102.800,24.400 102.800 C 24.180 102.800,24.000 103.070,24.000 103.400 C 24.000 103.730,23.854 104.000,23.675 104.000 C 23.496 104.000,23.102 104.630,22.800 105.400 C 22.498 106.170,22.104 106.800,21.925 106.800 C 21.746 106.800,21.600 107.160,21.600 107.600 C 21.600 108.040,21.420 108.400,21.200 108.400 C 20.980 108.400,20.800 108.760,20.800 109.200 C 20.800 109.640,20.620 110.000,20.400 110.000 C 20.180 110.000,20.000 110.360,20.000 110.800 C 20.000 111.240,19.865 111.601,19.700 111.603 C 19.341 111.607,18.400 113.544,18.400 114.280 C 18.400 114.566,18.220 114.800,18.000 114.800 C 17.780 114.800,17.600 115.149,17.600 115.576 C 17.600 116.003,17.420 116.464,17.200 116.600 C 16.980 116.736,16.800 117.197,16.800 117.624 C 16.800 118.051,16.620 118.400,16.400 118.400 C 16.180 118.400,16.000 118.760,16.000 119.200 C 16.000 119.640,15.853 120.000,15.672 120.000 C 15.492 120.000,15.100 120.900,14.800 122.000 C 14.500 123.100,14.108 124.000,13.928 124.000 C 13.747 124.000,13.600 124.272,13.600 124.605 C 13.600 124.938,13.441 125.523,13.247 125.905 C 12.044 128.270,10.355 133.027,10.125 134.700 C 9.997 135.635,9.736 136.400,9.546 136.400 C 9.356 136.400,9.200 136.940,9.200 137.600 C 9.200 138.260,9.020 138.800,8.800 138.800 C 8.580 138.800,8.400 139.340,8.400 140.000 C 8.400 140.660,8.220 141.200,8.000 141.200 C 7.780 141.200,7.600 141.830,7.600 142.600 C 7.600 143.370,7.420 144.000,7.200 144.000 C 6.980 144.000,6.800 144.630,6.800 145.400 C 6.800 146.170,6.620 146.800,6.400 146.800 C 6.180 146.800,6.000 147.430,6.000 148.200 C 6.000 148.970,5.820 149.600,5.600 149.600 C 5.380 149.600,5.200 150.320,5.200 151.200 C 5.200 152.080,5.020 152.800,4.800 152.800 C 4.580 152.800,4.400 153.599,4.400 154.576 C 4.400 155.553,4.220 156.464,4.000 156.600 C 3.780 156.736,3.600 157.557,3.600 158.424 C 3.600 159.291,3.420 160.000,3.200 160.000 C 2.980 160.000,2.800 160.889,2.800 161.976 C 2.800 163.063,2.620 164.064,2.400 164.200 C 2.180 164.336,2.000 165.416,2.000 166.600 C 2.000 167.784,1.820 168.864,1.600 169.000 C 1.380 169.136,1.200 170.482,1.200 171.990 C 1.200 173.829,1.035 174.788,0.700 174.900 C -0.032 175.144,-0.032 224.856,0.700 225.100 C 1.035 225.212,1.200 226.171,1.200 228.010 C 1.200 229.518,1.380 230.864,1.600 231.000 C 1.820 231.136,2.000 232.216,2.000 233.400 C 2.000 234.584,2.180 235.664,2.400 235.800 C 2.620 235.936,2.800 236.937,2.800 238.024 C 2.800 239.111,2.980 240.000,3.200 240.000 C 3.420 240.000,3.600 240.709,3.600 241.576 C 3.600 242.443,3.780 243.264,4.000 243.400 C 4.220 243.536,4.400 244.447,4.400 245.424 C 4.400 246.401,4.580 247.200,4.800 247.200 C 5.020 247.200,5.200 247.920,5.200 248.800 C 5.200 249.680,5.380 250.400,5.600 250.400 C 5.820 250.400,6.000 251.019,6.000 251.776 C 6.000 252.533,6.180 253.264,6.400 253.400 C 6.620 253.536,6.800 254.177,6.800 254.824 C 6.800 255.471,6.980 256.000,7.200 256.000 C 7.420 256.000,7.600 256.630,7.600 257.400 C 7.600 258.170,7.780 258.800,8.000 258.800 C 8.220 258.800,8.400 259.340,8.400 260.000 C 8.400 260.660,8.580 261.200,8.800 261.200 C 9.020 261.200,9.200 261.740,9.200 262.400 C 9.200 263.060,9.356 263.600,9.546 263.600 C 9.736 263.600,9.997 264.365,10.125 265.300 C 10.355 266.973,12.044 271.730,13.247 274.095 C 13.441 274.477,13.600 275.062,13.600 275.395 C 13.600 275.728,13.747 276.000,13.928 276.000 C 14.108 276.000,14.500 276.900,14.800 278.000 C 15.100 279.100,15.492 280.000,15.672 280.000 C 15.853 280.000,16.000 280.360,16.000 280.800 C 16.000 281.240,16.180 281.600,16.400 281.600 C 16.620 281.600,16.800 281.853,16.800 282.162 C 16.800 282.471,17.139 283.416,17.553 284.262 C 17.967 285.108,18.732 286.700,19.253 287.800 C 19.774 288.900,20.335 289.860,20.500 289.933 C 20.665 290.007,20.800 290.412,20.800 290.833 C 20.800 291.255,20.980 291.600,21.200 291.600 C 21.420 291.600,21.600 291.945,21.600 292.367 C 21.600 292.788,21.735 293.193,21.900 293.267 C 22.276 293.434,23.575 295.564,23.871 296.500 C 23.993 296.885,24.252 297.200,24.447 297.200 C 24.641 297.200,24.800 297.560,24.800 298.000 C 24.800 298.440,24.980 298.800,25.200 298.800 C 25.420 298.800,25.600 299.160,25.600 299.600 C 25.600 300.040,25.735 300.402,25.900 300.405 C 26.065 300.407,26.553 301.172,26.985 302.105 C 27.890 304.057,30.786 308.536,31.272 308.733 C 31.453 308.807,31.600 309.172,31.600 309.545 C 31.600 309.918,31.960 310.483,32.400 310.800 C 32.840 311.117,33.200 311.657,33.200 312.000 C 33.200 312.343,33.560 312.883,34.000 313.200 C 34.440 313.517,34.800 313.962,34.801 314.188 C 34.801 314.415,35.341 315.230,36.000 316.000 C 36.659 316.770,37.199 317.585,37.199 317.812 C 37.200 318.038,37.560 318.483,38.000 318.800 C 38.440 319.117,38.800 319.580,38.800 319.829 C 38.800 320.078,39.340 320.846,40.000 321.537 C 40.660 322.228,41.200 322.910,41.200 323.053 C 41.200 323.196,41.732 323.822,42.383 324.444 C 43.034 325.066,43.830 326.084,44.152 326.707 C 44.474 327.329,45.426 328.555,46.269 329.431 C 47.111 330.307,48.326 331.722,48.969 332.576 C 49.612 333.430,51.839 335.788,53.917 337.817 C 58.633 342.421,59.409 343.197,62.989 346.887 C 64.581 348.528,66.577 350.394,67.426 351.035 C 68.275 351.676,69.774 352.965,70.757 353.900 C 71.739 354.835,72.668 355.600,72.821 355.600 C 72.974 355.600,73.887 356.320,74.849 357.200 C 75.812 358.080,76.736 358.800,76.903 358.800 C 77.071 358.800,77.772 359.340,78.463 360.000 C 79.154 360.660,79.922 361.200,80.171 361.200 C 80.420 361.200,80.883 361.560,81.200 362.000 C 81.517 362.440,82.007 362.800,82.288 362.800 C 82.570 362.800,82.800 362.980,82.800 363.200 C 82.800 363.420,83.070 363.600,83.400 363.600 C 83.730 363.600,84.000 363.750,84.000 363.932 C 84.000 364.115,84.495 364.519,85.100 364.830 C 85.705 365.140,86.491 365.711,86.847 366.097 C 87.203 366.484,87.748 366.800,88.059 366.800 C 88.369 366.800,88.883 367.160,89.200 367.600 C 89.517 368.040,90.057 368.400,90.400 368.400 C 90.743 368.400,91.283 368.760,91.600 369.200 C 91.917 369.640,92.414 370.000,92.705 370.000 C 92.996 370.000,93.620 370.360,94.092 370.800 C 94.564 371.240,95.187 371.600,95.475 371.600 C 95.764 371.600,96.000 371.780,96.000 372.000 C 96.000 372.220,96.158 372.400,96.352 372.400 C 96.545 372.400,97.749 373.030,99.028 373.800 C 100.307 374.570,101.664 375.200,102.043 375.200 C 102.423 375.200,102.793 375.335,102.867 375.500 C 103.034 375.876,105.164 377.175,106.100 377.471 C 106.485 377.593,106.800 377.852,106.800 378.047 C 106.800 378.241,107.160 378.400,107.600 378.400 C 108.040 378.400,108.400 378.580,108.400 378.800 C 108.400 379.020,108.760 379.200,109.200 379.200 C 109.640 379.200,110.000 379.380,110.000 379.600 C 110.000 379.820,110.360 380.000,110.800 380.000 C 111.240 380.000,111.600 380.136,111.600 380.302 C 111.600 380.469,112.185 380.840,112.900 381.129 C 113.615 381.417,114.513 381.821,114.895 382.026 C 115.277 382.232,115.862 382.400,116.195 382.400 C 116.528 382.400,116.800 382.580,116.800 382.800 C 116.800 383.020,117.160 383.200,117.600 383.200 C 118.040 383.200,118.400 383.380,118.400 383.600 C 118.400 383.820,118.760 384.000,119.200 384.000 C 119.640 384.000,120.000 384.180,120.000 384.400 C 120.000 384.620,120.349 384.800,120.776 384.800 C 121.203 384.800,121.664 384.980,121.800 385.200 C 121.936 385.420,122.487 385.600,123.024 385.600 C 123.561 385.600,124.000 385.780,124.000 386.000 C 124.000 386.220,124.272 386.400,124.605 386.400 C 124.938 386.400,125.568 386.580,126.005 386.800 C 126.442 387.020,127.158 387.380,127.595 387.600 C 128.032 387.820,128.737 388.000,129.161 388.000 C 129.586 388.000,129.993 388.140,130.067 388.312 C 130.256 388.755,139.040 391.600,140.220 391.600 C 140.759 391.600,141.200 391.780,141.200 392.000 C 141.200 392.220,141.830 392.400,142.600 392.400 C 143.370 392.400,144.000 392.580,144.000 392.800 C 144.000 393.020,144.630 393.200,145.400 393.200 C 146.170 393.200,146.800 393.380,146.800 393.600 C 146.800 393.820,147.430 394.000,148.200 394.000 C 148.970 394.000,149.600 394.180,149.600 394.400 C 149.600 394.620,150.320 394.800,151.200 394.800 C 152.080 394.800,152.800 394.980,152.800 395.200 C 152.800 395.420,153.599 395.600,154.576 395.600 C 155.553 395.600,156.464 395.780,156.600 396.000 C 156.736 396.220,157.557 396.400,158.424 396.400 C 159.291 396.400,160.000 396.580,160.000 396.800 C 160.000 397.020,160.889 397.200,161.976 397.200 C 163.063 397.200,164.064 397.380,164.200 397.600 C 164.336 397.820,165.416 398.000,166.600 398.000 C 167.784 398.000,168.864 398.180,169.000 398.400 C 169.136 398.620,170.482 398.800,171.990 398.800 C 173.829 398.800,174.788 398.965,174.900 399.300 C 175.144 400.032,224.856 400.032,225.100 399.300 C 225.212 398.964,226.176 398.800,228.033 398.800 C 229.611 398.800,230.800 398.628,230.800 398.400 C 230.800 398.178,231.859 398.000,233.176 398.000 C 234.483 398.000,235.664 397.820,235.800 397.600 C 235.936 397.380,236.937 397.200,238.024 397.200 C 239.111 397.200,240.000 397.020,240.000 396.800 C 240.000 396.580,240.720 396.400,241.600 396.400 C 242.480 396.400,243.200 396.220,243.200 396.000 C 243.200 395.780,244.100 395.600,245.200 395.600 C 246.300 395.600,247.200 395.420,247.200 395.200 C 247.200 394.980,247.920 394.800,248.800 394.800 C 249.680 394.800,250.400 394.620,250.400 394.400 C 250.400 394.180,251.030 394.000,251.800 394.000 C 252.570 394.000,253.200 393.820,253.200 393.600 C 253.200 393.380,253.830 393.200,254.600 393.200 C 255.370 393.200,256.000 393.020,256.000 392.800 C 256.000 392.580,256.630 392.400,257.400 392.400 C 258.170 392.400,258.800 392.220,258.800 392.000 C 258.800 391.780,259.241 391.600,259.780 391.600 C 260.960 391.600,269.744 388.755,269.933 388.312 C 270.007 388.140,270.414 388.000,270.839 388.000 C 271.263 388.000,271.968 387.820,272.405 387.600 C 272.842 387.380,273.558 387.020,273.995 386.800 C 274.432 386.580,275.062 386.400,275.395 386.400 C 275.728 386.400,276.000 386.253,276.000 386.072 C 276.000 385.892,276.900 385.500,278.000 385.200 C 279.100 384.900,280.000 384.508,280.000 384.328 C 280.000 384.147,280.360 384.000,280.800 384.000 C 281.240 384.000,281.600 383.820,281.600 383.600 C 281.600 383.380,281.960 383.200,282.400 383.200 C 282.840 383.200,283.200 383.020,283.200 382.800 C 283.200 382.580,283.472 382.400,283.805 382.400 C 284.138 382.400,284.723 382.240,285.105 382.044 C 285.487 381.848,286.700 381.263,287.800 380.744 C 288.900 380.225,289.860 379.665,289.933 379.500 C 290.007 379.335,290.412 379.200,290.833 379.200 C 291.255 379.200,291.600 379.020,291.600 378.800 C 291.600 378.580,291.960 378.400,292.400 378.400 C 292.840 378.400,293.200 378.220,293.200 378.000 C 293.200 377.780,293.436 377.600,293.725 377.600 C 294.013 377.600,294.636 377.240,295.108 376.800 C 295.580 376.360,296.244 376.000,296.583 376.000 C 296.922 376.000,297.200 375.820,297.200 375.600 C 297.200 375.380,297.479 375.200,297.820 375.200 C 298.447 375.200,300.832 374.099,301.200 373.639 C 301.310 373.502,302.255 372.958,303.300 372.432 C 304.345 371.905,305.200 371.366,305.200 371.235 C 305.200 371.103,305.785 370.740,306.500 370.428 C 307.215 370.116,308.091 369.532,308.447 369.130 C 308.803 368.729,309.348 368.400,309.659 368.400 C 309.969 368.400,310.483 368.040,310.800 367.600 C 311.117 367.160,311.657 366.800,312.000 366.800 C 312.343 366.800,312.883 366.440,313.200 366.000 C 313.517 365.560,313.962 365.200,314.188 365.199 C 314.415 365.199,315.230 364.659,316.000 364.000 C 316.770 363.341,317.585 362.801,317.812 362.801 C 318.038 362.800,318.483 362.440,318.800 362.000 C 319.117 361.560,319.572 361.200,319.810 361.200 C 320.049 361.200,320.931 360.570,321.772 359.800 C 322.613 359.030,323.423 358.400,323.572 358.400 C 323.721 358.400,324.531 357.770,325.372 357.000 C 326.213 356.230,327.030 355.600,327.188 355.600 C 327.346 355.600,328.498 354.610,329.747 353.400 C 330.996 352.190,332.172 351.200,332.360 351.200 C 332.547 351.200,334.658 349.232,337.050 346.827 C 342.323 341.525,341.525 342.323,346.827 337.050 C 349.232 334.658,351.200 332.547,351.200 332.360 C 351.200 332.172,352.190 330.996,353.400 329.747 C 354.610 328.498,355.600 327.346,355.600 327.188 C 355.600 327.030,356.230 326.213,357.000 325.372 C 357.770 324.531,358.400 323.721,358.400 323.572 C 358.400 323.423,359.030 322.613,359.800 321.772 C 360.570 320.931,361.200 320.049,361.200 319.810 C 361.200 319.572,361.560 319.117,362.000 318.800 C 362.440 318.483,362.800 318.038,362.801 317.812 C 362.801 317.585,363.341 316.770,364.000 316.000 C 364.659 315.230,365.199 314.415,365.199 314.188 C 365.200 313.962,365.560 313.517,366.000 313.200 C 366.440 312.883,366.800 312.343,366.800 312.000 C 366.800 311.657,367.160 311.117,367.600 310.800 C 368.040 310.483,368.400 309.969,368.400 309.659 C 368.400 309.348,368.729 308.803,369.130 308.447 C 369.532 308.091,370.116 307.215,370.428 306.500 C 370.740 305.785,371.103 305.200,371.235 305.200 C 371.366 305.200,371.905 304.345,372.432 303.300 C 372.958 302.255,373.502 301.310,373.639 301.200 C 374.099 300.832,375.200 298.447,375.200 297.820 C 375.200 297.479,375.380 297.200,375.600 297.200 C 375.820 297.200,376.000 296.922,376.000 296.583 C 376.000 296.244,376.360 295.580,376.800 295.108 C 377.240 294.636,377.600 294.013,377.600 293.725 C 377.600 293.436,377.780 293.200,378.000 293.200 C 378.220 293.200,378.400 292.840,378.400 292.400 C 378.400 291.960,378.580 291.600,378.800 291.600 C 379.020 291.600,379.200 291.255,379.200 290.833 C 379.200 290.412,379.335 290.007,379.500 289.933 C 379.665 289.860,380.225 288.900,380.744 287.800 C 381.263 286.700,381.848 285.487,382.044 285.105 C 382.240 284.723,382.400 284.138,382.400 283.805 C 382.400 283.472,382.580 283.200,382.800 283.200 C 383.020 283.200,383.200 282.840,383.200 282.400 C 383.200 281.960,383.380 281.600,383.600 281.600 C 383.820 281.600,384.000 281.240,384.000 280.800 C 384.000 280.360,384.180 280.000,384.400 280.000 C 384.620 280.000,384.800 279.651,384.800 279.224 C 384.800 278.797,384.980 278.336,385.200 278.200 C 385.420 278.064,385.600 277.513,385.600 276.976 C 385.600 276.439,385.780 276.000,386.000 276.000 C 386.220 276.000,386.400 275.728,386.400 275.395 C 386.400 275.062,386.580 274.432,386.800 273.995 C 387.020 273.558,387.380 272.842,387.600 272.405 C 387.820 271.968,388.000 271.263,388.000 270.839 C 388.000 270.414,388.140 270.007,388.312 269.933 C 388.755 269.744,391.600 260.960,391.600 259.780 C 391.600 259.241,391.780 258.800,392.000 258.800 C 392.220 258.800,392.400 258.170,392.400 257.400 C 392.400 256.630,392.580 256.000,392.800 256.000 C 393.020 256.000,393.200 255.370,393.200 254.600 C 393.200 253.830,393.380 253.200,393.600 253.200 C 393.820 253.200,394.000 252.570,394.000 251.800 C 394.000 251.030,394.180 250.400,394.400 250.400 C 394.620 250.400,394.800 249.680,394.800 248.800 C 394.800 247.920,394.980 247.200,395.200 247.200 C 395.420 247.200,395.600 246.300,395.600 245.200 C 395.600 244.100,395.780 243.200,396.000 243.200 C 396.220 243.200,396.400 242.480,396.400 241.600 C 396.400 240.720,396.580 240.000,396.800 240.000 C 397.020 240.000,397.200 239.111,397.200 238.024 C 397.200 236.937,397.380 235.936,397.600 235.800 C 397.820 235.664,398.000 234.483,398.000 233.176 C 398.000 231.859,398.178 230.800,398.400 230.800 C 398.628 230.800,398.800 229.611,398.800 228.033 C 398.800 226.176,398.964 225.212,399.300 225.100 C 399.693 224.969,399.800 219.591,399.800 200.000 C 399.800 180.409,399.693 175.031,399.300 174.900 C 398.965 174.788,398.800 173.829,398.800 171.990 C 398.800 170.482,398.620 169.136,398.400 169.000 C 398.180 168.864,398.000 167.784,398.000 166.600 C 398.000 165.416,397.820 164.336,397.600 164.200 C 397.380 164.064,397.200 163.063,397.200 161.976 C 397.200 160.889,397.020 160.000,396.800 160.000 C 396.580 160.000,396.400 159.291,396.400 158.424 C 396.400 157.557,396.220 156.736,396.000 156.600 C 395.780 156.464,395.600 155.553,395.600 154.576 C 395.600 153.599,395.420 152.800,395.200 152.800 C 394.980 152.800,394.800 152.080,394.800 151.200 C 394.800 150.320,394.620 149.600,394.400 149.600 C 394.180 149.600,394.000 148.970,394.000 148.200 C 394.000 147.430,393.820 146.800,393.600 146.800 C 393.380 146.800,393.200 146.170,393.200 145.400 C 393.200 144.630,393.020 144.000,392.800 144.000 C 392.580 144.000,392.400 143.370,392.400 142.600 C 392.400 141.830,392.220 141.200,392.000 141.200 C 391.780 141.200,391.600 140.759,391.600 140.220 C 391.600 139.040,388.755 130.256,388.312 130.067 C 388.140 129.993,388.000 129.586,388.000 129.161 C 388.000 128.737,387.820 128.032,387.600 127.595 C 387.380 127.158,387.020 126.442,386.800 126.005 C 386.580 125.568,386.400 124.938,386.400 124.605 C 386.400 124.272,386.220 124.000,386.000 124.000 C 385.780 124.000,385.600 123.561,385.600 123.024 C 385.600 122.487,385.420 121.936,385.200 121.800 C 384.980 121.664,384.800 121.203,384.800 120.776 C 384.800 120.349,384.620 120.000,384.400 120.000 C 384.180 120.000,384.000 119.640,384.000 119.200 C 384.000 118.760,383.820 118.400,383.600 118.400 C 383.380 118.400,383.200 118.040,383.200 117.600 C 383.200 117.160,383.020 116.800,382.800 116.800 C 382.580 116.800,382.400 116.451,382.400 116.024 C 382.400 115.597,382.220 115.136,382.000 115.000 C 381.780 114.864,381.600 114.403,381.600 113.976 C 381.600 113.549,381.420 113.200,381.200 113.200 C 380.980 113.200,380.800 112.840,380.800 112.400 C 380.800 111.960,380.620 111.600,380.400 111.600 C 380.180 111.600,380.000 111.240,380.000 110.800 C 380.000 110.360,379.820 110.000,379.600 110.000 C 379.380 110.000,379.200 109.640,379.200 109.200 C 379.200 108.760,379.020 108.400,378.800 108.400 C 378.580 108.400,378.400 108.055,378.400 107.633 C 378.400 107.212,378.265 106.807,378.100 106.733 C 377.724 106.566,376.425 104.436,376.129 103.500 C 376.007 103.115,375.748 102.800,375.553 102.800 C 375.359 102.800,375.200 102.474,375.200 102.076 C 375.200 101.679,374.570 100.307,373.800 99.028 C 373.030 97.749,372.400 96.545,372.400 96.352 C 372.400 96.158,372.220 96.000,372.000 96.000 C 371.780 96.000,371.600 95.764,371.600 95.475 C 371.600 95.187,371.240 94.564,370.800 94.092 C 370.360 93.620,370.000 92.996,370.000 92.705 C 370.000 92.414,369.640 91.917,369.200 91.600 C 368.760 91.283,368.400 90.743,368.400 90.400 C 368.400 90.057,368.040 89.517,367.600 89.200 C 367.160 88.883,366.800 88.369,366.800 88.059 C 366.800 87.748,366.484 87.203,366.097 86.847 C 365.711 86.491,365.140 85.705,364.830 85.100 C 364.519 84.495,364.115 84.000,363.932 84.000 C 363.750 84.000,363.600 83.730,363.600 83.400 C 363.600 83.070,363.420 82.800,363.200 82.800 C 362.980 82.800,362.800 82.570,362.800 82.288 C 362.800 82.007,362.440 81.517,362.000 81.200 C 361.560 80.883,361.200 80.420,361.200 80.171 C 361.200 79.922,360.660 79.154,360.000 78.463 C 359.340 77.772,358.800 77.071,358.800 76.903 C 358.800 76.736,358.080 75.812,357.200 74.849 C 356.320 73.887,355.600 72.974,355.600 72.821 C 355.600 72.668,354.835 71.739,353.900 70.757 C 352.965 69.774,351.676 68.275,351.035 67.426 C 350.394 66.577,348.528 64.581,346.887 62.989 C 343.197 59.409,342.421 58.633,337.817 53.917 C 335.788 51.839,333.430 49.612,332.576 48.969 C 331.722 48.326,330.307 47.111,329.431 46.269 C 328.555 45.426,327.329 44.474,326.707 44.152 C 326.084 43.830,325.066 43.034,324.444 42.383 C 323.822 41.732,323.196 41.200,323.053 41.200 C 322.910 41.200,322.228 40.660,321.537 40.000 C 320.846 39.340,320.078 38.800,319.829 38.800 C 319.580 38.800,319.117 38.440,318.800 38.000 C 318.483 37.560,318.038 37.200,317.812 37.199 C 317.585 37.199,316.770 36.659,316.000 36.000 C 315.230 35.341,314.415 34.801,314.188 34.801 C 313.962 34.800,313.517 34.440,313.200 34.000 C 312.883 33.560,312.343 33.200,312.000 33.200 C 311.657 33.200,311.117 32.840,310.800 32.400 C 310.483 31.960,309.918 31.600,309.545 31.600 C 309.172 31.600,308.807 31.453,308.733 31.272 C 308.536 30.786,304.057 27.890,302.105 26.985 C 301.172 26.553,300.407 26.065,300.405 25.900 C 300.402 25.735,300.040 25.600,299.600 25.600 C 299.160 25.600,298.800 25.420,298.800 25.200 C 298.800 24.980,298.455 24.800,298.033 24.800 C 297.612 24.800,297.207 24.665,297.133 24.500 C 296.966 24.124,294.836 22.825,293.900 22.529 C 293.515 22.407,293.200 22.148,293.200 21.953 C 293.200 21.759,292.840 21.600,292.400 21.600 C 291.960 21.600,291.600 21.420,291.600 21.200 C 291.600 20.980,291.255 20.800,290.833 20.800 C 290.412 20.800,290.007 20.665,289.933 20.500 C 289.860 20.335,288.900 19.775,287.800 19.256 C 286.700 18.737,285.487 18.152,285.105 17.956 C 284.723 17.760,284.138 17.600,283.805 17.600 C 283.472 17.600,283.200 17.420,283.200 17.200 C 283.200 16.980,282.840 16.800,282.400 16.800 C 281.960 16.800,281.600 16.620,281.600 16.400 C 281.600 16.180,281.240 16.000,280.800 16.000 C 280.360 16.000,280.000 15.853,280.000 15.672 C 280.000 15.492,279.100 15.100,278.000 14.800 C 276.900 14.500,276.000 14.108,276.000 13.928 C 276.000 13.747,275.728 13.600,275.395 13.600 C 275.062 13.600,274.432 13.420,273.995 13.200 C 273.558 12.980,272.842 12.620,272.405 12.400 C 271.968 12.180,271.372 12.000,271.081 12.000 C 270.789 12.000,269.799 11.637,268.880 11.193 C 267.961 10.749,266.398 10.275,265.405 10.139 C 264.412 10.003,263.600 9.736,263.600 9.546 C 263.600 9.356,263.060 9.200,262.400 9.200 C 261.740 9.200,261.200 9.020,261.200 8.800 C 261.200 8.580,260.660 8.400,260.000 8.400 C 259.340 8.400,258.800 8.220,258.800 8.000 C 258.800 7.780,258.170 7.600,257.400 7.600 C 256.630 7.600,256.000 7.420,256.000 7.200 C 256.000 6.980,255.471 6.800,254.824 6.800 C 254.177 6.800,253.536 6.620,253.400 6.400 C 253.264 6.180,252.533 6.000,251.776 6.000 C 251.019 6.000,250.400 5.820,250.400 5.600 C 250.400 5.380,249.680 5.200,248.800 5.200 C 247.920 5.200,247.200 5.020,247.200 4.800 C 247.200 4.580,246.401 4.400,245.424 4.400 C 244.447 4.400,243.536 4.220,243.400 4.000 C 243.264 3.780,242.443 3.600,241.576 3.600 C 240.709 3.600,240.000 3.420,240.000 3.200 C 240.000 2.980,239.111 2.800,238.024 2.800 C 236.937 2.800,235.936 2.620,235.800 2.400 C 235.664 2.180,234.584 2.000,233.400 2.000 C 232.216 2.000,231.136 1.820,231.000 1.600 C 230.864 1.380,229.518 1.200,228.010 1.200 C 226.196 1.200,225.211 1.033,225.103 0.708 C 224.941 0.223,187.959 -0.121,178.500 0.275 M108.659 72.197 C 112.499 72.998,113.163 73.220,116.600 74.844 C 117.700 75.364,118.690 75.900,118.800 76.035 C 118.910 76.170,119.223 76.352,119.495 76.440 C 120.569 76.787,125.088 80.638,126.600 82.496 C 127.480 83.576,128.425 84.704,128.700 85.002 C 128.975 85.299,129.200 85.663,129.200 85.810 C 129.200 85.956,129.567 86.592,130.016 87.223 C 132.746 91.057,134.625 98.817,134.271 104.800 C 133.131 124.109,115.448 137.680,96.522 133.771 C 82.313 130.836,71.600 117.609,71.600 103.000 C 71.600 100.133,71.862 98.398,72.868 94.600 C 73.544 92.044,74.010 90.981,76.500 86.312 C 77.565 84.315,84.082 77.646,85.800 76.796 C 86.460 76.469,87.090 76.109,87.200 75.995 C 87.425 75.764,90.969 74.062,92.200 73.595 C 93.097 73.254,95.398 72.623,97.800 72.059 C 100.289 71.474,105.510 71.540,108.659 72.197 M279.600 153.245 C 283.830 153.798,286.626 154.377,289.400 155.275 C 300.958 159.018,310.968 166.829,317.513 177.210 C 319.319 180.076,322.800 187.245,322.800 188.101 C 322.800 188.397,322.949 188.811,323.130 189.020 C 323.312 189.229,323.690 190.210,323.969 191.200 C 324.249 192.190,324.640 193.313,324.839 193.695 C 325.038 194.077,325.200 194.896,325.200 195.515 C 325.200 196.134,325.362 196.811,325.559 197.020 C 325.756 197.229,326.021 198.120,326.147 199.000 C 326.274 199.880,326.561 201.770,326.787 203.200 C 327.959 210.638,328.151 220.388,328.175 273.800 L 328.200 328.200 301.400 328.200 L 274.600 328.200 274.591 277.800 C 274.584 241.209,274.455 226.797,274.119 225.200 C 272.533 217.663,271.248 214.502,267.902 209.912 C 263.555 203.950,257.070 200.701,248.400 200.144 C 233.845 199.208,222.758 206.916,218.040 221.251 C 216.257 226.669,216.273 226.194,216.032 278.200 L 215.800 328.200 189.100 328.303 L 162.400 328.406 162.400 242.810 L 162.400 157.215 163.300 156.997 C 163.795 156.877,175.270 156.829,188.800 156.890 L 213.400 157.000 213.600 168.356 C 213.792 179.284,213.825 179.661,214.464 178.356 C 215.472 176.297,220.134 170.695,222.644 168.528 C 223.872 167.467,225.444 166.108,226.138 165.506 C 226.832 164.905,227.507 164.410,227.638 164.406 C 227.769 164.403,228.399 163.950,229.038 163.400 C 229.677 162.851,230.425 162.401,230.700 162.400 C 230.975 162.400,231.200 162.253,231.200 162.074 C 231.200 161.013,243.542 155.249,249.000 153.761 C 253.485 152.538,271.827 152.229,279.600 153.245 M129.909 242.200 C 129.969 288.620,129.921 327.006,129.801 327.503 L 129.583 328.406 103.092 328.303 L 76.600 328.200 76.499 242.897 L 76.398 157.594 103.099 157.697 L 129.800 157.800 129.909 242.200 " stroke="none" fill="#ffffff" fill-rule="evenodd"></path><path id="path1" d="M98.476 71.940 C 97.968 72.083,100.004 72.200,103.000 72.200 C 105.996 72.200,108.032 72.083,107.524 71.940 C 107.016 71.797,104.980 71.680,103.000 71.680 C 101.020 71.680,98.984 71.797,98.476 71.940 M94.800 72.806 C 94.378 73.082,94.615 73.123,95.600 72.942 C 97.325 72.625,97.651 72.398,96.367 72.406 C 95.835 72.409,95.130 72.589,94.800 72.806 M108.833 72.547 C 108.925 72.628,109.720 72.804,110.600 72.938 C 111.715 73.107,111.958 73.071,111.400 72.819 C 110.632 72.471,108.490 72.244,108.833 72.547 M85.400 77.040 C 84.960 77.378,84.331 77.809,84.003 77.997 C 83.675 78.186,83.496 78.430,83.606 78.539 C 83.716 78.649,84.511 78.213,85.374 77.569 C 86.237 76.926,86.775 76.406,86.571 76.413 C 86.367 76.420,85.840 76.702,85.400 77.040 M80.786 81.100 L 78.600 83.400 80.900 81.214 C 83.037 79.182,83.383 78.800,83.086 78.800 C 83.024 78.800,81.989 79.835,80.786 81.100 M125.177 81.400 C 128.579 85.100,128.612 85.133,127.962 84.161 C 127.171 82.980,125.150 80.781,123.770 79.600 C 123.128 79.050,123.760 79.860,125.177 81.400 M77.365 85.011 C 76.773 85.787,76.359 86.492,76.444 86.577 C 76.530 86.663,77.107 86.028,77.726 85.167 C 79.127 83.217,78.831 83.089,77.365 85.011 M130.450 88.696 C 131.859 91.373,132.231 91.860,131.598 90.196 C 131.126 88.952,129.640 86.400,129.389 86.400 C 129.308 86.400,129.786 87.433,130.450 88.696 M132.027 91.800 C 132.025 92.020,132.377 93.190,132.810 94.400 C 133.318 95.820,133.511 96.117,133.353 95.238 C 133.104 93.846,132.035 91.076,132.027 91.800 M72.649 95.015 C 72.512 95.373,72.418 96.056,72.441 96.533 C 72.467 97.081,72.603 96.886,72.810 96.003 C 73.160 94.516,73.065 93.933,72.649 95.015 M133.800 103.200 C 133.800 106.700,133.918 108.650,134.077 107.758 C 134.229 106.901,134.354 104.850,134.354 103.200 C 134.354 101.550,134.229 99.499,134.077 98.642 C 133.918 97.750,133.800 99.700,133.800 103.200 M71.850 98.850 C 71.534 100.429,71.595 106.299,71.940 107.524 C 72.083 108.032,72.200 106.007,72.200 103.024 C 72.200 97.035,72.204 97.081,71.850 98.850 M133.000 110.800 C 132.848 111.491,132.807 112.141,132.909 112.242 C 133.011 112.344,133.209 111.853,133.350 111.150 C 133.683 109.483,133.360 109.160,133.000 110.800 M73.200 112.684 C 73.200 113.251,74.363 116.000,74.602 116.000 C 74.707 116.000,74.496 115.235,74.132 114.300 C 73.395 112.407,73.200 112.069,73.200 112.684 M131.867 114.467 C 131.505 115.388,131.274 116.207,131.354 116.288 C 131.434 116.368,131.800 115.683,132.167 114.767 C 132.533 113.850,132.764 113.031,132.679 112.946 C 132.594 112.861,132.229 113.545,131.867 114.467 M129.538 119.100 C 127.730 122.208,127.639 122.612,129.290 120.200 C 130.586 118.308,131.355 116.800,131.026 116.800 C 130.944 116.800,130.274 117.835,129.538 119.100 M75.615 118.200 C 75.617 118.420,75.986 119.050,76.436 119.600 C 76.979 120.264,77.115 120.331,76.840 119.800 C 76.166 118.495,75.612 117.772,75.615 118.200 M77.956 121.800 C 79.349 123.810,79.984 124.550,80.163 124.370 C 80.257 124.276,79.612 123.389,78.730 122.400 C 77.847 121.410,77.499 121.140,77.956 121.800 M82.238 126.623 C 84.431 128.554,85.800 129.285,83.800 127.458 C 82.700 126.453,81.637 125.624,81.438 125.615 C 81.239 125.607,81.599 126.060,82.238 126.623 M86.800 129.964 C 87.350 130.414,87.980 130.783,88.200 130.785 C 88.628 130.788,87.905 130.234,86.600 129.560 C 86.069 129.285,86.136 129.421,86.800 129.964 M118.600 130.000 C 117.940 130.437,117.580 130.792,117.800 130.788 C 118.201 130.782,120.376 129.223,120.000 129.212 C 119.890 129.208,119.260 129.563,118.600 130.000 M92.238 132.570 C 92.919 132.867,94.089 133.219,94.838 133.353 C 95.717 133.511,95.420 133.318,94.000 132.810 C 91.495 131.913,90.381 131.762,92.238 132.570 M110.600 133.200 C 109.581 133.638,110.632 133.638,112.000 133.200 C 112.804 132.943,112.843 132.877,112.200 132.868 C 111.760 132.862,111.040 133.011,110.600 133.200 M97.800 134.023 C 98.680 134.205,99.850 134.344,100.400 134.331 C 101.041 134.316,100.826 134.189,99.800 133.977 C 98.920 133.795,97.750 133.656,97.200 133.669 C 96.559 133.684,96.774 133.811,97.800 134.023 M106.000 134.000 L 104.600 134.295 106.000 134.300 C 106.770 134.303,107.940 134.168,108.600 134.000 L 109.800 133.695 108.600 133.700 C 107.940 133.703,106.770 133.838,106.000 134.000 M263.700 152.691 C 264.525 152.778,265.875 152.778,266.700 152.691 C 267.525 152.605,266.850 152.534,265.200 152.534 C 263.550 152.534,262.875 152.605,263.700 152.691 M254.915 153.096 C 256.188 153.176,258.168 153.175,259.315 153.094 C 260.462 153.014,259.420 152.949,257.000 152.950 C 254.580 152.951,253.642 153.016,254.915 153.096 M271.300 153.096 C 272.565 153.175,274.635 153.175,275.900 153.096 C 277.165 153.016,276.130 152.951,273.600 152.951 C 271.070 152.951,270.035 153.016,271.300 153.096 M249.800 153.600 C 248.722 153.874,248.702 153.906,249.600 153.913 C 250.150 153.917,251.050 153.776,251.600 153.600 C 252.944 153.169,251.492 153.169,249.800 153.600 M278.900 153.476 C 279.285 153.576,279.915 153.576,280.300 153.476 C 280.685 153.375,280.370 153.293,279.600 153.293 C 278.830 153.293,278.515 153.375,278.900 153.476 M281.700 153.876 C 282.085 153.976,282.715 153.976,283.100 153.876 C 283.485 153.775,283.170 153.693,282.400 153.693 C 281.630 153.693,281.315 153.775,281.700 153.876 M245.729 154.730 C 244.591 155.103,243.531 155.536,243.375 155.692 C 243.219 155.848,243.701 155.787,244.446 155.557 C 245.191 155.327,246.385 154.964,247.100 154.751 C 247.815 154.537,248.400 154.281,248.400 154.181 C 248.400 153.907,247.987 153.992,245.729 154.730 M286.200 154.680 C 286.640 154.783,287.810 155.142,288.800 155.477 C 291.733 156.470,292.925 156.792,292.650 156.517 C 292.202 156.068,287.037 154.419,286.200 154.457 L 285.400 154.493 286.200 154.680 M162.900 157.063 C 162.503 157.225,162.420 167.742,162.498 208.133 L 162.595 259.000 162.798 208.200 L 163.000 157.400 188.100 157.297 L 213.200 157.194 213.200 168.373 C 213.200 174.522,213.335 179.636,213.500 179.739 C 213.665 179.841,213.710 174.767,213.600 168.462 L 213.400 157.000 188.400 156.930 C 174.650 156.892,163.175 156.952,162.900 157.063 M102.901 157.899 L 129.602 158.006 129.501 242.903 L 129.400 327.800 102.938 327.800 C 88.384 327.800,76.560 327.935,76.662 328.100 C 76.764 328.265,88.713 328.400,103.216 328.400 L 129.585 328.400 129.802 327.500 C 129.921 327.005,129.969 288.620,129.909 242.200 L 129.800 157.800 103.000 157.796 L 76.200 157.791 102.901 157.899 M234.400 160.036 C 233.736 160.579,233.669 160.715,234.200 160.440 C 235.505 159.766,236.228 159.212,235.800 159.215 C 235.580 159.217,234.950 159.586,234.400 160.036 M298.800 159.620 C 300.187 160.561,300.978 160.835,300.000 160.036 C 299.450 159.586,298.820 159.217,298.600 159.215 C 298.380 159.213,298.470 159.396,298.800 159.620 M231.824 161.413 C 231.396 161.736,231.227 162.000,231.447 162.000 C 231.667 162.000,232.196 161.736,232.624 161.413 C 233.051 161.090,233.220 160.825,233.000 160.825 C 232.780 160.825,232.251 161.090,231.824 161.413 M229.429 163.009 C 229.005 163.329,228.735 163.668,228.829 163.761 C 228.923 163.855,229.425 163.587,229.944 163.166 C 231.038 162.279,230.579 162.139,229.429 163.009 M303.740 162.703 C 303.896 162.956,304.591 163.567,305.284 164.060 C 305.977 164.554,306.417 164.750,306.260 164.497 C 306.104 164.244,305.409 163.633,304.716 163.140 C 304.023 162.646,303.583 162.450,303.740 162.703 M226.901 164.900 C 226.193 165.395,225.611 165.966,225.607 166.170 C 225.603 166.373,226.095 166.106,226.700 165.576 C 227.305 165.046,227.971 164.474,228.180 164.306 C 229.013 163.635,228.111 164.054,226.901 164.900 M310.200 168.400 C 311.728 169.940,313.069 171.200,313.179 171.200 C 313.289 171.200,312.128 169.940,310.600 168.400 C 309.072 166.860,307.731 165.600,307.621 165.600 C 307.511 165.600,308.672 166.860,310.200 168.400 M222.933 168.223 C 221.797 169.220,220.026 171.063,218.998 172.318 L 217.130 174.600 219.111 172.447 C 220.201 171.262,222.062 169.425,223.247 168.364 C 224.431 167.303,225.310 166.429,225.200 166.423 C 225.090 166.417,224.070 167.227,222.933 168.223 M315.404 174.600 C 317.007 176.826,317.450 177.239,316.557 175.673 C 316.141 174.943,315.452 174.043,315.026 173.673 C 314.576 173.282,314.734 173.669,315.404 174.600 M215.910 176.100 C 214.850 177.498,213.873 179.200,214.129 179.200 C 214.216 179.200,214.944 178.210,215.747 177.000 C 217.359 174.573,217.450 174.068,215.910 176.100 M318.600 179.600 C 318.941 180.260,319.311 180.800,319.421 180.800 C 319.531 180.800,319.341 180.260,319.000 179.600 C 318.659 178.940,318.289 178.400,318.179 178.400 C 318.069 178.400,318.259 178.940,318.600 179.600 M325.440 197.866 C 325.808 199.399,326.000 199.544,326.000 198.290 C 326.000 197.717,325.813 197.132,325.584 196.990 C 325.311 196.821,325.262 197.123,325.440 197.866 M239.400 200.403 C 238.885 200.626,239.313 200.667,240.600 200.518 C 241.700 200.391,242.675 200.223,242.767 200.144 C 243.114 199.845,240.164 200.072,239.400 200.403 M250.033 200.144 C 250.125 200.223,251.100 200.391,252.200 200.518 C 253.487 200.667,253.915 200.626,253.400 200.403 C 252.636 200.072,249.686 199.845,250.033 200.144 M326.268 201.800 C 326.571 203.777,326.802 204.114,326.794 202.567 C 326.791 201.925,326.616 201.130,326.405 200.800 C 326.145 200.391,326.101 200.710,326.268 201.800 M254.433 200.944 C 254.525 201.023,255.140 201.208,255.800 201.356 C 256.676 201.552,256.838 201.515,256.400 201.218 C 255.860 200.853,254.032 200.598,254.433 200.944 M231.900 203.029 C 230.405 203.840,230.496 204.178,232.000 203.400 C 232.660 203.059,233.200 202.694,233.200 202.590 C 233.200 202.332,233.157 202.347,231.900 203.029 M226.628 206.844 C 225.399 207.968,224.011 209.453,223.545 210.144 C 222.973 210.991,223.202 210.835,224.249 209.665 C 225.102 208.711,226.610 207.231,227.600 206.377 C 228.590 205.523,229.280 204.819,229.132 204.812 C 228.985 204.805,227.858 205.720,226.628 206.844 M327.110 208.400 C 327.218 210.270,327.373 211.875,327.454 211.967 C 327.730 212.282,327.520 206.999,327.216 206.000 C 327.049 205.450,327.001 206.530,327.110 208.400 M267.249 209.000 C 269.783 212.385,270.339 212.995,269.420 211.384 C 269.038 210.715,267.922 209.275,266.939 208.184 C 265.191 206.243,265.198 206.261,267.249 209.000 M220.181 215.237 C 219.829 215.918,219.612 216.545,219.699 216.632 C 219.786 216.719,220.156 216.162,220.522 215.395 C 221.344 213.670,221.059 213.538,220.181 215.237 M327.940 271.700 L 328.080 328.000 301.445 328.000 L 274.811 328.000 274.697 315.400 L 274.583 302.800 274.591 315.500 L 274.600 328.200 301.400 328.200 L 328.200 328.200 328.296 280.200 C 328.349 253.800,328.259 228.420,328.096 223.800 C 327.933 219.180,327.863 240.735,327.940 271.700 M273.246 221.200 C 273.227 221.750,273.387 222.470,273.600 222.800 C 274.094 223.564,274.094 222.742,273.600 221.200 L 273.280 220.200 273.246 221.200 M274.086 225.200 C 274.083 225.970,274.224 227.050,274.400 227.600 C 274.850 229.004,274.865 227.537,274.423 225.400 L 274.092 223.800 274.086 225.200 M216.493 226.400 C 216.493 227.170,216.575 227.485,216.676 227.100 C 216.776 226.715,216.776 226.085,216.676 225.700 C 216.575 225.315,216.493 225.630,216.493 226.400 M216.093 229.200 C 216.093 229.970,216.175 230.285,216.276 229.900 C 216.376 229.515,216.376 228.885,216.276 228.500 C 216.175 228.115,216.093 228.430,216.093 229.200 M215.698 279.306 L 215.600 328.011 189.000 327.906 C 174.370 327.848,162.400 327.935,162.400 328.100 C 162.400 328.662,215.601 328.463,215.815 327.900 C 215.920 327.625,215.959 305.620,215.901 279.000 L 215.797 230.600 215.698 279.306 M274.979 243.600 C 274.979 250.750,275.033 253.675,275.099 250.100 C 275.166 246.525,275.166 240.675,275.099 237.100 C 275.033 233.525,274.979 236.450,274.979 243.600 " stroke="none" fill="#ffffff" fill-rule="evenodd"></path><path id="path2" d="M98.623 72.347 C 97.975 72.486,99.945 72.600,103.000 72.600 C 106.055 72.600,108.025 72.486,107.377 72.347 C 106.730 72.208,104.760 72.095,103.000 72.095 C 101.240 72.095,99.270 72.208,98.623 72.347 M117.600 75.964 C 118.150 76.414,118.780 76.783,119.000 76.785 C 119.428 76.788,118.705 76.234,117.400 75.560 C 116.869 75.285,116.936 75.421,117.600 75.964 M84.600 78.235 L 83.400 79.266 84.700 78.406 C 85.415 77.933,86.000 77.468,86.000 77.373 C 86.000 77.073,85.831 77.178,84.600 78.235 M80.985 81.300 L 79.000 83.400 81.100 81.415 C 83.051 79.571,83.383 79.200,83.085 79.200 C 83.022 79.200,82.077 80.145,80.985 81.300 M124.800 81.400 C 125.995 82.610,127.063 83.600,127.173 83.600 C 127.283 83.600,126.395 82.610,125.200 81.400 C 124.005 80.190,122.937 79.200,122.827 79.200 C 122.717 79.200,123.605 80.190,124.800 81.400 M78.000 84.800 C 77.530 85.460,77.236 86.000,77.346 86.000 C 77.456 86.000,77.930 85.460,78.400 84.800 C 78.870 84.140,79.164 83.600,79.054 83.600 C 78.944 83.600,78.470 84.140,78.000 84.800 M72.257 99.100 C 71.952 100.944,72.005 105.782,72.347 107.377 C 72.486 108.025,72.600 106.090,72.600 103.077 C 72.600 96.977,72.603 97.007,72.257 99.100 M133.737 103.000 C 133.739 104.760,133.809 105.430,133.893 104.489 C 133.978 103.549,133.977 102.109,133.891 101.289 C 133.805 100.470,133.736 101.240,133.737 103.000 M133.249 108.200 C 133.216 108.640,133.096 109.450,132.983 110.000 L 132.777 111.000 133.206 110.019 C 133.442 109.479,133.561 108.669,133.472 108.219 C 133.313 107.421,133.307 107.421,133.249 108.200 M129.400 118.800 C 129.059 119.460,128.869 120.000,128.979 120.000 C 129.089 120.000,129.459 119.460,129.800 118.800 C 130.141 118.140,130.331 117.600,130.221 117.600 C 130.111 117.600,129.741 118.140,129.400 118.800 M77.130 120.200 C 77.365 120.640,78.304 121.810,79.217 122.800 L 80.876 124.600 79.164 122.400 C 77.036 119.668,76.583 119.177,77.130 120.200 M126.774 122.500 C 125.810 123.655,125.339 124.347,125.726 124.038 C 126.504 123.418,128.968 120.400,128.696 120.400 C 128.602 120.400,127.737 121.345,126.774 122.500 M123.068 126.246 C 122.225 127.029,121.607 127.740,121.694 127.827 C 121.781 127.914,122.552 127.269,123.407 126.393 C 125.334 124.419,125.129 124.330,123.068 126.246 M82.124 125.877 C 82.460 126.421,85.600 128.955,85.600 128.682 C 85.600 128.580,84.753 127.803,83.719 126.955 C 82.684 126.107,81.966 125.622,82.124 125.877 M86.800 129.567 C 87.763 130.352,88.400 130.608,88.400 130.210 C 88.400 130.106,87.815 129.735,87.100 129.386 L 85.800 128.752 86.800 129.567 M95.400 133.200 C 95.840 133.389,96.560 133.538,97.000 133.532 C 97.643 133.523,97.604 133.457,96.800 133.200 C 95.432 132.762,94.381 132.762,95.400 133.200 M109.200 133.200 C 108.396 133.457,108.357 133.523,109.000 133.532 C 109.440 133.538,110.160 133.389,110.600 133.200 C 111.619 132.762,110.568 132.762,109.200 133.200 M101.000 134.009 C 102.100 134.154,103.900 134.153,105.000 134.005 C 106.535 133.799,106.070 133.737,103.000 133.740 C 99.934 133.743,99.467 133.805,101.000 134.009 M252.000 153.607 C 251.379 153.811,251.909 153.851,253.400 153.712 C 254.720 153.589,255.875 153.424,255.967 153.344 C 256.289 153.065,252.988 153.284,252.000 153.607 M274.033 153.351 C 274.125 153.435,275.640 153.604,277.400 153.727 C 279.750 153.892,280.175 153.858,279.000 153.599 C 277.406 153.247,273.716 153.064,274.033 153.351 M283.400 154.400 C 283.840 154.589,284.470 154.744,284.800 154.744 C 285.178 154.744,285.104 154.617,284.600 154.400 C 284.160 154.211,283.530 154.056,283.200 154.056 C 282.822 154.056,282.896 154.183,283.400 154.400 M163.049 157.815 C 162.912 158.173,162.844 181.266,162.897 209.133 L 162.994 259.800 163.197 208.600 C 163.414 153.946,163.422 156.844,163.049 157.815 M129.000 242.700 L 129.000 327.400 102.800 327.606 L 76.600 327.812 103.000 327.806 L 129.400 327.800 129.501 242.900 C 129.556 196.205,129.466 158.000,129.301 158.000 C 129.135 158.000,129.000 196.115,129.000 242.700 M76.596 242.800 C 76.596 289.330,76.643 308.365,76.700 285.100 C 76.757 261.835,76.757 223.765,76.700 200.500 C 76.643 177.235,76.596 196.270,76.596 242.800 M235.800 159.600 C 235.140 160.037,234.780 160.392,235.000 160.388 C 235.401 160.382,237.576 158.823,237.200 158.812 C 237.090 158.808,236.460 159.163,235.800 159.600 M232.900 161.246 C 231.537 162.119,231.095 162.706,232.300 162.043 C 233.218 161.539,234.656 160.427,234.400 160.419 C 234.290 160.416,233.615 160.788,232.900 161.246 M302.600 162.267 C 302.820 162.478,303.990 163.436,305.200 164.395 C 306.410 165.355,308.569 167.234,309.998 168.570 C 312.120 170.556,312.267 170.646,310.798 169.062 C 309.075 167.204,304.054 162.905,302.800 162.213 C 302.413 162.000,302.342 162.019,302.600 162.267 M227.200 165.161 C 225.770 166.236,224.240 167.527,223.800 168.031 C 223.360 168.535,224.095 168.059,225.433 166.974 C 226.772 165.888,228.392 164.605,229.033 164.122 C 229.675 163.639,230.110 163.236,230.000 163.226 C 229.890 163.216,228.630 164.087,227.200 165.161 M314.740 174.316 C 315.233 175.009,315.844 175.704,316.097 175.860 C 316.350 176.017,316.154 175.577,315.660 174.884 C 315.167 174.191,314.556 173.496,314.303 173.340 C 314.050 173.183,314.246 173.623,314.740 174.316 M217.129 175.100 C 216.178 176.218,214.728 178.400,214.935 178.400 C 215.040 178.400,215.772 177.500,216.562 176.400 C 217.985 174.419,218.277 173.750,217.129 175.100 M317.000 177.600 C 317.341 178.260,317.711 178.800,317.821 178.800 C 317.931 178.800,317.741 178.260,317.400 177.600 C 317.059 176.940,316.689 176.400,316.579 176.400 C 316.469 176.400,316.659 176.940,317.000 177.600 M321.913 187.419 C 322.284 188.420,322.639 189.082,322.703 188.891 C 322.831 188.506,321.693 185.600,321.414 185.600 C 321.317 185.600,321.542 186.419,321.913 187.419 M324.006 193.433 C 324.009 193.855,324.195 194.470,324.418 194.800 C 324.715 195.238,324.752 195.076,324.556 194.200 C 324.227 192.729,323.998 192.410,324.006 193.433 M242.800 199.553 C 242.030 199.689,243.650 199.806,246.400 199.814 C 249.645 199.823,250.839 199.726,249.800 199.537 C 247.924 199.196,244.780 199.203,242.800 199.553 M325.628 200.433 C 325.644 200.965,325.819 201.760,326.019 202.200 C 326.271 202.758,326.307 202.515,326.138 201.400 C 325.855 199.543,325.587 199.036,325.628 200.433 M237.800 200.400 C 237.296 200.617,237.222 200.744,237.600 200.744 C 237.930 200.744,238.560 200.589,239.000 200.400 C 239.504 200.183,239.578 200.056,239.200 200.056 C 238.870 200.056,238.240 200.211,237.800 200.400 M231.700 202.812 C 230.545 203.474,229.600 204.104,229.600 204.212 C 229.600 204.369,233.755 202.206,234.367 201.730 C 235.125 201.139,233.386 201.845,231.700 202.812 M262.800 204.090 C 262.800 204.177,263.835 205.128,265.100 206.203 C 266.365 207.279,267.040 207.744,266.600 207.236 C 265.764 206.271,262.800 203.817,262.800 204.090 M326.447 205.433 C 326.473 206.295,326.639 207.540,326.815 208.200 C 327.018 208.956,327.054 208.438,326.915 206.800 C 326.667 203.886,326.375 203.031,326.447 205.433 M226.413 206.652 C 225.075 207.891,223.602 209.466,223.141 210.152 C 222.679 210.839,223.050 210.553,223.967 209.517 C 224.884 208.481,226.481 206.907,227.517 206.019 C 228.553 205.132,229.275 204.404,229.123 204.403 C 228.970 204.401,227.751 205.414,226.413 206.652 M327.517 241.000 C 327.622 256.180,327.773 268.675,327.854 268.767 C 328.090 269.036,327.914 237.626,327.608 225.000 C 327.451 218.508,327.411 225.555,327.517 241.000 M219.580 215.639 C 219.120 216.540,218.813 217.346,218.897 217.430 C 218.981 217.514,219.441 216.776,219.919 215.791 C 221.009 213.547,220.715 213.415,219.580 215.639 M273.844 222.200 C 274.173 223.671,274.402 223.990,274.394 222.967 C 274.391 222.545,274.205 221.930,273.982 221.600 C 273.685 221.162,273.648 221.324,273.844 222.200 M216.629 223.429 C 216.481 224.015,216.438 224.572,216.532 224.666 C 216.627 224.760,216.824 224.358,216.971 223.771 C 217.119 223.185,217.162 222.628,217.068 222.534 C 216.973 222.440,216.776 222.842,216.629 223.429 M274.688 226.800 C 274.811 228.010,274.977 229.075,275.056 229.167 C 275.353 229.511,275.130 226.167,274.804 225.400 C 274.592 224.902,274.549 225.431,274.688 226.800 M215.856 227.284 C 215.721 227.788,215.628 228.650,215.649 229.200 C 215.672 229.789,215.831 229.471,216.036 228.425 C 216.403 226.552,216.273 225.727,215.856 227.284 M274.987 305.200 C 274.987 317.630,275.038 322.715,275.100 316.500 C 275.162 310.285,275.162 300.115,275.100 293.900 C 275.038 287.685,274.987 292.770,274.987 305.200 M215.200 309.680 C 215.090 319.734,215.137 327.823,215.304 327.656 C 215.471 327.489,215.561 319.263,215.504 309.376 L 215.400 291.400 215.200 309.680 M162.583 310.200 C 162.583 319.660,162.636 323.473,162.700 318.673 C 162.764 313.873,162.763 306.133,162.699 301.473 C 162.636 296.813,162.583 300.740,162.583 310.200 " stroke="none" fill="#ffffff" fill-rule="evenodd"></path><path id="path3" d="M262.307 153.090 C 263.026 153.179,264.106 153.177,264.707 153.086 C 265.308 152.995,264.720 152.922,263.400 152.924 C 262.080 152.926,261.588 153.001,262.307 153.090 M267.105 153.083 C 267.602 153.179,268.322 153.175,268.705 153.075 C 269.087 152.975,268.680 152.896,267.800 152.901 C 266.920 152.905,266.607 152.987,267.105 153.083 M220.981 170.500 L 219.400 172.200 221.100 170.619 C 222.681 169.148,222.984 168.800,222.681 168.800 C 222.616 168.800,221.851 169.565,220.981 170.500 M327.728 231.600 C 327.728 233.030,327.801 233.615,327.889 232.900 C 327.978 232.185,327.978 231.015,327.889 230.300 C 327.801 229.585,327.728 230.170,327.728 231.600 M274.979 269.600 C 274.979 276.970,275.033 279.985,275.099 276.300 C 275.165 272.615,275.165 266.585,275.099 262.900 C 275.033 259.215,274.979 262.230,274.979 269.600 M162.584 276.000 C 162.584 285.570,162.636 289.485,162.700 284.700 C 162.763 279.915,162.763 272.085,162.700 267.300 C 162.636 262.515,162.584 266.430,162.584 276.000 " stroke="none" fill="#ffffff" fill-rule="evenodd"></path></g></svg>