<svg id="svg" version="1.1" width="400" height="290.90909090909093" viewBox="0 0 400 290.90909090909093" xmlns="http://www.w3.org/2000/svg" xmlns:xlink="http://www.w3.org/1999/xlink" ><g id="svgg"><path id="path0" d="M155.766 6.059 C 153.816 6.798,151.481 8.666,150.547 10.236 C 147.973 14.557,147.351 15.633,146.872 16.582 C 146.671 16.982,146.351 17.505,146.161 17.745 C 145.853 18.136,144.515 20.526,143.089 23.235 C 142.805 23.774,142.396 24.428,142.179 24.689 C 141.962 24.950,141.632 25.491,141.445 25.891 C 141.257 26.291,140.774 27.142,140.370 27.782 C 139.967 28.422,139.369 29.469,139.042 30.109 C 138.715 30.749,138.159 31.751,137.806 32.336 C 137.453 32.921,136.588 34.427,135.885 35.682 C 135.182 36.937,134.509 38.029,134.390 38.109 C 134.272 38.189,133.962 38.713,133.703 39.273 C 133.444 39.833,132.914 40.815,132.525 41.455 C 132.136 42.095,131.581 43.034,131.291 43.543 C 128.683 48.119,127.737 49.743,126.660 51.491 C 126.060 52.465,124.692 54.919,123.611 56.959 C 123.332 57.486,122.951 58.102,122.764 58.327 C 122.577 58.553,122.158 59.234,121.832 59.841 C 120.907 61.570,120.165 62.883,119.400 64.145 C 119.012 64.785,118.489 65.702,118.237 66.182 C 117.984 66.662,117.493 67.534,117.144 68.119 C 114.863 71.946,113.627 74.065,113.014 75.200 C 112.754 75.680,112.224 76.596,111.835 77.236 C 111.447 77.876,110.860 78.924,110.531 79.564 C 110.202 80.204,109.551 81.316,109.083 82.036 C 108.616 82.756,108.020 83.836,107.758 84.436 C 107.496 85.036,107.178 85.527,107.051 85.527 C 106.924 85.527,106.681 85.887,106.510 86.327 C 106.339 86.767,105.846 87.716,105.414 88.436 C 104.981 89.156,104.356 90.222,104.023 90.805 C 103.690 91.388,103.043 92.501,102.585 93.278 C 101.664 94.840,100.431 96.993,99.942 97.891 C 99.769 98.211,99.411 98.800,99.148 99.200 C 98.884 99.600,98.297 100.595,97.843 101.411 C 96.802 103.282,94.312 107.616,93.464 109.032 C 92.502 110.640,91.733 112.010,91.065 113.309 C 90.736 113.949,90.080 115.062,89.608 115.782 C 89.135 116.502,88.553 117.484,88.312 117.964 C 88.072 118.444,87.478 119.491,86.992 120.291 C 86.506 121.091,85.907 122.138,85.662 122.618 C 85.417 123.098,84.926 123.967,84.572 124.549 C 84.217 125.131,83.348 126.636,82.639 127.894 C 81.931 129.152,81.276 130.247,81.185 130.327 C 81.093 130.407,80.788 130.931,80.506 131.491 C 80.225 132.051,79.712 132.967,79.367 133.527 C 79.022 134.087,78.453 135.069,78.102 135.709 C 77.751 136.349,77.044 137.581,76.530 138.447 C 74.104 142.536,73.368 146.853,74.766 148.800 C 74.880 148.960,75.066 149.484,75.178 149.964 C 75.290 150.444,75.690 151.295,76.067 151.855 C 76.808 152.956,78.236 155.459,79.053 157.091 C 79.334 157.651,79.731 158.286,79.935 158.502 C 80.140 158.718,80.505 159.307,80.746 159.811 C 80.987 160.315,81.506 161.251,81.899 161.891 C 82.292 162.531,82.823 163.447,83.078 163.927 C 83.796 165.279,84.361 166.256,87.343 171.304 C 87.782 172.047,88.281 172.916,88.452 173.236 C 89.051 174.358,92.619 180.536,94.901 184.403 C 95.337 185.141,95.902 186.138,96.158 186.618 C 96.413 187.098,96.937 188.015,97.323 188.655 C 97.709 189.295,98.256 190.276,98.539 190.836 C 98.823 191.396,99.135 191.920,99.234 192.000 C 99.332 192.080,99.697 192.669,100.045 193.309 C 100.392 193.949,100.994 194.996,101.382 195.636 C 101.771 196.276,102.300 197.193,102.558 197.673 C 102.816 198.153,103.402 199.200,103.860 200.000 C 104.319 200.800,104.858 201.782,105.058 202.182 C 105.258 202.582,105.599 203.123,105.815 203.383 C 106.177 203.820,106.658 204.664,107.864 206.982 C 108.114 207.462,108.412 207.920,108.526 208.000 C 108.641 208.080,108.947 208.604,109.206 209.164 C 109.465 209.724,109.995 210.705,110.384 211.345 C 111.512 213.203,112.727 215.317,114.647 218.764 C 115.138 219.644,115.826 220.822,116.177 221.382 C 116.937 222.596,116.957 222.630,119.475 227.001 C 120.564 228.892,121.813 231.052,122.250 231.801 C 122.688 232.550,123.249 233.556,123.497 234.036 C 123.745 234.516,124.238 235.388,124.592 235.974 C 126.532 239.180,127.292 240.495,127.503 241.010 C 127.632 241.325,127.848 241.653,127.982 241.737 C 128.116 241.822,128.435 242.349,128.692 242.909 C 128.949 243.469,129.551 244.582,130.031 245.382 C 130.512 246.182,131.028 247.118,131.180 247.463 C 131.331 247.807,131.590 248.173,131.756 248.275 C 131.921 248.377,132.318 249.011,132.639 249.685 C 132.960 250.358,133.352 251.105,133.510 251.345 C 133.668 251.585,134.228 252.546,134.754 253.481 C 135.279 254.415,135.995 255.658,136.343 256.244 C 136.692 256.830,137.229 257.767,137.535 258.327 C 137.842 258.887,139.049 260.982,140.218 262.982 C 141.387 264.982,142.595 267.076,142.901 267.636 C 143.208 268.196,143.744 269.128,144.093 269.708 C 144.442 270.287,145.382 271.904,146.182 273.301 C 146.982 274.698,147.924 276.319,148.276 276.903 C 148.628 277.486,149.040 278.232,149.192 278.560 C 150.536 281.457,153.407 284.214,155.948 285.047 L 157.859 285.673 234.378 285.673 L 310.896 285.673 312.873 284.956 C 313.960 284.561,315.186 283.940,315.596 283.574 C 316.945 282.373,317.994 281.219,318.430 280.458 C 318.666 280.046,319.175 279.185,319.561 278.545 C 319.947 277.905,320.425 277.055,320.624 276.655 C 320.823 276.255,321.140 275.731,321.329 275.491 C 321.518 275.251,322.147 274.152,322.726 273.050 C 323.305 271.947,323.928 270.865,324.110 270.646 C 324.553 270.112,325.393 268.610,325.996 267.273 C 326.267 266.673,326.585 266.182,326.703 266.182 C 326.822 266.182,327.132 265.691,327.392 265.091 C 327.652 264.491,328.191 263.476,328.589 262.836 C 328.987 262.196,329.606 261.160,329.965 260.533 C 330.324 259.907,330.967 258.794,331.393 258.061 C 331.819 257.327,332.380 256.335,332.639 255.855 C 332.899 255.375,333.401 254.505,333.756 253.922 C 334.110 253.339,335.316 251.263,336.436 249.309 C 337.556 247.355,338.759 245.279,339.109 244.696 C 339.459 244.113,339.983 243.216,340.273 242.701 C 340.563 242.187,341.716 240.186,342.836 238.254 C 343.956 236.322,345.095 234.321,345.366 233.807 C 345.638 233.293,346.006 232.706,346.184 232.503 C 346.362 232.299,346.701 231.710,346.937 231.193 C 347.173 230.677,347.814 229.535,348.363 228.655 C 348.911 227.775,349.364 226.907,349.370 226.727 C 349.377 226.546,349.580 226.234,349.822 226.034 C 350.063 225.833,350.522 225.130,350.841 224.471 C 351.159 223.812,351.742 222.749,352.136 222.109 C 352.530 221.469,353.062 220.553,353.319 220.073 C 353.575 219.593,354.071 218.723,354.420 218.139 C 354.769 217.555,355.709 215.934,356.509 214.535 C 358.367 211.287,359.013 210.166,359.855 208.727 C 360.229 208.087,360.808 207.088,361.140 206.507 C 365.940 198.126,366.193 197.689,367.023 196.364 C 367.974 194.847,369.386 192.306,370.049 190.921 C 370.371 190.248,370.764 189.617,370.922 189.519 C 371.080 189.422,371.408 188.926,371.651 188.416 C 371.894 187.907,372.411 186.967,372.800 186.327 C 373.764 184.742,374.549 183.350,375.262 181.964 C 375.591 181.324,376.247 180.211,376.719 179.491 C 377.192 178.771,377.775 177.789,378.015 177.309 C 378.256 176.829,378.784 175.913,379.190 175.273 C 379.595 174.633,380.191 173.585,380.514 172.945 C 380.837 172.305,381.748 170.735,382.538 169.455 C 383.327 168.175,384.173 166.735,384.418 166.255 C 384.662 165.775,385.254 164.727,385.732 163.927 C 386.211 163.127,386.811 162.080,387.067 161.600 C 387.322 161.120,387.816 160.253,388.165 159.674 C 388.514 159.095,389.427 157.524,390.193 156.183 C 392.054 152.928,392.182 152.711,392.803 151.774 C 395.197 148.161,395.157 142.757,392.710 139.322 C 392.400 138.885,392.145 138.448,392.145 138.351 C 392.145 138.183,391.049 136.242,389.610 133.865 C 389.256 133.279,388.762 132.407,388.512 131.927 C 388.262 131.447,387.702 130.447,387.265 129.705 C 386.829 128.963,385.622 126.882,384.582 125.079 C 383.542 123.277,382.412 121.332,382.072 120.756 C 380.584 118.238,377.172 112.349,376.662 111.418 C 376.356 110.858,375.820 109.926,375.471 109.347 C 375.122 108.768,374.205 107.166,373.433 105.787 C 372.661 104.409,371.909 103.206,371.760 103.114 C 371.612 103.022,371.491 102.709,371.491 102.418 C 371.491 102.127,371.287 101.720,371.038 101.513 C 370.788 101.306,370.392 100.734,370.157 100.241 C 369.922 99.749,369.340 98.691,368.863 97.891 C 368.386 97.091,367.841 96.109,367.651 95.709 C 367.461 95.309,367.123 94.762,366.899 94.493 C 366.406 93.901,365.600 92.459,364.936 90.982 C 364.667 90.382,364.343 89.891,364.218 89.891 C 364.093 89.891,363.911 89.573,363.813 89.184 C 363.715 88.795,363.449 88.291,363.221 88.063 C 362.993 87.835,362.594 87.204,362.333 86.661 C 361.563 85.054,360.812 83.776,360.318 83.230 C 360.063 82.948,359.855 82.617,359.855 82.493 C 359.855 82.303,358.333 79.595,355.927 75.504 C 355.437 74.669,353.064 70.547,350.667 66.366 C 350.334 65.785,349.779 64.851,349.433 64.291 C 349.088 63.731,348.575 62.815,348.294 62.255 C 348.012 61.695,347.707 61.171,347.615 61.091 C 347.524 61.011,346.869 59.922,346.161 58.671 C 345.452 57.420,344.515 55.783,344.077 55.034 C 343.640 54.285,343.076 53.280,342.825 52.800 C 341.966 51.156,341.313 50.043,340.959 49.617 C 340.632 49.223,340.140 48.354,338.972 46.109 C 338.723 45.629,338.443 45.171,338.350 45.091 C 338.258 45.011,337.950 44.487,337.667 43.927 C 337.383 43.367,336.836 42.385,336.450 41.745 C 336.065 41.105,335.497 40.124,335.189 39.564 C 334.880 39.004,333.988 37.454,333.205 36.120 C 332.422 34.786,331.509 33.215,331.176 32.629 C 330.843 32.043,330.294 31.105,329.955 30.545 C 329.617 29.985,328.712 28.430,327.943 27.089 C 327.174 25.749,326.260 24.178,325.911 23.598 C 325.562 23.019,325.076 22.153,324.831 21.673 C 324.585 21.193,323.983 20.145,323.491 19.345 C 322.999 18.545,322.403 17.498,322.167 17.018 C 321.930 16.538,321.225 15.330,320.599 14.334 C 319.973 13.337,319.377 12.257,319.275 11.934 C 319.172 11.610,318.982 11.345,318.852 11.345 C 318.722 11.345,318.462 10.975,318.275 10.521 C 317.603 8.900,315.078 6.836,312.750 6.006 L 310.592 5.236 234.205 5.259 L 157.818 5.281 155.766 6.059 M180.073 17.967 C 184.225 20.265,184.229 26.331,180.081 28.924 C 175.000 32.101,168.405 26.186,171.090 20.861 C 172.923 17.227,176.598 16.043,180.073 17.967 M237.418 17.879 C 243.009 21.055,240.757 29.745,234.343 29.745 C 230.194 29.745,227.411 26.144,228.297 21.921 C 229.148 17.862,233.777 15.811,237.418 17.879 M295.273 18.167 C 300.304 21.643,298.011 29.653,291.957 29.744 C 284.471 29.858,283.179 18.908,290.473 17.158 C 291.967 16.799,293.874 17.200,295.273 18.167 M299.118 43.144 C 299.643 43.994,300.232 44.943,300.427 45.253 C 300.622 45.564,301.342 46.775,302.027 47.945 C 302.712 49.114,303.535 50.516,303.855 51.060 C 304.175 51.604,305.942 54.613,307.782 57.747 C 309.622 60.881,311.426 63.930,311.792 64.523 C 312.157 65.115,312.646 66.017,312.878 66.526 C 313.110 67.035,313.429 67.531,313.587 67.629 C 313.745 67.726,314.138 68.357,314.461 69.030 C 314.784 69.704,315.378 70.778,315.780 71.418 C 316.183 72.058,317.068 73.543,317.747 74.718 C 319.132 77.115,319.849 78.322,322.179 82.182 C 322.565 82.822,323.044 83.673,323.242 84.073 C 323.441 84.473,323.781 85.013,323.997 85.274 C 324.359 85.710,324.840 86.555,326.046 88.873 C 326.296 89.353,326.593 89.811,326.707 89.891 C 326.820 89.971,327.158 90.517,327.457 91.104 C 327.952 92.077,329.740 95.187,331.200 97.616 C 332.824 100.317,334.453 103.106,334.894 103.939 C 335.165 104.453,335.499 105.004,335.635 105.164 C 335.771 105.324,336.465 106.484,337.178 107.742 C 337.890 109.000,338.763 110.506,339.117 111.088 C 339.471 111.669,339.960 112.562,340.204 113.071 C 340.447 113.580,340.781 114.080,340.945 114.182 C 341.110 114.284,341.435 114.784,341.667 115.293 C 341.899 115.802,342.388 116.697,342.754 117.282 C 343.461 118.414,345.130 121.223,345.877 122.539 C 346.371 123.410,349.764 129.191,350.691 130.742 C 351.011 131.278,351.833 132.680,352.519 133.858 C 353.967 136.349,354.293 136.888,354.974 137.924 C 357.433 141.663,357.481 147.394,355.079 150.400 C 354.888 150.640,354.572 151.164,354.378 151.564 C 354.184 151.964,353.706 152.815,353.316 153.455 C 352.926 154.095,352.334 155.142,352.000 155.782 C 351.666 156.422,351.104 157.422,350.751 158.005 C 350.212 158.895,347.506 163.578,345.509 167.076 C 345.219 167.584,344.665 168.524,344.277 169.164 C 343.889 169.804,343.303 170.851,342.974 171.491 C 342.644 172.131,342.086 173.131,341.733 173.714 C 340.570 175.634,337.029 181.841,336.475 182.931 C 336.176 183.519,335.831 184.065,335.707 184.145 C 335.584 184.225,335.273 184.749,335.016 185.309 C 334.759 185.869,334.264 186.785,333.917 187.345 C 332.890 189.004,331.652 191.209,331.210 192.169 C 330.983 192.661,330.593 193.234,330.344 193.441 C 330.095 193.647,329.891 193.933,329.891 194.074 C 329.891 194.377,326.950 199.641,326.662 199.855 C 326.554 199.935,326.250 200.458,325.986 201.018 C 325.722 201.578,325.185 202.560,324.792 203.200 C 324.399 203.840,323.876 204.756,323.631 205.236 C 323.386 205.716,322.829 206.717,322.393 207.459 C 320.060 211.432,319.532 212.354,318.751 213.818 C 318.282 214.698,317.741 215.615,317.550 215.855 C 317.360 216.095,317.042 216.618,316.845 217.018 C 316.647 217.418,316.096 218.400,315.619 219.200 C 315.143 220.000,314.550 221.047,314.302 221.527 C 314.054 222.007,313.535 222.924,313.150 223.564 C 312.764 224.204,312.217 225.185,311.933 225.745 C 311.650 226.305,311.338 226.829,311.239 226.909 C 311.141 226.989,310.776 227.578,310.428 228.218 C 310.081 228.858,309.480 229.905,309.092 230.545 C 308.705 231.185,308.115 232.233,307.781 232.873 C 307.129 234.120,306.384 235.434,305.364 237.133 C 305.014 237.715,303.811 239.794,302.691 241.751 C 301.571 243.708,300.296 245.915,299.857 246.655 C 299.418 247.395,298.931 248.295,298.773 248.655 L 298.487 249.309 234.535 249.309 L 170.582 249.309 169.880 248.364 C 169.494 247.844,168.969 247.025,168.714 246.545 C 168.460 246.065,167.899 245.084,167.469 244.364 C 167.039 243.644,166.157 242.138,165.509 241.018 C 164.861 239.898,164.013 238.458,163.625 237.818 C 163.236 237.178,162.360 235.698,161.677 234.528 C 160.995 233.359,160.175 231.966,159.855 231.434 C 159.233 230.400,157.126 226.788,155.927 224.702 C 155.207 223.448,153.121 219.894,152.000 218.011 C 149.845 214.390,148.515 212.100,148.129 211.345 C 147.883 210.865,147.597 210.407,147.493 210.327 C 147.389 210.247,146.724 209.152,146.015 207.894 C 145.307 206.636,144.437 205.131,144.083 204.549 C 143.729 203.967,143.240 203.074,142.996 202.565 C 142.753 202.056,142.419 201.556,142.255 201.455 C 142.090 201.353,141.765 200.853,141.533 200.344 C 141.301 199.835,140.778 198.895,140.372 198.255 C 139.965 197.615,139.422 196.633,139.165 196.073 C 138.908 195.513,138.600 194.989,138.479 194.909 C 138.359 194.829,137.948 194.190,137.566 193.489 C 136.654 191.814,135.990 190.656,135.128 189.236 C 134.739 188.596,134.222 187.656,133.978 187.147 C 133.735 186.638,133.401 186.138,133.236 186.036 C 133.072 185.934,132.747 185.435,132.515 184.926 C 132.283 184.417,131.760 183.476,131.352 182.836 C 130.945 182.196,130.345 181.149,130.018 180.509 C 129.691 179.869,129.043 178.756,128.577 178.036 C 128.112 177.316,127.529 176.335,127.283 175.855 C 127.036 175.375,126.447 174.393,125.974 173.673 C 125.500 172.953,124.916 171.971,124.676 171.491 C 124.435 171.011,123.908 170.095,123.503 169.455 C 123.099 168.815,122.538 167.833,122.257 167.273 C 121.976 166.713,121.665 166.189,121.566 166.109 C 121.468 166.029,121.103 165.440,120.755 164.800 C 120.408 164.160,119.834 163.150,119.480 162.556 C 117.496 159.227,116.945 158.238,116.945 158.004 C 116.945 157.861,116.742 157.575,116.492 157.368 C 116.243 157.161,115.846 156.589,115.609 156.096 C 115.373 155.603,114.860 154.676,114.469 154.036 C 111.470 149.128,111.054 146.196,112.835 142.529 C 113.896 140.345,115.780 136.973,116.261 136.398 C 116.444 136.179,116.811 135.542,117.076 134.982 C 117.691 133.683,118.530 132.184,118.907 131.713 C 119.067 131.511,119.696 130.429,120.303 129.309 C 121.547 127.015,122.178 125.898,123.616 123.447 C 124.165 122.511,124.998 121.025,125.467 120.145 C 125.937 119.265,126.500 118.341,126.720 118.090 C 126.940 117.840,127.265 117.218,127.443 116.708 C 127.621 116.199,127.870 115.782,127.997 115.782 C 128.124 115.782,128.442 115.291,128.705 114.691 C 128.967 114.091,129.497 113.076,129.882 112.436 C 130.267 111.796,130.867 110.716,131.214 110.036 C 131.562 109.356,131.952 108.800,132.082 108.800 C 132.211 108.800,132.401 108.421,132.502 107.957 C 132.604 107.494,132.942 106.885,133.253 106.603 C 133.564 106.322,133.818 105.986,133.818 105.856 C 133.818 105.726,134.546 104.339,135.436 102.774 C 137.419 99.285,137.574 99.019,138.358 97.745 C 139.046 96.629,140.589 93.848,141.455 92.163 C 141.759 91.573,142.194 90.935,142.422 90.746 C 142.650 90.556,142.836 90.273,142.836 90.115 C 142.836 89.752,147.206 82.021,147.702 81.506 C 147.906 81.295,148.073 80.953,148.073 80.746 C 148.073 80.539,148.319 80.057,148.619 79.675 C 148.920 79.293,149.607 78.169,150.146 77.178 C 150.686 76.187,151.484 74.748,151.921 73.979 C 152.357 73.211,152.946 72.124,153.230 71.564 C 153.513 71.004,153.820 70.480,153.912 70.400 C 154.003 70.320,154.658 69.225,155.366 67.967 C 156.075 66.709,156.938 65.203,157.285 64.622 C 157.631 64.040,158.187 63.040,158.520 62.400 C 158.852 61.760,159.522 60.582,160.007 59.782 C 160.492 58.982,161.026 58.065,161.192 57.745 C 161.359 57.425,161.846 56.557,162.275 55.815 C 162.704 55.073,163.955 52.878,165.055 50.937 C 166.155 48.996,167.169 47.337,167.309 47.250 C 167.449 47.164,167.564 46.859,167.564 46.573 C 167.564 46.288,167.825 45.817,168.145 45.527 C 168.465 45.238,168.727 44.869,168.727 44.708 C 168.727 44.546,169.134 43.781,169.630 43.007 L 170.533 41.600 234.349 41.600 L 298.164 41.600 299.118 43.144 M52.945 110.514 C 52.219 110.716,52.218 110.720,52.138 114.820 C 52.080 117.780,51.950 119.012,51.674 119.242 C 51.405 119.465,44.425 119.582,28.336 119.635 L 5.382 119.709 5.307 145.277 C 5.253 163.860,5.322 170.953,5.560 171.239 C 5.828 171.563,9.978 171.646,28.907 171.707 L 51.927 171.782 52.008 175.988 C 52.065 178.906,52.198 180.263,52.445 180.420 C 53.131 180.856,83.962 180.702,84.328 180.261 C 84.678 179.840,84.238 178.036,83.785 178.036 C 83.658 178.036,83.339 177.545,83.077 176.945 C 82.815 176.345,82.282 175.331,81.892 174.691 C 81.503 174.051,80.985 173.111,80.742 172.602 C 80.499 172.093,80.171 171.596,80.013 171.499 C 79.855 171.401,79.460 170.770,79.135 170.097 C 78.810 169.424,78.225 168.349,77.836 167.709 C 77.446 167.069,76.890 166.130,76.600 165.622 C 74.549 162.028,71.896 157.439,71.356 156.551 C 71.001 155.968,70.504 155.098,70.250 154.618 C 69.997 154.138,69.324 152.960,68.756 152.000 C 66.177 147.645,66.143 143.622,68.647 139.107 C 68.942 138.576,69.376 137.922,69.611 137.653 C 69.847 137.384,70.137 136.836,70.255 136.436 C 70.372 136.036,70.631 135.513,70.830 135.273 C 71.029 135.033,71.701 133.940,72.323 132.844 C 72.945 131.748,73.740 130.374,74.089 129.790 C 74.438 129.205,74.974 128.269,75.281 127.709 C 75.587 127.149,76.795 125.055,77.964 123.055 C 79.133 121.055,80.340 118.960,80.647 118.400 C 80.953 117.840,81.490 116.904,81.838 116.319 C 84.867 111.248,84.956 111.018,84.092 110.556 C 83.455 110.215,54.163 110.176,52.945 110.514 M137.407 112.655 C 137.085 113.015,135.982 114.794,134.956 116.609 C 133.930 118.424,132.805 120.387,132.457 120.973 C 131.762 122.137,131.023 123.444,130.044 125.236 C 129.695 125.876,129.030 126.989,128.567 127.709 C 128.104 128.429,127.511 129.509,127.249 130.109 C 126.987 130.709,126.676 131.200,126.558 131.200 C 126.440 131.200,126.127 131.691,125.864 132.291 C 125.601 132.891,125.062 133.905,124.667 134.545 C 124.271 135.185,123.749 136.126,123.506 136.635 C 123.262 137.144,122.934 137.640,122.776 137.738 C 122.618 137.835,122.227 138.466,121.906 139.139 C 121.586 139.813,121.198 140.560,121.044 140.800 C 119.304 143.514,118.877 148.340,120.170 150.674 C 120.309 150.923,120.626 151.585,120.876 152.145 C 121.125 152.705,121.620 153.642,121.974 154.226 C 123.306 156.423,124.315 158.159,125.160 159.709 C 125.640 160.589,126.315 161.767,126.660 162.327 C 127.005 162.887,127.444 163.607,127.637 163.927 C 128.049 164.615,130.539 168.949,131.283 170.275 C 131.568 170.784,132.120 171.724,132.509 172.364 C 132.898 173.004,133.432 173.985,133.695 174.545 C 133.959 175.105,134.272 175.629,134.392 175.709 C 134.512 175.789,134.843 176.313,135.128 176.873 C 135.414 177.433,135.962 178.185,136.348 178.545 L 137.048 179.200 233.857 179.200 L 330.666 179.200 331.523 178.109 C 331.994 177.509,332.546 176.691,332.749 176.291 C 332.953 175.891,333.439 175.040,333.830 174.400 C 334.221 173.760,334.750 172.844,335.005 172.364 C 335.607 171.232,337.740 167.552,339.053 165.382 C 339.440 164.742,340.025 163.695,340.352 163.055 C 340.679 162.415,341.231 161.433,341.577 160.873 C 342.311 159.687,342.764 158.897,345.276 154.431 C 346.298 152.614,347.292 150.931,347.486 150.691 C 348.510 149.421,349.464 146.150,349.461 143.917 C 349.458 141.563,349.157 140.744,346.873 136.873 C 346.496 136.233,346.019 135.382,345.814 134.982 C 345.609 134.582,344.986 133.489,344.430 132.553 C 343.873 131.618,343.146 130.374,342.813 129.790 C 342.480 129.205,341.902 128.204,341.528 127.564 C 341.153 126.924,340.598 125.942,340.294 125.382 C 339.990 124.822,339.456 123.890,339.107 123.311 C 338.758 122.731,337.818 121.114,337.018 119.717 C 336.218 118.320,335.275 116.699,334.923 116.116 C 334.571 115.532,334.121 114.727,333.923 114.327 C 333.725 113.927,333.236 113.240,332.836 112.800 L 332.109 112.000 235.051 112.000 L 137.992 112.000 137.407 112.655 M179.904 262.096 C 184.438 264.690,184.322 270.739,179.690 273.255 C 174.775 275.924,168.710 270.456,170.982 265.404 C 172.712 261.557,176.505 260.151,179.904 262.096 M237.339 261.998 C 241.568 264.382,241.768 270.138,237.719 272.950 C 234.254 275.356,229.290 273.341,228.318 269.133 C 227.065 263.704,232.600 259.327,237.339 261.998 M294.966 262.116 C 299.390 265.295,299.166 270.837,294.515 273.311 C 288.978 276.254,283.048 269.372,286.556 264.075 C 288.388 261.310,292.507 260.350,294.966 262.116 " stroke="none" fill="#000000" fill-rule="evenodd"></path></g></svg>