<svg id="svg" version="1.1" width="512" height="512" xmlns="http://www.w3.org/2000/svg" xmlns:xlink="http://www.w3.org/1999/xlink" ><g id="svgg"><path id="path0" d="M267.575 57.815 L 250.398 75.006 288.868 113.476 L 327.338 151.945 344.528 134.768 C 353.983 125.321,361.719 117.236,361.719 116.801 C 361.719 115.771,286.567 40.625,285.537 40.625 C 285.106 40.625,277.023 48.361,267.575 57.815 M146.299 179.102 L 58.617 266.797 48.984 313.672 C 41.845 348.413,39.609 360.611,40.347 360.793 C 40.895 360.929,62.539 357.137,88.445 352.367 L 135.547 343.694 223.243 256.025 L 310.940 168.356 272.460 129.882 L 233.980 91.408 146.299 179.102 M165.844 218.141 L 88.696 295.291 84.180 290.823 L 79.664 286.354 156.812 209.203 L 233.960 132.052 238.476 136.521 L 242.992 140.990 165.844 218.141 M192.985 245.686 L 115.633 323.038 111.142 318.547 L 106.651 314.055 183.977 236.726 L 261.304 159.396 265.820 163.865 L 270.337 168.334 192.985 245.686 " stroke="none" fill="#3cdddd" fill-rule="evenodd"></path></g></svg>