<svg id="svg" version="1.1" xmlns="http://www.w3.org/2000/svg" xmlns:xlink="http://www.w3.org/1999/xlink" width="400" height="399.0521327014218" viewBox="0, 0, 400,399.0521327014218"><g id="svgg"><path id="path0" d="M92.016 2.429 C 89.820 2.605,87.485 2.859,86.826 2.993 C 86.168 3.127,83.743 3.585,81.437 4.012 C 69.970 6.135,55.219 12.218,46.108 18.579 C 22.813 34.845,8.714 56.685,3.727 84.232 C 1.036 99.092,3.101 121.736,8.222 133.533 C 8.957 135.228,12.377 146.185,12.395 146.906 C 12.403 147.236,12.673 148.224,12.994 149.102 C 17.307 160.905,20.526 200.553,18.456 216.367 C 18.183 218.453,17.680 222.764,17.337 225.948 C 16.164 236.845,13.840 247.006,9.392 260.679 C 7.999 264.960,6.396 270.080,5.830 272.056 C 1.258 288.007,1.337 307.206,6.043 323.952 C 14.139 352.766,34.987 376.464,62.475 388.101 C 84.745 397.529,109.888 398.113,134.331 389.771 C 141.617 387.285,149.222 384.983,151.964 384.435 C 153.244 384.179,155.729 383.631,157.485 383.218 C 179.409 378.063,224.255 378.058,240.918 383.210 C 241.577 383.414,243.194 383.792,244.511 384.050 C 247.969 384.729,255.438 386.919,263.519 389.627 C 301.653 402.401,338.779 394.472,366.211 367.695 C 394.514 340.069,402.890 301.712,389.234 262.275 C 381.956 241.260,379.087 223.369,379.087 199.002 C 379.087 180.440,380.780 165.659,384.655 150.391 C 385.950 145.286,386.745 142.780,390.553 131.805 C 408.646 79.663,379.053 22.359,325.699 6.222 C 321.519 4.957,316.933 3.971,309.381 2.711 C 306.015 2.149,289.186 2.150,285.828 2.712 C 275.537 4.435,272.291 5.284,260.279 9.395 C 233.039 18.720,196.384 21.514,166.866 16.517 C 154.942 14.498,144.357 11.818,136.128 8.735 C 121.668 3.318,107.015 1.223,92.016 2.429 M200.304 111.586 C 203.248 112.460,206.479 115.511,207.609 118.484 C 212.278 130.770,197.307 140.531,187.953 131.300 C 179.009 122.475,188.101 107.962,200.304 111.586 M138.124 123.096 C 171.529 134.235,170.791 179.672,137.045 189.512 C 133.700 190.488,132.960 190.545,121.457 190.716 L 109.381 190.896 109.381 202.199 L 109.381 213.502 108.126 214.558 L 106.871 215.614 98.909 215.492 L 90.947 215.369 89.985 214.249 L 89.022 213.129 89.022 168.423 L 89.022 123.716 90.021 122.717 L 91.020 121.719 112.875 121.841 L 134.731 121.964 138.124 123.096 M280.466 122.174 C 307.554 126.948,318.416 159.946,299.432 179.791 C 291.142 188.457,285.289 190.463,267.565 190.716 L 255.489 190.888 255.489 201.998 C 255.489 208.109,255.377 213.399,255.241 213.755 C 254.208 216.447,236.810 216.447,235.777 213.755 C 234.997 211.723,235.531 123.352,236.327 122.555 C 237.251 121.631,275.512 121.301,280.466 122.174 M109.476 156.188 L 109.581 171.457 118.762 171.581 C 130.882 171.744,133.780 171.116,137.667 167.480 C 145.223 160.413,143.694 147.156,134.823 142.812 C 131.395 141.134,129.782 140.938,119.257 140.928 L 109.372 140.918 109.476 156.188 M255.489 156.255 L 255.489 171.657 265.397 171.657 C 273.341 171.657,275.734 171.529,277.472 171.014 C 291.352 166.899,293.152 148.777,280.311 142.435 L 277.645 141.118 266.567 140.985 L 255.489 140.852 255.489 156.255 M205.620 152.864 L 206.786 154.030 206.786 182.834 L 206.786 211.638 205.620 212.805 L 204.453 213.972 196.611 213.972 C 188.223 213.972,187.594 213.847,186.631 211.984 C 185.709 210.200,185.724 155.438,186.648 153.652 C 187.560 151.888,188.284 151.750,196.737 151.722 L 204.453 151.697 205.620 152.864 M284.181 228.628 C 285.636 229.663,287.561 231.055,288.459 231.722 C 289.357 232.389,291.917 234.255,294.147 235.870 C 298.970 239.360,298.833 238.530,295.308 242.937 C 259.000 288.321,196.203 300.206,146.108 271.174 C 138.691 266.875,138.964 267.338,141.632 263.574 C 142.683 262.091,145.042 258.633,146.873 255.888 C 151.724 248.616,150.879 249.031,155.325 251.741 C 196.294 276.715,250.512 266.689,279.149 228.842 C 281.072 226.300,280.917 226.307,284.181 228.628 " stroke="none" fill="#fbfbfb" fill-rule="evenodd"></path><path id="path1" d="M194.212 111.337 C 182.893 114.364,181.192 128.548,191.541 133.611 C 202.960 139.198,213.771 124.525,205.136 115.158 C 202.244 112.020,197.656 110.415,194.212 111.337 M279.402 229.011 C 250.244 266.624,197.460 276.886,156.687 252.869 C 154.711 251.705,152.744 250.492,152.317 250.175 C 151.407 249.498,151.915 248.875,144.790 259.384 C 139.230 267.584,139.340 266.803,143.413 269.230 C 145.225 270.309,147.515 271.686,148.503 272.289 C 169.405 285.057,202.063 289.835,228.743 284.027 C 245.271 280.430,259.618 273.908,273.852 263.522 C 281.379 258.030,297.804 241.278,297.804 239.094 C 297.804 238.941,294.616 236.513,290.719 233.700 C 286.821 230.886,283.076 228.170,282.396 227.664 L 281.159 226.744 279.402 229.011 " stroke="none" fill="#4cbc74" fill-rule="evenodd"></path></g></svg>