<svg id="svg" version="1.1" width="900" height="900" viewBox="0 0 400 357.33333333333337" xmlns="http://www.w3.org/2000/svg" xmlns:xlink="http://www.w3.org/1999/xlink" ><g id="svgg"><path id="path0" d="M187.310 44.668 C 178.839 45.318,171.530 46.498,161.804 48.786 C 128.446 56.633,95.013 82.187,77.147 113.494 C 34.062 188.990,70.270 284.776,152.426 312.638 C 158.266 314.619,161.331 315.445,170.152 317.415 C 205.341 325.275,245.771 316.239,278.105 293.287 C 325.362 259.744,346.103 194.732,327.368 138.874 C 316.802 107.373,293.720 78.735,266.667 63.562 C 265.782 63.066,263.691 61.879,262.020 60.926 C 241.771 49.372,211.585 42.803,187.310 44.668 M130.210 138.805 C 131.119 139.338,132.091 140.324,132.622 141.252 L 133.512 142.806 133.719 169.616 C 133.937 197.887,133.905 197.392,135.761 201.263 C 142.189 214.673,166.400 215.587,175.229 202.754 C 177.904 198.866,177.817 199.895,178.016 169.973 C 178.193 143.380,178.201 143.152,178.964 141.734 C 182.009 136.077,189.725 136.281,192.363 142.088 C 192.973 143.430,193.014 145.122,193.022 168.814 C 193.030 196.643,192.934 198.252,190.895 204.269 C 180.906 233.741,132.387 234.347,121.216 205.139 C 118.868 199.000,118.856 198.826,118.856 169.616 L 118.856 143.164 119.676 141.629 C 121.755 137.735,126.303 136.516,130.210 138.805 M218.889 139.521 C 219.613 140.074,221.398 142.004,222.854 143.811 C 230.146 152.859,231.633 154.719,233.780 157.473 C 242.234 168.319,243.902 170.215,244.449 169.595 C 245.102 168.857,250.951 161.534,253.713 157.998 C 261.422 148.129,267.705 140.587,269.107 139.517 C 274.857 135.134,283.253 142.211,279.919 148.629 C 279.342 149.740,272.186 158.924,265.239 167.471 C 261.631 171.909,254.969 180.392,254.355 181.331 C 253.540 182.575,252.338 180.881,267.200 199.440 C 280.551 216.112,280.760 216.426,280.535 219.526 C 280.196 224.213,275.736 227.203,270.989 225.925 C 268.849 225.349,267.787 224.164,255.196 208.311 C 249.301 200.889,244.252 194.817,243.976 194.817 C 243.415 194.817,242.384 196.046,232.885 208.043 C 220.257 223.991,219.651 224.698,217.859 225.566 C 213.238 227.802,207.900 224.745,207.433 219.594 C 207.162 216.606,207.507 216.008,214.717 206.971 C 236.787 179.306,234.390 182.566,233.574 181.320 C 233.013 180.464,231.115 178.059,221.090 165.503 C 219.321 163.286,217.149 160.540,216.265 159.400 C 215.380 158.260,213.414 155.815,211.897 153.966 C 208.176 149.433,207.338 147.902,207.332 145.633 C 207.318 139.758,214.334 136.047,218.889 139.521 " stroke="none" fill="#3cdddd" fill-rule="evenodd"></path></g></svg>