<svg id="svg" version="1.1" width="400" height="400" viewBox="0 0 400 400" xmlns="http://www.w3.org/2000/svg" xmlns:xlink="http://www.w3.org/1999/xlink" ><g id="svgg"><path id="path0" d="M301.563 52.094 C 297.000 53.336,298.588 51.827,238.687 111.857 C 207.204 143.407,180.943 169.482,180.328 169.800 C 176.881 171.582,171.972 169.209,171.261 165.418 C 170.601 161.900,169.502 163.175,196.492 136.133 C 218.299 114.283,221.572 110.852,222.461 108.905 C 228.798 95.025,215.590 81.285,201.530 87.130 C 199.259 88.074,120.528 166.023,113.779 174.010 C 72.521 222.827,82.957 296.152,136.133 331.089 C 171.401 354.261,217.547 354.092,252.734 330.662 C 261.284 324.969,263.967 322.398,318.555 267.586 C 387.633 198.225,388.716 197.118,389.778 194.816 C 394.912 183.678,387.570 172.070,375.391 172.070 C 367.943 172.070,370.966 169.579,335.547 204.903 C 301.840 238.521,303.615 236.974,299.985 235.887 C 298.013 235.296,295.839 232.958,295.479 231.040 C 294.817 227.512,292.647 229.885,339.225 183.203 C 388.634 133.684,384.570 138.375,384.570 130.859 C 384.570 120.648,376.008 113.371,366.133 115.191 C 360.948 116.146,362.317 114.912,324.023 153.135 C 285.464 191.624,287.760 189.565,284.156 188.889 C 281.496 188.389,278.457 184.417,279.099 182.278 C 279.172 182.035,279.345 181.309,279.483 180.664 C 279.674 179.777,289.961 169.251,321.860 137.305 C 367.522 91.576,365.551 93.740,366.478 88.331 C 368.191 78.342,361.103 70.117,350.781 70.117 C 343.225 70.117,348.031 65.967,299.609 114.298 C 275.789 138.073,256.745 156.780,256.127 157.011 C 252.608 158.326,248.623 156.216,247.700 152.549 C 246.794 148.952,244.921 151.053,283.561 112.305 C 323.399 72.354,320.941 75.184,321.381 68.758 C 322.127 57.885,311.895 49.281,301.563 52.094 " stroke="none" fill="#fc6404" fill-rule="evenodd"></path><path id="path1" d="M140.866 52.388 C 129.657 55.019,124.983 69.048,132.285 78.145 C 132.897 78.909,140.045 86.104,148.168 94.135 L 162.937 108.738 174.242 97.437 L 185.548 86.137 170.279 70.865 C 151.207 51.789,149.088 50.457,140.866 52.388 M83.046 59.372 C 73.242 62.504,68.961 73.724,74.103 82.813 C 75.123 84.615,130.283 140.234,131.051 140.234 C 131.568 140.234,153.516 118.284,153.516 117.767 C 153.516 117.000,97.884 61.830,96.094 60.822 C 92.070 58.557,87.270 58.023,83.046 59.372 M39.522 76.980 C 29.230 79.006,23.745 90.307,28.361 99.975 C 29.280 101.901,99.503 173.123,100.386 173.025 C 100.496 173.012,101.816 171.394,103.320 169.429 C 104.824 167.463,109.694 162.144,114.142 157.609 L 122.229 149.363 87.384 114.564 C 49.530 76.760,50.890 77.981,45.516 76.988 C 42.918 76.507,41.932 76.506,39.522 76.980 M21.191 122.288 C 11.477 124.204,5.920 135.265,9.987 144.589 C 10.979 146.864,78.911 216.016,80.153 216.016 C 80.310 216.016,80.623 215.269,80.849 214.355 C 82.784 206.532,86.995 195.624,91.005 188.048 L 93.299 183.712 63.740 154.214 C 31.960 122.501,32.756 123.208,27.779 122.271 C 25.366 121.817,23.556 121.822,21.191 122.288 M52.092 216.422 C 42.429 218.334,36.811 229.480,40.847 238.730 C 41.793 240.897,84.042 284.448,84.629 283.861 C 84.683 283.807,83.963 281.390,83.028 278.490 C 78.856 265.554,77.017 252.417,77.478 238.844 L 77.718 231.790 71.183 225.314 C 62.402 216.613,59.040 215.047,52.092 216.422 " stroke="none" fill="#1d2da4" fill-rule="evenodd"></path></g></svg>