<svg id="svg" version="1.1" width="400" height="402.0680741059888" viewBox="0 0 400 402.0680741059888" xmlns="http://www.w3.org/2000/svg" xmlns:xlink="http://www.w3.org/1999/xlink" ><g id="svgg"><path id="path0" d="M190.866 3.122 C 79.301 8.156,-6.210 105.301,2.853 216.717 C 11.220 319.581,96.922 398.621,200.086 398.618 C 309.428 398.615,397.931 310.113,397.931 200.776 C 397.931 87.833,303.846 -1.976,190.866 3.122 M313.563 113.490 C 316.796 114.333,319.494 116.890,320.558 120.123 L 320.982 121.413 320.982 200.776 L 320.982 280.138 320.558 281.428 C 319.494 284.661,316.796 287.218,313.563 288.061 C 312.043 288.456,88.155 288.463,86.636 288.067 C 83.397 287.224,80.675 284.650,79.615 281.428 L 79.190 280.138 79.190 200.776 L 79.190 121.413 79.615 120.123 C 80.660 116.946,83.204 114.493,86.428 113.553 C 87.923 113.117,311.893 113.056,313.563 113.490 M116.204 137.498 C 116.604 137.862,133.218 152.381,153.124 169.762 C 173.029 187.144,191.735 203.480,194.692 206.064 L 200.069 210.762 241.913 174.213 C 264.927 154.112,283.949 137.479,284.184 137.251 L 284.611 136.838 200.043 136.838 L 115.475 136.838 116.204 137.498 M98.923 203.541 C 98.923 254.532,98.943 258.363,99.208 258.143 C 101.069 256.598,160.879 203.131,160.879 203.011 C 160.879 202.922,147.764 191.389,131.736 177.383 C 115.707 163.377,101.767 151.194,100.758 150.311 L 98.923 148.704 98.923 203.541 M270.270 175.722 L 239.377 202.711 240.111 203.362 C 240.514 203.720,254.416 216.112,271.004 230.901 L 301.163 257.789 301.207 230.589 C 301.231 215.629,301.231 191.091,301.207 176.060 L 301.163 148.732 270.270 175.722 M215.058 223.959 C 203.998 233.617,203.835 233.724,200.172 233.759 C 196.377 233.797,196.019 233.564,185.032 223.961 L 176.096 216.150 157.801 232.461 C 147.739 241.432,134.591 253.154,128.584 258.509 L 117.661 268.246 159.046 268.290 C 181.808 268.314,219.038 268.314,241.781 268.290 L 283.130 268.246 253.847 242.138 C 237.741 227.778,224.494 216.006,224.410 215.978 C 224.326 215.950,220.118 219.542,215.058 223.959 " stroke="none" fill="#ffffff" fill-rule="evenodd"></path><path id="path1" d="M320.982 200.776 C 320.982 243.572,321.001 261.079,321.025 239.681 C 321.050 218.283,321.050 183.268,321.025 161.870 C 321.001 140.472,320.982 157.979,320.982 200.776 " stroke="none" fill="#ffffff" fill-rule="evenodd"></path><path id="path2" d="M79.189 200.776 C 79.189 244.046,79.209 261.747,79.233 240.112 C 79.257 218.477,79.257 183.074,79.233 161.439 C 79.209 139.804,79.189 157.505,79.189 200.776 " stroke="none" fill="#ffffff" fill-rule="evenodd"></path><path id="path3" d="" stroke="none" fill="#ffffff" fill-rule="evenodd"></path></g></svg>