<svg id="svg" version="1.1" width="400" height="400" viewBox="0 0 400 400" xmlns="http://www.w3.org/2000/svg"
     xmlns:xlink="http://www.w3.org/1999/xlink">
    <g id="svgg">
        <path class="github" id="github"
              d="M191.200 6.050 C 182.451 6.316,176.495 6.831,170.451 7.845 C 168.390 8.191,165.420 8.629,163.851 8.819 C 160.027 9.281,158.358 9.586,157.400 10.000 C 156.602 10.345,155.144 10.649,152.297 11.065 C 151.471 11.186,150.695 11.445,150.574 11.642 C 150.452 11.839,149.744 12.000,149.000 12.000 C 148.256 12.000,147.536 12.180,147.400 12.400 C 147.264 12.620,146.634 12.800,146.000 12.800 C 145.366 12.800,144.736 12.980,144.600 13.200 C 144.464 13.420,144.001 13.600,143.571 13.600 C 143.141 13.600,142.477 13.762,142.095 13.961 C 141.713 14.160,140.590 14.537,139.600 14.800 C 138.610 15.063,137.487 15.440,137.105 15.639 C 136.723 15.838,136.136 16.000,135.800 16.000 C 135.464 16.000,134.877 16.159,134.495 16.353 C 134.113 16.548,133.260 16.929,132.600 17.200 C 131.940 17.471,131.087 17.852,130.705 18.047 C 130.323 18.241,129.772 18.400,129.481 18.400 C 129.189 18.400,128.205 18.760,127.294 19.200 C 126.384 19.640,125.448 20.000,125.214 20.000 C 124.980 20.000,124.477 20.177,124.095 20.394 C 123.713 20.610,122.230 21.306,120.800 21.941 C 119.370 22.575,117.300 23.494,116.200 23.982 C 113.064 25.376,108.221 27.741,108.000 27.987 C 107.890 28.110,106.900 28.656,105.800 29.200 C 104.700 29.744,103.710 30.282,103.600 30.395 C 103.490 30.508,102.680 30.974,101.800 31.430 C 99.970 32.380,98.431 33.261,97.820 33.708 C 96.454 34.709,92.317 37.200,92.020 37.200 C 91.826 37.200,91.607 37.335,91.533 37.500 C 91.460 37.665,89.922 38.763,88.115 39.941 C 86.308 41.118,84.328 42.513,83.715 43.040 C 83.102 43.568,82.375 43.999,82.100 44.000 C 81.825 44.000,81.600 44.141,81.600 44.314 C 81.600 44.486,81.067 44.943,80.415 45.328 C 79.763 45.713,78.998 46.248,78.715 46.516 C 78.271 46.936,75.769 49.013,73.006 51.254 C 72.563 51.613,70.881 53.053,69.270 54.454 C 67.658 55.854,65.595 57.630,64.684 58.400 C 62.352 60.373,58.906 63.859,53.800 69.414 C 51.380 72.046,49.121 74.470,48.781 74.800 C 48.441 75.130,47.729 76.030,47.200 76.800 C 46.671 77.570,45.959 78.470,45.619 78.800 C 45.279 79.131,44.375 80.211,43.611 81.200 C 42.847 82.190,42.072 83.180,41.889 83.400 C 41.705 83.620,40.480 85.330,39.166 87.200 C 37.852 89.070,36.556 90.870,36.286 91.200 C 36.016 91.530,35.216 92.700,34.508 93.800 C 33.800 94.900,33.036 96.017,32.811 96.283 C 32.585 96.549,32.400 96.872,32.400 97.001 C 32.400 97.130,31.500 98.570,30.400 100.200 C 29.300 101.830,28.400 103.352,28.400 103.582 C 28.400 103.812,28.265 104.001,28.100 104.003 C 27.935 104.005,27.601 104.410,27.358 104.903 C 27.115 105.396,26.011 107.510,24.906 109.600 C 21.107 116.783,18.480 122.158,16.207 127.400 C 15.825 128.280,15.262 129.523,14.956 130.161 C 14.650 130.800,14.400 131.568,14.400 131.867 C 14.400 132.166,14.241 132.723,14.047 133.105 C 13.852 133.487,13.492 134.295,13.247 134.900 C 13.001 135.505,12.599 136.495,12.353 137.100 C 12.108 137.705,11.748 138.513,11.553 138.895 C 11.359 139.277,11.200 139.941,11.200 140.371 C 11.200 140.801,11.020 141.264,10.800 141.400 C 10.580 141.536,10.400 142.076,10.400 142.600 C 10.400 143.124,10.220 143.664,10.000 143.800 C 9.780 143.936,9.600 144.547,9.600 145.157 C 9.600 145.767,9.481 146.386,9.335 146.532 C 8.571 147.295,4.823 163.378,3.585 171.200 C 3.359 172.630,2.995 174.880,2.777 176.200 C 2.016 180.801,0.677 199.422,0.721 204.800 C 0.752 208.666,1.634 223.845,2.011 227.000 C 2.247 228.980,2.600 231.950,2.794 233.600 C 2.988 235.250,3.321 237.500,3.533 238.600 C 3.982 240.923,4.733 244.708,5.200 247.000 C 5.379 247.880,5.714 249.590,5.944 250.800 C 6.174 252.010,6.910 254.890,7.581 257.199 C 8.251 259.509,8.800 261.793,8.800 262.276 C 8.800 262.758,8.980 263.264,9.200 263.400 C 9.420 263.536,9.600 264.166,9.600 264.800 C 9.600 265.434,9.780 266.064,10.000 266.200 C 10.220 266.336,10.400 266.799,10.400 267.229 C 10.400 267.659,10.559 268.323,10.753 268.705 C 10.948 269.087,11.329 269.940,11.600 270.600 C 11.871 271.260,12.252 272.113,12.447 272.495 C 12.641 272.877,12.800 273.464,12.800 273.800 C 12.800 274.136,12.959 274.723,13.153 275.105 C 13.625 276.032,14.214 277.495,14.803 279.200 C 16.137 283.067,25.746 302.398,26.500 302.733 C 26.665 302.807,26.800 303.212,26.800 303.633 C 26.800 304.055,26.959 304.400,27.153 304.400 C 27.348 304.400,27.607 304.715,27.729 305.100 C 27.946 305.787,29.205 308.006,29.601 308.400 C 29.711 308.510,30.056 309.095,30.368 309.700 C 30.680 310.305,31.085 310.800,31.268 310.800 C 31.450 310.800,31.600 311.042,31.600 311.338 C 31.600 311.634,31.960 312.202,32.400 312.600 C 32.840 312.998,33.200 313.551,33.200 313.829 C 33.200 314.106,33.350 314.393,33.534 314.467 C 33.717 314.540,35.143 316.490,36.702 318.800 C 40.473 324.386,41.644 326.019,42.600 327.022 C 43.040 327.484,43.850 328.457,44.400 329.184 C 44.950 329.911,45.670 330.827,46.000 331.220 C 46.330 331.612,46.944 332.353,47.364 332.866 C 54.704 341.831,68.757 355.844,74.157 359.584 C 74.621 359.905,75.252 360.414,75.561 360.716 C 75.870 361.018,77.130 362.006,78.361 362.912 C 79.592 363.819,80.832 364.788,81.115 365.066 C 81.398 365.344,82.163 365.887,82.815 366.272 C 83.467 366.657,84.000 367.114,84.000 367.286 C 84.000 367.459,84.242 367.600,84.538 367.600 C 84.834 367.600,85.402 367.960,85.800 368.400 C 86.198 368.840,86.751 369.200,87.029 369.200 C 87.306 369.200,87.593 369.347,87.667 369.528 C 87.740 369.708,88.970 370.639,90.400 371.598 C 91.830 372.556,93.090 373.443,93.200 373.570 C 93.536 373.956,95.756 375.236,96.500 375.471 C 96.885 375.593,97.200 375.852,97.200 376.047 C 97.200 376.241,97.560 376.400,98.000 376.400 C 98.440 376.400,98.800 376.541,98.800 376.712 C 98.800 376.884,99.295 377.232,99.900 377.485 C 100.505 377.739,102.170 378.610,103.600 379.420 C 107.986 381.906,120.130 387.787,123.900 389.251 C 124.395 389.443,125.205 389.762,125.700 389.960 C 126.195 390.157,127.230 390.536,128.000 390.800 C 129.421 391.288,130.477 391.695,132.100 392.380 C 140.070 395.744,146.307 394.615,148.776 389.362 C 149.573 387.667,149.600 386.965,149.600 368.161 L 149.600 348.712 148.100 348.971 C 142.605 349.918,139.549 350.129,131.200 350.141 C 122.611 350.153,120.255 349.984,113.000 348.840 C 108.609 348.147,105.815 347.332,103.105 345.953 C 102.723 345.759,102.138 345.600,101.805 345.600 C 101.472 345.600,101.200 345.464,101.200 345.298 C 101.200 345.131,100.615 344.741,99.900 344.430 C 93.891 341.817,85.701 333.549,83.625 328.000 C 83.337 327.230,82.584 325.486,81.951 324.125 C 81.318 322.764,80.800 321.555,80.800 321.439 C 80.800 320.577,75.606 310.800,74.700 309.957 C 74.315 309.599,74.000 309.102,74.000 308.853 C 74.000 308.604,73.820 308.400,73.600 308.400 C 73.380 308.400,73.200 308.222,73.200 308.005 C 73.200 307.561,72.834 307.088,69.351 303.032 C 66.826 300.091,63.594 297.200,62.833 297.200 C 62.595 297.200,62.400 297.020,62.400 296.800 C 62.400 296.580,62.164 296.400,61.875 296.400 C 61.587 296.400,60.964 296.040,60.492 295.600 C 60.020 295.160,59.470 294.800,59.270 294.800 C 58.744 294.800,54.400 290.549,54.400 290.035 C 54.400 289.796,54.220 289.600,54.000 289.600 C 53.780 289.600,53.600 289.330,53.600 289.000 C 53.600 288.670,53.444 288.400,53.252 288.400 C 52.572 288.400,52.396 285.466,53.019 284.515 C 54.610 282.087,63.327 281.490,68.862 283.430 C 70.478 283.996,72.160 284.565,72.600 284.694 C 73.040 284.824,73.490 285.040,73.600 285.175 C 73.710 285.309,74.655 285.865,75.700 286.409 C 76.745 286.953,77.600 287.534,77.600 287.699 C 77.600 287.865,77.960 288.000,78.400 288.000 C 78.840 288.000,79.200 288.180,79.200 288.400 C 79.200 288.620,79.443 288.800,79.741 288.800 C 80.038 288.800,80.846 289.340,81.537 290.000 C 82.228 290.660,82.953 291.200,83.149 291.200 C 83.709 291.200,90.532 298.505,91.200 299.820 C 91.530 300.469,92.115 301.349,92.500 301.775 C 92.885 302.202,93.200 302.704,93.200 302.892 C 93.200 303.080,93.560 303.620,94.000 304.092 C 94.440 304.564,94.800 305.187,94.800 305.475 C 94.800 305.764,94.980 306.000,95.200 306.000 C 95.420 306.000,95.600 306.227,95.600 306.504 C 95.600 306.782,96.235 307.727,97.011 308.604 C 97.788 309.482,98.712 310.650,99.065 311.200 C 100.030 312.703,105.899 317.864,108.400 319.410 C 109.610 320.158,110.817 320.956,111.083 321.185 C 111.349 321.413,111.756 321.600,111.989 321.600 C 112.221 321.600,112.768 321.780,113.205 322.000 C 113.642 322.220,114.358 322.580,114.795 322.800 C 115.232 323.020,115.941 323.200,116.371 323.200 C 116.801 323.200,117.250 323.357,117.368 323.548 C 118.116 324.758,134.249 324.800,137.000 323.599 C 137.440 323.407,138.475 323.148,139.300 323.025 C 142.657 322.522,143.618 322.295,143.827 321.956 C 143.948 321.760,144.487 321.600,145.024 321.600 C 145.561 321.600,146.000 321.420,146.000 321.200 C 146.000 320.980,146.315 320.791,146.700 320.781 C 149.433 320.706,150.441 319.279,151.068 314.600 C 151.186 313.720,151.444 312.829,151.641 312.620 C 151.838 312.411,152.000 311.736,152.000 311.120 C 152.000 310.504,152.180 310.000,152.400 310.000 C 152.620 310.000,152.800 309.561,152.800 309.024 C 152.800 308.487,152.980 307.936,153.200 307.800 C 153.420 307.664,153.600 307.271,153.600 306.926 C 153.600 306.296,155.863 301.573,156.344 301.200 C 156.485 301.090,156.855 300.507,157.166 299.904 C 157.477 299.302,158.689 297.682,159.860 296.304 C 162.519 293.176,162.522 293.200,159.480 293.200 C 158.094 293.200,156.789 293.035,156.580 292.832 C 156.371 292.630,155.030 292.374,153.600 292.264 C 148.876 291.899,140.504 290.301,135.200 288.752 C 133.770 288.335,131.880 287.783,131.000 287.527 C 130.120 287.271,129.229 286.912,129.020 286.730 C 128.811 286.549,128.404 286.400,128.116 286.400 C 127.827 286.400,126.738 286.019,125.696 285.553 C 124.653 285.088,123.170 284.438,122.400 284.109 C 119.752 282.979,114.597 280.383,112.600 279.175 C 111.500 278.509,110.285 277.862,109.900 277.736 C 109.515 277.610,109.200 277.370,109.200 277.202 C 109.200 277.034,108.660 276.673,108.000 276.400 C 107.340 276.127,106.800 275.745,106.800 275.551 C 106.800 275.358,106.599 275.200,106.353 275.200 C 104.430 275.200,89.600 261.144,89.600 259.322 C 89.600 259.035,89.459 258.800,89.286 258.800 C 89.114 258.800,88.657 258.267,88.272 257.615 C 87.887 256.963,87.353 256.198,87.086 255.915 C 86.209 254.986,83.345 249.481,80.784 243.800 C 79.411 240.755,77.209 234.310,77.204 233.324 C 77.202 232.842,77.020 232.336,76.800 232.200 C 76.580 232.064,76.400 231.333,76.400 230.576 C 76.400 229.819,76.240 229.200,76.044 229.200 C 75.848 229.200,75.585 228.615,75.460 227.900 C 75.336 227.185,75.039 225.610,74.801 224.400 C 73.376 217.150,72.946 213.943,72.330 206.000 C 71.757 198.599,71.759 190.893,72.337 185.800 C 72.587 183.600,72.900 180.810,73.032 179.600 C 73.165 178.390,73.437 177.229,73.637 177.020 C 73.837 176.811,74.000 175.967,74.000 175.144 C 74.000 174.321,74.180 173.536,74.400 173.400 C 74.620 173.264,74.803 172.758,74.806 172.276 C 74.813 171.319,75.687 168.580,76.126 168.141 C 76.277 167.990,76.400 167.457,76.400 166.957 C 76.400 166.457,76.557 165.950,76.748 165.832 C 76.940 165.714,77.197 165.118,77.319 164.508 C 78.038 160.932,85.380 148.144,88.405 145.200 C 89.833 143.810,92.000 140.699,92.000 140.039 C 92.000 139.219,91.862 138.839,90.862 136.905 C 90.608 136.413,90.400 135.569,90.400 135.029 C 90.400 134.489,90.239 133.948,90.042 133.826 C 89.845 133.705,89.570 132.839,89.430 131.903 C 89.291 130.966,88.981 128.940,88.743 127.400 C 88.154 123.602,88.159 111.693,88.750 108.000 C 89.014 106.350,89.331 104.190,89.454 103.200 C 89.577 102.210,89.840 101.229,90.039 101.020 C 90.237 100.811,90.400 100.147,90.400 99.544 C 90.400 98.941,90.580 98.336,90.800 98.200 C 91.020 98.064,91.200 97.434,91.200 96.800 C 91.200 96.166,91.380 95.536,91.600 95.400 C 91.820 95.264,92.000 94.623,92.000 93.976 C 92.000 93.329,92.180 92.800,92.400 92.800 C 92.620 92.800,92.800 92.438,92.800 91.995 C 92.800 91.552,92.959 90.877,93.153 90.495 C 93.347 90.113,93.662 89.285,93.853 88.656 C 94.542 86.386,106.513 85.517,107.826 87.642 C 107.948 87.839,108.656 88.000,109.400 88.000 C 110.144 88.000,110.864 88.180,111.000 88.400 C 111.136 88.620,111.676 88.800,112.200 88.800 C 112.724 88.800,113.264 88.980,113.400 89.200 C 113.536 89.420,113.999 89.600,114.429 89.600 C 114.859 89.600,115.523 89.759,115.905 89.953 C 116.287 90.148,117.050 90.485,117.600 90.703 C 118.150 90.920,119.500 91.504,120.600 92.000 C 121.700 92.496,122.960 93.040,123.400 93.210 C 129.511 95.571,139.675 100.472,140.800 101.601 C 140.910 101.711,141.495 102.056,142.100 102.368 C 142.705 102.680,143.200 103.085,143.200 103.268 C 143.200 103.450,143.390 103.600,143.622 103.600 C 143.854 103.600,145.104 104.320,146.400 105.200 C 147.696 106.080,148.946 106.800,149.178 106.800 C 149.410 106.800,149.600 106.980,149.600 107.200 C 149.600 107.696,151.471 107.733,151.774 107.242 C 151.895 107.045,152.671 106.786,153.497 106.665 C 156.334 106.250,157.801 105.945,158.600 105.603 C 159.894 105.049,164.033 104.267,173.600 102.769 C 187.226 100.637,213.629 100.647,226.700 102.790 C 228.075 103.016,230.325 103.388,231.700 103.618 C 233.075 103.847,235.100 104.134,236.200 104.254 C 237.300 104.375,238.371 104.637,238.580 104.837 C 238.789 105.037,239.554 105.200,240.280 105.200 C 241.006 105.200,241.600 105.380,241.600 105.600 C 241.600 105.820,242.309 106.000,243.176 106.000 C 244.043 106.000,244.864 106.180,245.000 106.400 C 245.136 106.620,245.856 106.800,246.600 106.800 C 247.344 106.800,248.064 106.980,248.200 107.200 C 248.336 107.420,248.887 107.600,249.424 107.600 C 249.961 107.600,250.400 107.420,250.400 107.200 C 250.400 106.980,250.590 106.800,250.822 106.800 C 251.054 106.800,252.304 106.080,253.600 105.200 C 254.896 104.320,256.146 103.600,256.378 103.600 C 256.610 103.600,256.800 103.453,256.800 103.274 C 256.800 103.095,257.385 102.649,258.100 102.283 C 258.815 101.918,260.210 101.133,261.200 100.540 C 264.694 98.446,274.477 93.600,275.210 93.600 C 275.619 93.600,276.064 93.420,276.200 93.200 C 276.336 92.980,276.797 92.800,277.224 92.800 C 277.651 92.800,278.000 92.620,278.000 92.400 C 278.000 92.180,278.272 92.000,278.605 92.000 C 278.938 92.000,279.523 91.843,279.905 91.650 C 282.998 90.092,284.176 89.600,284.814 89.600 C 285.220 89.600,285.651 89.441,285.771 89.246 C 285.892 89.051,286.487 88.796,287.095 88.679 C 287.703 88.562,288.920 88.257,289.800 88.003 C 295.134 86.459,301.286 85.993,304.042 86.925 L 305.753 87.503 307.257 91.852 C 308.084 94.243,308.770 96.684,308.781 97.276 C 308.791 97.868,308.960 98.452,309.156 98.573 C 309.505 98.789,309.826 100.220,310.238 103.400 C 310.352 104.280,310.608 105.360,310.806 105.800 C 311.722 107.831,312.026 122.425,311.257 127.400 C 311.019 128.940,310.709 130.966,310.570 131.903 C 310.430 132.839,310.155 133.705,309.958 133.826 C 309.761 133.948,309.600 134.541,309.600 135.144 C 309.600 135.747,309.444 136.411,309.254 136.620 C 309.064 136.829,308.698 137.868,308.441 138.929 L 307.974 140.858 309.681 142.929 C 310.621 144.068,311.481 145.090,311.595 145.200 C 316.208 149.691,325.200 167.553,325.200 172.229 C 325.200 172.737,325.380 173.264,325.600 173.400 C 325.820 173.536,326.000 174.346,326.000 175.200 C 326.000 176.054,326.180 176.864,326.400 177.000 C 326.620 177.136,326.800 178.101,326.800 179.144 C 326.800 180.187,326.961 181.211,327.159 181.420 C 328.102 182.420,328.395 197.286,327.651 206.400 C 327.390 209.590,327.078 213.460,326.957 215.000 C 326.837 216.540,326.572 217.971,326.369 218.180 C 326.166 218.389,326.000 219.413,326.000 220.456 C 326.000 221.499,325.820 222.464,325.600 222.600 C 325.380 222.736,325.200 223.433,325.200 224.148 C 325.200 226.175,321.941 238.064,321.134 238.980 C 320.951 239.189,320.800 239.596,320.800 239.884 C 320.800 240.173,320.419 241.262,319.953 242.304 C 319.488 243.347,318.877 244.740,318.596 245.400 C 317.471 248.040,316.341 250.297,315.192 252.200 C 314.528 253.300,313.827 254.567,313.634 255.016 C 313.441 255.465,312.995 256.073,312.642 256.365 C 312.289 256.658,312.000 257.106,312.000 257.361 C 312.000 257.615,311.640 258.083,311.200 258.400 C 310.760 258.717,310.400 259.176,310.400 259.419 C 310.400 260.678,301.603 269.487,297.000 272.838 C 295.240 274.119,293.583 275.354,293.317 275.583 C 293.051 275.813,292.648 276.000,292.421 276.000 C 292.195 276.000,291.642 276.315,291.193 276.700 C 289.209 278.401,277.876 284.133,272.400 286.205 C 266.226 288.540,259.515 290.281,253.000 291.238 C 251.460 291.464,249.647 291.818,248.972 292.024 C 248.296 292.231,246.732 292.400,245.495 292.400 C 244.259 292.400,243.136 292.580,243.000 292.800 C 242.864 293.020,241.683 293.200,240.376 293.200 C 237.538 293.200,237.544 293.176,239.730 295.757 C 242.977 299.591,246.400 305.359,246.400 306.996 C 246.400 307.328,246.580 307.600,246.800 307.600 C 247.020 307.600,247.200 308.140,247.200 308.800 C 247.200 309.460,247.380 310.000,247.600 310.000 C 247.820 310.000,248.000 310.504,248.000 311.120 C 248.000 311.736,248.162 312.411,248.359 312.620 C 248.556 312.829,248.831 313.810,248.969 314.800 C 249.107 315.790,249.418 317.770,249.660 319.200 C 249.940 320.852,250.191 333.754,250.350 354.600 C 250.488 372.640,250.751 387.760,250.936 388.200 C 251.874 390.430,252.306 391.104,253.559 392.284 C 255.842 394.436,262.500 394.930,265.970 393.206 C 267.260 392.565,269.734 391.578,272.000 390.800 C 272.770 390.536,273.805 390.157,274.300 389.960 C 274.795 389.762,275.605 389.439,276.100 389.242 C 277.350 388.744,280.779 387.188,284.800 385.292 C 286.670 384.410,288.920 383.359,289.800 382.956 C 290.680 382.554,293.385 381.139,295.811 379.812 C 298.237 378.485,300.757 377.130,301.411 376.801 C 302.065 376.471,302.690 376.111,302.800 376.001 C 302.987 375.813,303.895 375.279,305.800 374.238 C 306.240 373.997,306.690 373.696,306.800 373.570 C 306.910 373.443,308.170 372.556,309.600 371.598 C 311.030 370.639,312.260 369.708,312.333 369.528 C 312.407 369.347,312.694 369.200,312.971 369.200 C 313.249 369.200,313.802 368.840,314.200 368.400 C 314.598 367.960,315.090 367.600,315.292 367.600 C 315.495 367.600,316.756 366.745,318.094 365.700 C 319.432 364.655,321.422 363.109,322.517 362.265 C 323.612 361.421,324.878 360.386,325.329 359.965 C 325.781 359.544,326.303 359.200,326.489 359.200 C 326.675 359.200,327.432 358.615,328.173 357.900 C 328.913 357.185,331.552 354.710,334.036 352.400 C 342.616 344.423,348.871 337.775,354.549 330.600 C 355.594 329.280,356.966 327.570,357.599 326.800 C 359.439 324.560,361.397 321.887,363.505 318.734 C 364.584 317.121,366.466 314.360,367.687 312.600 C 368.909 310.840,370.272 308.750,370.716 307.955 C 372.403 304.940,372.605 304.595,372.800 304.400 C 372.910 304.290,373.374 303.480,373.830 302.600 C 374.971 300.402,375.758 299.038,376.023 298.800 C 376.244 298.602,377.240 296.560,380.313 290.000 C 383.412 283.385,384.673 280.584,385.174 279.200 C 385.453 278.430,385.843 277.395,386.040 276.900 C 386.238 276.405,386.562 275.595,386.760 275.100 C 386.957 274.605,387.336 273.570,387.600 272.800 C 388.182 271.107,388.771 269.640,389.247 268.705 C 389.441 268.323,389.600 267.659,389.600 267.229 C 389.600 266.799,389.780 266.336,390.000 266.200 C 390.220 266.064,390.400 265.434,390.400 264.800 C 390.400 264.166,390.580 263.536,390.800 263.400 C 391.020 263.264,391.200 262.634,391.200 262.000 C 391.200 261.366,391.380 260.736,391.600 260.600 C 391.820 260.464,392.000 259.834,392.000 259.200 C 392.000 258.566,392.180 257.936,392.400 257.800 C 392.620 257.664,392.800 257.111,392.800 256.571 C 392.800 256.031,392.969 255.277,393.176 254.895 C 393.383 254.513,394.181 250.870,394.949 246.800 C 395.717 242.730,396.456 238.860,396.592 238.200 C 396.727 237.540,397.015 235.470,397.232 233.600 C 397.449 231.730,397.804 228.670,398.021 226.800 C 398.368 223.808,399.251 208.593,399.298 204.800 C 399.358 199.906,397.950 180.243,397.236 176.000 C 397.032 174.790,396.678 172.517,396.450 170.950 C 396.221 169.382,395.643 166.322,395.165 164.150 C 394.687 161.977,394.122 159.120,393.909 157.800 C 393.696 156.480,393.360 155.087,393.161 154.705 C 392.962 154.323,392.800 153.646,392.800 153.200 C 392.800 152.754,392.638 152.077,392.439 151.695 C 392.240 151.313,391.863 150.190,391.600 149.200 C 391.337 148.210,390.960 147.087,390.761 146.705 C 390.562 146.323,390.400 145.569,390.400 145.029 C 390.400 144.489,390.220 143.936,390.000 143.800 C 389.780 143.664,389.600 143.124,389.600 142.600 C 389.600 142.076,389.420 141.536,389.200 141.400 C 388.980 141.264,388.800 140.801,388.800 140.371 C 388.800 139.941,388.641 139.277,388.447 138.895 C 388.252 138.513,387.916 137.750,387.700 137.200 C 387.011 135.446,386.317 133.821,385.953 133.105 C 385.759 132.723,385.600 132.166,385.600 131.867 C 385.600 131.568,385.350 130.800,385.044 130.161 C 384.738 129.523,384.176 128.280,383.796 127.400 C 381.744 122.652,375.630 109.946,375.231 109.600 C 375.010 109.409,373.574 106.805,372.640 104.903 C 372.398 104.410,372.065 104.005,371.900 104.003 C 371.735 104.001,371.600 103.810,371.600 103.578 C 371.600 103.346,370.894 102.117,370.032 100.847 C 369.169 99.577,368.069 97.832,367.587 96.969 C 367.105 96.106,365.515 93.716,364.055 91.657 C 362.595 89.598,360.814 87.078,360.099 86.057 C 359.383 85.036,358.573 83.929,358.299 83.599 C 358.024 83.268,357.173 82.188,356.406 81.199 C 355.639 80.209,354.781 79.159,354.500 78.865 C 354.218 78.571,353.496 77.673,352.894 76.868 C 352.292 76.064,351.440 75.032,351.000 74.576 C 350.560 74.120,348.760 72.150,347.000 70.200 C 341.371 63.959,334.709 57.586,328.800 52.787 C 327.591 51.804,326.331 50.728,326.000 50.396 C 325.670 50.063,324.770 49.319,324.000 48.741 C 323.230 48.163,322.150 47.294,321.600 46.810 C 321.050 46.326,320.105 45.637,319.500 45.279 C 318.895 44.920,318.400 44.486,318.400 44.314 C 318.400 44.141,318.187 44.000,317.926 44.000 C 317.665 44.000,317.080 43.668,316.626 43.261 C 315.713 42.445,308.076 37.200,307.800 37.200 C 307.607 37.200,302.827 34.202,302.200 33.688 C 301.980 33.507,301.530 33.238,301.200 33.089 C 300.870 32.940,299.700 32.272,298.600 31.604 C 297.500 30.936,295.925 30.080,295.100 29.701 C 294.275 29.322,293.600 28.874,293.600 28.706 C 293.600 28.538,293.255 28.400,292.833 28.400 C 292.412 28.400,292.007 28.255,291.933 28.079 C 291.814 27.792,282.658 23.200,282.204 23.200 C 281.962 23.200,276.798 20.899,275.905 20.394 C 275.523 20.177,275.020 20.000,274.786 20.000 C 274.552 20.000,273.616 19.640,272.706 19.200 C 271.795 18.760,270.811 18.400,270.519 18.400 C 270.228 18.400,269.677 18.241,269.295 18.047 C 268.913 17.852,268.060 17.471,267.400 17.200 C 266.740 16.929,265.887 16.548,265.505 16.353 C 265.123 16.159,264.536 16.000,264.200 16.000 C 263.864 16.000,263.277 15.838,262.895 15.639 C 262.513 15.440,261.390 15.063,260.400 14.800 C 259.410 14.537,258.287 14.160,257.905 13.961 C 257.523 13.762,256.859 13.600,256.429 13.600 C 255.999 13.600,255.536 13.420,255.400 13.200 C 255.264 12.980,254.634 12.800,254.000 12.800 C 253.366 12.800,252.736 12.620,252.600 12.400 C 252.464 12.180,251.744 12.000,251.000 12.000 C 250.256 12.000,249.536 11.820,249.400 11.600 C 249.264 11.380,248.544 11.200,247.800 11.200 C 247.056 11.200,246.336 11.020,246.200 10.800 C 246.064 10.580,245.243 10.400,244.376 10.400 C 243.509 10.400,242.800 10.238,242.800 10.040 C 242.800 9.842,242.035 9.583,241.100 9.465 C 238.716 9.162,231.774 8.196,226.800 7.474 C 216.855 6.031,206.031 5.598,191.200 6.050 "
              stroke="none" fill="#ffffff" fill-rule="evenodd"></path>
        <path id="path1" d="" stroke="none" fill="#ffffff" fill-rule="evenodd"></path>
        <path id="path2" d="" stroke="none" fill="#ffffff" fill-rule="evenodd"></path>
        <path id="path3" d="" stroke="none" fill="#ffffff" fill-rule="evenodd"></path>
    </g>
</svg>