<svg xmlns="http://www.w3.org/2000/svg" version="1.0" viewBox="0 0 580 585.778">
    <g fill="#67daff" class="selected">
        <path d="M258.333 4.378c-9.9 1.2-31.9 5.7-42.7 8.9-13.8 3.9-41.6 14.6-53.2 20.4-10.7 5.4-34 20.2-44.1 27.9-16.6 12.8-41.5 36.3-41.5 39.2 0 .4-2.5 3.5-5.6 7.1-13.7 15.8-28.9 40-39.6 63-12.3 26.7-19.4 50.7-24 81.4-2.2 15-2.5 60.9-.5 75 3.9 27.1 9.2 48.5 17.2 68.4 17.8 44.9 41.9 79.4 78.2 112.1 35.6 32.1 84.3 56.7 130.3 65.9 24.3 4.8 32 5.6 60 5.6s35-.6 58.1-5c28.8-5.5 64-19 88.9-34 11.9-7.2 32.7-21.9 38.8-27.5 3-2.7 5.6-4.8 5.8-4.5.7.6 17.7-16 25.5-24.9 14.8-16.8 32.3-42.4 41.5-60.7 10.8-21.5 22.3-56 27-80.9 2.3-11.8 2.4-14.7 2.4-50s-.1-38.2-2.4-50c-3.4-18.1-9.2-37.9-16.7-56.8-8-20.1-11.8-27.9-22.2-44.7-24.6-39.6-55.1-70.1-94.7-94.7-16.7-10.3-24.6-14.2-44.6-22.2-19.4-7.6-36.3-12.7-54.9-16.3-12.9-2.5-15.2-2.7-48.5-2.9-19.2-.1-36.6 0-38.5.2zm-104.3 184.1c14.5 22.7 54 84.6 67.3 105.6 4.1 6.4 8.2 12.6 9 13.7 1.3 1.8 1.5-5.4 1.2-66.5l-.2-68.5h20v164h-24.5l-11.4-17.8c-26-40.2-33.4-51.7-46.6-72.2-7.6-11.8-16.3-25.3-19.3-30-3.1-4.7-6.9-10.8-8.6-13.5l-3.1-5.1.3 69.3.3 69.3h-20.1v-164h25.6l10.1 15.7zm222.3-7.2v8.5h-63v55h59v17h-59v57h67v18h-87v-164h83v8.5zm133 0v8.5l-23.7.2-23.8.3-.3 73.2-.2 73.3h-19l-.2-73.3-.3-73.2-23.2-.3-23.3-.2v-17h114v8.5zm-432.6 132.9c6.8 2.8 10 10.3 7.2 16.9-2.8 6.7-11.8 9.7-18.6 6.2-8.5-4.4-7.6-19.1 1.3-23 4.1-1.8 6-1.8 10.1-.1zm159.1 62c3.9 1.1 4 1.3 4.3 6 .3 4.4.1 4.8-1.5 4.1-18.1-7.5-34.3-2.3-42 13.3-2.5 5.1-2.8 6.8-2.8 15.2.1 11.1 2.3 16.8 8.8 23.2 7.3 7.1 22.1 8.8 33.2 3.9l4.6-2-.3 4.7-.3 4.6-5.5 1.8c-8 2.5-21.4 2.4-28.4-.2-14.5-5.5-23.6-21.2-22.3-38.5 1.3-17.2 11-30.5 26-35.6 6.1-2.1 20-2.4 26.2-.5zm54.1 21.5c5.1 2.3 10.8 9 12.8 14.9 2 5.7 2 15.4.1 21.8-4.4 15-22.5 22.9-37 16-10.1-4.7-14.9-13.2-14.9-26.1 0-12.9 4.8-21.4 14.9-26.1 6.4-3.1 17.9-3.3 24.1-.5zm95.9 0c8.1 3.7 13.5 13.3 13.5 24.3v4.8h-38v3.3c0 4.4 3 9.7 7.1 12.5 3 2.1 4.3 2.3 11 2 5.5-.3 8.7-1.1 11.3-2.6 2.1-1.2 3.9-2.2 4.2-2.2.2 0 .4 1.8.4 4 0 3.6-.3 4.1-4.2 6.2-3.6 1.9-5.9 2.3-13.9 2.3-8.9 0-9.9-.2-14.4-3-7.3-4.6-10.8-11.4-11.3-22.4-.3-7 0-9.7 1.7-14.1 2.5-6.6 8.8-13.3 14.6-15.4 5.5-2 13.2-1.9 18 .3zm-58.5 3.6c.5 3.9.6 3.9 1.8 1.7 2.1-3.7 7.1-6.2 12.5-6.2h4.7v8.9l-4.7-.5c-4-.5-5.3-.2-7.7 1.7-5.6 4.4-6.6 8.5-6.6 27.6v17.3h-10v-26.8c0-14.8.3-27.2.7-27.6.4-.4 2.5-.6 4.8-.4 3.9.3 4 .4 4.5 4.3z"/>
        <path d="M270.833 405.178c-12.8 5.7-14.4 29.5-2.6 37.3 4.5 3 14.1 3.2 18.8.3 9.3-5.7 10.9-26.3 2.6-34.2-5-4.8-12.6-6.2-18.8-3.4zM370.833 405.178c-5.7 2.5-11.3 11.2-8.8 13.7.7.7 5.8.8 14.3.3l13.2-.7-.5-3.5c-.8-4.8-3.3-8.1-7.2-9.8-4.2-1.7-7.1-1.7-11 0z"/>
    </g>
</svg>