<svg xmlns="http://www.w3.org/2000/svg" viewBox="0 0 64 64">
    <path fill="#67daff" d="M32.043 17.5c-8.054 0-14.585 6.531-14.585 14.586S23.99 46.67 32.043 46.67s14.585-6.53 14.585-14.585C46.585 24.03 40.054 17.5 32.043 17.5z" class="st0"/>
    <circle fill="#67daff" r="15.3" cy="210.2" cx="159.8" class="st0" transform="translate(-16.631 -79.369) scale(.43537)"/>
    <path fill="#67daff" d="m61.126 18.807-.261-.61-.436.523a10.156 10.156 0 0 1-4.005 2.743l-.435.174.174.435c1.35 3.178 2.003 6.574 2.003 10.014 0 14.41-11.712 26.165-26.166 26.165S5.878 46.496 5.878 32.086 17.589 5.92 32.043 5.92c3.919 0 7.663.87 11.19 2.525l.391.174.174-.435a9.941 9.941 0 0 1 2.96-3.875l.523-.435-.61-.305C42.102 1.218 37.182-.001 32-.001c-17.633 0-32 14.367-32 32s14.367 32 32 32 32-14.368 32-32c0-4.528-.958-8.969-2.874-13.192z" class="st0"/>
</svg>