<svg id="svg" version="1.1" width="400" height="400.64935064935065" viewBox="0 0 400 400.64935064935065"
     xmlns="http://www.w3.org/2000/svg" xmlns:xlink="http://www.w3.org/1999/xlink">
    <g id="svgg">
        <path id="path0"
              d="M18.056 7.414 C 11.173 8.912,4.260 15.228,2.344 21.770 C 0.748 27.218,0.801 22.884,0.800 148.600 C 0.800 282.785,0.567 272.292,3.696 278.695 C 5.945 283.298,10.975 287.934,15.275 289.367 C 19.582 290.803,19.189 290.800,198.800 290.800 C 370.686 290.800,378.610 290.750,381.400 289.656 C 388.425 286.900,392.857 282.185,395.473 274.686 C 396.632 271.362,396.604 26.177,395.444 22.800 C 393.682 17.670,389.561 11.927,386.552 10.410 C 385.918 10.090,384.950 9.531,384.400 9.167 C 383.850 8.804,382.410 8.170,381.200 7.759 C 378.248 6.756,22.634 6.418,18.056 7.414 M372.200 148.800 L 372.200 266.200 198.700 266.300 L 25.200 266.401 25.200 148.800 L 25.200 31.199 198.700 31.300 L 372.200 31.400 372.200 148.800 M161.914 336.500 L 161.775 357.000 160.675 360.286 C 158.200 367.675,152.320 373.797,145.201 376.400 C 141.629 377.705,137.670 378.000,123.671 378.002 C 109.358 378.005,108.456 378.102,105.503 379.976 C 98.798 384.227,98.274 394.602,104.522 399.368 L 105.876 400.400 198.883 400.400 L 291.891 400.400 293.876 398.446 C 298.378 394.015,298.461 386.167,294.053 381.759 C 290.389 378.094,291.180 378.236,272.800 377.954 C 263.448 377.810,256.008 377.528,255.200 377.286 C 251.806 376.269,251.105 376.000,249.111 374.949 C 243.796 372.145,239.300 367.133,237.317 361.800 C 235.698 357.446,235.629 356.401,235.614 335.900 L 235.600 316.000 198.826 316.000 L 162.052 316.000 161.914 336.500 "
              stroke="none" fill="#3cdddd" fill-rule="evenodd"></path>
    </g>
</svg>