<svg xmlns="http://www.w3.org/2000/svg" fill="none" height="519" width="581">
    <rect id="backgroundrect" width="100%" height="100%" x="0" y="0" fill="none" stroke="none" class="selected"
          style=""/>

    <g class="currentLayer" style="">
        <title>Layer 1</title>
        <path d="m459.0729821777344,603.688995727539 c21.707,37.811 62.318,63.252 108.765,63.252 c46.913,0 87.758,-25.674 109.231,-63.952 l-108.064,-62.551 z"
              id="svg_3" class=""/>
        <g fill="#fff" id="svg_5" class="">
            <path d="m361.06898217773437,312.9889957275391 c-21.472,38.044 -62.317,63.952 -109.231,63.952 c-46.68,0 -87.291,-25.441 -108.764,-63.252 c-10.503,-18.438 -16.572,-39.444 -16.572,-62.084 c0,-69.32 56.016,-125.336 125.336,-125.336 c46.213,0 86.592,25.207 108.298,62.551 l109.464,-63.018 c-43.645,-75.154 -124.869,-125.802 -217.995,-125.802 c-139.107,0 -251.605,112.732 -251.605,251.605 c0,45.513 12.136,88.459 33.376,125.336 c43.412,75.388 125.102,126.269 218.462,126.269 c93.594,0 175.284,-51.114 218.696,-126.969 zm138.406,-120.901 h-24.974 v120.668 h24.974 zm55.316,0 h-24.974 v120.668 h24.974 z"
                  id="svg_6"/>
            <path d="m575.0969821777344,212.39399572753905 h-120.668 v24.974 h120.668 zm0,55.082 h-120.668 v24.974 h120.668 z"
                  id="svg_7"/>
        </g>
    </g>
</svg>