<svg xmlns="http://www.w3.org/2000/svg" viewBox="0 0 581 519">
    <path d="M467.073 613.689c21.707 37.811 62.318 63.252 108.765 63.252 46.913 0 87.758-25.674 109.231-63.952l-108.064-62.551z"/>
    <g fill="#67daff">
        <path d="M369.069 322.989c-21.472 38.044-62.317 63.952-109.231 63.952-46.68 0-87.291-25.441-108.764-63.252-10.503-18.438-16.572-39.444-16.572-62.084 0-69.32 56.016-125.336 125.336-125.336 46.213 0 86.592 25.207 108.298 62.551L477.6 135.802C433.955 60.648 352.731 10 259.605 10 120.498 10 8 122.732 8 261.605c0 45.513 12.136 88.459 33.376 125.336C84.788 462.329 166.478 513.21 259.838 513.21c93.594 0 175.284-51.114 218.696-126.969zm138.406-120.901h-24.974v120.668h24.974zm55.316 0h-24.974v120.668h24.974z"/>
        <path d="M583.097 222.394H462.429v24.974h120.668zm0 55.082H462.429v24.974h120.668z"/>
    </g>
</svg>