<svg xmlns="http://www.w3.org/2000/svg" version="1.0" width="580.0000246365857" height="585.7777794555382" preserveAspectRatio="xMidYMid meet" style=""><rect id="backgroundrect" width="100%" height="100%" x="0" y="0" fill="none" stroke="none"/>
<metadata>
Created by potrace 1.16, written by Peter Selinger 2001-2019
</metadata>

<g class="currentLayer" style=""><title>Layer 1</title><g transform="translate(0,628) scale(0.10000000149011612,-0.10000000149011612) " fill="#ffffff" stroke="none" id="svg_1" class="selected" fill-opacity="1">
<path d="M2583.33349609375,6236.222213745117 c-99,-12 -319,-57 -427,-89 c-138,-39 -416,-146 -532,-204 c-107,-54 -340,-202 -441,-279 c-166,-128 -415,-363 -415,-392 c0,-4 -25,-35 -56,-71 c-137,-158 -289,-400 -396,-630 c-123,-267 -194,-507 -240,-814 c-22,-150 -25,-609 -5,-750 c39,-271 92,-485 172,-684 c178,-449 419,-794 782,-1121 c356,-321 843,-567 1303,-659 c243,-48 320,-56 600,-56 c280,0 350,6 581,50 c288,55 640,190 889,340 c119,72 327,219 388,275 c30,27 56,48 58,45 c7,-6 177,160 255,249 c148,168 323,424 415,607 c108,215 223,560 270,809 c23,118 24,147 24,500 c0,353 -1,382 -24,500 c-34,181 -92,379 -167,568 c-80,201 -118,279 -222,447 c-246,396 -551,701 -947,947 c-167,103 -246,142 -446,222 c-194,76 -363,127 -549,163 c-129,25 -152,27 -485,29 c-192,1 -366,0 -385,-2 zm-1043,-1841 c145,-227 540,-846 673,-1056 c41,-64 82,-126 90,-137 c13,-18 15,54 12,665 l-2,685 l100,0 l100,0 l0,-820 l0,-820 l-122,0 l-123,0 l-114,178 c-260,402 -334,517 -466,722 c-76,118 -163,253 -193,300 c-31,47 -69,108 -86,135 l-31,51 l3,-693 l3,-693 l-101,0 l-100,0 l0,820 l0,820 l128,0 l128,0 l101,-157 zm2223,72 l0,-85 l-315,0 l-315,0 l0,-275 l0,-275 l295,0 l295,0 l0,-85 l0,-85 l-295,0 l-295,0 l0,-285 l0,-285 l335,0 l335,0 l0,-90 l0,-90 l-435,0 l-435,0 l0,820 l0,820 l415,0 l415,0 l0,-85 zm1330,0 l0,-85 l-237,-2 l-238,-3 l-3,-732 l-2,-733 l-95,0 l-95,0 l-2,733 l-3,732 l-232,3 l-233,2 l0,85 l0,85 l570,0 l570,0 l0,-85 zm-4326,-1329 c68,-28 100,-103 72,-169 c-28,-67 -118,-97 -186,-62 c-85,44 -76,191 13,230 c41,18 60,18 101,1 zm1591,-620 c39,-11 40,-13 43,-60 c3,-44 1,-48 -15,-41 c-181,75 -343,23 -420,-133 c-25,-51 -28,-68 -28,-152 c1,-111 23,-168 88,-232 c73,-71 221,-88 332,-39 l46,20 l-3,-47 l-3,-46 l-55,-18 c-80,-25 -214,-24 -284,2 c-145,55 -236,212 -223,385 c13,172 110,305 260,356 c61,21 200,24 262,5 zm541,-215 c51,-23 108,-90 128,-149 c20,-57 20,-154 1,-218 c-44,-150 -225,-229 -370,-160 c-101,47 -149,132 -149,261 c0,129 48,214 149,261 c64,31 179,33 241,5 zm959,0 c81,-37 135,-133 135,-243 l0,-48 l-190,0 l-190,0 l0,-33 c0,-44 30,-97 71,-125 c30,-21 43,-23 110,-20 c55,3 87,11 113,26 c21,12 39,22 42,22 c2,0 4,-18 4,-40 c0,-36 -3,-41 -42,-62 c-36,-19 -59,-23 -139,-23 c-89,0 -99,2 -144,30 c-73,46 -108,114 -113,224 c-3,70 0,97 17,141 c25,66 88,133 146,154 c55,20 132,19 180,-3 zm-585,-36 c5,-39 6,-39 18,-17 c21,37 71,62 125,62 l47,0 l0,-45 l0,-44 l-47,5 c-40,5 -53,2 -77,-17 c-56,-44 -66,-85 -66,-276 l0,-173 l-50,0 l-50,0 l0,268 c0,148 3,272 7,276 c4,4 25,6 48,4 c39,-3 40,-4 45,-43 z" id="svg_2" fill="#ffffff" fill-opacity="1"/>
<path d="M2708.33349609375,2228.222213745117 c-128,-57 -144,-295 -26,-373 c45,-30 141,-32 188,-3 c93,57 109,263 26,342 c-50,48 -126,62 -188,34 z" id="svg_3" fill="#ffffff" fill-opacity="1"/>
<path d="M3708.33349609375,2228.222213745117 c-57,-25 -113,-112 -88,-137 c7,-7 58,-8 143,-3 l132,7 l-5,35 c-8,48 -33,81 -72,98 c-42,17 -71,17 -110,0 z" id="svg_4" fill="#ffffff" fill-opacity="1"/>
</g></g></svg>