<svg xmlns="http://www.w3.org/2000/svg" version="1.0" width="512.000000" height="512.000000" preserveAspectRatio="xMidYMid meet" style=""><rect id="backgroundrect" width="100%" height="100%" x="0" y="0" fill="none" stroke="none"/>
<metadata>
Created by potrace 1.16, written by Peter Selinger 2001-2019
</metadata>

<g class="currentLayer" style="">
    <title>Layer 1</title>
    <g transform="translate(0,512) scale(0.10000000149011612,-0.10000000149011612) " fill="#67daff" stroke="none"
       id="svg_1" class="selected" fill-opacity="1">
        <path d="M2225 5109 c-980 -126 -1810 -821 -2113 -1771 -85 -265 -112 -453 -112 -778 0 -325 27 -513 112 -778 305 -956 1138 -1650 2128 -1772 109 -13 531 -13 640 0 990 122 1823 816 2128 1772 85 265 112 453 112 778 0 325 -27 513 -112 778 -305 956 -1138 1650 -2128 1772 -100 12 -555 11 -655 -1z m597 -554 c398 -53 776 -227 1077 -496 102 -92 281 -292 281 -315 0 -12 -258 -234 -271 -234 -4 0 -22 19 -40 43 -249 320 -586 533 -983 619 -87 19 -131 22 -326 22 -195 0 -239 -3 -326 -22 -549 -119 -989 -488 -1198 -1002 l-26 -65 1048 -1047 1047 -1048 65 26 c376 152 680 434 864 803 42 83 103 247 120 324 l6 27 -435 0 -435 0 0 185 0 185 640 0 640 0 0 -74 c0 -174 -52 -435 -125 -631 -219 -588 -721 -1052 -1324 -1226 l-113 -32 -1205 1206 -1206 1205 32 113 c218 756 878 1327 1656 1433 137 19 399 19 537 1z m-302 -4003 c-6 -2 -65 1 -133 7 -979 90 -1728 831 -1827 1810 -5 57 -10 117 -10 135 0 28 83 -52 990 -959 545 -545 985 -992 980 -993z"
              id="svg_2" fill="#67daff" fill-opacity="1"/>
    </g>
</g></svg>