<svg xmlns="http://www.w3.org/2000/svg" width="256" height="262" preserveAspectRatio="xMidYMid">
    <rect id="backgroundrect" width="100%" height="100%" x="0" y="0" fill="none" stroke="none"/>
    <g class="currentLayer" style="">
        <title>Layer 1</title>
        <path d="M256.45603469896315,133.451 c0,-10.734 -0.8710000000000001,-18.567 -2.7560000000000002,-26.69 H131.12803469896318 v48.448 h71.947 c-1.45,12.04 -9.283,30.172 -26.69,42.356 l-0.24400000000000002,1.622 l38.755,30.023 l2.685,0.268 c24.659,-22.774 38.875,-56.282 38.875,-96.027 "
              fill="#4aa1bd" id="svg_1" class="" fill-opacity="1"/>
        <path d="M130.55 261.1c35.248 0 64.839-11.605 86.453-31.622l-41.196-31.913c-11.024 7.688-25.82 13.055-45.257 13.055-34.523 0-63.824-22.773-74.269-54.25l-1.531.13-40.298 31.187-.527 1.465C35.393 231.798 79.49 261.1 130.55 261.1"
              fill="#67daff" id="svg_2" class="" fill-opacity="1"/>
        <path d="M56.281 156.37c-2.756-8.123-4.351-16.827-4.351-25.82 0-8.994 1.595-17.697 4.206-25.82l-.073-1.73L15.26 71.312l-1.335.635C5.077 89.644 0 109.517 0 130.55s5.077 40.905 13.925 58.602l42.356-32.782"
              fill="#67daff" id="svg_3" class="" fill-opacity="1"/>
        <path d="M130.55 50.479c24.514 0 41.05 10.589 50.479 19.438l36.844-35.974C195.245 12.91 165.798 0 130.55 0 79.49 0 35.393 29.301 13.925 71.947l42.211 32.783c10.59-31.477 39.891-54.251 74.414-54.251"
              fill="#82dbfc" id="svg_4" class="" fill-opacity="1"/>
    </g>
</svg>