<?xml version="1.0" standalone="no"?>
<!DOCTYPE svg PUBLIC "-//W3C//DTD SVG 20010904//EN"
        "http://www.w3.org/TR/2001/REC-SVG-20010904/DTD/svg10.dtd">
<svg version="1.0" xmlns="http://www.w3.org/2000/svg"
     width="3440.000000pt" height="3109.000000pt" viewBox="0 0 3440.000000 3109.000000"
     preserveAspectRatio="xMidYMid meet">
    <g transform="translate(0.000000,3109.000000) scale(0.100000,-0.100000)"
       fill="#67daff" stroke="none">
        <path d="M16830 31079 c-2952 -174 -5690 -1989 -7315 -4849 -338 -595 -593
-1164 -858 -1915 -759 -2153 -1043 -4338 -856 -6605 210 -2558 1046 -5162
2445 -7617 57 -100 104 -186 104 -190 0 -5 -27 -61 -59 -124 -258 -497 -327
-1070 -194 -1623 146 -615 543 -1147 1096 -1470 247 -145 534 -245 838 -293
159 -25 518 -24 679 1 761 118 1402 579 1744 1255 124 246 198 484 237 771 19
137 17 468 -4 611 -59 401 -211 770 -450 1088 -90 120 -273 309 -392 406 -458
372 -1063 563 -1632 515 -87 -7 -173 -13 -191 -14 -34 -1 -34 0 -152 205
-1178 2054 -1856 4237 -2035 6544 -31 411 -37 543 -42 1085 -6 563 3 901 33
1345 166 2458 932 4569 2310 6361 238 310 499 590 754 808 900 770 2194 1352
3547 1595 425 77 721 105 1088 105 293 0 432 -9 685 -45 1631 -233 3048 -1294
4122 -3089 690 -1152 1225 -2623 1422 -3910 22 -142 33 -235 62 -516 l5 -51
167 -43 c417 -106 985 -276 1550 -465 265 -89 392 -127 392 -118 0 40 -44 509
-66 698 -300 2626 -1192 4876 -2609 6574 -368 442 -823 891 -1255 1240 -1198
969 -2592 1561 -4015 1705 -344 35 -812 45 -1155 25z"/>
        <path d="M14975 21444 c-993 -134 -1788 -879 -1984 -1859 -35 -177 -44 -296
-38 -524 6 -238 19 -334 73 -539 224 -857 925 -1516 1799 -1691 177 -35 296
-44 524 -38 238 6 334 19 539 73 408 106 772 320 1072 630 181 187 326 394
430 615 l45 95 445 18 c480 19 839 14 1360 -19 2464 -159 4772 -866 6930
-2122 1528 -890 2717 -1886 3669 -3073 485 -605 883 -1227 1230 -1920 513
-1026 775 -1873 868 -2810 21 -216 24 -778 5 -975 -92 -932 -356 -1686 -880
-2515 -394 -621 -859 -1146 -1397 -1575 -608 -485 -1336 -848 -2131 -1064
-1466 -398 -3272 -294 -5044 290 -321 106 -571 202 -881 337 l-47 20 -123
-110 c-324 -289 -947 -789 -1606 -1288 -84 -63 -149 -118 -144 -123 24 -24
647 -294 945 -409 1240 -479 2395 -746 3646 -844 278 -21 1002 -30 1296 -15
1309 67 2529 358 3667 875 1623 738 3003 1934 3796 3291 449 767 727 1670 830
2695 58 569 52 1242 -14 1835 -214 1894 -1009 3747 -2300 5360 -1434 1791
-3200 3229 -5240 4266 -2097 1066 -4414 1687 -6915 1853 -503 34 -731 41
-1387 41 l-672 0 -26 47 c-15 27 -57 94 -94 150 -366 556 -975 937 -1634 1023
-146 19 -471 18 -612 -1z"/>
        <path d="M5784 16347 c-587 -442 -983 -785 -1485 -1287 -342 -340 -512 -525
-764 -826 -946 -1134 -1620 -2379 -2001 -3699 -183 -630 -292 -1250 -346
-1965 -16 -216 -16 -964 0 -1180 68 -897 231 -1681 505 -2430 460 -1257 1131
-2203 2127 -2999 973 -779 2202 -1351 3555 -1655 1053 -237 2162 -310 3290
-215 565 47 1047 124 1735 275 1483 327 2795 782 4075 1414 2913 1440 5273
3681 6908 6561 125 220 264 480 407 758 l105 205 105 17 c133 21 211 40 335
80 867 277 1497 1044 1605 1954 7 55 12 177 12 270 0 94 -5 215 -12 270 -62
526 -299 1015 -669 1386 -371 370 -867 609 -1390 669 -154 18 -515 8 -661 -18
-479 -87 -879 -289 -1219 -617 -298 -287 -489 -592 -615 -983 -128 -396 -141
-866 -36 -1279 95 -372 253 -670 518 -975 l84 -98 -82 -157 c-882 -1693 -2062
-3115 -3615 -4359 -948 -760 -2142 -1513 -3365 -2123 -1528 -761 -3055 -1176
-4645 -1261 -244 -13 -825 -13 -1070 0 -851 45 -1553 167 -2195 380 -1243 412
-2219 1144 -2895 2170 -847 1286 -1204 2667 -1049 4060 157 1420 839 2863
1989 4205 456 533 1030 1081 1533 1465 l33 25 -26 75 c-131 378 -364 1269
-520 1983 -9 42 -21 77 -25 77 -4 0 -110 -78 -236 -173z"/>
    </g>
</svg>
