<?xml version="1.0" standalone="no"?>
<!DOCTYPE svg PUBLIC "-//W3C//DTD SVG 20010904//EN"
        "http://www.w3.org/TR/2001/REC-SVG-20010904/DTD/svg10.dtd">
<svg version="1.0" xmlns="http://www.w3.org/2000/svg"
     width="660.000000pt" height="660.000000pt" viewBox="0 0 660.000000 660.000000"
     preserveAspectRatio="xMidYMid meet">
    <metadata>
        Created by potrace 1.16, written by Peter Selinger 2001-2019
    </metadata>
    <g transform="translate(0.000000,660.000000) scale(0.100000,-0.100000)"
       fill="#fff" stroke="none">
        <path d="M2955 6574 c-401 -43 -766 -151 -1135 -335 -767 -384 -1357 -1059
-1635 -1871 -121 -351 -175 -683 -175 -1068 0 -522 105 -980 330 -1445 350
-722 975 -1306 1720 -1607 735 -297 1558 -320 2306 -64 814 279 1489 868 1873
1636 149 298 233 545 295 865 137 711 26 1476 -308 2120 -518 1001 -1485 1658
-2604 1770 -184 18 -489 18 -667 -1z m1508 -789 c434 -51 744 -226 869 -492
131 -277 65 -653 -175 -1007 -87 -129 -302 -342 -437 -433 -221 -149 -473
-250 -782 -312 -237 -49 -580 -54 -743 -12 -190 49 -370 175 -434 303 -36 71
-38 98 -12 122 18 16 22 14 87 -44 200 -178 480 -220 889 -133 532 112 1009
436 1209 823 66 128 90 216 90 330 1 111 -12 160 -57 227 -64 93 -200 164
-387 204 -88 18 -137 22 -300 22 -213 0 -343 -17 -570 -73 -569 -142 -1320
-560 -1680 -936 -208 -217 -306 -414 -317 -634 -7 -125 9 -198 63 -307 81
-162 213 -294 579 -578 120 -93 261 -210 313 -260 l95 -90 89 22 c202 51 551
56 729 10 172 -45 291 -110 411 -225 281 -270 287 -655 12 -837 -61 -40 -135
-68 -159 -59 -8 4 -15 17 -15 30 0 17 15 33 59 63 139 95 194 225 157 370 -57
223 -249 371 -566 438 -148 31 -536 21 -572 -15 -5 -5 -2 -28 7 -51 54 -155
59 -437 11 -626 -62 -239 -209 -458 -411 -608 -209 -156 -476 -234 -704 -207
-175 21 -244 57 -312 162 -102 159 -112 365 -26 577 37 91 94 169 207 281 161
161 373 311 674 477 l138 77 -33 28 c-19 15 -128 94 -244 175 -504 353 -678
500 -832 709 -159 215 -212 417 -164 620 147 612 881 1242 1932 1659 478 190
902 258 1312 210z"/>
        <path d="M2550 2144 c-244 -130 -460 -302 -584 -463 -53 -69 -118 -194 -136
-261 -18 -67 -17 -169 3 -206 46 -88 215 -85 387 7 167 90 291 223 375 402 45
95 65 172 72 284 6 88 -12 268 -26 278 -4 2 -45 -16 -91 -41z"/>
    </g>
</svg>
