<svg viewBox="0 0 38 38" xmlns="http://www.w3.org/2000/svg">
    <path d="m34.217 24.55-.003-.003c.054-.187.11-.372.159-.563C36.427 15.8 31.413 6.124 22.93 1.03c3.718 5.04 5.361 11.144 3.9 16.482-.13.477-.286.934-.459 1.378a11.353 11.353 0 0 0-.742-.439s-8.44-5.21-17.586-14.427c-.24-.242 4.877 7.314 10.685 13.45C15.992 15.939 8.366 10.39 3.539 5.972c.593.99 1.299 1.942 2.074 2.859 4.031 5.112 9.289 11.42 15.587 16.264-4.425 2.708-10.678 2.918-16.904.003a25.539 25.539 0 0 1-4.328-2.582 25.92 25.92 0 0 0 11.634 9.975c5.892 2.532 11.75 2.36 16.113.042l-.003.005c.02-.013.045-.026.066-.04.179-.095.357-.194.53-.297 2.097-1.088 6.238-2.192 8.46 2.132.545 1.059 1.702-4.55-2.55-9.782z" fill="#67daff"/>
</svg>