<svg xmlns="http://www.w3.org/2000/svg" version="1.0" width="672.000000" height="672.000000"
     preserveAspectRatio="xMidYMid meet" style="">
    <rect id="backgroundrect" width="100%" height="100%" x="0" y="0" fill="none" stroke="none"/>
    <g class="currentLayer" style="">
        <title>Layer 1</title>
        <g transform="translate(0,672) scale(0.10000000149011612,-0.10000000149011612) " fill="#ffffff" stroke="none"
           id="svg_1" class="selected" fill-opacity="1">
            <path d="M0 3360 l0 -3360 3360 0 3360 0 0 3360 0 3360 -3360 0 -3360 0 0 -3360z m5298 289 c166 -18 304 -69 421 -157 30 -23 59 -38 65 -35 6 3 8 3 4 -2 -4 -4 24 -42 63 -84 67 -72 149 -183 149 -202 0 -14 -468 -321 -479 -314 -6 3 -32 34 -57 68 -26 34 -61 75 -78 90 -122 111 -345 127 -468 34 -93 -72 -121 -214 -64 -330 46 -95 136 -154 426 -278 583 -249 800 -443 887 -794 26 -107 24 -353 -6 -460 -35 -129 -93 -235 -179 -327 -119 -126 -262 -210 -446 -263 -145 -41 -213 -48 -441 -42 -184 4 -222 8 -307 31 -251 67 -438 172 -588 332 -68 73 -181 233 -184 261 -1 10 79 62 247 159 137 79 252 144 255 144 4 0 23 -23 42 -52 19 -29 72 -89 117 -134 127 -128 262 -184 450 -184 271 0 423 111 423 309 0 171 -80 240 -487 420 -240 106 -350 162 -453 230 -191 125 -333 314 -387 513 -14 49 -17 103 -17 243 0 169 2 185 27 260 15 44 46 114 68 155 55 100 196 239 299 297 88 49 229 98 320 111 92 13 264 14 378 1z m-1460 -301 l2 -278 -435 0 -435 0 0 -1245 0 -1245 -315 0 -315 0 0 1245 0 1245 -435 0 -435 0 0 274 c0 210 3 276 13 279 6 3 539 5 1182 4 l1170 -2 3 -277z"
                  id="svg_2" fill="#ffffff" fill-opacity="1"/>
        </g>
    </g>
</svg>