<svg xmlns="http://www.w3.org/2000/svg" xmlns:xlink="http://www.w3.org/1999/xlink" version="1.1" width="329" height="301" style=""><rect id="backgroundrect" width="100%" height="100%" x="0" y="0" fill="none" stroke="none"/>
    
<g class="currentLayer" style=""><title>Layer 1</title><g id="svgg" class="">
        <path id="path0" d="M140.14322244262695,20.13692929077149 L120.20222244262695,40.08092929077148 L120.20222244262695,42.632929290771486 L120.20222244262695,45.18492929077148 L140.10622244262694,65.08992929077148 C159.95022244262697,84.93292929077148 160.01622244262694,84.99392929077149 161.66222244262696,84.99392929077149 C165.16322244262696,84.99392929077149 165.18422244262695,84.92492929077147 165.32722244262695,73.20392929077148 L165.45222244262695,62.94292929077149 L167.63522244262694,63.21492929077148 C168.83522244262696,63.364929290771485 170.48222244262695,63.82692929077149 171.29422244262696,64.24092929077149 C172.10722244262695,64.65492929077149 173.55122244262697,64.99392929077149 174.50522244262694,64.99392929077149 C175.58722244262697,64.99392929077149 176.94522244262694,65.36992929077148 178.11722244262694,65.99392929077149 C179.15022244262695,66.54392929077149 180.50922244262696,66.99392929077149 181.13722244262695,66.99392929077149 C181.76522244262696,66.99392929077149 182.75622244262695,67.32992929077149 183.34022244262695,67.74192929077148 C183.92422244262696,68.15292929077148 184.85222244262695,68.60992929077149 185.40222244262696,68.75892929077149 C185.95222244262695,68.90692929077149 187.30222244262694,69.45592929077148 188.40222244262696,69.97792929077148 C189.50222244262696,70.50092929077148 190.85222244262695,71.13492929077148 191.40222244262696,71.38792929077148 C193.08922244262695,72.16292929077149 195.02322244262695,73.28992929077148 195.73022244262694,73.90992929077149 C196.09922244262697,74.23392929077148 196.85222244262695,74.63592929077149 197.40222244262696,74.80292929077149 C197.95222244262695,74.96992929077149 198.85222244262695,75.45092929077148 199.40222244262696,75.87192929077149 C202.73222244262695,78.41992929077148 203.54322244262696,78.99392929077149 203.81522244262695,78.99392929077149 C203.98122244262694,78.99392929077149 204.65022244262695,79.4889292907715 205.30122244262697,80.09392929077148 C205.95222244262695,80.69892929077147 207.53022244262695,82.09392929077148 208.80822244262694,83.19392929077148 C211.96722244262696,85.91292929077147 215.95522244262696,89.9239292907715 218.57822244262695,93.02292929077149 C219.77522244262695,94.43692929077147 221.08422244262698,95.9539292907715 221.48822244262698,96.3939292907715 C222.41822244262693,97.40892929077148 223.86522244262693,99.66892929077147 224.49722244262693,101.09392929077148 C224.76522244262696,101.69892929077147 225.17522244262693,102.19392929077148 225.40822244262694,102.19392929077148 C225.64022244262696,102.19392929077148 226.19722244262698,102.9589292907715 226.64622244262694,103.8939292907715 C227.70822244262695,106.10892929077147 229.23922244262695,108.90992929077149 229.71922244262697,109.51492929077148 C229.92722244262694,109.77892929077149 230.31022244262698,110.65492929077149 230.57022244262697,111.46192929077148 C230.83022244262696,112.2689292907715 231.29022244262694,113.13492929077148 231.59122244262693,113.38492929077148 C231.89322244262695,113.63492929077148 232.26322244262695,114.56892929077148 232.41322244262693,115.4589292907715 C232.56422244262694,116.34992929077148 233.00122244262695,117.39292929077149 233.38622244262694,117.77792929077148 C233.77022244262696,118.1619292907715 234.18122244262696,119.33192929077148 234.29922244262696,120.37692929077147 C234.41722244262695,121.42192929077149 234.89322244262695,122.79092929077149 235.35822244262692,123.41892929077147 C235.94322244262696,124.21192929077148 236.20222244262698,125.15492929077149 236.20222244262698,126.49892929077149 C236.20222244262698,127.72492929077148 236.55422244262695,129.16392929077148 237.15922244262697,130.41492929077148 C238.00722244262693,132.16892929077147 238.14222244262697,133.1369292907715 238.34922244262697,138.91492929077148 C238.47722244262695,142.5009292907715 238.79522244262694,146.14592929077148 239.05522244262693,147.01492929077148 C239.42322244262698,148.24192929077148 239.41922244262696,148.9599292907715 239.03622244262698,150.23692929077149 C238.76622244262694,151.13992929077148 238.43822244262697,154.8749292907715 238.30822244262697,158.5369292907715 C238.09822244262693,164.48392929077147 237.97322244262693,165.3819292907715 237.13722244262698,166.9539292907715 C236.53122244262693,168.09392929077148 236.20222244262698,169.38892929077147 236.20222244262698,170.6319292907715 C236.20222244262698,171.9109292907715 235.86822244262697,173.1789292907715 235.20222244262698,174.43192929077148 C234.65222244262696,175.46692929077147 234.20222244262698,176.82592929077148 234.20222244262698,177.4539292907715 C234.20222244262698,178.08092929077148 233.86122244262697,178.9349292907715 233.44422244262694,179.3519292907715 C233.02822244262694,179.7679292907715 232.56422244262694,180.83792929077148 232.41322244262693,181.72892929077148 C232.26322244262695,182.6189292907715 231.89322244262695,183.5529292907715 231.59122244262693,183.8029292907715 C231.29022244262694,184.0529292907715 230.82722244262698,184.91892929077147 230.56322244262697,185.7259292907715 C230.30022244262693,186.53292929077148 229.52622244262693,188.14492929077147 228.84322244262694,189.30692929077148 C228.16022244262695,190.46892929077148 227.15222244262696,192.20592929077148 226.60222244262695,193.1669292907715 C225.20122244262694,195.61492929077147 222.38422244262694,199.7969292907715 221.30722244262694,201.0289292907715 C214.95522244262696,208.2899292907715 212.63022244262697,210.7209292907715 209.40222244262696,213.4779292907715 C207.31222244262696,215.26292929077147 205.30522244262696,217.0519292907715 204.94222244262696,217.45292929077146 C204.57922244262696,217.8549292907715 203.85922244262696,218.36592929077148 203.34222244262696,218.58992929077147 C202.82522244262697,218.8139292907715 201.59222244262696,219.6199292907715 200.60222244262695,220.37992929077149 C199.61222244262694,221.1409292907715 198.08222244262694,222.13592929077146 197.20222244262695,222.5909292907715 C196.32222244262695,223.04592929077148 194.88222244262695,223.8599292907715 194.00222244262696,224.3989292907715 C193.12222244262696,224.9369292907715 191.95222244262695,225.5759292907715 191.40222244262696,225.8189292907715 C190.85222244262695,226.06092929077147 189.50222244262696,226.68292929077148 188.40222244262696,227.2019292907715 C187.30222244262694,227.71992929077146 185.78422244262694,228.3379292907715 185.02822244262694,228.5739292907715 C184.27222244262694,228.81092929077147 183.37222244262696,229.24792929077148 183.02822244262694,229.54592929077148 C182.68422244262695,229.84492929077146 181.62322244262694,230.1869292907715 180.67122244262694,230.30792929077148 C179.71922244262694,230.4279292907715 178.60322244262696,230.8309292907715 178.19122244262695,231.2039292907715 C177.74222244262694,231.61092929077148 176.35122244262695,232.0039292907715 174.72222244262696,232.18592929077147 C173.22622244262695,232.3529292907715 171.28222244262696,232.85392929077148 170.40222244262696,233.2999292907715 C169.05722244262697,233.9799292907715 167.74122244262696,234.14492929077147 162.15622244262696,234.33492929077147 C157.76322244262695,234.48392929077147 154.91522244262694,234.76792929077146 153.75622244262695,235.17192929077146 C152.20822244262695,235.70992929077147 143.31622244262695,235.78392929077148 78.20222244262695,235.7979292907715 C35.791222442626946,235.8069292907715 3.7402224426269512,235.96692929077147 2.846222442626953,236.17392929077147 C-0.18377755737304824,236.8769292907715 0.002222442626951704,235.41192929077147 0.002222442626951704,258.59692929077147 L0.002222442626951704,279.3719292907715 L0.9132224426269531,280.2829292907715 L1.8242224426269544,281.1939292907715 L87.51322244262695,281.1939292907715 L173.20222244262695,281.1939292907715 L175.00222244262696,280.3129292907715 C176.17922244262695,279.73692929077146 178.16722244262695,279.2949292907715 180.74722244262696,279.0339292907715 C183.28622244262695,278.7779292907715 184.93822244262697,278.4139292907715 185.38222244262695,278.0119292907715 C185.76122244262694,277.6689292907715 187.37522244262695,277.22492929077146 188.96822244262697,277.02492929077147 C190.61522244262696,276.8179292907715 192.17322244262695,276.3819292907715 192.57822244262695,276.0159292907715 C192.97022244262695,275.6609292907715 194.33122244262697,275.2009292907715 195.60222244262695,274.99392929077146 C196.87322244262694,274.78692929077147 198.24122244262696,274.32092929077146 198.64322244262695,273.9569292907715 C199.04522244262697,273.5939292907715 200.20222244262695,273.1409292907715 201.21622244262696,272.9519292907715 C202.22922244262696,272.76292929077147 203.52022244262696,272.2449292907715 204.08422244262695,271.8009292907715 C205.29622244262694,270.8479292907715 207.79622244262694,270.6369292907715 207.03722244262696,271.5519292907715 C206.78222244262696,271.85892929077147 205.91122244262695,272.2349292907715 205.10222244262695,272.38592929077146 C204.29322244262696,272.5379292907715 203.22322244262696,273.0519292907715 202.72622244262695,273.5279292907715 C202.22822244262696,274.0039292907715 201.45722244262694,274.7089292907715 201.01222244262695,275.0939292907715 C199.85122244262695,276.09692929077147 199.87122244262696,279.3699292907715 201.04422244262696,280.4319292907715 C201.85922244262696,281.1689292907715 203.21022244262696,281.19792929077147 242.84422244262697,281.3029292907715 L283.80222244262694,281.41192929077147 L283.82622244262694,288.5029292907715 C283.863222442627,299.4569292907715 284.35922244262696,300.99392929077146 287.86222244262694,300.99392929077146 C289.40222244262696,300.99392929077146 289.822222442627,300.6049292907715 309.31122244262696,281.11892929077146 L329.18922244262694,261.24392929077146 L329.19522244262697,258.71992929077146 L329.202222442627,256.19592929077146 L309.19322244262696,236.19492929077148 C290.15922244262697,217.16892929077147 289.113222442627,216.1939292907715 287.73722244262694,216.1939292907715 C284.37822244262696,216.1939292907715 283.86222244262694,217.83692929077148 283.82622244262694,228.6629292907715 L283.80222244262694,235.73092929077148 L269.702222442627,235.8629292907715 C257.106222442627,235.9799292907715 255.46322244262694,236.06992929077148 254.30222244262694,236.7039292907715 C252.56522244262698,237.6529292907715 252.65722244262696,237.3309292907715 254.90222244262696,234.59992929077146 C255.94722244262698,233.32792929077146 257.702222442627,231.0859292907715 258.80222244262694,229.6169292907715 C259.90222244262696,228.14792929077146 261.20722244262697,226.48092929077148 261.702222442627,225.91192929077147 C262.197222442627,225.3429292907715 262.60422244262696,224.6779292907715 262.606222442627,224.43592929077147 C262.6082224426269,224.19292929077147 263.238222442627,223.18392929077146 264.0072224426269,222.1939292907715 C264.77522244262695,221.2039292907715 265.673222442627,220.04192929077146 266.00322244262696,219.6129292907715 C266.33222244262697,219.18292929077148 266.60222244262695,218.61192929077146 266.60222244262695,218.3429292907715 C266.60222244262695,218.07492929077148 267.02622244262693,217.34692929077147 267.54422244262696,216.72492929077146 C268.06222244262693,216.1029292907715 268.69922244262693,214.94092929077146 268.959222442627,214.1419292907715 C269.219222442627,213.34392929077148 269.78522244262695,212.37092929077147 270.21722244262696,211.9799292907715 C270.649222442627,211.58992929077147 271.00222244262693,210.9629292907715 271.00222244262693,210.5879292907715 C271.00222244262693,210.2129292907715 271.43322244262697,209.26992929077147 271.96122244262693,208.49292929077149 C272.488222442627,207.7159292907715 273.04022244262694,206.53292929077148 273.18622244262696,205.86492929077147 C273.33322244262695,205.1959292907715 273.71122244262693,204.4359292907715 274.02522244262695,204.17492929077147 C274.339222442627,203.91392929077148 274.791222442627,202.95692929077148 275.02822244262694,202.0469292907715 C275.26522244262696,201.1379292907715 275.709222442627,200.19992929077148 276.01422244262693,199.96192929077148 C276.31922244262694,199.72492929077148 276.76022244262697,198.6739292907715 276.99422244262695,197.62792929077148 C277.22922244262696,196.58192929077148 277.755222442627,195.0659292907715 278.16322244262693,194.25992929077148 C278.57122244262695,193.4539292907715 279.03022244262695,192.16392929077148 279.18322244262697,191.3939292907715 C279.33722244262697,190.62392929077149 279.82022244262697,189.2079292907715 280.2572224426269,188.24592929077147 C280.69422244262694,187.2849292907715 281.15822244262694,185.57492929077148 281.28922244262696,184.4459292907715 C281.42122244262697,183.31792929077147 281.75222244262693,182.03392929077148 282.02522244262695,181.59392929077148 C282.69522244262697,180.51592929077148 283.40222244262696,176.9769292907715 283.40222244262696,174.70092929077148 C283.40222244262696,173.58592929077147 283.76122244262694,172.1189292907715 284.30222244262694,171.01992929077147 C286.02022244262696,167.53392929077148 285.81322244262697,128.71692929077147 284.06222244262693,126.02192929077148 C283.76622244262694,125.5669292907715 283.42622244262697,123.74192929077148 283.30622244262696,121.96792929077148 C283.18122244262696,120.11792929077149 282.74222244262694,117.8999292907715 282.27722244262696,116.76792929077149 C281.83122244262694,115.68192929077148 281.351222442627,113.80392929077149 281.21022244262696,112.59392929077148 C281.06922244262694,111.38392929077148 280.67222244262695,109.96092929077147 280.32822244262695,109.43192929077148 C279.98422244262696,108.90292929077148 279.44822244262696,107.37892929077148 279.137222442627,106.04592929077148 C278.82622244262694,104.71392929077149 278.33822244262694,103.34692929077147 278.05222244262694,103.00892929077148 C277.76622244262694,102.67092929077148 277.31322244262697,101.37292929077148 277.04522244262694,100.12492929077149 C276.77722244262696,98.87692929077147 276.32122244262695,97.65792929077148 276.03022244262695,97.41692929077149 C275.73922244262695,97.17592929077148 275.27722244262696,96.17592929077148 275.00222244262693,95.19392929077148 C274.72722244262695,94.21192929077148 274.255222442627,93.2039292907715 273.952222442627,92.9529292907715 C273.65022244262695,92.70192929077149 273.40222244262696,92.31292929077148 273.40222244262696,92.0899292907715 C273.40222244262696,91.3819292907715 270.21822244262694,85.10492929077148 269.59722244262696,84.5899292907715 C269.27022244262696,84.31792929077147 268.99922244262694,83.80292929077149 268.9952224426269,83.44492929077148 C268.99122244262696,83.08692929077148 268.45122244262694,82.00192929077147 267.79522244262694,81.03392929077148 C267.13922244262693,80.06592929077149 266.60222244262695,79.05892929077149 266.60222244262695,78.79592929077148 C266.60222244262695,78.53292929077148 266.24222244262694,77.99192929077148 265.80222244262694,77.59392929077148 C265.36222244262694,77.19592929077149 265.00222244262693,76.69692929077148 265.00222244262693,76.48492929077149 C265.00222244262693,76.27292929077149 264.46222244262697,75.48492929077149 263.80222244262694,74.73292929077148 C263.142222442627,73.98092929077148 262.60222244262695,73.17592929077148 262.60222244262695,72.94292929077149 C262.60222244262695,72.49192929077148 262.06322244262697,71.74592929077149 258.60222244262695,67.40992929077149 C257.392222442627,65.89392929077148 255.95222244262698,64.06792929077149 255.40222244262696,63.352929290771485 C253.32822244262695,60.65492929077149 252.25022244262698,59.483929290771485 246.60222244262695,53.80092929077148 C243.41222244262696,50.58992929077148 239.72222244262696,47.17492929077149 238.40222244262696,46.21092929077149 C237.08222244262697,45.24692929077149 235.01222244262698,43.62592929077148 233.80222244262694,42.608929290771485 C231.59222244262696,40.74992929077149 230.38322244262696,39.87492929077149 227.98322244262692,38.39392929077148 C226.05222244262694,37.20192929077149 224.49922244262694,36.12892929077148 223.60222244262695,35.36592929077149 C223.16222244262696,34.99192929077148 222.35222244262695,34.55092929077148 221.80222244262694,34.38492929077148 C221.25222244262693,34.21992929077149 220.29322244262693,33.65892929077148 219.67122244262697,33.138929290771486 C219.04922244262696,32.61892929077149 218.22222244262696,32.19392929077148 217.83322244262695,32.19392929077148 C217.44422244262694,32.19392929077148 216.80922244262695,31.843929290771484 216.42322244262698,31.416929290771478 C216.03622244262698,30.98892929077148 215.21622244262693,30.528929290771487 214.60222244262695,30.39392929077148 C213.98822244262698,30.25892929077149 213.16622244262697,29.795929290771483 212.77622244262693,29.364929290771485 C212.38622244262694,28.933929290771488 211.38622244262694,28.47292929077149 210.55322244262695,28.33992929077148 C209.72022244262695,28.206929290771484 208.73622244262694,27.76292929077148 208.36522244262696,27.35392929077149 C207.99522244262695,26.94392929077148 207.04222244262695,26.489929290771485 206.24722244262696,26.343929290771484 C205.45222244262695,26.197929290771484 204.37922244262694,25.748929290771486 203.86122244262694,25.346929290771484 C203.34422244262694,24.94392929077148 202.26622244262694,24.49192929077148 201.46522244262695,24.34192929077149 C200.66422244262696,24.191929290771483 199.21522244262695,23.64692929077148 198.24622244262696,23.13092929077149 C197.27622244262696,22.61592929077149 195.81422244262694,22.19392929077148 194.99622244262696,22.19392929077148 C194.08422244262695,22.19392929077148 193.09022244262695,21.86392929077148 192.42322244262695,21.33892929077149 C191.72922244262696,20.792929290771482 190.44322244262696,20.38092929077149 188.86922244262695,20.19892929077149 C187.51222244262695,20.041929290771478 185.59222244262696,19.530929290771482 184.60222244262695,19.06292929077148 C183.34922244262697,18.47092929077148 182.00922244262696,18.20892929077148 180.19622244262695,18.20292929077148 C178.29122244262695,18.19592929077149 177.16122244262695,17.96092929077149 175.99622244262696,17.325929290771484 C174.71322244262694,16.62792929077149 173.53022244262695,16.422929290771478 169.92722244262694,16.27692929077149 L165.45222244262695,16.09492929077149 L165.32722244262695,9.108929290771485 L165.20222244262695,2.122929290771488 L164.08022244262696,1.1579292907714844 C161.30522244262696,-1.226070709228516 162.26622244262694,-1.9880707092285164 140.14322244262695,20.13692929077149 M129.60222244262695,17.39392929077148 C128.65422244262695,18.02192929077148 127.72222244262696,18.188929290771483 125.16222244262696,18.19092929077148 C122.53822244262696,18.192929290771488 121.58622244262696,18.37192929077149 120.16222244262696,19.12892929077148 C119.19422244262697,19.64292929077149 117.34822244262696,20.170929290771483 116.06122244262696,20.303929290771478 C114.77322244262695,20.435929290771483 113.40322244262694,20.83092929077148 113.01622244262694,21.180929290771488 C112.49822244262694,21.64992929077148 109.02422244262695,22.542929290771482 107.53122244262696,22.59192929077149 C107.49122244262696,22.59292929077148 107.16422244262696,22.88992929077149 106.80222244262694,23.25092929077148 C106.44122244262695,23.611929290771485 105.30322244262695,24.063929290771483 104.27422244262695,24.25392929077148 C103.24422244262695,24.444929290771483 101.95222244262695,24.930929290771488 101.40222244262696,25.334929290771484 C100.85222244262695,25.73792929077149 99.74522244262695,26.191929290771483 98.94222244262696,26.34192929077149 C98.13922244262696,26.49192929077148 97.27022244262696,26.870929290771485 97.01022244262694,27.183929290771488 C96.75022244262695,27.49692929077149 95.87722244262696,27.96792929077148 95.07022244262694,28.23192929077149 C94.26322244262695,28.49492929077148 93.18922244262694,29.031929290771487 92.68322244262694,29.424929290771487 C92.17822244262695,29.816929290771483 91.25222244262696,30.25092929077148 90.62522244262695,30.388929290771486 C89.99822244262694,30.52692929077149 89.16822244262696,30.98892929077148 88.78122244262696,31.416929290771478 C88.39522244262696,31.843929290771484 87.76022244262694,32.19392929077148 87.37122244262696,32.19392929077148 C86.98222244262695,32.19392929077148 86.15522244262695,32.61692929077148 85.53322244262696,33.132929290771486 C84.91122244262695,33.64992929077148 83.93022244262696,34.32492929077148 83.35222244262695,34.632929290771486 C80.65022244262695,36.07692929077149 79.51722244262696,36.77792929077148 78.47122244262695,37.64992929077148 C77.84922244262695,38.16892929077149 77.15422244262696,38.593929290771484 76.92622244262695,38.593929290771484 C76.69722244262695,38.593929290771484 75.47222244262696,39.49392929077149 74.20222244262695,40.593929290771484 C72.93222244262695,41.69392929077148 71.72122244262695,42.593929290771484 71.51022244262695,42.593929290771484 C71.29922244262696,42.593929290771484 70.78322244262695,42.974929290771485 70.36422244262695,43.44092929077148 C69.94522244262696,43.90692929077149 69.30322244262695,44.40192929077149 68.93722244262695,44.54092929077149 C66.29622244262696,45.54592929077148 51.47622244262695,60.69192929077148 48.141222442626955,65.79392929077149 C47.781222442626955,66.34392929077148 46.89622244262695,67.38992929077149 46.17322244262695,68.11892929077149 C44.650222442626955,69.65292929077148 42.20222244262695,73.32892929077148 42.20222244262695,74.08092929077148 C42.20222244262695,74.36292929077149 42.03222244262696,74.59392929077148 41.82322244262696,74.59392929077148 C41.38622244262696,74.59392929077148 38.60222244262695,78.66492929077148 38.60222244262695,79.3049292907715 C38.60222244262695,79.53992929077148 38.177222442626956,80.24092929077148 37.65722244262696,80.86292929077149 C37.13722244262695,81.48492929077148 36.57622244262696,82.44392929077148 36.41122244262695,82.99392929077149 C36.245222442626954,83.54392929077147 35.796222442626956,84.35392929077148 35.41122244262695,84.79392929077147 C35.02722244262695,85.23392929077147 34.51422244262696,86.18692929077147 34.272222442626955,86.91292929077147 C34.02922244262696,87.6379292907715 33.46422244262695,88.6969292907715 33.016222442626955,89.26692929077149 C32.56822244262695,89.83592929077147 32.20222244262695,90.72892929077148 32.20222244262695,91.25192929077147 C32.20222244262695,91.77392929077149 31.843222442626953,92.50892929077148 31.40422244262696,92.88492929077148 C30.965222442626953,93.26092929077149 30.486222442626953,94.2039292907715 30.341222442626957,94.98092929077148 C30.196222442626947,95.75792929077147 29.74622244262696,96.84392929077148 29.343222442626953,97.3939292907715 C28.939222442626956,97.94392929077148 28.449222442626947,99.25492929077149 28.254222442626954,100.30792929077148 C28.059222442626947,101.36092929077148 27.595222442626948,102.55992929077149 27.221222442626953,102.97292929077148 C26.84822244262695,103.38492929077148 26.40722244262696,104.72592929077149 26.24022244262696,105.95192929077149 C26.074222442626947,107.17792929077149 25.611222442626953,108.54192929077149 25.211222442626948,108.98392929077147 C24.73722244262696,109.50792929077147 24.39622244262695,110.72492929077148 24.22922244262695,112.48992929077147 C24.081222442626952,114.0609292907715 23.66722244262695,115.65492929077149 23.24122244262695,116.29492929077148 C22.73722244262696,117.05192929077148 22.421222442626956,118.54992929077147 22.22922244262695,121.09692929077147 C22.034222442626955,123.67792929077149 21.721222442626953,125.14592929077148 21.195222442626957,125.9479292907715 C19.37822244262695,128.7209292907715 19.48222244262695,168.8869292907715 21.314222442626956,171.8509292907715 C22.02422244262695,173.0009292907715 22.202222442626947,173.8869292907715 22.202222442626947,176.28192929077147 C22.202222442626947,178.70592929077148 22.39222244262696,179.6319292907715 23.202222442626947,181.1559292907715 C23.822222442626952,182.3209292907715 24.202222442626947,183.6899292907715 24.202222442626947,184.7559292907715 C24.202222442626947,185.8209292907715 24.582222442626957,187.1899292907715 25.202222442626947,188.35592929077148 C25.75222244262696,189.38992929077148 26.203222442626952,190.81192929077147 26.203222442626952,191.51492929077148 C26.204222442626957,192.21892929077148 26.593222442626953,193.4239292907715 27.067222442626957,194.19392929077148 C27.541222442626946,194.9639292907715 28.082222442626957,196.3929292907715 28.26822244262695,197.37092929077147 C28.454222442626957,198.34792929077148 28.94122244262695,199.5179292907715 29.35122244262695,199.9709292907715 C29.760222442626954,200.4229292907715 30.207222442626957,201.3939292907715 30.345222442626948,202.1259292907715 C30.48222244262695,202.85892929077147 30.957222442626957,203.91892929077147 31.39822244262696,204.47992929077148 C31.840222442626953,205.0419292907715 32.20222244262695,205.7449292907715 32.20222244262695,206.0419292907715 C32.20222244262695,206.7379292907715 34.55122244262695,211.3509292907715 35.436222442626956,212.3939292907715 C35.81022244262695,212.8339292907715 36.239222442626954,213.7789292907715 36.39022244262695,214.49392929077146 C36.54222244262695,215.20792929077146 37.01122244262696,216.03492929077146 37.43222244262695,216.32992929077147 C37.85422244262695,216.62592929077147 38.40722244262696,217.4629292907715 38.66122244262695,218.19092929077146 C38.915222442626956,218.91892929077147 39.376222442626954,219.8019292907715 39.68722244262695,220.1539292907715 C41.07322244262696,221.7229292907715 42.60222244262695,223.94592929077146 42.60222244262695,224.3909292907715 C42.60222244262695,224.6579292907715 43.007222442626954,225.35592929077148 43.50222244262696,225.94092929077146 C43.99722244262695,226.5259292907715 44.85222244262695,227.5669292907715 45.40222244262695,228.2539292907715 C45.95222244262695,228.9399292907715 47.15522244262695,230.33292929077146 48.07522244262695,231.3479292907715 L49.748222442626954,233.1939292907715 L82.27522244262695,233.1939292907715 C118.52822244262694,233.1939292907715 116.97922244262696,233.3119292907715 117.97722244262695,230.47192929077147 C118.56722244262696,228.79392929077147 117.40922244262694,227.4179292907715 114.20222244262695,225.9899292907715 C113.43222244262697,225.64692929077148 112.08222244262694,224.92592929077148 111.20222244262695,224.38792929077147 C110.32222244262695,223.8509292907715 108.97822244262696,223.09192929077147 108.21422244262695,222.7019292907715 C107.45122244262694,222.31292929077148 106.53422244262694,221.72392929077148 106.17722244262694,221.3939292907715 C105.82022244262694,221.0639292907715 105.00422244262694,220.48392929077147 104.36522244262696,220.1049292907715 C102.19322244262696,218.8189292907715 101.62322244262694,218.3959292907715 98.02522244262695,215.3939292907715 C91.62822244262696,210.05592929077147 81.00222244262696,198.38492929077148 81.00222244262696,196.6959292907715 C81.00222244262696,196.50292929077148 80.65922244262696,195.9759292907715 80.23922244262695,195.52592929077147 C79.81922244262695,195.07492929077148 79.09122244262696,194.0059292907715 78.62222244262695,193.1499292907715 C74.83222244262696,186.24292929077149 73.76722244262696,184.1369292907715 73.18222244262695,182.3939292907715 C72.81322244262695,181.29392929077147 72.29122244262696,180.03392929077148 72.02222244262695,179.59392929077148 C71.75322244262695,179.1539292907715 71.31222244262695,177.8939292907715 71.04222244262695,176.79392929077147 C70.77122244262695,175.69392929077148 70.31822244262695,174.4339292907715 70.03422244262696,173.9939292907715 C69.75022244262695,173.5539292907715 69.39122244262695,172.18292929077148 69.23722244262696,170.9469292907715 C69.08422244262695,169.71092929077147 68.60822244262695,168.04592929077148 68.18022244262696,167.24792929077148 C67.69222244262696,166.3389292907715 67.40222244262695,165.0119292907715 67.40222244262695,163.69492929077148 C67.40122244262696,160.5119292907715 66.68322244262696,153.0599292907715 66.14922244262695,150.69492929077148 C65.79422244262695,149.12392929077149 65.78822244262696,148.21892929077148 66.12322244262695,147.0949292907715 C66.37022244262695,146.2689292907715 66.77622244262696,142.62392929077149 67.02622244262696,138.9939292907715 C67.33922244262695,134.44992929077148 67.70622244262695,131.8329292907715 68.20422244262696,130.59392929077148 C68.60222244262695,129.60392929077148 69.06122244262696,127.71392929077149 69.22322244262695,126.3939292907715 C69.38522244262695,125.07392929077147 69.75022244262695,123.63392929077148 70.03422244262696,123.19392929077148 C70.31822244262695,122.75392929077148 70.76722244262696,121.49392929077149 71.03222244262696,120.3939292907715 C71.29822244262695,119.29392929077147 71.74322244262696,118.12392929077149 72.02122244262695,117.79392929077147 C72.30022244262695,117.46392929077149 72.71922244262696,116.47392929077148 72.95422244262696,115.59392929077148 C73.36022244262695,114.0669292907715 77.04022244262696,106.5489292907715 77.89922244262695,105.4889292907715 C78.12422244262696,105.21192929077148 78.59922244262695,104.45792929077149 78.95522244262695,103.81492929077149 C79.31122244262696,103.17192929077149 80.25322244262695,101.68892929077148 81.04922244262696,100.51992929077147 C81.84522244262695,99.35092929077149 82.65522244262695,98.09292929077148 82.84922244262697,97.72392929077148 C84.97122244262695,93.6969292907715 103.20822244262695,76.59392929077148 105.38022244262694,76.59392929077148 C105.54422244262696,76.59392929077148 106.00022244262695,76.23892929077148 106.39322244262695,75.80392929077148 C106.78622244262695,75.36992929077148 107.48922244262695,74.89892929077149 107.95522244262696,74.75692929077148 C108.42122244262694,74.61492929077149 109.07922244262696,74.25692929077148 109.41722244262695,73.96092929077149 C110.46822244262697,73.04292929077148 118.45022244262697,69.12392929077149 119.83522244262696,68.84692929077148 C120.55822244262694,68.70292929077148 121.47522244262694,68.28992929077148 121.87322244262694,67.92992929077148 C122.27122244262696,67.56992929077148 123.52022244262696,67.12892929077148 124.65022244262695,66.95092929077148 C125.77922244262695,66.77192929077148 127.01922244262695,66.33992929077148 127.40522244262695,65.99092929077149 C127.79122244262695,65.64192929077149 128.80422244262695,65.16592929077149 129.65522244262695,64.93492929077148 C135.14222244262695,63.44292929077149 134.29922244262696,61.46392929077149 123.53722244262696,50.56992929077148 C119.50322244262696,46.486929290771485 116.20222244262695,42.92992929077148 116.20222244262695,42.66492929077148 C116.20222244262695,42.39992929077148 120.41222244262696,37.96492929077148 125.55722244262697,32.80892929077149 C135.43422244262695,22.911929290771482 136.49822244262694,21.416929290771478 135.62222244262696,18.655929290771482 C135.04222244262695,16.82992929077149 131.55722244262697,16.09892929077148 129.60222244262695,17.39392929077148 M251.57322244262696,239.48092929077148 C250.07722244262698,241.1149292907715 243.26522244262696,247.67892929077146 241.30222244262694,249.37792929077148 C239.03122244262693,251.34492929077146 239.50722244262693,250.3099292907715 241.90222244262696,248.07492929077148 C245.50222244262693,244.7159292907715 248.32722244262698,241.95792929077146 250.35422244262696,239.8219292907715 C252.43322244262697,237.63292929077147 253.55222244262694,237.31992929077148 251.57322244262696,239.48092929077148 M239.04322244262693,251.29392929077147 C238.83022244262696,251.67892929077146 237.83322244262695,252.62392929077146 236.82722244262698,253.3939292907715 C235.82122244262695,254.16392929077148 234.53922244262696,255.1989292907715 233.97922244262696,255.6939292907715 C232.97822244262693,256.5789292907715 232.20222244262698,256.8539292907715 232.20222244262698,256.3249292907715 C232.20222244262698,255.9299292907715 233.47322244262693,254.59392929077148 233.85022244262694,254.59392929077148 C234.02822244262694,254.59392929077148 234.58522244262696,254.22692929077147 235.08822244262694,253.7789292907715 C238.52522244262695,250.71492929077147 239.80922244262695,249.9079292907715 239.04322244262693,251.29392929077147 M231.80222244262694,256.7719292907715 C231.80222244262694,257.1749292907715 227.28422244262697,260.5939292907715 226.75122244262695,260.5939292907715 C225.76022244262697,260.5939292907715 226.84922244262697,259.11892929077146 228.06522244262698,258.8139292907715 C228.66122244262698,258.6639292907715 229.66922244262696,258.1039292907715 230.30622244262696,257.5679292907715 C231.44422244262694,256.6099292907715 231.80222244262694,256.4199292907715 231.80222244262694,256.7719292907715 M225.41022244262695,261.5839292907715 C225.13222244262693,261.9199292907715 224.66322244262693,262.1939292907715 224.36922244262695,262.1939292907715 C224.07522244262697,262.1939292907715 223.42222244262695,262.6319292907715 222.91822244262693,263.1679292907715 C222.41422244262696,263.7039292907715 221.46222244262697,264.2709292907715 220.80222244262694,264.4279292907715 L219.60222244262695,264.7139292907715 L220.36422244262695,263.8539292907715 C220.78322244262694,263.38092929077146 221.34122244262693,262.99392929077146 221.60422244262696,262.99392929077146 C221.86722244262694,262.99392929077146 222.87022244262693,262.46492929077147 223.83322244262695,261.8179292907715 C225.63322244262696,260.60892929077147 226.30222244262694,260.5099292907715 225.41022244262695,261.5839292907715 M218.97822244262693,265.5769292907715 C218.66122244262698,265.8869292907715 217.90522244262695,266.26292929077147 217.29722244262695,266.41192929077147 C215.66722244262695,266.8119292907715 216.29222244262695,265.5019292907715 217.94522244262697,265.0549292907715 C219.44322244262696,264.6489292907715 219.76222244262698,264.8099292907715 218.97822244262693,265.5769292907715 M215.46822244262694,267.4879292907715 C214.52922244262697,268.4269292907715 211.61022244262693,269.0699292907715 212.43722244262693,268.15492929077146 C213.09422244262697,267.4299292907715 215.39322244262695,266.5379292907715 215.77522244262695,266.8609292907715 C215.87122244262696,266.94092929077146 215.73222244262695,267.2239292907715 215.46822244262694,267.4879292907715 M211.30822244262697,269.4759292907715 C211.14622244262694,269.9619292907715 208.66322244262696,270.7889292907715 208.33922244262695,270.4639292907715 C208.24322244262694,270.3679292907715 208.45522244262696,269.9979292907715 208.81222244262696,269.6419292907715 C209.57022244262694,268.8839292907715 211.54922244262696,268.7519292907715 211.30822244262697,269.4759292907715 " stroke="none" fill="#3cdddd" fill-rule="evenodd"/>
    </g></g></svg>