<svg id="svg" version="1.1" width="400" height="400" viewBox="0 0 400 400" xmlns="http://www.w3.org/2000/svg" xmlns:xlink="http://www.w3.org/1999/xlink" ><g id="svgg"><path id="path0" d="M185.541 69.543 L 165.600 89.487 165.600 92.039 L 165.600 94.591 185.504 114.496 C 205.348 134.339,205.414 134.400,207.060 134.400 C 210.561 134.400,210.582 134.331,210.725 122.610 L 210.850 112.349 213.033 112.621 C 214.233 112.771,215.880 113.233,216.692 113.647 C 217.505 114.061,218.949 114.400,219.903 114.400 C 220.985 114.400,222.343 114.776,223.515 115.400 C 224.548 115.950,225.907 116.400,226.535 116.400 C 227.163 116.400,228.154 116.736,228.738 117.148 C 229.322 117.559,230.250 118.016,230.800 118.165 C 231.350 118.313,232.700 118.862,233.800 119.384 C 234.900 119.907,236.250 120.541,236.800 120.794 C 238.487 121.569,240.421 122.696,241.128 123.316 C 241.497 123.640,242.250 124.042,242.800 124.209 C 243.350 124.376,244.250 124.857,244.800 125.278 C 248.130 127.826,248.941 128.400,249.213 128.400 C 249.379 128.400,250.048 128.895,250.699 129.500 C 251.350 130.105,252.928 131.500,254.206 132.600 C 257.365 135.319,261.353 139.330,263.976 142.429 C 265.173 143.843,266.482 145.360,266.886 145.800 C 267.816 146.815,269.263 149.075,269.895 150.500 C 270.163 151.105,270.573 151.600,270.806 151.600 C 271.038 151.600,271.595 152.365,272.044 153.300 C 273.106 155.515,274.637 158.316,275.117 158.921 C 275.325 159.185,275.708 160.061,275.968 160.868 C 276.228 161.675,276.688 162.541,276.989 162.791 C 277.291 163.041,277.661 163.975,277.811 164.865 C 277.962 165.756,278.399 166.799,278.784 167.184 C 279.168 167.568,279.579 168.738,279.697 169.783 C 279.815 170.828,280.291 172.197,280.756 172.825 C 281.341 173.618,281.600 174.561,281.600 175.905 C 281.600 177.131,281.952 178.570,282.557 179.821 C 283.405 181.575,283.540 182.543,283.747 188.321 C 283.875 191.907,284.193 195.552,284.453 196.421 C 284.821 197.648,284.817 198.366,284.434 199.643 C 284.164 200.546,283.836 204.281,283.706 207.943 C 283.496 213.890,283.371 214.788,282.535 216.360 C 281.929 217.500,281.600 218.795,281.600 220.038 C 281.600 221.317,281.266 222.585,280.600 223.838 C 280.050 224.873,279.600 226.232,279.600 226.860 C 279.600 227.487,279.259 228.341,278.842 228.758 C 278.426 229.174,277.962 230.244,277.811 231.135 C 277.661 232.025,277.291 232.959,276.989 233.209 C 276.688 233.459,276.225 234.325,275.961 235.132 C 275.698 235.939,274.924 237.551,274.241 238.713 C 273.558 239.875,272.550 241.612,272.000 242.573 C 270.599 245.021,267.782 249.203,266.705 250.435 C 260.353 257.696,258.028 260.127,254.800 262.884 C 252.710 264.669,250.703 266.458,250.340 266.859 C 249.977 267.261,249.257 267.772,248.740 267.996 C 248.223 268.220,246.990 269.026,246.000 269.786 C 245.010 270.547,243.480 271.542,242.600 271.997 C 241.720 272.452,240.280 273.266,239.400 273.805 C 238.520 274.343,237.350 274.982,236.800 275.225 C 236.250 275.467,234.900 276.089,233.800 276.608 C 232.700 277.126,231.182 277.744,230.426 277.980 C 229.670 278.217,228.770 278.654,228.426 278.952 C 228.082 279.251,227.021 279.593,226.069 279.714 C 225.117 279.834,224.001 280.237,223.589 280.610 C 223.140 281.017,221.749 281.410,220.120 281.592 C 218.624 281.759,216.680 282.260,215.800 282.706 C 214.455 283.386,213.139 283.551,207.554 283.741 C 203.161 283.890,200.313 284.174,199.154 284.578 C 197.606 285.116,188.714 285.190,123.600 285.204 C 81.189 285.213,49.138 285.373,48.244 285.580 C 45.214 286.283,45.400 284.818,45.400 308.003 L 45.400 328.778 46.311 329.689 L 47.222 330.600 132.911 330.600 L 218.600 330.600 220.400 329.719 C 221.577 329.143,223.565 328.701,226.145 328.440 C 228.684 328.184,230.336 327.820,230.780 327.418 C 231.159 327.075,232.773 326.631,234.366 326.431 C 236.013 326.224,237.571 325.788,237.976 325.422 C 238.368 325.067,239.729 324.607,241.000 324.400 C 242.271 324.193,243.639 323.727,244.041 323.363 C 244.443 323.000,245.600 322.547,246.614 322.358 C 247.627 322.169,248.918 321.651,249.482 321.207 C 250.694 320.254,253.194 320.043,252.435 320.958 C 252.180 321.265,251.309 321.641,250.500 321.792 C 249.691 321.944,248.621 322.458,248.124 322.934 C 247.626 323.410,246.855 324.115,246.410 324.500 C 245.249 325.503,245.269 328.776,246.442 329.838 C 247.257 330.575,248.608 330.604,288.242 330.709 L 329.200 330.818 329.224 337.909 C 329.261 348.863,329.757 350.400,333.260 350.400 C 334.800 350.400,335.220 350.011,354.709 330.525 L 374.587 310.650 374.593 308.126 L 374.600 305.602 354.591 285.601 C 335.557 266.575,334.511 265.600,333.135 265.600 C 329.776 265.600,329.260 267.243,329.224 278.069 L 329.200 285.137 315.100 285.269 C 302.504 285.386,300.861 285.476,299.700 286.110 C 297.963 287.059,298.055 286.737,300.300 284.006 C 301.345 282.734,303.100 280.492,304.200 279.023 C 305.300 277.554,306.605 275.887,307.100 275.318 C 307.595 274.749,308.002 274.084,308.004 273.842 C 308.006 273.599,308.636 272.590,309.405 271.600 C 310.173 270.610,311.071 269.448,311.401 269.019 C 311.730 268.589,312.000 268.018,312.000 267.749 C 312.000 267.481,312.424 266.753,312.942 266.131 C 313.460 265.509,314.097 264.347,314.357 263.548 C 314.617 262.750,315.183 261.777,315.615 261.386 C 316.047 260.996,316.400 260.369,316.400 259.994 C 316.400 259.619,316.831 258.676,317.359 257.899 C 317.886 257.122,318.438 255.939,318.584 255.271 C 318.731 254.602,319.109 253.842,319.423 253.581 C 319.737 253.320,320.189 252.363,320.426 251.453 C 320.663 250.544,321.107 249.606,321.412 249.368 C 321.717 249.131,322.158 248.080,322.392 247.034 C 322.627 245.988,323.153 244.472,323.561 243.666 C 323.969 242.860,324.428 241.570,324.581 240.800 C 324.735 240.030,325.218 238.614,325.655 237.652 C 326.092 236.691,326.556 234.981,326.687 233.852 C 326.819 232.724,327.150 231.440,327.423 231.000 C 328.093 229.922,328.800 226.383,328.800 224.107 C 328.800 222.992,329.159 221.525,329.700 220.426 C 331.418 216.940,331.211 178.123,329.460 175.428 C 329.164 174.973,328.824 173.148,328.704 171.374 C 328.579 169.524,328.140 167.306,327.675 166.174 C 327.229 165.088,326.749 163.210,326.608 162.000 C 326.467 160.790,326.070 159.367,325.726 158.838 C 325.382 158.309,324.846 156.785,324.535 155.452 C 324.224 154.120,323.736 152.753,323.450 152.415 C 323.164 152.077,322.711 150.779,322.443 149.531 C 322.175 148.283,321.719 147.064,321.428 146.823 C 321.137 146.582,320.675 145.582,320.400 144.600 C 320.125 143.618,319.653 142.610,319.350 142.359 C 319.048 142.108,318.800 141.719,318.800 141.496 C 318.800 140.788,315.616 134.511,314.995 133.996 C 314.668 133.724,314.397 133.209,314.393 132.851 C 314.389 132.493,313.849 131.408,313.193 130.440 C 312.537 129.472,312.000 128.465,312.000 128.202 C 312.000 127.939,311.640 127.398,311.200 127.000 C 310.760 126.602,310.400 126.103,310.400 125.891 C 310.400 125.679,309.860 124.891,309.200 124.139 C 308.540 123.387,308.000 122.582,308.000 122.349 C 308.000 121.898,307.461 121.152,304.000 116.816 C 302.790 115.300,301.350 113.474,300.800 112.759 C 298.726 110.061,297.648 108.890,292.000 103.207 C 288.810 99.996,285.120 96.581,283.800 95.617 C 282.480 94.653,280.410 93.032,279.200 92.015 C 276.990 90.156,275.781 89.281,273.381 87.800 C 271.450 86.608,269.897 85.535,269.000 84.772 C 268.560 84.398,267.750 83.957,267.200 83.791 C 266.650 83.626,265.691 83.065,265.069 82.545 C 264.447 82.025,263.620 81.600,263.231 81.600 C 262.842 81.600,262.207 81.250,261.821 80.823 C 261.434 80.395,260.614 79.935,260.000 79.800 C 259.386 79.665,258.564 79.202,258.174 78.771 C 257.784 78.340,256.784 77.879,255.951 77.746 C 255.118 77.613,254.134 77.169,253.763 76.760 C 253.393 76.350,252.440 75.896,251.645 75.750 C 250.850 75.604,249.777 75.155,249.259 74.753 C 248.742 74.350,247.664 73.898,246.863 73.748 C 246.062 73.598,244.613 73.053,243.644 72.537 C 242.674 72.022,241.212 71.600,240.394 71.600 C 239.482 71.600,238.488 71.270,237.821 70.745 C 237.127 70.199,235.841 69.787,234.267 69.605 C 232.910 69.448,230.990 68.937,230.000 68.469 C 228.747 67.877,227.407 67.615,225.594 67.609 C 223.689 67.602,222.559 67.367,221.394 66.732 C 220.111 66.034,218.928 65.829,215.325 65.683 L 210.850 65.501 210.725 58.515 L 210.600 51.529 209.478 50.564 C 206.703 48.180,207.664 47.418,185.541 69.543 M175.000 66.800 C 174.052 67.428,173.120 67.595,170.560 67.597 C 167.936 67.599,166.984 67.778,165.560 68.535 C 164.592 69.049,162.746 69.577,161.459 69.710 C 160.171 69.842,158.801 70.237,158.414 70.587 C 157.896 71.056,154.422 71.949,152.929 71.998 C 152.889 71.999,152.562 72.296,152.200 72.657 C 151.839 73.018,150.701 73.470,149.672 73.660 C 148.642 73.851,147.350 74.337,146.800 74.741 C 146.250 75.144,145.143 75.598,144.340 75.748 C 143.537 75.898,142.668 76.277,142.408 76.590 C 142.148 76.903,141.275 77.374,140.468 77.638 C 139.661 77.901,138.587 78.438,138.081 78.831 C 137.576 79.223,136.650 79.657,136.023 79.795 C 135.396 79.933,134.566 80.395,134.179 80.823 C 133.793 81.250,133.158 81.600,132.769 81.600 C 132.380 81.600,131.553 82.023,130.931 82.539 C 130.309 83.056,129.328 83.731,128.750 84.039 C 126.048 85.483,124.915 86.184,123.869 87.056 C 123.247 87.575,122.552 88.000,122.324 88.000 C 122.095 88.000,120.870 88.900,119.600 90.000 C 118.330 91.100,117.119 92.000,116.908 92.000 C 116.697 92.000,116.181 92.381,115.762 92.847 C 115.343 93.313,114.701 93.808,114.335 93.947 C 111.694 94.952,96.874 110.098,93.539 115.200 C 93.179 115.750,92.294 116.796,91.571 117.525 C 90.048 119.059,87.600 122.735,87.600 123.487 C 87.600 123.769,87.430 124.000,87.221 124.000 C 86.784 124.000,84.000 128.071,84.000 128.711 C 84.000 128.946,83.575 129.647,83.055 130.269 C 82.535 130.891,81.974 131.850,81.809 132.400 C 81.643 132.950,81.194 133.760,80.809 134.200 C 80.425 134.640,79.912 135.593,79.670 136.319 C 79.427 137.044,78.862 138.103,78.414 138.673 C 77.966 139.242,77.600 140.135,77.600 140.658 C 77.600 141.180,77.241 141.915,76.802 142.291 C 76.363 142.667,75.884 143.610,75.739 144.387 C 75.594 145.164,75.144 146.250,74.741 146.800 C 74.337 147.350,73.847 148.661,73.652 149.714 C 73.457 150.767,72.993 151.966,72.619 152.379 C 72.246 152.791,71.805 154.132,71.638 155.358 C 71.472 156.584,71.009 157.948,70.609 158.390 C 70.135 158.914,69.794 160.131,69.627 161.896 C 69.479 163.467,69.065 165.061,68.639 165.701 C 68.135 166.458,67.819 167.956,67.627 170.503 C 67.432 173.084,67.119 174.552,66.593 175.354 C 64.776 178.127,64.880 218.293,66.712 221.257 C 67.422 222.407,67.600 223.293,67.600 225.688 C 67.600 228.112,67.790 229.038,68.600 230.562 C 69.220 231.727,69.600 233.096,69.600 234.162 C 69.600 235.227,69.980 236.596,70.600 237.762 C 71.150 238.796,71.601 240.218,71.601 240.921 C 71.602 241.625,71.991 242.830,72.465 243.600 C 72.939 244.370,73.480 245.799,73.666 246.777 C 73.852 247.754,74.339 248.924,74.749 249.377 C 75.158 249.829,75.605 250.800,75.743 251.532 C 75.880 252.265,76.355 253.325,76.796 253.886 C 77.238 254.448,77.600 255.151,77.600 255.448 C 77.600 256.144,79.949 260.757,80.834 261.800 C 81.208 262.240,81.637 263.185,81.788 263.900 C 81.940 264.614,82.409 265.441,82.830 265.736 C 83.252 266.032,83.805 266.869,84.059 267.597 C 84.313 268.325,84.774 269.208,85.085 269.560 C 86.471 271.129,88.000 273.352,88.000 273.797 C 88.000 274.064,88.405 274.762,88.900 275.347 C 89.395 275.932,90.250 276.973,90.800 277.660 C 91.350 278.346,92.553 279.739,93.473 280.754 L 95.146 282.600 127.673 282.600 C 163.926 282.600,162.377 282.718,163.375 279.878 C 163.965 278.200,162.807 276.824,159.600 275.396 C 158.830 275.053,157.480 274.332,156.600 273.794 C 155.720 273.257,154.376 272.498,153.612 272.108 C 152.849 271.719,151.932 271.130,151.575 270.800 C 151.218 270.470,150.402 269.890,149.763 269.511 C 147.591 268.225,147.021 267.802,143.423 264.800 C 137.026 259.462,126.400 247.791,126.400 246.102 C 126.400 245.909,126.057 245.382,125.637 244.932 C 125.217 244.481,124.489 243.412,124.020 242.556 C 120.230 235.649,119.165 233.543,118.580 231.800 C 118.211 230.700,117.689 229.440,117.420 229.000 C 117.151 228.560,116.710 227.300,116.440 226.200 C 116.169 225.100,115.716 223.840,115.432 223.400 C 115.148 222.960,114.789 221.589,114.635 220.353 C 114.482 219.117,114.006 217.452,113.578 216.654 C 113.090 215.745,112.800 214.418,112.800 213.101 C 112.799 209.918,112.081 202.466,111.547 200.101 C 111.192 198.530,111.186 197.625,111.521 196.501 C 111.768 195.675,112.174 192.030,112.424 188.400 C 112.737 183.856,113.104 181.239,113.602 180.000 C 114.000 179.010,114.459 177.120,114.621 175.800 C 114.783 174.480,115.148 173.040,115.432 172.600 C 115.716 172.160,116.165 170.900,116.430 169.800 C 116.696 168.700,117.141 167.530,117.419 167.200 C 117.698 166.870,118.117 165.880,118.352 165.000 C 118.758 163.473,122.438 155.955,123.297 154.895 C 123.522 154.618,123.997 153.864,124.353 153.221 C 124.709 152.578,125.651 151.095,126.447 149.926 C 127.243 148.757,128.053 147.499,128.247 147.130 C 130.369 143.103,148.606 126.000,150.778 126.000 C 150.942 126.000,151.398 125.645,151.791 125.210 C 152.184 124.776,152.887 124.305,153.353 124.163 C 153.819 124.021,154.477 123.663,154.815 123.367 C 155.866 122.449,163.848 118.530,165.233 118.253 C 165.956 118.109,166.873 117.696,167.271 117.336 C 167.669 116.976,168.918 116.535,170.048 116.357 C 171.177 116.178,172.417 115.746,172.803 115.397 C 173.189 115.048,174.202 114.572,175.053 114.341 C 180.540 112.849,179.697 110.870,168.935 99.976 C 164.901 95.893,161.600 92.336,161.600 92.071 C 161.600 91.806,165.810 87.371,170.955 82.215 C 180.832 72.318,181.896 70.823,181.020 68.062 C 180.440 66.236,176.955 65.505,175.000 66.800 M296.971 288.887 C 295.475 290.521,288.663 297.085,286.700 298.784 C 284.429 300.751,284.905 299.716,287.300 297.481 C 290.900 294.122,293.725 291.364,295.752 289.228 C 297.831 287.039,298.950 286.726,296.971 288.887 M284.441 300.700 C 284.228 301.085,283.231 302.030,282.225 302.800 C 281.219 303.570,279.937 304.605,279.377 305.100 C 278.376 305.985,277.600 306.260,277.600 305.731 C 277.600 305.336,278.871 304.000,279.248 304.000 C 279.426 304.000,279.983 303.633,280.486 303.185 C 283.923 300.121,285.207 299.314,284.441 300.700 M277.200 306.178 C 277.200 306.581,272.682 310.000,272.149 310.000 C 271.158 310.000,272.247 308.525,273.463 308.220 C 274.059 308.070,275.067 307.510,275.704 306.974 C 276.842 306.016,277.200 305.826,277.200 306.178 M270.808 310.990 C 270.530 311.326,270.061 311.600,269.767 311.600 C 269.473 311.600,268.820 312.038,268.316 312.574 C 267.812 313.110,266.860 313.677,266.200 313.834 L 265.000 314.120 265.762 313.260 C 266.181 312.787,266.739 312.400,267.002 312.400 C 267.265 312.400,268.268 311.871,269.231 311.224 C 271.031 310.015,271.700 309.916,270.808 310.990 M264.376 314.983 C 264.059 315.293,263.303 315.669,262.695 315.818 C 261.065 316.218,261.690 314.908,263.343 314.461 C 264.841 314.055,265.160 314.216,264.376 314.983 M260.866 316.894 C 259.927 317.833,257.008 318.476,257.835 317.561 C 258.492 316.836,260.791 315.944,261.173 316.267 C 261.269 316.347,261.130 316.630,260.866 316.894 M256.706 318.882 C 256.544 319.368,254.061 320.195,253.737 319.870 C 253.641 319.774,253.853 319.404,254.210 319.048 C 254.968 318.290,256.947 318.158,256.706 318.882 " stroke="none" fill="#ffffff" fill-rule="evenodd"></path></g></svg>