<svg id="svg" version="1.1" width="400" height="400" viewBox="0 0 400 400" xmlns="http://www.w3.org/2000/svg"
>
    <g id="svgg">
        <path id="path0"
              d="M309.600 210.423 C 307.950 210.583,305.790 210.924,304.800 211.182 C 303.810 211.439,302.503 211.749,301.895 211.871 C 301.287 211.993,300.692 212.251,300.571 212.446 C 300.451 212.641,299.744 212.800,299.000 212.800 C 298.256 212.800,297.536 212.980,297.400 213.200 C 297.264 213.420,296.713 213.600,296.176 213.600 C 295.639 213.600,295.200 213.780,295.200 214.000 C 295.200 214.220,294.840 214.400,294.400 214.400 C 293.960 214.400,293.600 214.580,293.600 214.800 C 293.600 215.020,293.060 215.200,292.400 215.200 C 291.740 215.200,291.200 215.380,291.200 215.600 C 291.200 215.820,290.840 216.000,290.400 216.000 C 289.960 216.000,289.600 216.180,289.600 216.400 C 289.600 216.620,289.240 216.800,288.800 216.800 C 288.360 216.800,288.000 216.980,288.000 217.200 C 288.000 217.420,287.758 217.600,287.462 217.600 C 286.351 217.600,285.600 219.025,285.600 221.131 C 285.600 222.269,285.759 223.200,285.953 223.200 C 286.148 223.200,286.394 223.533,286.500 223.939 C 286.734 224.834,288.536 225.189,292.876 225.196 C 294.568 225.198,296.064 225.380,296.200 225.600 C 296.336 225.820,297.337 226.000,298.424 226.000 C 299.511 226.000,300.400 226.180,300.400 226.400 C 300.400 226.620,301.300 226.800,302.400 226.800 C 303.500 226.800,304.400 226.980,304.400 227.200 C 304.400 227.420,304.940 227.600,305.600 227.600 C 306.260 227.600,306.800 227.780,306.800 228.000 C 306.800 228.220,307.143 228.400,307.562 228.400 C 308.229 228.400,311.453 229.853,312.000 230.400 C 312.110 230.510,312.560 230.797,313.000 231.038 C 315.351 232.323,315.948 232.777,317.887 234.754 C 319.049 235.938,320.000 237.153,320.000 237.454 C 320.000 237.754,320.180 238.000,320.400 238.000 C 320.620 238.000,320.800 238.360,320.800 238.800 C 320.800 239.240,320.980 239.600,321.200 239.600 C 321.420 239.600,321.600 240.395,321.600 241.367 C 321.600 242.417,321.803 243.207,322.100 243.314 C 322.500 243.459,322.500 243.665,322.100 244.342 C 321.825 244.808,321.600 245.822,321.600 246.595 C 321.600 247.368,321.420 248.000,321.200 248.000 C 320.980 248.000,320.800 248.234,320.800 248.520 C 320.800 249.256,319.859 251.193,319.500 251.197 C 319.335 251.199,319.200 251.560,319.200 252.000 C 319.200 252.440,319.020 252.800,318.800 252.800 C 318.580 252.800,318.400 253.078,318.400 253.418 C 318.400 253.758,317.950 254.486,317.400 255.036 C 316.850 255.586,316.400 256.200,316.400 256.400 C 316.400 256.600,315.950 257.214,315.400 257.764 C 314.850 258.314,314.400 258.915,314.400 259.101 C 314.400 259.286,313.174 260.690,311.676 262.219 C 310.178 263.749,308.624 265.561,308.222 266.246 C 307.820 266.931,306.957 267.807,306.304 268.193 C 305.652 268.578,303.609 270.403,301.764 272.247 C 299.920 274.091,298.229 275.600,298.006 275.600 C 297.783 275.600,297.600 275.780,297.600 276.000 C 297.600 276.220,297.412 276.400,297.183 276.400 C 296.954 276.400,296.369 276.778,295.883 277.241 C 295.397 277.703,294.370 278.556,293.600 279.136 C 292.830 279.716,291.909 280.508,291.553 280.896 C 291.197 281.283,290.684 281.600,290.414 281.600 C 290.143 281.600,289.417 282.140,288.800 282.800 C 288.183 283.460,287.431 284.000,287.128 284.000 C 286.825 284.000,286.317 284.360,286.000 284.800 C 285.683 285.240,285.220 285.600,284.971 285.600 C 284.722 285.600,283.954 286.140,283.263 286.800 C 282.572 287.460,281.854 288.000,281.666 288.000 C 281.038 288.000,280.000 289.453,280.000 290.331 C 280.000 290.809,279.820 291.200,279.600 291.200 C 279.380 291.200,279.200 291.470,279.200 291.800 C 279.200 292.130,279.380 292.400,279.600 292.400 C 279.820 292.400,280.000 292.678,280.000 293.018 C 280.000 294.455,281.855 295.600,284.182 295.600 C 285.402 295.600,286.400 295.420,286.400 295.200 C 286.400 294.980,287.120 294.800,288.000 294.800 C 288.880 294.800,289.600 294.620,289.600 294.400 C 289.600 294.180,290.230 294.000,291.000 294.000 C 291.770 294.000,292.400 293.820,292.400 293.600 C 292.400 293.380,292.940 293.200,293.600 293.200 C 294.260 293.200,294.800 293.020,294.800 292.800 C 294.800 292.580,295.419 292.400,296.176 292.400 C 296.933 292.400,297.654 292.236,297.778 292.035 C 297.903 291.834,298.768 291.544,299.702 291.390 C 300.636 291.236,301.580 290.987,301.800 290.838 C 302.020 290.689,302.920 290.337,303.800 290.057 C 304.680 289.777,305.850 289.355,306.400 289.120 C 306.950 288.885,307.850 288.516,308.400 288.300 C 308.950 288.084,309.713 287.748,310.095 287.553 C 310.477 287.359,311.062 287.200,311.395 287.200 C 311.728 287.200,312.000 287.020,312.000 286.800 C 312.000 286.580,312.360 286.400,312.800 286.400 C 313.240 286.400,313.600 286.220,313.600 286.000 C 313.600 285.780,313.852 285.600,314.159 285.600 C 314.467 285.600,315.745 285.060,317.000 284.400 C 318.255 283.740,319.533 283.200,319.841 283.200 C 320.148 283.200,320.400 283.020,320.400 282.800 C 320.400 282.580,320.655 282.400,320.967 282.400 C 321.278 282.400,321.593 282.265,321.667 282.100 C 321.740 281.935,322.647 281.371,323.682 280.846 C 324.718 280.322,325.925 279.557,326.366 279.146 C 326.806 278.736,327.356 278.400,327.587 278.400 C 327.818 278.400,328.572 277.860,329.263 277.200 C 329.954 276.540,330.685 276.000,330.888 276.000 C 331.091 276.000,331.492 275.775,331.780 275.500 C 332.067 275.225,332.712 274.730,333.214 274.400 C 336.285 272.380,341.600 266.983,341.600 265.885 C 341.600 265.606,341.960 265.117,342.400 264.800 C 342.840 264.483,343.200 263.943,343.200 263.600 C 343.200 263.257,343.560 262.717,344.000 262.400 C 344.440 262.083,344.800 261.503,344.800 261.112 C 344.800 260.720,344.980 260.400,345.200 260.400 C 345.420 260.400,345.600 260.040,345.600 259.600 C 345.600 259.160,345.780 258.800,346.000 258.800 C 346.220 258.800,346.400 258.451,346.400 258.024 C 346.400 257.597,346.580 257.136,346.800 257.000 C 347.020 256.864,347.200 256.403,347.200 255.976 C 347.200 255.549,347.380 255.200,347.600 255.200 C 347.820 255.200,348.000 254.401,348.000 253.424 C 348.000 252.447,348.180 251.536,348.400 251.400 C 348.639 251.252,348.800 248.663,348.800 244.976 C 348.800 241.125,348.649 238.800,348.400 238.800 C 348.180 238.800,348.000 238.181,348.000 237.424 C 348.000 236.667,347.820 235.936,347.600 235.800 C 347.380 235.664,347.200 235.034,347.200 234.400 C 347.200 233.766,347.020 233.136,346.800 233.000 C 346.580 232.864,346.400 232.223,346.400 231.576 C 346.400 230.929,346.220 230.400,346.000 230.400 C 345.780 230.400,345.600 230.166,345.600 229.880 C 345.600 229.144,344.659 227.207,344.300 227.203 C 344.135 227.201,344.000 226.840,344.000 226.400 C 344.000 225.960,343.820 225.600,343.600 225.600 C 343.380 225.600,343.200 225.280,343.200 224.888 C 343.200 224.497,342.840 223.917,342.400 223.600 C 341.960 223.283,341.600 222.740,341.600 222.393 C 341.600 221.701,340.621 220.274,339.446 219.255 C 339.031 218.895,337.940 217.880,337.022 217.000 C 335.297 215.347,333.519 214.115,332.300 213.729 C 331.915 213.607,331.600 213.348,331.600 213.153 C 331.600 212.959,331.251 212.800,330.824 212.800 C 330.397 212.800,329.936 212.620,329.800 212.400 C 329.664 212.180,329.113 212.000,328.576 212.000 C 328.039 212.000,327.600 211.840,327.600 211.644 C 327.600 211.281,326.623 211.066,322.000 210.410 C 319.045 209.991,314.008 209.996,309.600 210.423 M138.600 215.600 C 138.453 215.838,135.929 216.000,132.376 216.000 C 128.659 216.000,126.400 216.151,126.400 216.400 C 126.400 216.635,125.008 216.800,123.024 216.800 C 121.167 216.800,119.536 216.980,119.400 217.200 C 119.264 217.420,118.004 217.600,116.600 217.600 C 115.196 217.600,113.936 217.780,113.800 218.000 C 113.664 218.220,112.753 218.400,111.776 218.400 C 110.799 218.400,110.000 218.580,110.000 218.800 C 110.000 219.020,109.111 219.200,108.024 219.200 C 106.937 219.200,105.936 219.380,105.800 219.600 C 105.664 219.820,104.854 220.000,104.000 220.000 C 103.146 220.000,102.336 220.180,102.200 220.400 C 102.064 220.620,101.423 220.800,100.776 220.800 C 100.129 220.800,99.600 220.980,99.600 221.200 C 99.600 221.420,99.060 221.600,98.400 221.600 C 97.740 221.600,97.200 221.780,97.200 222.000 C 97.200 222.220,96.876 222.400,96.480 222.400 C 95.586 222.400,93.607 223.294,93.603 223.700 C 93.601 223.865,93.240 224.000,92.800 224.000 C 92.360 224.000,92.000 224.180,92.000 224.400 C 92.000 224.620,91.640 224.800,91.200 224.800 C 90.760 224.800,90.400 224.980,90.400 225.200 C 90.400 225.420,90.124 225.600,89.786 225.600 C 89.448 225.600,88.773 225.962,88.286 226.404 C 84.748 229.615,84.000 230.412,84.000 230.969 C 84.000 231.316,83.820 231.600,83.600 231.600 C 83.380 231.600,83.200 232.129,83.200 232.776 C 83.200 233.423,83.020 234.064,82.800 234.200 C 82.580 234.336,82.400 235.607,82.400 237.024 C 82.400 238.475,82.575 239.600,82.800 239.600 C 83.020 239.600,83.200 240.106,83.200 240.725 C 83.200 241.343,83.560 242.236,84.000 242.708 C 84.440 243.180,84.800 243.758,84.800 243.992 C 84.800 244.652,89.107 248.800,89.791 248.800 C 90.126 248.800,90.400 248.950,90.400 249.132 C 90.400 249.315,90.895 249.720,91.500 250.032 C 92.105 250.344,92.690 250.691,92.800 250.805 C 93.028 251.039,96.495 252.702,98.000 253.297 C 98.550 253.515,99.313 253.852,99.695 254.047 C 100.077 254.241,100.752 254.400,101.195 254.400 C 101.638 254.400,102.000 254.580,102.000 254.800 C 102.000 255.020,102.529 255.200,103.176 255.200 C 103.823 255.200,104.464 255.380,104.600 255.600 C 104.736 255.820,105.456 256.000,106.200 256.000 C 106.944 256.000,107.664 256.180,107.800 256.400 C 107.936 256.620,108.566 256.800,109.200 256.800 C 109.834 256.800,110.464 256.980,110.600 257.200 C 110.736 257.420,111.611 257.600,112.544 257.600 C 113.477 257.600,114.411 257.769,114.620 257.977 C 114.829 258.184,116.845 258.479,119.100 258.634 C 121.355 258.788,123.200 259.069,123.200 259.257 C 123.200 259.446,124.719 259.600,126.576 259.600 C 128.433 259.600,130.064 259.780,130.200 260.000 C 130.339 260.225,132.263 260.400,134.600 260.400 C 136.937 260.400,138.861 260.575,139.000 260.800 C 139.154 261.049,142.863 261.200,148.800 261.200 C 154.737 261.200,158.446 261.351,158.600 261.600 C 158.748 261.839,161.396 262.000,165.200 262.000 C 169.004 262.000,171.652 261.839,171.800 261.600 C 171.955 261.349,176.137 261.200,183.024 261.200 C 190.075 261.200,194.000 261.057,194.000 260.800 C 194.000 260.555,195.933 260.400,199.000 260.400 C 202.067 260.400,204.000 260.245,204.000 260.000 C 204.000 259.763,205.467 259.600,207.600 259.600 C 209.580 259.600,211.200 259.445,211.200 259.257 C 211.200 259.068,213.396 258.785,216.080 258.628 C 218.764 258.471,221.272 258.175,221.654 257.971 C 222.035 257.767,223.069 257.600,223.950 257.600 C 224.832 257.600,225.664 257.420,225.800 257.200 C 225.936 256.980,226.836 256.800,227.800 256.800 C 228.764 256.800,229.664 256.620,229.800 256.400 C 229.936 256.180,230.757 256.000,231.624 256.000 C 232.491 256.000,233.200 255.820,233.200 255.600 C 233.200 255.380,233.909 255.200,234.776 255.200 C 235.643 255.200,236.464 255.020,236.600 254.800 C 236.736 254.580,237.557 254.400,238.424 254.400 C 239.291 254.400,240.000 254.220,240.000 254.000 C 240.000 253.780,240.720 253.600,241.600 253.600 C 242.480 253.600,243.200 253.420,243.200 253.200 C 243.200 252.980,243.819 252.800,244.576 252.800 C 245.333 252.800,246.064 252.620,246.200 252.400 C 246.336 252.180,246.876 252.000,247.400 252.000 C 247.924 252.000,248.464 251.820,248.600 251.600 C 248.736 251.380,249.276 251.200,249.800 251.200 C 250.324 251.200,250.864 251.020,251.000 250.800 C 251.136 250.580,251.676 250.400,252.200 250.400 C 252.724 250.400,253.264 250.220,253.400 250.000 C 253.536 249.780,254.076 249.600,254.600 249.600 C 255.124 249.600,255.664 249.420,255.800 249.200 C 255.936 248.980,256.487 248.800,257.024 248.800 C 257.561 248.800,258.000 248.620,258.000 248.400 C 258.000 248.180,258.360 248.000,258.800 248.000 C 259.240 248.000,259.600 247.820,259.600 247.600 C 259.600 247.380,260.039 247.200,260.576 247.200 C 261.113 247.200,261.664 247.020,261.800 246.800 C 261.936 246.580,262.397 246.400,262.824 246.400 C 263.251 246.400,263.600 246.220,263.600 246.000 C 263.600 245.780,263.960 245.600,264.400 245.600 C 264.840 245.600,265.200 245.420,265.200 245.200 C 265.200 244.980,265.549 244.800,265.976 244.800 C 266.403 244.800,266.864 244.620,267.000 244.400 C 267.136 244.180,267.563 244.000,267.948 244.000 C 268.334 244.000,269.036 243.640,269.508 243.200 C 269.980 242.760,270.644 242.400,270.983 242.400 C 271.322 242.400,271.600 242.243,271.600 242.050 C 271.600 241.857,272.142 241.592,272.804 241.459 C 273.956 241.229,276.454 239.729,276.733 239.100 C 276.807 238.935,277.093 238.800,277.370 238.800 C 280.413 238.800,282.828 232.392,280.618 230.182 C 279.577 229.140,275.542 228.722,275.000 229.600 C 274.864 229.820,274.043 230.000,273.176 230.000 C 272.309 230.000,271.600 230.162,271.600 230.360 C 271.600 230.697,270.881 230.838,266.100 231.439 C 265.055 231.570,264.029 231.840,263.820 232.039 C 263.611 232.237,262.486 232.400,261.320 232.400 C 260.154 232.400,259.200 232.580,259.200 232.800 C 259.200 233.022,258.133 233.200,256.800 233.200 C 255.467 233.200,254.400 233.378,254.400 233.600 C 254.400 233.833,253.067 234.000,251.200 234.000 C 249.333 234.000,248.000 234.167,248.000 234.400 C 248.000 234.635,246.600 234.800,244.600 234.800 C 242.600 234.800,241.200 234.965,241.200 235.200 C 241.200 235.441,239.541 235.600,237.024 235.600 C 234.671 235.600,232.739 235.775,232.600 236.000 C 232.455 236.234,230.156 236.400,227.056 236.400 C 224.143 236.400,221.589 236.571,221.379 236.781 C 220.921 237.239,212.096 237.552,192.100 237.820 C 182.810 237.944,177.200 238.166,177.200 238.409 C 177.200 238.624,176.390 238.800,175.400 238.800 C 174.410 238.800,173.600 238.620,173.600 238.400 C 173.600 238.141,168.741 238.000,159.824 238.000 C 151.071 238.000,145.957 237.854,145.800 237.600 C 145.655 237.366,143.337 237.200,140.200 237.200 C 137.063 237.200,134.745 237.034,134.600 236.800 C 134.464 236.580,133.024 236.400,131.400 236.400 C 129.776 236.400,128.336 236.220,128.200 236.000 C 128.064 235.780,126.793 235.600,125.376 235.600 C 123.959 235.600,122.800 235.431,122.800 235.224 C 122.800 235.017,122.166 234.792,121.392 234.724 C 119.743 234.579,119.422 233.966,120.700 233.405 C 121.195 233.188,121.600 232.873,121.600 232.705 C 121.600 232.537,121.960 232.400,122.400 232.400 C 122.840 232.400,123.200 232.220,123.200 232.000 C 123.200 231.780,123.650 231.600,124.200 231.600 C 124.750 231.600,125.200 231.420,125.200 231.200 C 125.200 230.980,125.560 230.800,126.000 230.800 C 126.440 230.800,126.800 230.620,126.800 230.400 C 126.800 230.180,127.160 230.000,127.600 230.000 C 128.040 230.000,128.400 229.820,128.400 229.600 C 128.400 229.380,128.940 229.200,129.600 229.200 C 130.260 229.200,130.800 229.020,130.800 228.800 C 130.800 228.580,131.340 228.400,132.000 228.400 C 132.660 228.400,133.200 228.220,133.200 228.000 C 133.200 227.780,133.740 227.600,134.400 227.600 C 135.060 227.600,135.600 227.420,135.600 227.200 C 135.600 226.980,136.230 226.800,137.000 226.800 C 137.770 226.800,138.400 226.620,138.400 226.400 C 138.400 226.180,139.030 226.000,139.800 226.000 C 140.570 226.000,141.200 225.845,141.200 225.655 C 141.200 225.466,142.415 225.188,143.900 225.039 C 145.385 224.890,147.140 224.607,147.800 224.411 C 148.460 224.215,149.810 223.825,150.800 223.544 C 154.565 222.476,156.158 216.000,152.656 216.000 C 152.295 216.000,152.000 215.820,152.000 215.600 C 152.000 215.350,149.541 215.200,145.424 215.200 C 141.471 215.200,138.749 215.360,138.600 215.600 M133.800 262.022 C 132.920 262.212,131.613 262.486,130.895 262.630 C 130.177 262.774,129.492 263.051,129.371 263.246 C 129.251 263.441,128.713 263.600,128.176 263.600 C 127.639 263.600,127.200 263.780,127.200 264.000 C 127.200 264.220,126.837 264.400,126.394 264.400 C 125.267 264.400,122.400 265.331,122.400 265.697 C 122.400 265.864,122.040 266.000,121.600 266.000 C 121.160 266.000,120.800 266.180,120.800 266.400 C 120.800 266.620,120.440 266.800,120.000 266.800 C 119.560 266.800,119.200 266.980,119.200 267.200 C 119.200 267.420,118.840 267.600,118.400 267.600 C 117.960 267.600,117.600 267.780,117.600 268.000 C 117.600 268.220,117.346 268.400,117.035 268.400 C 116.065 268.400,111.597 273.113,111.338 274.409 C 111.207 275.064,110.942 275.600,110.750 275.600 C 109.413 275.600,110.938 282.595,112.647 284.305 C 112.954 284.611,113.390 285.208,113.617 285.631 C 113.843 286.054,114.226 286.400,114.467 286.400 C 114.709 286.400,115.197 286.728,115.553 287.128 C 115.909 287.529,117.010 288.294,118.000 288.828 C 118.990 289.363,119.860 289.935,119.933 290.100 C 120.007 290.265,120.412 290.400,120.833 290.400 C 121.255 290.400,121.600 290.564,121.600 290.765 C 121.600 290.966,122.320 291.251,123.200 291.400 C 124.080 291.549,124.800 291.834,124.800 292.035 C 124.800 292.236,125.340 292.400,126.000 292.400 C 126.660 292.400,127.200 292.580,127.200 292.800 C 127.200 293.020,127.650 293.200,128.200 293.200 C 128.750 293.200,129.200 293.380,129.200 293.600 C 129.200 293.820,129.729 294.000,130.376 294.000 C 131.023 294.000,131.664 294.180,131.800 294.400 C 131.936 294.620,132.667 294.800,133.424 294.800 C 134.181 294.800,134.800 294.980,134.800 295.200 C 134.800 295.420,135.520 295.600,136.400 295.600 C 137.280 295.600,138.000 295.780,138.000 296.000 C 138.000 296.220,138.900 296.400,140.000 296.400 C 141.100 296.400,142.000 296.580,142.000 296.800 C 142.000 297.020,142.799 297.200,143.776 297.200 C 144.753 297.200,145.664 297.380,145.800 297.600 C 145.936 297.820,147.207 298.000,148.624 298.000 C 150.075 298.000,151.200 298.175,151.200 298.400 C 151.200 298.633,152.525 298.800,154.376 298.800 C 156.123 298.800,157.664 298.980,157.800 299.200 C 157.947 299.438,160.463 299.600,164.000 299.600 C 167.537 299.600,170.053 299.762,170.200 300.000 C 170.345 300.234,172.663 300.400,175.800 300.400 C 178.937 300.400,181.255 300.234,181.400 300.000 C 181.550 299.757,184.537 299.600,189.024 299.600 C 193.675 299.600,196.400 299.452,196.400 299.200 C 196.400 298.959,198.059 298.800,200.576 298.800 C 202.929 298.800,204.861 298.625,205.000 298.400 C 205.136 298.180,206.666 298.000,208.400 298.000 C 210.134 298.000,211.664 297.820,211.800 297.600 C 211.936 297.380,213.297 297.200,214.824 297.200 C 216.408 297.200,217.600 297.028,217.600 296.800 C 217.600 296.572,218.792 296.400,220.376 296.400 C 221.903 296.400,223.264 296.220,223.400 296.000 C 223.536 295.780,224.616 295.600,225.800 295.600 C 226.984 295.600,228.064 295.420,228.200 295.200 C 228.336 294.980,229.517 294.800,230.824 294.800 C 232.141 294.800,233.200 294.622,233.200 294.400 C 233.200 294.180,234.179 294.000,235.376 294.000 C 236.573 294.000,237.664 293.820,237.800 293.600 C 237.936 293.380,238.847 293.200,239.824 293.200 C 240.801 293.200,241.600 293.020,241.600 292.800 C 241.600 292.580,242.500 292.400,243.600 292.400 C 244.700 292.400,245.600 292.241,245.600 292.048 C 245.600 291.854,247.310 291.567,249.399 291.410 C 251.489 291.254,253.300 290.962,253.423 290.763 C 253.546 290.563,254.346 290.400,255.200 290.400 C 256.054 290.400,256.864 290.220,257.000 290.000 C 257.136 289.780,258.036 289.600,259.000 289.600 C 259.964 289.600,260.864 289.420,261.000 289.200 C 261.136 288.980,261.957 288.800,262.824 288.800 C 263.691 288.800,264.400 288.620,264.400 288.400 C 264.400 288.180,265.032 288.000,265.805 288.000 C 268.454 288.000,270.799 285.910,270.800 283.548 C 270.800 282.160,268.297 278.800,267.262 278.800 C 267.075 278.800,266.507 278.440,266.000 278.000 C 265.493 277.560,264.817 277.200,264.499 277.200 C 264.181 277.200,263.417 276.660,262.800 276.000 C 262.183 275.340,261.431 274.800,261.128 274.800 C 260.825 274.800,260.317 274.440,260.000 274.000 C 259.683 273.560,259.193 273.200,258.912 273.200 C 258.630 273.200,258.400 273.050,258.400 272.868 C 258.400 272.685,257.905 272.281,257.300 271.970 C 256.695 271.660,255.909 271.089,255.553 270.703 C 255.197 270.316,254.702 270.000,254.453 270.000 C 254.204 270.000,254.000 269.820,254.000 269.600 C 254.000 269.380,253.730 269.200,253.400 269.200 C 253.070 269.200,252.800 269.020,252.800 268.800 C 252.800 268.572,251.608 268.400,250.024 268.400 C 248.497 268.400,247.136 268.580,247.000 268.800 C 246.864 269.020,246.043 269.200,245.176 269.200 C 244.309 269.200,243.600 269.380,243.600 269.600 C 243.600 269.820,242.801 270.000,241.824 270.000 C 240.847 270.000,239.936 270.180,239.800 270.400 C 239.664 270.620,238.843 270.800,237.976 270.800 C 237.109 270.800,236.400 270.980,236.400 271.200 C 236.400 271.422,235.333 271.600,234.000 271.600 C 232.667 271.600,231.600 271.778,231.600 272.000 C 231.600 272.220,230.610 272.400,229.400 272.400 C 228.190 272.400,227.200 272.580,227.200 272.800 C 227.200 273.020,226.221 273.200,225.024 273.200 C 223.827 273.200,222.736 273.380,222.600 273.600 C 222.464 273.820,221.103 274.000,219.576 274.000 C 217.992 274.000,216.800 274.172,216.800 274.400 C 216.800 274.629,215.600 274.800,214.000 274.800 C 212.400 274.800,211.200 274.971,211.200 275.200 C 211.200 275.435,209.800 275.600,207.800 275.600 C 205.800 275.600,204.400 275.765,204.400 276.000 C 204.400 276.245,202.467 276.400,199.400 276.400 C 196.333 276.400,194.400 276.555,194.400 276.800 C 194.400 277.061,188.067 277.200,176.200 277.200 C 164.333 277.200,158.000 277.061,158.000 276.800 C 158.000 276.559,156.333 276.400,153.800 276.400 C 151.267 276.400,149.600 276.241,149.600 276.000 C 149.600 275.771,148.400 275.600,146.800 275.600 C 145.200 275.600,144.000 275.429,144.000 275.200 C 144.000 274.980,143.010 274.800,141.800 274.800 C 140.590 274.800,139.600 274.620,139.600 274.400 C 139.600 274.180,138.880 274.000,138.000 274.000 C 137.120 274.000,136.400 273.820,136.400 273.600 C 136.400 273.380,135.944 273.200,135.387 273.200 C 133.435 273.200,133.721 271.741,135.915 270.500 C 136.402 270.225,137.198 269.775,137.685 269.500 C 139.375 268.545,139.600 268.096,139.600 265.691 C 139.600 262.272,137.828 261.152,133.800 262.022 M142.800 304.000 C 142.800 304.229,141.600 304.400,140.000 304.400 C 138.400 304.400,137.200 304.571,137.200 304.800 C 137.200 305.020,136.480 305.200,135.600 305.200 C 134.720 305.200,134.000 305.380,134.000 305.600 C 134.000 305.820,133.561 306.000,133.024 306.000 C 132.487 306.000,131.936 306.180,131.800 306.400 C 131.664 306.620,131.203 306.800,130.776 306.800 C 130.349 306.800,130.000 306.980,130.000 307.200 C 130.000 307.420,129.764 307.600,129.475 307.600 C 129.187 307.600,128.564 307.960,128.092 308.400 C 127.620 308.840,127.118 309.200,126.977 309.200 C 126.539 309.200,124.000 311.895,124.000 312.360 C 124.000 312.602,123.820 312.800,123.600 312.800 C 123.380 312.800,123.200 313.160,123.200 313.600 C 123.200 314.040,123.020 314.400,122.800 314.400 C 122.204 314.400,122.290 322.805,122.900 324.117 C 123.175 324.709,123.535 325.195,123.700 325.197 C 123.865 325.199,124.000 325.475,124.000 325.811 C 124.000 326.146,124.810 327.231,125.800 328.221 C 126.790 329.211,127.600 330.166,127.600 330.343 C 127.600 330.520,128.095 330.920,128.700 331.232 C 129.305 331.545,130.149 332.115,130.575 332.500 C 131.002 332.885,131.587 333.200,131.875 333.200 C 132.164 333.200,132.400 333.380,132.400 333.600 C 132.400 333.820,132.760 334.000,133.200 334.000 C 133.640 334.000,134.000 334.180,134.000 334.400 C 134.000 334.620,134.349 334.800,134.776 334.800 C 135.203 334.800,135.664 334.980,135.800 335.200 C 135.936 335.420,136.487 335.600,137.024 335.600 C 137.561 335.600,138.000 335.780,138.000 336.000 C 138.000 336.220,138.540 336.400,139.200 336.400 C 139.860 336.400,140.400 336.580,140.400 336.800 C 140.400 337.020,140.940 337.200,141.600 337.200 C 142.260 337.200,142.800 337.380,142.800 337.600 C 142.800 337.820,143.419 338.000,144.176 338.000 C 144.933 338.000,145.652 338.161,145.774 338.358 C 145.895 338.555,146.671 338.815,147.497 338.937 C 148.324 339.059,149.990 339.357,151.200 339.598 C 157.238 340.802,163.116 341.532,167.076 341.572 C 168.658 341.587,170.064 341.780,170.200 342.000 C 170.343 342.232,172.537 342.400,175.424 342.400 C 178.475 342.400,180.400 342.555,180.400 342.800 C 180.400 343.059,185.059 343.200,193.576 343.200 C 201.929 343.200,206.843 343.054,207.000 342.800 C 207.138 342.577,209.004 342.400,211.224 342.400 C 213.411 342.400,215.200 342.248,215.200 342.062 C 215.200 341.875,217.579 341.603,220.486 341.456 C 223.393 341.309,225.949 341.011,226.166 340.794 C 226.383 340.577,227.413 340.400,228.456 340.400 C 229.499 340.400,230.464 340.220,230.600 340.000 C 230.736 339.780,231.636 339.600,232.600 339.600 C 233.564 339.600,234.464 339.420,234.600 339.200 C 234.736 338.980,235.456 338.800,236.200 338.800 C 236.944 338.800,237.652 338.639,237.774 338.442 C 237.895 338.245,238.671 337.982,239.497 337.858 C 243.012 337.327,244.000 337.095,244.000 336.800 C 244.000 336.628,244.630 336.378,245.400 336.244 C 246.170 336.110,247.430 335.890,248.200 335.756 C 248.970 335.622,249.600 335.352,249.600 335.156 C 249.600 334.960,250.140 334.800,250.800 334.800 C 251.460 334.800,252.000 334.620,252.000 334.400 C 252.000 334.180,252.439 334.000,252.976 334.000 C 253.513 334.000,254.064 333.820,254.200 333.600 C 254.336 333.380,254.887 333.200,255.424 333.200 C 255.961 333.200,256.400 333.020,256.400 332.800 C 256.400 332.580,256.850 332.400,257.400 332.400 C 257.950 332.400,258.400 332.220,258.400 332.000 C 258.400 331.780,258.850 331.600,259.400 331.600 C 259.950 331.600,260.400 331.420,260.400 331.200 C 260.400 330.980,260.676 330.800,261.013 330.800 C 262.202 330.800,264.400 328.134,264.400 326.692 C 264.400 325.210,262.204 322.400,261.046 322.400 C 260.691 322.400,260.400 322.220,260.400 322.000 C 260.400 321.780,260.080 321.600,259.688 321.600 C 259.297 321.600,258.717 321.240,258.400 320.800 C 258.083 320.360,257.593 320.000,257.312 320.000 C 257.030 320.000,256.800 319.841,256.800 319.647 C 256.800 319.452,256.485 319.193,256.100 319.071 C 255.266 318.807,253.233 317.592,252.510 316.926 C 252.227 316.666,251.636 316.338,251.198 316.199 C 250.759 316.060,250.400 315.778,250.400 315.573 C 250.400 315.368,250.122 315.200,249.783 315.200 C 249.444 315.200,248.780 314.840,248.308 314.400 C 247.836 313.960,247.213 313.600,246.925 313.600 C 246.636 313.600,246.400 313.420,246.400 313.200 C 246.400 312.980,246.122 312.800,245.783 312.800 C 245.444 312.800,244.780 312.440,244.308 312.000 C 243.836 311.560,243.213 311.200,242.925 311.200 C 242.636 311.200,242.400 311.020,242.400 310.800 C 242.400 310.296,235.507 310.260,234.980 310.761 C 234.771 310.960,233.790 311.223,232.800 311.346 C 231.810 311.470,229.830 311.766,228.400 312.005 C 226.970 312.244,224.810 312.537,223.600 312.655 C 222.390 312.774,221.229 313.035,221.020 313.235 C 220.811 313.436,219.607 313.600,218.344 313.600 C 217.081 313.600,215.936 313.780,215.800 314.000 C 215.664 314.220,214.483 314.400,213.176 314.400 C 211.869 314.400,210.800 314.565,210.800 314.766 C 210.800 315.397,205.879 315.660,190.700 315.843 C 180.823 315.961,176.000 315.885,176.000 315.610 C 176.000 315.358,174.470 315.200,172.024 315.200 C 169.804 315.200,167.938 315.023,167.800 314.800 C 167.664 314.580,166.123 314.400,164.376 314.400 C 162.525 314.400,161.200 314.233,161.200 314.000 C 161.200 313.778,160.133 313.600,158.800 313.600 C 157.480 313.600,156.400 313.437,156.400 313.239 C 156.400 313.040,155.545 312.787,154.500 312.677 C 149.446 312.144,147.254 311.114,148.800 310.000 C 150.513 308.766,149.209 304.400,147.128 304.400 C 146.728 304.400,146.400 304.220,146.400 304.000 C 146.400 303.780,145.590 303.600,144.600 303.600 C 143.610 303.600,142.800 303.780,142.800 304.000 M109.600 332.000 C 109.270 332.213,107.076 332.391,104.724 332.394 C 102.311 332.397,100.339 332.574,100.200 332.800 C 100.060 333.027,98.070 333.200,95.600 333.200 C 93.130 333.200,91.140 333.373,91.000 333.600 C 90.864 333.820,89.424 334.000,87.800 334.000 C 86.176 334.000,84.736 334.180,84.600 334.400 C 84.464 334.620,83.294 334.800,82.000 334.800 C 80.706 334.800,79.536 334.980,79.400 335.200 C 79.264 335.420,78.353 335.600,77.376 335.600 C 76.399 335.600,75.600 335.780,75.600 336.000 C 75.600 336.220,74.700 336.400,73.600 336.400 C 72.500 336.400,71.600 336.580,71.600 336.800 C 71.600 337.020,70.981 337.200,70.224 337.200 C 69.467 337.200,68.736 337.380,68.600 337.600 C 68.464 337.820,67.823 338.000,67.176 338.000 C 66.529 338.000,66.000 338.180,66.000 338.400 C 66.000 338.620,65.460 338.800,64.800 338.800 C 64.140 338.800,63.600 338.980,63.600 339.200 C 63.600 339.420,63.240 339.600,62.800 339.600 C 62.360 339.600,62.000 339.780,62.000 340.000 C 62.000 340.220,61.640 340.400,61.200 340.400 C 60.760 340.400,60.400 340.580,60.400 340.800 C 60.400 341.020,60.130 341.200,59.800 341.200 C 59.470 341.200,59.200 341.380,59.200 341.600 C 59.200 341.820,58.840 342.000,58.400 342.000 C 57.960 342.000,57.600 342.180,57.600 342.400 C 57.600 342.620,57.322 342.800,56.983 342.800 C 56.311 342.800,55.761 343.194,53.974 344.959 C 53.328 345.597,52.800 346.362,52.800 346.659 C 52.800 346.957,52.665 347.201,52.500 347.203 C 50.992 347.219,50.681 355.395,52.071 358.472 C 52.551 359.532,53.091 360.400,53.271 360.400 C 53.452 360.400,53.600 360.674,53.600 361.009 C 53.600 361.801,57.799 366.000,58.591 366.000 C 58.926 366.000,59.200 366.180,59.200 366.400 C 59.200 366.620,59.470 366.800,59.800 366.800 C 60.130 366.800,60.400 366.980,60.400 367.200 C 60.400 367.420,60.670 367.600,61.000 367.600 C 61.330 367.600,61.600 367.780,61.600 368.000 C 61.600 368.220,61.870 368.400,62.200 368.400 C 62.530 368.400,62.800 368.580,62.800 368.800 C 62.800 369.020,63.149 369.200,63.576 369.200 C 64.003 369.200,64.464 369.380,64.600 369.600 C 64.736 369.820,65.287 370.000,65.824 370.000 C 66.361 370.000,66.800 370.147,66.800 370.328 C 66.800 370.508,67.700 370.900,68.800 371.200 C 69.900 371.500,70.800 371.892,70.800 372.072 C 70.800 372.253,71.419 372.400,72.176 372.400 C 72.933 372.400,73.652 372.560,73.773 372.756 C 73.894 372.951,74.579 373.208,75.296 373.327 C 76.013 373.445,77.410 373.745,78.400 373.993 C 81.735 374.828,83.789 375.152,85.900 375.176 C 87.055 375.189,88.000 375.380,88.000 375.600 C 88.000 375.822,89.067 376.000,90.400 376.000 C 91.733 376.000,92.800 376.178,92.800 376.400 C 92.800 376.620,93.779 376.800,94.976 376.800 C 96.173 376.800,97.264 376.980,97.400 377.200 C 97.537 377.421,99.337 377.600,101.424 377.600 C 103.675 377.600,105.200 377.762,105.200 378.000 C 105.200 378.238,106.725 378.400,108.976 378.400 C 111.063 378.400,112.863 378.579,113.000 378.800 C 113.145 379.035,115.471 379.200,118.624 379.200 C 121.941 379.200,124.000 379.353,124.000 379.600 C 124.000 379.853,126.859 380.000,131.776 380.000 C 136.529 380.000,139.649 380.156,139.800 380.400 C 139.961 380.661,151.137 380.800,172.024 380.800 C 193.075 380.800,204.000 380.663,204.000 380.400 C 204.000 380.149,206.525 380.000,210.776 380.000 C 214.863 380.000,217.651 379.841,217.800 379.600 C 217.945 379.366,220.263 379.200,223.400 379.200 C 226.537 379.200,228.855 379.034,229.000 378.800 C 229.142 378.571,231.204 378.400,233.824 378.400 C 236.608 378.400,238.400 378.243,238.400 378.000 C 238.400 377.767,239.733 377.600,241.600 377.600 C 243.467 377.600,244.800 377.433,244.800 377.200 C 244.800 376.967,246.133 376.800,248.000 376.800 C 249.867 376.800,251.200 376.633,251.200 376.400 C 251.200 376.169,252.459 376.000,254.176 376.000 C 255.813 376.000,257.248 375.846,257.364 375.658 C 257.481 375.469,259.606 375.188,262.088 375.032 C 264.570 374.877,266.771 374.581,266.980 374.375 C 267.189 374.169,268.188 374.000,269.200 374.000 C 270.212 374.000,271.211 373.837,271.420 373.639 C 271.783 373.294,273.277 373.043,277.900 372.550 C 279.055 372.427,280.000 372.181,280.000 372.003 C 280.000 371.826,280.765 371.581,281.700 371.459 C 284.960 371.034,286.409 370.709,286.627 370.356 C 286.748 370.160,287.456 370.000,288.200 370.000 C 288.944 370.000,289.652 369.840,289.773 369.644 C 289.894 369.449,290.624 369.179,291.396 369.044 C 292.168 368.910,293.432 368.690,294.204 368.556 C 294.976 368.421,295.706 368.151,295.827 367.956 C 295.948 367.760,296.667 367.600,297.424 367.600 C 298.181 367.600,298.800 367.420,298.800 367.200 C 298.800 366.980,299.340 366.800,300.000 366.800 C 300.660 366.800,301.200 366.620,301.200 366.400 C 301.200 366.180,301.740 366.000,302.400 366.000 C 303.060 366.000,303.600 365.820,303.600 365.600 C 303.600 365.380,304.039 365.200,304.576 365.200 C 305.113 365.200,305.664 365.020,305.800 364.800 C 305.936 364.580,306.487 364.400,307.024 364.400 C 307.561 364.400,308.000 364.220,308.000 364.000 C 308.000 363.780,308.540 363.600,309.200 363.600 C 309.860 363.600,310.400 363.420,310.400 363.200 C 310.400 362.980,310.760 362.800,311.200 362.800 C 311.640 362.800,312.000 362.620,312.000 362.400 C 312.000 362.180,312.360 362.000,312.800 362.000 C 313.240 362.000,313.600 361.820,313.600 361.600 C 313.600 361.380,313.960 361.200,314.400 361.200 C 314.840 361.200,315.200 361.020,315.200 360.800 C 315.200 360.580,315.560 360.400,316.000 360.400 C 316.440 360.400,316.800 360.220,316.800 360.000 C 316.800 359.780,317.250 359.600,317.800 359.600 C 318.350 359.600,318.800 359.420,318.800 359.200 C 318.800 358.980,319.115 358.799,319.500 358.798 C 321.158 358.794,327.600 353.165,327.600 351.721 C 327.600 351.434,327.780 351.200,328.000 351.200 C 328.220 351.200,328.400 350.761,328.400 350.224 C 328.400 349.687,328.580 349.136,328.800 349.000 C 329.020 348.864,329.200 347.514,329.200 346.000 C 329.200 344.486,329.020 343.136,328.800 343.000 C 328.580 342.864,328.400 342.263,328.400 341.665 C 328.400 341.035,328.063 340.333,327.600 340.000 C 327.160 339.683,326.800 339.198,326.800 338.922 C 326.800 338.234,323.572 334.800,322.924 334.800 C 322.636 334.800,322.400 334.620,322.400 334.400 C 322.400 334.180,321.582 334.000,320.582 334.000 C 318.682 334.000,316.800 335.269,316.800 336.548 C 316.800 336.870,316.595 337.202,316.345 337.285 C 315.860 337.447,316.555 340.042,317.383 341.165 C 317.682 341.569,317.658 341.778,317.300 341.898 C 317.025 341.991,316.800 342.412,316.800 342.833 C 316.800 343.255,316.529 343.600,316.198 343.600 C 315.867 343.600,314.663 344.050,313.523 344.600 C 312.383 345.150,311.124 345.600,310.725 345.600 C 310.326 345.600,310.000 345.780,310.000 346.000 C 310.000 346.220,309.460 346.400,308.800 346.400 C 308.140 346.400,307.600 346.580,307.600 346.800 C 307.600 347.020,306.880 347.200,306.000 347.200 C 305.120 347.200,304.400 347.380,304.400 347.600 C 304.400 347.820,303.781 348.000,303.024 348.000 C 302.267 348.000,301.536 348.180,301.400 348.400 C 301.264 348.620,300.623 348.800,299.976 348.800 C 299.329 348.800,298.800 348.980,298.800 349.200 C 298.800 349.420,297.990 349.600,297.000 349.600 C 296.010 349.600,295.200 349.780,295.200 350.000 C 295.200 350.220,294.491 350.400,293.624 350.400 C 292.757 350.400,291.936 350.580,291.800 350.800 C 291.664 351.020,290.753 351.200,289.776 351.200 C 288.799 351.200,288.000 351.380,288.000 351.600 C 288.000 351.820,287.100 352.000,286.000 352.000 C 284.900 352.000,284.000 352.180,284.000 352.400 C 284.000 352.620,283.021 352.800,281.824 352.800 C 280.627 352.800,279.536 352.980,279.400 353.200 C 279.264 353.420,278.274 353.600,277.200 353.600 C 276.126 353.600,275.136 353.780,275.000 354.000 C 274.864 354.220,273.784 354.400,272.600 354.400 C 271.416 354.400,270.336 354.580,270.200 354.800 C 270.064 355.020,268.804 355.200,267.400 355.200 C 265.996 355.200,264.736 355.380,264.600 355.600 C 264.464 355.820,263.193 356.000,261.776 356.000 C 260.325 356.000,259.200 356.175,259.200 356.400 C 259.200 356.631,257.941 356.800,256.224 356.800 C 254.587 356.800,253.136 356.980,253.000 357.200 C 252.864 357.420,251.154 357.600,249.200 357.600 C 247.246 357.600,245.536 357.780,245.400 358.000 C 245.264 358.220,243.543 358.400,241.576 358.400 C 239.459 358.400,238.000 358.563,238.000 358.800 C 238.000 359.044,236.160 359.200,233.280 359.200 C 230.684 359.200,228.388 359.372,228.177 359.583 C 226.634 361.126,140.232 361.107,139.667 359.564 C 139.593 359.364,137.388 359.200,134.767 359.200 C 131.856 359.200,130.000 359.044,130.000 358.800 C 130.000 358.567,128.675 358.400,126.824 358.400 C 125.077 358.400,123.536 358.220,123.400 358.000 C 123.264 357.780,121.723 357.600,119.976 357.600 C 118.125 357.600,116.800 357.433,116.800 357.200 C 116.800 356.971,115.600 356.800,114.000 356.800 C 112.400 356.800,111.200 356.629,111.200 356.400 C 111.200 356.178,110.133 356.000,108.800 356.000 C 107.467 356.000,106.400 355.822,106.400 355.600 C 106.400 355.378,105.341 355.200,104.024 355.200 C 102.717 355.200,101.536 355.020,101.400 354.800 C 101.264 354.580,100.443 354.400,99.576 354.400 C 98.709 354.400,98.000 354.220,98.000 354.000 C 98.000 353.780,97.100 353.600,96.000 353.600 C 94.900 353.600,94.000 353.420,94.000 353.200 C 94.000 352.980,93.381 352.800,92.624 352.800 C 91.867 352.800,91.136 352.620,91.000 352.400 C 90.864 352.180,90.234 352.000,89.600 352.000 C 88.966 352.000,88.336 351.820,88.200 351.600 C 88.064 351.380,87.423 351.200,86.776 351.200 C 86.129 351.200,85.600 351.020,85.600 350.800 C 85.600 350.580,85.317 350.400,84.971 350.400 C 84.386 350.400,82.925 349.272,83.252 349.072 C 84.429 348.353,87.006 347.200,87.438 347.200 C 87.747 347.200,88.000 347.020,88.000 346.800 C 88.000 346.580,88.355 346.400,88.788 346.400 C 89.221 346.400,90.217 346.040,91.000 345.600 C 91.783 345.160,92.959 344.800,93.612 344.800 C 94.265 344.800,94.800 344.620,94.800 344.400 C 94.800 344.180,95.340 344.000,96.000 344.000 C 96.660 344.000,97.200 343.820,97.200 343.600 C 97.200 343.380,97.920 343.200,98.800 343.200 C 99.680 343.200,100.400 343.020,100.400 342.800 C 100.400 342.580,100.940 342.400,101.600 342.400 C 102.260 342.400,102.800 342.252,102.800 342.070 C 102.800 341.889,104.375 341.540,106.300 341.295 C 115.836 340.082,116.800 339.576,116.800 335.788 C 116.800 333.478,116.237 332.400,115.029 332.400 C 114.683 332.400,114.400 332.220,114.400 332.000 C 114.400 331.487,110.393 331.487,109.600 332.000 M339.600 356.400 C 339.600 356.620,339.316 356.800,338.969 356.800 C 338.621 356.800,337.646 357.520,336.800 358.400 C 335.954 359.280,335.069 360.000,334.832 360.000 C 334.596 360.000,333.546 360.593,332.501 361.319 C 331.455 362.044,330.108 362.883,329.507 363.183 C 328.905 363.483,328.058 364.059,327.623 364.464 C 327.189 364.869,326.556 365.200,326.217 365.200 C 325.878 365.200,325.600 365.380,325.600 365.600 C 325.600 365.820,325.240 366.000,324.800 366.000 C 324.360 366.000,324.000 366.180,324.000 366.400 C 324.000 366.620,323.640 366.800,323.200 366.800 C 322.760 366.800,322.400 366.980,322.400 367.200 C 322.400 367.420,322.040 367.600,321.600 367.600 C 321.160 367.600,320.800 367.780,320.800 368.000 C 320.800 368.220,320.440 368.400,320.000 368.400 C 319.560 368.400,319.200 368.580,319.200 368.800 C 319.200 369.020,318.660 369.200,318.000 369.200 C 317.340 369.200,316.800 369.380,316.800 369.600 C 316.800 369.820,316.440 370.000,316.000 370.000 C 315.560 370.000,315.200 370.180,315.200 370.400 C 315.200 370.620,314.660 370.800,314.000 370.800 C 313.340 370.800,312.800 370.980,312.800 371.200 C 312.800 371.420,312.440 371.600,312.000 371.600 C 311.560 371.600,311.200 371.780,311.200 372.000 C 311.200 372.220,310.750 372.400,310.200 372.400 C 309.650 372.400,309.200 372.580,309.200 372.800 C 309.200 373.020,308.660 373.200,308.000 373.200 C 307.340 373.200,306.800 373.380,306.800 373.600 C 306.800 373.820,306.260 374.000,305.600 374.000 C 304.940 374.000,304.400 374.180,304.400 374.400 C 304.400 374.620,303.781 374.800,303.024 374.800 C 302.267 374.800,301.536 374.980,301.400 375.200 C 301.264 375.420,300.724 375.600,300.200 375.600 C 299.676 375.600,299.136 375.780,299.000 376.000 C 298.864 376.220,298.223 376.400,297.576 376.400 C 296.929 376.400,296.400 376.548,296.400 376.728 C 296.400 376.909,295.005 377.253,293.300 377.493 C 291.595 377.733,289.390 378.141,288.400 378.400 C 287.410 378.660,285.835 378.964,284.900 379.076 C 283.965 379.189,283.200 379.442,283.200 379.640 C 283.200 379.838,282.041 380.000,280.624 380.000 C 279.207 380.000,277.936 380.180,277.800 380.400 C 277.664 380.620,276.393 380.800,274.976 380.800 C 273.525 380.800,272.400 380.975,272.400 381.200 C 272.400 381.438,270.875 381.600,268.624 381.600 C 266.537 381.600,264.737 381.779,264.600 382.000 C 264.458 382.230,262.337 382.400,259.600 382.400 C 256.863 382.400,254.742 382.570,254.600 382.800 C 254.449 383.045,251.289 383.200,246.456 383.200 C 241.684 383.200,238.401 383.359,238.157 383.603 C 237.275 384.485,124.748 383.570,113.700 382.591 C 111.728 382.417,110.800 382.473,110.800 382.767 C 110.800 383.005,110.517 383.200,110.171 383.200 C 108.928 383.200,108.400 384.273,108.400 386.800 C 108.400 390.257,109.290 390.948,114.318 391.393 C 116.126 391.553,117.704 391.845,117.826 392.042 C 117.948 392.239,119.027 392.400,120.224 392.400 C 121.421 392.400,122.400 392.580,122.400 392.800 C 122.400 393.022,123.459 393.200,124.776 393.200 C 126.083 393.200,127.264 393.380,127.400 393.600 C 127.536 393.820,128.616 394.000,129.800 394.000 C 130.984 394.000,132.064 394.180,132.200 394.400 C 132.336 394.620,133.517 394.800,134.824 394.800 C 136.141 394.800,137.200 394.978,137.200 395.200 C 137.200 395.429,138.400 395.600,140.000 395.600 C 141.600 395.600,142.800 395.771,142.800 396.000 C 142.800 396.231,144.067 396.400,145.800 396.400 C 147.533 396.400,148.800 396.569,148.800 396.800 C 148.800 397.033,150.133 397.200,152.000 397.200 C 153.867 397.200,155.200 397.367,155.200 397.600 C 155.200 397.841,156.867 398.000,159.400 398.000 C 161.933 398.000,163.600 398.159,163.600 398.400 C 163.600 398.641,165.240 398.800,167.720 398.800 C 170.483 398.800,172.005 398.965,172.340 399.300 C 172.733 399.693,181.263 399.800,212.287 399.800 C 243.488 399.800,251.768 399.695,251.900 399.300 C 252.019 398.943,253.256 398.800,256.233 398.800 C 258.744 398.800,260.400 398.641,260.400 398.400 C 260.400 398.163,261.867 398.000,264.000 398.000 C 266.133 398.000,267.600 397.837,267.600 397.600 C 267.600 397.363,269.059 397.200,271.176 397.200 C 273.143 397.200,274.864 397.020,275.000 396.800 C 275.136 396.580,276.317 396.400,277.624 396.400 C 278.941 396.400,280.000 396.222,280.000 396.000 C 280.000 395.775,281.125 395.600,282.576 395.600 C 283.993 395.600,285.264 395.420,285.400 395.200 C 285.536 394.980,286.717 394.800,288.024 394.800 C 289.341 394.800,290.400 394.622,290.400 394.400 C 290.400 394.180,291.379 394.000,292.576 394.000 C 293.773 394.000,294.864 393.820,295.000 393.600 C 295.136 393.380,296.047 393.200,297.024 393.200 C 298.001 393.200,298.800 393.020,298.800 392.800 C 298.800 392.580,299.700 392.400,300.800 392.400 C 301.900 392.400,302.800 392.243,302.800 392.052 C 302.800 391.860,303.900 391.579,305.245 391.427 C 306.590 391.274,307.985 391.002,308.345 390.821 C 308.705 390.640,310.260 390.102,311.800 389.626 C 314.535 388.779,315.889 388.269,317.295 387.553 C 317.677 387.359,318.262 387.200,318.595 387.200 C 318.928 387.200,319.200 387.020,319.200 386.800 C 319.200 386.580,319.549 386.400,319.976 386.400 C 320.403 386.400,320.864 386.220,321.000 386.000 C 321.136 385.780,321.597 385.600,322.024 385.600 C 322.451 385.600,322.800 385.420,322.800 385.200 C 322.800 384.980,323.036 384.800,323.325 384.800 C 323.613 384.800,324.236 384.440,324.708 384.000 C 325.180 383.560,325.844 383.200,326.183 383.200 C 326.522 383.200,326.800 383.020,326.800 382.800 C 326.800 382.580,327.120 382.400,327.512 382.400 C 327.903 382.400,328.483 382.040,328.800 381.600 C 329.117 381.160,329.657 380.800,330.000 380.800 C 330.343 380.800,330.883 380.440,331.200 380.000 C 331.517 379.560,332.020 379.200,332.317 379.200 C 333.049 379.200,341.034 371.152,341.379 370.066 C 341.530 369.590,341.822 369.200,342.027 369.200 C 342.232 369.200,342.400 368.840,342.400 368.400 C 342.400 367.960,342.580 367.600,342.800 367.600 C 343.020 367.600,343.200 367.240,343.200 366.800 C 343.200 366.360,343.380 366.000,343.600 366.000 C 343.820 366.000,344.000 365.640,344.000 365.200 C 344.000 364.760,344.180 364.400,344.400 364.400 C 344.620 364.400,344.800 363.860,344.800 363.200 C 344.800 362.540,344.980 362.000,345.200 362.000 C 345.420 362.000,345.600 361.190,345.600 360.200 C 345.600 359.210,345.420 358.400,345.200 358.400 C 344.980 358.400,344.800 358.117,344.800 357.771 C 344.800 356.604,343.719 356.000,341.629 356.000 C 340.513 356.000,339.600 356.180,339.600 356.400 "
              stroke="none" fill="#67daff" fill-rule="evenodd"></path>
        <path id="path1"
              d="M234.816 0.875 C 233.936 1.820,233.640 5.330,234.400 5.800 C 234.646 5.952,234.800 9.204,234.800 14.224 C 234.800 19.408,234.654 22.400,234.400 22.400 C 234.178 22.400,234.000 23.467,234.000 24.800 C 234.000 26.133,233.822 27.200,233.600 27.200 C 233.380 27.200,233.200 27.999,233.200 28.976 C 233.200 29.953,233.020 30.864,232.800 31.000 C 232.580 31.136,232.400 31.599,232.400 32.029 C 232.400 32.459,232.238 33.123,232.039 33.505 C 231.840 33.887,231.463 35.010,231.200 36.000 C 230.937 36.990,230.560 38.113,230.361 38.495 C 230.162 38.877,230.000 39.462,230.000 39.795 C 230.000 40.128,229.820 40.400,229.600 40.400 C 229.380 40.400,229.200 40.639,229.200 40.932 C 229.200 41.225,228.751 42.350,228.202 43.432 C 227.653 44.514,227.203 45.681,227.202 46.025 C 227.201 46.368,226.840 47.036,226.400 47.508 C 225.960 47.980,225.600 48.644,225.600 48.983 C 225.600 49.322,225.450 49.600,225.268 49.600 C 225.085 49.600,224.680 50.093,224.368 50.696 C 223.772 51.846,215.971 59.765,214.414 60.800 C 213.087 61.683,210.151 64.013,208.493 65.500 C 207.696 66.215,206.849 66.800,206.610 66.800 C 206.372 66.800,205.917 67.160,205.600 67.600 C 205.283 68.040,204.820 68.400,204.571 68.400 C 204.322 68.400,203.554 68.940,202.863 69.600 C 202.172 70.260,201.375 70.800,201.092 70.800 C 200.809 70.800,200.317 71.160,200.000 71.600 C 199.683 72.040,199.220 72.400,198.971 72.400 C 198.722 72.400,197.994 72.895,197.352 73.500 C 196.711 74.105,195.694 74.855,195.093 75.168 C 194.492 75.480,194.000 75.885,194.000 76.068 C 194.000 76.250,193.812 76.400,193.583 76.400 C 193.354 76.400,192.949 76.583,192.683 76.807 C 190.886 78.323,190.244 78.800,190.001 78.800 C 189.849 78.800,189.201 79.250,188.562 79.800 C 187.923 80.349,187.215 80.799,186.988 80.800 C 186.762 80.800,186.317 81.160,186.000 81.600 C 185.683 82.040,185.220 82.400,184.971 82.400 C 184.722 82.400,183.997 82.897,183.359 83.504 C 182.722 84.112,181.570 85.048,180.800 85.585 C 180.030 86.123,179.109 86.886,178.753 87.281 C 178.397 87.676,177.993 88.000,177.856 88.000 C 177.718 88.000,176.508 89.080,175.168 90.400 C 173.827 91.720,172.567 92.800,172.368 92.800 C 171.490 92.800,162.753 101.425,161.000 104.022 C 160.340 105.000,159.125 106.461,158.300 107.269 C 157.475 108.076,156.800 108.978,156.800 109.272 C 156.800 109.567,156.440 110.032,156.000 110.307 C 155.560 110.582,155.200 111.036,155.200 111.315 C 155.200 111.595,154.840 112.083,154.400 112.400 C 153.960 112.717,153.600 113.231,153.600 113.541 C 153.600 113.852,153.284 114.397,152.897 114.753 C 152.511 115.109,151.940 115.895,151.630 116.500 C 151.319 117.105,150.915 117.600,150.732 117.600 C 150.550 117.600,150.400 117.960,150.400 118.400 C 150.400 118.840,150.220 119.200,150.000 119.200 C 149.780 119.200,149.600 119.560,149.600 120.000 C 149.600 120.440,149.420 120.800,149.200 120.800 C 148.980 120.800,148.800 121.160,148.800 121.600 C 148.800 122.040,148.620 122.400,148.400 122.400 C 148.180 122.400,148.000 122.760,148.000 123.200 C 148.000 123.640,147.820 124.000,147.600 124.000 C 147.380 124.000,147.200 124.360,147.200 124.800 C 147.200 125.240,147.020 125.600,146.800 125.600 C 146.580 125.600,146.400 125.960,146.400 126.400 C 146.400 126.840,146.220 127.200,146.000 127.200 C 145.780 127.200,145.600 127.472,145.600 127.805 C 145.600 128.138,145.444 128.723,145.254 129.105 C 144.400 130.817,143.933 132.826,143.717 135.712 C 143.589 137.424,143.330 138.920,143.142 139.036 C 142.698 139.310,142.694 148.287,143.138 148.562 C 143.324 148.677,143.595 150.704,143.739 153.067 C 143.884 155.429,144.182 157.542,144.401 157.761 C 144.621 157.981,144.800 158.664,144.800 159.280 C 144.800 159.896,144.980 160.400,145.200 160.400 C 145.420 160.400,145.600 160.839,145.600 161.376 C 145.600 161.913,145.780 162.464,146.000 162.600 C 146.220 162.736,146.400 163.276,146.400 163.800 C 146.400 164.324,146.580 164.864,146.800 165.000 C 147.020 165.136,147.200 165.597,147.200 166.024 C 147.200 166.451,147.380 166.800,147.600 166.800 C 147.820 166.800,148.000 167.072,148.000 167.405 C 148.000 167.738,148.161 168.323,148.358 168.705 C 148.555 169.087,149.316 170.660,150.049 172.200 C 150.782 173.740,151.701 175.291,152.091 175.647 C 152.481 176.003,152.800 176.588,152.800 176.947 C 152.800 177.306,152.980 177.600,153.200 177.600 C 153.420 177.600,153.600 177.920,153.600 178.312 C 153.600 178.703,153.960 179.283,154.400 179.600 C 154.840 179.917,155.200 180.457,155.200 180.800 C 155.200 181.143,155.560 181.683,156.000 182.000 C 156.440 182.317,156.800 182.857,156.800 183.200 C 156.800 183.543,157.160 184.083,157.600 184.400 C 158.040 184.717,158.400 185.231,158.400 185.541 C 158.400 185.852,158.732 186.397,159.137 186.753 C 159.543 187.109,160.112 187.850,160.402 188.400 C 161.079 189.683,162.897 191.931,165.300 194.456 C 166.345 195.555,167.200 196.615,167.200 196.813 C 167.200 197.324,180.711 210.826,182.400 212.002 C 183.170 212.539,184.610 213.793,185.600 214.789 C 186.590 215.785,187.895 216.855,188.500 217.168 C 189.105 217.480,189.600 217.885,189.600 218.068 C 189.600 218.919,193.640 218.396,194.618 217.418 C 195.656 216.380,196.063 212.733,195.200 212.200 C 194.980 212.064,194.800 211.603,194.800 211.176 C 194.800 210.749,194.620 210.400,194.400 210.400 C 194.180 210.400,194.000 210.130,194.000 209.800 C 194.000 209.470,193.820 209.200,193.600 209.200 C 193.380 209.200,193.200 208.840,193.200 208.400 C 193.200 207.960,193.020 207.600,192.800 207.600 C 192.580 207.600,192.400 207.240,192.400 206.800 C 192.400 206.360,192.220 206.000,192.000 206.000 C 191.780 206.000,191.600 205.523,191.600 204.940 C 191.600 204.357,191.131 202.872,190.558 201.640 C 189.985 200.408,189.381 199.040,189.215 198.600 C 189.049 198.160,188.528 197.018,188.057 196.062 C 187.586 195.106,187.200 193.981,187.200 193.562 C 187.200 193.143,187.020 192.800,186.800 192.800 C 186.580 192.800,186.400 192.451,186.400 192.024 C 186.400 191.597,186.220 191.136,186.000 191.000 C 185.780 190.864,185.600 190.313,185.600 189.776 C 185.600 189.239,185.420 188.800,185.200 188.800 C 184.980 188.800,184.800 188.361,184.800 187.824 C 184.800 187.287,184.620 186.736,184.400 186.600 C 184.180 186.464,184.000 186.001,184.000 185.571 C 184.000 185.141,183.820 184.432,183.600 183.995 C 183.380 183.558,183.020 182.842,182.800 182.405 C 182.580 181.968,182.400 181.248,182.400 180.805 C 182.400 180.362,182.220 180.000,182.000 180.000 C 181.780 180.000,181.600 179.460,181.600 178.800 C 181.600 178.140,181.420 177.600,181.200 177.600 C 180.980 177.600,180.800 176.970,180.800 176.200 C 180.800 175.430,180.620 174.800,180.400 174.800 C 180.180 174.800,180.000 174.260,180.000 173.600 C 180.000 172.940,179.820 172.400,179.600 172.400 C 179.380 172.400,179.200 171.680,179.200 170.800 C 179.200 169.920,179.020 169.200,178.800 169.200 C 178.580 169.200,178.400 168.671,178.400 168.024 C 178.400 167.377,178.220 166.736,178.000 166.600 C 177.780 166.464,177.600 165.643,177.600 164.776 C 177.600 163.909,177.420 163.200,177.200 163.200 C 176.980 163.200,176.800 162.300,176.800 161.200 C 176.800 160.100,176.620 159.200,176.400 159.200 C 176.180 159.200,176.000 158.246,176.000 157.080 C 176.000 155.914,175.801 154.761,175.557 154.517 C 174.888 153.848,174.834 137.924,175.500 137.701 C 175.775 137.609,176.000 137.098,176.000 136.567 C 176.000 136.035,176.180 135.600,176.400 135.600 C 176.620 135.600,176.800 135.280,176.800 134.888 C 176.800 134.497,177.160 133.917,177.600 133.600 C 178.040 133.283,178.400 132.787,178.400 132.498 C 178.400 132.210,179.030 131.343,179.800 130.573 C 180.570 129.803,181.200 129.004,181.200 128.797 C 181.200 128.393,183.174 126.425,187.416 122.600 C 188.880 121.280,191.429 118.895,193.080 117.300 C 194.731 115.705,196.258 114.400,196.472 114.400 C 196.687 114.400,197.554 113.680,198.400 112.800 C 199.246 111.920,200.105 111.200,200.309 111.200 C 200.514 111.200,201.215 110.690,201.866 110.067 C 202.518 109.445,204.030 108.207,205.226 107.316 C 206.422 106.426,207.836 105.226,208.370 104.649 C 208.903 104.072,209.502 103.600,209.701 103.600 C 209.900 103.600,210.754 102.880,211.600 102.000 C 212.446 101.120,213.318 100.400,213.538 100.400 C 213.758 100.400,215.214 99.140,216.772 97.600 C 218.331 96.060,219.782 94.800,219.997 94.800 C 220.537 94.800,237.200 78.098,237.200 77.557 C 237.200 77.317,237.696 76.644,238.301 76.060 C 239.845 74.574,241.600 72.156,241.600 71.515 C 241.600 71.219,241.960 70.717,242.400 70.400 C 242.840 70.083,243.200 69.543,243.200 69.200 C 243.200 68.857,243.560 68.317,244.000 68.000 C 244.440 67.683,244.800 67.103,244.800 66.712 C 244.800 66.320,244.980 66.000,245.200 66.000 C 245.420 66.000,245.600 65.640,245.600 65.200 C 245.600 64.760,245.780 64.400,246.000 64.400 C 246.220 64.400,246.400 64.040,246.400 63.600 C 246.400 63.160,246.580 62.800,246.800 62.800 C 247.020 62.800,247.200 62.440,247.200 62.000 C 247.200 61.560,247.380 61.200,247.600 61.200 C 247.820 61.200,248.000 60.928,248.000 60.595 C 248.000 60.262,248.208 59.587,248.462 59.095 C 249.458 57.169,249.600 56.783,249.600 56.005 C 249.600 55.562,249.780 55.200,250.000 55.200 C 250.220 55.200,250.400 54.581,250.400 53.824 C 250.400 53.067,250.580 52.336,250.800 52.200 C 251.020 52.064,251.200 51.243,251.200 50.376 C 251.200 49.509,251.365 48.800,251.566 48.800 C 252.326 48.800,253.145 32.985,252.422 32.262 C 252.190 32.030,252.000 30.616,252.000 29.120 C 252.000 27.573,251.827 26.400,251.600 26.400 C 251.380 26.400,251.200 25.601,251.200 24.624 C 251.200 23.647,251.020 22.736,250.800 22.600 C 250.580 22.464,250.400 21.823,250.400 21.176 C 250.400 20.529,250.220 20.000,250.000 20.000 C 249.780 20.000,249.600 19.460,249.600 18.800 C 249.600 18.140,249.420 17.600,249.200 17.600 C 248.980 17.600,248.800 17.060,248.800 16.400 C 248.800 15.740,248.620 15.200,248.400 15.200 C 248.180 15.200,248.000 14.660,248.000 14.000 C 248.000 13.340,247.820 12.800,247.600 12.800 C 247.380 12.800,247.200 12.350,247.200 11.800 C 247.200 11.250,247.020 10.800,246.800 10.800 C 246.580 10.800,246.400 10.440,246.400 10.000 C 246.400 9.560,246.220 9.200,246.000 9.200 C 245.780 9.200,245.600 8.840,245.600 8.400 C 245.600 7.960,245.420 7.600,245.200 7.600 C 244.980 7.600,244.800 7.240,244.800 6.800 C 244.800 6.360,244.620 6.000,244.400 6.000 C 244.180 6.000,244.000 5.722,244.000 5.383 C 244.000 5.044,243.640 4.380,243.200 3.908 C 242.760 3.436,242.400 2.813,242.400 2.525 C 242.400 2.236,242.220 2.000,242.000 2.000 C 241.780 2.000,241.600 1.661,241.600 1.247 C 241.600 -0.279,236.168 -0.576,234.816 0.875 M271.000 82.800 C 270.864 83.020,270.403 83.200,269.976 83.200 C 269.549 83.200,269.200 83.380,269.200 83.600 C 269.200 83.820,268.840 84.000,268.400 84.000 C 267.960 84.000,267.600 84.180,267.600 84.400 C 267.600 84.620,267.161 84.800,266.624 84.800 C 266.087 84.800,265.536 84.980,265.400 85.200 C 265.264 85.420,264.803 85.600,264.376 85.600 C 263.949 85.600,263.600 85.780,263.600 86.000 C 263.600 86.220,263.240 86.400,262.800 86.400 C 262.360 86.400,262.000 86.580,262.000 86.800 C 262.000 87.020,261.550 87.200,261.000 87.200 C 260.450 87.200,260.000 87.380,260.000 87.600 C 260.000 87.820,259.640 88.000,259.200 88.000 C 258.760 88.000,258.400 88.180,258.400 88.400 C 258.400 88.620,258.040 88.800,257.600 88.800 C 257.160 88.800,256.800 88.980,256.800 89.200 C 256.800 89.420,256.440 89.600,256.000 89.600 C 255.560 89.600,255.200 89.780,255.200 90.000 C 255.200 90.220,254.840 90.400,254.400 90.400 C 253.960 90.400,253.600 90.580,253.600 90.800 C 253.600 91.020,253.240 91.200,252.800 91.200 C 252.360 91.200,252.000 91.380,252.000 91.600 C 252.000 91.820,251.640 92.000,251.200 92.000 C 250.760 92.000,250.400 92.180,250.400 92.400 C 250.400 92.620,250.040 92.800,249.600 92.800 C 249.160 92.800,248.800 92.980,248.800 93.200 C 248.800 93.420,248.485 93.606,248.100 93.614 C 246.984 93.635,240.781 96.944,240.467 97.685 C 240.393 97.858,239.988 98.000,239.567 98.000 C 239.145 98.000,238.800 98.180,238.800 98.400 C 238.800 98.620,238.440 98.800,238.000 98.800 C 237.560 98.800,237.200 98.980,237.200 99.200 C 237.200 99.420,236.964 99.600,236.675 99.600 C 236.387 99.600,235.764 99.960,235.292 100.400 C 234.820 100.840,234.156 101.200,233.817 101.200 C 233.478 101.200,233.200 101.380,233.200 101.600 C 233.200 101.820,232.880 102.000,232.488 102.000 C 232.097 102.000,231.517 102.360,231.200 102.800 C 230.883 103.240,230.395 103.600,230.116 103.600 C 229.647 103.600,228.670 104.279,227.384 105.500 C 227.094 105.775,226.647 106.000,226.389 106.000 C 226.132 106.000,225.417 106.540,224.800 107.200 C 224.183 107.860,223.457 108.400,223.186 108.400 C 222.916 108.400,222.403 108.734,222.047 109.143 C 221.691 109.551,221.016 110.007,220.547 110.155 C 220.077 110.303,219.159 110.935,218.506 111.559 C 217.853 112.183,217.126 112.763,216.892 112.847 C 215.709 113.271,206.000 122.525,206.000 123.229 C 206.000 123.431,205.145 124.469,204.100 125.537 C 203.055 126.604,201.930 128.000,201.600 128.639 C 201.270 129.277,200.685 130.149,200.300 130.575 C 199.915 131.002,199.600 131.587,199.600 131.875 C 199.600 132.164,199.465 132.401,199.300 132.403 C 198.941 132.407,198.000 134.344,198.000 135.080 C 198.000 135.366,197.820 135.600,197.600 135.600 C 197.380 135.600,197.200 136.140,197.200 136.800 C 197.200 137.460,197.041 138.000,196.847 138.000 C 196.487 138.000,196.280 138.655,195.524 142.200 C 194.860 145.313,195.243 157.780,196.027 158.580 C 196.232 158.789,196.400 160.004,196.400 161.280 C 196.400 162.560,196.579 163.600,196.800 163.600 C 197.020 163.600,197.200 164.129,197.200 164.776 C 197.200 165.423,197.380 166.064,197.600 166.200 C 197.820 166.336,198.000 166.966,198.000 167.600 C 198.000 168.234,198.180 168.864,198.400 169.000 C 198.620 169.136,198.800 169.687,198.800 170.224 C 198.800 170.761,198.980 171.200,199.200 171.200 C 199.420 171.200,199.600 171.472,199.600 171.805 C 199.600 172.138,199.780 172.768,200.000 173.205 C 200.220 173.642,200.580 174.358,200.800 174.795 C 201.020 175.232,201.200 175.862,201.200 176.195 C 201.200 176.528,201.358 176.800,201.551 176.800 C 201.745 176.800,202.127 177.340,202.400 178.000 C 202.673 178.660,203.055 179.200,203.249 179.200 C 203.442 179.200,203.600 179.560,203.600 180.000 C 203.600 180.440,203.780 180.800,204.000 180.800 C 204.220 180.800,204.400 181.120,204.400 181.512 C 204.400 181.903,204.760 182.483,205.200 182.800 C 205.640 183.117,206.000 183.657,206.000 184.000 C 206.000 184.343,206.360 184.883,206.800 185.200 C 207.240 185.517,207.600 185.972,207.600 186.210 C 207.600 186.449,208.230 187.331,209.000 188.172 C 209.770 189.013,210.400 189.831,210.400 189.991 C 210.400 190.151,210.940 190.846,211.600 191.537 C 212.260 192.228,212.800 192.939,212.800 193.118 C 212.800 193.297,213.430 194.131,214.200 194.972 C 214.970 195.813,215.600 196.650,215.600 196.832 C 215.600 197.014,216.050 197.614,216.600 198.164 C 217.150 198.714,217.600 199.442,217.600 199.782 C 217.600 200.122,217.780 200.400,218.000 200.400 C 218.220 200.400,218.400 200.760,218.400 201.200 C 218.400 201.640,218.580 202.000,218.800 202.000 C 219.041 202.000,219.200 203.659,219.200 206.176 C 219.200 208.529,219.025 210.461,218.800 210.600 C 218.580 210.736,218.400 211.636,218.400 212.600 C 218.400 213.564,218.220 214.464,218.000 214.600 C 217.780 214.736,217.600 215.276,217.600 215.800 C 217.600 216.324,217.420 216.864,217.200 217.000 C 216.980 217.136,216.800 217.676,216.800 218.200 C 216.800 218.724,216.620 219.264,216.400 219.400 C 216.180 219.536,216.000 220.076,216.000 220.600 C 216.000 221.124,215.820 221.664,215.600 221.800 C 215.380 221.936,215.200 222.487,215.200 223.024 C 215.200 223.561,215.020 224.000,214.800 224.000 C 214.580 224.000,214.400 224.360,214.400 224.800 C 214.400 225.240,214.220 225.600,214.000 225.600 C 213.780 225.600,213.600 226.039,213.600 226.576 C 213.600 227.113,213.420 227.664,213.200 227.800 C 212.980 227.936,212.800 228.667,212.800 229.424 C 212.800 230.181,212.980 230.800,213.200 230.800 C 213.420 230.800,213.600 231.087,213.600 231.437 C 213.600 231.788,213.960 232.169,214.400 232.284 C 214.840 232.399,215.200 232.652,215.200 232.847 C 215.200 234.409,220.732 232.296,222.847 229.925 C 223.203 229.526,223.612 229.200,223.756 229.200 C 223.900 229.200,224.998 228.255,226.197 227.100 C 227.396 225.945,229.242 224.190,230.301 223.200 C 231.359 222.210,232.849 220.590,233.612 219.600 C 234.375 218.611,235.315 217.509,235.700 217.153 C 236.085 216.797,236.400 216.347,236.400 216.153 C 236.401 215.959,236.851 215.277,237.400 214.638 C 237.950 213.999,238.400 213.352,238.400 213.200 C 238.400 213.048,238.850 212.401,239.400 211.762 C 239.949 211.123,240.399 210.375,240.400 210.100 C 240.400 209.825,240.572 209.600,240.782 209.600 C 240.992 209.600,241.282 208.970,241.426 208.200 C 241.571 207.430,241.849 206.800,242.045 206.800 C 242.240 206.800,242.400 206.440,242.400 206.000 C 242.400 205.560,242.580 205.200,242.800 205.200 C 243.020 205.200,243.200 204.851,243.200 204.424 C 243.200 203.997,243.380 203.536,243.600 203.400 C 243.820 203.264,244.000 202.533,244.000 201.776 C 244.000 201.019,244.180 200.400,244.400 200.400 C 244.620 200.400,244.800 199.680,244.800 198.800 C 244.800 197.920,244.980 197.200,245.200 197.200 C 245.451 197.200,245.600 194.733,245.600 190.600 C 245.600 186.467,245.451 184.000,245.200 184.000 C 244.980 184.000,244.800 183.460,244.800 182.800 C 244.800 182.140,244.620 181.600,244.400 181.600 C 244.180 181.600,244.000 180.981,244.000 180.224 C 244.000 179.467,243.820 178.736,243.600 178.600 C 243.380 178.464,243.200 177.913,243.200 177.376 C 243.200 176.839,243.020 176.400,242.800 176.400 C 242.580 176.400,242.400 176.040,242.400 175.600 C 242.400 175.160,242.236 174.800,242.035 174.800 C 241.834 174.800,241.549 174.080,241.400 173.200 C 241.251 172.320,240.966 171.600,240.765 171.600 C 240.564 171.600,240.400 171.240,240.400 170.800 C 240.400 170.360,240.265 169.997,240.100 169.994 C 239.935 169.990,239.360 169.090,238.821 167.994 C 238.283 166.897,237.698 166.000,237.521 166.000 C 237.345 166.000,237.200 165.764,237.200 165.475 C 237.200 165.187,236.885 164.602,236.500 164.175 C 236.115 163.749,235.545 162.905,235.232 162.300 C 234.920 161.695,234.515 161.200,234.332 161.200 C 234.150 161.200,234.000 160.930,234.000 160.600 C 234.000 160.270,233.842 160.000,233.649 160.000 C 233.455 160.000,233.073 159.460,232.800 158.800 C 232.527 158.140,232.145 157.600,231.951 157.600 C 231.758 157.600,231.600 157.280,231.600 156.888 C 231.600 156.497,231.240 155.917,230.800 155.600 C 230.360 155.283,230.000 154.703,230.000 154.312 C 230.000 153.920,229.820 153.600,229.600 153.600 C 229.380 153.600,229.200 153.240,229.200 152.800 C 229.200 152.360,229.020 152.000,228.800 152.000 C 228.580 152.000,228.400 151.640,228.400 151.200 C 228.400 150.760,228.220 150.400,228.000 150.400 C 227.780 150.400,227.600 149.860,227.600 149.200 C 227.600 148.540,227.420 148.000,227.200 148.000 C 226.965 148.000,226.800 146.608,226.800 144.624 C 226.800 142.767,226.980 141.136,227.200 141.000 C 227.420 140.864,227.600 140.133,227.600 139.376 C 227.600 138.619,227.780 138.000,228.000 138.000 C 228.220 138.000,228.400 137.640,228.400 137.200 C 228.400 136.760,228.580 136.400,228.800 136.400 C 229.020 136.400,229.200 136.040,229.200 135.600 C 229.200 135.160,229.380 134.800,229.600 134.800 C 229.820 134.800,230.000 134.440,230.000 134.000 C 230.000 133.560,230.180 133.200,230.400 133.200 C 230.620 133.200,230.800 132.880,230.800 132.488 C 230.800 132.097,231.160 131.517,231.600 131.200 C 232.040 130.883,232.400 130.391,232.400 130.108 C 232.400 129.825,232.940 129.028,233.600 128.337 C 234.260 127.646,234.800 126.955,234.800 126.800 C 234.800 126.313,250.527 110.614,252.052 109.578 C 253.347 108.698,255.035 107.232,260.107 102.582 C 260.935 101.822,261.772 101.200,261.966 101.200 C 262.160 101.200,263.238 100.300,264.361 99.200 C 265.485 98.100,266.561 97.200,266.754 97.200 C 266.946 97.200,267.845 96.480,268.752 95.600 C 269.659 94.720,270.581 94.000,270.800 94.000 C 271.020 94.000,271.200 93.820,271.200 93.600 C 271.200 93.380,271.388 93.200,271.618 93.200 C 271.848 93.200,272.486 92.750,273.036 92.200 C 273.586 91.650,274.173 91.200,274.340 91.200 C 275.751 91.200,277.600 88.391,277.600 86.246 C 277.600 85.011,277.420 84.000,277.200 84.000 C 276.980 84.000,276.800 83.749,276.800 83.443 C 276.800 82.424,271.589 81.847,271.000 82.800 "
              stroke="none" fill="#67daff" fill-rule="evenodd"></path>
    </g>
</svg>