<svg id="svg" version="1.1" width="400" height="400" viewBox="0 0 400 400" xmlns="http://www.w3.org/2000/svg"
     xmlns:xlink="http://www.w3.org/1999/xlink">
    <g id="svgg">
        <path id="path0"
              d="M1.467 1.467 C 1.320 1.613,1.200 48.139,1.200 104.857 L 1.200 207.980 2.500 207.749 C 3.868 207.506,5.982 205.515,14.336 196.600 C 18.709 191.934,26.511 183.748,32.800 177.229 C 34.890 175.063,38.940 170.821,41.800 167.804 C 44.660 164.786,48.057 161.222,49.349 159.882 C 51.912 157.224,54.483 154.496,63.000 145.395 C 66.080 142.104,69.230 138.762,70.000 137.968 C 70.770 137.175,74.370 133.416,78.000 129.616 C 81.630 125.816,86.310 120.934,88.400 118.768 C 90.490 116.601,93.370 113.540,94.800 111.964 C 96.230 110.388,97.779 108.717,98.243 108.250 C 98.707 107.782,102.545 103.447,106.774 98.616 C 111.002 93.785,114.808 89.590,115.231 89.293 C 115.654 88.997,116.000 88.499,116.000 88.187 C 116.000 87.874,116.450 87.323,117.000 86.963 C 117.551 86.603,118.226 85.833,118.502 85.254 C 118.778 84.674,119.408 84.022,119.902 83.805 C 120.460 83.560,120.800 83.060,120.800 82.484 C 120.800 81.824,121.130 81.443,121.949 81.158 C 123.177 80.730,123.999 77.842,123.265 76.531 C 122.750 75.610,51.108 4.052,50.416 3.768 C 49.903 3.557,49.931 3.465,50.579 3.224 C 51.299 2.956,51.284 2.912,50.379 2.640 C 49.806 2.468,49.607 2.261,49.900 2.140 C 50.175 2.026,50.400 1.768,50.400 1.567 C 50.400 1.146,1.886 1.047,1.467 1.467 M99.395 302.087 C 99.178 302.575,98.550 303.077,98.000 303.204 C 97.450 303.330,96.765 303.921,96.478 304.517 C 96.131 305.237,95.643 305.600,95.022 305.600 C 94.369 305.600,94.014 305.889,93.846 306.559 C 93.714 307.086,92.974 307.890,92.203 308.345 C 91.431 308.801,90.800 309.446,90.800 309.779 C 90.800 310.112,90.348 310.498,89.796 310.637 C 89.245 310.775,88.486 311.409,88.110 312.044 C 87.735 312.680,87.264 313.200,87.065 313.200 C 86.865 313.200,85.583 314.370,84.214 315.800 C 82.846 317.230,81.595 318.400,81.433 318.400 C 81.271 318.400,79.369 320.155,77.207 322.300 C 75.044 324.445,70.168 329.170,66.371 332.800 C 52.314 346.239,44.086 354.296,22.473 375.781 C 6.288 391.871,4.364 393.916,4.502 394.884 C 4.608 395.625,4.457 396.023,4.028 396.138 C 3.683 396.231,49.030 396.307,104.800 396.306 C 192.230 396.305,223.008 396.058,197.000 395.566 C 193.022 395.491,191.569 395.381,193.500 395.302 C 197.385 395.144,198.537 394.000,194.813 394.000 C 193.210 394.000,192.870 393.884,193.055 393.400 C 193.182 393.070,193.086 392.800,192.843 392.800 C 192.599 392.800,192.400 392.517,192.400 392.171 C 192.400 391.561,191.497 390.400,191.022 390.400 C 190.593 390.400,184.800 384.421,184.800 383.978 C 184.800 383.406,183.780 382.400,183.200 382.400 C 182.538 382.400,181.600 381.361,181.600 380.629 C 181.600 380.283,181.324 380.000,180.987 380.000 C 180.649 380.000,179.775 379.415,179.045 378.700 C 178.314 377.985,177.330 377.135,176.858 376.812 C 176.386 376.488,176.000 375.903,176.000 375.512 C 176.000 375.120,175.807 374.800,175.571 374.800 C 175.005 374.800,174.000 373.777,174.000 373.200 C 174.000 372.620,172.994 371.600,172.422 371.600 C 171.855 371.600,166.000 365.745,166.000 365.178 C 166.000 364.614,164.983 363.600,164.418 363.600 C 164.177 363.600,163.177 362.835,162.198 361.900 C 161.218 360.965,159.963 359.789,159.408 359.286 C 158.854 358.783,158.400 358.095,158.400 357.757 C 158.400 357.047,157.460 356.000,156.822 356.000 C 156.255 356.000,150.400 350.145,150.400 349.578 C 150.400 349.006,149.380 348.000,148.800 348.000 C 148.210 348.000,147.200 346.990,147.200 346.400 C 147.200 345.815,146.192 344.800,145.612 344.800 C 145.367 344.800,144.925 344.598,144.629 344.351 C 142.478 342.552,141.600 341.592,141.600 341.040 C 141.600 340.688,141.407 340.400,141.171 340.400 C 140.605 340.400,139.600 339.377,139.600 338.800 C 139.600 338.220,138.594 337.200,138.022 337.200 C 137.455 337.200,131.600 331.345,131.600 330.778 C 131.600 330.212,130.583 329.200,130.014 329.200 C 129.097 329.200,124.000 324.105,124.000 323.188 C 124.000 322.608,122.985 321.600,122.400 321.600 C 121.738 321.600,120.800 320.561,120.800 319.829 C 120.800 319.483,120.526 319.200,120.191 319.200 C 119.399 319.200,115.200 315.001,115.200 314.209 C 115.200 313.874,114.917 313.600,114.571 313.600 C 113.839 313.600,112.800 312.662,112.800 312.000 C 112.800 311.344,111.763 310.400,111.043 310.400 C 110.705 310.400,110.017 309.946,109.514 309.392 C 109.011 308.837,107.835 307.582,106.900 306.602 C 105.965 305.623,105.200 304.623,105.200 304.382 C 105.200 303.771,104.167 302.800,103.517 302.800 C 103.220 302.800,102.717 302.440,102.400 302.000 C 101.611 300.905,99.899 300.954,99.395 302.087 "
              stroke="none" fill="#67daff" fill-rule="evenodd"></path>
        <path id="path1"
              d="M50.059 1.842 C 49.595 2.368,49.648 2.487,50.438 2.694 C 51.301 2.920,51.310 2.952,50.579 3.224 C 49.931 3.465,49.903 3.557,50.416 3.768 C 51.108 4.052,122.750 75.610,123.265 76.531 C 123.999 77.842,123.177 80.730,121.949 81.158 C 121.130 81.443,120.800 81.824,120.800 82.484 C 120.800 83.060,120.460 83.560,119.902 83.805 C 119.408 84.022,118.778 84.674,118.502 85.254 C 118.226 85.833,117.551 86.603,117.000 86.963 C 116.450 87.323,116.000 87.874,116.000 88.187 C 116.000 88.499,115.654 88.997,115.231 89.293 C 114.808 89.590,111.002 93.785,106.774 98.616 C 102.545 103.447,98.707 107.782,98.243 108.250 C 97.779 108.717,96.230 110.388,94.800 111.964 C 93.370 113.540,90.490 116.601,88.400 118.768 C 86.310 120.934,81.630 125.816,78.000 129.616 C 74.370 133.416,70.770 137.175,70.000 137.968 C 69.230 138.762,66.080 142.104,63.000 145.395 C 54.483 154.496,51.912 157.224,49.349 159.882 C 48.057 161.222,44.660 164.786,41.800 167.804 C 38.940 170.821,34.890 175.063,32.800 177.229 C 30.710 179.396,26.570 183.717,23.600 186.831 C 20.630 189.945,17.825 192.877,17.367 193.347 C 16.909 193.816,13.697 197.215,10.228 200.900 C 6.551 204.808,3.619 207.600,3.194 207.600 C 2.038 207.600,1.200 208.038,1.200 208.643 C 1.200 209.999,4.059 209.281,5.769 207.495 C 7.214 205.985,24.171 187.848,26.053 185.800 C 26.458 185.360,28.006 183.715,29.494 182.144 C 30.982 180.574,34.540 176.816,37.400 173.794 C 40.260 170.772,43.770 167.091,45.200 165.615 C 50.582 160.059,62.555 147.392,69.600 139.801 C 73.794 135.281,82.101 126.458,85.200 123.230 C 86.630 121.740,90.050 118.135,92.800 115.219 C 95.550 112.303,98.970 108.703,100.400 107.220 C 101.830 105.736,103.902 103.549,105.005 102.361 C 106.108 101.172,109.610 97.410,112.786 94.000 C 115.962 90.590,119.380 86.897,120.381 85.794 C 121.381 84.690,124.450 81.369,127.200 78.414 C 129.950 75.459,132.920 72.265,133.800 71.316 C 134.680 70.366,137.065 67.866,139.100 65.760 C 141.135 63.653,142.800 61.775,142.800 61.587 C 142.800 61.399,143.340 60.926,144.000 60.536 C 144.660 60.146,145.200 59.669,145.200 59.475 C 145.200 59.281,146.370 57.981,147.800 56.585 C 149.230 55.190,150.400 53.929,150.400 53.783 C 150.400 53.637,151.615 52.286,153.100 50.780 C 154.585 49.275,156.020 47.808,156.289 47.521 C 156.558 47.235,156.948 46.820,157.156 46.600 C 159.777 43.825,161.200 42.188,161.200 41.948 C 161.200 41.786,161.551 41.543,161.980 41.406 C 162.408 41.270,162.861 40.853,162.986 40.480 C 163.110 40.106,164.579 38.360,166.249 36.600 C 167.919 34.840,171.111 31.466,173.343 29.103 C 175.574 26.740,179.245 22.892,181.500 20.551 C 183.755 18.211,185.600 16.151,185.600 15.975 C 185.600 15.798,185.970 15.536,186.423 15.393 C 186.876 15.249,187.412 14.695,187.615 14.161 C 187.818 13.627,188.438 12.983,188.992 12.731 C 189.546 12.478,190.000 12.117,190.000 11.928 C 190.000 11.738,191.256 10.282,192.790 8.692 C 194.325 7.101,195.833 5.507,196.140 5.150 C 196.448 4.792,196.933 4.422,197.217 4.328 C 197.501 4.233,197.786 3.491,197.850 2.678 L 197.966 1.200 124.283 1.215 C 58.683 1.229,50.541 1.298,50.059 1.842 M198.800 199.332 C 198.250 199.590,190.119 207.450,180.730 216.800 C 171.342 226.150,155.322 242.024,145.130 252.075 C 115.480 281.317,106.257 290.422,89.287 307.200 C 73.928 322.387,53.326 342.614,39.275 356.302 C 35.604 359.878,32.420 362.983,32.200 363.200 C 31.980 363.418,31.383 364.002,30.874 364.498 C 30.364 364.994,24.023 371.295,16.782 378.500 C 5.306 389.920,3.462 391.600,2.405 391.600 C 1.222 391.600,1.195 391.643,1.263 393.438 C 1.339 395.434,1.985 396.408,3.094 396.196 C 3.482 396.122,3.994 396.047,4.231 396.031 C 4.468 396.014,4.591 395.506,4.504 394.900 C 4.363 393.911,6.177 391.981,22.473 375.781 C 44.086 354.296,52.314 346.239,66.371 332.800 C 70.168 329.170,75.044 324.445,77.207 322.300 C 79.369 320.155,81.271 318.400,81.433 318.400 C 81.595 318.400,82.846 317.230,84.214 315.800 C 85.583 314.370,86.865 313.200,87.065 313.200 C 87.264 313.200,87.735 312.680,88.110 312.044 C 88.486 311.409,89.245 310.775,89.796 310.637 C 90.348 310.498,90.800 310.112,90.800 309.779 C 90.800 309.446,91.431 308.801,92.203 308.345 C 92.974 307.890,93.714 307.086,93.846 306.559 C 94.014 305.889,94.369 305.600,95.022 305.600 C 95.643 305.600,96.131 305.237,96.478 304.517 C 96.765 303.921,97.450 303.330,98.000 303.204 C 98.550 303.077,99.178 302.575,99.395 302.087 C 99.899 300.954,101.611 300.905,102.400 302.000 C 102.717 302.440,103.220 302.800,103.517 302.800 C 104.167 302.800,105.200 303.771,105.200 304.382 C 105.200 304.623,105.965 305.623,106.900 306.602 C 107.835 307.582,109.011 308.837,109.514 309.392 C 110.017 309.946,110.705 310.400,111.043 310.400 C 111.763 310.400,112.800 311.344,112.800 312.000 C 112.800 312.662,113.839 313.600,114.571 313.600 C 114.917 313.600,115.200 313.874,115.200 314.209 C 115.200 314.543,116.186 315.803,117.391 317.009 C 118.597 318.214,119.857 319.200,120.191 319.200 C 120.526 319.200,120.800 319.483,120.800 319.829 C 120.800 320.561,121.738 321.600,122.400 321.600 C 122.985 321.600,124.000 322.608,124.000 323.188 C 124.000 323.707,124.509 324.358,126.293 326.122 C 128.606 328.408,129.563 329.200,130.014 329.200 C 130.583 329.200,131.600 330.212,131.600 330.778 C 131.600 331.345,137.455 337.200,138.022 337.200 C 138.594 337.200,139.600 338.220,139.600 338.800 C 139.600 339.377,140.605 340.400,141.171 340.400 C 141.407 340.400,141.600 340.688,141.600 341.040 C 141.600 341.599,142.343 342.414,144.575 344.300 C 144.900 344.575,145.367 344.800,145.612 344.800 C 146.192 344.800,147.200 345.815,147.200 346.400 C 147.200 346.990,148.210 348.000,148.800 348.000 C 149.380 348.000,150.400 349.006,150.400 349.578 C 150.400 350.145,156.255 356.000,156.822 356.000 C 157.460 356.000,158.400 357.047,158.400 357.757 C 158.400 358.095,158.854 358.783,159.408 359.286 C 159.963 359.789,161.218 360.965,162.198 361.900 C 163.177 362.835,164.177 363.600,164.418 363.600 C 164.983 363.600,166.000 364.614,166.000 365.178 C 166.000 365.745,171.855 371.600,172.422 371.600 C 172.994 371.600,174.000 372.620,174.000 373.200 C 174.000 373.777,175.005 374.800,175.571 374.800 C 175.807 374.800,176.000 375.120,176.000 375.512 C 176.000 375.903,176.386 376.488,176.858 376.812 C 177.330 377.135,178.314 377.985,179.045 378.700 C 179.775 379.415,180.649 380.000,180.987 380.000 C 181.324 380.000,181.600 380.283,181.600 380.629 C 181.600 381.361,182.538 382.400,183.200 382.400 C 183.780 382.400,184.800 383.406,184.800 383.978 C 184.800 384.421,190.593 390.400,191.022 390.400 C 191.497 390.400,192.400 391.561,192.400 392.171 C 192.400 392.517,192.599 392.800,192.843 392.800 C 193.086 392.800,193.182 393.070,193.055 393.400 C 192.870 393.884,193.210 394.000,194.813 394.000 C 198.608 394.000,197.394 395.185,193.500 395.282 C 177.216 395.686,220.582 396.070,299.867 396.223 C 386.357 396.391,395.193 396.350,395.767 395.775 C 397.488 394.055,396.304 390.400,394.026 390.400 C 393.375 390.400,393.200 390.146,393.200 389.200 C 393.200 388.183,393.046 388.000,392.190 388.000 C 391.388 388.000,391.131 387.753,390.940 386.800 C 390.808 386.140,390.487 385.600,390.226 385.600 C 389.430 385.600,388.361 384.623,388.246 383.789 C 388.178 383.296,387.661 382.856,386.869 382.617 C 386.029 382.364,385.600 381.980,385.600 381.483 C 385.600 381.017,385.150 380.561,384.419 380.285 C 383.600 379.976,383.201 379.526,383.119 378.819 C 383.031 378.062,382.669 377.703,381.715 377.421 C 380.771 377.144,380.363 376.744,380.183 375.921 C 379.981 375.005,379.723 374.800,378.768 374.800 C 377.746 374.800,377.600 374.655,377.600 373.639 C 377.600 372.709,377.362 372.395,376.400 372.060 C 375.740 371.830,375.200 371.390,375.200 371.083 C 375.200 370.361,373.916 369.200,373.119 369.200 C 372.751 369.200,372.402 368.712,372.260 368.000 C 372.074 367.070,371.806 366.800,371.068 366.800 C 370.336 366.800,370.030 366.499,369.745 365.500 C 369.485 364.591,369.097 364.160,368.455 364.068 C 367.871 363.984,367.393 363.526,367.145 362.813 C 366.871 362.029,366.398 361.620,365.577 361.455 C 364.667 361.273,364.400 361.002,364.400 360.260 C 364.400 359.513,364.133 359.247,363.200 359.060 C 362.280 358.876,362.000 358.603,362.000 357.890 C 362.000 356.651,361.284 356.000,359.920 356.000 C 358.948 356.000,358.800 355.845,358.800 354.827 C 358.800 353.844,358.621 353.633,357.700 353.527 C 356.828 353.426,356.573 353.166,356.470 352.269 C 356.377 351.458,356.034 351.031,355.254 350.759 C 354.607 350.533,353.986 349.900,353.719 349.190 C 353.380 348.292,353.015 348.000,352.235 348.000 C 351.398 348.000,351.200 347.809,351.200 347.000 C 351.200 346.400,350.960 345.980,350.600 345.950 C 350.270 345.923,349.775 345.878,349.500 345.850 C 349.225 345.822,348.938 345.350,348.862 344.800 C 348.663 343.366,348.066 342.800,346.751 342.800 C 345.739 342.800,345.600 342.655,345.600 341.600 C 345.600 340.533,345.467 340.400,344.400 340.400 C 343.345 340.400,343.200 340.261,343.200 339.249 C 343.200 338.346,342.940 337.989,342.000 337.600 C 341.340 337.327,340.800 336.801,340.800 336.431 C 340.800 335.505,340.009 334.800,338.970 334.800 C 338.323 334.800,338.038 334.492,337.860 333.600 C 337.669 332.647,337.412 332.400,336.610 332.400 C 335.792 332.400,335.600 332.205,335.600 331.370 C 335.600 330.548,335.278 330.206,334.004 329.670 C 332.817 329.172,332.407 328.769,332.404 328.100 C 332.401 327.368,332.177 327.200,331.200 327.200 C 330.141 327.200,330.000 327.063,330.000 326.034 C 330.000 325.122,329.738 324.751,328.800 324.336 C 328.140 324.044,327.600 323.525,327.600 323.182 C 327.600 322.298,326.788 321.600,325.759 321.600 C 325.140 321.600,324.754 321.243,324.460 320.400 C 324.186 319.614,323.770 319.200,323.253 319.200 C 322.696 319.200,322.384 318.836,322.192 317.965 C 321.999 317.083,321.590 316.615,320.758 316.325 C 320.041 316.075,319.501 315.545,319.349 314.940 C 319.181 314.270,318.740 313.888,317.952 313.730 C 317.189 313.578,316.800 313.254,316.800 312.773 C 316.800 312.373,316.260 311.726,315.600 311.336 C 314.940 310.946,314.400 310.342,314.400 309.994 C 314.400 309.036,313.570 308.400,312.320 308.400 C 311.342 308.400,311.200 308.248,311.200 307.200 C 311.200 306.133,311.067 306.000,310.000 306.000 C 308.926 306.000,308.800 305.871,308.800 304.765 C 308.800 303.776,308.574 303.445,307.664 303.102 C 307.005 302.853,306.347 302.195,306.098 301.536 C 305.783 300.702,305.402 300.400,304.661 300.400 C 303.859 300.400,303.627 300.176,303.527 299.300 C 303.428 298.447,303.162 298.172,302.338 298.077 C 301.568 297.988,301.201 297.658,301.006 296.881 C 300.694 295.639,300.160 295.215,298.900 295.206 C 298.168 295.201,298.000 294.976,298.000 294.000 C 298.000 292.933,297.867 292.800,296.800 292.800 C 295.726 292.800,295.600 292.671,295.600 291.565 C 295.600 290.578,295.374 290.245,294.471 289.904 C 293.849 289.670,293.114 288.965,292.837 288.339 C 292.449 287.463,292.064 287.200,291.166 287.200 C 290.525 287.200,290.021 287.065,290.047 286.900 C 290.266 285.516,289.929 284.800,289.058 284.800 C 288.337 284.800,288.029 284.495,287.748 283.500 C 287.472 282.520,287.063 282.106,286.091 281.817 C 285.118 281.529,284.800 281.206,284.800 280.507 C 284.800 279.797,284.519 279.524,283.600 279.340 C 282.848 279.190,282.400 278.853,282.400 278.439 C 282.400 277.766,281.083 276.400,280.435 276.400 C 280.239 276.400,279.890 275.860,279.660 275.200 C 279.318 274.220,279.018 274.000,278.021 274.000 C 276.931 274.000,276.800 273.871,276.800 272.800 C 276.800 271.739,276.664 271.600,275.625 271.600 C 274.592 271.600,274.436 271.443,274.325 270.300 C 274.221 269.223,273.977 268.934,272.900 268.617 C 272.137 268.393,271.600 267.971,271.600 267.597 C 271.600 266.768,270.816 266.000,269.970 266.000 C 269.547 266.000,269.212 265.562,269.062 264.811 C 268.901 264.005,268.523 263.546,267.891 263.387 C 267.353 263.252,266.775 262.668,266.525 262.007 C 266.211 261.174,265.780 260.826,264.946 260.731 C 264.033 260.627,263.774 260.376,263.673 259.500 C 263.567 258.579,263.356 258.400,262.373 258.400 C 261.454 258.400,261.200 258.221,261.200 257.574 C 261.200 256.351,260.467 255.200,259.686 255.197 C 259.309 255.196,258.693 254.656,258.319 253.997 C 257.910 253.280,257.309 252.800,256.819 252.800 C 256.260 252.800,256.000 252.540,256.000 251.981 C 256.000 251.492,255.520 250.889,254.806 250.481 C 254.149 250.107,253.445 249.323,253.241 248.739 C 252.986 248.013,252.480 247.593,251.635 247.408 C 250.670 247.196,250.400 246.925,250.400 246.168 C 250.400 245.270,249.700 244.932,248.300 245.153 C 248.135 245.179,248.000 244.696,248.000 244.080 C 248.000 242.836,247.364 242.000,246.418 242.000 C 246.075 242.000,245.556 241.460,245.264 240.800 C 244.849 239.862,244.478 239.600,243.566 239.600 C 242.543 239.600,242.400 239.456,242.400 238.427 C 242.400 237.444,242.221 237.233,241.300 237.127 C 240.474 237.032,240.166 236.751,240.062 236.000 C 239.871 234.625,239.275 234.000,238.151 234.000 C 237.502 234.000,237.200 233.771,237.200 233.280 C 237.200 232.884,236.984 232.344,236.720 232.080 C 236.456 231.816,235.916 231.600,235.520 231.600 C 235.023 231.600,234.800 231.297,234.800 230.624 C 234.800 229.654,234.291 229.097,233.263 228.941 C 232.968 228.897,232.689 228.802,232.642 228.730 C 232.596 228.659,232.248 228.105,231.870 227.500 C 231.428 226.795,230.836 226.400,230.217 226.400 C 229.463 226.400,229.226 226.161,229.127 225.300 C 229.027 224.436,228.764 224.173,227.900 224.073 C 226.999 223.970,226.800 223.749,226.800 222.853 C 226.800 221.529,226.144 220.800,224.952 220.800 C 224.290 220.800,223.996 220.494,223.800 219.600 C 223.596 218.670,223.319 218.400,222.568 218.400 C 222.036 218.400,221.578 218.220,221.550 218.000 C 221.523 217.780,221.455 217.420,221.400 217.200 C 221.345 216.980,221.278 216.659,221.250 216.488 C 221.222 216.316,220.660 215.972,220.000 215.722 C 219.204 215.422,218.800 214.993,218.800 214.449 C 218.800 213.495,217.788 212.800,216.400 212.800 C 216.180 212.800,216.000 212.431,216.000 211.979 C 216.000 211.440,215.616 211.024,214.880 210.768 C 214.119 210.503,213.637 209.964,213.380 209.089 C 213.086 208.091,212.748 207.771,211.884 207.672 C 211.014 207.572,210.717 207.286,210.534 206.372 C 210.353 205.467,210.082 205.200,209.340 205.200 C 208.598 205.200,208.327 204.933,208.145 204.023 C 207.980 203.202,207.571 202.729,206.787 202.455 C 206.066 202.204,205.617 201.730,205.532 201.132 C 205.439 200.477,205.013 200.086,204.100 199.817 C 203.385 199.607,202.800 199.292,202.800 199.117 C 202.800 198.643,199.947 198.796,198.800 199.332 "
              stroke="none" fill="#67daff" fill-rule="evenodd"></path>
        <path id="path2"
              d="M199.200 2.763 C 199.200 4.198,198.879 4.658,195.300 8.363 C 193.155 10.583,189.600 14.321,187.400 16.670 C 185.200 19.019,183.028 21.314,182.574 21.770 C 182.120 22.227,180.695 23.770,179.407 25.200 C 176.972 27.904,173.174 31.949,164.257 41.331 C 155.241 50.818,150.890 55.361,149.576 56.660 C 149.387 56.847,148.010 58.322,146.516 59.938 C 145.022 61.553,142.630 64.090,141.200 65.574 C 138.842 68.022,136.720 70.321,128.827 78.978 C 127.412 80.530,125.972 82.092,125.627 82.449 C 125.282 82.806,123.200 85.028,121.000 87.388 C 117.316 91.339,109.661 99.387,108.242 100.800 C 106.986 102.051,106.561 102.499,105.200 104.000 C 104.430 104.849,103.620 105.728,103.400 105.952 C 102.546 106.823,100.204 109.226,99.460 109.996 C 99.207 110.257,98.370 111.179,97.600 112.043 C 96.393 113.399,95.718 114.114,94.322 115.520 C 94.169 115.674,93.359 116.592,92.522 117.560 C 91.685 118.528,90.525 119.788,89.945 120.360 C 89.366 120.932,88.135 122.300,87.212 123.400 C 84.958 126.084,78.953 132.772,76.660 135.152 C 76.253 135.574,75.713 136.137,75.460 136.403 C 75.207 136.669,74.444 137.452,73.764 138.143 C 73.084 138.834,72.414 139.717,72.275 140.103 C 72.136 140.490,71.563 141.016,71.002 141.272 C 70.440 141.528,69.875 142.158,69.746 142.672 C 69.613 143.204,69.111 143.707,68.582 143.840 C 68.028 143.979,67.488 144.545,67.246 145.239 C 67.023 145.880,66.404 146.570,65.871 146.773 C 65.333 146.978,64.787 147.597,64.645 148.165 C 64.482 148.813,64.017 149.281,63.374 149.442 C 62.663 149.621,62.291 150.047,62.126 150.869 C 61.948 151.758,61.615 152.097,60.746 152.271 C 59.857 152.449,59.600 152.721,59.600 153.485 C 59.600 154.207,59.287 154.588,58.427 154.912 C 57.422 155.292,57.216 155.628,56.993 157.253 C 56.689 159.459,56.055 158.666,66.400 169.007 C 72.838 175.442,73.543 176.148,83.047 185.651 C 91.062 193.666,92.957 195.562,99.897 202.502 C 107.455 210.061,108.508 211.114,116.194 218.800 C 124.088 226.693,126.020 228.625,133.046 235.651 C 144.515 247.121,145.250 247.667,146.760 245.848 C 147.012 245.545,147.732 245.194,148.361 245.068 C 149.156 244.909,149.581 244.529,149.759 243.820 C 149.900 243.259,150.199 242.800,150.423 242.800 C 150.648 242.800,151.537 242.080,152.400 241.200 C 153.263 240.320,154.245 239.600,154.584 239.600 C 154.942 239.600,155.200 239.250,155.200 238.765 C 155.200 238.207,155.594 237.782,156.390 237.481 C 157.089 237.217,157.733 236.594,157.951 235.969 C 158.160 235.368,158.729 234.801,159.261 234.664 C 159.777 234.531,160.507 233.877,160.881 233.211 C 161.281 232.501,161.890 232.000,162.354 232.000 C 162.868 232.000,163.189 231.687,163.272 231.104 C 163.345 230.592,163.883 229.977,164.524 229.671 C 165.142 229.375,165.840 228.711,166.076 228.194 C 166.311 227.677,167.020 227.040,167.652 226.779 C 168.334 226.496,168.800 226.001,168.800 225.559 C 168.800 225.094,169.185 224.719,169.829 224.557 C 170.402 224.413,171.021 223.870,171.226 223.333 C 171.428 222.802,172.133 222.059,172.794 221.683 C 173.454 221.308,173.996 220.769,173.997 220.487 C 173.999 220.204,174.630 219.601,175.400 219.147 C 176.170 218.693,176.800 218.073,176.800 217.771 C 176.800 217.468,177.327 216.948,177.972 216.615 C 178.616 216.281,179.261 215.636,179.406 215.181 C 179.550 214.726,180.105 214.188,180.639 213.985 C 181.173 213.782,181.817 213.162,182.069 212.608 C 182.322 212.054,182.693 211.600,182.894 211.600 C 183.096 211.600,184.493 210.340,186.000 208.800 C 187.507 207.260,188.933 206.000,189.170 206.000 C 189.406 206.000,189.600 205.815,189.600 205.589 C 189.600 205.136,196.409 198.204,197.098 197.955 C 197.567 197.786,202.084 193.863,203.206 192.650 C 205.593 190.070,208.301 187.600,208.742 187.600 C 208.964 187.600,209.264 187.230,209.407 186.777 C 209.551 186.324,210.106 185.788,210.641 185.584 C 211.177 185.381,211.781 184.777,211.984 184.241 C 212.188 183.706,212.726 183.150,213.181 183.006 C 213.636 182.861,214.281 182.216,214.615 181.572 C 214.948 180.927,215.397 180.400,215.613 180.400 C 215.829 180.400,217.239 179.140,218.745 177.600 C 220.252 176.060,221.662 174.800,221.878 174.800 C 222.095 174.800,222.478 174.347,222.730 173.794 C 222.982 173.241,223.637 172.584,224.186 172.333 C 224.735 172.083,225.291 171.544,225.421 171.135 C 225.550 170.726,226.184 170.119,226.828 169.785 C 227.473 169.452,228.000 168.908,228.000 168.576 C 228.000 168.244,228.630 167.601,229.400 167.147 C 230.170 166.693,230.800 166.073,230.800 165.771 C 230.800 165.468,231.305 164.959,231.922 164.640 C 232.539 164.321,233.255 163.596,233.514 163.030 C 233.772 162.463,234.263 162.000,234.605 162.000 C 234.947 162.000,235.587 161.389,236.028 160.643 C 236.468 159.897,237.180 159.194,237.609 159.082 C 238.039 158.969,238.559 158.433,238.766 157.889 C 238.977 157.334,239.589 156.789,240.165 156.645 C 240.808 156.483,241.281 156.017,241.438 155.390 C 241.593 154.773,242.068 154.298,242.684 154.143 C 243.289 153.991,243.830 153.458,244.066 152.784 C 244.279 152.173,244.846 151.572,245.326 151.448 C 245.807 151.324,246.507 150.677,246.881 150.011 C 247.256 149.345,247.823 148.800,248.142 148.800 C 248.460 148.800,249.093 148.170,249.547 147.400 C 250.001 146.630,250.654 146.000,250.996 146.000 C 251.339 146.000,251.792 145.547,252.003 144.993 C 252.213 144.439,252.842 143.812,253.400 143.600 C 253.958 143.388,254.593 142.744,254.812 142.168 C 255.031 141.593,255.575 141.027,256.021 140.910 C 256.467 140.794,257.099 140.181,257.426 139.549 C 257.753 138.917,258.292 138.400,258.624 138.400 C 258.956 138.400,259.599 137.770,260.053 137.000 C 260.512 136.223,261.200 135.600,261.600 135.600 C 262.040 135.600,262.483 135.137,262.735 134.414 C 262.996 133.666,263.518 133.136,264.148 132.977 C 264.763 132.823,265.299 132.292,265.542 131.595 C 265.796 130.866,266.268 130.417,266.868 130.332 C 267.490 130.244,267.844 129.889,267.932 129.266 C 268.020 128.644,268.521 128.142,269.432 127.761 C 270.355 127.375,270.800 126.924,270.800 126.374 C 270.800 125.827,271.196 125.420,272.002 125.139 C 272.748 124.879,273.297 124.354,273.447 123.757 C 273.590 123.187,274.079 122.695,274.643 122.553 C 275.168 122.422,275.825 121.840,276.102 121.261 C 276.380 120.681,277.081 119.980,277.661 119.702 C 278.240 119.425,278.827 118.748,278.965 118.199 C 279.131 117.537,279.494 117.200,280.042 117.200 C 280.596 117.200,281.021 116.799,281.328 115.984 C 281.604 115.253,282.165 114.674,282.733 114.531 C 283.298 114.389,283.840 113.832,284.078 113.147 C 284.307 112.490,284.769 112.000,285.159 112.000 C 286.031 112.000,286.800 111.231,286.800 110.359 C 286.800 109.962,287.301 109.504,288.002 109.259 C 288.675 109.024,289.370 108.406,289.579 107.854 C 289.786 107.312,290.340 106.746,290.811 106.596 C 291.282 106.447,291.850 105.802,292.073 105.162 C 292.337 104.405,292.755 104.000,293.274 104.000 C 293.789 104.000,294.228 103.581,294.519 102.810 C 294.789 102.094,295.407 101.467,296.070 101.236 C 296.731 101.005,297.270 100.459,297.418 99.869 C 297.588 99.192,298.027 98.815,298.832 98.654 C 299.611 98.498,300.000 98.177,300.000 97.690 C 300.000 96.767,300.753 96.000,301.658 96.000 C 302.042 96.000,302.591 95.513,302.878 94.917 C 303.165 94.321,303.850 93.729,304.400 93.601 C 305.035 93.452,305.447 93.042,305.529 92.477 C 305.612 91.903,306.145 91.383,307.029 91.014 C 308.069 90.579,308.400 90.201,308.400 89.447 C 308.400 88.661,308.629 88.427,309.498 88.327 C 310.365 88.227,310.639 87.948,310.801 87.003 C 310.964 86.057,311.253 85.764,312.186 85.603 C 313.028 85.457,313.431 85.114,313.600 84.401 C 313.732 83.842,314.178 83.341,314.618 83.259 C 315.727 83.053,316.333 82.476,316.476 81.487 C 316.552 80.963,316.981 80.544,317.585 80.402 C 318.188 80.261,318.658 79.803,318.795 79.223 C 319.014 78.292,319.513 77.870,320.900 77.441 C 321.319 77.312,321.600 76.829,321.600 76.239 C 321.600 75.465,321.833 75.226,322.684 75.127 C 323.447 75.038,323.835 74.714,323.993 74.038 C 324.214 73.093,324.708 72.671,326.100 72.241 C 326.525 72.110,326.800 71.628,326.800 71.013 C 326.800 70.456,326.935 69.986,327.100 69.969 C 328.896 69.786,329.582 69.224,329.594 67.927 C 329.598 67.495,329.987 67.208,330.677 67.127 C 331.507 67.029,331.829 66.708,332.082 65.726 C 332.336 64.736,332.653 64.424,333.505 64.326 C 334.364 64.227,334.627 63.963,334.727 63.100 C 334.824 62.254,335.066 62.000,335.778 62.000 C 336.805 62.000,337.440 61.398,337.659 60.218 C 337.740 59.779,338.242 59.332,338.800 59.200 C 339.358 59.068,339.860 58.621,339.941 58.182 C 340.150 57.058,340.784 56.400,341.659 56.400 C 342.181 56.400,342.494 56.031,342.656 55.222 C 342.834 54.332,343.143 54.015,343.922 53.922 C 344.703 53.830,345.034 53.490,345.282 52.526 C 345.536 51.536,345.853 51.224,346.705 51.126 C 347.490 51.036,347.836 50.744,347.929 50.093 C 348.012 49.506,348.528 48.990,349.396 48.627 C 350.270 48.262,350.781 47.749,350.868 47.150 C 350.953 46.562,351.353 46.150,351.985 46.002 C 352.588 45.861,353.058 45.403,353.195 44.823 C 353.414 43.892,353.913 43.470,355.300 43.041 C 355.719 42.912,356.000 42.429,356.000 41.839 C 356.000 41.067,356.233 40.826,357.077 40.727 C 357.907 40.629,358.229 40.308,358.482 39.326 C 358.735 38.343,359.055 38.023,359.889 37.926 C 360.656 37.837,361.035 37.514,361.200 36.811 C 361.358 36.135,361.832 35.706,362.694 35.459 C 363.635 35.189,363.988 34.833,364.078 34.064 C 364.163 33.347,364.501 32.961,365.185 32.801 C 365.788 32.660,366.258 32.203,366.395 31.623 C 366.614 30.692,367.113 30.270,368.500 29.841 C 368.925 29.710,369.200 29.228,369.200 28.613 C 369.200 28.056,369.335 27.586,369.500 27.569 C 371.296 27.386,371.982 26.824,371.994 25.527 C 371.998 25.092,372.389 24.808,373.097 24.727 C 373.820 24.643,374.243 24.328,374.340 23.800 C 374.560 22.595,375.192 22.000,376.249 22.000 C 377.039 22.000,377.200 21.797,377.200 20.800 C 377.200 19.733,377.333 19.600,378.400 19.600 C 379.376 19.600,379.601 19.432,379.606 18.700 C 379.615 17.432,380.045 16.902,381.200 16.740 C 381.891 16.643,382.241 16.311,382.332 15.666 C 382.420 15.048,382.918 14.543,383.804 14.173 C 384.659 13.815,385.189 13.292,385.271 12.723 C 385.352 12.162,385.765 11.747,386.385 11.602 C 386.988 11.461,387.458 11.003,387.595 10.423 C 387.814 9.492,388.313 9.070,389.700 8.641 C 390.125 8.510,390.400 8.028,390.400 7.413 C 390.400 6.603,390.598 6.400,391.386 6.400 C 392.603 6.400,393.045 5.559,393.123 3.100 L 393.183 1.200 296.191 1.200 L 199.200 1.200 199.200 2.763 M395.106 1.463 C 395.604 1.570,395.927 1.795,395.823 1.963 C 395.719 2.131,395.798 2.793,395.998 3.434 C 396.341 4.532,396.357 4.506,396.281 3.000 C 396.210 1.602,396.074 1.392,395.200 1.334 C 394.307 1.276,394.297 1.290,395.106 1.463 M395.858 5.475 C 395.695 5.956,395.166 6.426,394.681 6.520 C 393.900 6.672,393.891 6.697,394.600 6.739 C 395.765 6.810,396.502 6.214,396.316 5.352 C 396.169 4.669,396.127 4.680,395.858 5.475 M393.246 7.067 C 393.221 7.324,393.084 7.864,392.941 8.267 C 392.740 8.836,392.794 8.897,393.179 8.542 C 393.452 8.291,393.589 7.751,393.484 7.342 C 393.379 6.934,393.272 6.810,393.246 7.067 M390.517 10.815 C 390.271 11.467,390.230 12.000,390.427 12.000 C 390.804 12.000,391.415 10.082,391.130 9.797 C 391.039 9.705,390.763 10.164,390.517 10.815 M388.600 11.906 C 388.380 12.068,388.143 12.560,388.072 13.000 C 387.916 13.981,386.906 14.815,386.202 14.545 C 385.915 14.435,385.562 14.538,385.417 14.773 C 385.045 15.375,386.888 15.317,387.725 14.700 C 388.243 14.318,389.437 11.575,389.072 11.606 C 389.032 11.609,388.820 11.744,388.600 11.906 M384.584 16.827 C 384.439 17.061,384.416 17.349,384.533 17.467 C 384.820 17.753,385.600 17.248,385.600 16.776 C 385.600 16.265,384.909 16.299,384.584 16.827 M382.782 18.100 C 382.737 18.265,382.675 18.535,382.644 18.700 C 382.613 18.865,382.445 19.225,382.270 19.500 C 382.087 19.788,382.137 20.000,382.389 20.000 C 382.937 20.000,383.343 18.993,383.069 18.313 C 382.956 18.031,382.826 17.935,382.782 18.100 M379.744 21.042 C 379.431 22.044,379.434 22.492,379.756 22.675 C 380.000 22.814,380.074 22.788,379.919 22.617 C 379.765 22.445,379.900 22.043,380.219 21.724 C 380.851 21.092,380.985 20.161,380.488 19.855 C 380.317 19.749,379.982 20.283,379.744 21.042 M374.509 26.513 C 374.163 27.278,373.719 27.600,373.009 27.600 C 372.401 27.600,372.000 27.827,372.000 28.172 C 372.000 28.625,372.266 28.668,373.273 28.379 C 374.923 27.906,375.297 27.499,375.134 26.359 C 375.001 25.435,374.995 25.437,374.509 26.513 M371.704 29.819 C 371.389 30.161,371.353 30.448,371.607 30.604 C 371.826 30.740,372.117 30.562,372.252 30.208 C 372.583 29.347,372.314 29.157,371.704 29.819 M369.492 31.842 C 369.331 32.002,369.200 32.409,369.200 32.747 C 369.200 33.197,369.318 33.242,369.645 32.915 C 369.890 32.670,370.021 32.263,369.937 32.010 C 369.852 31.757,369.652 31.681,369.492 31.842 M366.862 33.500 C 366.963 33.981,366.187 35.662,365.880 35.630 C 364.902 35.526,364.400 35.652,364.400 36.000 C 364.400 36.574,366.224 36.494,366.719 35.898 C 367.383 35.098,367.752 33.200,367.243 33.200 C 367.000 33.200,366.828 33.335,366.862 33.500 M362.600 38.400 C 362.464 38.620,362.713 38.800,363.153 38.800 C 363.593 38.800,364.064 38.620,364.200 38.400 C 364.336 38.180,364.087 38.000,363.647 38.000 C 363.207 38.000,362.736 38.180,362.600 38.400 M359.000 41.200 C 358.860 41.426,359.188 41.600,359.753 41.600 C 360.303 41.600,360.864 41.420,361.000 41.200 C 361.140 40.974,360.812 40.800,360.247 40.800 C 359.697 40.800,359.136 40.980,359.000 41.200 M358.100 43.065 C 357.435 43.333,357.459 44.000,358.133 44.000 C 358.427 44.000,358.667 43.730,358.667 43.400 C 358.667 43.070,358.652 42.814,358.633 42.832 C 358.615 42.849,358.375 42.954,358.100 43.065 M356.400 44.402 C 356.400 44.696,356.129 45.236,355.798 45.602 C 355.286 46.168,355.282 46.267,355.772 46.267 C 356.347 46.267,357.034 44.500,356.619 44.086 C 356.499 43.965,356.400 44.107,356.400 44.402 M353.679 46.700 C 353.887 47.488,353.071 48.800,352.373 48.800 C 351.948 48.800,351.600 48.980,351.600 49.200 C 351.600 49.771,353.027 49.696,353.496 49.100 C 354.108 48.323,354.472 46.400,354.008 46.400 C 353.783 46.400,353.636 46.535,353.679 46.700 M350.800 50.746 C 350.800 51.010,350.395 51.389,349.900 51.588 L 349.000 51.949 349.913 51.975 C 350.796 51.999,351.557 51.023,351.049 50.516 C 350.912 50.379,350.800 50.482,350.800 50.746 M348.164 53.000 C 348.026 53.550,347.633 54.000,347.290 54.000 C 346.947 54.000,346.773 54.106,346.903 54.237 C 347.462 54.795,348.700 53.935,348.700 52.989 C 348.700 51.723,348.484 51.727,348.164 53.000 M344.200 56.827 C 343.393 57.344,343.221 57.596,343.676 57.598 C 344.048 57.599,344.466 57.417,344.604 57.193 C 344.742 56.970,344.993 56.872,345.161 56.976 C 345.329 57.080,345.467 56.903,345.467 56.582 C 345.467 56.262,345.452 56.013,345.433 56.029 C 345.415 56.045,344.860 56.404,344.200 56.827 M340.276 59.900 C 340.098 60.175,340.060 60.400,340.190 60.400 C 340.321 60.400,340.235 60.760,340.000 61.200 C 339.765 61.640,339.237 62.000,338.829 62.000 C 338.420 62.000,337.995 62.236,337.884 62.525 C 337.739 62.903,338.002 63.002,338.829 62.881 C 340.300 62.665,340.890 61.933,340.729 60.524 C 340.643 59.779,340.491 59.569,340.276 59.900 M337.399 64.001 C 337.245 64.251,336.732 64.612,336.259 64.803 C 335.465 65.123,335.485 65.151,336.513 65.175 C 337.165 65.190,337.723 64.944,337.862 64.583 C 338.152 63.828,337.788 63.371,337.399 64.001 M332.179 68.470 C 332.018 68.981,331.506 69.732,331.043 70.138 L 330.200 70.877 331.176 70.738 C 331.900 70.636,332.242 70.253,332.499 69.256 C 332.895 67.722,332.625 67.059,332.179 68.470 M327.884 72.880 C 327.566 73.082,327.674 73.188,328.200 73.188 C 328.640 73.188,329.268 73.018,329.595 72.812 C 330.060 72.517,329.992 72.450,329.279 72.504 C 328.778 72.542,328.150 72.711,327.884 72.880 M327.150 73.800 C 327.123 73.910,327.075 74.135,327.044 74.300 C 326.901 75.065,326.321 75.545,325.787 75.340 C 325.464 75.216,325.200 75.314,325.200 75.557 C 325.200 76.161,326.609 76.119,327.096 75.500 C 327.313 75.225,327.485 74.685,327.479 74.300 C 327.468 73.650,327.265 73.342,327.150 73.800 M324.417 76.200 C 324.010 78.335,324.013 78.596,324.432 77.887 C 324.664 77.496,324.773 76.866,324.673 76.487 C 324.574 76.109,324.459 75.980,324.417 76.200 M322.054 78.867 C 322.025 79.234,321.884 79.864,321.741 80.267 C 321.541 80.833,321.595 80.896,321.975 80.546 C 322.246 80.297,322.387 79.667,322.288 79.146 C 322.190 78.626,322.084 78.500,322.054 78.867 M319.710 80.723 C 319.441 80.895,319.165 81.387,319.099 81.817 C 318.898 83.109,318.447 83.537,317.537 83.299 C 316.946 83.145,316.765 83.220,316.961 83.537 C 317.497 84.403,318.801 84.041,319.252 82.900 C 319.491 82.295,319.848 81.485,320.046 81.100 C 320.449 80.318,320.413 80.277,319.710 80.723 M313.817 86.372 C 313.429 87.000,314.167 87.152,314.716 86.558 C 315.139 86.100,315.126 86.000,314.639 86.000 C 314.314 86.000,313.944 86.168,313.817 86.372 M312.600 88.423 L 311.000 89.141 312.251 89.170 C 312.939 89.187,313.730 88.926,314.008 88.590 C 314.768 87.675,314.374 87.628,312.600 88.423 M305.600 95.456 C 305.600 95.817,305.285 96.351,304.900 96.643 C 304.311 97.090,304.298 97.177,304.820 97.187 C 305.161 97.194,305.656 96.984,305.920 96.720 C 306.501 96.139,306.557 94.800,306.000 94.800 C 305.780 94.800,305.600 95.095,305.600 95.456 M294.000 107.200 C 293.176 107.464,293.141 107.526,293.800 107.554 C 294.240 107.573,294.870 107.413,295.200 107.200 C 295.901 106.747,295.414 106.747,294.000 107.200 M279.492 121.842 C 279.331 122.002,279.200 122.409,279.200 122.747 C 279.200 123.197,279.318 123.242,279.645 122.915 C 279.890 122.670,280.021 122.263,279.937 122.010 C 279.852 121.757,279.652 121.681,279.492 121.842 M250.600 150.000 C 250.308 150.473,250.699 150.473,251.800 150.000 C 252.571 149.669,252.569 149.655,251.724 149.628 C 251.242 149.613,250.736 149.780,250.600 150.000 M245.088 156.133 C 244.642 157.266,244.715 157.845,245.238 157.322 C 245.478 157.082,245.608 156.551,245.526 156.142 C 245.382 155.426,245.366 155.426,245.088 156.133 M210.406 190.900 C 210.411 191.628,210.486 191.685,210.800 191.200 C 211.301 190.424,211.301 190.000,210.800 190.000 C 210.580 190.000,210.403 190.405,210.406 190.900 "
              stroke="none" fill="#67daff" fill-rule="evenodd"></path>
        <path id="path3"
              d="M197.968 1.500 C 197.950 1.665,197.897 2.327,197.851 2.972 C 197.805 3.617,197.527 4.224,197.234 4.322 C 196.940 4.420,196.448 4.793,196.140 5.150 C 195.833 5.508,194.325 7.101,192.790 8.692 C 191.256 10.282,190.000 11.738,190.000 11.928 C 190.000 12.117,189.546 12.478,188.992 12.731 C 188.438 12.983,187.818 13.627,187.615 14.161 C 187.412 14.695,186.876 15.249,186.423 15.393 C 185.970 15.536,185.600 15.798,185.600 15.975 C 185.600 16.151,183.755 18.211,181.500 20.551 C 179.245 22.892,175.574 26.740,173.343 29.103 C 171.111 31.466,167.919 34.840,166.249 36.600 C 164.579 38.360,163.110 40.106,162.986 40.480 C 162.861 40.853,162.408 41.270,161.980 41.406 C 161.551 41.543,161.200 41.786,161.200 41.948 C 161.200 42.109,160.435 43.068,159.500 44.078 C 158.565 45.088,157.580 46.158,157.311 46.457 C 157.042 46.756,156.592 47.231,156.311 47.513 C 152.502 51.337,150.400 53.566,150.400 53.783 C 150.400 53.929,149.230 55.190,147.800 56.585 C 146.370 57.981,145.200 59.281,145.200 59.475 C 145.200 59.669,144.660 60.146,144.000 60.536 C 143.340 60.926,142.800 61.399,142.800 61.587 C 142.800 61.775,141.135 63.653,139.100 65.760 C 137.065 67.866,134.680 70.366,133.800 71.316 C 132.920 72.265,129.950 75.459,127.200 78.414 C 124.450 81.369,121.381 84.690,120.381 85.794 C 119.380 86.897,115.962 90.590,112.786 94.000 C 109.610 97.410,106.108 101.172,105.005 102.361 C 103.902 103.549,101.830 105.736,100.400 107.220 C 98.970 108.703,95.550 112.303,92.800 115.219 C 90.050 118.135,86.630 121.740,85.200 123.230 C 82.101 126.458,73.794 135.281,69.600 139.801 C 62.555 147.392,50.582 160.059,45.200 165.615 C 43.770 167.091,40.260 170.772,37.400 173.794 C 34.540 176.816,30.982 180.574,29.494 182.144 C 28.006 183.715,26.458 185.360,26.053 185.800 C 24.171 187.848,7.214 205.985,5.769 207.495 C 4.428 208.896,3.875 209.200,2.669 209.200 L 1.200 209.200 1.200 300.400 L 1.200 391.600 2.408 391.600 C 3.461 391.600,5.321 389.904,16.782 378.500 C 24.023 371.295,30.364 364.994,30.874 364.498 C 31.383 364.002,31.980 363.418,32.200 363.200 C 32.420 362.983,35.604 359.878,39.275 356.302 C 53.326 342.614,73.928 322.387,89.287 307.200 C 106.471 290.209,116.206 280.600,145.132 252.075 C 155.324 242.024,171.353 226.150,180.752 216.800 C 198.067 199.575,198.957 198.800,201.419 198.800 C 202.421 198.800,202.800 198.623,202.800 198.157 C 202.800 197.750,203.020 197.599,203.400 197.745 C 203.730 197.871,204.000 197.790,204.000 197.564 C 204.000 197.338,204.172 197.259,204.382 197.389 C 204.879 197.696,206.149 195.765,205.811 195.218 C 205.658 194.970,205.963 194.800,206.562 194.800 C 207.588 194.800,208.432 193.788,208.122 192.929 C 208.024 192.655,208.423 192.404,209.076 192.329 C 209.950 192.229,210.227 191.967,210.322 191.152 C 210.414 190.351,210.815 189.958,212.022 189.484 C 213.072 189.072,213.600 188.615,213.600 188.120 C 213.600 187.660,214.059 187.202,214.800 186.922 C 215.714 186.577,216.000 186.219,216.000 185.417 C 216.000 184.810,216.211 184.391,216.500 184.426 C 218.122 184.624,219.039 183.709,218.830 182.100 C 218.793 181.820,219.191 181.600,219.733 181.600 C 220.266 181.600,220.889 181.375,221.117 181.100 C 221.527 180.606,221.600 180.380,221.600 179.600 C 221.600 179.380,222.031 179.200,222.557 179.200 C 223.569 179.200,224.000 178.541,224.000 176.993 C 224.000 176.223,224.237 176.028,225.298 175.925 C 226.390 175.820,226.629 175.609,226.802 174.600 C 226.915 173.940,227.096 173.478,227.204 173.573 C 227.820 174.115,229.200 173.192,229.200 172.237 C 229.200 171.483,229.418 171.186,230.000 171.150 C 231.559 171.053,231.799 170.958,231.700 170.482 C 231.645 170.217,231.760 170.000,231.956 170.000 C 232.151 170.000,232.286 169.691,232.256 169.314 C 232.218 168.847,232.584 168.559,233.400 168.412 C 234.345 168.242,234.627 167.963,234.727 167.098 C 234.841 166.107,235.359 165.773,236.500 165.953 C 236.665 165.979,236.776 165.865,236.746 165.700 C 236.473 164.168,237.371 162.800,238.650 162.800 C 239.877 162.800,240.000 162.693,240.000 161.627 C 240.000 160.644,240.179 160.433,241.100 160.327 C 241.964 160.227,242.227 159.964,242.327 159.100 C 242.416 158.323,242.680 158.000,243.227 158.000 C 243.652 158.000,244.003 157.775,244.006 157.500 C 244.011 157.125,244.096 157.133,244.350 157.532 C 244.588 157.908,244.761 157.697,244.937 156.815 C 245.126 155.871,245.532 155.421,246.594 154.977 C 247.668 154.528,248.000 154.154,248.000 153.395 C 248.000 152.848,248.135 152.421,248.300 152.447 C 249.792 152.683,250.356 152.334,250.475 151.100 C 250.575 150.058,250.798 149.773,251.600 149.666 C 252.806 149.505,253.389 148.997,253.395 148.104 C 253.398 147.733,253.826 147.337,254.363 147.210 C 255.282 146.992,256.094 145.735,255.726 145.100 C 255.631 144.935,255.923 144.778,256.376 144.750 C 257.958 144.654,258.199 144.560,258.100 144.082 C 258.045 143.817,258.149 143.600,258.332 143.600 C 258.514 143.600,258.649 143.200,258.632 142.711 C 258.607 142.030,258.877 141.772,259.782 141.610 C 260.625 141.459,261.032 141.112,261.201 140.399 C 261.332 139.850,261.700 139.395,262.019 139.389 C 263.027 139.371,263.600 138.786,263.600 137.776 C 263.600 137.239,263.825 136.773,264.100 136.739 C 264.375 136.706,264.780 136.636,265.000 136.585 C 265.220 136.534,265.603 136.472,265.850 136.446 C 266.098 136.421,266.408 135.860,266.540 135.200 C 266.716 134.321,267.006 134.000,267.625 134.000 C 268.192 134.000,268.615 133.614,268.914 132.824 C 269.165 132.157,269.745 131.550,270.252 131.423 C 271.115 131.206,271.853 129.905,271.667 128.926 C 271.616 128.659,272.143 128.397,272.873 128.326 C 273.870 128.229,274.222 127.973,274.399 127.215 C 274.543 126.598,274.998 126.142,275.614 125.997 C 276.314 125.832,276.658 125.423,276.804 124.582 C 276.974 123.603,277.198 123.404,278.105 123.422 C 278.853 123.437,279.200 123.241,279.200 122.802 C 279.200 122.449,279.416 121.944,279.680 121.680 C 279.944 121.416,279.989 121.190,279.780 121.177 C 279.571 121.165,280.030 120.940,280.800 120.677 C 281.696 120.372,282.242 119.909,282.316 119.391 C 282.380 118.945,282.964 118.346,283.616 118.057 C 284.538 117.649,284.800 117.274,284.800 116.366 C 284.800 115.315,284.929 115.200,286.113 115.200 C 287.247 115.200,287.438 115.054,287.514 114.132 C 287.621 112.841,287.609 112.854,288.824 112.672 C 289.535 112.565,289.834 112.236,289.927 111.462 C 289.996 110.878,290.221 110.377,290.427 110.350 C 290.632 110.322,291.145 110.278,291.567 110.250 C 291.988 110.222,292.483 110.050,292.667 109.867 C 293.011 109.522,293.065 109.319,293.150 108.050 C 293.183 107.555,293.607 107.219,294.400 107.060 C 295.343 106.871,295.600 106.609,295.600 105.837 C 295.600 105.062,295.833 104.826,296.698 104.727 C 297.565 104.627,297.839 104.348,298.001 103.403 C 298.165 102.452,298.452 102.164,299.403 101.999 C 300.062 101.885,300.616 101.614,300.635 101.396 C 300.722 100.388,301.356 99.600,302.078 99.600 C 302.586 99.600,303.028 99.180,303.313 98.426 C 303.556 97.780,304.171 97.030,304.678 96.758 C 305.185 96.487,305.600 95.935,305.600 95.532 C 305.600 95.130,305.791 94.800,306.024 94.800 C 306.257 94.800,306.336 94.620,306.200 94.400 C 306.056 94.166,306.466 94.000,307.186 94.000 C 308.227 94.000,308.456 93.819,308.652 92.842 C 308.827 91.963,309.164 91.627,310.045 91.451 C 310.684 91.323,311.184 91.080,311.156 90.909 C 310.923 89.484,311.315 88.876,312.857 88.270 C 314.265 87.717,314.439 87.529,314.012 87.014 C 313.488 86.383,314.348 85.673,315.085 86.129 C 315.568 86.428,316.919 85.316,316.634 84.854 C 316.498 84.635,316.573 84.340,316.800 84.200 C 317.027 84.060,317.092 83.749,316.944 83.509 C 316.768 83.225,316.974 83.152,317.537 83.299 C 318.447 83.537,318.898 83.109,319.099 81.817 C 319.251 80.836,319.868 80.440,320.845 80.696 C 321.433 80.850,321.655 80.623,321.846 79.672 C 322.087 78.467,322.928 77.785,323.636 78.222 C 323.836 78.346,324.014 78.302,324.031 78.124 C 324.186 76.484,325.256 74.940,325.943 75.365 C 326.136 75.484,326.632 75.194,327.047 74.722 C 327.461 74.249,327.562 74.002,327.270 74.173 C 326.832 74.430,326.831 74.339,327.267 73.642 C 327.556 73.179,327.929 72.777,328.096 72.750 C 328.263 72.723,328.580 72.655,328.800 72.600 C 329.020 72.545,329.391 72.478,329.624 72.450 C 329.857 72.422,329.921 72.195,329.766 71.945 C 329.607 71.688,330.007 71.035,330.684 70.443 C 331.344 69.867,332.012 68.992,332.169 68.498 C 332.354 67.914,332.772 67.600,333.365 67.600 C 333.866 67.600,334.602 67.240,335.000 66.800 C 335.457 66.295,335.543 66.000,335.233 66.000 C 334.895 66.000,334.928 65.814,335.343 65.400 C 335.673 65.070,336.108 64.800,336.309 64.800 C 336.720 64.800,337.927 63.565,337.971 63.100 C 337.987 62.935,338.000 62.620,338.000 62.400 C 338.000 62.180,338.354 62.000,338.786 62.000 C 339.514 62.000,340.299 61.103,340.337 60.228 C 340.346 60.023,340.949 59.663,341.677 59.428 C 342.578 59.136,343.041 58.713,343.128 58.100 C 343.250 57.241,343.426 57.129,344.800 57.039 C 345.403 56.999,345.458 56.848,345.550 54.982 C 345.578 54.422,345.825 53.994,346.100 54.030 C 347.319 54.188,348.000 53.954,348.000 53.376 C 348.000 53.033,348.178 52.863,348.395 52.997 C 348.615 53.133,348.693 52.987,348.571 52.668 C 348.427 52.293,348.751 51.956,349.509 51.692 C 350.220 51.444,350.865 50.809,351.182 50.044 C 351.490 49.300,351.988 48.800,352.422 48.800 C 353.074 48.800,353.879 47.456,353.679 46.700 C 353.610 46.436,354.864 46.221,355.700 46.353 C 355.865 46.379,355.981 46.265,355.957 46.100 C 355.848 45.347,356.548 44.000,357.047 44.000 C 357.351 44.000,357.600 43.801,357.600 43.557 C 357.600 43.314,357.832 43.204,358.116 43.313 C 358.442 43.438,358.663 43.145,358.715 42.520 C 358.835 41.074,359.111 40.800,360.447 40.800 C 361.107 40.800,361.549 40.641,361.429 40.447 C 361.102 39.917,362.757 38.000,363.542 38.000 C 363.994 38.000,364.255 37.638,364.314 36.932 C 364.420 35.648,364.483 35.574,365.530 35.495 C 366.252 35.441,366.967 34.355,366.843 33.500 C 366.806 33.245,367.651 33.121,368.680 33.230 C 368.987 33.262,369.763 31.581,369.662 31.100 C 369.628 30.935,370.080 30.800,370.667 30.800 C 371.253 30.800,371.622 30.689,371.486 30.552 C 371.350 30.416,371.484 30.059,371.783 29.759 C 372.083 29.459,372.234 28.851,372.118 28.407 C 371.945 27.748,372.101 27.600,372.962 27.600 C 373.707 27.600,374.155 27.298,374.485 26.573 C 374.742 26.009,375.551 25.297,376.282 24.991 C 377.014 24.686,377.588 24.293,377.559 24.118 C 377.406 23.206,377.704 22.841,378.700 22.727 C 379.331 22.654,379.817 22.344,379.839 22.000 C 379.988 19.712,379.989 19.709,380.924 19.888 C 381.761 20.048,383.087 19.099,382.951 18.439 C 382.843 17.914,383.305 17.217,383.627 17.417 C 384.152 17.741,385.644 16.062,385.514 15.293 C 385.436 14.828,385.692 14.597,386.327 14.560 C 387.477 14.494,388.022 13.974,388.105 12.860 C 388.169 12.018,388.466 11.833,389.526 11.976 C 389.815 12.015,390.256 11.505,390.506 10.842 C 390.815 10.024,391.275 9.599,391.938 9.519 C 392.689 9.428,392.944 9.130,393.037 8.236 C 393.164 7.021,393.759 6.417,394.836 6.406 C 395.741 6.397,396.334 4.821,395.954 3.434 C 395.778 2.793,395.713 2.140,395.811 1.983 C 395.987 1.697,393.596 1.071,393.333 1.334 C 393.257 1.410,393.140 2.363,393.073 3.451 C 392.925 5.883,392.627 6.400,391.376 6.400 C 390.598 6.400,390.400 6.606,390.400 7.413 C 390.400 8.028,390.125 8.510,389.700 8.641 C 388.313 9.070,387.814 9.492,387.595 10.423 C 387.458 11.003,386.988 11.461,386.385 11.602 C 385.765 11.747,385.352 12.162,385.271 12.723 C 385.189 13.292,384.659 13.815,383.804 14.173 C 382.918 14.543,382.420 15.048,382.332 15.666 C 382.241 16.311,381.891 16.643,381.200 16.740 C 380.045 16.902,379.615 17.432,379.606 18.700 C 379.601 19.432,379.376 19.600,378.400 19.600 C 377.333 19.600,377.200 19.733,377.200 20.800 C 377.200 21.797,377.039 22.000,376.249 22.000 C 375.192 22.000,374.560 22.595,374.340 23.800 C 374.243 24.328,373.820 24.643,373.097 24.727 C 372.389 24.808,371.998 25.092,371.994 25.527 C 371.982 26.824,371.296 27.386,369.500 27.569 C 369.335 27.586,369.200 28.056,369.200 28.613 C 369.200 29.228,368.925 29.710,368.500 29.841 C 367.113 30.270,366.614 30.692,366.395 31.623 C 366.258 32.203,365.788 32.660,365.185 32.801 C 364.501 32.961,364.163 33.347,364.078 34.064 C 363.988 34.833,363.635 35.189,362.694 35.459 C 361.832 35.706,361.358 36.135,361.200 36.811 C 361.035 37.514,360.656 37.837,359.889 37.926 C 359.055 38.023,358.735 38.343,358.482 39.326 C 358.229 40.308,357.907 40.629,357.077 40.727 C 356.233 40.826,356.000 41.067,356.000 41.839 C 356.000 42.429,355.719 42.912,355.300 43.041 C 353.913 43.470,353.414 43.892,353.195 44.823 C 353.058 45.403,352.588 45.861,351.985 46.002 C 351.353 46.150,350.953 46.562,350.868 47.150 C 350.781 47.749,350.270 48.262,349.396 48.627 C 348.528 48.990,348.012 49.506,347.929 50.093 C 347.836 50.744,347.490 51.036,346.705 51.126 C 345.853 51.224,345.536 51.536,345.282 52.526 C 345.034 53.490,344.703 53.830,343.922 53.922 C 343.143 54.015,342.834 54.332,342.656 55.222 C 342.494 56.031,342.181 56.400,341.659 56.400 C 340.784 56.400,340.150 57.058,339.941 58.182 C 339.860 58.621,339.358 59.068,338.800 59.200 C 338.242 59.332,337.740 59.779,337.659 60.218 C 337.440 61.398,336.805 62.000,335.778 62.000 C 335.066 62.000,334.824 62.254,334.727 63.100 C 334.627 63.963,334.364 64.227,333.505 64.326 C 332.653 64.424,332.336 64.736,332.082 65.726 C 331.829 66.708,331.507 67.029,330.677 67.127 C 329.987 67.208,329.598 67.495,329.594 67.927 C 329.582 69.224,328.896 69.786,327.100 69.969 C 326.935 69.986,326.800 70.456,326.800 71.013 C 326.800 71.628,326.525 72.110,326.100 72.241 C 324.708 72.671,324.214 73.093,323.993 74.038 C 323.835 74.714,323.447 75.038,322.684 75.127 C 321.833 75.226,321.600 75.465,321.600 76.239 C 321.600 76.829,321.319 77.312,320.900 77.441 C 319.513 77.870,319.014 78.292,318.795 79.223 C 318.658 79.803,318.188 80.261,317.585 80.402 C 316.981 80.544,316.552 80.963,316.476 81.487 C 316.333 82.476,315.727 83.053,314.618 83.259 C 314.178 83.341,313.732 83.842,313.600 84.401 C 313.431 85.114,313.028 85.457,312.186 85.603 C 311.253 85.764,310.964 86.057,310.801 87.003 C 310.639 87.948,310.365 88.227,309.498 88.327 C 308.629 88.427,308.400 88.661,308.400 89.447 C 308.400 90.201,308.069 90.579,307.029 91.014 C 306.145 91.383,305.612 91.903,305.529 92.477 C 305.447 93.042,305.035 93.452,304.400 93.601 C 303.850 93.729,303.165 94.321,302.878 94.917 C 302.591 95.513,302.042 96.000,301.658 96.000 C 300.753 96.000,300.000 96.767,300.000 97.690 C 300.000 98.177,299.611 98.498,298.832 98.654 C 298.027 98.815,297.588 99.192,297.418 99.869 C 297.270 100.459,296.731 101.005,296.070 101.236 C 295.407 101.467,294.789 102.094,294.519 102.810 C 294.228 103.581,293.789 104.000,293.274 104.000 C 292.755 104.000,292.337 104.405,292.073 105.162 C 291.850 105.802,291.282 106.447,290.811 106.596 C 290.340 106.746,289.786 107.312,289.579 107.854 C 289.370 108.406,288.675 109.024,288.002 109.259 C 287.301 109.504,286.800 109.962,286.800 110.359 C 286.800 110.734,286.584 111.256,286.320 111.520 C 286.056 111.784,285.534 112.000,285.159 112.000 C 284.769 112.000,284.307 112.490,284.078 113.147 C 283.840 113.832,283.298 114.389,282.733 114.531 C 282.165 114.674,281.604 115.253,281.328 115.984 C 281.021 116.799,280.596 117.200,280.042 117.200 C 279.494 117.200,279.131 117.537,278.965 118.199 C 278.827 118.748,278.240 119.425,277.661 119.702 C 277.081 119.980,276.380 120.681,276.102 121.261 C 275.825 121.840,275.168 122.422,274.643 122.553 C 274.079 122.695,273.590 123.187,273.447 123.757 C 273.297 124.354,272.748 124.879,272.002 125.139 C 271.196 125.420,270.800 125.827,270.800 126.374 C 270.800 126.924,270.355 127.375,269.432 127.761 C 268.521 128.142,268.020 128.644,267.932 129.266 C 267.844 129.889,267.490 130.244,266.868 130.332 C 266.268 130.417,265.796 130.866,265.542 131.595 C 265.299 132.292,264.763 132.823,264.148 132.977 C 263.518 133.136,262.996 133.666,262.735 134.414 C 262.483 135.137,262.040 135.600,261.600 135.600 C 261.200 135.600,260.512 136.223,260.053 137.000 C 259.599 137.770,258.956 138.400,258.624 138.400 C 258.292 138.400,257.753 138.917,257.426 139.549 C 257.099 140.181,256.467 140.794,256.021 140.910 C 255.575 141.027,255.031 141.593,254.812 142.168 C 254.593 142.744,253.958 143.388,253.400 143.600 C 252.842 143.812,252.213 144.439,252.003 144.993 C 251.792 145.547,251.339 146.000,250.996 146.000 C 250.654 146.000,250.001 146.630,249.547 147.400 C 249.093 148.170,248.460 148.800,248.142 148.800 C 247.823 148.800,247.256 149.345,246.881 150.011 C 246.507 150.677,245.807 151.324,245.326 151.448 C 244.846 151.572,244.279 152.173,244.066 152.784 C 243.830 153.458,243.289 153.991,242.684 154.143 C 242.068 154.298,241.593 154.773,241.438 155.390 C 241.281 156.017,240.808 156.483,240.165 156.645 C 239.589 156.789,238.977 157.334,238.766 157.889 C 238.559 158.433,238.039 158.969,237.609 159.082 C 237.180 159.194,236.468 159.897,236.028 160.643 C 235.587 161.389,234.947 162.000,234.605 162.000 C 234.263 162.000,233.772 162.463,233.514 163.030 C 233.255 163.596,232.539 164.321,231.922 164.640 C 231.305 164.959,230.800 165.468,230.800 165.771 C 230.800 166.073,230.170 166.693,229.400 167.147 C 228.630 167.601,228.000 168.244,228.000 168.576 C 228.000 168.908,227.473 169.452,226.828 169.785 C 226.184 170.119,225.550 170.726,225.421 171.135 C 225.291 171.544,224.735 172.083,224.186 172.333 C 223.637 172.584,222.982 173.241,222.730 173.794 C 222.478 174.347,222.095 174.800,221.878 174.800 C 221.662 174.800,220.252 176.060,218.745 177.600 C 217.239 179.140,215.829 180.400,215.613 180.400 C 215.397 180.400,214.948 180.927,214.615 181.572 C 214.281 182.216,213.636 182.861,213.181 183.006 C 212.726 183.150,212.188 183.706,211.984 184.241 C 211.781 184.777,211.177 185.381,210.641 185.584 C 210.106 185.788,209.551 186.324,209.407 186.777 C 209.264 187.230,208.964 187.600,208.742 187.600 C 208.301 187.600,205.593 190.070,203.206 192.650 C 202.084 193.863,197.567 197.786,197.098 197.955 C 196.409 198.204,189.600 205.136,189.600 205.589 C 189.600 205.815,189.406 206.000,189.170 206.000 C 188.933 206.000,187.507 207.260,186.000 208.800 C 184.493 210.340,183.096 211.600,182.894 211.600 C 182.693 211.600,182.322 212.054,182.069 212.608 C 181.817 213.162,181.173 213.782,180.639 213.985 C 180.105 214.188,179.550 214.726,179.406 215.181 C 179.261 215.636,178.616 216.281,177.972 216.615 C 177.327 216.948,176.800 217.468,176.800 217.771 C 176.800 218.073,176.170 218.693,175.400 219.147 C 174.630 219.601,173.999 220.204,173.997 220.487 C 173.996 220.769,173.454 221.308,172.794 221.683 C 172.133 222.059,171.428 222.802,171.226 223.333 C 171.021 223.870,170.402 224.413,169.829 224.557 C 169.185 224.719,168.800 225.094,168.800 225.559 C 168.800 226.001,168.334 226.496,167.652 226.779 C 167.020 227.040,166.311 227.677,166.076 228.194 C 165.840 228.711,165.142 229.375,164.524 229.671 C 163.883 229.977,163.345 230.592,163.272 231.104 C 163.189 231.687,162.868 232.000,162.354 232.000 C 161.890 232.000,161.281 232.501,160.881 233.211 C 160.507 233.877,159.777 234.531,159.261 234.664 C 158.729 234.801,158.160 235.368,157.951 235.969 C 157.733 236.594,157.089 237.217,156.390 237.481 C 155.594 237.782,155.200 238.207,155.200 238.765 C 155.200 239.250,154.942 239.600,154.584 239.600 C 154.245 239.600,153.263 240.320,152.400 241.200 C 151.537 242.080,150.648 242.800,150.423 242.800 C 150.199 242.800,149.900 243.259,149.759 243.820 C 149.581 244.529,149.156 244.909,148.361 245.068 C 147.732 245.194,147.012 245.545,146.760 245.848 C 145.250 247.667,144.515 247.121,133.046 235.651 C 126.075 228.679,124.367 226.971,116.297 218.902 C 108.485 211.091,107.453 210.060,99.897 202.502 C 92.957 195.562,91.062 193.666,83.047 185.651 C 73.390 175.995,72.596 175.200,66.298 168.905 C 56.069 158.681,56.690 159.458,56.993 157.253 C 57.216 155.628,57.422 155.292,58.427 154.912 C 59.287 154.588,59.600 154.207,59.600 153.485 C 59.600 152.721,59.857 152.449,60.746 152.271 C 61.615 152.097,61.948 151.758,62.126 150.869 C 62.291 150.047,62.663 149.621,63.374 149.442 C 64.017 149.281,64.482 148.813,64.645 148.165 C 64.787 147.597,65.333 146.978,65.871 146.773 C 66.404 146.570,67.023 145.880,67.246 145.239 C 67.488 144.545,68.028 143.979,68.582 143.840 C 69.111 143.707,69.613 143.204,69.746 142.672 C 69.875 142.158,70.440 141.528,71.002 141.272 C 71.563 141.016,72.136 140.490,72.275 140.103 C 72.414 139.717,73.084 138.834,73.764 138.143 C 74.444 137.452,75.207 136.669,75.460 136.403 C 75.713 136.137,76.253 135.574,76.660 135.152 C 78.953 132.772,84.958 126.084,87.212 123.400 C 88.135 122.300,89.366 120.932,89.945 120.360 C 90.525 119.788,91.685 118.528,92.522 117.560 C 93.359 116.592,94.169 115.674,94.322 115.520 C 95.718 114.114,96.393 113.399,97.600 112.043 C 98.370 111.179,99.207 110.257,99.460 109.996 C 99.713 109.734,100.253 109.178,100.660 108.760 C 101.067 108.342,101.706 107.685,102.080 107.300 C 102.454 106.915,102.994 106.362,103.280 106.072 C 103.566 105.782,104.430 104.849,105.200 104.000 C 106.638 102.413,106.883 102.155,108.122 100.920 C 109.655 99.392,117.184 91.480,121.000 87.388 C 123.200 85.028,125.282 82.806,125.627 82.449 C 125.972 82.092,127.412 80.530,128.827 78.978 C 136.720 70.321,138.842 68.022,141.200 65.574 C 142.630 64.090,145.022 61.553,146.516 59.938 C 148.010 58.322,149.387 56.847,149.576 56.660 C 150.890 55.361,155.241 50.818,164.257 41.331 C 173.174 31.949,176.972 27.904,179.407 25.200 C 180.695 23.770,182.120 22.227,182.574 21.770 C 183.028 21.314,185.200 19.019,187.400 16.670 C 189.600 14.321,193.155 10.583,195.300 8.363 C 198.879 4.658,199.200 4.198,199.200 2.763 C 199.200 1.420,198.099 0.291,197.968 1.500 "
              stroke="none" fill="#67daff" fill-rule="evenodd"></path>
    </g>
</svg>