<svg viewBox="0 0 400 400" xmlns="http://www.w3.org/2000/svg">
    <path d="M191.443 4.25c-.563.094-1.023.309-1.023.477s-.586.416-1.302.55c-.716.135-1.302.402-1.302.593 0 .19-.418.453-.93.581s-.93.383-.93.565c0 .183-.251.332-.558.332-.307 0-.558.149-.558.332 0 .182-.423.437-.94.567-.516.13-1.253.55-1.637.934-.383.383-1.077.818-1.542.965-.464.148-1.694.792-2.733 1.433-1.04.64-2.518 1.482-3.285 1.873-.767.39-1.395.85-1.395 1.023 0 .172-.245.313-.543.313-.299 0-1.596.668-2.883 1.484-1.287.817-2.55 1.486-2.805 1.488-.256.002-.465.169-.465.369 0 .2-.419.47-.93.598s-.93.383-.93.565c0 .183-.251.332-.558.332-.307 0-.558.167-.558.372s-.239.372-.531.372c-.293 0-.755.21-1.03.465-.273.256-1.163.795-1.979 1.198-.815.403-2.504 1.366-3.754 2.139-1.25.774-2.464 1.406-2.697 1.406-.233 0-.425.167-.425.372s-.18.372-.399.372c-.219 0-.65.251-.956.558-.307.307-.88.558-1.276.558-.394 0-.717.167-.717.372a.37.37 0 0 1-.365.372c-.201 0-1.46.67-2.797 1.488-1.337.818-2.582 1.488-2.766 1.488-.184 0-.39.126-.458.279-.068.153-.794.612-1.612 1.02-.818.407-1.572.825-1.674.93-.29.294-1.525 1.007-3.255 1.878-.87.437-1.581.935-1.581 1.105 0 .17-.502.42-1.116.554-.614.135-1.116.364-1.116.509 0 .145-.963.759-2.139 1.363-1.176.606-2.223 1.207-2.325 1.337-.102.132-1.232.786-2.511 1.455-1.279.669-2.325 1.34-2.325 1.49 0 .151-.458.39-1.02.53-.56.142-1.104.394-1.208.562-.195.31-2.95 1.888-5.119 2.93-.665.32-1.209.713-1.209.875 0 .163-.142.295-.316.295-.175 0-1.92.92-3.88 2.046-1.959 1.125-3.742 2.046-3.961 2.046-.22 0-.399.167-.399.372s-.251.372-.558.372c-.307 0-.558.156-.558.347s-.377.464-.837.608c-.46.143-.92.373-1.023.51-.102.136-.814.54-1.581.897-.767.356-1.395.808-1.395 1.004 0 .194-.237.354-.528.354-.605 0-2.726 1.077-3.48 1.767-.28.256-.748.465-1.041.465-.292 0-.531.167-.531.372s-.251.372-.558.372c-.307 0-.558.165-.558.365 0 .2-.419.47-.93.598s-.932.34-.935.472c-.002.132-.713.571-1.58.977-.867.407-1.66.825-1.763.93-.102.106-.856.525-1.674.932-.818.408-1.572.843-1.674.968-.277.338-3.434 2.174-4.185 2.432-.358.124-.651.335-.651.47 0 .135-.751.576-1.67.98-.92.404-1.672.86-1.674 1.013-.002.153-.18.279-.396.279-.4 0-5.009 2.64-5.823 3.336-.248.211-.687.384-.978.384-.29 0-.736.251-.991.558-.255.307-.694.558-.976.558-.281 0-.512.167-.512.372s-.18.372-.398.372-1.639.753-3.156 1.674c-1.516.92-2.927 1.674-3.135 1.674a.377.377 0 0 0-.379.372c0 .205-.335.372-.744.372-.41 0-.744.165-.744.365 0 .2-.419.47-.93.598s-.93.383-.93.565c0 .183-.251.332-.558.332-.307 0-.558.167-.558.372s-.239.372-.531.372c-.293 0-.756.21-1.03.465-.275.256-1.386.923-2.47 1.481-3.017 1.556-4.279 2.288-4.824 2.797-.274.256-.737.465-1.03.465-.292 0-.531.167-.531.372s-.251.372-.558.372c-.307 0-.558.149-.558.332 0 .182-.419.436-.93.565s-.93.398-.93.598c0 .2-.251.365-.558.365-.307 0-.558.149-.558.332 0 .182-.38.427-.845.543-.465.117-2.234 1.056-3.931 2.087-1.698 1.03-3.178 1.874-3.29 1.874s-.897.668-1.743 1.484c-.845.818-1.67 1.613-1.83 1.767-1.342 1.293-2.68 3.231-3.873 5.617l-1.414 2.821v94.502c0 97.21.007 97.665 1.32 97.665.15 0 .381.586.516 1.302.134.716.362 1.31.506 1.32.144.009.848.844 1.564 1.855.716 1.012 1.42 1.84 1.564 1.843.144.002.652.38 1.13.841.84.81 1.633 1.311 4.374 2.755.716.377 1.386.77 1.488.872.165.165.829.546 3.52 2.019.4.22.957.608 1.235.864.278.256.731.465 1.006.465.276 0 .556.126.625.279.068.153.668.572 1.333.93l2.418 1.302c.665.358 1.293.737 1.395.84.102.105.856.523 1.674.93.818.408 1.572.825 1.674.927.276.276 1.593 1.084 2.232 1.37.307.138.642.346.744.463.314.36 3.103 1.903 4.185 2.315.563.214 1.023.502 1.023.64 0 .14.751.584 1.67.987.92.405 1.672.86 1.674 1.014.002.153.255.279.562.279.307 0 .558.167.558.372s.239.372.531.372c.293 0 .759.21 1.035.465.54.498 2.42 1.573 5.13 2.931.92.463 1.758.953 1.86 1.09.102.137.563.368 1.023.51.46.145.837.418.837.61 0 .19.237.346.527.346.29 0 .582.126.651.279.068.153.794.62 1.612 1.038 3.312 1.69 5.584 2.995 6.28 3.607.403.357 1.021.739 1.374.851.352.112 2.024 1.034 3.714 2.05 1.69 1.016 3.297 1.847 3.572 1.847.274 0 .498.141.498.315 0 .173 1.046.862 2.325 1.531 1.279.669 2.409 1.33 2.511 1.471.102.14.772.544 1.488.898 1.601.79 2.729 1.47 2.98 1.8.104.138.648.365 1.209.506.56.14 1.019.378 1.019.527 0 .15.668.592 1.483.983.817.391 1.486.837 1.488.99.003.153.244.279.536.279.293 0 .753.21 1.023.466.27.256 1.162.8 1.98 1.209.818.408 1.572.829 1.674.933.102.104.853.522 1.668.93.816.407 1.691.933 1.945 1.17.254.237.968.654 1.587.928.618.273 1.124.61 1.124.75 0 .138.502.361 1.116.496.614.135 1.116.399 1.116.588 0 .188.251.342.558.342.307 0 .558.167.558.372s.239.372.531.372c.293 0 .753.21 1.023.466.27.256 1.162.8 1.98 1.209.818.408 1.572.83 1.674.937.52.544 2.276 1.48 2.777 1.48.314 0 .571.165.571.365 0 .2.419.47.93.598s.93.346.93.482c0 .137.751.579 1.67.982.92.405 1.672.822 1.674.93.002.106.632.525 1.399.928.767.405 1.606.935 1.864 1.179.258.243 1.053.654 1.767.912.714.259 1.298.585 1.298.726 0 .142.419.362.93.49s.93.399.93.6c0 .2.171.364.381.364s1.442.67 2.737 1.488c1.296.818 2.631 1.488 2.967 1.488.336 0 .611.13.611.287 0 .158.628.617 1.395 1.02.767.402 1.479.83 1.581.95.102.12.772.54 1.488.933.716.394 1.386.8 1.488.902.102.102.856.519 1.674.926.818.408 1.572.826 1.674.93.102.104.73.483 1.395.841l2.418 1.302c.665.358 1.265.777 1.333.93.069.153.28.279.472.279.192 0 .973.394 1.736.876.764.48 1.807 1.007 2.318 1.17.512.16 1.191.592 1.51.958.32.366 1.03.78 1.581.918.55.137 1.001.374 1.001.523 0 .151.628.593 1.395.983.767.391 1.48.794 1.582.896 2.942 2.927 40.605 2.902 43.151-.028.102-.118.772-.537 1.488-.93.716-.394 1.386-.8 1.488-.902.102-.102.856-.519 1.674-.926.818-.408 1.572-.826 1.674-.93.102-.104.772-.499 1.488-.876 2.192-1.155 3.525-1.909 3.72-2.104.305-.305 1.58-1.055 3.162-1.86 1.582-.805 2.856-1.554 3.162-1.86.102-.102.73-.479 1.395-.837l2.418-1.302c.665-.358 1.293-.751 1.395-.875.102-.123.856-.533 1.674-.91s1.572-.78 1.674-.892c.333-.368 1.658-1.153 2.325-1.376.358-.12.651-.349.651-.507 0-.159.38-.384.844-.5.465-.116 1.178-.512 1.586-.878.407-.366 1.743-1.185 2.969-1.82 3.101-1.609 5.912-3.194 6.133-3.459.102-.122.814-.541 1.581-.932.767-.39 1.395-.85 1.395-1.023 0-.172.244-.313.541-.313.299 0 1.394-.502 2.435-1.116 1.04-.614 2.053-1.116 2.249-1.116.195 0 .355-.13.355-.287 0-.158.628-.617 1.395-1.02.767-.402 1.479-.817 1.581-.921.102-.104.814-.48 1.581-.835s1.395-.815 1.395-1.023c0-.208.275-.378.611-.378.336 0 1.633-.634 2.883-1.409s2.69-1.608 3.202-1.852c.512-.243 1.6-.864 2.418-1.378.818-.515 1.74-1.05 2.046-1.19.307-.14.642-.35.744-.468.102-.117.772-.522 1.488-.9 2.243-1.18 3.527-1.91 3.72-2.11.102-.107.605-.397 1.116-.643.512-.247 1.6-.87 2.418-1.385.818-.515 1.74-1.05 2.046-1.19.307-.14.642-.35.744-.468.102-.117.772-.522 1.488-.9 2.192-1.154 3.525-1.908 3.72-2.103.306-.306 1.542-1.017 3.999-2.302 1.279-.667 2.325-1.33 2.325-1.473 0-.141.502-.368 1.116-.503.614-.135 1.116-.376 1.116-.535 0-.159.795-.708 1.767-1.22 3.186-1.68 4.367-2.334 4.557-2.523.377-.377 1.693-1.144 2.325-1.356.358-.12.651-.349.651-.507 0-.159.44-.399.977-.534.539-.134 1.582-.655 2.319-1.157.737-.5 1.553-.91 1.812-.91.26 0 .472-.13.472-.287 0-.158.628-.617 1.395-1.02.767-.402 1.479-.817 1.581-.921.102-.104.814-.509 1.581-.9.767-.39 1.395-.832 1.395-.983 0-.15.432-.38.962-.514.529-.133 1.304-.56 1.724-.951.42-.39 1.242-.816 1.828-.945.586-.129 1.066-.35 1.066-.492 0-.141.628-.587 1.395-.99.767-.402 1.479-.82 1.581-.929.102-.109.605-.4 1.116-.648.512-.248 1.934-1.05 3.162-1.784 1.228-.733 2.692-1.525 3.255-1.761.563-.237 1.023-.542 1.023-.68s.38-.346.844-.462c.465-.116 1.176-.513 1.581-.883.406-.368 1.448-.986 2.318-1.372.87-.387 1.581-.845 1.581-1.019 0-.173.184-.315.408-.315 2.508 0 13.356-9.486 13.356-11.679 0-.328.126-.597.28-.597.48 0 1.25-2.66 1.617-5.58.771-6.142.241-186.364-.553-188.046-.387-.818-.886-1.907-1.109-2.418-1.378-3.158-7.501-8.928-9.475-8.928-.238 0-.432-.126-.432-.28 0-.156-.506-.507-1.124-.78-.619-.274-1.335-.691-1.593-.927-.257-.238-1.627-1.017-3.044-1.733s-2.907-1.593-3.31-1.948c-.402-.357-1.079-.756-1.504-.888-.424-.133-.855-.344-.957-.47-.166-.202-.74-.54-3.52-2.061-.4-.22-.957-.608-1.235-.864-.278-.256-.745-.465-1.038-.465-.292 0-.531-.149-.531-.332 0-.182-.432-.44-.962-.573-.529-.133-1.32-.576-1.76-.985-.438-.408-1.177-.839-1.642-.955-.464-.116-.844-.341-.844-.5 0-.158-.293-.382-.651-.498-.358-.115-1.488-.722-2.511-1.35-1.023-.625-2.153-1.24-2.511-1.364-.358-.124-.651-.36-.651-.525 0-.165-.502-.41-1.116-.544-.614-.135-1.116-.376-1.116-.535 0-.159-.795-.708-1.767-1.22-3.211-1.693-4.368-2.335-4.557-2.527-.102-.104-.814-.519-1.581-.921-.767-.403-1.395-.862-1.395-1.02 0-.158-.19-.287-.424-.287-.233 0-1.24-.502-2.238-1.116-.997-.614-2.061-1.116-2.366-1.116-.304 0-.552-.167-.552-.372s-.251-.372-.558-.372c-.307 0-.558-.165-.558-.365 0-.2-.418-.47-.93-.598s-.93-.346-.93-.484-.46-.45-1.023-.694c-.563-.244-1.86-.95-2.883-1.568-1.023-.618-2.446-1.417-3.162-1.776-.716-.36-1.497-.836-1.735-1.06-.238-.224-.95-.62-1.581-.882-.632-.261-1.148-.603-1.148-.759 0-.156-.293-.384-.651-.507-.358-.122-1.32-.637-2.139-1.143-.818-.506-1.781-.927-2.139-.936-.358-.009-.651-.183-.651-.388 0-.205-.251-.372-.558-.372-.307 0-.558-.165-.558-.365 0-.2-.419-.47-.93-.598s-.93-.358-.93-.51c0-.15-.67-.576-1.488-.945-.818-.37-1.488-.813-1.488-.987 0-.173-.162-.315-.359-.315-.197 0-1.953-.92-3.902-2.046-1.95-1.125-3.714-2.046-3.92-2.046-.206 0-.375-.148-.375-.328 0-.182-.293-.427-.651-.548-.667-.223-1.992-1.008-2.325-1.376-.102-.112-.856-.514-1.674-.891-.818-.378-1.572-.788-1.674-.91-.102-.125-.772-.544-1.488-.934l-2.976-1.619c-.92-.5-1.758-1.018-1.86-1.151-.102-.132-1.177-.743-2.39-1.357s-2.383-1.292-2.603-1.508c-.348-.339-1.244-.831-4.698-2.58-.399-.201-.725-.494-.725-.65 0-.157-.335-.284-.744-.284-.41 0-.744-.165-.744-.365 0-.2-.418-.47-.93-.598s-.93-.383-.93-.565c0-.183-.251-.332-.558-.332-.307 0-.558-.167-.558-.372s-.239-.372-.531-.372c-.293 0-.753-.21-1.023-.465-.485-.46-1.87-1.253-5.142-2.946-.92-.477-1.758-.97-1.86-1.096-.102-.125-.563-.347-1.023-.49-.46-.144-.837-.417-.837-.608 0-.19-.237-.347-.527-.347-.29 0-.582-.126-.651-.279-.068-.153-1.212-.848-2.542-1.544-1.33-.695-2.682-1.49-3.005-1.767-.323-.276-.868-.502-1.209-.502-.342 0-.622-.167-.622-.372s-.251-.372-.558-.372c-.307 0-.558-.156-.558-.347s-.364-.462-.807-.603c-.445-.14-1.658-.786-2.697-1.434-1.04-.647-2.555-1.505-3.368-1.907-.813-.402-1.813-1.03-2.224-1.396-.411-.366-1.127-.762-1.592-.878-.464-.116-.844-.324-.844-.462s-.46-.448-1.023-.691c-1.177-.507-3.216-1.678-3.902-2.241-.258-.212-1.222-.794-2.143-1.293l-2.976-1.617c-.716-.39-1.387-.822-1.492-.958-.104-.138-.69-.373-1.302-.523-.612-.15-1.231-.456-1.377-.68-.268-.412-13.499-.703-15.638-.344m69.584 136.181c4.386 2.404 8.458 4.815 9.047 5.357l1.07.987v40.915c0 38.43-.04 40.962-.651 41.675-.528.617-10.643 6.763-11.13 6.763-.076 0-.762.392-1.525.872-5.63 3.539-16.65 9.544-17.513 9.544-.96 0-3.174-1.214-23.016-12.609-3.318-1.906-6.457-3.888-6.975-4.406l-.942-.942v-16.98c0-14.328.086-17.1.546-17.758.518-.738 2.096-1.717 12.66-7.84 18.99-11.01 17.3-10.483 23.064-7.218 3.566 2.019 4.436 2.259 4.796 1.32.125-.323.226-10.102.226-21.731 0-11.629.101-21.408.226-21.731.456-1.189 2.307-.497 10.117 3.782M80.122 177.854c25.552 14.7 24.292 13.95 25.116 14.943.68.818 1.045 43.22.386 44.951-.264.696-.641.984-1.289.984-1.109 0-16.32-8.586-17.889-10.098l-1.116-1.075-.108-11.29c-.126-13.18.5-11.51-5.656-15.078-4.792-2.777-4.523-2.78-9.48.092-5.993 3.471-5.568 2.317-5.697 15.477-.13 13.213 1.162 10.952-9.875 17.3-8.222 4.729-9.581 5.252-10.277 3.952-.546-1.02-.53-43.568.018-44.77.391-.857 1.216-1.385 11.315-7.23 4.98-2.883 16.232-9.266 17.67-10.025 1.602-.846 2.671-.555 6.882 1.867m80.694-.916c16.25 9.236 26.23 15.13 26.907 15.886l.837.938v16.755c0 19.667.415 17.859-4.786 20.851-1.971 1.135-8.02 4.623-13.442 7.754-12.14 7.007-11.5 6.673-12.767 6.676-1.017.002-2.634-.882-22.015-12.034-10.025-5.769-8.928-2.929-8.928-23.115v-16.87l.93-.99c.512-.545 2.52-1.895 4.464-3.002 1.944-1.106 8.138-4.682 13.764-7.945 11.542-6.696 11.759-6.767 15.036-4.904m167.988 1.903a930.85 930.85 0 0 0 6.51 3.72c19.393 10.877 18.042 9.664 18.042 16.181 0 4.643-.057 5.043-.837 5.907-1.532 1.696-16.91 10.71-18.049 10.578l-1.016-.117-.186-4.688c-.221-5.575.068-5.13-5.387-8.288-5.205-3.013-4.845-3.014-10.16.044-5.611 3.23-5.259 2.635-5.273 8.892-.016 6.727-1.759 5.175 18.774 16.71 13.197 7.413 12.934 6.706 4.278 11.498-14.517 8.038-11.978 7.793-21.883 2.103a39905.975 39905.975 0 0 1-14.201-8.163c-8.536-4.908-7.626-2.256-7.626-22.2 0-19.78-.677-17.426 6.138-21.353 2.762-1.591 7.868-4.542 11.346-6.558 14.906-8.637 12.756-8.167 19.53-4.266M152.29 202.559l-4.836 2.88v11.86l4.836 2.886c5.856 3.496 4.648 3.491 10.425.04l4.827-2.883.102-5.833.103-5.833-1.219-.91c-.67-.5-2.222-1.459-3.45-2.13a88.124 88.124 0 0 1-3.62-2.093c-1.886-1.184-1.715-1.232-7.168 2.016m82.584.02-4.836 2.885v11.851l4.836 2.88c5.852 3.487 4.644 3.483 10.425.03l4.827-2.883.102-5.793c.12-6.771.672-5.818-5.442-9.401-5.115-2.998-4.093-3.042-9.912.43m90.982 3.089 2.576 1.53v6.8l-2.624 1.58c-3.184 1.915-3.222 1.916-6.07.223-3.062-1.822-3.21-2.059-3.21-5.154 0-3.11.181-3.408 3.162-5.165 2.827-1.668 3.058-1.661 6.166.186" fill="#67daff" fill-rule="evenodd"/>
</svg>