<svg id="svg" version="1.1" width="400" height="418.3606557377049" viewBox="0 0 400 418.3606557377049"
     xmlns="http://www.w3.org/2000/svg" xmlns:xlink="http://www.w3.org/1999/xlink">
    <g id="svgg">
        <path id="path2"
              d="M195.100 0.269 C 194.495 0.370,194.000 0.601,194.000 0.782 C 194.000 0.963,193.370 1.229,192.600 1.374 C 191.830 1.518,191.200 1.805,191.200 2.011 C 191.200 2.216,190.750 2.498,190.200 2.636 C 189.650 2.774,189.200 3.047,189.200 3.243 C 189.200 3.440,188.930 3.600,188.600 3.600 C 188.270 3.600,188.000 3.760,188.000 3.957 C 188.000 4.153,187.545 4.427,186.990 4.567 C 186.434 4.706,185.642 5.158,185.229 5.571 C 184.817 5.983,184.071 6.451,183.571 6.609 C 183.072 6.768,181.749 7.460,180.632 8.149 C 179.514 8.837,177.925 9.743,177.100 10.163 C 176.275 10.583,175.600 11.078,175.600 11.263 C 175.600 11.448,175.337 11.600,175.016 11.600 C 174.695 11.600,173.300 12.318,171.916 13.196 C 170.532 14.074,169.175 14.794,168.900 14.796 C 168.625 14.798,168.400 14.977,168.400 15.192 C 168.400 15.408,167.950 15.698,167.400 15.836 C 166.850 15.974,166.400 16.247,166.400 16.443 C 166.400 16.640,166.130 16.800,165.800 16.800 C 165.470 16.800,165.200 16.980,165.200 17.200 C 165.200 17.420,164.943 17.600,164.629 17.600 C 164.314 17.600,163.817 17.825,163.522 18.100 C 163.228 18.375,162.271 18.955,161.394 19.388 C 160.517 19.822,158.701 20.857,157.357 21.688 C 156.013 22.520,154.708 23.200,154.457 23.200 C 154.206 23.200,154.000 23.380,154.000 23.600 C 154.000 23.820,153.807 24.000,153.571 24.000 C 153.336 24.000,152.873 24.270,152.543 24.600 C 152.213 24.930,151.596 25.200,151.171 25.200 C 150.747 25.200,150.400 25.380,150.400 25.600 C 150.400 25.820,150.223 26.000,150.007 26.000 C 149.791 26.000,148.438 26.720,147.000 27.600 C 145.562 28.480,144.224 29.200,144.026 29.200 C 143.828 29.200,143.607 29.335,143.533 29.500 C 143.460 29.665,142.680 30.158,141.800 30.596 C 140.920 31.034,140.110 31.484,140.000 31.596 C 139.689 31.913,138.360 32.680,136.500 33.616 C 135.565 34.086,134.800 34.621,134.800 34.804 C 134.800 34.987,134.260 35.255,133.600 35.400 C 132.940 35.545,132.400 35.791,132.400 35.947 C 132.400 36.103,131.365 36.763,130.100 37.413 C 128.835 38.064,127.710 38.711,127.600 38.851 C 127.490 38.992,126.275 39.696,124.900 40.415 C 123.525 41.134,122.400 41.855,122.400 42.018 C 122.400 42.180,121.907 42.437,121.304 42.588 C 120.701 42.740,120.116 43.011,120.004 43.191 C 119.795 43.525,116.833 45.222,114.500 46.342 C 113.785 46.686,113.200 47.109,113.200 47.283 C 113.200 47.458,113.047 47.600,112.860 47.600 C 112.672 47.600,110.795 48.590,108.688 49.800 C 106.582 51.010,104.665 52.000,104.429 52.000 C 104.193 52.000,104.000 52.180,104.000 52.400 C 104.000 52.620,103.730 52.800,103.400 52.800 C 103.070 52.800,102.800 52.968,102.800 53.173 C 102.800 53.378,102.395 53.672,101.900 53.827 C 101.405 53.981,100.910 54.228,100.800 54.375 C 100.690 54.522,99.925 54.956,99.100 55.340 C 98.275 55.723,97.600 56.209,97.600 56.419 C 97.600 56.628,97.345 56.800,97.032 56.800 C 96.382 56.800,94.101 57.958,93.290 58.700 C 92.989 58.975,92.486 59.200,92.171 59.200 C 91.857 59.200,91.600 59.380,91.600 59.600 C 91.600 59.820,91.330 60.000,91.000 60.000 C 90.670 60.000,90.400 60.177,90.400 60.392 C 90.400 60.608,89.950 60.898,89.400 61.036 C 88.850 61.174,88.398 61.402,88.395 61.543 C 88.393 61.685,87.628 62.157,86.695 62.594 C 85.763 63.031,84.910 63.481,84.800 63.594 C 84.690 63.707,83.880 64.158,83.000 64.596 C 82.120 65.034,81.310 65.502,81.200 65.637 C 80.902 66.000,77.507 67.974,76.700 68.252 C 76.315 68.385,76.000 68.612,76.000 68.757 C 76.000 68.902,75.192 69.376,74.204 69.810 C 73.216 70.245,72.406 70.735,72.404 70.900 C 72.402 71.065,72.210 71.200,71.978 71.200 C 71.548 71.200,66.593 74.039,65.717 74.787 C 65.451 75.014,64.978 75.200,64.666 75.200 C 64.354 75.200,63.874 75.470,63.600 75.800 C 63.326 76.130,62.854 76.400,62.551 76.400 C 62.248 76.400,62.000 76.580,62.000 76.800 C 62.000 77.020,61.807 77.200,61.572 77.200 C 61.337 77.200,59.810 78.010,58.179 79.000 C 56.548 79.990,55.031 80.800,54.807 80.800 C 54.583 80.800,54.400 80.980,54.400 81.200 C 54.400 81.420,54.040 81.600,53.600 81.600 C 53.160 81.600,52.800 81.777,52.800 81.992 C 52.800 82.208,52.350 82.498,51.800 82.636 C 51.250 82.774,50.800 83.047,50.800 83.243 C 50.800 83.440,50.530 83.600,50.200 83.600 C 49.870 83.600,49.600 83.780,49.600 84.000 C 49.600 84.220,49.343 84.400,49.029 84.400 C 48.714 84.400,48.216 84.625,47.921 84.900 C 47.626 85.175,46.431 85.892,45.266 86.493 C 42.022 88.166,40.665 88.953,40.079 89.500 C 39.784 89.775,39.286 90.000,38.971 90.000 C 38.657 90.000,38.400 90.180,38.400 90.400 C 38.400 90.620,38.130 90.800,37.800 90.800 C 37.470 90.800,37.200 90.960,37.200 91.157 C 37.200 91.353,36.750 91.626,36.200 91.764 C 35.650 91.902,35.200 92.192,35.200 92.408 C 35.200 92.623,34.930 92.800,34.600 92.800 C 34.270 92.800,34.000 92.960,34.000 93.157 C 34.000 93.353,33.591 93.616,33.091 93.741 C 32.591 93.867,30.689 94.876,28.864 95.985 C 27.039 97.093,25.447 98.000,25.326 98.000 C 25.205 98.000,24.362 98.718,23.453 99.596 C 22.544 100.475,21.658 101.330,21.485 101.496 C 20.042 102.886,18.604 104.970,17.320 107.535 L 15.800 110.569 15.800 212.184 C 15.800 316.710,15.807 317.200,17.220 317.200 C 17.380 317.200,17.629 317.830,17.774 318.600 C 17.918 319.370,18.163 320.008,18.318 320.019 C 18.473 320.029,19.230 320.927,20.000 322.014 C 20.770 323.102,21.527 323.993,21.682 323.996 C 21.837 323.998,22.383 324.405,22.896 324.900 C 23.799 325.771,24.653 326.310,27.600 327.862 C 28.370 328.268,29.090 328.690,29.200 328.800 C 29.377 328.977,30.091 329.387,32.985 330.971 C 33.416 331.207,34.014 331.625,34.313 331.900 C 34.612 332.175,35.099 332.400,35.395 332.400 C 35.691 332.400,35.993 332.535,36.067 332.700 C 36.140 332.865,36.785 333.315,37.500 333.700 C 38.215 334.085,39.385 334.715,40.100 335.100 C 40.815 335.485,41.490 335.892,41.600 336.004 C 41.710 336.116,42.520 336.566,43.400 337.004 C 44.280 337.442,45.090 337.890,45.200 338.000 C 45.497 338.297,46.913 339.166,47.600 339.473 C 47.930 339.621,48.290 339.845,48.400 339.971 C 48.738 340.358,51.737 342.017,52.900 342.460 C 53.505 342.690,54.000 343.000,54.000 343.149 C 54.000 343.299,54.808 343.776,55.796 344.210 C 56.784 344.645,57.594 345.135,57.596 345.300 C 57.598 345.465,57.870 345.600,58.200 345.600 C 58.530 345.600,58.800 345.780,58.800 346.000 C 58.800 346.220,59.057 346.400,59.371 346.400 C 59.686 346.400,60.187 346.625,60.484 346.900 C 61.064 347.435,63.086 348.591,66.000 350.052 C 66.990 350.549,67.890 351.076,68.000 351.224 C 68.110 351.371,68.605 351.619,69.100 351.773 C 69.595 351.928,70.000 352.222,70.000 352.427 C 70.000 352.632,70.255 352.800,70.567 352.800 C 70.878 352.800,71.193 352.935,71.267 353.100 C 71.340 353.265,72.120 353.767,73.000 354.216 C 76.561 356.033,79.004 357.437,79.752 358.095 C 80.186 358.478,80.851 358.889,81.230 359.010 C 81.609 359.130,83.406 360.122,85.224 361.214 C 87.041 362.306,88.769 363.200,89.064 363.200 C 89.359 363.200,89.600 363.352,89.600 363.539 C 89.600 363.725,90.725 364.466,92.100 365.185 C 93.475 365.904,94.690 366.616,94.800 366.767 C 94.910 366.918,95.630 367.352,96.400 367.732 C 98.122 368.581,99.334 369.313,99.604 369.668 C 99.716 369.816,100.301 370.060,100.904 370.212 C 101.507 370.363,102.000 370.618,102.000 370.779 C 102.000 370.940,102.718 371.415,103.595 371.836 C 104.473 372.256,105.193 372.735,105.195 372.900 C 105.198 373.065,105.457 373.200,105.771 373.200 C 106.086 373.200,106.581 373.425,106.871 373.701 C 107.162 373.976,108.120 374.561,109.000 375.001 C 109.880 375.440,110.690 375.892,110.800 376.004 C 110.910 376.116,111.717 376.566,112.594 377.004 C 113.471 377.442,114.412 378.008,114.685 378.263 C 114.958 378.517,115.726 378.966,116.391 379.260 C 117.056 379.554,117.600 379.917,117.600 380.066 C 117.600 380.215,118.140 380.455,118.800 380.600 C 119.460 380.745,120.000 381.029,120.000 381.232 C 120.000 381.434,120.270 381.600,120.600 381.600 C 120.930 381.600,121.200 381.780,121.200 382.000 C 121.200 382.220,121.457 382.400,121.771 382.400 C 122.086 382.400,122.581 382.625,122.871 382.901 C 123.162 383.176,124.120 383.761,125.000 384.201 C 125.880 384.640,126.690 385.094,126.800 385.209 C 127.359 385.794,129.247 386.800,129.786 386.800 C 130.124 386.800,130.400 386.977,130.400 387.192 C 130.400 387.408,130.850 387.698,131.400 387.836 C 131.950 387.974,132.400 388.207,132.400 388.354 C 132.400 388.501,133.208 388.976,134.196 389.410 C 135.184 389.845,135.994 390.294,135.996 390.409 C 135.998 390.524,136.675 390.974,137.500 391.408 C 138.325 391.843,139.227 392.413,139.504 392.675 C 139.782 392.937,140.637 393.378,141.404 393.656 C 142.172 393.934,142.800 394.285,142.800 394.437 C 142.800 394.589,143.250 394.826,143.800 394.964 C 144.350 395.102,144.800 395.392,144.800 395.608 C 144.800 395.823,144.984 396.000,145.210 396.000 C 145.435 396.000,146.760 396.720,148.153 397.600 C 149.546 398.480,150.982 399.200,151.343 399.200 C 151.704 399.200,152.000 399.339,152.000 399.509 C 152.000 399.679,152.675 400.172,153.500 400.605 C 154.325 401.038,155.090 401.498,155.200 401.626 C 155.310 401.755,156.030 402.207,156.800 402.630 C 157.570 403.054,158.290 403.490,158.400 403.600 C 158.510 403.710,159.320 404.158,160.200 404.596 C 161.080 405.034,161.890 405.484,162.000 405.596 C 162.110 405.708,162.785 406.115,163.500 406.500 C 164.215 406.885,165.385 407.515,166.100 407.900 C 166.815 408.285,167.460 408.735,167.533 408.900 C 167.607 409.065,167.835 409.200,168.041 409.200 C 168.247 409.200,169.087 409.624,169.908 410.142 C 170.729 410.659,171.850 411.225,172.400 411.399 C 172.950 411.572,173.681 412.037,174.024 412.430 C 174.367 412.824,175.132 413.268,175.724 413.417 C 176.316 413.565,176.800 413.819,176.800 413.980 C 176.800 414.142,177.475 414.617,178.300 415.037 C 179.125 415.457,179.891 415.890,180.001 416.000 C 183.165 419.147,223.662 419.120,226.400 415.970 C 226.510 415.843,227.230 415.393,228.000 414.970 C 228.770 414.546,229.490 414.110,229.600 414.000 C 229.710 413.890,230.520 413.442,231.400 413.004 C 232.280 412.566,233.090 412.116,233.200 412.004 C 233.310 411.892,234.030 411.468,234.800 411.062 C 237.157 409.820,238.590 409.010,238.800 408.800 C 239.128 408.472,240.498 407.666,242.200 406.800 C 243.901 405.934,245.271 405.129,245.600 404.800 C 245.710 404.690,246.385 404.285,247.100 403.900 C 247.815 403.515,248.985 402.885,249.700 402.500 C 250.415 402.115,251.090 401.692,251.200 401.559 C 251.310 401.427,252.120 400.986,253.000 400.580 C 253.880 400.174,254.690 399.742,254.800 399.621 C 255.158 399.226,256.583 398.382,257.300 398.142 C 257.685 398.012,258.000 397.767,258.000 397.597 C 258.000 397.426,258.409 397.184,258.908 397.059 C 259.407 396.934,260.174 396.509,260.613 396.115 C 261.051 395.722,262.487 394.841,263.805 394.158 C 267.140 392.428,270.162 390.724,270.400 390.439 C 270.510 390.308,271.275 389.857,272.100 389.437 C 272.925 389.017,273.600 388.522,273.600 388.337 C 273.600 388.152,273.862 388.000,274.182 388.000 C 274.503 388.000,275.681 387.460,276.800 386.800 C 277.919 386.140,279.007 385.600,279.218 385.600 C 279.428 385.600,279.600 385.461,279.600 385.291 C 279.600 385.121,280.275 384.628,281.100 384.195 C 281.925 383.762,282.690 383.316,282.800 383.204 C 282.910 383.092,283.675 382.688,284.500 382.306 C 285.325 381.925,286.000 381.430,286.000 381.206 C 286.000 380.983,286.296 380.800,286.657 380.800 C 287.018 380.800,288.413 380.118,289.757 379.285 C 291.101 378.452,292.650 377.556,293.200 377.294 C 293.750 377.032,294.920 376.365,295.800 375.812 C 296.680 375.258,297.670 374.682,298.000 374.532 C 298.330 374.381,298.690 374.155,298.800 374.029 C 298.910 373.903,299.630 373.468,300.400 373.062 C 302.812 371.792,304.193 371.008,304.400 370.792 C 304.510 370.677,305.050 370.366,305.600 370.101 C 306.150 369.835,307.320 369.165,308.200 368.612 C 309.080 368.058,310.070 367.482,310.400 367.332 C 310.730 367.181,311.090 366.955,311.200 366.829 C 311.310 366.703,312.030 366.268,312.800 365.862 C 315.157 364.620,316.590 363.810,316.800 363.600 C 317.129 363.271,318.458 362.506,321.100 361.125 C 322.475 360.407,323.600 359.694,323.600 359.541 C 323.600 359.389,324.140 359.145,324.800 359.000 C 325.460 358.855,326.000 358.596,326.000 358.425 C 326.000 358.254,326.855 357.663,327.900 357.112 C 331.326 355.306,332.596 354.603,332.800 354.400 C 333.205 353.995,334.620 353.170,335.300 352.942 C 335.685 352.812,336.000 352.567,336.000 352.397 C 336.000 352.226,336.473 351.968,337.051 351.823 C 337.630 351.678,338.752 351.118,339.544 350.579 C 340.337 350.041,341.214 349.600,341.493 349.600 C 341.772 349.600,342.000 349.461,342.000 349.291 C 342.000 349.121,342.675 348.628,343.500 348.195 C 344.325 347.762,345.090 347.316,345.200 347.204 C 345.310 347.092,346.075 346.657,346.900 346.237 C 347.725 345.817,348.400 345.342,348.400 345.180 C 348.400 345.019,348.865 344.770,349.434 344.627 C 350.003 344.484,350.837 344.024,351.288 343.604 C 351.739 343.184,352.624 342.727,353.254 342.588 C 353.884 342.450,354.400 342.212,354.400 342.059 C 354.400 341.907,355.075 341.428,355.900 340.995 C 356.725 340.562,357.490 340.112,357.600 339.996 C 357.710 339.879,358.250 339.566,358.800 339.299 C 359.350 339.032,360.880 338.169,362.200 337.381 C 363.520 336.593,365.095 335.741,365.700 335.487 C 366.305 335.232,366.800 334.904,366.800 334.756 C 366.800 334.608,367.209 334.384,367.708 334.259 C 368.207 334.134,368.972 333.707,369.408 333.310 C 369.844 332.914,370.965 332.250,371.900 331.834 C 372.835 331.418,373.600 330.926,373.600 330.739 C 373.600 330.553,373.798 330.400,374.039 330.400 C 376.735 330.400,388.400 320.200,388.400 317.842 C 388.400 317.489,388.536 317.200,388.702 317.200 C 389.217 317.200,390.046 314.340,390.440 311.200 C 391.269 304.596,390.699 110.809,389.845 109.000 C 389.429 108.120,388.893 106.950,388.653 106.400 C 387.171 103.004,380.587 96.800,378.465 96.800 C 378.209 96.800,378.000 96.664,378.000 96.498 C 378.000 96.331,377.456 95.954,376.791 95.660 C 376.126 95.366,375.356 94.917,375.079 94.663 C 374.802 94.408,373.329 93.570,371.805 92.800 C 370.281 92.030,368.680 91.087,368.247 90.705 C 367.814 90.322,367.086 89.893,366.629 89.751 C 366.173 89.608,365.710 89.381,365.600 89.246 C 365.422 89.028,364.804 88.665,361.815 87.029 C 361.384 86.793,360.786 86.375,360.487 86.100 C 360.188 85.825,359.686 85.600,359.371 85.600 C 359.057 85.600,358.800 85.440,358.800 85.243 C 358.800 85.047,358.335 84.770,357.766 84.627 C 357.197 84.484,356.346 84.008,355.874 83.568 C 355.402 83.129,354.607 82.666,354.108 82.541 C 353.609 82.416,353.200 82.174,353.200 82.003 C 353.200 81.833,352.885 81.592,352.500 81.468 C 352.115 81.344,350.900 80.691,349.800 80.017 C 348.700 79.344,347.485 78.683,347.100 78.550 C 346.715 78.416,346.400 78.162,346.400 77.985 C 346.400 77.808,345.860 77.545,345.200 77.400 C 344.540 77.255,344.000 76.996,344.000 76.825 C 344.000 76.654,343.145 76.063,342.100 75.512 C 338.647 73.692,337.403 73.002,337.200 72.796 C 337.090 72.684,336.325 72.238,335.500 71.805 C 334.675 71.372,334.000 70.879,334.000 70.709 C 334.000 70.539,333.795 70.400,333.544 70.400 C 333.294 70.400,332.211 69.860,331.138 69.200 C 330.066 68.540,328.921 68.000,328.594 68.000 C 328.267 68.000,328.000 67.820,328.000 67.600 C 328.000 67.380,327.730 67.200,327.400 67.200 C 327.070 67.200,326.800 67.023,326.800 66.808 C 326.800 66.592,326.350 66.302,325.800 66.164 C 325.250 66.026,324.800 65.792,324.800 65.644 C 324.800 65.496,324.305 65.160,323.700 64.898 C 323.095 64.635,321.700 63.876,320.600 63.212 C 319.500 62.547,317.970 61.688,317.200 61.302 C 316.430 60.916,315.590 60.403,315.334 60.163 C 315.078 59.922,314.313 59.495,313.634 59.214 C 312.955 58.933,312.400 58.566,312.400 58.398 C 312.400 58.230,312.085 57.985,311.700 57.853 C 311.315 57.721,310.280 57.168,309.400 56.624 C 308.520 56.080,307.485 55.627,307.100 55.617 C 306.715 55.608,306.400 55.420,306.400 55.200 C 306.400 54.980,306.130 54.800,305.800 54.800 C 305.470 54.800,305.200 54.623,305.200 54.408 C 305.200 54.192,304.750 53.902,304.200 53.764 C 303.650 53.626,303.200 53.380,303.200 53.217 C 303.200 53.055,302.480 52.597,301.600 52.200 C 300.720 51.803,300.000 51.326,300.000 51.139 C 300.000 50.953,299.826 50.800,299.614 50.800 C 299.402 50.800,297.514 49.810,295.418 48.600 C 293.322 47.390,291.425 46.400,291.203 46.400 C 290.982 46.400,290.800 46.241,290.800 46.047 C 290.800 45.852,290.485 45.588,290.100 45.458 C 289.383 45.218,287.958 44.374,287.600 43.979 C 287.490 43.858,286.680 43.426,285.800 43.020 C 284.920 42.614,284.110 42.173,284.000 42.041 C 283.890 41.908,283.170 41.457,282.400 41.038 C 281.630 40.619,280.190 39.835,279.200 39.297 C 278.210 38.759,277.310 38.202,277.200 38.059 C 277.090 37.917,275.934 37.260,274.631 36.600 C 273.328 35.940,272.068 35.211,271.831 34.979 C 271.457 34.614,270.494 34.085,266.780 32.205 C 266.351 31.988,266.000 31.673,266.000 31.505 C 266.000 31.337,265.640 31.200,265.200 31.200 C 264.760 31.200,264.400 31.023,264.400 30.808 C 264.400 30.592,263.950 30.302,263.400 30.164 C 262.850 30.026,262.400 29.753,262.400 29.557 C 262.400 29.360,262.130 29.200,261.800 29.200 C 261.470 29.200,261.200 29.020,261.200 28.800 C 261.200 28.580,260.943 28.400,260.629 28.400 C 260.314 28.400,259.819 28.175,259.529 27.900 C 259.007 27.406,257.518 26.553,254.000 24.732 C 253.010 24.219,252.110 23.689,252.000 23.554 C 251.890 23.419,251.395 23.181,250.900 23.027 C 250.405 22.872,250.000 22.578,250.000 22.373 C 250.000 22.168,249.745 22.000,249.433 22.000 C 249.122 22.000,248.807 21.865,248.733 21.700 C 248.660 21.535,247.430 20.788,246.000 20.040 C 244.570 19.292,243.116 18.437,242.769 18.140 C 242.421 17.843,241.836 17.600,241.469 17.600 C 241.101 17.600,240.800 17.420,240.800 17.200 C 240.800 16.980,240.530 16.800,240.200 16.800 C 239.870 16.800,239.600 16.632,239.600 16.427 C 239.600 16.222,239.209 15.930,238.732 15.778 C 238.254 15.627,236.949 14.933,235.832 14.237 C 234.714 13.541,233.085 12.618,232.211 12.186 C 231.337 11.754,230.261 11.078,229.819 10.685 C 229.377 10.291,228.607 9.866,228.108 9.741 C 227.609 9.616,227.200 9.392,227.200 9.244 C 227.200 9.096,226.705 8.762,226.100 8.501 C 224.834 7.956,222.642 6.697,221.904 6.091 C 221.627 5.863,220.590 5.238,219.600 4.701 C 218.610 4.164,217.170 3.381,216.400 2.962 C 215.630 2.543,214.909 2.079,214.796 1.932 C 214.684 1.784,214.054 1.531,213.396 1.370 C 212.738 1.209,212.072 0.880,211.915 0.638 C 211.627 0.196,197.400 -0.117,195.100 0.269 M269.921 146.700 C 274.638 149.285,279.016 151.877,279.649 152.460 L 280.800 153.521 280.800 197.516 C 280.800 238.839,280.757 241.561,280.100 242.328 C 279.532 242.991,268.656 249.600,268.133 249.600 C 268.051 249.600,267.313 250.022,266.492 250.538 C 260.438 254.343,248.590 260.800,247.661 260.800 C 246.630 260.800,244.248 259.495,222.913 247.242 C 219.345 245.193,215.970 243.061,215.413 242.504 L 214.400 241.491 214.400 223.234 C 214.400 207.827,214.492 204.847,214.987 204.139 C 215.544 203.345,217.241 202.293,228.600 195.708 C 249.019 183.869,247.203 184.437,253.400 187.947 C 257.234 190.118,258.170 190.376,258.557 189.367 C 258.691 189.019,258.800 178.504,258.800 166.000 C 258.800 153.496,258.909 142.981,259.043 142.633 C 259.533 141.355,261.524 142.099,269.921 146.700 M75.400 186.940 C 102.875 202.746,101.520 201.940,102.406 203.007 C 103.137 203.887,103.530 249.481,102.822 251.342 C 102.538 252.090,102.132 252.400,101.436 252.400 C 100.243 252.400,83.888 243.168,82.200 241.542 L 81.000 240.386 80.884 228.247 C 80.748 214.075,81.421 215.869,74.802 212.033 C 69.649 209.047,69.939 209.044,64.609 212.132 C 58.165 215.865,58.622 214.624,58.483 228.774 C 58.344 242.982,59.732 240.551,47.864 247.377 C 39.024 252.461,37.562 253.024,36.814 251.626 C 36.227 250.529,36.245 204.778,36.833 203.487 C 37.254 202.564,38.141 201.997,49.000 195.711 C 54.355 192.612,66.454 185.748,68.000 184.932 C 69.723 184.023,70.872 184.335,75.400 186.940 M162.168 185.955 C 179.640 195.886,190.373 202.223,191.100 203.037 L 192.000 204.045 192.000 222.061 C 192.000 243.209,192.446 241.264,186.854 244.482 C 184.734 245.702,178.230 249.453,172.400 252.819 C 159.347 260.354,160.034 259.995,158.672 259.998 C 157.579 260.000,155.840 259.049,135.000 247.058 C 124.220 240.855,125.400 243.909,125.400 222.203 L 125.400 204.064 126.400 202.999 C 126.950 202.413,129.110 200.961,131.200 199.771 C 133.290 198.582,139.950 194.737,146.000 191.228 C 158.411 184.028,158.644 183.952,162.168 185.955 M342.800 188.001 C 345.550 189.584,348.700 191.385,349.800 192.001 C 370.653 203.697,369.200 202.393,369.200 209.400 C 369.200 214.392,369.139 214.823,368.300 215.752 C 366.653 217.575,350.117 227.267,348.893 227.126 L 347.800 227.000 347.600 221.959 C 347.362 215.964,347.673 216.443,341.808 213.047 C 336.211 209.807,336.598 209.806,330.882 213.095 C 324.849 216.567,325.228 215.928,325.213 222.656 C 325.196 229.889,323.322 228.220,345.400 240.623 C 359.590 248.595,359.307 247.834,350.000 252.987 C 334.390 261.630,337.120 261.367,326.470 255.248 C 321.921 252.635,315.050 248.685,311.200 246.471 C 302.021 241.194,303.000 244.045,303.000 222.600 C 303.000 201.331,302.272 203.862,309.600 199.640 C 312.570 197.929,318.060 194.756,321.800 192.588 C 337.828 183.301,335.516 183.806,342.800 188.001 M153.000 213.504 L 147.800 216.602 147.800 222.977 L 147.800 229.353 153.000 232.457 C 159.297 236.216,157.998 236.211,164.210 232.500 L 169.400 229.400 169.510 223.128 L 169.620 216.856 168.310 215.878 C 167.590 215.340,165.920 214.309,164.600 213.587 C 163.280 212.865,161.529 211.852,160.708 211.337 C 158.680 210.063,158.863 210.012,153.000 213.504 M241.800 213.525 L 236.600 216.628 236.600 222.999 L 236.600 229.371 241.800 232.468 C 248.092 236.217,246.794 236.213,253.010 232.500 L 258.200 229.400 258.310 223.171 C 258.438 215.890,259.032 216.915,252.458 213.062 C 246.958 209.839,248.057 209.791,241.800 213.525 M339.630 216.846 L 342.400 218.491 342.400 222.148 L 342.400 225.804 339.578 227.502 C 336.155 229.561,336.114 229.562,333.052 227.742 C 329.759 225.783,329.600 225.528,329.600 222.200 C 329.600 218.855,329.795 218.536,333.000 216.646 C 336.040 214.853,336.288 214.860,339.630 216.846 "
              stroke="none" fill="#67daff" fill-rule="evenodd"></path>
    </g>
</svg>