<svg id="svg" version="1.1" width="400" height="400" viewBox="0 0 400 400" xmlns="http://www.w3.org/2000/svg" xmlns:xlink="http://www.w3.org/1999/xlink" ><g id="svgg"><path id="path0" d="M109.600 232.600 L 109.600 234.800 113.000 234.800 L 116.400 234.800 116.400 238.183 L 116.400 241.566 119.500 241.683 L 122.600 241.800 122.600 248.400 L 122.600 255.000 115.800 255.000 L 109.000 255.000 108.800 251.600 L 108.600 248.200 106.000 248.200 L 103.400 248.200 103.290 254.690 L 103.180 261.180 109.490 261.290 L 115.800 261.400 115.800 264.800 L 115.800 268.200 109.718 268.310 L 103.636 268.421 103.518 271.110 L 103.400 273.800 96.800 274.000 L 90.200 274.200 90.200 277.400 L 90.200 280.600 92.600 280.703 C 96.888 280.887,96.800 280.818,96.800 284.000 C 96.800 287.182,96.888 287.113,92.600 287.297 L 90.200 287.400 90.000 290.600 L 89.800 293.800 83.500 293.910 L 77.200 294.020 77.200 297.010 L 77.200 300.000 83.600 300.000 L 90.000 300.000 90.000 302.567 C 90.000 306.350,90.041 306.400,93.163 306.400 C 96.521 306.400,96.800 306.681,96.800 310.063 L 96.800 312.766 99.900 312.883 L 103.000 313.000 103.118 315.900 L 103.235 318.800 106.010 318.800 L 108.785 318.800 108.893 309.500 L 109.000 300.200 112.400 300.000 L 115.800 299.800 116.000 290.400 L 116.200 281.000 118.583 280.878 C 122.986 280.651,122.762 280.328,122.889 287.105 L 123.000 293.000 125.255 293.119 C 128.333 293.281,128.877 293.930,128.720 297.254 L 128.600 299.800 122.549 299.910 L 116.498 300.020 116.202 312.643 C 115.867 326.928,115.613 325.922,119.600 326.080 L 122.600 326.200 122.717 328.866 C 122.871 332.353,122.879 332.357,129.427 332.488 L 135.000 332.600 135.200 335.400 L 135.400 338.200 141.600 338.200 L 147.800 338.200 147.918 335.300 L 148.035 332.400 150.738 332.400 C 154.451 332.400,154.400 332.497,154.400 325.363 C 154.400 318.440,154.202 318.800,158.015 318.800 L 160.365 318.800 160.482 315.900 L 160.600 313.000 164.200 313.000 L 167.800 313.000 167.920 315.764 C 168.065 319.120,167.988 319.186,163.900 319.194 L 160.800 319.200 160.800 328.320 C 160.800 338.851,160.636 338.400,164.466 338.400 C 167.702 338.400,168.000 338.735,168.000 342.374 L 168.000 344.800 176.900 344.806 C 187.383 344.813,186.731 344.565,186.882 348.612 L 187.000 351.800 190.100 351.917 L 193.200 352.034 193.200 355.017 L 193.200 358.000 206.183 358.000 L 219.166 358.000 219.283 361.100 L 219.400 364.200 235.000 364.200 L 250.600 364.200 250.800 361.200 L 251.000 358.200 257.000 358.000 L 263.000 357.800 263.200 355.000 L 263.400 352.200 266.800 352.000 L 270.200 351.800 270.400 345.200 L 270.600 338.600 276.600 338.400 L 282.600 338.200 282.705 336.200 C 282.907 332.327,282.790 332.447,286.504 332.316 L 289.800 332.200 289.917 329.117 L 290.033 326.034 292.917 325.917 L 295.800 325.800 295.910 319.300 L 296.020 312.800 298.810 312.800 L 301.600 312.800 301.600 310.064 L 301.600 307.327 292.900 307.065 C 288.115 306.920,282.644 306.802,280.743 306.801 C 276.724 306.800,276.800 306.877,276.800 302.784 L 276.800 300.034 273.700 299.917 L 270.600 299.800 270.480 297.011 C 270.338 293.723,270.220 293.614,266.780 293.606 C 263.537 293.599,263.198 293.278,263.206 290.220 C 263.215 286.787,263.265 286.747,267.434 286.883 L 271.000 287.000 271.200 289.800 L 271.400 292.600 274.117 292.719 C 277.304 292.858,277.600 293.240,277.600 297.226 L 277.600 299.600 289.600 299.600 L 301.600 299.600 301.600 284.000 L 301.600 268.400 299.014 268.400 C 295.941 268.400,295.600 268.023,295.600 264.626 L 295.600 262.400 293.014 262.400 C 289.887 262.400,289.600 262.050,289.600 258.236 L 289.600 255.620 283.300 255.510 L 277.000 255.400 276.884 251.900 L 276.769 248.400 267.417 248.400 C 256.044 248.400,256.800 248.631,256.800 245.157 L 256.800 242.400 247.618 242.400 L 238.435 242.400 238.318 245.300 L 238.200 248.200 235.300 248.318 L 232.400 248.435 232.400 251.627 C 232.400 255.303,232.099 255.600,228.374 255.600 L 226.400 255.600 226.400 258.200 C 226.400 261.786,225.763 262.400,222.043 262.400 C 218.779 262.400,218.800 262.429,218.800 257.985 L 218.800 254.835 221.700 254.718 L 224.600 254.600 224.710 248.500 L 224.821 242.400 212.443 242.400 C 197.684 242.400,198.800 242.665,198.800 239.157 L 198.800 236.400 196.018 236.400 L 193.237 236.400 193.118 239.100 L 193.000 241.800 190.600 241.903 C 185.962 242.102,186.400 241.129,186.400 251.234 C 186.400 261.874,186.306 261.600,189.971 261.600 C 193.423 261.600,193.200 260.894,193.200 271.833 L 193.200 280.800 195.767 280.800 C 199.560 280.800,199.600 280.834,199.600 284.026 L 199.600 286.766 202.700 286.883 L 205.800 287.000 205.800 290.200 L 205.800 293.400 203.265 293.520 C 199.912 293.679,199.600 293.374,199.600 289.951 L 199.600 287.200 193.900 287.195 C 185.503 287.186,186.433 288.404,186.307 277.255 L 186.200 267.800 183.200 267.600 L 180.200 267.400 180.095 251.900 L 179.991 236.400 177.213 236.400 L 174.435 236.400 174.318 239.300 L 174.200 242.200 171.300 242.318 L 168.400 242.435 168.400 245.175 C 168.400 248.404,168.405 248.400,164.167 248.400 L 161.200 248.400 161.200 254.986 C 161.200 262.955,161.737 262.400,154.026 262.400 L 148.400 262.400 148.400 264.583 L 148.400 266.766 151.500 266.883 L 154.600 267.000 154.709 273.890 L 154.819 280.780 153.893 281.012 C 153.383 281.140,151.894 281.190,150.583 281.122 L 148.200 281.000 148.090 274.500 L 147.980 268.000 144.804 268.000 C 141.111 268.000,140.800 267.725,140.800 264.459 C 140.800 261.248,140.854 261.200,144.443 261.200 L 147.600 261.200 147.600 258.633 C 147.600 254.799,147.599 254.800,151.105 254.800 L 154.123 254.800 153.863 249.700 C 153.720 246.895,153.603 242.755,153.602 240.500 L 153.600 236.400 138.014 236.400 C 120.201 236.400,121.600 236.722,121.600 232.626 L 121.600 230.400 115.600 230.400 L 109.600 230.400 109.600 232.600 M270.320 262.080 C 270.584 262.344,270.800 263.478,270.800 264.600 C 270.800 267.236,271.222 267.600,274.272 267.600 C 277.177 267.600,277.339 267.828,277.124 271.621 L 277.000 273.800 267.400 273.800 L 257.800 273.800 257.600 270.800 L 257.400 267.800 254.400 267.600 L 251.400 267.400 251.282 264.500 L 251.165 261.600 260.502 261.600 C 267.232 261.600,269.974 261.734,270.320 262.080 M244.310 280.483 L 244.420 286.766 241.310 286.883 L 238.200 287.000 238.090 293.490 L 237.980 299.979 231.890 300.090 L 225.800 300.200 225.600 306.400 L 225.400 312.600 215.717 312.707 L 206.034 312.814 205.917 309.707 L 205.800 306.600 199.500 306.490 L 193.200 306.380 193.200 303.190 L 193.200 300.000 202.583 300.000 L 211.966 300.000 212.083 296.900 L 212.200 293.800 218.372 293.689 C 225.683 293.558,225.600 293.601,225.600 289.951 L 225.600 287.200 227.967 287.200 C 231.538 287.200,231.600 287.145,231.600 283.974 L 231.600 281.234 234.700 281.117 L 237.800 281.000 237.908 278.000 C 238.060 273.791,237.926 273.946,241.294 274.082 L 244.200 274.200 244.310 280.483 M193.016 294.521 C 193.143 295.028,193.192 296.423,193.124 297.621 L 193.000 299.800 189.900 299.917 L 186.800 300.034 186.800 297.083 C 186.800 293.497,186.703 293.600,190.059 293.600 C 192.571 293.600,192.803 293.672,193.016 294.521 " stroke="none" fill="#bd2f43" fill-rule="evenodd"></path><path id="path1" d="M166.400 6.600 L 166.400 9.600 153.400 9.600 L 140.400 9.600 140.400 12.600 L 140.400 15.600 134.000 15.600 L 127.600 15.600 127.600 19.000 L 127.600 22.400 121.600 22.400 L 115.600 22.400 115.600 25.390 L 115.600 28.380 109.100 28.490 L 102.600 28.600 102.484 32.100 L 102.369 35.600 98.984 35.600 L 95.600 35.600 95.600 38.600 L 95.600 41.600 89.000 41.600 L 82.400 41.600 82.400 44.982 L 82.400 48.365 79.500 48.482 L 76.600 48.600 76.483 51.483 L 76.366 54.366 73.483 54.483 L 70.600 54.600 70.482 57.500 L 70.365 60.400 66.982 60.400 L 63.600 60.400 63.600 67.384 L 63.600 74.369 60.100 74.484 L 56.600 74.600 56.483 77.483 L 56.366 80.366 53.483 80.483 L 50.600 80.600 50.483 83.483 L 50.366 86.366 47.483 86.483 L 44.600 86.600 44.490 93.100 L 44.380 99.600 40.990 99.600 L 37.600 99.600 37.600 106.000 L 37.600 112.400 34.600 112.400 L 31.600 112.400 31.600 121.984 L 31.600 131.569 28.100 131.684 L 24.600 131.800 24.494 144.683 L 24.389 157.565 21.494 157.683 L 18.600 157.800 18.498 200.100 C 18.397 242.199,18.400 242.400,19.198 242.400 C 19.933 242.400,20.000 242.136,20.000 239.233 C 20.000 234.894,20.056 234.800,22.643 234.800 L 24.800 234.800 24.800 197.070 L 24.800 159.339 25.726 158.470 C 26.470 157.770,27.136 157.600,29.126 157.600 L 31.600 157.600 31.600 145.850 C 31.600 139.388,31.712 133.538,31.850 132.850 L 32.100 131.600 34.850 131.600 L 37.600 131.600 37.600 122.216 L 37.600 112.831 41.100 112.716 L 44.600 112.600 44.710 106.100 L 44.820 99.600 47.810 99.600 L 50.800 99.600 50.800 94.000 C 50.800 87.234,51.028 86.800,54.582 86.800 L 56.765 86.800 56.882 83.900 L 57.000 81.000 60.300 80.884 L 63.600 80.768 63.600 77.799 L 63.600 74.831 67.100 74.716 L 70.600 74.600 70.697 68.600 C 70.830 60.395,70.640 60.861,73.903 60.718 L 76.600 60.600 76.705 58.600 C 76.906 54.745,76.858 54.800,79.990 54.800 L 82.765 54.800 82.882 51.900 L 83.000 49.000 89.300 48.890 L 95.600 48.780 95.600 45.440 L 95.600 42.100 96.850 41.850 C 97.538 41.713,99.158 41.600,100.450 41.600 L 102.800 41.600 102.800 38.600 L 102.800 35.600 109.200 35.600 L 115.600 35.600 115.605 33.100 C 115.615 28.531,115.225 28.800,121.847 28.800 L 127.600 28.800 127.600 26.008 C 127.600 22.639,127.165 22.833,135.000 22.697 L 140.600 22.600 140.700 20.400 C 140.755 19.190,140.898 17.615,141.018 16.900 L 141.236 15.600 154.018 15.600 L 166.800 15.600 166.800 12.847 C 166.800 9.282,163.466 9.611,199.600 9.611 C 235.734 9.611,232.400 9.282,232.400 12.847 L 232.400 15.600 244.500 15.607 L 256.600 15.614 257.500 16.563 C 258.246 17.350,258.400 17.963,258.400 20.146 L 258.400 22.780 264.700 22.890 L 271.000 23.000 271.200 25.800 L 271.400 28.600 277.252 28.710 L 283.104 28.821 283.352 30.060 C 283.488 30.742,283.600 32.267,283.600 33.450 L 283.600 35.600 290.000 35.600 L 296.400 35.600 296.400 38.600 L 296.400 41.600 298.900 41.605 C 303.183 41.615,303.151 41.588,303.285 45.343 L 303.400 48.600 309.500 48.710 L 315.600 48.821 315.600 51.810 L 315.600 54.800 318.753 54.800 C 322.356 54.800,322.384 54.831,322.395 58.700 L 322.400 60.800 325.111 60.800 C 329.079 60.800,329.153 60.937,329.290 68.492 L 329.400 74.600 332.200 74.800 L 335.000 75.000 335.200 77.800 L 335.400 80.600 338.500 80.717 L 341.600 80.834 341.600 83.817 L 341.600 86.800 344.130 86.800 C 348.122 86.800,348.400 87.278,348.400 94.126 L 348.400 99.600 351.400 99.600 L 354.400 99.600 354.400 106.184 L 354.400 112.768 357.700 112.884 L 361.000 113.000 361.107 122.300 L 361.215 131.600 364.017 131.600 C 367.733 131.600,367.600 131.080,367.600 145.626 L 367.600 157.600 370.100 157.607 C 372.207 157.613,372.742 157.763,373.500 158.563 L 374.400 159.513 374.400 197.156 L 374.400 234.800 377.400 234.800 L 380.400 234.800 380.400 196.200 L 380.400 157.600 377.400 157.600 L 374.400 157.600 374.400 144.600 L 374.400 131.600 371.000 131.600 L 367.600 131.600 367.600 122.000 L 367.600 112.400 364.600 112.400 L 361.600 112.400 361.600 106.000 L 361.600 99.600 358.000 99.600 L 354.400 99.600 354.400 93.000 L 354.400 86.400 351.400 86.400 L 348.400 86.400 348.400 83.400 L 348.400 80.400 345.000 80.400 L 341.600 80.400 341.600 77.400 L 341.600 74.400 338.609 74.400 L 335.619 74.400 335.509 67.500 L 335.400 60.600 332.517 60.483 L 329.634 60.366 329.517 57.483 L 329.400 54.600 325.900 54.484 L 322.400 54.369 322.400 51.384 L 322.400 48.400 319.000 48.400 L 315.600 48.400 315.600 45.000 L 315.600 41.600 309.600 41.600 L 303.600 41.600 303.600 38.600 L 303.600 35.600 300.000 35.600 L 296.400 35.600 296.400 32.000 L 296.400 28.400 290.000 28.400 L 283.600 28.400 283.600 25.400 L 283.600 22.400 277.600 22.400 L 271.600 22.400 271.600 19.000 L 271.600 15.600 265.000 15.600 L 258.400 15.600 258.400 12.600 L 258.400 9.600 245.400 9.600 L 232.400 9.600 232.400 6.600 L 232.400 3.600 199.400 3.600 L 166.400 3.600 166.400 6.600 M193.467 36.267 C 193.320 36.413,193.200 37.763,193.200 39.267 L 193.200 42.000 190.633 42.000 C 186.781 42.000,186.800 41.982,186.800 45.635 C 186.800 49.235,186.942 49.111,182.600 49.297 L 180.200 49.400 180.000 52.600 L 179.800 55.800 177.000 56.000 L 174.200 56.200 174.089 62.083 L 173.979 67.965 171.089 68.083 L 168.200 68.200 168.090 74.495 C 167.964 81.713,168.361 81.110,163.600 81.298 L 161.000 81.400 161.000 90.600 L 161.000 99.800 164.400 100.000 L 167.800 100.200 168.000 109.600 L 168.200 119.000 171.000 119.200 L 173.800 119.400 174.000 125.600 L 174.200 131.800 177.000 132.000 L 179.800 132.200 180.000 135.400 L 180.200 138.600 182.600 138.703 C 187.134 138.897,186.764 138.310,186.890 145.505 L 187.000 151.800 196.400 151.800 L 205.800 151.800 206.000 148.400 L 206.200 145.000 209.083 144.883 L 211.966 144.766 212.083 141.883 L 212.200 139.000 215.500 138.884 L 218.800 138.768 218.800 133.158 C 218.800 126.058,218.829 126.000,222.414 126.000 L 225.200 126.000 225.200 119.643 C 225.200 112.400,224.987 112.800,228.840 112.800 L 231.215 112.800 231.107 103.500 L 231.000 94.200 228.745 94.081 C 225.200 93.895,225.234 93.991,225.108 83.978 L 225.000 75.400 222.000 75.200 L 219.000 75.000 218.890 68.516 L 218.780 62.032 215.490 61.916 L 212.200 61.800 212.000 55.600 L 211.800 49.400 209.000 49.200 L 206.200 49.000 206.000 45.600 L 205.800 42.200 202.500 42.084 L 199.200 41.968 199.200 39.227 C 199.200 37.096,199.059 36.432,198.567 36.243 C 197.713 35.915,193.800 35.933,193.467 36.267 M103.200 129.382 L 103.200 138.765 106.100 138.882 L 109.000 139.000 109.118 141.900 L 109.235 144.800 112.608 144.800 L 115.980 144.800 116.090 151.300 L 116.200 157.800 118.792 157.921 C 122.131 158.078,122.727 158.606,122.881 161.545 L 123.000 163.800 125.255 163.919 C 128.194 164.073,128.722 164.669,128.879 168.008 L 129.000 170.600 132.000 170.800 L 135.000 171.000 135.200 174.400 L 135.400 177.800 141.683 177.910 L 147.965 178.020 148.083 180.910 L 148.200 183.800 151.400 184.000 L 154.600 184.200 154.800 187.000 L 155.000 189.800 164.400 190.000 L 173.800 190.200 174.000 193.000 L 174.200 195.800 180.111 195.911 L 186.022 196.022 185.911 190.111 L 185.800 184.200 182.907 184.083 L 180.014 183.965 179.907 174.483 L 179.800 165.000 177.000 164.800 L 174.200 164.600 174.000 161.800 L 173.800 159.000 170.935 158.883 C 167.184 158.730,167.241 158.840,167.111 151.572 L 167.000 145.400 164.018 145.281 C 160.241 145.130,160.000 144.918,160.000 141.751 L 160.000 139.200 154.017 139.200 L 148.034 139.200 147.917 136.100 L 147.800 133.000 138.623 132.892 C 127.937 132.767,128.106 132.825,127.919 129.255 L 127.800 127.000 125.605 126.876 C 122.506 126.700,122.000 126.119,122.000 122.738 L 122.000 120.000 112.600 120.000 L 103.200 120.000 103.200 129.382 M264.271 127.063 C 264.122 127.212,264.000 128.215,264.000 129.293 C 264.000 132.950,264.418 132.800,254.229 132.800 C 244.079 132.800,244.800 132.525,244.800 136.390 C 244.800 139.288,245.021 139.200,237.767 139.200 L 232.000 139.200 232.000 141.957 C 232.000 145.147,231.941 145.200,228.367 145.200 L 226.000 145.200 226.000 154.324 C 226.000 165.122,226.142 164.727,222.200 164.887 L 219.400 165.000 219.290 171.490 L 219.180 177.980 212.690 178.090 L 206.200 178.200 206.200 187.000 L 206.200 195.800 215.700 195.907 L 225.200 196.014 225.200 193.421 C 225.200 189.935,225.008 190.000,235.356 190.000 L 243.965 190.000 244.082 187.100 L 244.200 184.200 257.000 184.000 L 269.800 183.800 270.000 181.000 L 270.200 178.200 273.485 178.084 L 276.769 177.968 276.885 174.484 L 277.000 171.000 279.900 170.882 L 282.800 170.765 282.800 165.059 C 282.800 158.028,282.780 158.063,286.800 157.913 L 289.800 157.800 290.000 151.400 L 290.200 145.000 293.090 144.883 L 295.980 144.765 296.090 138.483 L 296.200 132.200 299.119 132.082 L 302.037 131.964 301.919 129.482 L 301.800 127.000 283.171 126.896 C 272.924 126.839,264.419 126.914,264.271 127.063 M193.467 158.667 C 193.320 158.813,193.200 168.699,193.200 180.634 C 193.200 205.805,193.507 203.600,190.006 203.600 C 186.175 203.600,186.424 202.493,186.305 220.035 L 186.200 235.400 183.095 235.517 L 179.991 235.634 180.095 251.517 L 180.200 267.400 183.200 267.600 L 186.200 267.800 186.307 277.255 C 186.433 288.404,185.503 287.186,193.900 287.195 L 199.600 287.200 199.600 289.951 C 199.600 293.374,199.912 293.679,203.265 293.520 L 205.800 293.400 205.800 290.200 L 205.800 287.000 202.700 286.883 L 199.600 286.766 199.600 284.026 C 199.600 280.834,199.560 280.800,195.767 280.800 L 193.200 280.800 193.200 271.833 C 193.200 260.894,193.423 261.600,189.971 261.600 C 186.306 261.600,186.400 261.874,186.400 251.234 C 186.400 241.129,185.962 242.102,190.600 241.903 L 193.000 241.800 193.105 225.917 L 193.209 210.033 196.305 209.917 L 199.400 209.800 199.504 184.600 C 199.601 161.264,199.558 159.363,198.928 158.900 C 198.221 158.381,193.935 158.198,193.467 158.667 M26.000 238.986 C 26.000 241.162,25.873 241.640,25.200 242.000 C 24.425 242.415,24.400 242.838,24.400 255.414 L 24.400 268.400 28.000 268.400 L 31.600 268.400 31.600 274.600 L 31.600 280.800 34.600 280.800 L 37.600 280.800 37.600 271.600 L 37.600 262.400 35.020 262.400 L 32.440 262.400 32.320 264.700 L 32.200 267.000 29.200 267.000 L 26.200 267.000 26.076 264.821 C 25.860 261.009,26.012 260.800,29.008 260.800 L 31.600 260.800 31.600 248.600 L 31.600 236.400 28.800 236.400 L 26.000 236.400 26.000 238.986 M367.600 248.600 L 367.600 260.800 370.182 260.800 L 372.764 260.800 373.009 262.109 C 373.144 262.829,373.198 264.224,373.127 265.209 L 373.000 267.000 370.000 267.000 L 367.000 267.000 366.880 264.700 L 366.760 262.400 363.973 262.400 L 361.185 262.400 361.292 271.500 L 361.400 280.600 364.500 280.717 L 367.600 280.834 367.600 274.617 L 367.600 268.400 371.000 268.400 L 374.400 268.400 374.400 255.414 C 374.400 242.838,374.375 242.415,373.600 242.000 C 372.927 241.640,372.800 241.162,372.800 238.986 L 372.800 236.400 370.200 236.400 L 367.600 236.400 367.600 248.600 M38.400 284.376 C 38.400 285.903,38.220 287.264,38.000 287.400 C 37.780 287.536,37.600 288.814,37.600 290.239 L 37.600 292.831 41.100 292.716 L 44.600 292.600 44.711 287.100 L 44.823 281.600 41.611 281.600 L 38.400 281.600 38.400 284.376 M354.400 287.182 L 354.400 292.763 357.100 292.882 L 359.800 293.000 359.915 296.700 C 360.020 300.071,360.100 300.400,360.815 300.400 C 362.047 300.400,362.033 287.391,360.800 287.000 C 360.109 286.781,360.000 286.395,360.000 284.173 L 360.000 281.600 357.200 281.600 L 354.400 281.600 354.400 287.182 M45.200 297.400 C 45.200 299.133,45.031 300.400,44.800 300.400 C 44.570 300.400,44.400 301.634,44.399 303.300 L 44.399 306.200 47.499 306.000 L 50.600 305.800 50.711 300.100 L 50.822 294.400 48.011 294.400 L 45.200 294.400 45.200 297.400 M348.400 300.200 L 348.400 306.000 351.400 306.000 L 354.400 306.000 354.400 303.224 C 354.400 301.697,354.220 300.336,354.000 300.200 C 353.780 300.064,353.600 298.703,353.600 297.176 L 353.600 294.400 351.000 294.400 L 348.400 294.400 348.400 300.200 M52.173 307.727 C 52.053 308.039,52.010 309.264,52.077 310.448 L 52.200 312.600 54.519 312.721 L 56.837 312.841 56.719 310.121 L 56.600 307.400 54.496 307.279 C 52.960 307.191,52.332 307.312,52.173 307.727 M341.600 309.981 L 341.600 312.800 344.218 312.800 L 346.837 312.800 346.718 310.100 L 346.600 307.400 344.100 307.281 L 341.600 307.162 341.600 309.981 M50.830 313.364 C 50.050 314.304,50.436 319.360,51.300 319.525 C 51.923 319.644,52.000 319.280,52.000 316.229 C 52.000 312.853,51.754 312.251,50.830 313.364 M347.200 316.213 C 347.200 318.957,347.314 319.600,347.800 319.600 C 348.283 319.600,348.400 318.983,348.400 316.443 C 348.400 314.005,348.263 313.233,347.800 313.055 C 347.296 312.862,347.200 313.366,347.200 316.213 M58.081 316.100 L 58.200 318.600 60.900 318.718 L 63.600 318.837 63.600 316.218 L 63.600 313.600 60.781 313.600 L 57.962 313.600 58.081 316.100 M335.281 316.100 L 335.400 318.600 338.100 318.718 L 340.800 318.837 340.800 316.218 L 340.800 313.600 337.981 313.600 L 335.162 313.600 335.281 316.100 M56.880 319.280 C 55.967 320.193,56.246 326.400,57.200 326.400 C 57.944 326.400,58.000 326.133,58.000 322.600 C 58.000 318.853,57.825 318.335,56.880 319.280 M64.400 322.776 C 64.400 324.523,64.220 326.064,64.000 326.200 C 63.780 326.336,63.600 327.704,63.600 329.239 L 63.600 332.031 67.100 331.916 L 70.600 331.800 70.710 325.700 L 70.821 319.600 67.610 319.600 L 64.400 319.600 64.400 322.776 M329.290 325.700 L 329.400 331.800 331.600 332.000 L 333.800 332.200 333.918 335.100 L 334.035 338.000 331.018 338.000 L 328.000 338.000 328.000 341.800 C 328.000 345.333,328.056 345.600,328.800 345.600 C 329.528 345.600,329.600 345.333,329.600 342.618 L 329.600 339.635 332.500 339.518 L 335.400 339.400 335.510 332.919 C 335.614 326.763,335.579 326.417,334.810 326.005 C 334.108 325.630,334.000 325.175,334.000 322.586 L 334.000 319.600 331.590 319.600 L 329.179 319.600 329.290 325.700 M71.370 333.735 C 71.249 334.050,71.206 335.094,71.275 336.054 L 71.400 337.800 74.000 337.800 L 76.600 337.800 76.600 335.600 L 76.600 333.400 74.095 333.281 C 72.207 333.191,71.535 333.303,71.370 333.735 M322.400 335.600 L 322.400 338.037 325.100 337.918 L 327.800 337.800 327.800 335.600 L 327.800 333.400 325.100 333.282 L 322.400 333.163 322.400 335.600 M63.600 338.800 C 63.600 339.826,70.541 340.053,70.930 339.039 C 71.282 338.122,70.837 338.000,67.133 338.000 C 63.867 338.000,63.600 338.060,63.600 338.800 M77.372 339.728 C 77.252 340.040,77.210 341.264,77.277 342.448 L 77.400 344.600 80.119 344.719 L 82.837 344.837 82.719 342.119 L 82.600 339.400 80.095 339.281 C 78.219 339.192,77.535 339.304,77.372 339.728 M315.600 342.000 L 315.600 344.800 318.600 344.800 L 321.600 344.800 321.600 342.000 L 321.600 339.200 318.600 339.200 L 315.600 339.200 315.600 342.000 M84.000 348.600 L 84.000 351.600 89.800 351.600 L 95.600 351.600 95.600 348.600 L 95.600 345.600 89.800 345.600 L 84.000 345.600 84.000 348.600 M303.200 348.600 L 303.200 351.600 309.000 351.600 L 314.800 351.600 314.800 348.600 L 314.800 345.600 309.000 345.600 L 303.200 345.600 303.200 348.600 M82.900 352.265 C 81.950 352.648,82.232 358.400,83.200 358.400 C 83.933 358.400,84.000 358.133,84.000 355.200 C 84.000 353.440,83.865 352.014,83.700 352.032 C 83.535 352.049,83.175 352.154,82.900 352.265 M97.200 355.000 L 97.200 357.600 100.000 357.600 L 102.800 357.600 102.800 355.000 L 102.800 352.400 100.000 352.400 L 97.200 352.400 97.200 355.000 M296.400 355.000 L 296.400 357.600 299.200 357.600 L 302.000 357.600 302.000 355.000 L 302.000 352.400 299.200 352.400 L 296.400 352.400 296.400 355.000 M95.867 358.267 C 95.720 358.413,95.600 360.123,95.600 362.067 L 95.600 365.600 99.200 365.600 C 101.333 365.600,102.800 365.437,102.800 365.200 C 102.800 364.980,102.845 364.665,102.900 364.500 C 102.955 364.335,101.650 364.110,100.000 364.000 L 97.000 363.800 96.882 360.900 C 96.773 358.207,96.538 357.596,95.867 358.267 M302.000 360.971 L 302.000 364.000 298.971 364.000 C 296.301 364.000,295.957 364.083,296.076 364.700 C 296.193 365.305,296.700 365.400,299.805 365.400 L 303.400 365.400 303.400 361.805 C 303.400 358.700,303.305 358.193,302.700 358.076 C 302.083 357.957,302.000 358.301,302.000 360.971 M103.282 361.100 L 103.400 363.800 109.500 363.910 L 115.600 364.021 115.600 361.210 L 115.600 358.400 109.382 358.400 L 103.163 358.400 103.282 361.100 M283.600 361.200 L 283.600 364.000 289.600 364.000 L 295.600 364.000 295.600 361.200 L 295.600 358.400 289.600 358.400 L 283.600 358.400 283.600 361.200 M116.400 367.600 L 116.400 370.000 122.000 370.000 L 127.600 370.000 127.600 367.600 L 127.600 365.200 122.000 365.200 L 116.400 365.200 116.400 367.600 M271.367 365.743 C 271.247 366.054,271.206 367.094,271.275 368.054 L 271.400 369.800 277.000 369.800 L 282.600 369.800 282.600 367.600 L 282.600 365.400 277.092 365.289 C 272.639 365.199,271.542 365.286,271.367 365.743 M102.476 370.700 C 102.598 371.333,103.243 371.400,109.200 371.400 C 115.157 371.400,115.802 371.333,115.924 370.700 C 116.048 370.055,115.517 370.000,109.200 370.000 C 102.883 370.000,102.352 370.055,102.476 370.700 M283.070 370.263 C 282.087 371.246,283.936 371.600,290.049 371.600 C 296.133 371.600,296.400 371.566,296.400 370.800 C 296.400 369.994,283.845 369.488,283.070 370.263 M129.477 371.456 C 129.325 371.608,129.200 372.878,129.200 374.278 L 129.200 376.822 134.900 376.711 L 140.600 376.600 140.600 374.000 L 140.600 371.400 135.177 371.289 C 132.195 371.228,129.630 371.303,129.477 371.456 M258.400 373.989 L 258.400 376.800 264.218 376.800 L 270.037 376.800 269.918 374.100 L 269.800 371.400 264.100 371.289 L 258.400 371.178 258.400 373.989 M115.600 377.800 C 115.600 378.307,116.533 378.400,121.600 378.400 L 127.600 378.400 127.600 381.400 C 127.600 383.990,127.696 384.400,128.300 384.401 C 128.924 384.402,128.986 384.013,128.872 380.801 L 128.743 377.200 122.172 377.200 C 116.597 377.200,115.600 377.291,115.600 377.800 M270.000 380.800 C 270.000 384.133,270.059 384.400,270.800 384.400 C 271.529 384.400,271.600 384.133,271.600 381.400 L 271.600 378.400 277.600 378.400 C 282.667 378.400,283.600 378.307,283.600 377.800 C 283.600 377.290,282.578 377.200,276.800 377.200 L 270.000 377.200 270.000 380.800 M141.200 381.000 L 141.200 383.600 154.000 383.600 L 166.800 383.600 166.800 381.000 L 166.800 378.400 154.000 378.400 L 141.200 378.400 141.200 381.000 M232.400 381.000 L 232.400 383.600 244.600 383.600 L 256.800 383.600 256.800 381.000 L 256.800 378.400 244.600 378.400 L 232.400 378.400 232.400 381.000 M257.200 387.167 C 257.200 389.813,257.312 390.400,257.817 390.400 C 258.619 390.400,258.507 384.366,257.700 384.099 C 257.328 383.976,257.200 384.758,257.200 387.167 M168.000 387.000 L 168.000 389.600 199.400 389.600 L 230.800 389.600 230.800 387.000 L 230.800 384.400 199.400 384.400 L 168.000 384.400 168.000 387.000 M166.883 390.340 C 166.510 390.577,166.398 391.612,166.483 394.034 L 166.600 397.400 199.515 397.502 L 232.430 397.605 232.315 393.935 C 232.165 389.157,231.200 388.319,231.200 392.967 L 231.200 396.000 199.600 396.000 L 168.000 396.000 168.000 393.000 C 168.000 390.017,167.872 389.713,166.883 390.340 " stroke="none" fill="#308746" fill-rule="evenodd"></path><path id="path2" d="M168.267 10.267 C 168.120 10.413,168.000 11.741,168.000 13.218 C 168.000 16.986,168.801 16.773,154.166 16.894 L 141.400 17.000 141.200 20.000 L 141.000 23.000 135.000 23.200 L 129.000 23.400 128.883 26.265 C 128.731 29.993,128.796 29.957,121.973 30.089 L 116.200 30.200 116.083 33.090 L 115.965 35.980 109.683 36.090 L 103.400 36.200 103.282 39.100 L 103.165 42.000 100.482 42.006 C 96.914 42.014,96.857 42.072,96.718 45.812 L 96.600 49.000 90.300 49.110 L 84.000 49.220 84.000 51.982 C 84.000 55.608,83.608 56.000,79.989 56.000 L 77.235 56.000 77.118 58.900 L 77.000 61.800 74.110 61.917 L 71.220 62.035 71.110 68.517 L 71.000 75.000 67.600 75.200 L 64.200 75.400 64.082 78.300 L 63.965 81.200 60.982 81.200 L 58.000 81.200 58.000 83.971 C 58.000 87.517,57.567 88.000,54.382 88.000 L 52.021 88.000 51.911 93.900 L 51.800 99.800 48.600 100.000 L 45.400 100.200 45.200 106.600 L 45.000 113.000 41.600 113.200 L 38.200 113.400 38.093 123.100 L 37.986 132.800 35.236 132.800 C 31.736 132.800,32.000 131.690,32.000 146.415 L 32.000 158.765 29.100 158.882 L 26.200 159.000 26.200 197.000 L 26.200 235.000 29.100 235.118 L 32.000 235.235 32.000 247.585 C 32.000 262.310,31.736 261.200,35.236 261.200 L 37.986 261.200 38.093 270.900 L 38.200 280.600 41.600 280.800 L 45.000 281.000 45.200 287.000 L 45.400 293.000 48.183 293.120 C 52.098 293.289,52.000 293.111,52.000 300.049 L 52.000 306.000 54.338 306.000 C 57.474 306.000,58.000 306.593,58.000 310.131 L 58.000 312.800 60.982 312.800 L 63.965 312.800 64.082 315.700 L 64.200 318.600 67.600 318.800 L 71.000 319.000 71.110 325.500 L 71.220 332.000 73.967 332.000 C 77.146 332.000,77.200 332.061,77.200 335.633 L 77.200 338.000 79.938 338.000 C 83.517 338.000,84.000 338.490,84.000 342.121 L 84.000 344.780 90.300 344.890 L 96.600 345.000 96.800 348.400 L 97.000 351.800 100.083 351.917 L 103.166 352.033 103.283 354.917 L 103.400 357.800 109.683 357.910 L 115.965 358.020 116.083 360.910 L 116.200 363.800 122.082 364.000 C 128.797 364.228,128.715 364.187,128.878 367.400 L 129.000 369.800 134.895 369.911 C 141.654 370.038,141.111 369.657,141.298 374.400 L 141.400 377.000 154.166 377.106 C 168.787 377.227,167.922 376.989,168.083 380.935 L 168.200 383.800 199.600 383.800 L 231.000 383.800 231.117 380.935 C 231.277 376.995,230.459 377.227,244.634 377.106 L 257.000 377.000 257.113 374.000 C 257.264 369.979,257.226 370.000,264.276 370.000 L 270.000 370.000 270.000 367.662 C 270.000 364.132,270.257 364.000,277.114 364.000 L 282.765 364.000 282.882 361.100 L 283.000 358.200 289.400 358.000 L 295.800 357.800 295.917 354.917 L 296.034 352.034 298.917 351.917 L 301.800 351.800 301.919 348.818 C 302.085 344.678,301.875 344.800,308.849 344.800 L 314.800 344.800 314.800 341.849 C 314.800 338.236,314.967 338.073,318.818 337.919 L 321.800 337.800 322.000 335.000 L 322.200 332.200 325.100 332.082 L 328.000 331.965 328.000 325.862 C 328.000 318.747,327.974 318.800,331.480 318.800 L 334.000 318.800 334.000 316.280 C 334.000 313.059,334.289 312.800,337.880 312.800 L 340.800 312.800 340.800 309.880 C 340.800 306.250,341.037 306.000,344.480 306.000 L 347.200 306.000 347.200 300.049 C 347.200 293.111,347.102 293.289,351.017 293.120 L 353.800 293.000 353.910 286.900 L 354.021 280.800 357.010 280.800 L 360.000 280.800 360.000 271.774 C 360.000 260.816,359.861 261.200,363.814 261.200 L 366.800 261.200 366.806 248.700 C 366.813 234.340,366.578 235.277,370.211 235.120 L 373.000 235.000 373.000 197.000 L 373.000 159.000 370.211 158.880 C 366.578 158.723,366.813 159.660,366.806 145.300 L 366.800 132.800 363.814 132.800 C 359.861 132.800,360.000 133.184,360.000 122.226 L 360.000 113.200 357.010 113.200 L 354.020 113.200 353.910 106.700 L 353.800 100.200 350.511 100.084 L 347.221 99.968 347.111 94.084 L 347.000 88.200 344.211 88.080 C 340.890 87.936,340.814 87.848,340.806 84.100 L 340.800 81.200 338.033 81.200 C 334.015 81.200,334.000 81.188,334.000 77.957 L 334.000 75.200 331.633 75.200 C 327.789 75.200,328.000 75.596,328.000 68.375 L 328.000 62.035 325.100 61.918 L 322.200 61.800 322.000 59.000 L 321.800 56.200 318.612 56.082 C 314.845 55.942,314.814 55.909,314.806 52.100 L 314.800 49.200 308.900 49.194 C 301.758 49.186,302.066 49.354,301.918 45.388 L 301.800 42.200 298.917 42.083 L 296.034 41.966 295.917 39.083 L 295.800 36.200 289.300 36.090 L 282.800 35.980 282.800 32.990 L 282.800 30.000 277.062 30.000 C 270.109 30.000,270.000 29.936,270.000 25.869 L 270.000 23.200 264.100 23.194 C 257.043 23.187,257.272 23.298,257.120 19.789 L 257.000 17.000 244.634 16.894 C 230.435 16.773,231.200 16.983,231.200 13.194 C 231.200 11.093,231.058 10.431,230.567 10.243 C 229.700 9.910,168.600 9.934,168.267 10.267 M200.000 39.000 L 200.200 41.800 203.084 41.917 L 205.968 42.034 206.084 45.317 L 206.200 48.600 209.100 48.718 L 212.000 48.835 212.006 54.518 C 212.014 61.417,211.854 61.135,215.812 61.282 L 219.000 61.400 219.110 68.100 L 219.219 74.800 222.110 74.806 C 226.238 74.815,225.968 74.179,226.092 84.219 L 226.200 93.000 228.600 93.115 C 232.079 93.282,232.000 93.038,232.000 103.634 C 232.000 113.948,232.284 113.200,228.367 113.200 L 226.000 113.200 226.000 119.551 C 226.000 126.937,226.118 126.710,222.183 126.880 L 219.400 127.000 219.200 133.000 L 219.000 139.000 215.600 139.200 L 212.200 139.400 212.083 142.283 L 211.966 145.166 209.083 145.283 L 206.200 145.400 206.084 148.707 L 205.967 152.014 196.084 151.907 L 186.200 151.800 186.090 145.500 L 185.980 139.200 183.007 139.200 L 180.034 139.200 179.917 136.100 L 179.800 133.000 176.910 132.883 L 174.020 132.765 173.910 126.483 L 173.800 120.200 171.000 120.000 C 166.920 119.709,167.200 120.461,167.200 109.784 L 167.200 100.415 166.300 100.210 C 165.805 100.097,164.230 99.959,162.800 99.902 L 160.200 99.800 160.092 90.850 C 159.965 80.272,159.757 80.800,164.039 80.800 L 167.180 80.800 167.290 74.500 L 167.400 68.200 170.600 68.000 L 173.800 67.800 174.000 61.600 L 174.200 55.400 177.000 55.200 L 179.800 55.000 179.917 51.900 L 180.034 48.800 183.001 48.800 L 185.968 48.800 186.084 45.500 L 186.200 42.200 189.500 42.084 L 192.800 41.968 192.800 39.250 C 192.800 35.867,192.705 35.947,196.582 36.085 L 199.800 36.200 200.000 39.000 M122.331 119.717 C 122.567 120.001,122.814 121.486,122.880 123.017 L 123.000 125.800 125.480 126.000 C 128.548 126.247,128.727 126.427,128.878 129.400 L 129.000 131.800 138.400 132.000 L 147.800 132.200 148.000 135.400 L 148.200 138.600 154.400 138.800 L 160.600 139.000 160.800 141.800 L 161.000 144.600 163.600 144.702 C 168.398 144.891,168.000 144.269,168.000 151.590 L 168.000 157.965 170.900 158.082 L 173.800 158.200 174.000 161.000 L 174.200 163.800 177.000 164.000 L 179.800 164.200 180.000 174.000 L 180.200 183.800 183.500 183.916 L 186.800 184.032 186.800 189.936 C 186.800 197.302,187.302 196.800,179.938 196.800 L 174.035 196.800 173.918 193.900 L 173.800 191.000 164.412 190.892 C 153.696 190.770,154.271 190.980,154.000 187.081 L 153.800 184.200 150.917 184.083 L 148.034 183.966 147.917 181.083 L 147.800 178.200 141.300 178.090 L 134.800 177.980 134.800 174.590 L 134.800 171.200 131.900 171.194 C 128.152 171.186,128.064 171.110,127.920 167.789 L 127.800 165.000 125.400 164.878 C 122.427 164.727,122.247 164.548,122.000 161.480 L 121.800 159.000 118.910 158.883 L 116.019 158.765 115.910 152.083 L 115.800 145.400 112.400 145.200 L 109.000 145.000 108.883 142.117 L 108.766 139.234 105.883 139.117 L 103.000 139.000 102.887 130.000 C 102.825 125.050,102.873 120.595,102.995 120.100 L 103.215 119.200 112.559 119.200 C 119.706 119.200,122.003 119.321,122.331 119.717 M302.026 126.414 C 302.665 126.756,302.800 127.266,302.800 129.334 C 302.800 132.499,302.484 132.800,299.163 132.800 C 295.866 132.800,296.000 132.512,296.000 139.615 L 296.000 145.165 293.100 145.282 L 290.200 145.400 290.090 152.084 L 289.981 158.768 286.690 158.884 L 283.400 159.000 283.200 165.000 L 283.000 171.000 280.100 171.118 L 277.200 171.235 277.200 174.618 L 277.200 178.000 274.633 178.000 C 270.837 178.000,270.800 178.031,270.800 181.243 L 270.800 184.000 258.433 184.000 C 243.703 184.000,244.800 183.743,244.800 187.194 C 244.800 190.901,245.159 190.767,234.969 190.892 L 226.200 191.000 226.077 193.386 C 225.893 196.970,226.418 196.800,215.551 196.800 L 206.000 196.800 206.000 187.400 L 206.000 178.000 212.400 178.000 L 218.800 178.000 218.800 171.449 C 218.800 163.880,218.697 164.096,222.415 163.921 L 225.000 163.800 225.108 154.619 C 225.230 144.220,225.012 144.815,228.700 144.806 L 231.200 144.800 231.200 142.043 C 231.200 138.647,230.868 138.800,238.233 138.800 L 244.000 138.800 244.000 136.062 C 244.000 131.926,243.728 132.037,254.223 131.908 L 263.000 131.800 263.115 129.400 C 263.195 127.738,263.434 126.846,263.892 126.500 C 264.750 125.851,300.823 125.770,302.026 126.414 M199.520 158.480 C 200.348 159.308,200.199 209.838,199.367 210.157 C 199.019 210.291,197.489 210.400,195.967 210.400 L 193.200 210.400 193.200 222.800 L 193.200 235.200 195.951 235.200 C 199.315 235.200,199.524 235.415,199.680 239.017 L 199.800 241.800 212.600 242.000 L 225.400 242.200 225.510 248.500 L 225.620 254.800 228.394 254.800 L 231.168 254.800 231.284 251.500 L 231.400 248.200 234.600 248.000 L 237.800 247.800 237.918 244.893 L 238.035 241.986 247.718 242.093 L 257.400 242.200 257.600 245.000 L 257.800 247.800 267.400 248.000 L 277.000 248.200 277.116 251.490 L 277.232 254.780 283.516 254.890 L 289.800 255.000 290.000 258.000 L 290.200 261.000 293.000 261.200 L 295.800 261.400 296.000 264.200 L 296.200 267.000 299.115 267.200 C 303.050 267.470,302.807 266.317,302.697 284.200 L 302.600 299.800 289.883 299.906 L 277.167 300.011 277.283 303.106 L 277.400 306.200 289.566 306.306 C 303.556 306.428,302.800 306.215,302.800 310.041 C 302.800 313.176,302.881 313.113,298.600 313.297 L 296.200 313.400 296.090 319.683 L 295.980 325.965 293.090 326.083 L 290.200 326.200 290.000 329.400 L 289.800 332.600 286.517 332.716 L 283.234 332.832 283.117 335.716 L 283.000 338.600 277.000 338.800 L 271.000 339.000 270.800 345.400 L 270.600 351.800 267.400 352.000 L 264.200 352.200 264.000 355.000 L 263.800 357.800 257.600 358.000 L 251.400 358.200 251.200 361.400 L 251.000 364.600 235.109 364.705 L 219.218 364.809 219.012 363.905 C 218.899 363.407,218.760 361.920,218.703 360.600 L 218.600 358.200 205.800 358.000 L 193.000 357.800 192.800 355.000 L 192.600 352.200 189.516 352.083 L 186.432 351.967 186.316 348.683 L 186.200 345.400 176.800 345.181 C 171.630 345.061,167.363 344.926,167.318 344.881 C 167.272 344.837,167.182 343.495,167.118 341.900 L 167.000 339.000 164.135 338.883 C 160.265 338.725,160.432 339.176,160.308 328.568 L 160.200 319.400 157.600 319.400 L 155.000 319.400 154.889 325.572 C 154.758 332.881,154.800 332.800,151.159 332.800 C 148.063 332.800,148.106 332.750,147.905 336.600 L 147.800 338.600 141.630 338.711 C 134.549 338.838,134.815 338.971,134.806 335.300 L 134.800 332.800 129.080 332.800 C 122.349 332.800,122.400 332.828,122.400 329.163 C 122.400 326.042,122.349 326.000,118.573 326.000 L 116.011 326.000 115.906 313.100 L 115.800 300.200 112.600 300.200 L 109.400 300.200 109.200 309.600 L 109.000 319.000 106.000 319.000 L 103.000 319.000 102.883 316.117 L 102.766 313.233 99.683 313.117 L 96.600 313.000 96.496 310.800 C 96.306 306.766,96.376 306.850,93.097 306.717 L 90.200 306.600 90.000 303.400 L 89.800 300.200 83.400 300.000 L 77.000 299.800 76.878 297.417 C 76.650 292.990,76.270 293.237,83.505 293.110 L 89.800 293.000 90.000 290.000 L 90.200 287.000 93.200 286.800 L 96.200 286.600 96.200 284.000 L 96.200 281.400 93.200 281.200 L 90.200 281.000 90.084 277.500 L 89.969 274.000 96.384 274.000 L 102.800 274.000 102.800 271.276 C 102.800 267.194,102.737 267.232,109.800 267.106 L 115.800 267.000 115.800 264.600 L 115.800 262.200 109.709 262.090 C 102.242 261.954,102.741 262.524,102.890 254.307 L 103.000 248.200 106.100 248.083 L 109.200 247.966 109.200 251.383 L 109.200 254.800 115.610 254.800 L 122.020 254.800 121.910 248.500 L 121.800 242.200 118.917 242.083 L 116.033 241.966 115.917 238.883 L 115.800 235.800 112.612 235.682 C 108.993 235.547,108.815 235.406,108.806 232.674 C 108.795 229.195,108.788 229.199,115.514 229.206 C 122.526 229.213,122.540 229.219,122.800 232.485 L 123.000 235.000 138.515 235.200 C 151.721 235.370,154.086 235.489,154.409 236.000 C 154.618 236.332,154.790 240.667,154.794 245.692 L 154.800 254.785 153.900 254.989 C 153.405 255.102,151.920 255.240,150.600 255.297 L 148.200 255.400 148.200 258.200 L 148.200 261.000 154.200 261.000 L 160.200 261.000 160.400 254.600 L 160.600 248.200 163.800 248.000 L 167.000 247.800 167.200 245.000 L 167.400 242.200 170.600 242.000 L 173.800 241.800 174.000 238.600 L 174.200 235.400 177.117 235.350 C 178.721 235.322,180.146 235.187,180.284 235.050 C 180.421 234.912,181.763 234.800,183.267 234.800 L 186.000 234.800 186.000 219.423 L 186.000 204.045 186.889 203.423 C 187.464 203.020,188.664 202.800,190.289 202.800 L 192.800 202.800 192.800 181.033 C 192.800 169.061,192.909 158.981,193.043 158.633 C 193.346 157.843,198.755 157.715,199.520 158.480 M219.200 258.218 L 219.200 261.235 222.100 261.118 L 225.000 261.000 225.118 258.100 L 225.235 255.200 222.218 255.200 L 219.200 255.200 219.200 258.218 M141.281 264.500 L 141.400 267.000 144.600 267.000 L 147.800 267.000 147.919 264.500 L 148.038 262.000 144.600 262.000 L 141.162 262.000 141.281 264.500 M148.400 274.182 L 148.400 280.800 151.210 280.800 L 154.020 280.800 153.910 274.300 L 153.800 267.800 151.100 267.682 L 148.400 267.563 148.400 274.182 M116.400 290.593 L 116.400 300.022 122.100 299.911 L 127.800 299.800 127.800 297.000 L 127.800 294.200 125.000 294.000 L 122.200 293.800 122.000 287.600 L 121.800 281.400 119.100 281.282 L 116.400 281.163 116.400 290.593 M264.283 287.451 C 264.127 287.606,264.000 288.873,264.000 290.267 L 264.000 292.800 267.218 292.800 L 270.437 292.800 270.318 290.100 L 270.200 287.400 267.383 287.284 C 265.833 287.220,264.438 287.295,264.283 287.451 M271.200 296.582 L 271.200 299.600 274.018 299.600 L 276.835 299.600 276.718 296.700 L 276.600 293.800 273.900 293.682 L 271.200 293.563 271.200 296.582 M161.200 316.000 L 161.200 318.800 164.200 318.800 L 167.200 318.800 167.200 316.000 L 167.200 313.200 164.200 313.200 L 161.200 313.200 161.200 316.000 " stroke="none" fill="#8bbbbb" fill-rule="evenodd"></path><path id="path3" d="M167.500 9.876 C 166.918 10.028,166.800 10.527,166.800 12.829 L 166.800 15.600 154.018 15.600 L 141.236 15.600 141.018 16.900 C 140.898 17.615,140.755 19.190,140.700 20.400 L 140.600 22.600 135.000 22.697 C 127.165 22.833,127.600 22.639,127.600 26.008 L 127.600 28.800 121.847 28.800 C 115.225 28.800,115.615 28.531,115.605 33.100 L 115.600 35.600 109.200 35.600 L 102.800 35.600 102.800 38.600 L 102.800 41.600 100.450 41.600 C 99.157 41.600,97.537 41.713,96.850 41.850 L 95.600 42.100 95.600 45.440 L 95.600 48.780 89.300 48.890 L 83.000 49.000 82.882 51.900 L 82.765 54.800 79.990 54.800 C 76.858 54.800,76.906 54.745,76.705 58.600 L 76.600 60.600 73.903 60.718 C 70.640 60.861,70.830 60.395,70.697 68.600 L 70.600 74.600 67.100 74.716 L 63.600 74.831 63.600 77.799 L 63.600 80.768 60.300 80.884 L 57.000 81.000 56.882 83.900 L 56.765 86.800 54.582 86.800 C 51.028 86.800,50.800 87.234,50.800 94.000 L 50.800 99.600 47.810 99.600 L 44.820 99.600 44.710 106.100 L 44.600 112.600 41.100 112.716 L 37.600 112.831 37.600 122.216 L 37.600 131.600 34.850 131.600 L 32.100 131.600 31.850 132.850 C 31.712 133.538,31.600 139.388,31.600 145.850 L 31.600 157.600 29.070 157.600 C 26.942 157.600,26.401 157.747,25.670 158.526 L 24.800 159.452 24.800 197.126 L 24.800 234.800 22.643 234.800 C 20.056 234.800,20.000 234.894,20.000 239.233 L 20.000 242.400 22.226 242.400 C 25.623 242.400,26.000 242.059,26.000 238.986 L 26.000 236.400 28.800 236.400 L 31.600 236.400 31.600 248.600 L 31.600 260.800 29.008 260.800 C 26.012 260.800,25.860 261.009,26.076 264.821 L 26.200 267.000 29.200 267.000 L 32.200 267.000 32.320 264.700 L 32.440 262.400 35.020 262.400 L 37.600 262.400 37.600 271.600 L 37.600 280.800 34.600 280.800 L 31.600 280.800 31.600 284.216 L 31.600 287.632 34.900 287.516 L 38.200 287.400 38.318 284.500 L 38.435 281.600 41.629 281.600 L 44.823 281.600 44.711 287.100 L 44.600 292.600 41.100 292.716 L 37.600 292.831 37.600 296.616 L 37.600 300.400 41.400 300.400 L 45.200 300.400 45.200 297.400 L 45.200 294.400 48.011 294.400 L 50.822 294.400 50.711 300.100 L 50.600 305.800 47.600 306.000 L 44.600 306.200 44.485 309.900 L 44.370 313.600 47.561 313.600 C 49.317 313.600,50.864 313.420,51.000 313.200 C 51.668 312.119,52.000 313.113,52.000 316.200 L 52.000 319.600 54.376 319.600 C 55.683 319.600,56.864 319.420,57.000 319.200 C 57.688 318.087,58.000 319.155,58.000 322.617 L 58.000 326.434 61.100 326.317 L 64.200 326.200 64.316 322.900 L 64.432 319.600 67.627 319.600 L 70.821 319.600 70.710 325.700 L 70.600 331.800 67.100 331.916 L 63.600 332.031 63.600 335.001 L 63.600 337.970 67.300 338.085 C 70.372 338.180,70.968 338.302,70.814 338.800 C 70.712 339.130,70.563 340.795,70.484 342.500 L 70.339 345.600 73.353 345.600 L 76.368 345.600 76.484 348.900 L 76.600 352.200 80.300 352.200 L 84.001 352.200 84.000 355.328 L 84.000 358.455 90.385 358.328 L 96.770 358.200 96.885 361.000 L 97.000 363.800 100.000 364.000 C 102.422 364.161,102.966 364.316,102.821 364.800 C 102.723 365.130,102.572 366.435,102.486 367.700 L 102.329 370.000 109.088 370.000 L 115.846 370.000 115.674 373.600 L 115.502 377.200 122.135 377.200 L 128.769 377.200 128.884 380.700 L 129.000 384.200 134.683 384.311 L 140.365 384.422 140.483 387.311 L 140.600 390.200 154.300 390.200 L 168.000 390.200 168.000 393.100 L 168.000 396.000 199.600 396.000 L 231.200 396.000 231.200 393.100 L 231.199 390.200 244.200 390.316 L 257.200 390.431 257.199 387.316 L 257.199 384.200 263.599 384.328 L 270.000 384.455 270.000 380.828 L 270.000 377.200 276.800 377.200 L 283.600 377.200 283.600 374.224 C 283.600 372.587,283.417 371.134,283.193 370.996 C 282.028 370.276,283.879 370.000,289.876 370.000 L 296.505 370.000 296.313 367.000 L 296.120 364.000 299.060 364.000 L 302.000 364.000 302.000 361.100 L 301.999 358.200 308.800 358.334 L 315.600 358.467 315.600 355.434 L 315.600 352.400 319.000 352.400 L 322.400 352.400 322.400 349.000 L 322.400 345.600 325.200 345.600 L 328.000 345.600 328.000 341.800 L 328.000 338.000 331.018 338.000 L 334.035 338.000 333.918 335.100 L 333.800 332.200 331.600 332.000 L 329.400 331.800 329.290 325.700 L 329.179 319.600 331.590 319.600 L 334.000 319.600 334.000 322.586 C 334.000 326.212,334.226 326.400,338.574 326.400 L 341.600 326.400 341.600 323.000 L 341.600 319.600 344.400 319.600 L 347.200 319.600 347.200 316.186 C 347.200 312.934,347.237 312.792,347.974 313.186 C 348.399 313.414,350.019 313.600,351.574 313.600 L 354.400 313.600 354.400 309.800 L 354.400 306.000 351.400 306.000 L 348.400 306.000 348.400 300.200 L 348.400 294.400 350.982 294.400 L 353.565 294.400 353.682 297.300 L 353.800 300.200 356.915 300.317 L 360.030 300.434 359.915 296.717 L 359.800 293.000 357.100 292.882 L 354.400 292.763 354.400 287.182 L 354.400 281.600 357.200 281.600 L 360.000 281.600 360.000 284.136 C 360.000 287.217,360.533 287.600,364.819 287.600 L 367.600 287.600 367.600 284.217 L 367.600 280.834 364.500 280.717 L 361.400 280.600 361.292 271.500 L 361.185 262.400 363.973 262.400 L 366.760 262.400 366.880 264.700 L 367.000 267.000 370.000 267.000 L 373.000 267.000 373.127 265.209 C 373.198 264.224,373.144 262.829,373.009 262.109 L 372.764 260.800 370.182 260.800 L 367.600 260.800 367.600 248.600 L 367.600 236.400 370.200 236.400 L 372.800 236.400 372.800 238.986 C 372.800 242.160,373.121 242.400,377.374 242.400 L 380.400 242.400 380.400 238.600 L 380.400 234.800 377.400 234.800 L 374.400 234.800 374.400 197.156 L 374.400 159.513 373.500 158.563 C 372.742 157.763,372.207 157.613,370.100 157.607 L 367.600 157.600 367.600 145.626 C 367.600 131.080,367.733 131.600,364.017 131.600 L 361.215 131.600 361.107 122.300 L 361.000 113.000 357.700 112.884 L 354.400 112.768 354.400 106.184 L 354.400 99.600 351.400 99.600 L 348.400 99.600 348.400 94.070 C 348.400 87.260,348.126 86.800,344.074 86.800 L 341.600 86.800 341.600 83.817 L 341.600 80.834 338.500 80.717 L 335.400 80.600 335.200 77.800 L 335.000 75.000 332.200 74.800 L 329.400 74.600 329.290 68.492 C 329.153 60.937,329.079 60.800,325.111 60.800 L 322.400 60.800 322.395 58.700 C 322.384 54.831,322.356 54.800,318.753 54.800 L 315.600 54.800 315.600 51.810 L 315.600 48.821 309.500 48.710 L 303.400 48.600 303.285 45.343 C 303.151 41.588,303.183 41.615,298.900 41.605 L 296.400 41.600 296.400 38.600 L 296.400 35.600 290.000 35.600 L 283.600 35.600 283.600 33.450 C 283.600 32.268,283.488 30.742,283.352 30.060 L 283.104 28.821 277.252 28.710 L 271.400 28.600 271.200 25.800 L 271.000 23.000 264.700 22.890 L 258.400 22.780 258.400 20.146 C 258.400 17.963,258.246 17.350,257.500 16.563 L 256.600 15.614 244.500 15.607 L 232.400 15.600 232.400 12.847 C 232.400 10.329,232.323 10.073,231.500 9.852 C 230.467 9.575,168.562 9.598,167.500 9.876 M230.567 10.243 C 231.058 10.431,231.200 11.093,231.200 13.194 C 231.200 16.983,230.435 16.773,244.634 16.894 L 257.000 17.000 257.120 19.789 C 257.272 23.298,257.043 23.187,264.100 23.194 L 270.000 23.200 270.000 25.869 C 270.000 29.936,270.109 30.000,277.062 30.000 L 282.800 30.000 282.800 32.990 L 282.800 35.980 289.300 36.090 L 295.800 36.200 295.917 39.083 L 296.034 41.966 298.917 42.083 L 301.800 42.200 301.918 45.388 C 302.066 49.354,301.758 49.186,308.900 49.194 L 314.800 49.200 314.806 52.100 C 314.814 55.909,314.845 55.942,318.612 56.082 L 321.800 56.200 322.000 59.000 L 322.200 61.800 325.100 61.918 L 328.000 62.035 328.000 68.375 C 328.000 75.596,327.789 75.200,331.633 75.200 L 334.000 75.200 334.000 77.957 C 334.000 81.188,334.015 81.200,338.033 81.200 L 340.800 81.200 340.806 84.100 C 340.814 87.848,340.890 87.936,344.211 88.080 L 347.000 88.200 347.111 94.084 L 347.221 99.968 350.511 100.084 L 353.800 100.200 353.910 106.700 L 354.020 113.200 357.010 113.200 L 360.000 113.200 360.000 122.226 C 360.000 133.184,359.861 132.800,363.814 132.800 L 366.800 132.800 366.806 145.300 C 366.813 159.660,366.578 158.723,370.211 158.880 L 373.000 159.000 373.000 197.000 L 373.000 235.000 370.211 235.120 C 366.578 235.277,366.813 234.340,366.806 248.700 L 366.800 261.200 363.814 261.200 C 359.861 261.200,360.000 260.816,360.000 271.774 L 360.000 280.800 357.010 280.800 L 354.021 280.800 353.910 286.900 L 353.800 293.000 351.017 293.120 C 347.102 293.289,347.200 293.111,347.200 300.049 L 347.200 306.000 344.480 306.000 C 341.037 306.000,340.800 306.250,340.800 309.880 L 340.800 312.800 337.880 312.800 C 334.289 312.800,334.000 313.059,334.000 316.280 L 334.000 318.800 331.480 318.800 C 327.974 318.800,328.000 318.747,328.000 325.862 L 328.000 331.965 325.100 332.082 L 322.200 332.200 322.000 335.000 L 321.800 337.800 318.818 337.919 C 314.967 338.073,314.800 338.236,314.800 341.849 L 314.800 344.800 308.849 344.800 C 301.875 344.800,302.085 344.678,301.919 348.818 L 301.800 351.800 298.917 351.917 L 296.034 352.034 295.917 354.917 L 295.800 357.800 289.400 358.000 L 283.000 358.200 282.882 361.100 L 282.765 364.000 277.114 364.000 C 270.257 364.000,270.000 364.132,270.000 367.662 L 270.000 370.000 264.276 370.000 C 257.226 370.000,257.264 369.979,257.113 374.000 L 257.000 377.000 244.634 377.106 C 230.459 377.227,231.277 376.995,231.117 380.935 L 231.000 383.800 199.600 383.800 L 168.200 383.800 168.083 380.935 C 167.922 376.989,168.787 377.227,154.166 377.106 L 141.400 377.000 141.298 374.400 C 141.111 369.657,141.654 370.038,134.895 369.911 L 129.000 369.800 128.878 367.400 C 128.715 364.187,128.797 364.228,122.082 364.000 L 116.200 363.800 116.083 360.910 L 115.965 358.020 109.683 357.910 L 103.400 357.800 103.283 354.917 L 103.166 352.033 100.083 351.917 L 97.000 351.800 96.800 348.400 L 96.600 345.000 90.300 344.890 L 84.000 344.780 84.000 342.121 C 84.000 338.490,83.517 338.000,79.938 338.000 L 77.200 338.000 77.200 335.633 C 77.200 332.061,77.146 332.000,73.967 332.000 L 71.220 332.000 71.110 325.500 L 71.000 319.000 67.600 318.800 L 64.200 318.600 64.082 315.700 L 63.965 312.800 60.982 312.800 L 58.000 312.800 58.000 310.131 C 58.000 306.593,57.474 306.000,54.338 306.000 L 52.000 306.000 52.000 300.049 C 52.000 293.111,52.098 293.289,48.183 293.120 L 45.400 293.000 45.200 287.000 L 45.000 281.000 41.600 280.800 L 38.200 280.600 38.093 270.900 L 37.986 261.200 35.236 261.200 C 31.736 261.200,32.000 262.310,32.000 247.585 L 32.000 235.235 29.100 235.118 L 26.200 235.000 26.200 197.000 L 26.200 159.000 29.100 158.882 L 32.000 158.765 32.000 146.415 C 32.000 131.690,31.736 132.800,35.236 132.800 L 37.986 132.800 38.093 123.100 L 38.200 113.400 41.600 113.200 L 45.000 113.000 45.200 106.600 L 45.400 100.200 48.600 100.000 L 51.800 99.800 51.911 93.900 L 52.021 88.000 54.382 88.000 C 57.567 88.000,58.000 87.517,58.000 83.971 L 58.000 81.200 60.982 81.200 L 63.965 81.200 64.082 78.300 L 64.200 75.400 67.600 75.200 L 71.000 75.000 71.110 68.517 L 71.220 62.035 74.110 61.917 L 77.000 61.800 77.118 58.900 L 77.235 56.000 79.989 56.000 C 83.608 56.000,84.000 55.608,84.000 51.982 L 84.000 49.220 90.300 49.110 L 96.600 49.000 96.718 45.812 C 96.857 42.072,96.914 42.014,100.482 42.006 L 103.165 42.000 103.282 39.100 L 103.400 36.200 109.683 36.090 L 115.965 35.980 116.083 33.090 L 116.200 30.200 121.973 30.089 C 128.796 29.957,128.731 29.993,128.883 26.265 L 129.000 23.400 135.000 23.200 L 141.000 23.000 141.200 20.000 L 141.400 17.000 154.166 16.894 C 168.801 16.773,168.000 16.986,168.000 13.218 C 168.000 11.741,168.120 10.413,168.267 10.267 C 168.600 9.934,229.700 9.910,230.567 10.243 M192.967 36.542 C 192.852 36.840,192.815 38.235,192.885 39.642 L 193.011 42.200 193.205 39.099 C 193.400 35.996,193.356 35.527,192.967 36.542 M198.700 36.240 C 199.030 36.390,199.200 37.407,199.200 39.233 C 199.200 41.180,199.348 42.000,199.700 42.001 C 200.656 42.002,199.970 36.228,199.000 36.111 C 198.560 36.058,198.425 36.116,198.700 36.240 M186.267 42.267 C 186.120 42.413,186.000 43.943,186.000 45.667 L 186.000 48.800 183.000 48.800 C 181.350 48.800,180.000 48.935,179.999 49.100 C 179.999 49.411,184.321 49.324,185.900 48.980 C 186.741 48.798,186.800 48.577,186.800 45.626 C 186.800 43.473,186.959 42.402,187.300 42.265 C 187.626 42.133,187.580 42.052,187.167 42.032 C 186.818 42.014,186.413 42.120,186.267 42.267 M206.318 48.868 C 206.696 49.226,212.002 49.473,212.001 49.132 C 212.000 48.984,210.658 48.804,209.018 48.732 C 207.378 48.659,206.163 48.720,206.318 48.868 M177.031 55.200 C 173.382 55.464,173.083 56.245,176.699 56.068 C 178.185 55.995,179.568 55.773,179.773 55.574 C 180.341 55.026,180.030 54.983,177.031 55.200 M212.083 61.000 C 212.195 61.713,212.564 61.813,215.495 61.916 L 218.780 62.032 218.890 68.516 L 219.000 75.000 222.000 75.200 L 225.000 75.400 225.108 83.978 C 225.234 93.991,225.200 93.895,228.745 94.081 L 231.000 94.200 231.107 103.500 L 231.215 112.800 228.840 112.800 C 224.987 112.800,225.200 112.400,225.200 119.643 L 225.200 126.000 222.414 126.000 C 218.828 126.000,218.800 126.056,218.800 133.174 L 218.800 138.800 215.624 138.800 C 213.877 138.800,212.363 138.935,212.261 139.100 C 212.158 139.265,213.632 139.310,215.537 139.200 L 219.000 139.000 219.200 133.000 L 219.400 127.000 222.183 126.880 C 226.118 126.710,226.000 126.937,226.000 119.551 L 226.000 113.200 228.367 113.200 C 232.284 113.200,232.000 113.948,232.000 103.634 C 232.000 93.038,232.079 93.282,228.600 93.115 L 226.200 93.000 226.092 84.219 C 225.968 74.179,226.238 74.815,222.110 74.806 L 219.219 74.800 219.110 68.100 L 219.000 61.400 215.812 61.282 C 213.904 61.211,212.490 60.970,212.291 60.682 C 212.073 60.367,212.001 60.477,212.083 61.000 M167.467 68.267 C 167.320 68.413,167.200 71.293,167.200 74.667 L 167.200 80.800 164.049 80.800 C 161.862 80.800,160.758 80.968,160.441 81.350 C 159.853 82.059,160.004 99.668,160.600 99.867 C 160.859 99.953,161.000 96.723,161.000 90.700 L 161.000 81.400 163.600 81.298 C 168.346 81.111,167.944 81.730,168.081 74.397 C 168.193 68.367,168.118 67.615,167.467 68.267 M166.700 100.240 C 167.079 100.412,167.200 102.723,167.200 109.810 C 167.200 116.846,167.323 119.232,167.700 119.474 C 168.480 119.976,174.023 120.269,173.869 119.800 C 173.796 119.580,172.491 119.310,170.969 119.200 L 168.200 119.000 168.000 109.605 C 167.808 100.585,167.768 100.206,167.000 100.112 C 166.560 100.058,166.425 100.116,166.700 100.240 M102.995 120.100 C 102.873 120.595,102.825 125.050,102.887 130.000 L 103.000 139.000 105.883 139.117 L 108.766 139.234 108.883 142.117 L 109.000 145.000 112.501 145.200 C 114.426 145.310,116.001 145.265,116.001 145.100 C 116.000 144.935,114.478 144.800,112.618 144.800 L 109.235 144.800 109.118 141.900 L 109.000 139.000 106.100 138.882 L 103.200 138.765 103.200 129.382 L 103.200 120.000 112.600 120.000 L 122.000 120.000 122.000 122.738 C 122.000 126.119,122.506 126.700,125.605 126.876 L 127.800 127.000 127.919 129.255 C 128.106 132.815,127.917 132.752,138.716 132.885 C 144.778 132.960,147.954 132.861,147.867 132.600 C 147.786 132.356,144.075 132.122,138.367 132.000 L 129.000 131.800 128.878 129.400 C 128.727 126.427,128.548 126.247,125.480 126.000 L 123.000 125.800 122.880 123.017 C 122.706 118.979,123.302 119.200,112.559 119.200 L 103.215 119.200 102.995 120.100 M263.892 126.500 C 263.434 126.846,263.195 127.738,263.115 129.400 L 263.000 131.800 254.223 131.908 C 243.728 132.037,244.000 131.926,244.000 136.062 L 244.000 138.800 238.233 138.800 C 230.868 138.800,231.200 138.647,231.200 142.043 L 231.200 144.800 228.700 144.806 C 225.012 144.815,225.230 144.220,225.108 154.619 L 225.000 163.800 222.415 163.921 C 218.677 164.097,218.787 163.859,218.885 171.549 L 218.970 178.200 219.185 171.600 L 219.400 165.000 222.200 164.887 C 226.142 164.727,226.000 165.122,226.000 154.324 L 226.000 145.200 228.367 145.200 C 231.941 145.200,232.000 145.147,232.000 141.957 L 232.000 139.200 237.767 139.200 C 245.021 139.200,244.800 139.288,244.800 136.390 C 244.800 132.526,244.080 132.800,254.219 132.800 C 264.311 132.800,263.695 133.014,263.998 129.400 L 264.200 127.000 283.000 127.000 L 301.800 127.000 301.919 129.482 L 302.037 131.964 299.123 132.082 C 296.553 132.186,296.197 132.295,296.111 133.000 C 296.058 133.440,296.116 133.575,296.240 133.300 C 296.389 132.972,297.391 132.800,299.153 132.800 C 302.485 132.800,302.800 132.501,302.800 129.334 C 302.800 127.266,302.665 126.756,302.026 126.414 C 300.823 125.770,264.750 125.851,263.892 126.500 M173.999 132.268 C 174.000 132.573,175.050 132.783,177.001 132.868 C 180.897 133.039,180.780 132.273,176.868 132.000 C 174.829 131.858,173.999 131.935,173.999 132.268 M147.999 138.900 C 148.000 139.065,150.700 139.200,154.000 139.200 L 160.000 139.200 160.000 141.751 C 160.000 144.918,160.241 145.130,164.018 145.281 L 167.000 145.400 167.111 151.572 C 167.173 155.050,167.402 157.961,167.634 158.241 C 168.141 158.852,174.066 159.192,173.869 158.600 C 173.796 158.380,172.445 158.147,170.868 158.082 L 168.000 157.965 168.000 151.590 C 168.000 144.269,168.398 144.891,163.600 144.702 L 161.000 144.600 160.800 141.800 L 160.600 139.000 154.299 138.800 C 150.834 138.690,147.999 138.735,147.999 138.900 M179.999 138.900 C 180.000 139.065,181.345 139.200,182.990 139.200 L 185.980 139.200 186.090 145.467 C 186.155 149.189,186.362 151.788,186.600 151.868 C 186.859 151.954,186.958 149.743,186.881 145.603 C 186.765 139.380,186.738 139.200,185.881 139.015 C 184.313 138.675,179.999 138.591,179.999 138.900 M206.261 145.100 C 206.159 145.265,207.003 145.349,208.138 145.286 C 211.816 145.082,212.263 144.921,209.324 144.860 C 207.742 144.827,206.364 144.935,206.261 145.100 M290.261 145.100 C 290.159 145.265,291.003 145.349,292.138 145.286 C 295.816 145.082,296.263 144.921,293.324 144.860 C 291.742 144.827,290.364 144.935,290.261 145.100 M115.999 158.282 C 116.000 158.604,116.968 158.804,118.900 158.882 L 121.800 159.000 122.000 161.480 C 122.247 164.548,122.427 164.727,125.400 164.878 L 127.800 165.000 127.920 167.789 C 128.064 171.110,128.152 171.186,131.900 171.194 L 134.800 171.200 134.800 174.600 C 134.800 176.470,134.935 178.000,135.100 178.001 C 135.265 178.001,135.310 176.426,135.200 174.501 L 135.000 171.000 132.000 170.800 L 129.000 170.600 128.879 168.008 C 128.722 164.669,128.194 164.073,125.255 163.919 L 123.000 163.800 122.876 161.605 C 122.705 158.587,122.152 158.092,118.766 157.932 C 116.799 157.838,115.998 157.940,115.999 158.282 M286.800 157.892 C 282.780 158.070,282.800 158.035,282.800 165.059 L 282.800 170.765 279.900 170.882 L 277.000 171.000 276.974 174.600 L 276.947 178.200 277.089 174.717 L 277.231 171.234 280.115 171.117 L 283.000 171.000 283.200 165.000 L 283.400 159.000 286.700 158.884 C 289.273 158.793,290.000 158.639,290.000 158.184 C 290.000 157.863,289.955 157.636,289.900 157.679 C 289.845 157.723,288.450 157.819,286.800 157.892 M193.043 158.633 C 192.909 158.981,192.800 169.061,192.800 181.033 L 192.800 202.800 190.289 202.800 C 188.664 202.800,187.464 203.020,186.889 203.423 L 186.000 204.045 186.000 219.423 L 186.000 234.800 183.224 234.800 C 181.697 234.800,180.331 234.988,180.189 235.217 C 180.016 235.497,180.964 235.596,183.066 235.517 L 186.200 235.400 186.305 220.035 C 186.425 202.474,186.168 203.600,190.049 203.600 C 191.562 203.600,192.841 203.555,192.892 203.500 C 192.942 203.445,193.077 193.320,193.192 181.000 L 193.400 158.600 195.690 158.480 C 200.018 158.254,199.621 155.545,199.503 184.516 L 199.400 209.800 196.200 210.027 L 193.000 210.253 195.867 210.327 C 197.444 210.367,199.019 210.291,199.367 210.157 C 200.199 209.838,200.348 159.308,199.520 158.480 C 198.755 157.715,193.346 157.843,193.043 158.633 M174.131 164.200 C 174.203 164.420,175.554 164.690,177.132 164.800 C 178.953 164.927,179.953 164.854,179.869 164.600 C 179.797 164.380,178.446 164.110,176.868 164.000 C 175.047 163.873,174.047 163.946,174.131 164.200 M270.207 178.500 C 269.754 179.850,269.824 184.001,270.300 184.001 C 270.652 184.000,270.800 183.180,270.800 181.233 C 270.800 179.394,270.968 178.399,271.300 178.265 C 271.594 178.146,271.506 178.050,271.087 178.032 C 270.696 178.014,270.299 178.225,270.207 178.500 M154.000 186.980 C 154.110 188.619,154.382 190.143,154.605 190.366 C 155.156 190.916,174.049 191.146,173.867 190.600 C 173.786 190.356,170.075 190.122,164.367 190.000 L 155.000 189.800 154.800 187.031 C 154.690 185.509,154.420 184.204,154.200 184.131 C 153.946 184.048,153.873 185.085,154.000 186.980 M185.920 190.020 L 186.041 196.041 180.020 195.920 C 175.405 195.828,173.999 195.917,173.999 196.300 C 174.000 196.997,185.624 197.016,186.320 196.320 C 187.016 195.624,186.997 184.000,186.300 183.999 C 185.917 183.999,185.828 185.405,185.920 190.020 M244.267 184.267 C 244.120 184.413,244.000 185.763,244.000 187.267 L 244.000 190.000 235.374 190.000 C 225.004 190.000,225.200 189.934,225.200 193.428 L 225.200 196.028 215.600 195.914 C 208.125 195.825,205.999 195.911,206.000 196.300 C 206.000 197.036,224.918 197.022,225.528 196.286 C 225.763 196.004,226.010 194.699,226.077 193.386 L 226.200 191.000 234.969 190.892 C 245.162 190.766,244.800 190.903,244.800 187.184 C 244.800 185.384,244.969 184.399,245.300 184.265 C 245.626 184.133,245.580 184.052,245.167 184.032 C 244.818 184.014,244.413 184.120,244.267 184.267 M143.111 261.893 C 144.051 261.978,145.491 261.977,146.311 261.891 C 147.130 261.805,146.360 261.736,144.600 261.737 C 142.840 261.739,142.170 261.809,143.111 261.893 M148.161 274.400 C 148.161 277.810,148.222 279.205,148.297 277.500 C 148.372 275.795,148.372 273.005,148.297 271.300 C 148.222 269.595,148.161 270.990,148.161 274.400 M122.000 287.519 L 122.200 293.800 125.000 294.000 L 127.800 294.200 128.029 297.000 L 128.259 299.800 128.329 297.149 C 128.415 293.950,128.172 293.686,124.986 293.523 L 122.600 293.400 122.488 287.608 C 122.427 284.423,122.247 281.686,122.088 281.527 C 121.930 281.368,121.890 284.064,122.000 287.519 M116.172 290.600 C 116.172 295.660,116.229 297.675,116.299 295.077 C 116.369 292.480,116.368 288.340,116.298 285.877 C 116.228 283.415,116.171 285.540,116.172 290.600 M263.766 287.745 C 263.651 288.044,263.612 289.349,263.678 290.645 L 263.800 293.000 266.901 293.027 L 270.003 293.054 266.969 292.910 L 263.936 292.765 264.068 289.982 C 264.201 287.168,264.146 286.755,263.766 287.745 M270.970 296.800 L 271.000 299.800 273.800 299.826 L 276.600 299.852 273.917 299.709 L 271.234 299.566 271.087 296.683 L 270.939 293.800 270.970 296.800 M56.719 310.121 L 56.837 312.841 54.519 312.721 L 52.200 312.600 52.077 310.448 C 51.899 307.318,52.036 307.137,54.496 307.279 L 56.600 307.400 56.719 310.121 M346.718 310.100 L 346.837 312.800 344.218 312.800 L 341.600 312.800 341.600 309.981 L 341.600 307.162 344.100 307.281 L 346.600 307.400 346.718 310.100 M63.600 316.218 L 63.600 318.837 60.900 318.718 L 58.200 318.600 58.081 316.100 L 57.962 313.600 60.781 313.600 L 63.600 313.600 63.600 316.218 M160.931 316.200 C 160.933 317.740,161.005 318.321,161.092 317.491 C 161.179 316.661,161.177 315.401,161.089 314.691 C 161.000 313.981,160.929 314.660,160.931 316.200 M340.800 316.218 L 340.800 318.837 338.100 318.718 L 335.400 318.600 335.281 316.100 L 335.162 313.600 337.981 313.600 L 340.800 313.600 340.800 316.218 M76.600 335.600 L 76.600 337.800 74.000 337.800 L 71.400 337.800 71.275 336.054 C 71.078 333.307,71.242 333.145,74.095 333.281 L 76.600 333.400 76.600 335.600 M327.800 335.600 L 327.800 337.800 325.100 337.918 L 322.400 338.037 322.400 335.600 L 322.400 333.163 325.100 333.282 L 327.800 333.400 327.800 335.600 M82.719 342.119 L 82.837 344.837 80.119 344.719 L 77.400 344.600 77.277 342.448 C 77.095 339.251,77.192 339.143,80.095 339.281 L 82.600 339.400 82.719 342.119 M321.600 342.000 L 321.600 344.800 318.600 344.800 L 315.600 344.800 315.600 342.000 L 315.600 339.200 318.600 339.200 L 321.600 339.200 321.600 342.000 M95.600 348.600 L 95.600 351.600 89.800 351.600 L 84.000 351.600 84.000 348.600 L 84.000 345.600 89.800 345.600 L 95.600 345.600 95.600 348.600 M314.800 348.600 L 314.800 351.600 309.000 351.600 L 303.200 351.600 303.200 348.600 L 303.200 345.600 309.000 345.600 L 314.800 345.600 314.800 348.600 M102.800 355.000 L 102.800 357.600 100.000 357.600 L 97.200 357.600 97.200 355.000 L 97.200 352.400 100.000 352.400 L 102.800 352.400 102.800 355.000 M302.000 355.000 L 302.000 357.600 299.200 357.600 L 296.400 357.600 296.400 355.000 L 296.400 352.400 299.200 352.400 L 302.000 352.400 302.000 355.000 M115.600 361.210 L 115.600 364.021 109.500 363.910 L 103.400 363.800 103.282 361.100 L 103.163 358.400 109.382 358.400 L 115.600 358.400 115.600 361.210 M295.600 361.200 L 295.600 364.000 289.600 364.000 L 283.600 364.000 283.600 361.200 L 283.600 358.400 289.600 358.400 L 295.600 358.400 295.600 361.200 M127.600 367.600 L 127.600 370.000 122.000 370.000 L 116.400 370.000 116.400 367.600 L 116.400 365.200 122.000 365.200 L 127.600 365.200 127.600 367.600 M282.600 367.600 L 282.600 369.800 277.000 369.800 L 271.400 369.800 271.275 368.054 C 271.063 365.098,270.924 365.164,277.092 365.289 L 282.600 365.400 282.600 367.600 M140.600 374.000 L 140.600 376.600 134.900 376.711 L 129.200 376.822 129.200 374.278 C 129.200 371.001,128.881 371.161,135.177 371.289 L 140.600 371.400 140.600 374.000 M269.918 374.100 L 270.037 376.800 264.218 376.800 L 258.400 376.800 258.400 373.989 L 258.400 371.178 264.100 371.289 L 269.800 371.400 269.918 374.100 M166.800 381.000 L 166.800 383.600 154.000 383.600 L 141.200 383.600 141.200 381.000 L 141.200 378.400 154.000 378.400 L 166.800 378.400 166.800 381.000 M256.800 381.000 L 256.800 383.600 244.600 383.600 L 232.400 383.600 232.400 381.000 L 232.400 378.400 244.600 378.400 L 256.800 378.400 256.800 381.000 M230.800 387.000 L 230.800 389.600 199.400 389.600 L 168.000 389.600 168.000 387.000 L 168.000 384.400 199.400 384.400 L 230.800 384.400 230.800 387.000 " stroke="none" fill="#439999" fill-rule="evenodd"></path><path id="path4" d="M109.214 229.974 C 108.734 230.871,108.668 234.374,109.118 235.082 C 109.304 235.373,110.684 235.610,112.612 235.682 L 115.800 235.800 115.917 238.883 L 116.033 241.966 118.917 242.083 L 121.800 242.200 121.910 248.500 L 122.020 254.800 115.610 254.800 L 109.200 254.800 109.200 251.400 C 109.200 249.530,109.065 248.000,108.900 247.999 C 108.735 247.999,108.690 249.574,108.800 251.499 L 109.000 255.000 115.800 255.000 L 122.600 255.000 122.600 248.400 L 122.600 241.800 119.500 241.683 L 116.400 241.566 116.400 238.183 L 116.400 234.800 113.000 234.800 L 109.600 234.800 109.600 232.600 L 109.600 230.400 115.600 230.400 L 121.600 230.400 121.600 232.626 C 121.600 236.722,120.201 236.400,138.014 236.400 L 153.600 236.400 153.602 240.500 C 153.603 242.755,153.720 246.895,153.863 249.700 L 154.123 254.800 151.105 254.800 C 147.599 254.800,147.600 254.799,147.600 258.633 L 147.600 261.200 144.443 261.200 C 140.840 261.200,140.800 261.237,140.800 264.556 C 140.800 267.607,141.197 267.931,145.101 268.077 C 146.916 268.145,148.401 268.057,148.401 267.882 C 148.400 267.707,149.615 267.617,151.100 267.682 L 153.800 267.800 153.910 274.332 L 154.020 280.864 151.047 280.732 C 149.412 280.659,148.158 280.735,148.260 280.900 C 148.512 281.303,153.666 281.273,154.310 280.864 C 154.698 280.618,154.794 278.919,154.710 273.770 L 154.600 267.000 151.500 266.883 L 148.400 266.766 148.400 264.583 L 148.400 262.400 154.026 262.400 C 161.737 262.400,161.200 262.955,161.200 254.986 L 161.200 248.400 164.167 248.400 C 168.405 248.400,168.400 248.404,168.400 245.175 L 168.400 242.435 171.300 242.318 L 174.200 242.200 174.318 239.300 L 174.435 236.400 177.251 236.400 C 179.326 236.400,180.023 236.268,179.900 235.900 C 179.788 235.564,178.824 235.400,176.967 235.400 L 174.200 235.400 174.000 238.600 L 173.800 241.800 170.600 242.000 L 167.400 242.200 167.200 245.000 L 167.000 247.800 163.800 248.000 L 160.600 248.200 160.400 254.600 L 160.200 261.000 154.200 261.000 L 148.200 261.000 148.200 258.200 L 148.200 255.400 150.600 255.297 C 151.920 255.240,153.405 255.102,153.900 254.989 L 154.800 254.785 154.794 245.692 C 154.790 240.667,154.618 236.332,154.409 236.000 C 154.086 235.489,151.721 235.370,138.515 235.200 L 123.000 235.000 122.800 232.485 C 122.540 229.219,122.526 229.213,115.514 229.206 C 110.101 229.200,109.595 229.262,109.214 229.974 M193.200 235.800 C 193.200 236.276,193.778 236.400,196.000 236.400 L 198.800 236.400 198.800 239.157 C 198.800 242.665,197.684 242.400,212.443 242.400 L 224.821 242.400 224.710 248.500 L 224.600 254.600 221.700 254.718 L 218.800 254.835 218.800 257.985 C 218.800 262.429,218.779 262.400,222.043 262.400 C 225.763 262.400,226.400 261.786,226.400 258.200 L 226.400 255.600 228.374 255.600 C 232.099 255.600,232.400 255.303,232.400 251.627 L 232.400 248.435 235.300 248.318 L 238.200 248.200 238.318 245.300 L 238.435 242.400 247.618 242.400 L 256.800 242.400 256.800 245.157 C 256.800 248.631,256.044 248.400,267.417 248.400 L 276.769 248.400 276.884 251.900 L 277.000 255.400 283.300 255.510 L 289.600 255.620 289.600 258.236 C 289.600 262.050,289.887 262.400,293.014 262.400 L 295.600 262.400 295.600 264.626 C 295.600 268.023,295.941 268.400,299.014 268.400 L 301.600 268.400 301.600 284.000 L 301.600 299.600 289.600 299.600 L 277.600 299.600 277.600 297.226 C 277.600 293.240,277.304 292.858,274.117 292.719 L 271.400 292.600 271.200 289.800 L 271.000 287.000 267.434 286.883 C 263.265 286.747,263.215 286.787,263.206 290.220 C 263.198 293.256,263.549 293.600,266.647 293.600 C 270.350 293.600,270.400 293.643,270.400 296.819 C 270.400 298.323,270.535 299.637,270.700 299.739 C 270.865 299.842,271.000 298.547,271.000 296.863 L 271.000 293.800 273.800 293.800 L 276.600 293.800 276.697 299.400 C 276.836 307.370,276.527 306.800,280.708 306.801 C 282.628 306.802,288.115 306.920,292.900 307.065 L 301.600 307.327 301.600 310.064 L 301.600 312.800 298.800 312.800 C 297.260 312.800,296.000 312.935,295.999 313.100 C 295.999 313.411,300.321 313.324,301.900 312.980 C 302.981 312.745,303.283 307.699,302.266 306.855 C 301.908 306.558,297.728 306.377,289.566 306.306 L 277.400 306.200 277.283 303.106 L 277.167 300.011 289.883 299.906 L 302.600 299.800 302.697 284.200 C 302.807 266.317,303.050 267.470,299.115 267.200 L 296.200 267.000 296.000 264.200 L 295.800 261.400 293.000 261.200 L 290.200 261.000 290.000 258.000 L 289.800 255.000 283.516 254.890 L 277.232 254.780 277.116 251.490 L 277.000 248.200 267.400 248.000 L 257.800 247.800 257.600 245.000 L 257.400 242.200 247.718 242.093 L 238.035 241.986 237.918 244.893 L 237.800 247.800 234.600 248.000 L 231.400 248.200 231.284 251.500 L 231.168 254.800 228.394 254.800 L 225.620 254.800 225.510 248.500 L 225.400 242.200 212.600 242.000 L 199.800 241.800 199.680 239.017 C 199.614 237.486,199.367 236.001,199.131 235.717 C 198.478 234.931,193.200 235.005,193.200 235.800 M102.976 248.518 C 102.867 248.802,102.828 251.727,102.890 255.018 L 103.003 261.000 103.202 254.499 C 103.397 248.109,103.373 247.484,102.976 248.518 M225.118 258.100 L 225.000 261.000 222.100 261.118 L 219.200 261.235 219.200 258.218 L 219.200 255.200 222.218 255.200 L 225.235 255.200 225.118 258.100 M103.409 261.569 C 103.943 262.102,116.043 262.326,115.868 261.800 C 115.788 261.562,113.158 261.355,109.376 261.289 C 105.248 261.218,103.156 261.315,103.409 261.569 M147.800 264.400 L 147.800 267.000 144.600 267.000 L 141.400 267.000 141.277 264.848 C 141.091 261.579,141.124 261.549,144.694 261.683 L 147.800 261.800 147.800 264.400 M251.282 264.500 L 251.400 267.400 254.400 267.600 L 257.400 267.800 257.600 270.800 L 257.800 273.800 267.400 273.800 L 277.000 273.800 277.124 271.621 C 277.339 267.828,277.177 267.600,274.272 267.600 C 271.222 267.600,270.800 267.236,270.800 264.600 C 270.800 261.528,271.048 261.600,260.502 261.600 L 251.165 261.600 251.282 264.500 M109.800 267.106 C 104.735 267.196,103.722 267.317,103.300 267.883 C 102.694 268.695,102.602 274.170,103.200 273.800 C 103.420 273.664,103.600 272.393,103.600 270.976 L 103.600 268.400 109.613 268.400 C 114.663 268.400,115.663 268.301,115.862 267.783 C 116.182 266.948,116.532 266.987,109.800 267.106 M238.203 274.482 C 238.100 274.767,237.968 276.350,237.908 278.000 L 237.800 281.000 234.700 281.117 L 231.600 281.234 231.600 283.974 C 231.600 287.145,231.538 287.200,227.967 287.200 L 225.600 287.200 225.600 289.951 C 225.600 293.601,225.683 293.558,218.372 293.689 L 212.200 293.800 212.083 296.900 L 211.966 300.000 202.583 300.000 L 193.200 300.000 193.200 303.190 L 193.200 306.380 199.500 306.490 L 205.800 306.600 205.917 309.707 L 206.034 312.814 215.717 312.707 L 225.400 312.600 225.600 306.400 L 225.800 300.200 231.890 300.090 L 237.980 299.979 238.090 293.490 L 238.200 287.000 241.310 286.883 L 244.420 286.766 244.310 280.483 L 244.200 274.200 241.294 274.082 C 239.193 273.997,238.337 274.108,238.203 274.482 M90.318 280.880 C 90.473 281.033,91.860 281.213,93.400 281.280 L 96.200 281.400 96.200 284.000 L 96.200 286.600 93.400 286.720 C 91.860 286.787,90.473 286.967,90.318 287.120 C 90.018 287.418,94.390 287.309,95.900 286.980 C 96.728 286.800,96.800 286.563,96.800 284.000 C 96.800 281.437,96.728 281.200,95.900 281.020 C 94.390 280.691,90.018 280.582,90.318 280.880 M116.261 281.100 C 116.158 281.265,117.453 281.400,119.137 281.400 L 122.200 281.400 122.400 287.400 L 122.600 293.400 124.986 293.523 C 126.299 293.590,127.604 293.837,127.886 294.072 C 128.507 294.587,128.596 299.436,127.990 299.737 C 127.764 299.849,127.810 299.894,128.090 299.838 C 128.422 299.772,128.642 298.861,128.720 297.222 C 128.878 293.933,128.326 293.280,125.255 293.119 L 123.000 293.000 122.889 287.217 C 122.811 283.205,122.627 281.338,122.289 281.123 C 121.661 280.724,116.507 280.704,116.261 281.100 M270.200 290.200 L 270.200 293.000 267.000 293.000 L 263.800 293.000 263.678 290.645 C 263.498 287.151,263.501 287.148,267.094 287.283 L 270.200 287.400 270.200 290.200 M83.505 293.110 C 76.266 293.237,76.630 293.000,76.902 297.417 L 77.049 299.800 77.124 296.900 L 77.200 294.000 83.376 294.000 C 87.319 294.000,89.648 293.846,89.816 293.573 C 90.189 292.971,90.430 292.989,83.505 293.110 M187.067 293.867 C 186.920 294.013,186.800 295.461,186.800 297.083 L 186.800 300.034 189.900 299.917 L 193.000 299.800 193.124 297.621 C 193.342 293.779,193.205 293.600,190.059 293.600 C 188.560 293.600,187.213 293.720,187.067 293.867 M115.908 304.699 C 116.082 312.869,116.255 313.525,116.330 306.300 C 116.369 302.615,116.265 299.600,116.100 299.599 C 115.935 299.599,115.849 301.894,115.908 304.699 M109.067 300.267 C 108.920 300.413,108.800 304.643,108.800 309.667 L 108.800 318.800 106.018 318.800 L 103.235 318.800 103.118 315.900 L 103.000 313.000 99.900 312.883 L 96.800 312.766 96.800 310.063 C 96.800 306.679,96.522 306.400,93.153 306.400 C 91.676 306.400,90.375 306.216,90.263 305.990 C 90.151 305.764,90.106 305.810,90.162 306.090 C 90.231 306.433,91.204 306.639,93.129 306.717 C 96.372 306.850,96.306 306.771,96.496 310.800 L 96.600 313.000 99.683 313.117 L 102.766 313.233 102.883 316.117 L 103.000 319.000 106.000 319.000 L 109.000 319.000 109.200 309.500 C 109.310 304.274,109.385 299.999,109.367 300.000 C 109.348 300.000,109.213 300.120,109.067 300.267 M160.681 313.052 C 160.526 313.207,160.400 314.563,160.400 316.067 L 160.400 318.800 158.033 318.800 C 154.199 318.800,154.400 318.437,154.400 325.363 C 154.400 332.502,154.453 332.400,150.720 332.400 C 148.384 332.400,148.004 332.499,148.032 333.100 C 148.050 333.518,148.144 333.599,148.265 333.300 C 148.399 332.969,149.384 332.800,151.184 332.800 C 154.796 332.800,154.758 332.875,154.889 325.572 L 155.000 319.400 157.600 319.400 L 160.200 319.400 160.308 328.568 C 160.432 339.176,160.265 338.725,164.135 338.883 L 167.000 339.000 167.118 341.900 C 167.182 343.495,167.272 344.837,167.318 344.881 C 167.363 344.926,171.630 345.061,176.800 345.181 L 186.200 345.400 186.316 348.700 C 186.380 350.515,186.560 352.000,186.716 352.001 C 187.200 352.003,186.771 345.430,186.266 345.109 C 186.010 344.946,181.795 344.809,176.900 344.806 L 168.000 344.800 168.000 342.374 C 168.000 338.735,167.702 338.400,164.466 338.400 C 160.636 338.400,160.800 338.851,160.800 328.320 L 160.800 319.200 163.900 319.194 C 167.988 319.186,168.065 319.120,167.920 315.764 L 167.800 313.000 164.381 312.886 C 162.501 312.823,160.836 312.898,160.681 313.052 M167.200 316.000 L 167.200 318.800 164.000 318.800 L 160.800 318.800 160.800 316.267 C 160.800 313.127,160.717 313.200,164.267 313.200 L 167.200 313.200 167.200 316.000 M121.990 326.263 C 122.216 326.375,122.400 327.676,122.400 329.153 C 122.400 332.829,122.347 332.800,129.080 332.800 L 134.800 332.800 134.800 335.167 C 134.800 339.003,134.430 338.800,141.419 338.800 C 144.793 338.800,147.636 338.665,147.739 338.500 C 147.841 338.335,145.106 338.200,141.662 338.200 L 135.400 338.200 135.200 335.400 L 135.000 332.600 129.427 332.488 C 122.888 332.357,122.871 332.348,122.717 328.897 C 122.640 327.160,122.426 326.229,122.090 326.162 C 121.810 326.106,121.764 326.151,121.990 326.263 M286.400 332.400 L 283.000 332.651 286.276 332.725 C 288.114 332.767,289.661 332.624,289.800 332.400 C 289.936 332.180,289.992 332.034,289.924 332.075 C 289.856 332.116,288.270 332.262,286.400 332.400 M282.787 335.600 L 282.600 338.200 276.600 338.400 L 270.600 338.600 270.400 345.281 C 270.290 348.956,270.330 351.832,270.489 351.672 C 270.648 351.513,270.828 348.596,270.889 345.191 L 271.000 339.000 276.917 338.889 C 283.614 338.764,283.313 338.936,283.108 335.355 L 282.973 333.000 282.787 335.600 M192.716 354.100 C 192.909 357.621,193.088 357.954,193.146 354.900 C 193.175 353.305,193.065 352.000,192.900 352.000 C 192.735 352.000,192.652 352.945,192.716 354.100 M263.407 352.500 C 263.024 353.641,263.018 357.996,263.400 357.869 C 263.871 357.714,264.346 351.999,263.887 351.999 C 263.716 352.000,263.499 352.225,263.407 352.500 M218.712 360.499 C 218.774 361.875,218.913 363.407,219.021 363.905 L 219.218 364.809 235.109 364.705 L 251.000 364.600 251.200 361.318 C 251.310 359.513,251.274 358.163,251.120 358.318 C 250.967 358.473,250.787 359.860,250.720 361.400 L 250.600 364.200 235.000 364.200 L 219.400 364.200 219.283 361.100 C 219.219 359.395,219.039 358.000,218.883 357.999 C 218.727 357.999,218.650 359.124,218.712 360.499 " stroke="none" fill="#dc6c7c" fill-rule="evenodd"></path></g></svg>