<svg id="svg" version="1.1" width="400" height="400" viewBox="0 0 400 400" xmlns="http://www.w3.org/2000/svg"
     xmlns:xlink="http://www.w3.org/1999/xlink">
    <g id="svgg">
        <path id="path0"
              d="M392.800 148.725 C 392.800 148.986,393.160 149.560,393.600 150.000 C 394.040 150.440,394.400 150.612,394.400 150.383 C 394.400 150.154,394.040 149.580,393.600 149.108 C 393.160 148.636,392.800 148.463,392.800 148.725 M394.189 156.417 C 394.059 156.628,394.255 156.800,394.625 156.800 C 395.153 156.800,395.199 156.920,394.839 157.353 C 394.489 157.775,394.505 157.955,394.906 158.109 C 395.237 158.236,395.461 157.970,395.509 157.395 C 395.586 156.455,394.612 155.733,394.189 156.417 M395.315 159.964 C 394.931 160.580,394.951 160.772,395.419 160.952 C 395.830 161.110,396.000 160.887,396.000 160.187 C 396.000 159.000,395.932 158.977,395.315 159.964 M394.800 163.467 C 394.800 163.760,394.986 164.000,395.214 164.000 C 395.484 164.000,395.498 164.243,395.254 164.700 C 394.826 165.499,394.800 165.631,394.800 167.000 C 394.800 167.733,394.587 168.000,394.000 168.000 C 393.467 168.000,393.200 168.267,393.200 168.800 C 393.200 169.467,392.933 169.600,391.600 169.600 C 390.267 169.600,390.000 169.733,390.000 170.400 C 390.000 170.933,389.733 171.200,389.200 171.200 C 388.667 171.200,388.400 171.467,388.400 172.000 C 388.400 172.533,388.133 172.800,387.600 172.800 C 387.067 172.800,386.800 173.067,386.800 173.600 C 386.800 174.267,386.533 174.400,385.200 174.400 C 383.867 174.400,383.600 174.533,383.600 175.200 C 383.600 175.733,383.333 176.000,382.800 176.000 C 382.267 176.000,382.000 176.267,382.000 176.800 C 382.000 177.448,381.733 177.600,380.600 177.600 C 379.467 177.600,379.200 177.752,379.200 178.400 C 379.200 178.933,378.933 179.200,378.400 179.200 C 377.956 179.200,377.600 179.467,377.600 179.800 C 377.600 180.233,377.156 180.400,376.000 180.400 C 374.667 180.400,374.400 180.533,374.400 181.200 C 374.400 181.733,374.133 182.000,373.600 182.000 C 373.067 182.000,372.800 182.267,372.800 182.800 C 372.800 183.333,372.533 183.600,372.000 183.600 C 371.467 183.600,371.200 183.867,371.200 184.400 C 371.200 185.067,370.933 185.200,369.600 185.200 C 368.267 185.200,368.000 185.333,368.000 186.000 C 368.000 186.533,367.733 186.800,367.200 186.800 C 366.667 186.800,366.400 187.067,366.400 187.600 C 366.400 188.267,366.133 188.400,364.800 188.400 C 363.467 188.400,363.200 188.533,363.200 189.200 C 363.200 189.644,362.933 190.000,362.600 190.000 C 362.267 190.000,362.000 190.356,362.000 190.800 C 362.000 191.333,361.733 191.600,361.200 191.600 C 360.667 191.600,360.400 191.867,360.400 192.400 C 360.400 193.067,360.133 193.200,358.800 193.200 C 357.467 193.200,357.200 193.333,357.200 194.000 C 357.200 194.533,356.933 194.800,356.400 194.800 C 355.956 194.800,355.600 195.067,355.600 195.400 C 355.600 195.833,355.156 196.000,354.000 196.000 C 352.667 196.000,352.400 196.133,352.400 196.800 C 352.400 197.333,352.133 197.600,351.600 197.600 C 351.067 197.600,350.800 197.867,350.800 198.400 C 350.800 199.067,350.533 199.200,349.200 199.200 C 347.867 199.200,347.600 199.333,347.600 200.000 C 347.600 200.533,347.333 200.800,346.800 200.800 C 346.267 200.800,346.000 201.067,346.000 201.600 C 346.000 202.044,345.733 202.400,345.400 202.400 C 345.067 202.400,344.800 202.756,344.800 203.200 C 344.800 203.867,344.533 204.000,343.200 204.000 C 341.867 204.000,341.600 204.133,341.600 204.800 C 341.600 205.333,341.333 205.600,340.800 205.600 C 340.267 205.600,340.000 205.867,340.000 206.400 C 340.000 207.067,339.733 207.200,338.400 207.200 C 337.067 207.200,336.800 207.333,336.800 208.000 C 336.800 208.533,336.533 208.800,336.000 208.800 C 335.467 208.800,335.200 209.067,335.200 209.600 C 335.200 210.133,334.933 210.400,334.400 210.400 C 333.867 210.400,333.600 210.667,333.600 211.200 C 333.600 211.867,333.333 212.000,332.000 212.000 C 330.844 212.000,330.400 212.167,330.400 212.600 C 330.400 212.930,330.130 213.200,329.800 213.200 C 329.467 213.200,329.200 213.556,329.200 214.000 C 329.200 214.667,328.933 214.800,327.600 214.800 C 326.267 214.800,326.000 214.933,326.000 215.600 C 326.000 216.133,325.733 216.400,325.200 216.400 C 324.667 216.400,324.400 216.667,324.400 217.200 C 324.400 217.867,324.133 218.000,322.800 218.000 C 321.467 218.000,321.200 218.133,321.200 218.800 C 321.200 219.333,320.933 219.600,320.400 219.600 C 319.867 219.600,319.600 219.867,319.600 220.400 C 319.600 220.933,319.333 221.200,318.800 221.200 C 318.267 221.200,318.000 221.467,318.000 222.000 C 318.000 222.667,317.733 222.800,316.400 222.800 C 315.067 222.800,314.800 222.933,314.800 223.600 C 314.800 224.133,314.533 224.400,314.000 224.400 C 313.467 224.400,313.200 224.667,313.200 225.200 C 313.200 225.848,312.933 226.000,311.800 226.000 C 310.667 226.000,310.400 226.152,310.400 226.800 C 310.400 227.333,310.133 227.600,309.600 227.600 C 309.067 227.600,308.800 227.867,308.800 228.400 C 308.800 228.933,308.533 229.200,308.000 229.200 C 307.556 229.200,307.200 229.467,307.200 229.800 C 307.200 230.233,306.756 230.400,305.600 230.400 C 304.267 230.400,304.000 230.533,304.000 231.200 C 304.000 231.733,303.733 232.000,303.200 232.000 C 302.667 232.000,302.400 232.267,302.400 232.800 C 302.400 233.467,302.133 233.600,300.800 233.600 C 299.467 233.600,299.200 233.733,299.200 234.400 C 299.200 234.933,298.933 235.200,298.400 235.200 C 297.867 235.200,297.600 235.467,297.600 236.000 C 297.600 236.648,297.333 236.800,296.200 236.800 C 295.067 236.800,294.800 236.952,294.800 237.600 C 294.800 238.133,294.533 238.400,294.000 238.400 C 293.467 238.400,293.200 238.667,293.200 239.200 C 293.200 239.733,292.933 240.000,292.400 240.000 C 291.867 240.000,291.600 240.267,291.600 240.800 C 291.600 241.467,291.333 241.600,290.000 241.600 C 288.667 241.600,288.400 241.733,288.400 242.400 C 288.400 242.933,288.133 243.200,287.600 243.200 C 287.067 243.200,286.800 243.467,286.800 244.000 C 286.800 244.667,286.533 244.800,285.200 244.800 C 284.044 244.800,283.600 244.967,283.600 245.400 C 283.600 245.733,283.244 246.000,282.800 246.000 C 282.267 246.000,282.000 246.267,282.000 246.800 C 282.000 247.333,281.733 247.600,281.200 247.600 C 280.667 247.600,280.400 247.867,280.400 248.400 C 280.400 249.048,280.133 249.200,279.000 249.200 C 277.867 249.200,277.600 249.352,277.600 250.000 C 277.600 250.533,277.333 250.800,276.800 250.800 C 276.267 250.800,276.000 251.067,276.000 251.600 C 276.000 252.267,275.733 252.400,274.400 252.400 C 273.067 252.400,272.800 252.533,272.800 253.200 C 272.800 253.733,272.533 254.000,272.000 254.000 C 271.467 254.000,271.200 254.267,271.200 254.800 C 271.200 255.467,270.933 255.600,269.600 255.600 C 268.267 255.600,268.000 255.733,268.000 256.400 C 268.000 256.933,267.733 257.200,267.200 257.200 C 266.667 257.200,266.400 257.467,266.400 258.000 C 266.400 258.533,266.133 258.800,265.600 258.800 C 265.067 258.800,264.800 259.067,264.800 259.600 C 264.800 260.248,264.533 260.400,263.400 260.400 C 262.267 260.400,262.000 260.552,262.000 261.200 C 262.000 261.733,261.733 262.000,261.200 262.000 C 260.756 262.000,260.400 262.267,260.400 262.600 C 260.400 263.033,259.956 263.200,258.800 263.200 C 257.467 263.200,257.200 263.333,257.200 264.000 C 257.200 264.533,256.933 264.800,256.400 264.800 C 255.867 264.800,255.600 265.067,255.600 265.600 C 255.600 266.267,255.333 266.400,254.000 266.400 C 252.667 266.400,252.400 266.533,252.400 267.200 C 252.400 267.733,252.133 268.000,251.600 268.000 C 251.067 268.000,250.800 268.267,250.800 268.800 C 250.800 269.333,250.533 269.600,250.000 269.600 C 249.467 269.600,249.200 269.867,249.200 270.400 C 249.200 271.067,248.933 271.200,247.600 271.200 C 246.267 271.200,246.000 271.333,246.000 272.000 C 246.000 272.444,245.733 272.800,245.400 272.800 C 245.067 272.800,244.800 273.156,244.800 273.600 C 244.800 274.267,244.533 274.400,243.200 274.400 C 241.867 274.400,241.600 274.533,241.600 275.200 C 241.600 275.733,241.333 276.000,240.800 276.000 C 240.267 276.000,240.000 276.267,240.000 276.800 C 240.000 277.333,239.733 277.600,239.200 277.600 C 238.667 277.600,238.400 277.867,238.400 278.400 C 238.400 279.067,238.133 279.200,236.800 279.200 C 235.644 279.200,235.200 279.367,235.200 279.800 C 235.200 280.133,234.844 280.400,234.400 280.400 C 233.867 280.400,233.600 280.667,233.600 281.200 C 233.600 281.867,233.333 282.000,232.000 282.000 C 230.667 282.000,230.400 282.133,230.400 282.800 C 230.400 283.244,230.133 283.600,229.800 283.600 C 229.467 283.600,229.200 283.956,229.200 284.400 C 229.200 285.067,228.933 285.200,227.600 285.200 C 226.267 285.200,226.000 285.333,226.000 286.000 C 226.000 286.533,225.733 286.800,225.200 286.800 C 224.667 286.800,224.400 287.067,224.400 287.600 C 224.400 288.133,224.133 288.400,223.600 288.400 C 223.067 288.400,222.800 288.667,222.800 289.200 C 222.800 289.867,222.533 290.000,221.200 290.000 C 219.867 290.000,219.600 290.133,219.600 290.800 C 219.600 291.333,219.333 291.600,218.800 291.600 C 218.267 291.600,218.000 291.867,218.000 292.400 C 218.000 293.067,217.733 293.200,216.400 293.200 C 215.099 293.200,214.800 293.341,214.800 293.955 C 214.800 294.801,213.872 295.077,209.517 295.528 C 208.042 295.681,206.611 296.029,206.337 296.303 C 206.046 296.594,204.793 296.800,203.310 296.800 C 200.260 296.800,200.261 296.799,199.755 302.600 L 199.406 306.600 199.198 303.200 L 198.990 299.800 198.728 302.200 C 198.258 306.517,198.015 307.200,196.955 307.200 C 196.267 307.200,196.000 307.423,196.000 308.000 C 196.000 308.648,195.733 308.800,194.600 308.800 C 193.467 308.800,193.200 308.952,193.200 309.600 C 193.200 310.133,192.933 310.400,192.400 310.400 C 191.867 310.400,191.600 310.667,191.600 311.200 C 191.600 311.867,191.333 312.000,190.000 312.000 C 188.844 312.000,188.400 312.167,188.400 312.600 C 188.400 312.933,188.044 313.200,187.600 313.200 C 187.067 313.200,186.800 313.467,186.800 314.000 C 186.800 314.533,186.533 314.800,186.000 314.800 C 185.467 314.800,185.200 315.067,185.200 315.600 C 185.200 316.267,184.933 316.400,183.600 316.400 C 182.267 316.400,182.000 316.533,182.000 317.200 C 182.000 317.733,181.733 318.000,181.200 318.000 C 180.667 318.000,180.400 318.267,180.400 318.800 C 180.400 319.448,180.133 319.600,179.000 319.600 C 177.867 319.600,177.600 319.752,177.600 320.400 C 177.600 320.933,177.333 321.200,176.800 321.200 C 176.267 321.200,176.000 321.467,176.000 322.000 C 176.000 322.667,175.733 322.800,174.400 322.800 C 173.067 322.800,172.800 322.933,172.800 323.600 C 172.800 324.133,172.533 324.400,172.000 324.400 C 171.467 324.400,171.200 324.667,171.200 325.200 C 171.200 325.733,170.933 326.000,170.400 326.000 C 169.867 326.000,169.600 326.267,169.600 326.800 C 169.600 327.467,169.333 327.600,168.000 327.600 C 166.667 327.600,166.400 327.733,166.400 328.400 C 166.400 328.933,166.133 329.200,165.600 329.200 C 165.156 329.200,164.800 329.467,164.800 329.800 C 164.800 330.219,164.378 330.400,163.400 330.400 C 162.267 330.400,162.000 330.552,162.000 331.200 C 162.000 331.733,161.733 332.000,161.200 332.000 C 160.667 332.000,160.400 332.267,160.400 332.800 C 160.400 333.333,160.133 333.600,159.600 333.600 C 159.067 333.600,158.800 333.867,158.800 334.400 C 158.800 335.067,158.533 335.200,157.200 335.200 C 155.867 335.200,155.600 335.333,155.600 336.000 C 155.600 336.533,155.333 336.800,154.800 336.800 C 154.267 336.800,154.000 337.067,154.000 337.600 C 154.000 338.267,153.733 338.400,152.400 338.400 C 151.067 338.400,150.800 338.533,150.800 339.200 C 150.800 339.733,150.533 340.000,150.000 340.000 C 149.467 340.000,149.200 340.267,149.200 340.800 C 149.200 341.467,148.933 341.600,147.600 341.600 C 146.267 341.600,146.000 341.733,146.000 342.400 C 146.000 342.844,145.733 343.200,145.400 343.200 C 145.067 343.200,144.800 343.556,144.800 344.000 C 144.800 344.533,144.533 344.800,144.000 344.800 C 143.556 344.800,143.200 345.067,143.200 345.400 C 143.200 345.833,142.756 346.000,141.600 346.000 C 140.267 346.000,140.000 346.133,140.000 346.800 C 140.000 347.333,139.733 347.600,139.200 347.600 C 138.667 347.600,138.400 347.867,138.400 348.400 C 138.400 349.067,138.133 349.200,136.800 349.200 C 135.467 349.200,135.200 349.333,135.200 350.000 C 135.200 350.533,134.933 350.800,134.400 350.800 C 133.867 350.800,133.600 351.067,133.600 351.600 C 133.600 352.133,133.333 352.400,132.800 352.400 C 132.267 352.400,132.000 352.667,132.000 353.200 C 132.000 353.848,131.733 354.000,130.600 354.000 C 129.467 354.000,129.200 354.152,129.200 354.800 C 129.200 355.333,128.933 355.600,128.400 355.600 C 127.867 355.600,127.600 355.867,127.600 356.400 C 127.600 357.067,127.333 357.200,126.000 357.200 C 124.667 357.200,124.400 357.333,124.400 358.000 C 124.400 358.533,124.133 358.800,123.600 358.800 C 123.067 358.800,122.800 359.067,122.800 359.600 C 122.800 360.267,122.533 360.400,121.200 360.400 C 119.867 360.400,119.600 360.533,119.600 361.200 C 119.600 361.733,119.333 362.000,118.800 362.000 C 118.356 362.000,118.000 362.267,118.000 362.600 C 118.000 362.933,117.644 363.200,117.200 363.200 C 116.667 363.200,116.400 363.467,116.400 364.000 C 116.400 364.667,116.133 364.800,114.800 364.800 C 113.497 364.800,113.200 364.940,113.200 365.557 C 113.200 366.483,112.168 366.940,111.266 366.413 C 110.767 366.122,110.742 366.021,111.167 366.012 C 111.478 366.005,111.618 365.884,111.476 365.743 C 111.335 365.602,110.953 365.707,110.627 365.977 C 109.850 366.623,109.076 366.117,109.334 365.132 C 109.501 364.492,109.435 364.439,108.959 364.834 C 108.483 365.229,108.431 365.186,108.660 364.587 C 108.869 364.044,108.787 363.919,108.336 364.092 C 107.915 364.254,107.585 363.913,107.241 362.962 C 106.970 362.213,106.484 361.600,106.160 361.600 C 105.696 361.600,105.662 361.769,106.000 362.400 C 106.235 362.840,106.581 363.200,106.767 363.200 C 107.060 363.200,107.575 364.312,107.746 365.315 C 107.776 365.488,108.004 365.758,108.254 365.915 C 108.503 366.072,108.779 366.560,108.866 367.000 C 108.965 367.499,109.333 367.791,109.843 367.776 C 110.488 367.757,110.623 367.948,110.481 368.687 C 110.356 369.344,110.615 369.892,111.351 370.524 C 111.928 371.020,112.400 371.655,112.400 371.936 C 112.400 372.217,112.551 372.354,112.736 372.239 C 112.921 372.125,113.470 372.569,113.957 373.227 C 114.446 373.889,115.037 374.301,115.282 374.149 C 115.525 373.999,115.613 374.056,115.477 374.275 C 115.341 374.495,115.940 375.288,116.806 376.037 C 117.673 376.787,118.386 377.625,118.391 377.900 C 118.396 378.175,118.535 378.361,118.700 378.313 C 119.342 378.127,121.646 379.201,121.414 379.578 C 121.278 379.797,121.625 380.091,122.184 380.232 C 122.743 380.372,123.200 380.629,123.200 380.804 C 123.200 381.070,126.015 382.946,126.290 382.864 C 126.340 382.849,126.867 383.090,127.462 383.398 C 128.056 383.707,128.718 383.850,128.933 383.718 C 129.148 383.585,129.212 383.657,129.075 383.879 C 128.938 384.101,129.530 384.492,130.396 384.752 C 131.372 385.044,131.893 385.412,131.773 385.725 C 131.647 386.054,132.019 386.262,132.845 386.325 C 134.362 386.440,134.896 386.722,134.577 387.238 C 134.208 387.835,135.334 387.471,135.931 386.800 C 136.400 386.274,136.439 386.285,136.247 386.895 C 136.127 387.278,136.157 387.571,136.314 387.548 C 137.232 387.411,137.660 387.666,137.447 388.221 C 137.305 388.591,137.376 388.739,137.622 388.586 C 137.849 388.446,138.281 388.535,138.582 388.785 C 139.195 389.294,139.826 388.689,139.400 388.000 C 139.264 387.780,139.259 387.600,139.389 387.600 C 139.519 387.600,139.789 388.005,139.988 388.500 L 140.349 389.400 140.375 388.500 C 140.389 387.978,140.652 387.600,141.000 387.600 C 141.330 387.600,141.600 387.420,141.600 387.200 C 141.600 386.980,142.320 386.800,143.200 386.800 C 144.533 386.800,144.800 386.667,144.800 386.000 C 144.800 385.556,145.067 385.200,145.400 385.200 C 145.733 385.200,146.000 384.844,146.000 384.400 C 146.000 383.733,146.267 383.600,147.600 383.600 C 148.933 383.600,149.200 383.467,149.200 382.800 C 149.200 382.267,149.467 382.000,150.000 382.000 C 150.533 382.000,150.800 381.733,150.800 381.200 C 150.800 380.667,151.067 380.400,151.600 380.400 C 152.044 380.400,152.400 380.133,152.400 379.800 C 152.400 379.367,152.844 379.200,154.000 379.200 C 155.333 379.200,155.600 379.067,155.600 378.400 C 155.600 377.867,155.867 377.600,156.400 377.600 C 156.933 377.600,157.200 377.333,157.200 376.800 C 157.200 376.133,157.467 376.000,158.800 376.000 C 160.133 376.000,160.400 375.867,160.400 375.200 C 160.400 374.667,160.667 374.400,161.200 374.400 C 161.733 374.400,162.000 374.133,162.000 373.600 C 162.000 373.156,162.267 372.800,162.600 372.800 C 162.933 372.800,163.200 372.444,163.200 372.000 C 163.200 371.333,163.467 371.200,164.800 371.200 C 166.133 371.200,166.400 371.067,166.400 370.400 C 166.400 369.867,166.667 369.600,167.200 369.600 C 167.733 369.600,168.000 369.333,168.000 368.800 C 168.000 368.133,168.267 368.000,169.600 368.000 C 170.933 368.000,171.200 367.867,171.200 367.200 C 171.200 366.667,171.467 366.400,172.000 366.400 C 172.533 366.400,172.800 366.133,172.800 365.600 C 172.800 364.933,173.067 364.800,174.400 364.800 C 175.733 364.800,176.000 364.667,176.000 364.000 C 176.000 363.467,176.267 363.200,176.800 363.200 C 177.244 363.200,177.600 362.933,177.600 362.600 C 177.600 362.267,177.956 362.000,178.400 362.000 C 178.933 362.000,179.200 361.733,179.200 361.200 C 179.200 360.552,179.467 360.400,180.600 360.400 C 181.733 360.400,182.000 360.248,182.000 359.600 C 182.000 359.067,182.267 358.800,182.800 358.800 C 183.333 358.800,183.600 358.533,183.600 358.000 C 183.600 357.333,183.867 357.200,185.200 357.200 C 186.533 357.200,186.800 357.067,186.800 356.400 C 186.800 355.867,187.067 355.600,187.600 355.600 C 188.133 355.600,188.400 355.333,188.400 354.800 C 188.400 354.267,188.667 354.000,189.200 354.000 C 189.733 354.000,190.000 353.733,190.000 353.200 C 190.000 352.533,190.267 352.400,191.600 352.400 C 192.933 352.400,193.200 352.267,193.200 351.600 C 193.200 351.067,193.467 350.800,194.000 350.800 C 194.533 350.800,194.800 350.533,194.800 350.000 C 194.800 349.352,195.067 349.200,196.200 349.200 C 197.333 349.200,197.600 349.048,197.600 348.400 C 197.600 347.867,197.867 347.600,198.400 347.600 C 198.933 347.600,199.200 347.333,199.200 346.800 C 199.200 346.133,199.467 346.000,200.800 346.000 C 201.956 346.000,202.400 345.833,202.400 345.400 C 202.400 345.067,202.756 344.800,203.200 344.800 C 203.733 344.800,204.000 344.533,204.000 344.000 C 204.000 343.467,204.267 343.200,204.800 343.200 C 205.333 343.200,205.600 342.933,205.600 342.400 C 205.600 341.733,205.867 341.600,207.200 341.600 C 208.533 341.600,208.800 341.467,208.800 340.800 C 208.800 340.267,209.067 340.000,209.600 340.000 C 210.133 340.000,210.400 339.733,210.400 339.200 C 210.400 338.552,210.667 338.400,211.800 338.400 C 212.933 338.400,213.200 338.248,213.200 337.600 C 213.200 337.067,213.467 336.800,214.000 336.800 C 214.533 336.800,214.800 336.533,214.800 336.000 C 214.800 335.467,215.067 335.200,215.600 335.200 C 216.133 335.200,216.400 334.933,216.400 334.400 C 216.400 333.733,216.667 333.600,218.000 333.600 C 219.333 333.600,219.600 333.467,219.600 332.800 C 219.600 332.267,219.867 332.000,220.400 332.000 C 220.933 332.000,221.200 331.733,221.200 331.200 C 221.200 330.533,221.467 330.400,222.800 330.400 C 223.956 330.400,224.400 330.233,224.400 329.800 C 224.400 329.467,224.756 329.200,225.200 329.200 C 225.733 329.200,226.000 328.933,226.000 328.400 C 226.000 327.733,226.267 327.600,227.600 327.600 C 228.933 327.600,229.200 327.467,229.200 326.800 C 229.200 326.356,229.467 326.000,229.800 326.000 C 230.133 326.000,230.400 325.644,230.400 325.200 C 230.400 324.667,230.667 324.400,231.200 324.400 C 231.733 324.400,232.000 324.133,232.000 323.600 C 232.000 322.933,232.267 322.800,233.600 322.800 C 234.933 322.800,235.200 322.667,235.200 322.000 C 235.200 321.467,235.467 321.200,236.000 321.200 C 236.533 321.200,236.800 320.933,236.800 320.400 C 236.800 319.733,237.067 319.600,238.400 319.600 C 239.733 319.600,240.000 319.467,240.000 318.800 C 240.000 318.267,240.267 318.000,240.800 318.000 C 241.333 318.000,241.600 317.733,241.600 317.200 C 241.600 316.667,241.867 316.400,242.400 316.400 C 242.933 316.400,243.200 316.133,243.200 315.600 C 243.200 314.952,243.467 314.800,244.600 314.800 C 245.733 314.800,246.000 314.648,246.000 314.000 C 246.000 313.467,246.267 313.200,246.800 313.200 C 247.244 313.200,247.600 312.933,247.600 312.600 C 247.600 312.167,248.044 312.000,249.200 312.000 C 250.533 312.000,250.800 311.867,250.800 311.200 C 250.800 310.656,251.088 310.380,251.700 310.337 C 252.195 310.303,251.700 310.151,250.600 310.000 C 248.790 309.752,248.942 309.713,252.200 309.596 C 255.792 309.466,255.795 309.465,253.400 309.200 L 251.000 308.934 253.400 308.811 C 255.609 308.697,255.450 308.650,251.400 308.215 L 247.000 307.743 249.600 307.548 C 251.030 307.442,240.635 307.319,226.500 307.277 L 200.800 307.200 200.800 302.426 L 200.800 297.653 226.500 297.418 C 256.934 297.141,266.000 296.903,266.000 296.382 C 266.000 296.172,267.170 296.000,268.600 296.000 C 270.644 296.000,271.200 295.872,271.200 295.400 C 271.200 294.967,271.644 294.800,272.800 294.800 C 274.133 294.800,274.400 294.667,274.400 294.000 C 274.400 293.333,274.667 293.200,276.000 293.200 C 277.333 293.200,277.600 293.067,277.600 292.400 C 277.600 291.867,277.867 291.600,278.400 291.600 C 278.933 291.600,279.200 291.333,279.200 290.800 C 279.200 290.152,279.467 290.000,280.600 290.000 C 281.733 290.000,282.000 289.848,282.000 289.200 C 282.000 288.667,282.267 288.400,282.800 288.400 C 283.333 288.400,283.600 288.133,283.600 287.600 C 283.600 287.067,283.867 286.800,284.400 286.800 C 284.933 286.800,285.200 286.533,285.200 286.000 C 285.200 285.333,285.467 285.200,286.800 285.200 C 288.133 285.200,288.400 285.067,288.400 284.400 C 288.400 283.867,288.667 283.600,289.200 283.600 C 289.733 283.600,290.000 283.333,290.000 282.800 C 290.000 282.133,290.267 282.000,291.600 282.000 C 292.933 282.000,293.200 281.867,293.200 281.200 C 293.200 280.667,293.467 280.400,294.000 280.400 C 294.444 280.400,294.800 280.133,294.800 279.800 C 294.800 279.470,295.070 279.200,295.400 279.200 C 295.733 279.200,296.000 278.844,296.000 278.400 C 296.000 277.733,296.267 277.600,297.600 277.600 C 298.933 277.600,299.200 277.467,299.200 276.800 C 299.200 276.267,299.467 276.000,300.000 276.000 C 300.533 276.000,300.800 275.733,300.800 275.200 C 300.800 274.533,301.067 274.400,302.400 274.400 C 303.733 274.400,304.000 274.267,304.000 273.600 C 304.000 273.067,304.267 272.800,304.800 272.800 C 305.333 272.800,305.600 272.533,305.600 272.000 C 305.600 271.333,305.867 271.200,307.200 271.200 C 308.533 271.200,308.800 271.067,308.800 270.400 C 308.800 269.867,309.067 269.600,309.600 269.600 C 310.133 269.600,310.400 269.333,310.400 268.800 C 310.400 268.267,310.667 268.000,311.200 268.000 C 311.733 268.000,312.000 267.733,312.000 267.200 C 312.000 266.552,312.267 266.400,313.400 266.400 C 314.533 266.400,314.800 266.248,314.800 265.600 C 314.800 265.067,315.067 264.800,315.600 264.800 C 316.133 264.800,316.400 264.533,316.400 264.000 C 316.400 263.333,316.667 263.200,318.000 263.200 C 319.156 263.200,319.600 263.033,319.600 262.600 C 319.600 262.267,319.956 262.000,320.400 262.000 C 320.933 262.000,321.200 261.733,321.200 261.200 C 321.200 260.667,321.467 260.400,322.000 260.400 C 322.533 260.400,322.800 260.133,322.800 259.600 C 322.800 258.933,323.067 258.800,324.400 258.800 C 325.733 258.800,326.000 258.667,326.000 258.000 C 326.000 257.467,326.267 257.200,326.800 257.200 C 327.333 257.200,327.600 256.933,327.600 256.400 C 327.600 255.752,327.867 255.600,329.000 255.600 C 330.133 255.600,330.400 255.448,330.400 254.800 C 330.400 254.267,330.667 254.000,331.200 254.000 C 331.733 254.000,332.000 253.733,332.000 253.200 C 332.000 252.533,332.267 252.400,333.600 252.400 C 334.933 252.400,335.200 252.267,335.200 251.600 C 335.200 251.067,335.467 250.800,336.000 250.800 C 336.533 250.800,336.800 250.533,336.800 250.000 C 336.800 249.467,337.067 249.200,337.600 249.200 C 338.133 249.200,338.400 248.933,338.400 248.400 C 338.400 247.733,338.667 247.600,340.000 247.600 C 341.333 247.600,341.600 247.467,341.600 246.800 C 341.600 246.267,341.867 246.000,342.400 246.000 C 342.844 246.000,343.200 245.733,343.200 245.400 C 343.200 244.981,343.622 244.800,344.600 244.800 C 345.733 244.800,346.000 244.648,346.000 244.000 C 346.000 243.467,346.267 243.200,346.800 243.200 C 347.333 243.200,347.600 242.933,347.600 242.400 C 347.600 241.867,347.867 241.600,348.400 241.600 C 348.933 241.600,349.200 241.333,349.200 240.800 C 349.200 240.133,349.467 240.000,350.800 240.000 C 352.133 240.000,352.400 239.867,352.400 239.200 C 352.400 238.667,352.667 238.400,353.200 238.400 C 353.733 238.400,354.000 238.133,354.000 237.600 C 354.000 236.933,354.267 236.800,355.600 236.800 C 356.933 236.800,357.200 236.667,357.200 236.000 C 357.200 235.467,357.467 235.200,358.000 235.200 C 358.533 235.200,358.800 234.933,358.800 234.400 C 358.800 233.733,359.067 233.600,360.400 233.600 C 361.733 233.600,362.000 233.467,362.000 232.800 C 362.000 232.356,362.267 232.000,362.600 232.000 C 362.933 232.000,363.200 231.644,363.200 231.200 C 363.200 230.667,363.467 230.400,364.000 230.400 C 364.444 230.400,364.800 230.133,364.800 229.800 C 364.800 229.367,365.244 229.200,366.400 229.200 C 367.733 229.200,368.000 229.067,368.000 228.400 C 368.000 227.867,368.267 227.600,368.800 227.600 C 369.333 227.600,369.600 227.333,369.600 226.800 C 369.600 226.133,369.867 226.000,371.200 226.000 C 372.533 226.000,372.800 225.867,372.800 225.200 C 372.800 224.667,373.067 224.400,373.600 224.400 C 374.133 224.400,374.400 224.133,374.400 223.600 C 374.400 223.067,374.667 222.800,375.200 222.800 C 375.733 222.800,376.000 222.533,376.000 222.000 C 376.000 221.333,376.267 221.200,377.600 221.200 C 378.933 221.200,379.200 221.067,379.200 220.400 C 379.200 219.956,379.467 219.600,379.800 219.600 C 380.133 219.600,380.400 219.244,380.400 218.800 C 380.400 218.133,380.667 218.000,382.000 218.000 C 383.333 218.000,383.600 217.867,383.600 217.200 C 383.600 216.667,383.867 216.400,384.400 216.400 C 384.933 216.400,385.200 216.133,385.200 215.600 C 385.200 214.933,385.467 214.800,386.800 214.800 C 388.133 214.800,388.400 214.667,388.400 214.000 C 388.400 213.467,388.667 213.200,389.200 213.200 C 389.644 213.200,390.000 212.933,390.000 212.600 C 390.000 212.267,390.356 212.000,390.800 212.000 C 391.333 212.000,391.600 211.733,391.600 211.200 C 391.600 210.533,391.867 210.400,393.200 210.400 C 394.533 210.400,394.800 210.267,394.800 209.600 C 394.800 209.156,395.067 208.800,395.400 208.800 C 395.733 208.800,396.000 208.444,396.000 208.000 C 396.000 207.476,396.267 207.200,396.773 207.200 C 397.320 207.200,397.584 206.877,397.673 206.100 C 397.746 205.469,398.056 204.983,398.400 204.961 C 398.730 204.939,399.225 204.894,399.500 204.861 C 399.886 204.814,400.000 202.301,400.000 193.800 C 400.000 185.270,399.888 182.799,399.500 182.794 C 399.134 182.789,399.146 182.695,399.545 182.442 C 400.006 182.151,400.006 182.063,399.545 181.879 C 399.085 181.695,399.085 181.601,399.545 181.279 C 399.875 181.048,399.925 180.838,399.672 180.748 C 399.430 180.662,399.211 178.959,399.153 176.695 C 399.070 173.516,398.916 172.667,398.326 172.133 C 397.771 171.631,397.600 170.882,397.600 168.962 C 397.600 166.594,397.168 165.480,396.604 166.393 C 396.274 166.928,395.600 166.916,395.600 166.376 C 395.600 166.143,395.768 166.056,395.972 166.183 C 396.177 166.309,396.460 166.227,396.600 166.000 C 396.740 165.773,397.023 165.691,397.228 165.817 C 397.943 166.259,397.593 165.186,396.800 164.507 C 396.360 164.130,396.000 163.622,396.000 163.378 C 396.000 163.133,395.730 162.933,395.400 162.933 C 395.070 162.933,394.800 163.173,394.800 163.467 M398.146 205.733 C 398.286 206.136,398.400 206.631,398.400 206.833 C 398.400 207.035,398.760 207.200,399.200 207.200 C 399.733 207.200,400.000 206.933,400.000 206.400 C 400.000 205.547,399.209 205.255,399.187 206.100 C 399.180 206.382,398.895 206.251,398.533 205.800 C 397.970 205.097,397.923 205.089,398.146 205.733 M102.469 351.216 C 102.504 352.106,102.651 352.641,102.796 352.407 C 103.055 351.987,102.852 349.600,102.557 349.600 C 102.474 349.600,102.434 350.327,102.469 351.216 M102.806 353.900 C 102.820 354.557,103.576 355.356,103.878 355.034 C 104.055 354.845,103.974 354.610,103.698 354.511 C 103.421 354.412,103.297 354.167,103.421 353.966 C 103.545 353.765,103.457 353.600,103.224 353.600 C 102.991 353.600,102.803 353.735,102.806 353.900 M104.000 357.920 C 104.000 358.336,104.867 359.200,105.283 359.200 C 105.461 359.200,105.382 358.840,105.107 358.400 C 104.602 357.592,104.000 357.331,104.000 357.920 "
              stroke="none" fill="#67daff" fill-rule="evenodd"></path>
        <path id="path1"
              d="M359.693 103.200 C 359.968 103.640,360.331 104.000,360.500 104.000 C 360.669 104.000,360.582 103.640,360.307 103.200 C 360.032 102.760,359.669 102.400,359.500 102.400 C 359.331 102.400,359.418 102.760,359.693 103.200 M366.908 106.010 C 367.298 106.251,367.512 106.618,367.385 106.825 C 367.257 107.031,367.357 107.200,367.606 107.200 C 368.390 107.200,367.830 105.815,366.995 105.690 C 366.261 105.580,366.254 105.604,366.908 106.010 M379.200 116.995 C 379.200 117.139,379.489 117.547,379.843 117.900 C 380.434 118.491,380.475 118.483,380.343 117.805 C 380.211 117.122,379.200 116.406,379.200 116.995 M386.800 129.986 C 386.800 130.198,387.168 130.569,387.618 130.810 C 388.374 131.214,388.397 131.185,387.922 130.424 C 387.381 129.558,386.800 129.331,386.800 129.986 M389.120 134.080 C 389.384 134.344,389.600 134.914,389.600 135.347 C 389.600 135.779,389.712 136.022,389.848 135.885 C 390.242 135.491,389.634 133.600,389.112 133.600 C 388.753 133.600,388.755 133.715,389.120 134.080 M306.014 147.574 C 305.340 148.832,305.540 149.260,306.400 148.400 C 306.840 147.960,307.200 147.420,307.200 147.200 C 307.200 146.522,306.451 146.758,306.014 147.574 M392.813 147.937 C 392.832 148.329,393.849 149.600,394.144 149.600 C 394.795 149.600,394.310 148.070,393.600 147.884 C 393.160 147.769,392.806 147.793,392.813 147.937 M394.853 156.123 C 395.213 156.396,395.597 156.975,395.707 157.410 C 395.838 157.927,395.923 157.750,395.954 156.900 C 395.993 155.801,395.861 155.602,395.100 155.613 C 394.298 155.624,394.271 155.680,394.853 156.123 M304.267 157.467 C 304.120 157.613,304.011 158.108,304.025 158.567 C 304.049 159.351,304.072 159.346,304.422 158.474 C 304.645 157.917,304.979 157.663,305.258 157.836 C 305.548 158.015,305.616 157.949,305.438 157.662 C 305.118 157.144,304.665 157.068,304.267 157.467 M302.880 162.480 C 302.616 162.744,302.411 163.329,302.425 163.780 C 302.449 164.538,302.479 164.530,302.822 163.674 C 303.026 163.165,303.375 162.861,303.597 162.998 C 303.818 163.135,304.000 162.967,304.000 162.624 C 304.000 161.879,303.540 161.820,302.880 162.480 M396.000 163.482 C 396.000 163.669,396.374 164.142,396.831 164.534 C 397.638 165.225,397.658 165.219,397.531 164.327 C 397.411 163.483,396.000 162.704,396.000 163.482 M301.499 166.977 C 301.115 167.258,300.800 167.727,300.800 168.020 C 300.800 168.344,301.128 168.199,301.640 167.649 C 302.608 166.611,302.527 166.226,301.499 166.977 M299.473 170.153 C 299.323 170.545,299.211 171.166,299.225 171.533 C 299.242 171.975,299.381 171.874,299.637 171.234 C 299.849 170.703,299.961 170.082,299.885 169.854 C 299.809 169.627,299.624 169.761,299.473 170.153 M398.200 172.000 C 398.598 172.440,398.986 172.800,399.062 172.800 C 399.138 172.800,399.200 172.440,399.200 172.000 C 399.200 171.447,398.933 171.200,398.338 171.200 C 397.501 171.200,397.497 171.224,398.200 172.000 M293.200 179.835 C 293.200 180.146,293.335 180.397,293.500 180.394 C 293.870 180.386,295.077 179.626,294.800 179.576 C 294.690 179.555,294.285 179.478,293.900 179.405 C 293.501 179.328,293.200 179.513,293.200 179.835 M399.200 180.200 C 399.200 180.530,399.380 180.800,399.600 180.800 C 399.820 180.800,400.000 180.530,400.000 180.200 C 400.000 179.870,399.820 179.600,399.600 179.600 C 399.380 179.600,399.200 179.870,399.200 180.200 M292.229 181.429 C 291.462 182.195,291.392 182.671,292.137 182.052 C 292.432 181.807,292.762 181.695,292.870 181.803 C 292.978 181.912,293.067 181.730,293.067 181.400 C 293.067 180.651,293.004 180.653,292.229 181.429 M284.700 188.832 C 283.842 189.332,283.790 189.867,284.600 189.867 C 284.930 189.867,285.112 189.778,285.003 189.670 C 284.895 189.562,285.007 189.232,285.252 188.937 C 285.779 188.303,285.650 188.278,284.700 188.832 M282.278 190.823 C 282.102 191.498,282.165 191.561,282.631 191.174 C 283.268 190.646,283.386 190.000,282.847 190.000 C 282.652 190.000,282.396 190.370,282.278 190.823 M397.767 205.167 C 397.675 205.258,397.600 205.753,397.600 206.267 C 397.600 206.933,397.371 207.200,396.800 207.200 C 396.267 207.200,396.000 207.467,396.000 208.000 C 396.000 208.444,395.733 208.800,395.400 208.800 C 395.067 208.800,394.800 209.156,394.800 209.600 C 394.800 210.267,394.533 210.400,393.200 210.400 C 391.867 210.400,391.600 210.533,391.600 211.200 C 391.600 211.733,391.333 212.000,390.800 212.000 C 390.356 212.000,390.000 212.267,390.000 212.600 C 390.000 212.933,389.644 213.200,389.200 213.200 C 388.667 213.200,388.400 213.467,388.400 214.000 C 388.400 214.667,388.133 214.800,386.800 214.800 C 385.467 214.800,385.200 214.933,385.200 215.600 C 385.200 216.133,384.933 216.400,384.400 216.400 C 383.867 216.400,383.600 216.667,383.600 217.200 C 383.600 217.867,383.333 218.000,382.000 218.000 C 380.667 218.000,380.400 218.133,380.400 218.800 C 380.400 219.244,380.133 219.600,379.800 219.600 C 379.467 219.600,379.200 219.956,379.200 220.400 C 379.200 221.067,378.933 221.200,377.600 221.200 C 376.267 221.200,376.000 221.333,376.000 222.000 C 376.000 222.533,375.733 222.800,375.200 222.800 C 374.667 222.800,374.400 223.067,374.400 223.600 C 374.400 224.133,374.133 224.400,373.600 224.400 C 373.067 224.400,372.800 224.667,372.800 225.200 C 372.800 225.867,372.533 226.000,371.200 226.000 C 369.867 226.000,369.600 226.133,369.600 226.800 C 369.600 227.333,369.333 227.600,368.800 227.600 C 368.267 227.600,368.000 227.867,368.000 228.400 C 368.000 229.067,367.733 229.200,366.400 229.200 C 365.244 229.200,364.800 229.367,364.800 229.800 C 364.800 230.133,364.444 230.400,364.000 230.400 C 363.467 230.400,363.200 230.667,363.200 231.200 C 363.200 231.644,362.933 232.000,362.600 232.000 C 362.267 232.000,362.000 232.356,362.000 232.800 C 362.000 233.467,361.733 233.600,360.400 233.600 C 359.067 233.600,358.800 233.733,358.800 234.400 C 358.800 234.933,358.533 235.200,358.000 235.200 C 357.467 235.200,357.200 235.467,357.200 236.000 C 357.200 236.667,356.933 236.800,355.600 236.800 C 354.267 236.800,354.000 236.933,354.000 237.600 C 354.000 238.133,353.733 238.400,353.200 238.400 C 352.667 238.400,352.400 238.667,352.400 239.200 C 352.400 239.867,352.133 240.000,350.800 240.000 C 349.467 240.000,349.200 240.133,349.200 240.800 C 349.200 241.333,348.933 241.600,348.400 241.600 C 347.867 241.600,347.600 241.867,347.600 242.400 C 347.600 242.933,347.333 243.200,346.800 243.200 C 346.267 243.200,346.000 243.467,346.000 244.000 C 346.000 244.648,345.733 244.800,344.600 244.800 C 343.622 244.800,343.200 244.981,343.200 245.400 C 343.200 245.733,342.844 246.000,342.400 246.000 C 341.867 246.000,341.600 246.267,341.600 246.800 C 341.600 247.467,341.333 247.600,340.000 247.600 C 338.667 247.600,338.400 247.733,338.400 248.400 C 338.400 248.933,338.133 249.200,337.600 249.200 C 337.067 249.200,336.800 249.467,336.800 250.000 C 336.800 250.533,336.533 250.800,336.000 250.800 C 335.467 250.800,335.200 251.067,335.200 251.600 C 335.200 252.267,334.933 252.400,333.600 252.400 C 332.267 252.400,332.000 252.533,332.000 253.200 C 332.000 253.733,331.733 254.000,331.200 254.000 C 330.667 254.000,330.400 254.267,330.400 254.800 C 330.400 255.448,330.133 255.600,329.000 255.600 C 327.867 255.600,327.600 255.752,327.600 256.400 C 327.600 256.933,327.333 257.200,326.800 257.200 C 326.267 257.200,326.000 257.467,326.000 258.000 C 326.000 258.667,325.733 258.800,324.400 258.800 C 323.067 258.800,322.800 258.933,322.800 259.600 C 322.800 260.133,322.533 260.400,322.000 260.400 C 321.467 260.400,321.200 260.667,321.200 261.200 C 321.200 261.733,320.933 262.000,320.400 262.000 C 319.956 262.000,319.600 262.267,319.600 262.600 C 319.600 263.033,319.156 263.200,318.000 263.200 C 316.667 263.200,316.400 263.333,316.400 264.000 C 316.400 264.533,316.133 264.800,315.600 264.800 C 315.067 264.800,314.800 265.067,314.800 265.600 C 314.800 266.248,314.533 266.400,313.400 266.400 C 312.267 266.400,312.000 266.552,312.000 267.200 C 312.000 267.733,311.733 268.000,311.200 268.000 C 310.667 268.000,310.400 268.267,310.400 268.800 C 310.400 269.333,310.133 269.600,309.600 269.600 C 309.067 269.600,308.800 269.867,308.800 270.400 C 308.800 271.067,308.533 271.200,307.200 271.200 C 305.867 271.200,305.600 271.333,305.600 272.000 C 305.600 272.533,305.333 272.800,304.800 272.800 C 304.267 272.800,304.000 273.067,304.000 273.600 C 304.000 274.267,303.733 274.400,302.400 274.400 C 301.067 274.400,300.800 274.533,300.800 275.200 C 300.800 275.733,300.533 276.000,300.000 276.000 C 299.467 276.000,299.200 276.267,299.200 276.800 C 299.200 277.467,298.933 277.600,297.600 277.600 C 296.267 277.600,296.000 277.733,296.000 278.400 C 296.000 278.844,295.733 279.200,295.400 279.200 C 295.070 279.200,294.800 279.470,294.800 279.800 C 294.800 280.133,294.444 280.400,294.000 280.400 C 293.467 280.400,293.200 280.667,293.200 281.200 C 293.200 281.867,292.933 282.000,291.600 282.000 C 290.267 282.000,290.000 282.133,290.000 282.800 C 290.000 283.333,289.733 283.600,289.200 283.600 C 288.667 283.600,288.400 283.867,288.400 284.400 C 288.400 285.067,288.133 285.200,286.800 285.200 C 285.467 285.200,285.200 285.333,285.200 286.000 C 285.200 286.533,284.933 286.800,284.400 286.800 C 283.867 286.800,283.600 287.067,283.600 287.600 C 283.600 288.133,283.333 288.400,282.800 288.400 C 282.267 288.400,282.000 288.667,282.000 289.200 C 282.000 289.848,281.733 290.000,280.600 290.000 C 279.467 290.000,279.200 290.152,279.200 290.800 C 279.200 291.333,278.933 291.600,278.400 291.600 C 277.867 291.600,277.600 291.867,277.600 292.400 C 277.600 293.067,277.333 293.200,276.000 293.200 C 274.667 293.200,274.400 293.333,274.400 294.000 C 274.400 294.667,274.133 294.800,272.800 294.800 C 271.644 294.800,271.200 294.967,271.200 295.400 C 271.200 295.872,270.644 296.000,268.600 296.000 C 267.133 296.000,266.000 296.174,266.000 296.400 C 266.000 296.648,263.604 296.817,259.700 296.843 C 256.235 296.867,252.320 297.021,251.000 297.185 C 249.680 297.348,271.207 297.509,298.838 297.541 C 348.606 297.599,349.083 297.593,349.800 296.800 C 350.431 296.103,351.032 296.000,354.462 296.000 C 358.133 296.000,358.400 295.946,358.400 295.200 C 358.400 294.489,358.667 294.400,360.800 294.400 C 362.933 294.400,363.200 294.311,363.200 293.600 C 363.200 292.933,363.467 292.800,364.800 292.800 C 365.899 292.800,366.400 292.626,366.400 292.245 C 366.400 291.926,366.998 291.577,367.800 291.426 C 368.638 291.269,369.200 290.930,369.200 290.582 C 369.200 290.258,369.571 290.000,370.037 290.000 C 370.525 290.000,370.958 289.681,371.074 289.237 C 371.184 288.817,371.617 288.384,372.037 288.274 C 372.457 288.165,372.800 287.809,372.800 287.484 C 372.800 287.159,373.160 286.799,373.600 286.684 C 374.040 286.569,374.400 286.188,374.400 285.837 C 374.400 285.487,374.670 285.200,375.000 285.200 C 375.333 285.200,375.600 284.844,375.600 284.400 C 375.600 283.867,375.867 283.600,376.400 283.600 C 376.933 283.600,377.200 283.333,377.200 282.800 C 377.200 282.267,377.467 282.000,378.000 282.000 C 378.497 282.000,378.800 281.733,378.800 281.296 C 378.800 280.909,379.160 280.368,379.600 280.093 C 380.110 279.774,380.400 279.160,380.400 278.397 C 380.400 277.467,380.578 277.200,381.200 277.200 C 381.644 277.200,382.000 276.933,382.000 276.600 C 382.000 276.270,382.360 275.640,382.800 275.200 C 383.240 274.760,383.600 273.971,383.600 273.447 C 383.600 272.830,383.882 272.419,384.400 272.284 C 384.974 272.134,385.200 271.738,385.200 270.884 C 385.200 270.030,385.426 269.634,386.000 269.484 C 386.615 269.323,386.800 268.938,386.800 267.821 C 386.800 266.919,387.104 266.040,387.600 265.508 C 388.110 264.961,388.400 264.096,388.400 263.125 C 388.400 262.088,388.578 261.600,388.957 261.600 C 389.672 261.600,390.000 260.723,390.000 258.814 C 390.000 257.630,390.177 257.247,390.800 257.084 C 391.407 256.925,391.600 256.538,391.600 255.480 C 391.600 254.610,391.825 253.999,392.200 253.855 C 392.633 253.689,392.800 253.010,392.800 251.413 C 392.800 249.467,392.896 249.200,393.600 249.200 C 394.311 249.200,394.400 248.933,394.400 246.800 C 394.400 244.667,394.489 244.400,395.200 244.400 C 395.907 244.400,396.000 244.133,396.000 242.096 C 396.000 240.226,396.150 239.698,396.800 239.293 C 397.498 238.857,397.600 238.360,397.600 235.397 C 397.600 232.267,397.663 232.000,398.400 232.000 C 399.147 232.000,399.200 231.733,399.200 228.000 C 399.200 225.600,399.360 224.000,399.600 224.000 C 399.853 224.000,400.000 221.067,400.000 216.000 C 400.000 209.870,399.883 207.999,399.500 207.994 C 399.167 207.990,399.200 207.858,399.600 207.600 C 400.085 207.286,400.028 207.211,399.300 207.206 C 398.805 207.203,398.400 207.035,398.400 206.833 C 398.400 206.631,398.296 206.136,398.170 205.733 C 397.953 205.044,397.967 205.042,398.393 205.706 C 398.810 206.355,400.000 205.885,400.000 205.071 C 400.000 204.845,398.004 204.931,397.767 205.167 M130.633 207.857 C 130.261 208.827,130.552 208.883,131.317 207.988 C 131.842 207.376,131.869 207.200,131.439 207.200 C 131.135 207.200,130.772 207.496,130.633 207.857 M125.280 210.880 C 124.668 211.492,124.659 212.114,125.265 211.912 C 125.521 211.826,125.775 211.451,125.830 211.078 C 125.948 210.271,125.905 210.255,125.280 210.880 M119.300 215.398 C 118.731 216.045,118.661 216.400,119.104 216.400 C 119.271 216.400,119.632 216.040,119.907 215.600 C 120.478 214.687,120.051 214.545,119.300 215.398 M116.800 217.353 C 116.800 217.658,116.440 218.001,116.000 218.116 C 115.560 218.231,115.200 218.646,115.200 219.039 C 115.200 219.651,115.271 219.671,115.700 219.176 C 115.975 218.859,116.612 218.195,117.116 217.700 C 117.808 217.020,117.881 216.800,117.416 216.800 C 117.077 216.800,116.800 217.049,116.800 217.353 M109.429 226.629 C 108.633 227.424,108.639 227.553,109.467 227.431 C 109.833 227.378,110.178 227.033,110.231 226.667 C 110.353 225.839,110.224 225.833,109.429 226.629 M106.200 232.306 C 105.836 232.574,105.448 233.600,105.711 233.600 C 105.772 233.600,106.130 233.240,106.507 232.800 C 107.177 232.017,106.994 231.723,106.200 232.306 M102.406 242.500 C 102.411 243.228,102.486 243.285,102.800 242.800 C 103.301 242.024,103.301 241.600,102.800 241.600 C 102.580 241.600,102.403 242.005,102.406 242.500 M249.600 307.548 L 247.000 307.743 251.400 308.215 C 255.450 308.650,255.609 308.697,253.400 308.811 L 251.000 308.934 253.400 309.200 C 255.795 309.465,255.792 309.466,252.200 309.596 C 248.942 309.713,248.790 309.752,250.600 310.000 C 251.700 310.151,252.195 310.303,251.700 310.337 C 251.088 310.380,250.800 310.656,250.800 311.200 C 250.800 311.867,250.533 312.000,249.200 312.000 C 248.044 312.000,247.600 312.167,247.600 312.600 C 247.600 312.933,247.244 313.200,246.800 313.200 C 246.267 313.200,246.000 313.467,246.000 314.000 C 246.000 314.648,245.733 314.800,244.600 314.800 C 243.467 314.800,243.200 314.952,243.200 315.600 C 243.200 316.133,242.933 316.400,242.400 316.400 C 241.867 316.400,241.600 316.667,241.600 317.200 C 241.600 317.733,241.333 318.000,240.800 318.000 C 240.267 318.000,240.000 318.267,240.000 318.800 C 240.000 319.467,239.733 319.600,238.400 319.600 C 237.067 319.600,236.800 319.733,236.800 320.400 C 236.800 320.933,236.533 321.200,236.000 321.200 C 235.467 321.200,235.200 321.467,235.200 322.000 C 235.200 322.667,234.933 322.800,233.600 322.800 C 232.267 322.800,232.000 322.933,232.000 323.600 C 232.000 324.133,231.733 324.400,231.200 324.400 C 230.667 324.400,230.400 324.667,230.400 325.200 C 230.400 325.644,230.133 326.000,229.800 326.000 C 229.467 326.000,229.200 326.356,229.200 326.800 C 229.200 327.467,228.933 327.600,227.600 327.600 C 226.267 327.600,226.000 327.733,226.000 328.400 C 226.000 328.933,225.733 329.200,225.200 329.200 C 224.756 329.200,224.400 329.467,224.400 329.800 C 224.400 330.233,223.956 330.400,222.800 330.400 C 221.467 330.400,221.200 330.533,221.200 331.200 C 221.200 331.733,220.933 332.000,220.400 332.000 C 219.867 332.000,219.600 332.267,219.600 332.800 C 219.600 333.467,219.333 333.600,218.000 333.600 C 216.667 333.600,216.400 333.733,216.400 334.400 C 216.400 334.933,216.133 335.200,215.600 335.200 C 215.067 335.200,214.800 335.467,214.800 336.000 C 214.800 336.533,214.533 336.800,214.000 336.800 C 213.467 336.800,213.200 337.067,213.200 337.600 C 213.200 338.248,212.933 338.400,211.800 338.400 C 210.667 338.400,210.400 338.552,210.400 339.200 C 210.400 339.733,210.133 340.000,209.600 340.000 C 209.067 340.000,208.800 340.267,208.800 340.800 C 208.800 341.467,208.533 341.600,207.200 341.600 C 205.867 341.600,205.600 341.733,205.600 342.400 C 205.600 342.933,205.333 343.200,204.800 343.200 C 204.267 343.200,204.000 343.467,204.000 344.000 C 204.000 344.533,203.733 344.800,203.200 344.800 C 202.756 344.800,202.400 345.067,202.400 345.400 C 202.400 345.833,201.956 346.000,200.800 346.000 C 199.467 346.000,199.200 346.133,199.200 346.800 C 199.200 347.333,198.933 347.600,198.400 347.600 C 197.867 347.600,197.600 347.867,197.600 348.400 C 197.600 349.048,197.333 349.200,196.200 349.200 C 195.067 349.200,194.800 349.352,194.800 350.000 C 194.800 350.533,194.533 350.800,194.000 350.800 C 193.467 350.800,193.200 351.067,193.200 351.600 C 193.200 352.267,192.933 352.400,191.600 352.400 C 190.267 352.400,190.000 352.533,190.000 353.200 C 190.000 353.733,189.733 354.000,189.200 354.000 C 188.667 354.000,188.400 354.267,188.400 354.800 C 188.400 355.333,188.133 355.600,187.600 355.600 C 187.067 355.600,186.800 355.867,186.800 356.400 C 186.800 357.067,186.533 357.200,185.200 357.200 C 183.867 357.200,183.600 357.333,183.600 358.000 C 183.600 358.533,183.333 358.800,182.800 358.800 C 182.267 358.800,182.000 359.067,182.000 359.600 C 182.000 360.248,181.733 360.400,180.600 360.400 C 179.467 360.400,179.200 360.552,179.200 361.200 C 179.200 361.733,178.933 362.000,178.400 362.000 C 177.956 362.000,177.600 362.267,177.600 362.600 C 177.600 362.933,177.244 363.200,176.800 363.200 C 176.267 363.200,176.000 363.467,176.000 364.000 C 176.000 364.667,175.733 364.800,174.400 364.800 C 173.067 364.800,172.800 364.933,172.800 365.600 C 172.800 366.133,172.533 366.400,172.000 366.400 C 171.467 366.400,171.200 366.667,171.200 367.200 C 171.200 367.867,170.933 368.000,169.600 368.000 C 168.267 368.000,168.000 368.133,168.000 368.800 C 168.000 369.333,167.733 369.600,167.200 369.600 C 166.667 369.600,166.400 369.867,166.400 370.400 C 166.400 371.067,166.133 371.200,164.800 371.200 C 163.467 371.200,163.200 371.333,163.200 372.000 C 163.200 372.444,162.933 372.800,162.600 372.800 C 162.267 372.800,162.000 373.156,162.000 373.600 C 162.000 374.133,161.733 374.400,161.200 374.400 C 160.667 374.400,160.400 374.667,160.400 375.200 C 160.400 375.867,160.133 376.000,158.800 376.000 C 157.467 376.000,157.200 376.133,157.200 376.800 C 157.200 377.333,156.933 377.600,156.400 377.600 C 155.867 377.600,155.600 377.867,155.600 378.400 C 155.600 379.067,155.333 379.200,154.000 379.200 C 152.844 379.200,152.400 379.367,152.400 379.800 C 152.400 380.133,152.044 380.400,151.600 380.400 C 151.067 380.400,150.800 380.667,150.800 381.200 C 150.800 381.733,150.533 382.000,150.000 382.000 C 149.467 382.000,149.200 382.267,149.200 382.800 C 149.200 383.467,148.933 383.600,147.600 383.600 C 146.267 383.600,146.000 383.733,146.000 384.400 C 146.000 384.844,145.733 385.200,145.400 385.200 C 145.067 385.200,144.800 385.556,144.800 386.000 C 144.800 386.667,144.533 386.800,143.200 386.800 C 142.320 386.800,141.600 386.980,141.600 387.200 C 141.600 387.420,141.330 387.600,141.000 387.600 C 140.652 387.600,140.389 387.978,140.375 388.500 L 140.349 389.400 139.988 388.500 C 139.789 388.005,139.519 387.600,139.389 387.600 C 139.259 387.600,139.264 387.780,139.400 388.000 C 139.826 388.689,139.195 389.294,138.582 388.785 C 138.281 388.535,137.849 388.446,137.622 388.586 C 137.376 388.739,137.305 388.591,137.447 388.221 C 137.660 387.666,137.232 387.411,136.314 387.548 C 136.157 387.571,136.127 387.278,136.247 386.895 C 136.439 386.285,136.400 386.274,135.931 386.800 C 135.334 387.471,134.208 387.835,134.577 387.238 C 134.896 386.722,134.362 386.440,132.845 386.325 C 132.019 386.262,131.647 386.054,131.773 385.725 C 131.893 385.412,131.372 385.044,130.396 384.752 C 129.533 384.493,128.898 384.165,128.985 384.024 C 129.073 383.882,128.797 383.740,128.372 383.708 C 127.855 383.669,127.600 383.906,127.600 384.425 C 127.600 385.039,127.881 385.200,128.953 385.200 C 129.970 385.200,130.359 385.399,130.516 386.000 C 130.631 386.440,131.029 386.800,131.399 386.800 C 131.770 386.800,132.531 387.160,133.091 387.600 C 133.650 388.040,134.693 388.400,135.407 388.400 C 136.370 388.400,136.761 388.607,136.916 389.200 C 137.076 389.813,137.462 390.000,138.563 390.000 C 139.525 390.000,140.000 390.184,140.000 390.557 C 140.000 391.296,140.886 391.600,143.033 391.600 C 144.337 391.600,144.800 391.757,144.800 392.200 C 144.800 392.659,145.306 392.800,146.953 392.800 C 148.770 392.800,149.139 392.925,149.316 393.600 C 149.502 394.311,149.862 394.400,152.563 394.400 C 155.333 394.400,155.600 394.470,155.600 395.200 C 155.600 395.932,155.867 396.000,158.753 396.000 C 161.570 396.000,161.929 396.085,162.116 396.800 C 162.300 397.505,162.662 397.600,165.163 397.600 C 167.467 397.600,168.150 397.750,168.800 398.400 C 169.493 399.093,170.133 399.200,173.600 399.200 C 176.000 399.200,177.600 399.360,177.600 399.600 C 177.600 399.862,185.333 400.000,200.000 400.000 C 214.667 400.000,222.400 399.862,222.400 399.600 C 222.400 399.361,223.968 399.200,226.304 399.200 C 229.774 399.200,230.263 399.111,230.707 398.400 C 231.144 397.701,231.640 397.600,234.641 397.600 C 237.738 397.600,238.095 397.522,238.284 396.800 C 238.469 396.091,238.830 396.000,241.447 396.000 C 244.133 396.000,244.400 395.928,244.400 395.200 C 244.400 394.470,244.667 394.400,247.437 394.400 C 250.138 394.400,250.498 394.311,250.684 393.600 C 250.860 392.928,251.230 392.800,253.004 392.800 C 254.511 392.800,255.180 392.628,255.345 392.200 C 255.471 391.870,256.008 391.600,256.537 391.600 C 258.351 391.600,260.000 391.100,260.000 390.550 C 260.000 390.185,260.484 390.000,261.437 390.000 C 262.538 390.000,262.924 389.813,263.084 389.200 C 263.245 388.585,263.630 388.400,264.750 388.400 C 265.774 388.400,266.356 388.162,266.707 387.600 C 267.026 387.090,267.640 386.800,268.403 386.800 C 269.333 386.800,269.600 386.622,269.600 386.000 C 269.600 385.348,269.867 385.200,271.037 385.200 C 272.138 385.200,272.524 385.013,272.684 384.400 C 272.834 383.826,273.230 383.600,274.084 383.600 C 274.938 383.600,275.334 383.374,275.484 382.800 C 275.600 382.357,276.030 382.000,276.447 382.000 C 276.933 382.000,277.200 381.717,277.200 381.200 C 277.200 380.667,277.467 380.400,278.000 380.400 C 278.440 380.400,279.160 380.040,279.600 379.600 C 280.040 379.160,280.760 378.800,281.200 378.800 C 281.733 378.800,282.000 378.533,282.000 378.000 C 282.000 377.467,282.267 377.200,282.800 377.200 C 283.333 377.200,283.600 376.933,283.600 376.400 C 283.600 375.867,283.867 375.600,284.400 375.600 C 284.844 375.600,285.200 375.333,285.200 375.000 C 285.200 374.670,285.476 374.400,285.813 374.400 C 286.149 374.400,286.543 374.085,286.686 373.700 C 286.830 373.315,287.274 372.765,287.674 372.477 C 288.073 372.190,288.400 371.695,288.400 371.377 C 288.400 371.060,288.662 370.800,288.982 370.800 C 289.330 370.800,289.669 370.238,289.826 369.400 C 289.979 368.584,290.325 368.000,290.654 368.000 C 290.965 368.000,291.384 367.567,291.585 367.039 C 291.786 366.510,292.142 365.960,292.375 365.815 C 292.609 365.671,292.800 365.044,292.800 364.423 C 292.800 363.630,293.038 363.231,293.600 363.084 C 294.280 362.906,294.400 362.538,294.400 360.637 C 294.400 358.667,294.495 358.400,295.200 358.400 C 295.928 358.400,296.000 358.133,296.000 355.427 C 296.000 352.805,296.095 352.424,296.800 352.200 C 297.587 351.950,297.600 351.595,297.600 329.573 L 297.600 307.200 274.900 307.277 C 262.415 307.319,251.030 307.442,249.600 307.548 M256.893 334.400 C 257.279 335.018,257.826 335.200,259.293 335.200 C 260.760 335.200,261.307 335.382,261.693 336.000 C 261.968 336.440,262.376 336.800,262.600 336.800 C 262.824 336.800,263.232 337.160,263.507 337.600 C 263.782 338.040,264.185 338.400,264.403 338.400 C 265.030 338.400,266.400 339.935,266.400 340.637 C 266.400 340.988,266.750 341.366,267.177 341.478 C 267.635 341.598,268.062 342.170,268.215 342.868 C 268.358 343.520,268.728 344.151,269.038 344.270 C 269.423 344.418,269.600 345.155,269.600 346.617 C 269.600 347.789,269.773 349.203,269.985 349.760 C 270.231 350.408,270.231 350.857,269.985 351.009 C 269.773 351.140,269.600 352.587,269.600 354.224 C 269.600 356.933,269.528 357.200,268.800 357.200 C 268.267 357.200,268.000 357.467,268.000 358.000 C 268.000 358.442,267.733 358.800,267.405 358.800 C 267.020 358.800,266.719 359.365,266.554 360.400 C 266.367 361.566,266.106 362.000,265.592 362.000 C 265.203 362.000,264.782 362.270,264.655 362.600 C 264.529 362.930,263.953 363.200,263.375 363.200 C 262.662 363.200,262.258 363.456,262.116 364.000 C 262.001 364.440,261.602 364.800,261.229 364.800 C 260.856 364.800,260.164 365.160,259.692 365.600 C 258.932 366.308,258.281 366.400,254.017 366.400 C 249.733 366.400,249.111 366.311,248.400 365.600 C 247.960 365.160,247.261 364.800,246.847 364.800 C 246.430 364.800,246.000 364.443,245.884 364.000 C 245.769 363.560,245.375 363.200,245.009 363.200 C 244.643 363.200,244.073 362.930,243.743 362.600 C 243.413 362.270,242.796 362.000,242.371 362.000 C 241.822 362.000,241.600 361.721,241.600 361.033 C 241.600 359.652,241.202 358.800,240.557 358.800 C 240.251 358.800,240.000 358.440,240.000 358.000 C 240.000 357.481,239.733 357.200,239.241 357.200 C 238.565 357.200,238.466 356.820,238.338 353.700 C 238.118 348.324,238.396 344.400,238.999 344.400 C 239.281 344.400,239.625 343.790,239.765 343.044 C 239.931 342.161,240.296 341.616,240.810 341.482 C 241.279 341.359,241.600 340.935,241.600 340.437 C 241.600 339.960,241.858 339.600,242.200 339.600 C 242.530 339.600,242.800 339.351,242.800 339.047 C 242.800 338.742,243.160 338.399,243.600 338.284 C 244.040 338.169,244.400 337.788,244.400 337.437 C 244.400 337.067,244.735 336.800,245.200 336.800 C 245.640 336.800,246.360 336.440,246.800 336.000 C 247.318 335.482,248.133 335.200,249.112 335.200 C 250.165 335.200,250.798 334.957,251.200 334.400 C 251.662 333.759,252.235 333.600,254.085 333.600 C 255.960 333.600,256.487 333.750,256.893 334.400 M102.436 353.857 C 102.403 355.019,103.338 355.995,103.924 355.409 C 104.039 355.294,103.928 355.200,103.678 355.200 C 103.428 355.200,103.054 354.615,102.848 353.900 L 102.472 352.600 102.436 353.857 M104.000 359.197 C 104.000 359.733,104.266 360.000,104.800 360.000 C 105.240 360.000,105.600 359.863,105.600 359.696 C 105.600 359.529,105.240 359.168,104.800 358.893 C 104.100 358.455,104.000 358.493,104.000 359.197 M107.200 365.600 C 107.200 366.167,107.463 366.396,108.100 366.388 C 108.911 366.377,108.930 366.335,108.292 365.963 C 107.902 365.736,107.688 365.382,107.815 365.175 C 107.943 364.969,107.857 364.800,107.624 364.800 C 107.391 364.800,107.200 365.160,107.200 365.600 M108.800 367.957 C 108.800 368.341,109.684 369.200,110.080 369.200 C 110.764 369.200,110.356 368.082,109.600 367.884 C 109.160 367.769,108.800 367.802,108.800 367.957 M110.400 370.437 C 110.400 370.678,110.760 370.969,111.200 371.084 C 111.640 371.199,112.000 371.548,112.000 371.859 C 112.000 372.170,112.252 372.522,112.561 372.640 C 112.869 372.759,113.212 373.203,113.323 373.628 C 113.434 374.052,113.812 374.400,114.163 374.400 C 114.513 374.400,114.800 374.670,114.800 375.000 C 114.800 375.330,115.092 375.600,115.449 375.600 C 115.947 375.600,115.994 375.475,115.652 375.063 C 115.407 374.768,115.340 374.379,115.503 374.199 C 115.667 374.019,115.584 373.996,115.320 374.147 C 115.038 374.309,114.476 373.929,113.957 373.227 C 113.470 372.569,112.921 372.125,112.736 372.239 C 112.551 372.354,112.400 372.207,112.400 371.913 C 112.400 371.618,112.038 371.068,111.595 370.689 C 110.660 369.888,110.400 369.833,110.400 370.437 M116.400 376.371 C 116.400 376.841,116.660 377.200,117.000 377.200 C 117.330 377.200,117.600 377.097,117.600 376.971 C 117.600 376.846,117.330 376.473,117.000 376.143 C 116.467 375.610,116.400 375.635,116.400 376.371 M118.028 377.900 C 118.008 378.538,118.229 378.800,118.786 378.800 C 119.218 378.800,119.765 379.160,120.000 379.600 C 120.235 380.040,120.827 380.397,121.314 380.394 C 121.953 380.389,122.051 380.293,121.666 380.049 C 121.372 379.863,121.159 379.567,121.193 379.391 C 121.227 379.215,120.702 378.838,120.027 378.555 C 119.352 378.271,118.787 378.165,118.772 378.319 C 118.756 378.474,118.589 378.240,118.400 377.800 C 118.072 377.037,118.055 377.041,118.028 377.900 M122.800 381.124 C 122.800 381.715,123.045 382.000,123.553 382.000 C 123.970 382.000,124.400 382.357,124.516 382.800 C 124.671 383.394,125.062 383.600,126.029 383.600 C 127.067 383.600,127.477 383.029,126.467 382.990 C 126.020 382.972,123.832 381.495,123.300 380.852 C 122.868 380.330,122.800 380.367,122.800 381.124 "
              stroke="none" fill="#67daff" fill-rule="evenodd"></path>
        <path id="path2"
              d="M307.480 101.053 C 307.326 101.207,307.200 111.814,307.200 124.624 C 307.200 144.006,307.108 147.950,306.651 148.125 C 305.942 148.397,305.640 150.156,305.558 154.490 C 305.521 156.410,305.336 157.884,305.145 157.766 C 304.623 157.444,304.000 159.425,304.000 161.406 C 304.000 162.581,303.793 163.276,303.375 163.510 C 302.742 163.864,302.486 164.631,302.431 166.343 C 302.409 166.995,302.221 167.217,301.820 167.063 C 301.447 166.920,301.315 167.033,301.448 167.380 C 301.561 167.676,301.462 168.038,301.227 168.183 C 300.992 168.328,300.800 168.892,300.800 169.436 C 300.800 169.980,300.541 170.524,300.224 170.646 C 299.908 170.767,299.538 171.373,299.402 171.993 C 299.266 172.612,298.846 173.199,298.469 173.298 C 298.068 173.403,297.747 173.927,297.695 174.565 C 297.597 175.739,296.671 176.938,296.214 176.481 C 296.060 176.326,295.970 176.380,296.014 176.600 C 296.233 177.685,295.869 178.424,294.424 179.826 C 293.558 180.667,292.956 181.545,293.088 181.777 C 293.220 182.010,293.188 182.074,293.017 181.919 C 292.592 181.537,291.600 182.584,291.600 183.414 C 291.600 183.847,291.386 184.004,291.000 183.855 C 290.665 183.727,290.400 183.845,290.400 184.123 C 290.400 184.674,288.033 186.944,287.400 187.001 C 287.180 187.020,287.044 187.249,287.097 187.509 C 287.150 187.770,286.650 188.264,285.984 188.608 C 285.318 188.952,284.883 189.411,285.017 189.627 C 285.150 189.843,285.111 189.994,284.930 189.963 C 284.053 189.810,283.177 190.039,283.380 190.368 C 283.720 190.918,282.465 192.000,281.788 191.740 C 281.432 191.603,281.200 191.751,281.200 192.114 C 281.200 192.672,280.779 192.990,279.800 193.173 C 279.580 193.214,279.271 193.597,279.113 194.024 C 278.916 194.556,278.448 194.800,277.627 194.800 C 276.826 194.800,276.282 195.073,275.987 195.624 C 275.745 196.077,275.243 196.390,274.873 196.318 C 274.503 196.247,273.840 196.602,273.400 197.107 C 272.934 197.642,272.073 198.062,271.339 198.113 C 270.645 198.161,270.149 198.316,270.237 198.458 C 270.462 198.825,269.209 199.327,267.800 199.434 C 267.140 199.484,266.465 199.542,266.300 199.562 C 266.135 199.583,266.000 199.870,266.000 200.200 C 266.000 200.647,265.489 200.813,264.000 200.850 C 262.900 200.878,261.820 200.945,261.600 201.000 C 261.380 201.055,261.009 201.123,260.776 201.150 C 260.543 201.178,260.465 201.381,260.602 201.603 C 260.986 202.224,260.159 202.369,255.301 202.527 C 251.823 202.640,250.637 202.824,250.070 203.337 C 249.395 203.947,245.089 204.000,195.769 204.005 C 141.849 204.011,140.400 204.038,140.400 205.047 C 140.400 205.430,139.878 205.602,138.700 205.605 C 136.404 205.613,135.214 205.972,135.450 206.586 C 135.586 206.942,135.034 207.153,133.608 207.290 C 132.369 207.409,131.382 207.742,131.086 208.142 C 130.819 208.503,130.114 208.837,129.519 208.885 C 128.924 208.932,128.518 209.051,128.616 209.149 C 128.991 209.524,127.859 210.400,127.000 210.400 C 126.504 210.400,125.851 210.705,125.549 211.077 C 125.081 211.653,125.083 211.703,125.562 211.415 C 125.943 211.185,126.032 211.225,125.838 211.538 C 125.681 211.792,124.903 212.000,124.110 212.000 C 123.316 212.000,122.785 212.118,122.930 212.263 C 123.293 212.626,122.394 213.644,121.952 213.370 C 121.755 213.249,121.479 213.449,121.339 213.815 C 120.994 214.713,119.084 216.613,118.659 216.480 C 118.268 216.357,116.800 217.940,116.800 218.485 C 116.800 218.684,116.589 218.717,116.332 218.558 C 116.018 218.364,115.947 218.486,116.118 218.930 C 116.257 219.293,116.243 219.571,116.086 219.548 C 115.227 219.420,114.851 219.669,115.065 220.224 C 115.223 220.636,115.027 220.920,114.489 221.061 C 114.041 221.178,113.584 221.617,113.474 222.037 C 113.365 222.457,112.988 222.800,112.637 222.800 C 112.228 222.800,112.000 223.150,112.000 223.777 C 112.000 224.527,111.821 224.720,111.227 224.605 C 110.710 224.506,110.455 224.679,110.456 225.128 C 110.459 226.163,110.192 227.145,109.814 227.488 C 109.624 227.661,109.624 227.532,109.813 227.200 C 110.107 226.683,110.060 226.676,109.477 227.149 C 109.105 227.451,108.800 228.086,108.800 228.560 C 108.800 229.034,108.440 229.730,108.000 230.107 C 107.560 230.484,107.200 231.077,107.200 231.425 C 107.200 232.208,106.196 233.263,105.814 232.881 C 105.660 232.726,105.570 232.780,105.614 233.000 C 105.932 234.577,105.548 237.266,105.033 237.068 C 104.323 236.795,104.000 237.608,104.000 239.671 C 104.000 240.646,103.679 241.727,103.184 242.423 C 102.083 243.968,102.099 352.913,103.200 353.609 C 103.530 353.817,103.620 353.993,103.400 354.000 C 103.180 354.007,103.224 354.155,103.498 354.329 C 103.772 354.502,104.036 355.130,104.085 355.722 C 104.134 356.315,104.360 356.803,104.587 356.806 C 104.814 356.809,104.730 356.987,104.400 357.200 C 104.070 357.413,103.992 357.591,104.226 357.594 C 105.007 357.605,106.433 360.607,105.908 361.132 C 105.551 361.489,105.611 361.600,106.163 361.600 C 106.652 361.600,106.809 361.801,106.647 362.221 C 106.516 362.562,106.574 362.740,106.776 362.615 C 107.255 362.319,107.735 363.845,107.367 364.496 C 107.139 364.900,107.190 364.900,107.621 364.500 C 108.382 363.794,108.932 363.879,108.634 364.657 C 108.437 365.170,108.499 365.216,108.917 364.869 C 109.349 364.510,109.431 364.692,109.343 365.812 L 109.234 367.200 110.092 366.400 C 110.565 365.960,111.142 365.603,111.375 365.606 C 111.609 365.609,111.560 365.764,111.266 365.950 C 110.837 366.223,110.856 366.336,111.366 366.532 C 112.307 366.893,113.200 366.418,113.200 365.557 C 113.200 364.940,113.497 364.800,114.800 364.800 C 116.133 364.800,116.400 364.667,116.400 364.000 C 116.400 363.467,116.667 363.200,117.200 363.200 C 117.644 363.200,118.000 362.933,118.000 362.600 C 118.000 362.267,118.356 362.000,118.800 362.000 C 119.333 362.000,119.600 361.733,119.600 361.200 C 119.600 360.533,119.867 360.400,121.200 360.400 C 122.533 360.400,122.800 360.267,122.800 359.600 C 122.800 359.067,123.067 358.800,123.600 358.800 C 124.133 358.800,124.400 358.533,124.400 358.000 C 124.400 357.333,124.667 357.200,126.000 357.200 C 127.333 357.200,127.600 357.067,127.600 356.400 C 127.600 355.867,127.867 355.600,128.400 355.600 C 128.933 355.600,129.200 355.333,129.200 354.800 C 129.200 354.152,129.467 354.000,130.600 354.000 C 131.733 354.000,132.000 353.848,132.000 353.200 C 132.000 352.667,132.267 352.400,132.800 352.400 C 133.333 352.400,133.600 352.133,133.600 351.600 C 133.600 351.067,133.867 350.800,134.400 350.800 C 134.933 350.800,135.200 350.533,135.200 350.000 C 135.200 349.333,135.467 349.200,136.800 349.200 C 138.133 349.200,138.400 349.067,138.400 348.400 C 138.400 347.867,138.667 347.600,139.200 347.600 C 139.733 347.600,140.000 347.333,140.000 346.800 C 140.000 346.133,140.267 346.000,141.600 346.000 C 142.756 346.000,143.200 345.833,143.200 345.400 C 143.200 345.067,143.556 344.800,144.000 344.800 C 144.533 344.800,144.800 344.533,144.800 344.000 C 144.800 343.556,145.067 343.200,145.400 343.200 C 145.733 343.200,146.000 342.844,146.000 342.400 C 146.000 341.733,146.267 341.600,147.600 341.600 C 148.933 341.600,149.200 341.467,149.200 340.800 C 149.200 340.267,149.467 340.000,150.000 340.000 C 150.533 340.000,150.800 339.733,150.800 339.200 C 150.800 338.533,151.067 338.400,152.400 338.400 C 153.733 338.400,154.000 338.267,154.000 337.600 C 154.000 337.067,154.267 336.800,154.800 336.800 C 155.333 336.800,155.600 336.533,155.600 336.000 C 155.600 335.333,155.867 335.200,157.200 335.200 C 158.533 335.200,158.800 335.067,158.800 334.400 C 158.800 333.867,159.067 333.600,159.600 333.600 C 160.133 333.600,160.400 333.333,160.400 332.800 C 160.400 332.267,160.667 332.000,161.200 332.000 C 161.733 332.000,162.000 331.733,162.000 331.200 C 162.000 330.552,162.267 330.400,163.400 330.400 C 164.378 330.400,164.800 330.219,164.800 329.800 C 164.800 329.467,165.156 329.200,165.600 329.200 C 166.133 329.200,166.400 328.933,166.400 328.400 C 166.400 327.733,166.667 327.600,168.000 327.600 C 169.333 327.600,169.600 327.467,169.600 326.800 C 169.600 326.267,169.867 326.000,170.400 326.000 C 170.933 326.000,171.200 325.733,171.200 325.200 C 171.200 324.667,171.467 324.400,172.000 324.400 C 172.533 324.400,172.800 324.133,172.800 323.600 C 172.800 322.933,173.067 322.800,174.400 322.800 C 175.733 322.800,176.000 322.667,176.000 322.000 C 176.000 321.467,176.267 321.200,176.800 321.200 C 177.333 321.200,177.600 320.933,177.600 320.400 C 177.600 319.752,177.867 319.600,179.000 319.600 C 180.133 319.600,180.400 319.448,180.400 318.800 C 180.400 318.267,180.667 318.000,181.200 318.000 C 181.733 318.000,182.000 317.733,182.000 317.200 C 182.000 316.533,182.267 316.400,183.600 316.400 C 184.933 316.400,185.200 316.267,185.200 315.600 C 185.200 315.067,185.467 314.800,186.000 314.800 C 186.533 314.800,186.800 314.533,186.800 314.000 C 186.800 313.467,187.067 313.200,187.600 313.200 C 188.044 313.200,188.400 312.933,188.400 312.600 C 188.400 312.167,188.844 312.000,190.000 312.000 C 191.333 312.000,191.600 311.867,191.600 311.200 C 191.600 310.667,191.867 310.400,192.400 310.400 C 192.933 310.400,193.200 310.133,193.200 309.600 C 193.200 308.952,193.467 308.800,194.600 308.800 C 195.733 308.800,196.000 308.648,196.000 308.000 C 196.000 307.423,196.267 307.200,196.955 307.200 C 198.015 307.200,198.258 306.517,198.728 302.200 L 198.990 299.800 199.198 303.200 L 199.406 306.600 199.755 302.600 C 200.261 296.799,200.260 296.800,203.310 296.800 C 204.793 296.800,206.046 296.594,206.337 296.303 C 206.611 296.029,208.042 295.681,209.517 295.528 C 213.872 295.077,214.800 294.801,214.800 293.955 C 214.800 293.341,215.099 293.200,216.400 293.200 C 217.733 293.200,218.000 293.067,218.000 292.400 C 218.000 291.867,218.267 291.600,218.800 291.600 C 219.333 291.600,219.600 291.333,219.600 290.800 C 219.600 290.133,219.867 290.000,221.200 290.000 C 222.533 290.000,222.800 289.867,222.800 289.200 C 222.800 288.667,223.067 288.400,223.600 288.400 C 224.133 288.400,224.400 288.133,224.400 287.600 C 224.400 287.067,224.667 286.800,225.200 286.800 C 225.733 286.800,226.000 286.533,226.000 286.000 C 226.000 285.333,226.267 285.200,227.600 285.200 C 228.933 285.200,229.200 285.067,229.200 284.400 C 229.200 283.956,229.467 283.600,229.800 283.600 C 230.133 283.600,230.400 283.244,230.400 282.800 C 230.400 282.133,230.667 282.000,232.000 282.000 C 233.333 282.000,233.600 281.867,233.600 281.200 C 233.600 280.667,233.867 280.400,234.400 280.400 C 234.844 280.400,235.200 280.133,235.200 279.800 C 235.200 279.367,235.644 279.200,236.800 279.200 C 238.133 279.200,238.400 279.067,238.400 278.400 C 238.400 277.867,238.667 277.600,239.200 277.600 C 239.733 277.600,240.000 277.333,240.000 276.800 C 240.000 276.267,240.267 276.000,240.800 276.000 C 241.333 276.000,241.600 275.733,241.600 275.200 C 241.600 274.533,241.867 274.400,243.200 274.400 C 244.533 274.400,244.800 274.267,244.800 273.600 C 244.800 273.156,245.067 272.800,245.400 272.800 C 245.733 272.800,246.000 272.444,246.000 272.000 C 246.000 271.333,246.267 271.200,247.600 271.200 C 248.933 271.200,249.200 271.067,249.200 270.400 C 249.200 269.867,249.467 269.600,250.000 269.600 C 250.533 269.600,250.800 269.333,250.800 268.800 C 250.800 268.267,251.067 268.000,251.600 268.000 C 252.133 268.000,252.400 267.733,252.400 267.200 C 252.400 266.533,252.667 266.400,254.000 266.400 C 255.333 266.400,255.600 266.267,255.600 265.600 C 255.600 265.067,255.867 264.800,256.400 264.800 C 256.933 264.800,257.200 264.533,257.200 264.000 C 257.200 263.333,257.467 263.200,258.800 263.200 C 259.956 263.200,260.400 263.033,260.400 262.600 C 260.400 262.267,260.756 262.000,261.200 262.000 C 261.733 262.000,262.000 261.733,262.000 261.200 C 262.000 260.552,262.267 260.400,263.400 260.400 C 264.533 260.400,264.800 260.248,264.800 259.600 C 264.800 259.067,265.067 258.800,265.600 258.800 C 266.133 258.800,266.400 258.533,266.400 258.000 C 266.400 257.467,266.667 257.200,267.200 257.200 C 267.733 257.200,268.000 256.933,268.000 256.400 C 268.000 255.733,268.267 255.600,269.600 255.600 C 270.933 255.600,271.200 255.467,271.200 254.800 C 271.200 254.267,271.467 254.000,272.000 254.000 C 272.533 254.000,272.800 253.733,272.800 253.200 C 272.800 252.533,273.067 252.400,274.400 252.400 C 275.733 252.400,276.000 252.267,276.000 251.600 C 276.000 251.067,276.267 250.800,276.800 250.800 C 277.333 250.800,277.600 250.533,277.600 250.000 C 277.600 249.352,277.867 249.200,279.000 249.200 C 280.133 249.200,280.400 249.048,280.400 248.400 C 280.400 247.867,280.667 247.600,281.200 247.600 C 281.733 247.600,282.000 247.333,282.000 246.800 C 282.000 246.267,282.267 246.000,282.800 246.000 C 283.244 246.000,283.600 245.733,283.600 245.400 C 283.600 244.967,284.044 244.800,285.200 244.800 C 286.533 244.800,286.800 244.667,286.800 244.000 C 286.800 243.467,287.067 243.200,287.600 243.200 C 288.133 243.200,288.400 242.933,288.400 242.400 C 288.400 241.733,288.667 241.600,290.000 241.600 C 291.333 241.600,291.600 241.467,291.600 240.800 C 291.600 240.267,291.867 240.000,292.400 240.000 C 292.933 240.000,293.200 239.733,293.200 239.200 C 293.200 238.667,293.467 238.400,294.000 238.400 C 294.533 238.400,294.800 238.133,294.800 237.600 C 294.800 236.952,295.067 236.800,296.200 236.800 C 297.333 236.800,297.600 236.648,297.600 236.000 C 297.600 235.467,297.867 235.200,298.400 235.200 C 298.933 235.200,299.200 234.933,299.200 234.400 C 299.200 233.733,299.467 233.600,300.800 233.600 C 302.133 233.600,302.400 233.467,302.400 232.800 C 302.400 232.267,302.667 232.000,303.200 232.000 C 303.733 232.000,304.000 231.733,304.000 231.200 C 304.000 230.533,304.267 230.400,305.600 230.400 C 306.756 230.400,307.200 230.233,307.200 229.800 C 307.200 229.467,307.556 229.200,308.000 229.200 C 308.533 229.200,308.800 228.933,308.800 228.400 C 308.800 227.867,309.067 227.600,309.600 227.600 C 310.133 227.600,310.400 227.333,310.400 226.800 C 310.400 226.152,310.667 226.000,311.800 226.000 C 312.933 226.000,313.200 225.848,313.200 225.200 C 313.200 224.667,313.467 224.400,314.000 224.400 C 314.533 224.400,314.800 224.133,314.800 223.600 C 314.800 222.933,315.067 222.800,316.400 222.800 C 317.733 222.800,318.000 222.667,318.000 222.000 C 318.000 221.467,318.267 221.200,318.800 221.200 C 319.333 221.200,319.600 220.933,319.600 220.400 C 319.600 219.867,319.867 219.600,320.400 219.600 C 320.933 219.600,321.200 219.333,321.200 218.800 C 321.200 218.133,321.467 218.000,322.800 218.000 C 324.133 218.000,324.400 217.867,324.400 217.200 C 324.400 216.667,324.667 216.400,325.200 216.400 C 325.733 216.400,326.000 216.133,326.000 215.600 C 326.000 214.933,326.267 214.800,327.600 214.800 C 328.933 214.800,329.200 214.667,329.200 214.000 C 329.200 213.556,329.467 213.200,329.800 213.200 C 330.130 213.200,330.400 212.930,330.400 212.600 C 330.400 212.167,330.844 212.000,332.000 212.000 C 333.333 212.000,333.600 211.867,333.600 211.200 C 333.600 210.667,333.867 210.400,334.400 210.400 C 334.933 210.400,335.200 210.133,335.200 209.600 C 335.200 209.067,335.467 208.800,336.000 208.800 C 336.533 208.800,336.800 208.533,336.800 208.000 C 336.800 207.333,337.067 207.200,338.400 207.200 C 339.733 207.200,340.000 207.067,340.000 206.400 C 340.000 205.867,340.267 205.600,340.800 205.600 C 341.333 205.600,341.600 205.333,341.600 204.800 C 341.600 204.133,341.867 204.000,343.200 204.000 C 344.533 204.000,344.800 203.867,344.800 203.200 C 344.800 202.756,345.067 202.400,345.400 202.400 C 345.733 202.400,346.000 202.044,346.000 201.600 C 346.000 201.067,346.267 200.800,346.800 200.800 C 347.333 200.800,347.600 200.533,347.600 200.000 C 347.600 199.333,347.867 199.200,349.200 199.200 C 350.533 199.200,350.800 199.067,350.800 198.400 C 350.800 197.867,351.067 197.600,351.600 197.600 C 352.133 197.600,352.400 197.333,352.400 196.800 C 352.400 196.133,352.667 196.000,354.000 196.000 C 355.156 196.000,355.600 195.833,355.600 195.400 C 355.600 195.067,355.956 194.800,356.400 194.800 C 356.933 194.800,357.200 194.533,357.200 194.000 C 357.200 193.333,357.467 193.200,358.800 193.200 C 360.133 193.200,360.400 193.067,360.400 192.400 C 360.400 191.867,360.667 191.600,361.200 191.600 C 361.733 191.600,362.000 191.333,362.000 190.800 C 362.000 190.356,362.267 190.000,362.600 190.000 C 362.933 190.000,363.200 189.644,363.200 189.200 C 363.200 188.533,363.467 188.400,364.800 188.400 C 366.133 188.400,366.400 188.267,366.400 187.600 C 366.400 187.067,366.667 186.800,367.200 186.800 C 367.733 186.800,368.000 186.533,368.000 186.000 C 368.000 185.333,368.267 185.200,369.600 185.200 C 370.933 185.200,371.200 185.067,371.200 184.400 C 371.200 183.867,371.467 183.600,372.000 183.600 C 372.533 183.600,372.800 183.333,372.800 182.800 C 372.800 182.267,373.067 182.000,373.600 182.000 C 374.133 182.000,374.400 181.733,374.400 181.200 C 374.400 180.533,374.667 180.400,376.000 180.400 C 377.156 180.400,377.600 180.233,377.600 179.800 C 377.600 179.467,377.956 179.200,378.400 179.200 C 378.933 179.200,379.200 178.933,379.200 178.400 C 379.200 177.752,379.467 177.600,380.600 177.600 C 381.733 177.600,382.000 177.448,382.000 176.800 C 382.000 176.267,382.267 176.000,382.800 176.000 C 383.333 176.000,383.600 175.733,383.600 175.200 C 383.600 174.533,383.867 174.400,385.200 174.400 C 386.533 174.400,386.800 174.267,386.800 173.600 C 386.800 173.067,387.067 172.800,387.600 172.800 C 388.133 172.800,388.400 172.533,388.400 172.000 C 388.400 171.467,388.667 171.200,389.200 171.200 C 389.733 171.200,390.000 170.933,390.000 170.400 C 390.000 169.733,390.267 169.600,391.600 169.600 C 392.933 169.600,393.200 169.467,393.200 168.800 C 393.200 168.267,393.467 168.000,394.000 168.000 C 394.587 168.000,394.800 167.733,394.800 167.000 C 394.800 165.631,394.826 165.499,395.254 164.700 C 395.498 164.243,395.484 164.000,395.214 164.000 C 394.986 164.000,394.800 163.730,394.800 163.400 C 394.800 163.070,395.021 162.845,395.291 162.900 C 396.011 163.047,396.173 161.241,395.463 160.969 C 394.948 160.771,394.957 160.591,395.533 159.588 C 396.097 158.606,396.112 158.358,395.639 157.917 C 395.235 157.542,395.159 157.536,395.362 157.895 C 395.551 158.230,395.436 158.312,395.011 158.149 C 394.523 157.962,394.484 157.781,394.839 157.353 C 395.192 156.928,395.171 156.800,394.749 156.800 C 394.324 156.800,394.221 156.120,394.293 153.793 C 394.372 151.247,394.264 150.664,393.589 149.989 C 392.948 149.348,392.781 148.606,392.735 146.196 C 392.686 143.610,392.581 143.200,391.965 143.200 C 391.367 143.200,391.264 142.880,391.326 141.218 C 391.389 139.530,391.271 139.178,390.526 138.839 C 389.945 138.574,389.642 138.066,389.622 137.320 C 389.562 135.130,389.459 134.800,388.833 134.794 C 388.278 134.789,388.274 134.740,388.800 134.400 C 389.320 134.064,389.123 133.850,388.369 133.930 C 388.242 133.943,388.159 133.308,388.185 132.518 C 388.221 131.449,388.050 131.033,387.516 130.894 C 386.889 130.730,386.529 129.317,386.753 127.900 C 386.779 127.735,386.440 127.600,386.000 127.600 C 385.560 127.600,385.178 127.330,385.150 127.000 C 385.048 125.774,384.986 125.609,384.341 124.857 C 383.979 124.434,383.560 123.528,383.410 122.844 C 383.259 122.160,382.884 121.600,382.576 121.600 C 382.268 121.600,381.900 121.139,381.758 120.576 C 381.595 119.927,381.300 119.630,380.951 119.764 C 380.608 119.895,380.400 119.701,380.400 119.249 C 380.400 118.850,380.040 118.198,379.600 117.800 C 379.160 117.402,378.800 116.755,378.800 116.362 C 378.800 115.653,378.170 115.035,377.400 114.988 C 377.180 114.975,377.046 114.743,377.103 114.473 C 377.160 114.203,376.753 113.810,376.200 113.600 C 375.647 113.390,375.240 112.989,375.297 112.709 C 375.354 112.429,375.201 112.236,374.957 112.281 C 374.714 112.325,374.278 111.920,373.990 111.381 C 373.701 110.841,373.225 110.400,372.932 110.400 C 372.640 110.400,372.400 110.085,372.399 109.700 C 372.399 109.199,372.037 108.975,371.129 108.911 C 369.881 108.823,369.063 108.145,369.450 107.519 C 369.558 107.344,368.962 107.186,368.124 107.168 C 367.286 107.151,366.835 107.043,367.121 106.928 C 367.758 106.673,366.547 105.633,365.589 105.613 C 365.253 105.606,364.670 105.240,364.293 104.800 C 363.806 104.232,363.113 104.000,361.900 104.000 C 360.626 104.000,360.066 103.797,359.693 103.200 C 359.300 102.570,358.760 102.400,357.159 102.400 C 355.486 102.400,355.089 102.263,354.923 101.628 C 354.716 100.836,308.260 100.273,307.480 101.053 "
              stroke="none" fill="#67daff" fill-rule="evenodd"></path>
        <path id="path3"
              d="M169.600 0.400 C 169.600 0.649,167.321 0.800,163.563 0.800 C 157.862 0.800,157.513 0.845,157.316 1.600 C 157.122 2.341,156.770 2.400,152.557 2.400 C 148.440 2.400,147.959 2.476,147.507 3.200 C 147.072 3.896,146.574 4.000,143.666 4.000 C 140.662 4.000,140.304 4.081,140.116 4.800 C 139.932 5.502,139.570 5.600,137.167 5.600 C 134.838 5.600,134.364 5.720,134.000 6.400 C 133.687 6.985,133.162 7.200,132.048 7.200 C 131.032 7.200,130.283 7.467,129.800 8.000 C 129.315 8.536,128.568 8.800,127.538 8.800 C 126.267 8.800,126.000 8.939,126.000 9.600 C 126.000 10.267,125.733 10.400,124.400 10.400 C 123.067 10.400,122.800 10.533,122.800 11.200 C 122.800 11.849,122.533 12.000,121.387 12.000 C 120.545 12.000,119.888 12.226,119.760 12.561 C 119.641 12.869,118.927 13.237,118.172 13.379 C 117.356 13.532,116.800 13.872,116.800 14.218 C 116.800 14.538,116.562 14.800,116.272 14.800 C 115.982 14.800,115.353 15.250,114.875 15.800 C 114.397 16.350,113.824 16.800,113.603 16.800 C 113.381 16.800,113.200 17.070,113.200 17.400 C 113.200 17.730,112.930 18.000,112.600 18.000 C 112.267 18.000,112.000 18.356,112.000 18.800 C 112.000 19.333,111.733 19.600,111.200 19.600 C 110.683 19.600,110.400 19.867,110.400 20.353 C 110.400 20.770,110.043 21.200,109.600 21.316 C 108.987 21.476,108.800 21.862,108.800 22.963 C 108.800 24.133,108.652 24.400,108.000 24.400 C 107.503 24.400,107.200 24.667,107.200 25.104 C 107.200 25.491,106.840 26.032,106.400 26.307 C 105.778 26.696,105.600 27.240,105.600 28.757 C 105.600 30.370,105.462 30.743,104.800 30.916 C 104.098 31.099,104.000 31.462,104.000 33.866 C 104.000 36.178,103.874 36.686,103.197 37.109 C 102.405 37.604,102.396 37.956,102.497 64.505 L 102.600 91.400 150.100 91.502 L 197.600 91.603 197.600 96.202 L 197.600 100.800 126.400 100.800 C 55.733 100.800,55.194 100.806,54.400 101.600 C 53.765 102.235,53.067 102.400,51.014 102.400 C 48.838 102.400,48.360 102.527,48.000 103.200 C 47.652 103.850,47.162 104.000,45.386 104.000 C 43.467 104.000,43.200 104.098,43.200 104.800 C 43.200 105.467,42.933 105.600,41.600 105.600 C 40.267 105.600,40.000 105.733,40.000 106.400 C 40.000 107.082,39.733 107.200,38.196 107.200 C 36.887 107.200,36.204 107.420,35.707 108.000 C 35.330 108.440,34.702 108.800,34.311 108.800 C 33.867 108.800,33.600 109.100,33.600 109.600 C 33.600 110.248,33.333 110.400,32.200 110.400 C 31.067 110.400,30.800 110.552,30.800 111.200 C 30.800 111.733,30.533 112.000,30.000 112.000 C 29.556 112.000,29.200 112.267,29.200 112.600 C 29.200 112.930,28.922 113.200,28.583 113.200 C 28.243 113.200,27.480 113.650,26.887 114.200 C 26.293 114.750,25.593 115.200,25.331 115.200 C 25.069 115.200,24.740 115.560,24.600 116.000 C 24.460 116.440,24.083 116.800,23.760 116.800 C 23.438 116.800,23.071 117.070,22.945 117.400 C 22.818 117.730,22.447 118.000,22.120 118.000 C 21.793 118.000,21.435 118.343,21.326 118.763 C 21.216 119.183,20.783 119.616,20.363 119.726 C 19.943 119.835,19.600 120.274,19.600 120.701 C 19.600 121.127,19.240 121.802,18.800 122.200 C 18.360 122.598,18.000 123.256,18.000 123.662 C 18.000 124.071,17.715 124.400,17.363 124.400 C 17.012 124.400,16.631 124.760,16.516 125.200 C 16.401 125.640,16.070 126.000,15.780 126.000 C 15.491 126.000,15.130 126.391,14.978 126.869 C 14.826 127.347,14.364 128.101,13.951 128.545 C 13.538 128.988,13.200 129.658,13.200 130.033 C 13.200 130.408,12.930 130.818,12.600 130.945 C 12.253 131.078,12.000 131.676,12.000 132.360 C 12.000 133.195,11.763 133.621,11.200 133.800 C 10.612 133.987,10.400 134.405,10.400 135.380 C 10.400 136.370,10.197 136.760,9.600 136.916 C 8.920 137.094,8.800 137.462,8.800 139.363 C 8.800 141.333,8.705 141.600,8.000 141.600 C 7.295 141.600,7.200 141.867,7.200 143.837 C 7.200 145.738,7.080 146.106,6.400 146.284 C 5.693 146.469,5.600 146.830,5.600 149.400 C 5.600 151.970,5.507 152.331,4.800 152.516 C 4.071 152.707,4.000 153.062,4.000 156.516 C 4.000 159.970,3.929 160.325,3.200 160.516 C 2.475 160.706,2.400 161.062,2.400 164.316 C 2.400 167.570,2.325 167.926,1.600 168.116 C 0.870 168.307,0.800 168.662,0.800 172.163 C 0.800 174.454,0.639 176.000,0.400 176.000 C 0.138 176.000,0.000 183.733,0.000 198.400 C 0.000 213.067,0.138 220.800,0.400 220.800 C 0.640 220.800,0.800 222.379,0.800 224.738 C 0.800 228.168,0.903 228.769,1.600 229.400 C 2.278 230.014,2.400 230.632,2.400 233.466 C 2.400 236.313,2.518 236.909,3.200 237.493 C 3.887 238.081,4.000 238.673,4.000 241.686 C 4.000 244.760,4.099 245.255,4.800 245.693 C 5.471 246.112,5.600 246.626,5.600 248.882 C 5.600 251.162,5.722 251.637,6.400 252.000 C 7.048 252.347,7.200 252.838,7.200 254.587 C 7.200 256.395,7.330 256.787,8.000 257.000 C 8.660 257.210,8.800 257.605,8.800 259.264 C 8.800 260.938,8.934 261.310,9.600 261.484 C 10.227 261.648,10.400 262.030,10.400 263.247 C 10.400 264.533,10.537 264.800,11.200 264.800 C 11.867 264.800,12.000 265.067,12.000 266.400 C 12.000 267.556,12.167 268.000,12.600 268.000 C 13.017 268.000,13.200 268.419,13.200 269.373 C 13.200 270.369,13.408 270.812,13.958 270.987 C 14.428 271.136,14.815 271.755,14.976 272.614 C 15.131 273.441,15.471 274.000,15.818 274.000 C 16.138 274.000,16.400 274.360,16.400 274.800 C 16.400 275.333,16.667 275.600,17.200 275.600 C 17.779 275.600,18.000 275.867,18.000 276.567 C 18.000 277.917,18.394 278.800,18.996 278.800 C 19.277 278.800,19.601 279.160,19.716 279.600 C 19.831 280.040,20.212 280.400,20.563 280.400 C 20.933 280.400,21.200 280.735,21.200 281.200 C 21.200 281.733,21.467 282.000,22.000 282.000 C 22.533 282.000,22.800 282.267,22.800 282.800 C 22.800 283.333,23.067 283.600,23.600 283.600 C 24.133 283.600,24.400 283.867,24.400 284.400 C 24.400 284.933,24.667 285.200,25.200 285.200 C 25.733 285.200,26.000 285.467,26.000 286.000 C 26.000 286.533,26.267 286.800,26.800 286.800 C 27.244 286.800,27.600 287.067,27.600 287.400 C 27.600 287.730,27.799 288.000,28.042 288.000 C 28.285 288.000,29.019 288.450,29.673 289.000 C 30.327 289.550,31.078 290.000,31.342 290.000 C 31.606 290.000,32.130 290.360,32.507 290.800 C 32.884 291.240,33.644 291.600,34.196 291.600 C 34.822 291.600,35.200 291.826,35.200 292.200 C 35.200 292.633,35.644 292.800,36.800 292.800 C 38.133 292.800,38.400 292.933,38.400 293.600 C 38.400 294.309,38.667 294.400,40.753 294.400 C 42.770 294.400,43.137 294.514,43.316 295.200 C 43.510 295.942,43.862 296.000,48.163 296.000 C 51.860 296.000,52.800 296.113,52.800 296.557 C 52.800 297.550,53.799 297.600,73.433 297.600 L 92.800 297.600 92.800 271.096 C 92.800 245.026,92.813 244.584,93.600 244.093 C 94.274 243.672,94.400 243.160,94.400 240.843 C 94.400 238.430,94.498 238.068,95.200 237.884 C 95.868 237.709,96.000 237.338,96.000 235.637 C 96.000 234.133,96.209 233.391,96.800 232.800 C 97.333 232.267,97.600 231.467,97.600 230.400 C 97.600 229.067,97.733 228.800,98.400 228.800 C 98.939 228.800,99.200 228.533,99.200 227.983 C 99.200 227.534,99.560 226.780,100.000 226.308 C 100.440 225.836,100.800 225.123,100.800 224.725 C 100.800 224.326,101.051 224.000,101.357 224.000 C 101.964 224.000,102.400 223.161,102.400 221.994 C 102.400 221.587,102.760 221.140,103.200 221.000 C 103.640 220.860,104.000 220.578,104.000 220.373 C 104.000 220.168,104.283 219.685,104.629 219.300 C 106.360 217.374,107.199 216.134,107.200 215.500 C 107.200 215.115,107.470 214.800,107.800 214.800 C 108.133 214.800,108.400 214.444,108.400 214.000 C 108.400 213.467,108.667 213.200,109.200 213.200 C 109.733 213.200,110.000 212.933,110.000 212.400 C 110.000 211.867,110.267 211.600,110.800 211.600 C 111.333 211.600,111.600 211.333,111.600 210.800 C 111.600 210.267,111.867 210.000,112.400 210.000 C 112.933 210.000,113.200 209.733,113.200 209.200 C 113.200 208.552,113.467 208.400,114.600 208.400 C 115.370 208.400,116.000 208.216,116.000 207.991 C 116.000 207.767,116.450 207.378,117.000 207.127 C 117.550 206.877,118.000 206.451,118.000 206.182 C 118.000 205.913,118.360 205.599,118.800 205.484 C 119.240 205.369,119.600 204.988,119.600 204.637 C 119.600 204.198,119.967 204.000,120.786 204.000 C 121.562 204.000,122.120 203.724,122.400 203.200 C 122.635 202.760,123.167 202.400,123.581 202.400 C 124.760 202.400,125.600 201.966,125.600 201.357 C 125.600 201.051,125.960 200.800,126.400 200.800 C 126.840 200.800,127.560 200.440,128.000 200.000 C 128.503 199.497,129.333 199.200,130.237 199.200 C 131.338 199.200,131.724 199.013,131.884 198.400 C 132.061 197.723,132.430 197.600,134.284 197.600 C 136.138 197.600,136.507 197.477,136.684 196.800 C 136.869 196.093,137.230 196.000,139.785 196.000 C 142.168 196.000,142.803 195.859,143.400 195.200 C 144.117 194.407,144.632 194.400,199.499 194.400 C 254.538 194.400,254.876 194.395,255.084 193.600 C 255.273 192.876,255.630 192.800,258.827 192.800 C 261.388 192.800,262.448 192.650,262.680 192.254 C 262.860 191.948,263.950 191.620,265.167 191.507 C 266.431 191.389,267.517 191.054,267.773 190.705 C 268.014 190.375,268.794 189.977,269.506 189.821 C 270.218 189.664,270.800 189.301,270.800 189.013 C 270.800 188.725,271.439 188.369,272.221 188.222 C 273.003 188.076,273.742 187.696,273.864 187.378 C 273.986 187.060,274.426 186.800,274.843 186.800 C 275.333 186.800,275.600 186.518,275.600 186.000 C 275.600 185.413,275.867 185.200,276.600 185.200 C 277.150 185.200,277.929 184.871,278.331 184.469 C 278.732 184.068,279.362 183.623,279.731 183.482 C 280.099 183.341,280.400 182.949,280.400 182.613 C 280.400 182.267,280.748 182.000,281.200 182.000 C 281.733 182.000,282.000 181.733,282.000 181.200 C 282.000 180.667,282.267 180.400,282.800 180.400 C 283.333 180.400,283.600 180.133,283.600 179.600 C 283.600 179.067,283.867 178.800,284.400 178.800 C 284.933 178.800,285.200 178.533,285.200 178.000 C 285.200 177.548,285.467 177.200,285.813 177.200 C 286.149 177.200,286.541 176.899,286.682 176.531 C 286.823 176.162,287.268 175.532,287.669 175.131 C 288.071 174.729,288.400 174.061,288.400 173.647 C 288.400 173.230,288.757 172.800,289.200 172.684 C 289.679 172.559,290.000 172.138,290.000 171.637 C 290.000 171.171,290.258 170.800,290.582 170.800 C 290.928 170.800,291.268 170.244,291.421 169.428 C 291.563 168.673,291.931 167.959,292.239 167.840 C 292.574 167.712,292.800 167.055,292.800 166.213 C 292.800 165.067,292.951 164.800,293.600 164.800 C 294.309 164.800,294.400 164.533,294.400 162.447 C 294.400 160.430,294.514 160.063,295.200 159.884 C 295.905 159.700,296.000 159.338,296.000 156.837 C 296.000 154.533,296.150 153.850,296.800 153.200 C 297.592 152.408,297.600 151.867,297.600 99.196 C 297.600 46.487,297.593 45.986,296.800 45.307 C 296.147 44.748,296.000 44.127,296.000 41.925 C 296.000 39.638,295.879 39.163,295.200 38.800 C 294.566 38.461,294.400 37.962,294.400 36.400 C 294.400 34.838,294.234 34.339,293.600 34.000 C 293.160 33.765,292.800 33.218,292.800 32.786 C 292.800 32.354,292.530 32.000,292.200 32.000 C 291.781 32.000,291.600 31.578,291.600 30.600 C 291.600 29.467,291.448 29.200,290.800 29.200 C 290.221 29.200,290.000 28.933,290.000 28.233 C 290.000 26.852,289.602 26.000,288.957 26.000 C 288.651 26.000,288.400 25.713,288.400 25.363 C 288.400 25.012,288.040 24.631,287.600 24.516 C 287.157 24.400,286.800 23.970,286.800 23.553 C 286.800 23.067,286.517 22.800,286.000 22.800 C 285.467 22.800,285.200 22.533,285.200 22.000 C 285.200 21.467,284.933 21.200,284.400 21.200 C 283.960 21.200,283.600 20.938,283.600 20.618 C 283.600 19.864,281.736 18.000,280.982 18.000 C 280.662 18.000,280.400 17.640,280.400 17.200 C 280.400 16.667,280.133 16.400,279.600 16.400 C 279.135 16.400,278.800 16.133,278.800 15.763 C 278.800 15.412,278.440 15.031,278.000 14.916 C 277.560 14.801,277.200 14.477,277.200 14.196 C 277.200 13.626,276.330 13.200,275.167 13.200 C 274.745 13.200,274.400 12.930,274.400 12.600 C 274.400 12.227,274.022 12.000,273.400 12.000 C 272.667 12.000,272.400 11.787,272.400 11.200 C 272.400 10.552,272.133 10.400,271.000 10.400 C 269.867 10.400,269.600 10.248,269.600 9.600 C 269.600 8.933,269.333 8.800,268.000 8.800 C 266.667 8.800,266.400 8.667,266.400 8.000 C 266.400 7.341,266.133 7.200,264.889 7.200 C 263.873 7.200,263.153 6.938,262.693 6.400 C 262.196 5.820,261.513 5.600,260.204 5.600 C 258.667 5.600,258.400 5.482,258.400 4.800 C 258.400 4.073,258.133 4.000,255.496 4.000 C 253.026 4.000,252.518 3.881,252.093 3.200 C 251.641 2.476,251.160 2.400,247.059 2.400 C 243.032 2.400,242.443 2.310,241.800 1.600 C 241.136 0.866,240.568 0.800,234.938 0.800 C 231.113 0.800,228.800 0.649,228.800 0.400 C 228.800 0.137,218.667 0.000,199.200 0.000 C 179.733 0.000,169.600 0.137,169.600 0.400 M146.400 30.957 C 146.400 31.741,147.303 32.000,150.033 32.000 C 152.133 32.000,152.400 32.090,152.400 32.800 C 152.400 33.333,152.667 33.600,153.200 33.600 C 153.640 33.600,154.000 33.851,154.000 34.157 C 154.000 34.802,154.852 35.200,156.233 35.200 C 156.935 35.200,157.200 35.420,157.200 36.004 C 157.200 36.446,157.560 37.116,158.000 37.493 C 158.440 37.870,158.800 38.515,158.800 38.926 C 158.800 39.338,159.160 39.769,159.600 39.884 C 160.201 40.041,160.400 40.430,160.400 41.447 C 160.400 42.533,160.558 42.800,161.200 42.800 C 161.951 42.800,162.000 43.067,162.000 47.197 C 162.000 51.160,161.921 51.642,161.200 52.093 C 160.630 52.449,160.400 53.026,160.400 54.096 C 160.400 55.333,160.258 55.600,159.600 55.600 C 159.067 55.600,158.800 55.867,158.800 56.400 C 158.800 56.852,158.533 57.200,158.187 57.200 C 157.851 57.200,157.464 57.488,157.329 57.840 C 156.961 58.800,155.244 60.400,154.582 60.400 C 154.262 60.400,154.000 60.760,154.000 61.200 C 154.000 61.780,153.733 62.000,153.029 62.000 C 152.494 62.000,151.787 62.270,151.457 62.600 C 150.570 63.487,139.600 63.487,139.600 62.600 C 139.600 62.181,139.178 62.000,138.200 62.000 C 137.067 62.000,136.800 61.848,136.800 61.200 C 136.800 60.683,136.533 60.400,136.047 60.400 C 135.630 60.400,135.200 60.043,135.084 59.600 C 134.969 59.160,134.588 58.800,134.237 58.800 C 133.867 58.800,133.600 58.465,133.600 58.000 C 133.600 57.467,133.333 57.200,132.800 57.200 C 132.289 57.200,132.000 56.933,132.000 56.462 C 132.000 56.056,131.640 55.398,131.200 55.000 C 130.658 54.509,130.400 53.768,130.400 52.701 C 130.400 51.462,130.229 51.080,129.600 50.916 C 128.887 50.729,128.800 50.370,128.800 47.600 C 128.800 44.830,128.887 44.471,129.600 44.284 C 130.268 44.109,130.400 43.738,130.400 42.037 C 130.400 40.478,130.543 40.000,131.010 40.000 C 131.345 40.000,131.782 39.575,131.979 39.055 C 132.177 38.535,132.623 38.000,132.969 37.867 C 133.352 37.720,133.600 37.148,133.600 36.413 C 133.600 35.287,133.704 35.200,135.037 35.200 C 136.115 35.200,136.525 35.009,136.674 34.437 C 136.784 34.017,137.217 33.584,137.637 33.474 C 138.057 33.365,138.400 32.988,138.400 32.637 C 138.400 32.114,138.908 32.000,141.237 32.000 C 143.738 32.000,144.100 31.905,144.284 31.200 C 144.527 30.272,146.400 30.057,146.400 30.957 "
              stroke="none" fill="#67daff" fill-rule="evenodd"></path>
    </g>
</svg>