<svg xmlns="http://www.w3.org/2000/svg" width="329" height="301">
    <path class="icon__primary-shape" fill="#67daff"  d="m140.143 20.137-19.94 19.944v5.104l19.903 19.905c19.844 19.843 19.91 19.904 21.556 19.904 3.501 0 3.522-.07 3.665-11.79l.125-10.261 2.183.272c1.2.15 2.847.612 3.66 1.026.812.414 2.256.753 3.21.753 1.082 0 2.44.376 3.612 1 1.033.55 2.392 1 3.02 1 .628 0 1.62.336 2.203.748.584.41 1.512.868 2.062 1.017.55.148 1.9.697 3 1.219 1.1.523 2.45 1.157 3 1.41 1.687.775 3.621 1.902 4.328 2.522.37.324 1.122.726 1.672.893.55.167 1.45.648 2 1.069 3.33 2.548 4.141 3.122 4.413 3.122.166 0 .835.495 1.486 1.1.651.605 2.23 2 3.507 3.1 3.16 2.719 7.147 6.73 9.77 9.829 1.197 1.414 2.506 2.93 2.91 3.37.93 1.016 2.377 3.276 3.01 4.7.267.606.677 1.1.91 1.1.232 0 .79.766 1.238 1.7 1.062 2.216 2.593 5.017 3.073 5.622.208.264.591 1.14.851 1.947.26.807.72 1.673 1.021 1.923.302.25.672 1.184.822 2.074.151.89.588 1.934.973 2.319.384.384.795 1.554.913 2.599.118 1.045.594 2.414 1.06 3.042.584.793.843 1.736.843 3.08 0 1.226.352 2.665.957 3.916.848 1.754.983 2.722 1.19 8.5.128 3.586.446 7.23.706 8.1.368 1.227.364 1.945-.019 3.222-.27.903-.598 4.638-.728 8.3-.21 5.947-.335 6.845-1.17 8.417a7.95 7.95 0 0 0-.936 3.678c0 1.279-.334 2.547-1 3.8-.55 1.035-1 2.394-1 3.022 0 .627-.34 1.48-.758 1.898-.416.416-.88 1.486-1.03 2.377-.15.89-.52 1.824-.823 2.074-.3.25-.764 1.116-1.028 1.923-.263.807-1.037 2.419-1.72 3.58a470.154 470.154 0 0 0-2.24 3.86c-1.402 2.449-4.219 6.63-5.296 7.863-6.352 7.26-8.677 9.692-11.905 12.449-2.09 1.785-4.097 3.574-4.46 3.975-.363.402-1.083.913-1.6 1.137-.517.224-1.75 1.03-2.74 1.79-.99.76-2.52 1.756-3.4 2.21a61.58 61.58 0 0 0-3.2 1.809c-.88.538-2.05 1.177-2.6 1.42-.55.242-1.9.864-3 1.383-1.1.518-2.618 1.136-3.374 1.372-.756.237-1.656.674-2 .972-.344.299-1.405.64-2.357.762-.952.12-2.068.523-2.48.896-.449.407-1.84.8-3.469.982-1.496.167-3.44.668-4.32 1.114-1.345.68-2.66.845-8.246 1.035-4.393.149-7.24.433-8.4.837-1.548.538-10.44.612-75.554.626-42.41.009-74.462.169-75.356.376-3.03.703-2.844-.762-2.844 22.423v20.775l.911.91.911.912h171.378l1.8-.881c1.177-.576 3.165-1.018 5.745-1.28 2.54-.255 4.191-.62 4.635-1.021.38-.343 1.993-.787 3.586-.987 1.647-.207 3.205-.643 3.61-1.01.392-.354 1.753-.814 3.024-1.021 1.271-.207 2.64-.673 3.041-1.037.402-.363 1.56-.816 2.573-1.005 1.013-.19 2.304-.707 2.868-1.151 1.212-.953 3.712-1.164 2.953-.25-.255.308-1.126.684-1.935.835-.809.152-1.879.666-2.376 1.142a57.107 57.107 0 0 1-1.714 1.566c-1.16 1.003-1.14 4.276.032 5.338.815.737 2.166.766 41.8.87l40.958.11.024 7.09c.037 10.955.533 12.492 4.036 12.492 1.54 0 1.96-.39 21.45-19.875l19.877-19.875.006-2.524.007-2.524-20.009-20.001c-19.034-19.026-20.08-20.001-21.456-20.001-3.359 0-3.875 1.643-3.91 12.469l-.025 7.068-14.1.132c-12.596.117-14.239.207-15.4.84-1.737.95-1.645.628.6-2.103 1.045-1.272 2.8-3.514 3.9-4.983 1.1-1.47 2.405-3.136 2.9-3.705.495-.57.902-1.234.904-1.476.002-.243.632-1.252 1.401-2.242.768-.99 1.666-2.152 1.996-2.581.33-.43.6-1.001.6-1.27 0-.268.423-.996.941-1.618.518-.622 1.155-1.784 1.415-2.583.26-.798.826-1.771 1.258-2.162.432-.39.785-1.017.785-1.392s.431-1.318.96-2.095c.526-.777 1.078-1.96 1.224-2.628.147-.67.525-1.43.84-1.69.313-.261.765-1.218 1.002-2.128.237-.91.681-1.847.986-2.085.305-.237.746-1.288.98-2.334.235-1.046.761-2.562 1.17-3.368.407-.806.866-2.096 1.02-2.866.153-.77.636-2.186 1.073-3.148.437-.961.901-2.671 1.032-3.8.132-1.128.463-2.412.736-2.852.67-1.078 1.377-4.617 1.377-6.893 0-1.115.36-2.582.9-3.681 1.718-3.486 1.511-42.303-.24-44.998-.296-.455-.636-2.28-.756-4.054-.125-1.85-.564-4.068-1.029-5.2-.446-1.086-.926-2.964-1.067-4.174-.14-1.21-.538-2.633-.882-3.162-.344-.53-.88-2.053-1.19-3.386-.312-1.332-.8-2.7-1.086-3.037-.286-.338-.739-1.636-1.007-2.884-.268-1.248-.724-2.467-1.015-2.708-.29-.241-.753-1.241-1.028-2.223-.275-.982-.747-1.99-1.05-2.241-.302-.251-.55-.64-.55-.863 0-.708-3.184-6.985-3.805-7.5-.327-.272-.598-.787-.602-1.145-.004-.358-.544-1.443-1.2-2.411-.656-.968-1.193-1.975-1.193-2.238 0-.263-.36-.804-.8-1.202-.44-.398-.8-.897-.8-1.11 0-.211-.54-1-1.2-1.751-.66-.752-1.2-1.557-1.2-1.79 0-.451-.539-1.197-4-5.533a392.794 392.794 0 0 1-3.2-4.057c-2.074-2.698-3.152-3.87-8.8-9.552-3.19-3.211-6.88-6.626-8.2-7.59-1.32-.964-3.39-2.585-4.6-3.602-2.21-1.86-3.419-2.734-5.819-4.215-1.93-1.192-3.484-2.265-4.38-3.028-.44-.374-1.25-.815-1.8-.981-.55-.165-1.51-.726-2.132-1.246-.622-.52-1.449-.945-1.838-.945s-1.024-.35-1.41-.777c-.387-.428-1.207-.888-1.82-1.023-.615-.135-1.437-.598-1.827-1.03-.39-.43-1.39-.891-2.223-1.024s-1.817-.577-2.188-.986c-.37-.41-1.323-.864-2.118-1.01-.795-.146-1.868-.595-2.386-.997-.517-.403-1.595-.855-2.396-1.005-.8-.15-2.25-.695-3.219-1.211-.97-.515-2.432-.937-3.25-.937-.912 0-1.906-.33-2.573-.855-.694-.546-1.98-.958-3.554-1.14-1.357-.157-3.277-.668-4.267-1.136-1.253-.592-2.593-.854-4.406-.86-1.905-.007-3.035-.242-4.2-.877-1.283-.698-2.466-.903-6.069-1.05l-4.475-.181-.125-6.986-.125-6.986-1.122-.965c-2.775-2.384-1.814-3.146-23.937 18.979m-10.54-2.743c-.949.628-1.88.795-4.44.797-2.625.002-3.577.18-5 .938-.969.514-2.815 1.042-4.102 1.175-1.288.132-2.658.527-3.045.877-.518.469-3.992 1.362-5.485 1.41-.04.002-.367.299-.729.66-.36.36-1.499.813-2.528 1.003-1.03.19-2.322.677-2.872 1.08-.55.404-1.657.858-2.46 1.008-.803.15-1.672.529-1.932.842-.26.313-1.133.784-1.94 1.048-.807.263-1.88.8-2.387 1.193-.505.392-1.43.826-2.058.964-.627.138-1.457.6-1.844 1.028-.386.427-1.02.777-1.41.777-.389 0-1.216.423-1.838.939-.622.517-1.603 1.192-2.18 1.5-2.703 1.444-3.836 2.145-4.882 3.017-.622.519-1.317.944-1.545.944-.229 0-1.454.9-2.724 2-1.27 1.1-2.48 2-2.692 2-.21 0-.727.38-1.146.847-.419.466-1.06.96-1.427 1.1-2.64 1.005-17.46 16.15-20.796 21.253-.36.55-1.245 1.596-1.968 2.325-1.523 1.534-3.97 5.21-3.97 5.962 0 .282-.17.513-.38.513-.437 0-3.22 4.07-3.22 4.71 0 .236-.426.937-.946 1.559-.52.622-1.08 1.58-1.246 2.13-.166.55-.615 1.36-1 1.8-.384.44-.897 1.394-1.139 2.12-.243.725-.808 1.784-1.256 2.354-.448.569-.814 1.462-.814 1.985 0 .522-.359 1.257-.798 1.633-.439.376-.918 1.319-1.063 2.096-.145.777-.595 1.863-.998 2.413-.404.55-.894 1.86-1.089 2.914-.195 1.053-.659 2.252-1.033 2.665-.373.412-.814 1.753-.98 2.979-.167 1.226-.63 2.59-1.03 3.032-.474.524-.815 1.74-.982 3.506-.148 1.57-.562 3.165-.988 3.805-.504.757-.82 2.255-1.012 4.802-.195 2.58-.508 4.049-1.034 4.85-1.817 2.774-1.713 42.94.12 45.904.71 1.15.887 2.036.887 4.43 0 2.425.19 3.35 1 4.875.62 1.165 1 2.534 1 3.6 0 1.065.38 2.434 1 3.6.55 1.034 1.001 2.456 1.001 3.159.001.704.39 1.909.864 2.679.474.77 1.015 2.199 1.201 3.177.186.977.673 2.147 1.083 2.6.41.452.856 1.423.994 2.155.137.733.612 1.793 1.053 2.354.442.562.804 1.265.804 1.562 0 .696 2.35 5.309 3.234 6.352.374.44.803 1.385.954 2.1.152.714.621 1.54 1.042 1.836.422.296.975 1.133 1.23 1.86.253.729.714 1.612 1.025 1.964 1.386 1.569 2.915 3.792 2.915 4.237 0 .267.405.965.9 1.55.495.585 1.35 1.626 1.9 2.313.55.686 1.753 2.079 2.673 3.094l1.673 1.846h32.527c36.253 0 34.704.118 35.702-2.722.59-1.678-.568-3.054-3.775-4.482-.77-.343-2.12-1.064-3-1.602a55.18 55.18 0 0 0-2.988-1.686c-.763-.39-1.68-.978-2.037-1.308-.357-.33-1.173-.91-1.812-1.29-2.172-1.285-2.742-1.708-6.34-4.71-6.397-5.338-17.023-17.01-17.023-18.698 0-.193-.343-.72-.763-1.17-.42-.451-1.148-1.52-1.617-2.376-3.79-6.907-4.855-9.013-5.44-10.756-.369-1.1-.89-2.36-1.16-2.8-.269-.44-.71-1.7-.98-2.8-.27-1.1-.724-2.36-1.008-2.8-.284-.44-.643-1.811-.797-3.047-.153-1.236-.629-2.901-1.057-3.7-.488-.908-.778-2.235-.778-3.552 0-3.183-.719-10.635-1.253-13-.355-1.571-.36-2.476-.026-3.6.247-.826.653-4.471.903-8.101.313-4.544.68-7.161 1.178-8.4.398-.99.857-2.88 1.02-4.2.161-1.32.526-2.76.81-3.2.284-.44.733-1.7.998-2.8.266-1.1.711-2.27.99-2.6.278-.33.697-1.32.932-2.2.406-1.527 4.086-9.045 4.945-10.105.225-.277.7-1.031 1.056-1.674.356-.643 1.298-2.126 2.094-3.295.796-1.17 1.606-2.427 1.8-2.796 2.122-4.027 20.36-21.13 22.531-21.13.164 0 .62-.355 1.013-.79.393-.434 1.096-.905 1.562-1.047.466-.142 1.124-.5 1.462-.796 1.051-.918 9.033-4.837 10.418-5.114.723-.144 1.64-.557 2.038-.917.398-.36 1.647-.801 2.777-.98 1.13-.178 2.37-.61 2.755-.96.386-.348 1.4-.824 2.25-1.055 5.487-1.492 4.644-3.471-6.118-14.365-4.034-4.083-7.335-7.64-7.335-7.905 0-.265 4.21-4.7 9.355-9.856 9.877-9.897 10.941-11.392 10.065-14.153-.58-1.826-4.065-2.557-6.02-1.262M251.573 239.48c-1.496 1.634-8.308 8.198-10.27 9.897-2.272 1.967-1.796.932.6-1.303 3.6-3.36 6.424-6.117 8.451-8.253 2.08-2.19 3.198-2.502 1.22-.341m-12.53 11.813c-.214.385-1.21 1.33-2.217 2.1-1.006.77-2.288 1.805-2.848 2.3-1 .885-1.777 1.16-1.777.63 0-.394 1.271-1.73 1.648-1.73.178 0 .735-.367 1.238-.815 3.437-3.064 4.721-3.871 3.955-2.485m-7.24 5.478c0 .403-4.519 3.822-5.052 3.822-.99 0 .098-1.475 1.314-1.78.596-.15 1.604-.71 2.241-1.246 1.138-.958 1.496-1.148 1.496-.796m-6.392 4.812c-.278.336-.747.61-1.04.61-.295 0-.948.438-1.452.974s-1.456 1.103-2.116 1.26l-1.2.286.762-.86c.42-.473.977-.86 1.24-.86s1.266-.53 2.23-1.176c1.8-1.21 2.468-1.308 1.576-.234m-6.432 3.993c-.317.31-1.073.686-1.68.835-1.63.4-1.006-.91.647-1.357 1.498-.406 1.817-.245 1.033.522m-3.51 1.91c-.939.94-3.858 1.583-3.03.668.656-.725 2.955-1.617 3.337-1.294.096.08-.043.363-.307.627m-4.16 1.988c-.162.486-2.645 1.313-2.969.988-.096-.096.116-.466.473-.822.758-.758 2.737-.89 2.496-.166"/>
</svg>