<svg width="400" height="400.649" xmlns="http://www.w3.org/2000/svg">
    <path class="icon__primary-shape" fill="#67daff" d="M18.056 7.414C11.173 8.912 4.26 15.228 2.344 21.77.748 27.218.801 22.884.8 148.6c0 134.185-.233 123.692 2.896 130.095 2.249 4.603 7.279 9.239 11.579 10.672 4.307 1.436 3.914 1.433 183.525 1.433 171.886 0 179.81-.05 182.6-1.144 7.025-2.756 11.457-7.471 14.073-14.97 1.159-3.324 1.131-248.509-.029-251.886-1.762-5.13-5.883-10.873-8.892-12.39a25.706 25.706 0 0 1-2.152-1.243c-.55-.363-1.99-.997-3.2-1.408-2.952-1.003-358.566-1.341-363.144-.345M372.2 148.8v117.4l-173.5.1-173.5.101V31.199l173.5.101 173.5.1v117.4M161.914 336.5l-.139 20.5-1.1 3.286c-2.475 7.389-8.355 13.511-15.474 16.114-3.572 1.305-7.531 1.6-21.53 1.602-14.313.003-15.215.1-18.168 1.974-6.705 4.251-7.229 14.626-.981 19.392l1.354 1.032h186.015l1.985-1.954c4.502-4.431 4.585-12.279.177-16.687-3.664-3.665-2.873-3.523-21.253-3.805-9.352-.144-16.792-.426-17.6-.668-3.394-1.017-4.095-1.286-6.089-2.337-5.315-2.804-9.811-7.816-11.794-13.149-1.619-4.354-1.688-5.399-1.703-25.9L235.6 316h-73.548l-.138 20.5"/>
</svg>