<svg xmlns="http://www.w3.org/2000/svg" width="304" height="304">
    <path class="icon__primary-shape" fill="#67daff" d="M29.075 29.075C13.084 45.067 0 58.277 0 58.431c0 .154 22.825 23.105 50.722 51.002l50.723 50.723-39.433 39.451c-27.812 27.827-39.556 39.7-39.851 40.294-.84 1.689-13.022 47.813-13.031 49.342-.02 3.207 2.524 5.908 5.768 6.12 1.385.09 47.942-12.126 49.702-13.042 1.615-.84 224.098-223.699 225.59-225.97 7.622-11.606 6.719-26.248-2.267-36.748-9.422-11.011-25.938-13.653-38.436-6.147-3.09 1.855-4.633 3.356-46.743 45.433l-42.589 42.555-50.722-50.722C81.536 22.825 58.585 0 58.43 0c-.154 0-13.364 13.084-29.356 29.075m34.439-6.237 4.995 4.998-3.967 3.971-3.969 3.972 4.509 4.505 4.509 4.506 3.97-3.969 3.972-3.967 4.8 4.802 4.8 4.804-7.055 7.056-7.054 7.057 4.506 4.509 4.506 4.51 7.06-7.058 7.06-7.058 4.85 4.853 4.85 4.853-3.969 3.968-3.968 3.968 4.506 4.51 4.506 4.509 3.972-3.968 3.97-3.968 4.804 4.8 4.803 4.8-7.058 7.059-7.058 7.06 4.51 4.506 4.51 4.506 7.056-7.055 7.057-7.055 4.851 4.85 4.851 4.852-3.968 3.968-3.97 3.969 3.97 3.971 3.968 3.972-16.368 16.368-16.368 16.367-46.361-46.36-46.36-46.362 20.288-20.29C49.189 26.97 58.363 17.84 58.418 17.84c.055 0 2.348 2.25 5.096 4.999m102.083 141.19L58.712 270.913l-12.595-12.594-12.597-12.594 106.886-106.886L247.291 31.954l12.596 12.593 12.596 12.595-106.886 106.886m34.025-5.943-8.394 8.317 4.507 4.522 4.507 4.523 3.971-3.968 3.973-3.969 4.85 4.85 4.85 4.85-7.055 7.058-7.055 7.057 4.506 4.51 4.506 4.509 7.06-7.058 7.06-7.058 4.799 4.803 4.8 4.803-3.968 3.971-3.968 3.972 4.51 4.506 4.508 4.505 3.969-3.967 3.968-3.969 4.852 4.85 4.854 4.85-7.058 7.06-7.058 7.06 4.51 4.506 4.51 4.506 7.056-7.054 7.056-7.055 4.804 4.8 4.802 4.8-3.967 3.971-3.969 3.971 4.506 4.509 4.505 4.509 3.972-3.969 3.971-3.967 1.91 1.91 1.91 1.91-20.288 20.289c-11.158 11.159-20.37 20.288-20.472 20.288-.1 0-19.775-19.583-43.72-43.518-23.946-23.936-43.624-43.52-43.73-43.52-.104 0-2.13 1.94-4.498 4.311l-4.306 4.31 1.07 1.13c4.043 4.266 95.035 95.126 95.264 95.126.38 0 58.423-58.045 58.423-58.425 0-.339-95.858-96.243-96.196-96.243-.123 0-4 3.743-8.617 8.318"/>
</svg>