<svg id="svg" version="1.1" width="400" height="400" viewBox="0 0 400 400" xmlns="http://www.w3.org/2000/svg" xmlns:xlink="http://www.w3.org/1999/xlink" ><g id="svgg"><path id="path0" d="M193.730 0.263 C 194.448 0.982,193.110 1.559,192.163 0.939 C 191.518 0.516,191.200 0.463,191.200 0.778 C 191.200 1.036,191.037 1.146,190.837 1.023 C 190.638 0.900,190.575 1.183,190.698 1.653 C 190.860 2.273,190.767 2.451,190.361 2.304 C 190.052 2.192,189.845 1.898,189.900 1.650 C 190.069 0.889,189.254 1.152,188.797 2.005 C 188.456 2.644,188.210 2.726,187.610 2.405 C 186.582 1.855,186.400 1.892,186.400 2.649 C 186.400 3.178,186.290 3.207,185.805 2.804 C 185.323 2.404,185.163 2.432,184.963 2.953 C 184.827 3.306,184.555 3.496,184.358 3.374 C 184.161 3.252,183.997 3.388,183.994 3.676 C 183.989 4.104,183.927 4.105,183.659 3.681 C 183.394 3.264,183.232 3.279,182.835 3.757 C 182.564 4.085,182.096 4.258,181.795 4.143 C 181.494 4.027,180.923 4.123,180.524 4.354 C 179.875 4.732,179.902 4.777,180.786 4.788 C 181.728 4.799,181.740 4.831,181.061 5.500 C 180.385 6.167,180.324 6.163,179.776 5.424 C 179.459 4.996,179.200 4.872,179.200 5.147 C 179.200 5.423,178.993 5.519,178.738 5.362 C 178.484 5.205,178.382 5.248,178.512 5.457 C 179.038 6.309,178.065 7.041,177.476 6.237 C 176.948 5.515,175.748 5.668,176.200 6.400 C 176.567 6.994,175.531 7.332,175.125 6.751 C 174.825 6.323,174.694 6.312,174.535 6.702 C 174.423 6.979,174.172 7.107,173.978 6.986 C 173.783 6.866,173.080 7.048,172.416 7.392 C 171.752 7.735,171.116 8.013,171.004 8.008 C 170.187 7.976,170.000 8.046,170.000 8.387 C 170.000 8.601,170.315 8.674,170.700 8.550 C 171.271 8.366,171.293 8.400,170.818 8.736 C 170.483 8.974,169.982 9.006,169.635 8.812 C 169.237 8.589,168.863 8.699,168.529 9.137 C 168.230 9.530,168.020 9.604,168.013 9.318 C 168.006 9.053,167.558 9.278,167.018 9.818 C 166.000 10.837,165.200 11.093,165.200 10.400 C 165.200 9.676,164.110 9.983,163.426 10.900 C 162.824 11.707,162.779 11.717,162.983 11.000 C 163.172 10.334,163.077 10.367,162.414 11.200 C 161.976 11.750,161.614 11.975,161.609 11.700 C 161.595 10.923,160.804 11.111,160.768 11.900 C 160.751 12.285,160.655 12.401,160.554 12.158 C 160.279 11.491,158.405 11.995,158.368 12.747 C 158.349 13.152,158.261 13.212,158.137 12.906 C 157.899 12.318,155.807 13.248,155.468 14.092 C 155.308 14.489,155.256 14.491,155.232 14.100 C 155.174 13.194,154.138 13.579,153.618 14.700 C 153.176 15.654,153.052 15.714,152.689 15.153 C 152.318 14.579,152.174 14.619,151.410 15.507 C 150.667 16.370,150.428 16.443,149.669 16.037 C 149.059 15.711,148.576 15.690,148.095 15.971 C 147.573 16.275,147.545 16.379,147.980 16.388 C 148.442 16.398,148.459 16.501,148.063 16.897 C 147.668 17.292,147.487 17.272,147.176 16.797 C 146.837 16.279,146.712 16.295,146.233 16.921 C 145.819 17.461,145.628 17.511,145.472 17.121 C 145.337 16.785,145.252 16.848,145.232 17.300 C 145.214 17.685,145.009 18.000,144.776 18.000 C 144.543 18.000,144.464 17.820,144.600 17.600 C 144.736 17.380,144.678 17.200,144.470 17.200 C 144.263 17.200,143.999 17.560,143.884 18.000 C 143.769 18.440,143.456 18.800,143.188 18.800 C 142.831 18.800,142.846 18.626,143.248 18.142 C 143.737 17.553,143.689 17.517,142.797 17.792 C 142.249 17.961,141.791 18.122,141.781 18.150 C 141.146 19.831,140.738 20.351,140.214 20.150 C 139.879 20.021,139.681 19.792,139.775 19.641 C 139.868 19.490,139.619 19.342,139.221 19.312 C 138.772 19.278,138.518 19.512,138.549 19.929 C 138.606 20.673,137.322 20.891,136.500 20.276 C 136.153 20.016,136.000 20.096,136.000 20.537 C 136.000 21.111,135.166 21.804,134.245 21.995 C 134.049 22.035,133.737 21.828,133.551 21.534 C 133.309 21.153,133.210 21.140,133.206 21.487 C 133.203 21.775,132.930 21.871,132.542 21.722 C 132.139 21.568,131.674 21.758,131.342 22.211 C 131.044 22.619,130.800 22.734,130.800 22.466 C 130.800 22.113,130.471 22.149,129.604 22.598 C 128.946 22.938,128.271 23.258,128.104 23.308 C 127.937 23.359,127.841 23.522,127.891 23.672 C 127.940 23.821,127.535 23.863,126.991 23.764 C 126.204 23.621,126.000 23.751,126.000 24.392 C 126.000 24.844,125.735 25.200,125.400 25.200 C 125.070 25.200,124.800 25.020,124.800 24.800 C 124.800 24.580,124.530 24.400,124.200 24.400 C 123.870 24.400,123.597 24.715,123.594 25.100 C 123.590 25.583,123.492 25.649,123.279 25.314 C 123.039 24.936,122.733 24.950,121.913 25.375 C 121.332 25.677,120.754 25.820,120.628 25.695 C 120.503 25.569,120.400 25.767,120.400 26.133 C 120.400 26.852,119.753 27.055,119.533 26.405 C 119.454 26.171,118.932 26.253,118.254 26.605 C 117.624 26.932,116.865 27.200,116.567 27.200 C 116.239 27.200,116.120 27.448,116.266 27.828 C 116.469 28.356,116.274 28.413,115.054 28.184 C 113.766 27.942,113.600 28.005,113.600 28.732 C 113.600 29.821,112.790 30.282,112.327 29.456 C 111.827 28.562,111.200 28.629,111.200 29.576 C 111.200 30.677,110.440 31.008,109.830 30.174 C 109.340 29.503,109.292 29.506,108.869 30.234 C 108.565 30.758,108.420 30.818,108.412 30.424 C 108.403 30.002,108.230 30.056,107.770 30.624 C 107.424 31.051,107.255 31.175,107.394 30.900 C 107.533 30.625,107.457 30.400,107.224 30.400 C 106.991 30.400,106.800 30.574,106.800 30.787 C 106.800 31.001,106.530 31.071,106.200 30.945 C 105.870 30.818,105.600 30.914,105.600 31.157 C 105.600 31.401,105.100 31.600,104.489 31.600 C 103.878 31.600,103.002 31.864,102.542 32.186 C 102.081 32.508,101.591 32.658,101.453 32.519 C 101.314 32.380,101.200 32.496,101.200 32.776 C 101.200 33.072,100.940 33.186,100.579 33.047 C 100.238 32.916,100.057 32.968,100.177 33.163 C 100.297 33.357,100.117 33.623,99.777 33.754 C 99.423 33.889,99.263 33.822,99.403 33.595 C 99.537 33.378,99.542 33.200,99.414 33.200 C 99.285 33.200,99.009 33.650,98.800 34.200 C 98.372 35.326,97.799 35.496,97.455 34.600 C 97.139 33.774,96.401 33.844,96.394 34.700 C 96.389 35.232,96.307 35.273,96.052 34.870 C 95.778 34.438,95.607 34.450,95.121 34.936 C 94.793 35.264,94.272 35.516,93.963 35.497 C 92.939 35.433,90.800 36.093,90.800 36.474 C 90.800 36.679,91.008 36.719,91.262 36.562 C 91.559 36.378,91.615 36.453,91.417 36.773 C 91.210 37.107,90.978 37.138,90.706 36.866 C 90.263 36.423,88.400 37.068,88.400 37.664 C 88.400 37.849,88.209 38.000,87.976 38.000 C 87.743 38.000,87.663 37.822,87.797 37.605 C 87.951 37.356,87.715 37.331,87.153 37.539 C 86.666 37.719,86.220 38.183,86.163 38.570 C 86.010 39.616,85.765 39.708,85.048 38.990 C 84.451 38.394,84.398 38.400,84.368 39.071 C 84.350 39.492,84.251 39.588,84.135 39.300 C 84.024 39.025,83.758 38.800,83.543 38.800 C 83.328 38.800,83.281 39.007,83.438 39.261 C 84.004 40.177,82.350 40.876,81.459 40.097 C 81.021 39.714,80.781 39.605,80.927 39.855 C 81.072 40.105,80.919 40.535,80.586 40.811 C 80.075 41.236,80.025 41.197,80.266 40.557 C 80.517 39.888,80.471 39.864,79.875 40.349 C 79.504 40.651,79.200 40.752,79.200 40.573 C 79.200 40.394,78.966 40.568,78.679 40.959 C 78.393 41.351,77.898 41.634,77.579 41.588 C 76.141 41.382,75.377 41.596,76.000 42.030 C 76.446 42.341,76.267 42.383,75.300 42.192 C 74.174 41.971,74.000 42.046,74.000 42.754 C 74.000 43.204,73.640 43.765,73.200 44.000 C 72.561 44.342,72.400 44.304,72.400 43.814 C 72.400 43.442,72.045 43.202,71.500 43.206 C 70.854 43.211,70.751 43.308,71.134 43.551 C 71.911 44.043,71.783 44.515,70.771 44.889 C 70.143 45.121,69.665 45.021,69.141 44.547 C 68.444 43.916,68.398 43.922,68.368 44.638 C 68.351 45.057,68.252 45.194,68.149 44.942 C 67.942 44.436,66.400 44.693,66.400 45.234 C 66.400 45.422,66.715 45.464,67.100 45.329 C 67.669 45.128,67.707 45.183,67.304 45.617 C 66.604 46.372,65.483 46.482,65.756 45.769 C 66.021 45.080,65.954 45.075,64.526 45.666 C 63.281 46.182,62.988 46.277,62.400 46.350 C 62.180 46.377,62.000 46.760,62.000 47.200 C 62.000 48.183,60.816 48.279,60.760 47.300 C 60.734 46.833,60.614 46.933,60.400 47.600 C 60.224 48.150,60.062 48.413,60.040 48.185 C 60.018 47.957,59.631 47.742,59.180 47.709 C 58.541 47.660,58.415 47.817,58.607 48.423 C 58.765 48.918,58.663 49.211,58.327 49.231 C 58.037 49.247,57.485 49.322,57.100 49.395 C 56.301 49.548,56.143 48.970,56.900 48.665 C 57.199 48.544,57.118 48.450,56.700 48.432 C 56.290 48.413,55.997 48.690,55.994 49.100 C 55.990 49.541,55.879 49.633,55.694 49.350 C 55.495 49.046,55.080 49.020,54.410 49.271 C 53.678 49.544,53.557 49.727,53.948 49.968 C 54.322 50.199,54.085 50.426,53.139 50.742 C 51.993 51.125,51.901 51.112,52.500 50.650 C 53.427 49.937,53.386 49.626,52.400 49.884 C 51.677 50.073,51.427 50.468,51.700 50.992 C 51.868 51.316,48.705 52.789,48.334 52.559 C 47.199 51.858,45.943 51.991,46.196 52.786 C 46.396 53.417,46.217 53.689,45.401 54.000 C 43.731 54.635,42.788 54.515,43.050 53.700 C 43.214 53.190,43.174 53.141,42.901 53.521 C 42.695 53.808,42.363 54.011,42.163 53.974 C 41.141 53.781,40.593 54.008,41.181 54.380 C 41.500 54.582,41.905 54.658,42.081 54.550 C 42.256 54.442,42.400 54.543,42.400 54.776 C 42.400 55.304,40.533 55.339,40.211 54.817 C 39.732 54.043,38.787 54.829,39.221 55.640 C 39.698 56.530,39.378 56.635,38.590 55.848 C 38.287 55.544,38.164 55.139,38.317 54.948 C 38.470 54.756,38.018 55.122,37.312 55.761 C 36.277 56.698,35.917 56.829,35.450 56.442 C 35.049 56.109,34.790 56.092,34.608 56.387 C 34.463 56.621,34.159 56.698,33.932 56.558 C 33.672 56.397,33.682 56.607,33.961 57.127 C 34.479 58.096,34.316 58.234,32.197 58.614 C 31.319 58.772,30.275 59.186,29.878 59.533 C 29.276 60.059,29.018 60.079,28.339 59.655 C 27.890 59.374,27.420 59.247,27.294 59.372 C 27.169 59.498,27.290 59.600,27.562 59.600 C 27.909 59.600,27.878 59.779,27.457 60.200 C 26.769 60.888,25.762 60.986,25.400 60.400 C 25.264 60.180,25.343 60.000,25.576 60.000 C 25.809 60.000,26.000 59.798,26.000 59.551 C 26.000 59.259,25.768 59.294,25.339 59.651 C 24.975 59.953,24.345 60.144,23.939 60.075 C 23.532 60.006,23.200 60.141,23.200 60.375 C 23.200 60.609,23.403 60.755,23.650 60.700 C 23.898 60.645,24.179 60.814,24.275 61.075 C 24.461 61.580,22.931 61.576,22.111 61.068 C 21.860 60.914,21.525 60.998,21.366 61.255 C 21.185 61.548,21.250 61.616,21.538 61.438 C 21.812 61.269,22.000 61.407,22.000 61.776 C 22.000 62.477,20.208 62.660,19.800 62.000 C 19.372 61.307,18.744 61.566,18.875 62.382 C 18.944 62.812,18.820 63.185,18.600 63.210 C 18.380 63.236,17.891 63.537,17.513 63.879 C 17.135 64.220,16.481 64.410,16.060 64.300 C 15.600 64.179,15.025 64.412,14.624 64.880 C 14.104 65.488,13.832 65.559,13.400 65.200 C 12.967 64.841,12.741 64.905,12.374 65.493 C 12.030 66.044,11.575 66.199,10.688 66.069 C 9.675 65.920,9.516 66.003,9.732 66.566 C 9.885 66.965,9.829 67.142,9.595 66.997 C 9.370 66.858,9.203 67.237,9.206 67.876 C 9.211 68.781,9.295 68.883,9.638 68.400 C 9.969 67.934,10.013 68.037,9.835 68.858 C 9.709 69.440,9.873 70.555,10.199 71.337 C 10.575 72.235,10.647 72.847,10.396 73.002 C 9.903 73.307,9.867 77.600,10.357 77.600 C 10.916 77.600,11.270 78.890,10.832 79.328 C 10.573 79.587,10.581 79.991,10.856 80.504 C 11.086 80.934,11.290 82.617,11.308 84.243 C 11.336 86.648,11.460 87.201,11.971 87.206 C 12.430 87.211,12.466 87.297,12.105 87.527 C 11.763 87.744,11.713 88.204,11.943 89.020 C 12.127 89.669,12.223 91.071,12.158 92.136 C 12.055 93.816,12.182 94.198,13.120 95.023 C 13.714 95.547,14.011 95.980,13.780 95.987 C 13.538 95.995,13.430 96.590,13.524 97.400 C 13.624 98.257,13.515 98.800,13.244 98.800 C 12.711 98.800,12.645 100.657,13.166 100.979 C 13.367 101.103,13.623 100.979,13.734 100.702 C 13.846 100.426,13.951 100.594,13.968 101.076 C 13.986 101.558,13.820 102.064,13.600 102.200 C 13.380 102.336,13.203 102.662,13.206 102.924 C 13.210 103.249,13.320 103.230,13.550 102.866 C 13.823 102.437,13.936 102.456,14.132 102.966 C 14.265 103.315,14.231 103.600,14.056 103.600 C 13.413 103.600,13.533 107.876,14.194 108.537 C 14.702 109.045,14.773 109.680,14.558 111.777 C 14.372 113.596,14.439 114.565,14.780 114.976 C 15.049 115.300,15.153 115.753,15.011 115.982 C 14.869 116.212,14.988 116.403,15.276 116.406 C 15.657 116.411,15.636 116.518,15.200 116.800 C 14.667 117.145,14.667 117.189,15.200 117.200 C 15.715 117.211,15.718 117.264,15.226 117.576 C 14.736 117.886,14.733 118.037,15.205 118.606 C 15.581 119.059,15.746 120.284,15.721 122.436 C 15.690 125.109,15.786 125.605,16.342 125.632 C 16.757 125.652,16.815 125.738,16.500 125.865 C 16.225 125.976,16.000 126.226,16.000 126.421 C 16.000 126.616,16.270 126.671,16.600 126.545 C 17.314 126.271,17.379 126.923,16.740 127.947 C 16.400 128.492,16.396 129.012,16.724 129.955 C 16.978 130.683,17.004 131.126,16.784 130.990 C 16.573 130.860,16.400 131.123,16.400 131.576 C 16.400 132.029,16.549 132.400,16.732 132.400 C 16.914 132.400,17.049 132.805,17.032 133.300 C 17.011 133.900,17.200 134.157,17.600 134.071 C 18.081 133.968,18.101 134.044,17.700 134.451 C 17.150 135.011,17.063 136.413,17.456 138.382 C 17.599 139.097,17.835 139.466,17.990 139.217 C 18.142 138.970,18.267 139.331,18.267 140.019 C 18.267 140.707,18.485 141.405,18.752 141.570 C 19.118 141.796,19.085 141.998,18.619 142.384 C 17.804 143.061,17.790 146.128,18.600 146.800 C 19.261 147.349,19.439 148.595,18.800 148.200 C 18.580 148.064,18.400 148.233,18.400 148.576 C 18.400 148.919,18.625 149.155,18.900 149.100 C 19.249 149.030,19.359 149.467,19.263 150.546 C 19.165 151.666,19.258 152.011,19.603 151.798 C 19.965 151.574,19.974 151.701,19.639 152.327 C 19.348 152.871,19.335 153.236,19.599 153.399 C 19.820 153.536,20.000 153.827,20.000 154.047 C 20.000 154.267,19.820 154.336,19.600 154.200 C 19.373 154.060,19.200 154.396,19.200 154.976 C 19.200 155.539,19.378 156.000,19.596 156.000 C 19.813 156.000,19.951 156.481,19.903 157.069 C 19.854 157.657,20.027 158.209,20.286 158.295 C 20.640 158.413,20.648 158.697,20.315 159.426 C 19.987 160.147,19.993 160.666,20.339 161.425 C 20.609 162.019,20.636 162.346,20.403 162.202 C 19.582 161.694,20.035 163.196,21.025 164.265 C 21.970 165.285,21.994 165.394,21.325 165.658 C 20.926 165.815,20.825 165.956,21.100 165.972 C 21.393 165.988,21.597 166.538,21.594 167.300 C 21.589 168.286,21.494 168.455,21.200 168.000 C 20.912 167.554,20.811 167.784,20.806 168.900 C 20.802 169.969,20.972 170.400,21.400 170.400 C 21.730 170.400,22.000 170.681,22.000 171.024 C 22.000 171.367,21.850 171.555,21.667 171.441 C 21.483 171.328,21.333 171.505,21.333 171.835 C 21.333 172.165,21.556 172.349,21.827 172.245 C 22.342 172.047,22.337 172.500,21.810 173.719 C 21.640 174.114,21.619 175.284,21.765 176.319 C 21.910 177.353,22.053 178.425,22.081 178.700 C 22.110 178.975,22.215 179.119,22.314 179.019 C 22.414 178.920,22.761 179.104,23.086 179.429 C 23.745 180.088,23.462 181.409,22.756 180.973 C 22.436 180.775,22.376 181.200,22.550 182.447 C 22.685 183.411,22.817 184.869,22.844 185.688 C 22.879 186.767,23.100 187.241,23.646 187.415 C 24.400 187.654,24.708 188.400,24.053 188.400 C 23.600 188.400,23.692 192.433,24.162 193.162 C 24.412 193.550,24.381 193.635,24.062 193.438 C 23.788 193.269,23.600 193.407,23.600 193.776 C 23.600 194.119,23.870 194.400,24.200 194.400 C 24.530 194.400,24.800 194.591,24.800 194.824 C 24.800 195.057,24.620 195.136,24.400 195.000 C 24.180 194.864,24.000 194.943,24.000 195.176 C 24.000 195.409,24.180 195.600,24.400 195.600 C 24.620 195.600,24.784 196.185,24.766 196.900 C 24.747 197.615,24.863 198.722,25.024 199.359 C 25.244 200.233,25.194 200.443,24.820 200.212 C 24.477 200.000,24.373 200.137,24.485 200.653 C 24.575 201.064,24.875 201.351,25.153 201.290 C 25.432 201.230,25.545 201.366,25.404 201.593 C 25.264 201.820,25.431 202.114,25.775 202.246 C 26.452 202.506,26.628 203.812,26.034 204.179 C 25.833 204.303,25.577 204.179,25.466 203.902 C 25.354 203.626,25.249 204.240,25.232 205.267 C 25.193 207.564,25.550 208.717,26.057 207.934 C 26.305 207.551,26.370 207.626,26.290 208.200 C 26.228 208.640,26.036 209.225,25.865 209.500 C 25.692 209.778,25.735 210.000,25.962 210.000 C 26.188 210.000,26.579 210.387,26.832 210.861 C 27.225 211.594,27.197 211.685,26.647 211.473 C 26.100 211.263,26.000 211.563,26.000 213.413 C 26.000 214.616,26.180 215.600,26.400 215.600 C 26.620 215.600,26.800 215.390,26.800 215.133 C 26.800 214.877,26.895 214.762,27.011 214.878 C 27.127 214.994,27.042 215.564,26.821 216.145 C 26.563 216.823,26.559 217.200,26.810 217.200 C 27.024 217.200,27.200 217.391,27.200 217.624 C 27.200 217.857,27.002 217.925,26.760 217.775 C 26.440 217.578,26.440 217.728,26.760 218.325 C 27.002 218.778,27.200 219.519,27.200 219.974 C 27.200 220.428,27.402 220.800,27.649 220.800 C 27.947 220.800,27.969 220.968,27.712 221.300 C 26.883 222.373,27.086 225.600,27.982 225.600 C 28.549 225.600,28.800 225.860,28.800 226.449 C 28.800 227.200,28.719 227.235,28.100 226.749 C 27.472 226.257,27.454 226.269,27.924 226.870 C 28.262 227.302,28.356 228.030,28.188 228.924 C 28.030 229.767,28.099 230.414,28.364 230.578 C 28.604 230.726,28.797 231.062,28.794 231.324 C 28.790 231.610,28.633 231.561,28.400 231.200 C 28.086 230.715,28.011 230.772,28.006 231.500 C 28.003 231.995,28.192 232.400,28.427 232.400 C 28.680 232.400,28.744 232.746,28.584 233.250 C 28.406 233.810,28.461 234.009,28.745 233.834 C 28.999 233.677,29.279 234.027,29.425 234.684 C 29.562 235.298,29.759 236.114,29.863 236.497 C 30.003 237.013,29.881 237.129,29.397 236.943 C 28.856 236.736,28.764 236.928,28.871 238.046 C 28.949 238.866,29.197 239.361,29.500 239.300 C 29.775 239.245,30.000 239.545,30.000 239.967 C 30.000 240.389,30.114 241.064,30.254 241.467 C 30.498 242.173,30.487 242.173,29.941 241.475 C 29.444 240.839,29.405 241.125,29.625 243.813 C 29.786 245.780,30.077 247.003,30.438 247.232 C 30.747 247.428,30.859 247.591,30.686 247.594 C 30.513 247.597,30.600 248.005,30.878 248.500 C 31.467 249.545,31.631 250.800,31.179 250.800 C 31.007 250.800,30.776 250.575,30.665 250.300 C 30.554 250.025,30.449 250.464,30.432 251.276 C 30.414 252.088,30.572 252.859,30.783 252.989 C 30.993 253.119,31.064 253.490,30.940 253.813 C 30.816 254.136,30.893 254.400,31.111 254.400 C 31.328 254.400,31.595 254.805,31.702 255.300 C 31.809 255.795,32.041 256.545,32.217 256.966 C 32.439 257.499,32.397 257.645,32.078 257.448 C 31.555 257.125,31.660 259.927,32.204 260.807 C 32.414 261.147,32.366 261.226,32.062 261.038 C 31.439 260.653,31.468 261.698,32.100 262.379 C 32.500 262.810,32.500 262.861,32.100 262.635 C 31.787 262.458,31.600 262.602,31.600 263.019 C 31.600 263.430,31.817 263.602,32.167 263.468 C 32.479 263.348,32.839 263.524,32.967 263.858 C 33.295 264.714,33.256 265.282,32.885 265.052 C 32.712 264.945,32.533 265.305,32.488 265.851 C 32.442 266.397,32.572 266.741,32.775 266.616 C 32.978 266.490,33.112 267.002,33.072 267.753 C 33.032 268.505,32.865 269.037,32.700 268.936 C 32.535 268.835,32.400 269.123,32.400 269.576 C 32.400 270.029,32.591 270.400,32.824 270.400 C 33.057 270.400,33.135 270.581,32.998 270.803 C 32.861 271.024,33.013 271.307,33.335 271.430 C 34.181 271.755,34.434 273.102,33.701 273.383 C 32.987 273.657,33.236 277.279,34.035 278.242 C 34.371 278.646,34.374 278.800,34.049 278.800 C 33.802 278.800,33.603 279.115,33.606 279.500 C 33.611 280.045,33.688 280.080,33.956 279.657 C 34.145 279.359,34.401 279.277,34.524 279.476 C 34.647 279.675,34.582 280.100,34.380 280.419 C 33.570 281.698,34.392 286.275,35.273 285.394 C 35.379 285.287,35.467 285.453,35.467 285.762 C 35.467 286.071,35.227 286.232,34.933 286.119 C 34.577 285.983,34.411 286.228,34.432 286.857 C 34.449 287.376,34.554 287.575,34.665 287.300 C 34.993 286.487,35.888 286.729,36.148 287.700 C 36.502 289.022,36.462 289.200,35.805 289.200 C 35.139 289.200,35.135 290.801,35.800 291.300 C 36.057 291.492,36.018 291.718,35.693 291.928 C 34.761 292.531,35.587 296.294,36.528 295.730 C 36.787 295.574,36.730 295.786,36.400 296.200 C 35.919 296.805,35.912 296.886,36.368 296.611 C 36.814 296.342,36.865 296.433,36.607 297.034 C 36.093 298.231,36.139 299.812,36.686 299.705 C 36.976 299.648,37.074 299.862,36.930 300.238 C 36.735 300.745,36.623 300.764,36.350 300.334 C 36.108 299.951,36.011 300.054,36.006 300.700 C 36.002 301.236,36.243 301.600,36.600 301.600 C 36.930 301.600,37.200 301.780,37.200 302.000 C 37.200 302.220,37.020 302.400,36.800 302.400 C 36.580 302.400,36.400 302.591,36.400 302.824 C 36.400 303.057,36.568 303.144,36.772 303.017 C 37.324 302.676,37.495 303.149,37.777 305.796 C 38.017 308.051,37.561 308.580,37.085 306.600 C 36.977 306.148,36.873 306.453,36.846 307.300 C 36.815 308.305,36.976 308.800,37.332 308.800 C 38.344 308.800,39.085 310.802,38.289 311.384 C 37.536 311.935,37.322 314.400,38.027 314.400 C 38.285 314.400,38.343 314.051,38.174 313.519 C 37.911 312.688,37.934 312.677,38.576 313.319 C 38.951 313.693,39.424 314.000,39.629 314.000 C 39.833 314.000,40.000 314.270,40.000 314.600 C 40.000 314.930,40.350 315.200,40.777 315.200 C 41.205 315.200,41.790 315.531,42.077 315.937 C 42.365 316.342,42.998 316.884,43.485 317.143 C 44.062 317.449,44.294 317.854,44.152 318.306 C 43.948 318.959,43.969 318.958,44.511 318.300 C 45.360 317.270,46.129 317.416,45.909 318.565 C 45.748 319.409,45.814 319.473,46.444 319.080 C 46.840 318.833,47.307 318.783,47.482 318.970 C 47.657 319.157,47.575 319.390,47.300 319.488 C 47.025 319.586,46.800 319.868,46.800 320.113 C 46.800 320.424,46.946 320.414,47.280 320.080 C 48.135 319.225,52.400 320.656,52.400 321.797 C 52.400 322.078,52.783 322.407,53.252 322.529 C 53.827 322.680,54.025 322.958,53.861 323.385 C 53.655 323.923,53.749 323.948,54.490 323.552 C 55.141 323.203,55.400 323.201,55.514 323.543 C 55.598 323.794,55.951 324.000,56.298 324.000 C 57.060 324.000,60.400 325.907,60.400 326.342 C 60.400 326.512,61.031 326.898,61.803 327.201 C 62.776 327.583,63.145 327.944,63.006 328.381 C 62.892 328.740,63.150 329.226,63.603 329.509 C 64.559 330.106,64.635 329.892,63.771 329.029 C 63.229 328.486,63.225 328.400,63.739 328.400 C 64.994 328.400,65.513 328.846,65.283 329.726 C 65.060 330.580,65.072 330.583,65.806 329.850 C 66.644 329.013,68.731 330.688,68.147 331.729 C 67.945 332.089,68.002 332.089,68.389 331.733 C 68.777 331.374,69.207 331.421,70.237 331.933 C 71.608 332.614,71.997 333.190,71.100 333.212 C 70.825 333.219,70.936 333.420,71.348 333.659 C 71.906 333.983,72.175 333.965,72.409 333.586 C 72.743 333.045,76.400 334.872,76.400 335.579 C 76.400 335.770,76.735 335.837,77.145 335.730 C 77.944 335.521,78.599 336.554,78.139 337.298 C 77.995 337.532,78.061 337.610,78.287 337.470 C 78.512 337.331,79.104 337.570,79.603 338.002 C 80.197 338.518,80.828 338.708,81.436 338.555 C 81.946 338.427,82.938 338.610,83.643 338.961 C 84.347 339.313,85.165 339.600,85.461 339.600 C 85.957 339.600,86.159 340.200,86.105 341.514 C 86.088 341.933,86.202 341.933,86.719 341.514 C 87.068 341.231,87.233 341.201,87.086 341.447 C 86.822 341.889,87.641 342.808,88.800 343.369 C 89.130 343.529,89.046 343.373,88.614 343.022 C 87.634 342.229,89.846 342.558,91.582 343.464 C 92.142 343.756,92.819 343.996,93.086 343.998 C 93.673 344.001,94.524 345.476,94.221 345.966 C 94.102 346.159,94.262 346.415,94.576 346.536 C 94.891 346.656,95.205 346.598,95.274 346.405 C 95.343 346.213,95.760 346.338,96.200 346.682 C 96.845 347.186,96.864 347.261,96.300 347.066 C 95.192 346.685,95.485 347.120,96.789 347.794 C 97.843 348.339,97.952 348.340,97.746 347.805 C 97.599 347.420,97.748 347.200,98.157 347.200 C 98.511 347.200,98.800 347.399,98.800 347.643 C 98.800 347.886,99.077 347.979,99.415 347.850 C 99.765 347.715,100.128 347.869,100.258 348.207 C 100.383 348.533,100.783 348.800,101.147 348.800 C 101.510 348.800,102.020 349.140,102.280 349.556 C 102.697 350.224,102.649 350.290,101.876 350.117 C 101.155 349.957,101.210 350.068,102.186 350.745 C 103.067 351.357,103.451 351.444,103.680 351.084 C 103.889 350.755,103.990 350.832,103.994 351.324 C 103.997 351.722,104.180 351.936,104.400 351.800 C 104.620 351.664,104.800 351.743,104.800 351.976 C 104.800 352.209,105.070 352.400,105.400 352.400 C 105.730 352.400,106.000 352.580,106.000 352.800 C 106.000 353.020,106.191 353.200,106.424 353.200 C 106.657 353.200,106.731 352.975,106.589 352.700 C 106.447 352.425,106.709 352.650,107.171 353.200 C 107.703 353.834,107.920 353.944,107.762 353.500 C 107.623 353.106,107.708 352.800,107.957 352.800 C 108.201 352.800,108.421 353.205,108.446 353.700 C 108.481 354.377,108.538 354.427,108.676 353.900 C 108.960 352.814,109.875 353.075,110.123 354.313 C 110.376 355.578,112.980 357.171,113.342 356.281 C 113.450 356.013,113.551 356.105,113.568 356.490 C 113.586 356.869,114.131 357.454,114.780 357.790 C 116.154 358.500,116.545 358.558,116.200 358.000 C 116.064 357.780,116.340 357.600,116.812 357.600 C 117.652 357.600,119.160 359.000,119.187 359.804 C 119.204 360.344,120.743 361.282,121.174 361.016 C 121.362 360.900,121.619 361.074,121.746 361.402 C 121.872 361.731,122.326 362.000,122.754 362.000 C 123.183 362.000,123.624 362.225,123.735 362.500 C 123.896 362.900,123.943 362.900,123.968 362.500 C 123.986 362.225,124.470 362.000,125.043 362.000 C 125.969 362.000,126.057 362.118,125.824 363.048 C 125.578 364.026,125.605 364.052,126.227 363.430 C 127.103 362.554,127.753 362.814,128.000 364.141 C 128.188 365.152,130.400 366.843,130.400 365.976 C 130.400 365.769,130.670 365.600,131.000 365.600 C 131.330 365.600,131.600 365.941,131.600 366.357 C 131.600 366.774,131.895 367.228,132.257 367.366 C 132.780 367.567,132.820 367.506,132.453 367.064 C 132.077 366.611,132.177 366.545,133.002 366.703 C 133.558 366.809,134.110 367.054,134.230 367.248 C 134.349 367.441,134.797 367.600,135.224 367.600 C 135.776 367.600,136.000 367.876,136.000 368.560 C 136.000 369.281,136.417 369.736,137.677 370.393 C 138.989 371.077,139.233 371.121,138.796 370.595 C 138.297 369.994,138.341 369.938,139.219 370.062 C 139.880 370.155,140.242 370.496,140.329 371.106 C 140.399 371.604,140.624 371.909,140.829 371.782 C 141.033 371.656,141.200 371.737,141.200 371.962 C 141.200 372.188,141.587 372.579,142.061 372.832 C 142.794 373.225,142.885 373.197,142.673 372.647 C 142.498 372.191,142.650 372.000,143.186 372.000 C 143.712 372.000,143.986 372.329,144.073 373.069 C 144.143 373.657,144.470 374.211,144.800 374.300 C 145.333 374.443,145.333 374.409,144.800 373.993 C 144.290 373.595,144.310 373.560,144.933 373.762 C 145.336 373.893,145.751 374.000,145.856 374.000 C 145.961 374.000,145.942 374.171,145.812 374.380 C 145.489 374.904,146.998 375.652,147.776 375.354 C 148.260 375.168,148.346 375.286,148.141 375.855 C 147.993 376.265,148.022 376.465,148.204 376.299 C 148.386 376.134,148.865 376.297,149.268 376.661 C 149.705 377.057,150.000 377.138,150.000 376.862 C 150.000 376.608,149.809 376.400,149.576 376.400 C 149.343 376.400,149.288 376.182,149.453 375.915 C 149.652 375.592,149.922 375.826,150.258 376.615 C 150.570 377.345,150.771 377.531,150.782 377.100 C 150.810 375.994,151.626 376.284,152.113 377.574 C 152.502 378.605,153.600 379.373,154.500 379.243 C 154.665 379.219,154.800 379.410,154.800 379.667 C 154.800 379.923,154.917 380.016,155.060 379.873 C 155.204 379.730,155.533 379.902,155.792 380.257 C 156.175 380.781,156.426 380.814,157.132 380.437 C 157.622 380.174,158.000 380.137,158.000 380.353 C 158.000 380.562,157.775 380.808,157.501 380.900 C 157.199 381.000,157.377 381.266,157.949 381.573 C 158.470 381.852,158.782 381.894,158.642 381.668 C 158.271 381.068,159.190 380.630,159.715 381.155 C 159.960 381.400,160.484 381.600,160.880 381.600 C 161.330 381.600,161.600 381.896,161.600 382.387 C 161.600 382.951,161.401 383.115,160.900 382.963 C 160.515 382.846,160.830 383.105,161.600 383.537 C 162.370 383.970,163.116 384.252,163.258 384.164 C 163.400 384.076,163.627 384.294,163.763 384.647 C 163.964 385.172,164.121 385.198,164.612 384.790 C 165.099 384.386,165.348 384.405,165.908 384.893 C 166.288 385.224,166.825 385.414,167.100 385.314 C 167.525 385.161,167.725 385.532,167.686 386.400 C 167.681 386.510,167.941 386.843,168.265 387.141 C 168.766 387.601,168.835 387.578,168.727 386.982 C 168.657 386.598,168.850 386.196,169.157 386.089 C 169.567 385.946,169.661 386.166,169.516 386.928 C 169.388 387.598,169.519 388.037,169.892 388.180 C 170.742 388.506,170.874 388.453,170.594 387.900 C 170.455 387.625,170.579 387.677,170.870 388.016 C 171.162 388.354,171.819 388.659,172.332 388.693 C 173.439 388.767,174.400 389.485,174.400 390.239 C 174.400 390.536,174.935 391.056,175.589 391.394 C 176.643 391.939,176.752 391.940,176.546 391.405 C 176.399 391.022,176.547 390.800,176.950 390.800 C 177.299 390.800,177.695 391.240,177.830 391.778 C 178.125 392.952,181.809 395.096,182.144 394.288 C 182.264 393.999,182.455 394.156,182.612 394.672 C 182.905 395.631,184.102 396.295,184.326 395.623 C 184.509 395.072,185.600 395.072,185.600 395.624 C 185.600 395.857,185.422 395.937,185.205 395.803 C 184.978 395.663,184.911 395.823,185.047 396.179 C 185.178 396.521,185.536 396.800,185.843 396.800 C 186.149 396.800,186.400 396.991,186.400 397.224 C 186.400 397.457,186.580 397.536,186.800 397.400 C 187.020 397.264,187.200 397.327,187.200 397.539 C 187.200 397.751,187.605 397.836,188.100 397.728 C 188.765 397.582,188.856 397.633,188.447 397.922 C 187.808 398.373,189.263 399.031,190.503 398.851 C 190.889 398.795,191.305 399.009,191.428 399.328 C 191.594 399.763,192.488 399.921,195.024 399.964 L 198.398 400.021 198.499 323.311 L 198.600 246.600 225.928 246.600 L 253.255 246.600 256.368 253.800 C 258.080 257.760,263.759 270.900,268.988 283.000 C 274.217 295.100,278.677 305.227,278.900 305.504 C 279.574 306.343,320.146 306.022,320.309 305.176 C 320.375 304.834,319.633 302.854,318.660 300.776 C 317.686 298.699,315.520 294.075,313.845 290.500 C 312.170 286.925,309.426 281.075,307.746 277.500 C 306.066 273.925,303.661 268.750,302.400 266.000 C 301.139 263.250,294.931 249.930,288.605 236.400 C 282.279 222.870,276.605 210.720,275.997 209.400 C 275.388 208.080,272.886 202.718,270.437 197.485 C 264.901 185.654,263.777 183.247,260.403 176.000 C 258.918 172.810,255.678 165.880,253.203 160.600 C 250.727 155.320,248.206 149.920,247.599 148.600 C 246.992 147.280,241.413 135.310,235.202 122.000 C 228.990 108.690,223.409 96.720,222.799 95.400 C 222.189 94.080,219.043 87.330,215.808 80.400 C 212.573 73.470,207.573 62.760,204.698 56.600 C 201.822 50.440,199.228 45.045,198.934 44.611 C 198.505 43.976,198.400 39.533,198.400 21.911 L 198.400 0.000 195.933 0.000 C 194.577 0.000,193.585 0.118,193.730 0.263 M207.500 1.500 C 206.470 1.734,206.648 2.213,207.800 2.308 C 208.350 2.354,208.800 2.224,208.800 2.019 C 208.800 1.502,208.325 1.312,207.500 1.500 M210.228 2.355 C 210.107 2.550,210.277 2.932,210.604 3.204 C 211.100 3.615,211.200 3.555,211.200 2.849 C 211.200 1.991,210.632 1.702,210.228 2.355 M218.678 5.577 C 218.796 6.030,219.036 6.400,219.211 6.400 C 219.682 6.400,219.402 5.067,218.897 4.899 C 218.637 4.812,218.549 5.084,218.678 5.577 M221.469 5.990 C 221.727 6.269,221.842 6.746,221.726 7.049 C 221.610 7.352,221.714 7.600,221.957 7.600 C 222.201 7.600,222.400 7.400,222.400 7.157 C 222.400 6.729,223.420 6.849,225.028 7.466 C 225.468 7.635,225.635 7.580,225.474 7.320 C 225.332 7.091,224.628 6.765,223.908 6.596 C 223.189 6.427,222.510 6.266,222.400 6.238 C 222.290 6.210,221.930 6.029,221.600 5.835 C 221.129 5.558,221.101 5.592,221.469 5.990 M239.876 12.276 C 239.753 12.475,239.798 12.874,239.976 13.162 C 240.154 13.450,240.401 13.523,240.524 13.324 C 240.647 13.125,240.602 12.726,240.424 12.438 C 240.246 12.150,239.999 12.077,239.876 12.276 M248.400 15.400 C 248.950 15.714,249.760 15.971,250.200 15.970 C 250.752 15.969,250.583 15.788,249.654 15.384 C 247.937 14.639,247.087 14.650,248.400 15.400 M263.134 20.636 C 263.821 21.119,264.185 21.175,264.514 20.846 C 264.759 20.601,264.789 20.387,264.580 20.370 C 264.371 20.354,263.750 20.259,263.200 20.160 L 262.200 19.979 263.134 20.636 M324.400 41.191 C 324.400 41.365,324.845 41.592,325.388 41.696 C 325.931 41.799,326.294 41.752,326.194 41.590 C 325.928 41.160,324.400 40.820,324.400 41.191 M199.080 46.100 C 199.288 46.375,202.133 52.360,205.403 59.400 C 215.496 81.131,219.475 89.664,245.602 145.600 C 259.526 175.410,272.844 203.940,275.198 209.000 C 279.655 218.580,300.697 263.659,310.581 284.800 C 313.717 291.510,317.052 298.657,317.992 300.682 C 318.931 302.707,319.593 304.642,319.462 304.982 C 319.204 305.654,280.763 305.946,279.721 305.283 C 279.126 304.905,278.277 303.050,271.258 286.800 C 268.170 279.650,262.955 267.590,259.671 260.000 L 253.700 246.200 201.300 246.099 C 159.678 246.018,148.819 246.100,148.505 246.499 C 148.287 246.774,147.376 248.890,146.480 251.200 C 140.865 265.674,125.194 304.156,124.820 304.388 C 124.066 304.854,82.018 305.778,81.578 305.338 C 81.138 304.898,79.920 307.662,109.498 242.000 C 153.920 143.383,190.252 62.669,193.488 55.411 C 198.215 44.808,198.166 44.890,199.080 46.100 M391.424 67.639 C 391.528 67.807,391.430 68.058,391.207 68.196 C 390.569 68.590,390.731 70.288,391.433 70.557 C 392.420 70.936,392.439 70.904,392.316 69.067 C 392.248 68.045,392.002 67.333,391.718 67.333 C 391.452 67.333,391.320 67.471,391.424 67.639 M390.500 75.327 C 390.005 76.055,389.600 76.964,389.600 77.347 C 389.600 78.788,391.366 76.945,391.465 75.401 C 391.574 73.699,391.607 73.701,390.500 75.327 M390.493 81.200 C 390.493 81.970,390.575 82.285,390.676 81.900 C 390.776 81.515,390.776 80.885,390.676 80.500 C 390.575 80.115,390.493 80.430,390.493 81.200 M389.076 83.367 C 388.764 84.294,389.252 85.183,389.797 84.678 C 390.174 84.328,390.190 84.122,389.856 83.906 C 389.528 83.694,389.540 83.611,389.900 83.606 C 390.175 83.603,390.400 83.450,390.400 83.267 C 390.400 82.774,389.246 82.861,389.076 83.367 M389.443 87.368 C 389.563 87.680,389.363 88.390,388.999 88.945 C 388.031 90.422,387.765 92.465,388.581 92.152 C 389.054 91.970,389.149 92.094,388.967 92.655 C 388.766 93.272,388.799 93.296,389.156 92.800 C 389.699 92.046,389.732 91.071,389.205 91.397 C 388.978 91.537,388.911 91.377,389.047 91.021 C 389.178 90.679,389.446 90.400,389.643 90.400 C 389.839 90.400,390.000 89.590,390.000 88.600 C 390.000 87.610,389.826 86.800,389.613 86.800 C 389.399 86.800,389.323 87.055,389.443 87.368 M387.433 96.658 C 386.898 98.053,387.169 99.133,388.000 98.916 C 388.889 98.683,389.076 97.779,388.300 97.464 C 387.909 97.305,387.916 97.179,388.334 96.886 C 388.770 96.579,388.758 96.469,388.267 96.281 C 387.929 96.151,387.564 96.317,387.433 96.658 M387.100 103.687 C 386.715 104.168,386.400 104.899,386.400 105.311 C 386.400 106.849,387.794 105.894,387.883 104.295 C 387.981 102.544,388.001 102.560,387.100 103.687 M385.417 112.299 C 385.095 113.139,385.149 113.279,385.668 112.958 C 385.995 112.756,386.048 112.900,385.844 113.434 C 385.612 114.043,385.654 114.099,386.050 113.706 C 386.719 113.042,386.782 111.733,386.145 111.733 C 385.864 111.733,385.537 111.988,385.417 112.299 M386.062 115.600 C 386.022 116.150,385.877 117.050,385.740 117.600 C 385.549 118.368,385.603 118.496,385.973 118.153 C 386.251 117.894,386.387 117.050,386.295 116.153 C 386.204 115.274,386.103 115.034,386.062 115.600 M384.534 118.627 C 384.402 118.972,384.498 119.458,384.747 119.707 C 385.084 120.044,385.200 119.884,385.200 119.080 C 385.200 117.877,384.901 117.673,384.534 118.627 M385.180 122.690 C 385.071 123.619,385.133 124.227,385.320 124.040 C 385.506 123.854,385.596 123.094,385.519 122.351 C 385.383 121.033,385.375 121.042,385.180 122.690 M383.827 125.875 C 383.521 126.670,383.626 126.765,384.458 126.450 C 384.996 126.246,385.021 126.112,384.594 125.718 C 384.183 125.338,384.020 125.371,383.827 125.875 M197.867 130.300 C 197.707 130.566,188.430 152.747,170.556 195.598 C 167.390 203.188,164.800 209.713,164.800 210.098 C 164.800 210.762,166.770 210.800,201.200 210.800 C 242.560 210.800,238.560 211.191,236.637 207.333 C 234.040 202.123,200.220 132.428,199.741 131.300 C 199.230 130.096,198.291 129.595,197.867 130.300 M204.860 143.223 C 207.896 149.481,212.083 158.110,214.165 162.400 C 216.247 166.690,219.295 172.990,220.938 176.400 C 222.582 179.810,226.899 188.715,230.532 196.188 C 234.165 203.662,237.051 209.917,236.945 210.088 C 236.607 210.636,199.431 210.471,198.880 209.920 C 198.191 209.231,198.181 131.460,198.870 131.690 C 199.129 131.776,201.824 136.966,204.860 143.223 M383.377 132.967 C 382.950 133.279,382.710 133.644,382.843 133.777 C 383.239 134.172,384.400 133.560,384.400 132.957 C 384.400 132.265,384.336 132.266,383.377 132.967 M382.498 139.775 C 381.655 140.164,381.403 140.938,382.165 140.796 C 382.355 140.761,382.642 140.944,382.802 141.204 C 382.986 141.501,383.195 141.273,383.367 140.591 C 383.694 139.286,383.649 139.245,382.498 139.775 M382.460 144.067 C 382.427 144.654,382.296 145.464,382.170 145.867 C 381.952 146.560,381.965 146.561,382.395 145.890 C 382.646 145.499,382.777 144.689,382.686 144.090 L 382.520 143.000 382.460 144.067 M381.567 150.700 C 381.548 151.085,381.488 151.805,381.434 152.300 C 381.379 152.795,381.484 153.200,381.667 153.200 C 381.850 153.200,382.000 152.480,382.000 151.600 C 382.000 150.049,381.634 149.289,381.567 150.700 M380.561 155.416 C 380.688 156.279,381.076 156.499,381.325 155.850 C 381.449 155.529,381.309 155.174,381.014 155.061 C 380.708 154.943,380.514 155.095,380.561 155.416 M379.800 162.162 C 379.800 163.273,380.206 163.185,380.514 162.006 C 380.636 161.541,380.529 161.200,380.263 161.200 C 380.008 161.200,379.800 161.633,379.800 162.162 M379.028 168.369 C 378.264 169.213,378.551 169.472,379.549 168.840 C 379.851 168.649,380.026 168.278,379.939 168.016 C 379.836 167.707,379.513 167.833,379.028 168.369 M378.669 173.140 C 378.775 173.548,378.578 174.165,378.231 174.512 C 377.544 175.198,377.375 175.786,377.970 175.419 C 378.173 175.293,378.423 175.507,378.525 175.895 C 378.649 176.365,378.718 176.267,378.733 175.600 C 378.746 175.050,378.877 174.105,379.024 173.500 C 379.185 172.842,379.129 172.400,378.884 172.400 C 378.659 172.400,378.562 172.733,378.669 173.140 M378.067 179.067 C 378.030 179.764,377.884 180.664,377.741 181.067 C 377.543 181.628,377.597 181.695,377.968 181.353 C 378.252 181.092,378.388 180.258,378.295 179.353 C 378.152 177.973,378.127 177.942,378.067 179.067 M377.293 185.600 C 377.293 186.370,377.375 186.685,377.476 186.300 C 377.576 185.915,377.576 185.285,377.476 184.900 C 377.375 184.515,377.293 184.830,377.293 185.600 M374.493 207.200 C 374.493 207.970,374.575 208.285,374.676 207.900 C 374.776 207.515,374.776 206.885,374.676 206.500 C 374.575 206.115,374.493 206.430,374.493 207.200 M373.701 214.600 C 373.705 215.480,373.787 215.793,373.883 215.295 C 373.979 214.798,373.975 214.078,373.875 213.695 C 373.775 213.313,373.696 213.720,373.701 214.600 M370.064 242.267 C 370.029 242.964,369.896 243.864,369.770 244.267 C 369.553 244.959,369.565 244.960,369.994 244.291 C 370.245 243.902,370.377 243.002,370.289 242.291 L 370.128 241.000 370.064 242.267 M369.168 248.900 C 369.049 249.760,369.110 250.250,369.312 250.048 C 369.505 249.855,369.598 249.181,369.519 248.549 C 369.387 247.491,369.359 247.519,369.168 248.900 M365.701 277.400 C 365.705 278.280,365.787 278.593,365.883 278.095 C 365.979 277.598,365.975 276.878,365.875 276.495 C 365.775 276.113,365.696 276.520,365.701 277.400 M362.101 305.400 C 362.105 306.280,362.187 306.593,362.283 306.095 C 362.379 305.598,362.375 304.878,362.275 304.495 C 362.175 304.113,362.096 304.520,362.101 305.400 M41.200 317.024 C 41.200 317.110,41.760 317.469,42.444 317.823 C 43.344 318.288,43.642 318.325,43.518 317.955 C 43.367 317.502,41.200 316.632,41.200 317.024 M221.200 390.800 C 221.200 391.020,220.930 391.200,220.600 391.200 C 220.270 391.200,220.000 391.385,220.000 391.610 C 220.000 391.844,220.517 391.753,221.200 391.400 C 222.524 390.715,222.713 390.400,221.800 390.400 C 221.470 390.400,221.200 390.580,221.200 390.800 " stroke="none" fill="#ffffff" fill-rule="evenodd"></path><path id="path1" d="M192.079 0.272 C 191.690 0.428,191.740 0.614,192.278 1.007 C 192.780 1.375,193.148 1.409,193.494 1.122 C 194.429 0.346,193.415 -0.263,192.079 0.272 M198.400 21.950 C 198.400 39.539,198.505 43.976,198.934 44.611 C 199.228 45.045,201.822 50.440,204.698 56.600 C 207.573 62.760,212.573 73.470,215.808 80.400 C 219.043 87.330,222.189 94.080,222.799 95.400 C 223.409 96.720,228.990 108.690,235.202 122.000 C 241.413 135.310,246.992 147.280,247.599 148.600 C 248.206 149.920,250.727 155.320,253.203 160.600 C 255.678 165.880,258.918 172.810,260.403 176.000 C 263.777 183.247,264.901 185.654,270.437 197.485 C 272.886 202.718,275.388 208.080,275.997 209.400 C 276.605 210.720,282.279 222.870,288.605 236.400 C 294.931 249.930,301.139 263.250,302.400 266.000 C 303.661 268.750,306.066 273.925,307.746 277.500 C 309.426 281.075,312.170 286.925,313.845 290.500 C 315.520 294.075,317.686 298.699,318.660 300.776 C 319.633 302.854,320.375 304.834,320.309 305.176 C 320.146 306.022,279.574 306.343,278.900 305.504 C 278.677 305.227,274.217 295.100,268.988 283.000 C 263.759 270.900,258.080 257.760,256.368 253.800 L 253.255 246.600 225.928 246.600 L 198.600 246.600 198.499 323.300 L 198.398 400.000 201.724 400.000 C 204.231 400.000,205.457 399.803,206.706 399.200 C 207.616 398.760,208.550 398.400,208.781 398.400 C 209.011 398.400,209.200 398.220,209.200 398.000 C 209.200 397.780,209.335 397.621,209.500 397.647 C 210.297 397.773,210.802 397.501,211.953 396.324 C 212.721 395.538,213.202 395.269,213.206 395.624 C 213.210 395.993,213.318 396.046,213.506 395.771 C 213.668 395.535,214.134 395.218,214.542 395.067 C 215.023 394.889,215.195 394.564,215.032 394.140 C 214.832 393.618,214.894 393.580,215.340 393.950 C 215.896 394.411,217.200 394.181,217.200 393.621 C 217.200 393.284,219.250 392.226,219.700 392.330 C 219.865 392.369,220.000 392.130,220.000 391.800 C 220.000 391.470,220.270 391.200,220.600 391.200 C 220.930 391.200,221.200 391.020,221.200 390.800 C 221.200 390.580,221.551 390.400,221.980 390.400 C 222.409 390.400,222.944 390.085,223.168 389.700 C 223.444 389.225,223.580 389.177,223.588 389.549 C 223.598 389.992,223.716 390.001,224.200 389.600 C 224.530 389.326,224.806 389.259,224.813 389.451 C 224.820 389.643,225.090 389.451,225.413 389.024 C 225.736 388.596,226.000 388.384,226.000 388.552 C 226.000 388.720,226.285 388.573,226.632 388.225 C 226.980 387.877,227.430 387.695,227.632 387.820 C 227.835 387.945,228.000 387.857,228.000 387.624 C 228.000 387.391,228.270 387.200,228.600 387.200 C 228.930 387.200,229.200 386.919,229.200 386.576 C 229.200 386.233,229.348 386.044,229.529 386.156 C 229.709 386.268,230.360 386.098,230.974 385.780 C 231.589 385.461,232.279 385.200,232.508 385.200 C 232.737 385.200,233.504 384.758,234.213 384.217 C 234.921 383.677,235.613 383.347,235.751 383.484 C 235.888 383.621,236.000 383.523,236.000 383.267 C 236.000 383.010,236.270 382.800,236.600 382.800 C 236.930 382.800,237.200 382.609,237.200 382.376 C 237.200 382.143,237.380 382.064,237.600 382.200 C 237.820 382.336,238.000 382.301,238.000 382.123 C 238.000 381.945,239.125 381.269,240.500 380.622 C 241.875 379.975,243.238 379.210,243.529 378.923 C 243.819 378.635,244.325 378.400,244.652 378.400 C 244.979 378.400,245.142 378.229,245.012 378.020 C 244.883 377.811,245.413 377.521,246.189 377.376 C 246.999 377.224,247.600 376.874,247.600 376.555 C 247.600 376.053,248.092 375.825,248.900 375.953 C 249.065 375.979,249.200 375.809,249.200 375.576 C 249.200 375.343,249.397 375.275,249.638 375.424 C 249.879 375.572,250.592 375.313,251.222 374.847 C 251.852 374.381,252.555 374.000,252.784 374.000 C 253.013 374.000,253.200 373.847,253.200 373.661 C 253.200 373.474,253.920 372.997,254.800 372.600 C 255.680 372.203,256.400 371.726,256.400 371.539 C 256.400 371.353,256.850 371.200,257.400 371.200 C 257.950 371.200,258.400 371.020,258.400 370.800 C 258.400 370.580,258.648 370.400,258.951 370.400 C 259.254 370.400,259.724 370.132,259.996 369.804 C 260.268 369.477,260.650 369.307,260.845 369.428 C 261.040 369.549,261.200 369.457,261.200 369.224 C 261.200 368.991,261.481 368.800,261.824 368.800 C 262.167 368.800,262.348 368.640,262.227 368.444 C 262.106 368.248,262.631 367.971,263.393 367.828 C 264.155 367.685,264.918 367.322,265.089 367.022 C 265.260 366.722,265.760 366.414,266.200 366.338 C 266.640 366.262,267.349 365.885,267.775 365.500 C 268.202 365.115,268.794 364.800,269.092 364.800 C 269.390 364.800,270.031 364.428,270.517 363.973 C 271.003 363.517,271.895 363.045,272.500 362.923 C 273.105 362.800,273.600 362.543,273.600 362.350 C 273.600 362.158,273.945 362.000,274.367 362.000 C 274.788 362.000,275.193 361.834,275.267 361.630 C 275.340 361.427,275.670 361.202,276.000 361.130 C 276.330 361.059,276.690 360.909,276.800 360.798 C 277.678 359.909,280.072 358.400,280.602 358.400 C 280.962 358.400,281.529 358.128,281.861 357.796 C 282.193 357.464,282.630 357.295,282.832 357.420 C 283.035 357.545,283.200 357.478,283.200 357.270 C 283.200 357.063,283.515 356.778,283.900 356.637 C 285.027 356.223,286.950 355.107,287.525 354.532 C 287.818 354.239,288.327 354.000,288.657 354.000 C 288.987 354.000,289.529 353.728,289.861 353.396 C 290.193 353.064,290.596 352.874,290.757 352.974 C 290.918 353.073,291.562 352.715,292.187 352.177 C 292.813 351.640,293.566 351.200,293.862 351.200 C 294.158 351.200,294.400 351.020,294.400 350.800 C 294.400 350.580,294.760 350.400,295.200 350.400 C 295.640 350.400,296.000 350.220,296.000 350.000 C 296.000 349.780,296.360 349.600,296.800 349.600 C 297.240 349.600,297.600 349.420,297.600 349.200 C 297.600 348.980,297.857 348.800,298.171 348.800 C 298.486 348.800,299.007 348.536,299.329 348.214 C 299.652 347.891,300.655 347.332,301.558 346.970 C 302.461 346.609,303.200 346.175,303.200 346.006 C 303.200 345.837,304.145 345.294,305.300 344.799 C 306.455 344.304,307.490 343.765,307.600 343.601 C 307.710 343.437,308.687 342.900,309.771 342.409 C 310.855 341.918,311.993 341.264,312.299 340.958 C 312.606 340.651,313.114 340.400,313.429 340.400 C 313.743 340.400,314.000 340.209,314.000 339.976 C 314.000 339.743,314.165 339.655,314.368 339.780 C 314.570 339.905,314.982 339.761,315.283 339.460 C 315.584 339.159,316.683 338.535,317.726 338.074 C 318.769 337.613,319.900 336.957,320.239 336.618 C 320.579 336.278,321.114 336.000,321.429 336.000 C 321.743 336.000,322.000 335.809,322.000 335.576 C 322.000 335.343,322.165 335.255,322.368 335.380 C 322.570 335.505,323.006 335.336,323.338 335.005 C 323.669 334.674,324.358 334.223,324.870 334.003 C 326.059 333.490,327.331 332.694,327.645 332.266 C 327.779 332.082,328.004 331.947,328.145 331.966 C 328.863 332.062,329.191 331.952,329.697 331.446 C 330.002 331.141,331.230 330.411,332.426 329.823 C 336.516 327.814,337.800 327.105,338.040 326.726 C 338.172 326.518,338.533 326.310,338.843 326.264 C 339.152 326.219,339.849 325.871,340.392 325.491 C 340.934 325.111,341.608 324.800,341.889 324.800 C 342.170 324.800,342.400 324.634,342.400 324.431 C 342.400 324.228,343.032 323.854,343.804 323.599 C 344.576 323.344,345.479 322.864,345.812 322.531 C 346.144 322.199,346.674 321.889,346.989 321.843 C 347.304 321.797,347.885 321.467,348.281 321.111 C 348.676 320.755,349.270 320.404,349.600 320.332 C 349.930 320.259,350.773 319.795,351.473 319.300 C 352.174 318.805,352.951 318.400,353.202 318.400 C 353.452 318.400,353.929 318.128,354.261 317.796 C 354.593 317.464,354.996 317.274,355.157 317.374 C 355.318 317.473,355.957 317.119,356.577 316.586 C 357.197 316.053,357.861 315.714,358.052 315.832 C 358.243 315.950,358.400 315.846,358.400 315.600 C 358.400 315.354,358.580 315.264,358.800 315.400 C 359.020 315.536,359.200 315.457,359.200 315.224 C 359.200 314.991,359.448 314.800,359.751 314.800 C 360.619 314.800,361.228 313.802,361.376 312.135 C 361.451 311.291,361.640 310.060,361.795 309.400 C 361.950 308.740,362.122 307.210,362.176 306.000 C 362.231 304.790,362.406 303.350,362.565 302.800 C 362.725 302.250,362.946 300.549,363.057 299.019 C 363.168 297.490,363.395 295.960,363.562 295.619 C 363.729 295.279,363.910 293.562,363.964 291.805 C 364.017 290.047,364.195 288.517,364.358 288.405 C 364.521 288.292,364.667 287.181,364.682 285.935 C 364.697 284.689,364.822 283.488,364.959 283.267 C 365.343 282.645,365.624 280.480,365.721 277.400 C 365.769 275.860,365.954 274.373,366.130 274.096 C 366.307 273.819,366.520 272.153,366.604 270.393 C 366.688 268.634,366.895 266.970,367.064 266.697 C 367.234 266.424,367.423 264.861,367.485 263.224 C 367.555 261.387,367.790 260.127,368.099 259.930 C 368.487 259.684,368.476 259.611,368.051 259.606 C 367.674 259.602,367.622 259.443,367.886 259.100 C 368.097 258.825,368.307 257.790,368.353 256.800 C 368.399 255.810,368.699 253.984,369.019 252.742 C 369.696 250.112,369.717 249.880,369.256 250.166 C 368.945 250.358,369.173 248.714,369.750 246.600 C 370.434 244.093,370.473 243.795,370.035 244.400 C 369.559 245.059,369.695 243.766,370.456 240.400 C 370.680 239.410,370.935 237.496,371.023 236.147 C 371.112 234.798,371.363 233.223,371.582 232.647 C 371.862 231.912,371.849 231.600,371.541 231.600 C 371.253 231.600,371.233 231.428,371.483 231.100 C 371.693 230.825,371.901 229.437,371.946 228.015 C 371.991 226.593,372.163 225.333,372.327 225.215 C 372.492 225.097,372.644 224.100,372.665 223.000 C 372.686 221.900,372.837 220.677,373.001 220.283 C 373.165 219.888,373.203 219.470,373.086 219.353 C 372.969 219.236,373.041 218.568,373.246 217.870 C 373.554 216.820,373.878 213.892,374.128 209.900 C 374.152 209.515,374.302 209.200,374.461 209.200 C 374.620 209.200,374.659 208.615,374.548 207.900 C 374.436 207.185,374.628 205.812,374.973 204.850 C 375.723 202.757,375.731 202.672,375.138 203.038 C 374.836 203.225,374.786 203.147,374.993 202.811 C 375.167 202.530,375.381 201.287,375.468 200.050 C 375.659 197.327,375.752 196.720,376.058 196.200 C 376.187 195.980,376.322 194.739,376.358 193.442 C 376.395 192.146,376.548 190.886,376.700 190.642 C 377.080 190.033,377.271 188.524,377.226 186.471 C 377.205 185.521,377.325 184.531,377.491 184.271 C 377.658 184.012,377.802 183.440,377.811 183.000 C 377.820 182.560,377.984 181.947,378.175 181.638 C 378.424 181.237,378.379 181.166,378.019 181.388 C 377.660 181.610,377.578 181.484,377.733 180.950 C 377.854 180.538,378.075 179.120,378.226 177.800 C 378.376 176.480,378.660 175.197,378.858 174.949 C 379.072 174.680,379.056 174.074,378.818 173.449 C 378.578 172.816,378.568 172.400,378.794 172.400 C 378.999 172.400,379.145 171.905,379.117 171.300 C 379.089 170.695,379.207 169.883,379.378 169.495 C 379.629 168.926,379.546 168.843,378.945 169.060 C 378.292 169.295,378.309 169.208,379.077 168.363 C 379.838 167.525,379.943 166.991,379.877 164.299 C 379.820 162.013,379.934 161.200,380.310 161.200 C 380.668 161.200,380.780 160.665,380.686 159.408 C 380.612 158.423,380.729 157.557,380.947 157.484 C 381.184 157.405,381.210 157.038,381.012 156.576 C 380.448 155.260,380.456 154.846,381.039 155.070 C 381.348 155.189,381.600 155.101,381.600 154.876 C 381.600 154.651,381.375 154.376,381.100 154.265 C 380.801 154.144,380.882 154.050,381.300 154.032 C 381.980 154.001,382.333 153.200,381.667 153.200 C 381.293 153.200,381.317 152.611,381.796 150.000 C 381.978 149.010,382.173 147.840,382.230 147.400 C 382.287 146.960,382.359 146.600,382.390 146.600 C 382.421 146.600,382.518 145.298,382.605 143.706 C 382.712 141.767,382.621 140.843,382.332 140.906 C 381.484 141.091,381.614 140.184,382.491 139.795 C 383.252 139.459,383.399 139.051,383.476 137.061 C 383.526 135.774,383.798 134.443,384.080 134.103 C 384.525 133.568,384.473 133.523,383.697 133.769 C 382.571 134.127,382.497 133.390,383.600 132.800 C 384.040 132.565,384.400 132.188,384.400 131.962 C 384.400 131.737,384.175 131.688,383.900 131.853 C 383.520 132.082,383.524 132.001,383.915 131.517 C 384.199 131.168,384.386 130.222,384.332 129.416 C 384.269 128.479,384.443 127.817,384.817 127.581 C 385.324 127.261,385.321 127.211,384.800 127.200 C 384.267 127.189,384.267 127.140,384.800 126.759 C 385.278 126.417,385.211 126.372,384.468 126.536 C 383.756 126.693,383.591 126.599,383.768 126.138 C 383.896 125.806,384.003 125.414,384.006 125.267 C 384.009 125.120,384.189 125.270,384.406 125.600 C 384.756 126.133,384.844 126.133,385.194 125.600 C 385.677 124.864,385.725 123.876,385.263 124.161 C 384.852 124.415,385.449 120.162,386.006 118.875 C 386.274 118.254,386.273 118.031,386.003 118.198 C 385.512 118.502,385.512 118.573,385.989 116.058 C 386.387 113.961,386.198 112.631,385.558 113.026 C 385.105 113.306,385.105 112.769,385.559 112.052 C 385.843 111.605,385.978 111.632,386.294 112.196 C 386.876 113.236,387.296 111.905,386.799 110.597 C 386.548 109.936,386.558 109.600,386.830 109.600 C 387.068 109.600,387.173 108.934,387.081 108.014 C 386.994 107.142,387.075 106.523,387.261 106.638 C 387.448 106.753,387.600 106.657,387.600 106.424 C 387.600 106.191,387.330 106.000,387.000 106.000 C 386.197 106.000,386.236 104.621,387.063 103.794 C 387.428 103.429,387.795 102.381,387.877 101.465 C 387.960 100.549,388.114 99.555,388.218 99.255 C 388.343 98.900,388.200 98.791,387.805 98.943 C 387.369 99.110,387.200 98.908,387.200 98.220 C 387.200 96.719,387.598 96.024,388.303 96.295 C 388.788 96.481,388.873 96.368,388.663 95.819 C 388.511 95.423,388.553 94.896,388.758 94.649 C 389.330 93.958,389.101 91.953,388.477 92.192 C 387.764 92.465,388.113 90.297,388.999 88.945 C 389.363 88.390,389.567 87.692,389.453 87.394 C 389.339 87.096,389.387 86.795,389.561 86.726 C 390.062 86.526,390.471 84.400,390.008 84.400 C 389.783 84.400,389.587 84.625,389.572 84.900 C 389.556 85.175,389.401 85.040,389.227 84.600 C 388.790 83.496,389.119 82.830,390.016 83.003 C 390.646 83.124,390.733 82.967,390.549 82.044 C 390.427 81.436,390.610 79.990,390.954 78.830 L 391.580 76.721 390.590 77.370 C 389.197 78.283,389.224 77.185,390.647 75.132 C 391.390 74.060,391.642 73.270,391.516 72.411 C 391.413 71.707,391.519 71.195,391.769 71.187 C 392.006 71.180,391.885 70.935,391.500 70.643 C 390.735 70.063,390.559 68.596,391.207 68.196 C 391.430 68.058,391.507 67.732,391.377 67.472 C 391.247 67.213,391.414 67.336,391.749 67.747 C 392.434 68.588,392.530 68.023,392.157 65.351 C 392.005 64.263,388.961 62.274,388.311 62.839 C 388.250 62.892,387.750 62.689,387.200 62.389 C 386.650 62.088,385.823 61.833,385.361 61.821 C 384.900 61.810,384.225 61.553,383.861 61.251 C 383.498 60.949,383.200 60.836,383.200 61.000 C 383.200 61.164,382.939 61.082,382.621 60.817 C 382.302 60.553,381.447 60.245,380.721 60.132 C 379.994 60.020,379.343 59.774,379.274 59.586 C 379.205 59.399,378.913 59.335,378.626 59.445 C 378.338 59.556,377.810 59.353,377.452 58.994 C 377.093 58.636,376.800 58.468,376.800 58.620 C 376.800 58.773,376.569 58.706,376.286 58.472 C 376.004 58.237,375.419 58.103,374.986 58.173 C 374.554 58.243,373.885 58.025,373.500 57.688 C 373.115 57.351,372.800 57.183,372.800 57.314 C 372.800 57.445,372.318 57.302,371.729 56.997 C 371.139 56.691,370.489 56.545,370.284 56.672 C 370.079 56.799,369.781 56.693,369.623 56.437 C 369.465 56.181,368.879 55.889,368.321 55.788 C 367.763 55.686,366.653 55.330,365.853 54.996 C 365.054 54.663,364.397 54.527,364.394 54.695 C 364.391 54.863,364.245 54.776,364.071 54.501 C 363.897 54.227,363.221 53.940,362.569 53.864 C 361.917 53.788,361.006 53.524,360.544 53.277 C 360.083 53.030,359.603 52.930,359.478 53.055 C 359.354 53.180,358.840 52.993,358.337 52.641 C 357.834 52.288,357.023 52.000,356.535 52.000 C 356.047 52.000,355.526 51.804,355.378 51.565 C 355.231 51.326,354.770 51.219,354.355 51.328 C 353.940 51.436,353.600 51.362,353.600 51.163 C 353.600 50.963,353.330 50.800,353.000 50.800 C 352.670 50.800,352.400 50.601,352.400 50.357 C 352.400 50.114,352.136 50.016,351.813 50.140 C 351.490 50.264,351.110 50.177,350.968 49.948 C 350.826 49.718,350.370 49.619,349.955 49.728 C 349.540 49.836,349.200 49.751,349.200 49.539 C 349.200 49.327,349.035 49.255,348.834 49.379 C 348.633 49.503,348.407 49.422,348.333 49.199 C 348.258 48.975,347.792 48.714,347.297 48.619 C 346.802 48.523,346.207 48.328,345.974 48.184 C 345.741 48.040,344.977 47.832,344.275 47.722 C 343.574 47.611,342.889 47.341,342.752 47.122 C 342.616 46.902,341.986 46.697,341.352 46.666 C 340.719 46.635,340.097 46.468,339.971 46.296 C 339.844 46.123,339.361 45.908,338.897 45.819 C 338.432 45.729,337.680 45.457,337.226 45.214 C 336.772 44.971,336.400 44.875,336.400 45.000 C 336.400 45.125,335.995 45.005,335.500 44.733 C 335.005 44.461,334.375 44.185,334.100 44.119 C 333.825 44.054,333.375 43.938,333.100 43.863 C 332.825 43.787,332.060 43.579,331.400 43.401 C 330.740 43.223,330.106 42.936,329.991 42.763 C 329.773 42.433,328.346 42.071,326.012 41.752 C 325.248 41.647,324.498 41.358,324.344 41.109 C 324.190 40.860,323.825 40.619,323.532 40.574 C 322.142 40.361,319.386 39.481,318.636 39.012 C 318.176 38.724,317.497 38.541,317.128 38.605 C 316.758 38.669,316.354 38.457,316.230 38.135 C 316.107 37.813,315.830 37.658,315.615 37.791 C 315.399 37.924,314.678 37.751,314.012 37.406 C 313.345 37.061,312.800 36.896,312.800 37.039 C 312.800 37.181,312.539 37.082,312.221 36.817 C 311.902 36.553,311.047 36.243,310.321 36.129 C 309.594 36.015,308.910 35.795,308.800 35.641 C 308.690 35.488,308.221 35.338,307.758 35.310 C 307.069 35.268,304.267 34.152,302.638 33.272 C 302.431 33.160,302.420 33.309,302.614 33.622 C 302.804 33.930,302.297 33.782,301.452 33.283 C 300.627 32.797,300.084 32.624,300.245 32.899 C 300.406 33.175,300.163 33.072,299.705 32.671 C 299.247 32.270,298.271 31.847,297.536 31.731 C 296.801 31.616,296.110 31.404,296.000 31.261 C 295.647 30.801,291.960 29.611,292.227 30.043 C 292.368 30.272,291.790 30.119,290.942 29.704 C 290.094 29.289,289.130 28.965,288.800 28.984 C 288.470 29.003,287.973 28.801,287.695 28.533 C 287.418 28.266,286.833 28.117,286.395 28.201 C 285.958 28.285,285.600 28.174,285.600 27.953 C 285.600 27.733,285.420 27.664,285.200 27.800 C 284.980 27.936,284.800 27.862,284.800 27.636 C 284.800 27.410,284.532 27.328,284.203 27.454 C 283.868 27.583,283.503 27.413,283.370 27.067 C 283.240 26.728,282.879 26.548,282.567 26.668 C 282.255 26.788,282.000 26.671,282.000 26.409 C 282.000 26.148,281.780 26.007,281.510 26.097 C 281.241 26.186,280.576 26.029,280.032 25.746 C 279.256 25.344,278.913 25.337,278.444 25.717 C 278.033 26.049,277.933 26.056,278.123 25.739 C 278.293 25.456,277.937 25.117,277.200 24.860 C 276.540 24.630,276.000 24.550,276.000 24.683 C 276.000 24.815,275.685 24.650,275.300 24.314 C 274.915 23.979,274.105 23.732,273.500 23.765 C 272.754 23.807,272.398 23.629,272.394 23.213 C 272.388 22.671,272.343 22.670,272.000 23.200 C 271.787 23.530,271.609 23.594,271.606 23.343 C 271.603 23.091,271.321 22.778,270.979 22.647 C 270.627 22.512,270.463 22.578,270.600 22.800 C 270.737 23.022,270.573 23.088,270.221 22.953 C 269.879 22.822,269.600 22.534,269.600 22.314 C 269.600 22.094,269.343 22.013,269.029 22.133 C 268.715 22.254,268.257 22.110,268.012 21.814 C 267.766 21.518,267.258 21.326,266.883 21.387 C 266.507 21.447,265.999 21.338,265.753 21.144 C 265.508 20.950,264.878 20.838,264.353 20.895 C 263.778 20.959,263.438 20.808,263.495 20.514 C 263.550 20.234,263.339 20.125,262.995 20.257 C 262.668 20.383,262.400 20.267,262.400 20.000 C 262.400 19.733,262.130 19.618,261.800 19.745 C 261.470 19.871,261.200 19.801,261.200 19.587 C 261.200 19.374,260.851 19.200,260.424 19.200 C 259.997 19.200,259.528 19.008,259.383 18.773 C 259.238 18.538,258.873 18.440,258.572 18.555 C 258.272 18.671,257.912 18.581,257.772 18.355 C 257.633 18.130,257.267 18.042,256.960 18.160 C 256.652 18.278,256.400 18.201,256.400 17.987 C 256.400 17.774,256.080 17.600,255.689 17.600 C 255.298 17.600,254.578 17.320,254.089 16.977 C 253.600 16.635,253.200 16.459,253.200 16.588 C 253.200 16.716,252.705 16.571,252.100 16.265 C 251.495 15.960,250.766 15.793,250.480 15.895 C 249.822 16.129,247.600 15.229,247.600 14.728 C 247.600 14.522,247.420 14.464,247.200 14.600 C 246.980 14.736,246.800 14.695,246.800 14.509 C 246.800 14.323,246.436 14.143,245.991 14.109 C 245.468 14.070,245.281 14.216,245.460 14.524 C 245.613 14.786,245.344 14.655,244.863 14.233 C 244.382 13.811,243.673 13.442,243.287 13.414 C 242.901 13.385,242.364 13.225,242.093 13.057 C 241.822 12.890,241.600 12.888,241.600 13.053 C 241.600 13.218,241.315 13.004,240.967 12.576 C 240.443 11.933,240.372 11.918,240.550 12.487 C 240.668 12.865,240.593 13.281,240.383 13.411 C 240.050 13.616,239.843 13.130,239.934 12.356 C 239.950 12.221,239.521 11.910,238.981 11.664 C 238.271 11.341,238.000 11.339,238.000 11.658 C 238.000 11.953,237.803 11.935,237.402 11.602 C 237.073 11.329,236.457 11.196,236.032 11.308 C 235.456 11.458,235.321 11.351,235.499 10.885 C 235.674 10.429,235.562 10.329,235.082 10.513 C 234.721 10.652,234.313 10.583,234.176 10.361 C 234.039 10.139,233.720 10.027,233.467 10.111 C 233.214 10.195,232.774 10.032,232.490 9.747 C 232.127 9.384,231.685 9.340,231.006 9.598 C 230.229 9.893,230.082 9.850,230.262 9.383 C 230.458 8.873,230.305 8.772,229.396 8.808 C 229.284 8.813,228.640 8.531,227.965 8.182 C 226.884 7.623,226.020 7.415,224.076 7.246 C 223.788 7.221,223.663 7.022,223.797 6.805 C 224.126 6.273,222.685 6.815,222.322 7.359 C 222.169 7.589,221.918 7.651,221.765 7.498 C 221.611 7.345,221.714 6.945,221.992 6.610 C 222.270 6.274,222.431 5.987,222.349 5.970 C 222.267 5.954,221.764 5.860,221.231 5.762 C 220.699 5.664,220.031 5.392,219.748 5.156 C 219.350 4.827,219.269 4.920,219.393 5.564 C 219.482 6.024,219.384 6.400,219.177 6.400 C 218.970 6.400,218.800 6.126,218.800 5.791 C 218.800 5.457,218.305 4.984,217.700 4.742 C 217.095 4.499,216.168 4.098,215.639 3.850 C 215.111 3.603,214.346 3.456,213.939 3.525 C 213.533 3.594,213.200 3.480,213.200 3.272 C 213.200 2.598,211.248 2.457,211.118 3.121 C 211.020 3.620,210.896 3.596,210.400 2.986 C 209.931 2.408,209.923 2.320,210.362 2.585 C 210.752 2.820,210.833 2.776,210.625 2.441 C 210.461 2.175,210.118 2.028,209.863 2.114 C 209.609 2.200,209.175 1.984,208.899 1.635 C 208.451 1.067,208.424 1.073,208.641 1.699 C 208.836 2.259,208.678 2.381,207.842 2.312 C 206.684 2.216,206.396 1.607,207.500 1.588 C 208.165 1.576,208.165 1.555,207.497 1.166 C 207.110 0.941,206.615 0.867,206.397 1.002 C 206.179 1.137,206.000 1.046,206.000 0.800 C 206.000 0.554,205.820 0.464,205.600 0.600 C 205.380 0.736,205.200 0.695,205.200 0.510 C 205.200 0.324,203.670 0.151,201.800 0.126 L 198.400 0.079 198.400 21.950 M189.845 1.428 C 189.648 1.939,189.921 2.400,190.420 2.400 C 190.578 2.400,190.793 2.070,190.898 1.667 C 191.113 0.845,190.152 0.627,189.845 1.428 M187.385 2.025 C 187.286 2.185,187.456 2.413,187.763 2.531 C 188.322 2.745,188.800 2.501,188.800 2.000 C 188.800 1.639,187.610 1.660,187.385 2.025 M178.800 5.187 C 178.800 5.401,178.548 5.478,178.240 5.360 C 177.512 5.081,177.155 5.680,177.611 6.417 C 177.910 6.902,178.066 6.866,178.571 6.198 C 179.183 5.388,179.364 4.800,179.000 4.800 C 178.890 4.800,178.800 4.974,178.800 5.187 M179.600 5.176 C 179.600 5.923,180.490 6.081,181.124 5.447 C 181.721 4.851,181.686 4.800,180.686 4.800 C 180.089 4.800,179.600 4.969,179.600 5.176 M175.200 6.600 C 175.200 6.967,175.394 7.202,175.630 7.123 C 175.867 7.044,176.060 6.809,176.060 6.600 C 176.060 6.391,175.867 6.155,175.630 6.077 C 175.394 5.998,175.200 6.233,175.200 6.600 M166.668 9.710 C 166.803 9.929,166.545 9.973,166.050 9.816 C 165.430 9.619,165.200 9.716,165.200 10.173 C 165.200 10.999,165.707 10.965,166.817 10.067 C 167.515 9.501,167.575 9.333,167.079 9.333 C 166.725 9.333,166.540 9.503,166.668 9.710 M152.803 14.389 C 152.354 14.674,152.320 14.880,152.666 15.226 C 153.012 15.572,153.237 15.478,153.577 14.843 C 154.059 13.943,153.773 13.776,152.803 14.389 M150.400 15.285 C 150.400 15.458,150.085 15.605,149.700 15.612 C 149.059 15.623,149.063 15.661,149.744 16.057 C 150.336 16.400,150.658 16.320,151.313 15.664 L 152.138 14.839 151.269 14.905 C 150.791 14.941,150.400 15.112,150.400 15.285 M140.700 18.703 C 140.315 18.789,140.000 19.036,140.000 19.253 C 140.000 19.470,139.820 19.536,139.600 19.400 C 139.380 19.264,139.200 19.247,139.200 19.362 C 139.200 20.170,140.806 20.336,141.216 19.571 C 141.733 18.604,141.664 18.489,140.700 18.703 M138.000 19.520 C 138.000 19.784,137.610 20.000,137.133 20.000 C 136.123 20.000,136.463 20.499,137.590 20.671 C 138.532 20.815,139.053 20.093,138.445 19.485 C 138.118 19.158,138.000 19.168,138.000 19.520 M135.076 21.095 C 134.616 21.555,134.400 21.609,134.400 21.262 C 134.400 20.982,134.220 20.864,134.000 21.000 C 133.277 21.447,133.582 21.957,134.471 21.786 C 135.417 21.604,136.266 20.932,135.950 20.616 C 135.841 20.508,135.448 20.723,135.076 21.095 M125.300 23.865 C 124.597 24.149,124.675 25.200,125.400 25.200 C 125.733 25.200,126.000 24.844,126.000 24.400 C 126.000 23.960,125.955 23.614,125.900 23.632 C 125.845 23.649,125.575 23.754,125.300 23.865 M115.208 27.595 C 114.711 27.902,114.730 27.998,115.328 28.228 C 116.163 28.548,116.708 28.148,116.170 27.610 C 115.943 27.383,115.561 27.377,115.208 27.595 M112.707 28.480 C 112.219 28.847,112.126 29.176,112.391 29.597 C 112.866 30.352,113.742 29.608,113.538 28.622 C 113.421 28.063,113.292 28.041,112.707 28.480 M109.833 29.500 C 109.668 29.665,109.338 29.800,109.100 29.800 C 108.862 29.800,108.593 30.070,108.503 30.400 C 108.372 30.878,108.416 30.891,108.714 30.466 C 109.181 29.802,109.620 29.785,110.011 30.417 C 110.378 31.011,111.200 30.569,111.200 29.776 C 111.200 29.167,110.340 28.993,109.833 29.500 M97.450 33.919 C 97.134 34.431,97.867 35.329,98.355 35.028 C 98.997 34.631,98.902 33.600,98.224 33.600 C 97.907 33.600,97.558 33.744,97.450 33.919 M84.972 38.445 C 84.821 38.689,84.941 39.040,85.238 39.224 C 85.808 39.576,86.502 38.888,86.150 38.319 C 85.869 37.864,85.294 37.925,84.972 38.445 M81.743 39.636 C 81.051 39.837,80.372 40.296,80.233 40.657 C 80.048 41.141,80.116 41.213,80.491 40.932 C 80.771 40.722,81.270 40.574,81.600 40.602 C 82.407 40.671,83.600 40.064,83.600 39.586 C 83.600 39.140,83.443 39.144,81.743 39.636 M77.823 41.033 C 77.174 41.507,77.154 41.600,77.700 41.600 C 78.059 41.600,78.471 41.408,78.616 41.173 C 79.040 40.487,78.661 40.420,77.823 41.033 M73.646 42.272 C 73.621 42.532,73.265 42.802,72.855 42.872 C 72.332 42.962,72.186 43.212,72.364 43.711 C 72.729 44.734,74.167 43.662,73.890 42.574 C 73.781 42.148,73.672 42.012,73.646 42.272 M69.653 43.772 C 68.883 44.184,68.833 44.329,69.321 44.735 C 69.959 45.264,71.347 44.881,71.487 44.138 C 71.622 43.425,70.660 43.233,69.653 43.772 M65.873 45.353 C 65.723 45.745,65.600 46.125,65.600 46.197 C 65.600 46.526,66.858 46.098,67.304 45.617 C 67.706 45.183,67.673 45.127,67.126 45.319 C 66.755 45.449,66.383 45.349,66.299 45.098 C 66.214 44.843,66.025 44.957,65.873 45.353 M61.300 46.665 C 60.597 46.949,60.675 48.000,61.400 48.000 C 61.733 48.000,62.000 47.644,62.000 47.200 C 62.000 46.760,61.955 46.414,61.900 46.432 C 61.845 46.449,61.575 46.554,61.300 46.665 M57.300 48.397 C 56.118 49.357,56.164 49.590,57.491 49.349 C 58.856 49.102,58.953 49.001,58.537 48.263 C 58.245 47.746,58.080 47.764,57.300 48.397 M52.624 50.463 C 51.862 51.198,51.871 51.203,53.124 50.767 C 54.537 50.274,54.630 50.171,53.900 49.901 C 53.625 49.799,53.051 50.052,52.624 50.463 M50.946 50.598 C 50.819 50.926,50.547 51.091,50.341 50.963 C 50.134 50.836,49.722 50.933,49.425 51.180 C 49.127 51.426,48.663 51.577,48.392 51.514 C 47.678 51.349,47.459 52.260,48.149 52.525 C 48.958 52.835,51.375 51.514,51.518 50.683 C 51.662 49.842,51.259 49.781,50.946 50.598 M45.106 52.571 C 44.725 52.850,44.517 53.184,44.646 53.312 C 44.774 53.441,44.501 53.447,44.040 53.326 C 43.491 53.183,43.198 53.296,43.194 53.653 C 43.189 54.113,43.133 54.113,42.844 53.657 C 42.623 53.309,42.409 53.263,42.244 53.528 C 41.883 54.113,43.395 54.509,44.804 54.199 C 46.184 53.896,46.572 53.435,46.122 52.634 C 45.858 52.166,45.675 52.154,45.106 52.571 M40.076 54.436 C 40.280 55.055,42.400 55.472,42.400 54.893 C 42.400 54.695,42.175 54.525,41.900 54.514 C 41.625 54.504,41.060 54.355,40.645 54.184 C 40.089 53.954,39.940 54.021,40.076 54.436 M38.308 55.025 C 38.160 55.174,38.308 55.565,38.638 55.895 C 38.968 56.225,39.318 56.416,39.415 56.318 C 39.512 56.221,39.364 55.830,39.085 55.448 C 38.806 55.067,38.457 54.877,38.308 55.025 M35.364 56.058 C 35.004 56.640,36.096 56.876,36.638 56.333 C 37.121 55.851,37.083 55.771,36.371 55.771 C 35.914 55.771,35.462 55.900,35.364 56.058 M32.172 57.359 C 31.549 57.813,31.187 57.945,31.368 57.652 C 31.641 57.210,31.537 57.210,30.748 57.650 C 30.227 57.941,29.368 58.220,28.839 58.270 C 27.362 58.410,27.069 58.995,28.178 59.588 C 29.013 60.035,29.280 60.031,29.842 59.560 C 30.210 59.252,31.327 58.820,32.323 58.600 C 33.729 58.290,34.149 58.013,34.196 57.367 C 34.273 56.311,33.614 56.308,32.172 57.359 M26.000 59.643 C 26.000 59.886,25.736 59.984,25.413 59.860 C 25.090 59.736,24.702 59.835,24.551 60.079 C 24.391 60.338,24.458 60.412,24.711 60.255 C 24.949 60.108,25.258 60.170,25.396 60.393 C 25.754 60.973,26.761 60.896,27.418 60.239 C 27.900 59.757,27.891 59.644,27.357 59.439 C 26.430 59.083,26.000 59.148,26.000 59.643 M22.169 60.927 C 21.746 61.166,21.087 61.371,20.705 61.381 C 19.623 61.411,19.854 62.185,20.988 62.327 C 21.675 62.413,22.000 62.262,22.000 61.856 C 22.000 61.422,22.336 61.301,23.228 61.414 C 24.016 61.513,24.403 61.408,24.307 61.120 C 24.099 60.497,23.088 60.406,22.169 60.927 M17.900 62.311 C 17.515 62.392,17.200 62.595,17.200 62.762 C 17.200 62.930,16.809 63.038,16.332 63.002 C 15.854 62.967,14.729 63.303,13.832 63.749 C 12.934 64.195,12.052 64.519,11.870 64.470 C 11.689 64.421,11.678 64.610,11.847 64.890 C 12.093 65.299,12.032 65.302,11.538 64.901 C 11.033 64.493,10.798 64.539,10.242 65.153 C 9.594 65.870,9.616 65.912,10.733 66.075 C 11.573 66.199,12.036 66.034,12.374 65.493 C 12.732 64.920,12.973 64.846,13.380 65.183 C 13.783 65.518,14.089 65.453,14.623 64.920 C 15.012 64.531,15.722 64.264,16.200 64.326 C 16.678 64.389,17.299 64.163,17.580 63.824 C 17.861 63.486,18.238 63.300,18.418 63.411 C 18.868 63.689,19.210 63.053,18.874 62.563 C 18.723 62.343,18.285 62.230,17.900 62.311 M9.426 68.677 C 9.112 69.496,10.011 73.241,10.455 72.966 C 10.628 72.859,10.601 72.330,10.396 71.789 C 10.191 71.249,10.124 70.490,10.249 70.103 C 10.443 69.502,10.409 69.487,10.013 70.000 C 9.647 70.476,9.605 70.331,9.808 69.300 C 10.080 67.915,9.857 67.552,9.426 68.677 M10.412 78.580 C 10.403 79.441,10.520 79.640,10.841 79.319 C 11.158 79.002,11.161 78.668,10.854 78.139 C 10.477 77.491,10.423 77.546,10.412 78.580 M12.400 94.913 C 12.805 95.242,12.960 95.952,12.877 97.100 C 12.797 98.199,12.919 98.800,13.221 98.800 C 13.519 98.800,13.628 98.294,13.524 97.400 C 13.434 96.630,13.532 96.000,13.742 96.000 C 13.952 96.000,13.798 95.640,13.400 95.200 C 13.002 94.760,12.479 94.406,12.238 94.413 C 11.997 94.420,12.070 94.645,12.400 94.913 M13.600 100.824 C 13.600 101.057,13.437 101.146,13.237 101.023 C 13.038 100.900,13.068 101.429,13.304 102.199 C 13.541 102.970,13.895 103.600,14.091 103.600 C 14.287 103.600,14.311 103.380,14.145 103.111 C 13.979 102.843,13.881 102.123,13.928 101.511 C 13.975 100.900,13.920 100.400,13.806 100.400 C 13.693 100.400,13.600 100.591,13.600 100.824 M13.600 108.348 C 13.600 108.571,13.756 108.849,13.946 108.967 C 14.136 109.084,14.242 109.635,14.181 110.190 C 14.120 110.746,14.235 111.200,14.435 111.200 C 15.029 111.200,14.851 109.194,14.200 108.543 C 13.870 108.213,13.600 108.125,13.600 108.348 M15.333 118.522 C 15.333 118.822,15.578 119.067,15.878 119.067 C 16.177 119.067,16.361 118.883,16.286 118.658 C 16.074 118.021,15.333 117.915,15.333 118.522 M385.200 119.080 C 385.200 119.884,385.084 120.044,384.747 119.707 C 384.498 119.458,384.402 118.972,384.534 118.627 C 384.901 117.673,385.200 117.877,385.200 119.080 M16.400 127.224 C 16.400 127.677,16.580 127.936,16.800 127.800 C 17.020 127.664,17.200 127.293,17.200 126.976 C 17.200 126.659,17.020 126.400,16.800 126.400 C 16.580 126.400,16.400 126.771,16.400 127.224 M198.400 170.487 C 198.400 200.250,198.513 209.553,198.880 209.920 C 199.431 210.471,236.607 210.636,236.945 210.088 C 237.051 209.917,234.165 203.662,230.532 196.188 C 226.899 188.715,222.582 179.810,220.938 176.400 C 219.295 172.990,216.247 166.690,214.165 162.400 C 212.083 158.110,207.896 149.481,204.860 143.223 C 201.824 136.966,199.129 131.776,198.870 131.690 C 198.512 131.571,198.400 140.823,198.400 170.487 M17.864 139.377 C 17.418 140.539,18.050 142.856,18.672 142.340 C 19.104 141.982,19.123 141.800,18.752 141.570 C 18.485 141.405,18.267 140.715,18.267 140.035 C 18.267 138.658,18.189 138.531,17.864 139.377 M18.280 147.183 C 18.541 148.184,19.200 148.677,19.200 147.873 C 19.200 147.557,18.944 147.086,18.631 146.826 C 18.165 146.439,18.102 146.503,18.280 147.183 M20.772 164.347 C 20.992 164.758,21.058 165.208,20.919 165.347 C 20.780 165.486,20.971 165.600,21.343 165.600 C 21.972 165.600,21.973 165.531,21.363 164.600 C 20.599 163.433,20.189 163.258,20.772 164.347 M20.806 166.700 C 20.809 167.085,20.987 167.670,21.200 168.000 C 21.494 168.455,21.589 168.286,21.594 167.300 C 21.597 166.585,21.420 166.000,21.200 166.000 C 20.980 166.000,20.803 166.315,20.806 166.700 M21.308 171.172 C 21.340 171.597,21.509 171.856,21.683 171.749 C 22.127 171.475,22.080 170.400,21.625 170.400 C 21.419 170.400,21.276 170.748,21.308 171.172 M22.240 179.442 C 22.506 180.921,23.094 181.541,23.422 180.688 C 23.567 180.309,23.330 179.677,22.851 179.162 L 22.032 178.283 22.240 179.442 M23.192 186.591 C 23.523 186.989,23.547 187.200,23.262 187.200 C 23.021 187.200,22.929 187.470,23.055 187.800 C 23.311 188.467,24.400 188.629,24.400 188.000 C 24.400 187.780,24.226 187.600,24.013 187.600 C 23.799 187.600,23.720 187.353,23.836 187.052 C 23.951 186.750,23.740 186.386,23.366 186.242 C 22.796 186.024,22.768 186.079,23.192 186.591 M24.406 198.876 C 24.403 199.468,24.580 200.064,24.800 200.200 C 25.311 200.516,25.311 199.190,24.800 198.400 C 24.497 197.931,24.411 198.034,24.406 198.876 M24.674 201.967 C 25.113 203.369,25.739 204.361,26.060 204.163 C 26.633 203.809,26.438 202.500,25.775 202.246 C 25.431 202.114,25.243 201.854,25.357 201.669 C 25.471 201.485,25.320 201.333,25.021 201.333 C 24.707 201.333,24.560 201.602,24.674 201.967 M25.232 207.876 C 25.214 208.138,25.383 208.466,25.607 208.604 C 25.830 208.742,25.891 209.068,25.742 209.328 C 25.594 209.587,25.625 209.660,25.813 209.490 C 26.000 209.319,26.210 208.779,26.278 208.290 C 26.367 207.656,26.301 207.557,26.050 207.945 C 25.752 208.406,25.663 208.406,25.480 207.945 C 25.343 207.601,25.252 207.576,25.232 207.876 M25.700 210.500 C 25.808 211.041,26.411 211.584,26.914 211.594 C 27.087 211.597,27.035 211.240,26.800 210.800 C 26.329 209.920,25.541 209.705,25.700 210.500 M27.773 226.500 C 27.865 226.995,27.972 227.760,28.010 228.200 C 28.069 228.880,28.128 228.851,28.400 228.000 C 28.911 226.404,28.845 225.600,28.203 225.600 C 27.800 225.600,27.660 225.893,27.773 226.500 M28.812 235.057 C 28.804 236.153,28.999 236.791,29.386 236.939 C 29.854 237.119,29.924 236.905,29.731 235.882 C 29.315 233.673,28.826 233.234,28.812 235.057 M29.210 240.226 C 29.396 240.716,29.425 241.255,29.274 241.423 C 29.124 241.591,29.210 241.608,29.466 241.462 C 29.722 241.315,30.008 241.331,30.100 241.498 C 30.193 241.664,30.208 241.560,30.134 241.267 C 30.060 240.974,30.000 240.419,30.000 240.034 C 30.000 239.649,29.746 239.333,29.435 239.333 C 29.016 239.333,28.958 239.564,29.210 240.226 M29.834 247.000 C 30.290 249.665,30.695 250.800,31.188 250.800 C 31.623 250.800,31.466 249.543,30.907 248.553 C 30.643 248.087,30.542 247.592,30.681 247.453 C 30.820 247.314,30.737 247.200,30.496 247.200 C 30.255 247.200,29.962 246.885,29.844 246.500 C 29.725 246.115,29.721 246.340,29.834 247.000 M31.125 255.933 C 31.221 256.941,31.471 257.467,31.853 257.467 C 32.230 257.467,32.340 257.244,32.166 256.833 C 32.018 256.485,31.809 255.795,31.702 255.300 C 31.382 253.825,30.967 254.280,31.125 255.933 M32.200 263.700 C 31.790 264.705,32.291 265.869,32.880 265.280 C 33.207 264.953,33.215 264.571,32.909 263.913 C 32.530 263.099,32.454 263.076,32.200 263.700 M32.667 266.667 C 32.304 267.030,32.328 268.709,32.700 268.936 C 32.865 269.037,33.032 268.507,33.072 267.760 C 33.146 266.339,33.105 266.228,32.667 266.667 M32.946 272.094 C 33.080 272.592,33.192 273.129,33.195 273.287 C 33.198 273.446,33.450 273.479,33.756 273.362 C 34.449 273.096,34.138 271.739,33.312 271.422 C 32.841 271.241,32.759 271.393,32.946 272.094 M34.259 285.072 C 34.510 286.067,35.467 286.613,35.467 285.762 C 35.467 285.453,35.379 285.287,35.273 285.394 C 35.166 285.500,34.845 285.275,34.559 284.894 C 34.087 284.263,34.060 284.279,34.259 285.072 M34.655 287.400 C 34.529 287.730,34.599 288.000,34.813 288.000 C 35.026 288.000,35.200 288.270,35.200 288.600 C 35.200 288.930,35.470 289.200,35.800 289.200 C 36.462 289.200,36.503 289.024,36.148 287.700 C 35.874 286.677,35.000 286.501,34.655 287.400 M36.369 295.700 C 35.920 297.170,36.248 299.341,36.862 298.962 C 37.097 298.816,37.097 298.554,36.860 298.264 C 36.651 298.009,36.537 297.305,36.605 296.700 C 36.702 295.843,36.538 295.148,36.369 295.700 M36.926 304.957 C 37.051 306.253,37.351 307.511,37.593 307.753 C 37.911 308.071,37.963 307.534,37.783 305.796 C 37.646 304.478,37.346 303.220,37.116 303.000 C 36.827 302.723,36.769 303.324,36.926 304.957 M37.216 310.054 C 37.670 311.640,37.899 311.861,38.479 311.281 C 38.832 310.928,38.814 310.574,38.404 309.808 C 37.600 308.305,36.764 308.479,37.216 310.054 M38.200 314.082 C 38.365 315.387,39.416 316.561,40.062 316.162 C 40.251 316.045,40.499 316.192,40.612 316.488 C 40.726 316.785,41.310 317.066,41.910 317.114 C 42.509 317.163,43.208 317.482,43.462 317.825 C 43.742 318.203,44.021 318.289,44.173 318.044 C 44.310 317.822,44.012 317.423,43.511 317.157 C 43.010 316.891,42.365 316.342,42.077 315.937 C 41.790 315.531,41.205 315.200,40.777 315.200 C 40.350 315.200,40.000 314.930,40.000 314.600 C 40.000 314.270,39.833 314.000,39.629 314.000 C 39.424 314.000,38.982 313.725,38.646 313.389 C 38.098 312.841,38.052 312.913,38.200 314.082 M44.629 318.268 C 44.368 318.950,45.104 319.707,45.681 319.350 C 45.856 319.242,46.000 318.803,46.000 318.376 C 46.000 317.426,44.983 317.346,44.629 318.268 M46.184 319.227 C 46.039 319.461,46.002 319.735,46.103 319.836 C 46.382 320.115,47.600 319.563,47.600 319.157 C 47.600 318.656,46.503 318.710,46.184 319.227 M47.428 319.955 C 47.133 320.432,47.819 320.932,50.186 321.965 C 51.278 322.441,52.282 323.008,52.415 323.225 C 52.549 323.442,53.069 323.698,53.570 323.794 C 54.071 323.891,54.733 324.179,55.041 324.434 C 55.348 324.689,55.600 324.746,55.600 324.560 C 55.600 324.374,55.882 324.625,56.227 325.118 C 56.572 325.610,57.022 325.910,57.227 325.783 C 57.432 325.656,57.600 325.729,57.600 325.945 C 57.600 326.161,58.218 326.542,58.974 326.791 C 59.730 327.041,60.408 327.425,60.481 327.644 C 60.555 327.864,60.971 328.110,61.407 328.191 C 61.843 328.272,62.200 328.366,62.200 328.400 C 62.200 328.434,62.519 328.522,62.908 328.596 C 63.298 328.671,63.944 329.136,64.345 329.631 L 65.073 330.530 65.303 329.648 C 65.494 328.918,65.333 328.727,64.367 328.533 C 63.725 328.405,63.200 328.176,63.200 328.025 C 63.200 327.873,62.570 327.502,61.800 327.200 C 61.030 326.898,60.400 326.512,60.400 326.342 C 60.400 325.897,57.052 324.000,56.265 324.000 C 55.899 324.000,55.600 323.808,55.600 323.573 C 55.600 323.337,55.263 323.253,54.847 323.385 C 54.372 323.536,54.008 323.398,53.860 323.012 C 53.731 322.675,53.349 322.400,53.013 322.400 C 52.676 322.400,52.400 322.150,52.400 321.844 C 52.400 320.803,47.949 319.111,47.428 319.955 M66.049 329.556 C 65.464 329.932,65.812 330.964,66.400 330.600 C 66.590 330.483,67.028 330.790,67.373 331.282 C 67.718 331.775,68.000 332.020,68.000 331.827 C 68.000 331.634,68.360 331.802,68.800 332.200 C 69.240 332.598,69.605 332.761,69.612 332.562 C 69.619 332.363,69.804 332.508,70.023 332.883 C 70.384 333.503,71.600 333.481,71.600 332.855 C 71.600 332.613,69.285 331.433,68.767 331.410 C 68.639 331.405,68.099 330.905,67.567 330.300 C 66.892 329.533,66.433 329.308,66.049 329.556 M72.255 333.800 C 72.114 334.169,72.256 334.400,72.627 334.400 C 73.282 334.400,74.949 335.385,76.176 336.497 C 76.630 336.909,77.052 337.039,77.194 336.809 C 77.328 336.592,77.690 336.770,78.006 337.209 C 78.320 337.644,78.852 337.986,79.188 337.968 C 79.603 337.947,79.638 337.872,79.298 337.734 C 79.021 337.623,78.914 337.339,79.059 337.104 C 79.209 336.861,79.136 336.792,78.891 336.944 C 78.651 337.092,78.338 336.836,78.190 336.369 C 78.005 335.787,77.688 335.588,77.161 335.726 C 76.743 335.836,76.400 335.770,76.400 335.579 C 76.400 334.608,72.576 332.966,72.255 333.800 M80.133 338.162 C 80.133 338.497,80.376 338.631,80.732 338.494 C 81.071 338.364,81.225 338.436,81.087 338.659 C 80.953 338.877,81.463 339.279,82.221 339.553 C 82.980 339.827,83.600 340.231,83.600 340.449 C 83.600 340.668,83.761 340.748,83.958 340.626 C 84.155 340.504,84.419 340.674,84.546 341.002 C 84.672 341.331,85.105 341.600,85.507 341.600 C 85.910 341.600,86.426 341.786,86.653 342.013 C 86.938 342.298,87.067 342.241,87.067 341.831 C 87.067 341.503,86.922 341.325,86.745 341.434 C 86.568 341.543,86.309 341.175,86.168 340.616 C 86.028 340.057,85.683 339.600,85.402 339.600 C 85.121 339.600,84.376 339.331,83.746 339.002 C 83.116 338.674,82.296 338.404,81.924 338.402 C 81.552 338.401,81.136 338.220,81.000 338.000 C 80.639 337.417,80.133 337.511,80.133 338.162 M88.609 342.957 C 89.039 343.272,89.528 343.444,89.696 343.341 C 89.863 343.237,90.000 343.346,90.000 343.583 C 90.000 343.819,90.630 344.313,91.400 344.681 C 92.170 345.048,92.800 345.495,92.800 345.674 C 92.800 345.853,93.160 346.000,93.600 346.000 C 94.040 346.000,94.400 345.898,94.400 345.774 C 94.400 345.189,93.520 344.000,93.086 343.998 C 92.819 343.996,92.142 343.756,91.582 343.464 C 89.968 342.622,87.598 342.218,88.609 342.957 M95.200 346.466 C 95.200 346.776,95.580 347.058,96.045 347.093 C 96.510 347.128,96.825 347.116,96.745 347.065 C 96.665 347.015,96.285 346.733,95.900 346.438 C 95.311 345.987,95.200 345.991,95.200 346.466 M97.600 347.551 C 97.600 347.744,97.870 348.126,98.200 348.400 C 98.530 348.674,98.800 348.758,98.800 348.587 C 98.800 348.416,99.135 348.579,99.545 348.950 C 100.773 350.062,102.893 350.539,102.287 349.567 C 102.023 349.145,101.510 348.800,101.147 348.800 C 100.783 348.800,100.383 348.533,100.258 348.207 C 100.128 347.869,99.765 347.715,99.415 347.850 C 99.077 347.979,98.800 347.886,98.800 347.643 C 98.800 347.399,98.530 347.200,98.200 347.200 C 97.870 347.200,97.600 347.358,97.600 347.551 M108.800 353.704 C 108.800 353.981,109.132 354.415,109.538 354.668 C 110.190 355.075,110.254 355.017,110.091 354.165 C 109.903 353.181,108.800 352.788,108.800 353.704 M116.255 358.200 C 116.382 358.530,116.736 358.800,117.043 358.800 C 117.349 358.800,117.600 358.999,117.600 359.243 C 117.600 359.486,117.870 359.582,118.200 359.455 C 118.530 359.329,118.800 359.429,118.800 359.679 C 118.800 359.929,118.908 360.026,119.039 359.894 C 119.171 359.762,118.946 359.198,118.539 358.640 C 117.727 357.525,115.858 357.165,116.255 358.200 M124.000 362.229 C 124.000 362.737,125.221 363.634,125.597 363.402 C 126.394 362.909,126.007 362.000,125.000 362.000 C 124.450 362.000,124.000 362.103,124.000 362.229 M126.449 363.162 C 125.762 363.596,126.123 364.234,127.217 364.520 C 127.885 364.695,128.023 364.573,127.924 363.900 C 127.781 362.934,127.238 362.662,126.449 363.162 M130.492 366.075 C 130.739 366.817,131.600 366.940,131.600 366.233 C 131.600 365.885,131.315 365.600,130.967 365.600 C 130.618 365.600,130.405 365.814,130.492 366.075 M133.290 367.773 C 134.955 369.219,136.000 369.435,136.000 368.333 C 136.000 367.874,135.710 367.600,135.224 367.600 C 134.797 367.600,134.349 367.441,134.230 367.248 C 134.110 367.054,133.514 366.802,132.906 366.688 C 131.818 366.483,131.824 366.501,133.290 367.773 M139.222 371.024 C 139.751 371.587,140.250 371.851,140.330 371.611 C 140.604 370.787,140.025 370.000,139.143 370.000 L 138.261 370.000 139.222 371.024 M142.684 372.800 C 142.799 373.240,143.142 373.600,143.447 373.600 C 143.751 373.600,144.000 373.240,144.000 372.800 C 144.000 372.280,143.733 372.000,143.237 372.000 C 142.672 372.000,142.529 372.207,142.684 372.800 M150.800 377.157 C 150.800 377.855,151.886 378.647,152.290 378.244 C 152.561 377.972,151.620 376.400,151.186 376.400 C 150.974 376.400,150.800 376.741,150.800 377.157 M157.192 380.405 C 156.693 380.713,156.689 380.843,157.162 381.283 C 157.490 381.588,157.610 381.609,157.456 381.334 C 157.313 381.078,157.421 380.788,157.698 380.689 C 157.974 380.590,158.105 380.405,157.988 380.277 C 157.872 380.148,157.514 380.206,157.192 380.405 M158.650 381.119 C 158.320 381.653,158.933 382.246,160.300 382.714 C 161.474 383.115,161.600 383.083,161.600 382.379 C 161.600 381.875,161.326 381.600,160.824 381.600 C 160.397 381.600,159.936 381.420,159.800 381.200 C 159.503 380.719,158.922 380.679,158.650 381.119 M164.789 385.275 C 165.206 385.664,165.780 386.032,166.064 386.091 C 166.349 386.151,166.833 386.435,167.142 386.723 C 167.451 387.011,167.950 387.151,168.252 387.036 C 168.553 386.920,168.800 386.999,168.800 387.213 C 168.800 387.426,168.980 387.600,169.200 387.600 C 169.420 387.600,169.600 387.240,169.600 386.800 C 169.600 385.956,169.018 385.724,168.600 386.400 C 168.313 386.865,167.578 386.942,167.647 386.500 C 167.787 385.615,167.535 385.139,167.029 385.333 C 166.715 385.454,166.253 385.305,166.003 385.003 C 165.752 384.701,165.205 384.479,164.788 384.511 C 164.044 384.567,164.044 384.581,164.789 385.275 M171.739 388.899 C 171.584 389.149,171.667 389.206,171.938 389.038 C 172.192 388.881,172.400 388.973,172.400 389.243 C 172.400 389.513,172.517 389.616,172.660 389.473 C 172.804 389.330,173.149 389.524,173.428 389.906 C 173.707 390.287,174.065 390.468,174.224 390.309 C 174.618 389.915,173.752 388.933,172.787 388.681 C 172.355 388.568,171.883 388.666,171.739 388.899 M176.400 391.186 C 176.400 391.398,176.787 391.779,177.261 392.032 C 178.004 392.430,178.086 392.400,177.861 391.814 C 177.717 391.440,177.600 391.059,177.600 390.967 C 177.600 390.875,177.330 390.800,177.000 390.800 C 176.670 390.800,176.400 390.974,176.400 391.186 M184.400 395.833 C 184.400 396.182,184.614 396.395,184.875 396.308 C 185.617 396.061,185.740 395.200,185.033 395.200 C 184.685 395.200,184.400 395.485,184.400 395.833 M190.000 399.124 C 190.000 399.334,190.370 399.604,190.823 399.722 C 191.346 399.859,191.589 399.767,191.490 399.469 C 191.298 398.893,190.000 398.593,190.000 399.124 " stroke="none" fill="#ededed" fill-rule="evenodd"></path></g></svg>