<svg id="svg" version="1.1" width="400" height="400" viewBox="0 0 400 400" xmlns="http://www.w3.org/2000/svg" xmlns:xlink="http://www.w3.org/1999/xlink" ><g id="svgg"><path id="path0" d="M184.800 12.821 C 176.306 13.509,165.610 15.072,160.400 16.389 C 159.630 16.583,157.740 17.034,156.200 17.389 C 148.939 19.065,136.198 23.038,131.691 25.031 C 130.486 25.564,129.348 26.000,129.161 26.000 C 128.975 26.000,127.782 26.460,126.511 27.023 C 124.238 28.030,123.178 28.520,117.200 31.329 C 94.827 41.843,68.211 63.073,53.400 82.220 C 52.740 83.073,51.740 84.318,51.178 84.986 C 46.911 90.054,38.547 102.785,34.479 110.400 C 31.386 116.190,26.800 125.579,26.800 126.120 C 26.800 126.261,26.337 127.417,25.770 128.688 C 23.892 132.905,23.717 133.360,21.652 139.400 C 19.449 145.842,19.048 147.209,17.187 154.600 C 15.285 162.153,15.239 162.370,13.816 170.400 C 11.862 181.428,10.907 198.088,11.560 209.732 C 12.064 218.712,13.796 233.806,14.630 236.482 C 14.747 236.857,15.021 238.117,15.239 239.282 C 16.632 246.731,20.513 260.521,22.819 266.214 C 23.084 266.867,23.481 267.850,23.703 268.400 C 23.925 268.950,24.254 269.760,24.434 270.200 C 24.613 270.640,25.417 272.620,26.219 274.600 C 31.297 287.127,41.830 305.452,49.462 315.033 C 50.528 316.371,51.940 318.168,52.600 319.025 C 59.565 328.072,71.892 340.334,83.226 349.487 C 87.391 352.850,87.287 352.864,89.863 348.600 C 96.566 337.506,105.223 332.836,119.725 332.493 C 133.273 332.173,139.933 334.433,147.521 341.926 C 155.501 349.806,157.174 355.165,157.190 372.886 C 157.199 383.792,157.258 384.802,157.900 385.143 C 159.541 386.012,175.443 388.589,176.549 388.164 C 177.146 387.935,177.200 383.619,177.201 336.457 C 177.201 282.557,177.226 281.699,178.923 277.000 C 183.211 265.130,193.048 257.124,205.779 255.144 C 209.026 254.639,221.167 254.894,223.000 255.506 C 223.660 255.726,225.010 256.138,226.000 256.421 C 235.582 259.157,244.960 268.484,247.497 277.800 C 247.736 278.680,248.168 280.120,248.456 281.000 C 248.874 282.277,249.005 292.770,249.101 332.900 C 249.214 380.207,249.262 383.199,249.910 383.191 C 251.888 383.164,263.715 379.335,271.200 376.299 C 274.422 374.992,274.508 374.802,273.159 372.009 C 271.985 369.579,271.331 367.209,270.618 362.800 C 269.689 357.055,269.690 218.931,270.619 213.201 C 272.888 199.214,282.278 188.818,295.600 185.546 C 302.571 183.834,315.376 184.627,322.111 187.187 C 327.927 189.398,338.800 199.446,338.800 202.609 C 338.800 202.738,339.187 203.689,339.659 204.722 C 341.909 209.638,341.767 205.825,341.992 267.600 C 342.176 317.908,342.270 324.600,342.800 324.600 C 343.514 324.600,350.954 315.423,354.730 309.885 C 358.191 304.810,363.013 297.329,363.809 295.800 C 364.153 295.140,364.809 293.970,365.268 293.200 C 372.190 281.583,379.746 262.439,383.659 246.600 C 383.876 245.720,384.208 244.460,384.395 243.800 C 384.583 243.140,385.032 240.980,385.394 239.000 C 385.755 237.020,386.300 234.050,386.603 232.400 C 387.206 229.124,387.715 225.190,388.492 217.800 C 389.159 211.450,389.151 190.849,388.479 184.400 C 387.830 178.166,386.780 169.891,386.603 169.604 C 386.529 169.486,386.163 167.591,385.789 165.394 C 384.330 156.826,379.233 138.938,376.445 132.600 C 376.252 132.160,375.596 130.540,374.988 129.000 C 372.806 123.475,365.773 109.529,362.283 103.809 C 356.344 94.077,348.542 83.317,343.400 77.768 C 343.180 77.531,342.100 76.292,341.000 75.014 C 338.148 71.703,330.336 63.889,326.590 60.600 C 324.835 59.060,323.220 57.601,323.000 57.359 C 322.637 56.959,314.687 50.681,311.790 48.507 C 301.608 40.867,284.883 31.474,272.800 26.611 C 270.270 25.593,267.840 24.604,267.400 24.412 C 266.509 24.025,261.972 22.399,259.200 21.474 C 254.249 19.822,247.337 17.980,241.000 16.624 C 239.240 16.248,237.080 15.777,236.200 15.578 C 231.950 14.616,223.796 13.538,215.200 12.801 C 209.938 12.350,190.467 12.363,184.800 12.821 M309.600 91.800 C 319.268 92.717,328.710 98.480,334.822 107.194 C 338.991 113.138,342.001 122.745,341.999 130.100 C 341.999 134.358,340.147 142.967,338.558 146.100 C 338.251 146.705,337.703 147.785,337.341 148.500 C 328.983 164.975,311.517 171.954,293.374 166.068 C 291.074 165.322,285.149 161.503,282.606 159.128 C 258.801 136.897,270.368 96.334,301.800 91.821 C 303.780 91.537,305.760 91.361,306.200 91.429 C 306.640 91.497,308.170 91.664,309.600 91.800 M220.075 162.586 C 261.888 172.298,255.559 238.060,212.800 238.180 C 175.435 238.285,162.911 186.233,195.543 166.453 C 202.141 162.454,212.485 160.823,220.075 162.586 M126.800 239.651 C 154.343 245.867,166.044 278.378,149.021 301.388 C 130.283 326.716,92.395 317.321,85.756 285.700 C 80.333 259.870,103.117 234.307,126.800 239.651 " stroke="none" fill="#f36434" fill-rule="evenodd"></path></g></svg>