<svg id="svg" version="1.1" width="512" height="512" xmlns="http://www.w3.org/2000/svg" xmlns:xlink="http://www.w3.org/1999/xlink" ><g id="svgg"><path id="path0" d="M84.410 8.666 C 72.110 11.077,60.915 22.577,58.592 35.186 C 58.062 38.064,57.863 94.212,57.999 202.765 L 58.203 366.016 59.989 370.432 C 63.473 379.051,70.929 386.525,79.491 389.982 L 83.984 391.797 200.000 391.797 L 316.016 391.797 320.313 390.045 C 328.981 386.510,336.510 378.981,340.045 370.313 L 341.797 366.016 342.016 232.813 C 342.137 159.551,342.028 98.730,341.773 97.656 C 341.257 95.472,257.232 10.777,253.750 8.931 C 251.316 7.640,90.923 7.389,84.410 8.666 M241.406 63.635 C 241.406 91.925,241.656 102.819,242.340 104.319 C 244.287 108.593,244.295 108.594,286.305 108.594 L 325.032 108.594 324.821 235.352 L 324.609 362.109 322.928 365.234 C 320.979 368.856,318.685 371.102,314.844 373.151 C 312.211 374.555,307.949 374.609,200.000 374.609 C 92.051 374.609,87.789 374.555,85.156 373.151 C 81.315 371.102,79.021 368.856,77.072 365.234 L 75.391 362.109 75.391 200.000 C 75.391 20.565,74.971 36.091,79.974 30.590 C 85.026 25.036,82.283 25.209,166.992 25.098 L 241.406 25.000 241.406 63.635 M285.547 64.844 L 312.101 91.406 285.347 91.406 L 258.594 91.406 258.594 64.844 C 258.594 50.234,258.684 38.281,258.793 38.281 C 258.903 38.281,270.942 50.234,285.547 64.844 M118.690 177.284 C 115.449 180.524,115.448 185.621,118.686 189.245 L 120.966 191.797 200.000 191.797 L 279.034 191.797 281.314 189.245 C 284.552 185.621,284.551 180.524,281.310 177.284 L 279.026 175.000 200.000 175.000 L 120.974 175.000 118.690 177.284 M120.398 242.496 C 115.012 245.482,115.193 255.160,120.681 257.660 C 123.980 259.163,276.654 258.991,279.574 257.480 C 284.922 254.715,284.922 245.285,279.574 242.520 C 276.483 240.921,123.281 240.899,120.398 242.496 M121.397 308.572 C 116.144 310.713,114.625 318.652,118.690 322.716 L 120.974 325.000 199.896 325.000 L 278.819 325.000 280.916 323.196 C 284.296 320.289,284.530 314.354,281.403 310.854 L 279.035 308.203 201.041 308.051 C 158.144 307.968,122.304 308.202,121.397 308.572 " stroke="none" fill="#ffffff" fill-rule="evenodd"></path></g></svg>