<svg id="svg" version="1.1" width="400" height="394.3262411347518" viewBox="0 0 400 394.3262411347518" xmlns="http://www.w3.org/2000/svg" xmlns:xlink="http://www.w3.org/1999/xlink" ><g id="svgg"><path id="path0" d="M16.963 8.425 C 12.775 9.066,7.028 12.959,5.235 16.371 C 4.892 17.022,4.394 17.732,4.126 17.949 C 3.859 18.166,3.162 19.808,2.577 21.598 C 1.735 24.173,1.355 24.852,0.757 24.852 C 0.051 24.852,0.000 25.185,0.000 29.783 C 0.000 34.428,0.045 34.714,0.778 34.714 C 1.571 34.714,2.336 36.695,2.942 40.324 C 3.077 41.131,3.626 42.313,4.163 42.950 C 4.699 43.588,5.395 44.838,5.709 45.728 C 6.023 46.618,6.819 47.921,7.477 48.624 C 8.136 49.326,8.676 50.096,8.677 50.333 C 8.678 50.571,9.053 51.103,9.510 51.517 C 9.967 51.930,10.758 53.067,11.266 54.043 C 11.775 55.020,12.643 56.237,13.196 56.748 C 13.749 57.258,14.201 57.876,14.201 58.120 C 14.201 58.363,14.867 59.209,15.680 59.999 C 17.606 61.869,19.006 63.551,19.670 64.791 C 19.963 65.339,20.802 66.473,21.534 67.312 C 22.266 68.150,22.868 69.031,22.872 69.269 C 22.876 69.507,23.457 70.341,24.162 71.123 C 26.231 73.417,27.455 75.055,28.204 76.529 C 28.590 77.288,29.412 78.489,30.029 79.199 C 30.647 79.908,31.266 80.973,31.406 81.565 C 31.546 82.158,32.054 83.087,32.537 83.629 C 33.019 84.172,33.725 85.769,34.106 87.179 C 34.486 88.590,35.160 90.542,35.604 91.519 C 36.047 92.495,36.538 94.596,36.696 96.188 C 36.888 98.123,37.247 99.440,37.782 100.163 C 38.764 101.492,39.842 104.577,39.842 106.061 C 39.842 106.667,40.360 107.947,40.993 108.907 C 41.685 109.954,42.325 111.655,42.597 113.164 C 42.846 114.546,43.475 116.322,43.995 117.109 C 44.515 117.896,45.221 119.757,45.565 121.243 C 45.908 122.730,46.535 124.416,46.957 124.991 C 47.380 125.565,47.885 126.900,48.081 127.956 C 48.276 129.012,48.813 130.343,49.273 130.914 C 50.263 132.143,50.751 133.147,51.057 134.585 C 51.181 135.165,51.719 136.158,52.252 136.793 C 52.786 137.427,53.509 138.816,53.858 139.880 C 54.208 140.944,54.816 142.093,55.209 142.432 C 55.602 142.772,56.388 144.031,56.956 145.231 C 57.523 146.430,58.342 147.733,58.777 148.126 C 59.211 148.519,59.566 149.056,59.566 149.321 C 59.566 149.922,62.638 153.706,65.588 156.738 C 68.814 160.054,69.097 162.682,66.639 166.512 C 65.555 168.201,65.354 168.941,65.114 172.112 C 64.949 174.291,64.560 176.318,64.149 177.133 C 63.771 177.885,63.043 180.464,62.533 182.864 C 62.022 185.263,61.216 187.971,60.742 188.881 C 60.122 190.069,59.788 191.673,59.553 194.577 C 59.373 196.800,58.951 199.951,58.616 201.578 C 56.211 213.242,56.262 228.545,58.736 237.721 C 58.978 238.616,59.335 241.279,59.531 243.639 C 59.801 246.891,60.134 248.461,60.908 250.131 C 61.470 251.341,62.035 253.205,62.165 254.273 C 62.489 256.957,63.084 258.767,64.100 260.158 C 64.575 260.809,65.179 262.348,65.442 263.579 C 65.705 264.810,66.189 266.039,66.517 266.312 C 67.332 266.988,68.245 268.825,68.245 269.789 C 68.245 270.226,68.753 271.167,69.375 271.880 C 69.997 272.592,70.888 273.930,71.355 274.852 C 71.823 275.774,72.359 276.529,72.547 276.529 C 72.735 276.529,73.202 277.194,73.585 278.008 C 73.968 278.821,74.876 280.104,75.604 280.858 C 76.331 281.612,77.026 282.544,77.148 282.929 C 77.271 283.314,77.595 283.629,77.870 283.629 C 78.144 283.629,78.940 284.339,79.637 285.207 C 80.334 286.075,81.136 286.785,81.419 286.785 C 81.702 286.785,82.672 287.320,83.575 287.975 C 85.195 289.148,87.874 290.045,91.200 290.526 C 94.008 290.933,101.775 289.098,101.775 288.028 C 101.775 287.821,102.405 287.280,103.175 286.826 C 104.013 286.331,104.819 285.416,105.184 284.544 C 105.518 283.743,106.218 282.529,106.739 281.846 C 107.748 280.523,107.794 280.334,108.506 274.556 C 108.761 272.495,109.300 269.500,109.705 267.900 C 110.109 266.300,110.623 262.838,110.845 260.207 C 111.479 252.720,111.934 251.178,113.615 250.830 C 115.273 250.487,115.537 250.707,116.014 252.831 C 116.217 253.735,117.002 255.374,117.758 256.473 C 118.514 257.572,119.132 258.815,119.132 259.235 C 119.132 260.163,120.207 262.327,120.667 262.327 C 120.850 262.327,121.398 263.437,121.885 264.793 C 122.373 266.149,123.114 267.633,123.532 268.090 C 123.951 268.548,124.478 269.592,124.704 270.411 C 124.930 271.230,125.623 272.364,126.244 272.932 C 126.865 273.500,127.605 274.507,127.888 275.171 C 128.446 276.480,129.549 278.001,131.854 280.642 C 132.668 281.574,133.333 282.432,133.333 282.549 C 133.333 282.712,140.516 290.305,142.290 292.018 C 147.105 296.668,149.227 298.619,149.469 298.619 C 149.633 298.619,150.004 299.060,150.292 299.599 C 150.581 300.138,151.130 300.678,151.513 300.800 C 151.897 300.921,152.918 301.679,153.783 302.483 C 157.070 305.537,163.175 309.797,163.753 309.439 C 164.479 308.991,164.059 307.715,162.919 306.903 C 162.268 306.440,161.736 305.739,161.736 305.345 C 161.736 304.952,161.114 304.156,160.355 303.577 C 159.596 302.998,158.974 302.306,158.974 302.039 C 158.974 301.772,158.353 300.968,157.594 300.252 C 156.834 299.536,156.213 298.738,156.213 298.480 C 156.213 298.222,155.706 297.393,155.087 296.638 C 154.468 295.884,153.645 294.652,153.258 293.900 C 152.872 293.149,152.136 292.204,151.623 291.801 C 151.110 291.397,150.690 290.858,150.689 290.603 C 150.689 290.347,149.979 289.093,149.111 287.817 C 148.244 286.540,147.535 285.266,147.535 284.985 C 147.535 284.705,147.113 284.144,146.597 283.738 C 146.082 283.333,145.262 282.210,144.776 281.244 C 144.290 280.278,143.606 279.162,143.257 278.765 C 142.615 278.036,141.368 275.757,139.443 271.795 C 138.863 270.602,138.131 269.479,137.815 269.300 C 137.500 269.121,136.824 268.029,136.313 266.873 C 135.802 265.718,135.020 264.409,134.576 263.965 C 134.133 263.521,133.578 262.447,133.344 261.577 C 133.110 260.708,132.491 259.488,131.968 258.867 C 131.445 258.246,130.715 256.951,130.344 255.989 C 129.973 255.028,129.430 254.044,129.137 253.805 C 128.845 253.565,128.330 252.588,127.994 251.635 C 127.659 250.681,126.949 249.273,126.417 248.504 C 125.885 247.735,125.182 246.203,124.854 245.099 C 124.526 243.996,123.990 242.870,123.663 242.599 C 123.336 242.327,122.703 240.905,122.258 239.437 C 121.812 237.970,121.017 236.187,120.491 235.474 C 119.960 234.754,119.423 233.334,119.283 232.280 C 119.120 231.050,118.701 230.051,118.092 229.443 C 117.497 228.847,116.926 227.512,116.530 225.790 C 115.865 222.892,115.622 222.242,114.434 220.186 C 112.894 217.520,112.427 217.218,111.373 218.209 C 110.867 218.684,110.454 219.254,110.454 219.476 C 110.454 219.698,109.931 220.421,109.292 221.084 C 105.815 224.687,104.931 225.719,104.931 226.174 C 104.931 226.451,104.416 227.170,103.788 227.772 C 103.159 228.375,102.345 229.651,101.980 230.607 C 101.614 231.564,101.150 232.347,100.947 232.347 C 100.458 232.347,99.510 234.552,99.221 236.357 C 99.095 237.151,98.463 238.790,97.819 239.998 C 97.174 241.206,96.644 242.774,96.640 243.484 C 96.629 245.430,95.572 251.499,94.662 254.832 C 94.091 256.926,93.741 259.983,93.465 265.286 C 92.980 274.616,93.060 274.275,91.129 275.146 C 89.232 276.001,86.910 275.528,85.721 274.043 C 85.330 273.554,84.433 272.748,83.728 272.250 C 83.023 271.753,82.446 271.160,82.446 270.933 C 82.446 270.705,81.921 269.920,81.279 269.189 C 80.637 268.458,79.922 267.156,79.691 266.295 C 79.459 265.434,78.853 264.234,78.344 263.627 C 77.836 263.021,77.290 261.903,77.133 261.144 C 76.975 260.385,76.246 258.677,75.513 257.349 C 74.628 255.746,74.096 254.156,73.929 252.616 C 73.772 251.171,73.326 249.773,72.747 248.910 C 72.045 247.864,71.706 246.555,71.369 243.584 C 71.123 241.418,70.658 238.491,70.335 237.081 C 68.674 229.824,68.570 228.691,68.544 217.554 C 68.522 208.477,68.638 205.982,69.192 203.550 C 70.207 199.105,70.880 195.434,71.349 191.793 C 71.626 189.647,72.054 188.121,72.591 187.367 C 73.042 186.734,73.565 185.279,73.755 184.134 C 74.169 181.627,74.452 180.862,75.574 179.206 C 76.047 178.509,76.655 176.734,76.925 175.261 C 77.195 173.789,77.728 172.229,78.109 171.795 C 79.307 170.429,80.688 163.264,80.502 159.369 C 80.315 155.431,77.899 151.368,73.340 147.325 C 72.599 146.667,71.480 145.380,70.854 144.465 C 70.227 143.550,69.581 142.801,69.417 142.801 C 69.253 142.801,68.825 142.065,68.465 141.165 C 68.105 140.266,67.389 139.199,66.874 138.794 C 66.359 138.389,65.643 137.170,65.283 136.086 C 64.923 135.002,64.331 133.955,63.966 133.761 C 63.602 133.566,62.964 132.404,62.548 131.180 C 62.131 129.955,61.643 128.861,61.462 128.749 C 60.830 128.359,59.566 125.467,59.566 124.412 C 59.566 123.827,59.144 122.795,58.629 122.119 C 58.113 121.443,57.307 119.492,56.839 117.783 C 56.370 116.074,55.663 114.214,55.269 113.649 C 54.874 113.085,54.435 111.558,54.293 110.256 C 54.136 108.821,53.572 106.997,52.859 105.623 C 52.192 104.336,51.487 102.121,51.226 100.495 C 50.974 98.921,50.371 96.923,49.887 96.055 C 49.402 95.187,48.721 93.176,48.372 91.585 C 48.024 89.994,47.355 88.153,46.887 87.495 C 46.418 86.837,45.882 85.476,45.695 84.471 C 45.508 83.466,44.842 81.816,44.215 80.805 C 43.588 79.794,42.844 78.285,42.562 77.452 C 42.280 76.619,41.661 75.493,41.187 74.951 C 40.713 74.408,40.193 73.521,40.031 72.978 C 39.870 72.436,39.158 71.346,38.450 70.556 C 37.741 69.767,37.035 68.722,36.880 68.234 C 36.726 67.747,36.011 66.577,35.291 65.635 C 34.572 64.692,33.878 63.591,33.750 63.187 C 33.622 62.784,33.090 62.225,32.568 61.946 C 32.046 61.666,31.522 61.061,31.403 60.600 C 31.285 60.140,30.750 59.294,30.214 58.721 C 29.677 58.148,28.916 57.083,28.522 56.354 C 27.772 54.968,26.825 53.823,24.359 51.324 C 23.545 50.500,22.880 49.633,22.880 49.399 C 22.880 49.164,22.469 48.649,21.967 48.253 C 21.465 47.858,20.539 46.647,19.909 45.562 C 19.280 44.477,18.548 43.367,18.284 43.094 C 18.019 42.822,17.678 42.205,17.525 41.723 C 17.372 41.241,16.648 39.976,15.916 38.911 C 15.183 37.847,14.493 36.511,14.382 35.944 C 14.271 35.376,13.839 33.780,13.422 32.397 C 12.672 29.913,12.672 29.860,13.432 27.861 C 13.855 26.748,14.201 25.555,14.201 25.209 C 14.202 22.330,21.367 20.312,26.233 21.820 C 27.968 22.358,30.167 22.911,31.118 23.049 C 32.070 23.187,33.296 23.653,33.843 24.083 C 34.390 24.514,35.831 25.154,37.044 25.507 C 38.258 25.859,40.375 26.744,41.749 27.472 C 43.123 28.201,44.526 28.797,44.867 28.797 C 45.209 28.797,46.099 29.263,46.847 29.834 C 47.595 30.404,49.022 31.116,50.020 31.416 C 51.017 31.716,52.199 32.306,52.648 32.727 C 53.096 33.148,54.081 33.752,54.838 34.068 C 55.594 34.384,56.903 35.191,57.747 35.862 C 58.590 36.532,59.582 37.081,59.952 37.081 C 60.322 37.081,61.407 37.801,62.363 38.682 C 66.565 42.548,70.582 45.667,71.732 45.953 C 72.309 46.097,73.110 46.512,73.511 46.875 C 74.351 47.634,76.856 47.873,90.335 48.481 C 100.621 48.945,102.718 49.175,104.339 50.016 C 104.990 50.353,106.839 50.861,108.448 51.144 C 110.243 51.460,111.971 52.053,112.917 52.679 C 113.765 53.241,115.421 53.857,116.597 54.048 C 117.773 54.240,119.313 54.817,120.019 55.331 C 120.724 55.845,122.318 56.572,123.560 56.946 C 124.802 57.321,126.360 58.084,127.023 58.641 C 127.685 59.199,128.936 59.814,129.803 60.009 C 130.670 60.204,132.111 60.894,133.007 61.542 C 133.902 62.191,134.840 62.722,135.091 62.722 C 135.342 62.722,136.158 63.178,136.906 63.735 C 137.653 64.293,138.861 65.002,139.591 65.312 C 140.321 65.622,141.506 66.391,142.225 67.022 C 142.943 67.653,144.058 68.285,144.703 68.426 C 145.347 68.568,146.204 69.048,146.606 69.492 C 147.008 69.937,147.970 70.624,148.744 71.019 C 149.518 71.414,150.403 72.041,150.711 72.412 C 151.019 72.783,151.983 73.401,152.854 73.785 C 153.725 74.170,154.892 74.920,155.447 75.452 C 156.001 75.984,156.889 76.650,157.419 76.932 C 157.949 77.214,158.826 77.876,159.369 78.403 C 160.575 79.575,165.083 82.840,165.495 82.840 C 165.815 82.840,167.789 84.597,169.817 86.686 C 170.502 87.392,171.225 87.968,171.425 87.968 C 171.625 87.968,172.411 88.589,173.172 89.348 C 175.155 91.326,177.563 93.491,177.778 93.491 C 178.244 93.491,188.594 103.773,192.899 108.513 C 194.744 110.543,196.626 112.565,197.083 113.006 C 197.541 113.446,198.204 114.371,198.558 115.061 C 198.913 115.751,199.561 116.429,200.000 116.568 C 200.439 116.707,201.045 117.297,201.347 117.878 C 201.650 118.459,202.336 119.314,202.872 119.777 C 203.408 120.241,204.173 121.172,204.573 121.848 C 204.972 122.524,205.422 123.077,205.574 123.077 C 205.725 123.077,206.401 123.920,207.074 124.951 C 209.318 128.384,210.185 129.578,211.156 130.572 C 212.408 131.853,215.779 136.845,215.779 137.418 C 215.779 137.662,216.224 138.307,216.767 138.852 C 218.093 140.181,220.514 143.899,221.008 145.365 C 221.227 146.016,221.983 147.170,222.689 147.929 C 223.394 148.688,224.183 149.975,224.442 150.788 C 224.701 151.601,225.218 152.488,225.592 152.760 C 225.966 153.032,226.517 153.876,226.817 154.635 C 227.116 155.394,227.851 156.743,228.451 157.632 C 229.050 158.521,229.666 159.763,229.820 160.393 C 229.974 161.023,230.513 162.035,231.017 162.642 C 231.521 163.249,232.188 164.602,232.499 165.650 C 232.810 166.697,233.524 168.418,234.086 169.474 C 234.649 170.530,235.109 171.751,235.111 172.186 C 235.115 173.597,235.885 175.809,236.887 177.285 C 237.425 178.078,238.066 179.564,238.310 180.587 C 238.555 181.609,239.188 183.093,239.717 183.883 C 240.247 184.674,240.919 186.227,241.212 187.334 C 241.504 188.441,242.177 189.863,242.709 190.495 C 243.240 191.126,243.786 192.342,243.923 193.197 C 244.060 194.051,244.692 195.405,245.327 196.205 C 245.963 197.005,246.609 198.402,246.762 199.309 C 246.942 200.374,247.443 201.334,248.175 202.018 C 248.799 202.601,249.310 203.456,249.310 203.918 C 249.310 205.110,250.280 207.282,251.242 208.244 C 251.692 208.694,252.175 209.780,252.315 210.657 C 252.455 211.534,253.070 212.881,253.682 213.651 C 254.293 214.421,255.085 216.051,255.440 217.273 C 255.796 218.496,256.514 220.005,257.037 220.627 C 257.560 221.248,257.992 222.143,257.997 222.614 C 258.007 223.643,259.318 226.633,260.103 227.418 C 260.411 227.726,260.883 228.917,261.150 230.064 C 261.418 231.211,261.980 232.527,262.399 232.989 C 262.819 233.450,263.408 234.761,263.710 235.903 C 264.011 237.045,264.700 238.443,265.242 239.010 C 265.783 239.576,266.400 240.813,266.612 241.759 C 266.823 242.705,267.439 243.948,267.978 244.521 C 268.518 245.094,269.251 246.270,269.607 247.135 C 269.963 248.000,270.580 249.065,270.979 249.502 C 271.377 249.938,272.014 250.917,272.395 251.677 C 272.776 252.436,273.596 253.640,274.216 254.353 C 274.837 255.066,275.345 255.900,275.345 256.207 C 275.345 256.761,277.678 258.777,278.319 258.777 C 278.504 258.777,279.109 259.195,279.663 259.706 C 280.217 260.218,281.869 261.049,283.333 261.555 C 284.798 262.060,285.996 262.596,285.996 262.747 C 285.996 263.232,288.095 263.889,290.870 264.273 C 292.357 264.478,293.866 264.894,294.223 265.197 C 295.133 265.969,296.829 266.555,299.744 267.103 C 301.179 267.373,302.696 267.946,303.295 268.446 C 303.882 268.936,305.203 269.442,306.312 269.601 C 307.396 269.757,309.349 270.475,310.651 271.197 C 311.953 271.918,313.905 272.638,314.990 272.796 C 316.075 272.955,317.417 273.403,317.971 273.793 C 318.526 274.183,319.769 274.807,320.733 275.179 C 321.697 275.552,323.018 276.340,323.669 276.931 C 324.320 277.523,325.333 278.119,325.920 278.257 C 326.508 278.395,327.484 278.968,328.090 279.531 C 328.696 280.094,329.866 280.899,330.690 281.321 C 331.514 281.742,332.282 282.331,332.397 282.630 C 332.511 282.929,333.266 283.438,334.074 283.761 C 335.486 284.326,337.979 286.115,340.032 288.038 C 340.570 288.542,341.741 289.398,342.633 289.941 C 343.526 290.483,344.840 291.282,345.554 291.716 C 346.267 292.150,347.635 293.170,348.595 293.982 C 349.554 294.795,350.778 295.569,351.314 295.704 C 351.850 295.839,352.451 296.251,352.649 296.621 C 352.847 296.991,353.719 297.528,354.587 297.815 C 355.455 298.101,356.743 298.932,357.450 299.661 C 358.157 300.390,358.935 300.986,359.180 300.986 C 359.682 300.986,363.810 303.998,365.226 305.397 C 369.247 309.369,368.422 310.064,359.443 310.270 C 355.694 310.355,351.614 310.599,350.376 310.811 C 349.139 311.023,345.464 311.388,342.209 311.621 C 338.955 311.854,335.404 312.119,334.320 312.210 C 333.235 312.301,331.193 312.837,329.783 313.400 C 328.373 313.963,325.746 314.661,323.946 314.951 C 321.817 315.294,320.370 315.751,319.804 316.260 C 319.326 316.690,318.047 317.257,316.963 317.519 C 312.840 318.515,311.931 318.811,310.717 319.551 C 310.030 319.970,309.060 320.313,308.562 320.314 C 306.321 320.318,304.698 323.912,305.843 326.333 C 306.176 327.037,306.574 328.146,306.727 328.797 C 306.881 329.448,307.335 330.343,307.736 330.786 C 308.137 331.229,308.670 332.206,308.921 332.956 C 309.171 333.706,309.876 334.852,310.487 335.503 C 311.097 336.154,311.871 337.342,312.205 338.144 C 312.539 338.946,313.053 339.744,313.346 339.919 C 313.640 340.094,314.214 340.769,314.623 341.420 C 316.554 344.496,323.925 350.936,330.079 354.924 C 331.001 355.521,331.755 356.212,331.755 356.458 C 331.755 356.705,332.294 357.129,332.951 357.402 C 333.609 357.674,334.807 358.422,335.614 359.063 C 336.421 359.704,337.635 360.461,338.311 360.743 C 338.988 361.026,339.787 361.605,340.087 362.030 C 340.386 362.454,341.341 363.046,342.209 363.346 C 343.077 363.646,344.618 364.449,345.634 365.131 C 346.650 365.813,348.109 366.489,348.878 366.634 C 349.646 366.778,350.412 367.131,350.581 367.418 C 350.987 368.111,352.922 369.067,354.635 369.422 C 355.394 369.580,356.460 370.123,357.002 370.630 C 357.544 371.137,358.876 371.750,359.961 371.992 C 361.045 372.234,362.377 372.849,362.919 373.359 C 363.462 373.869,364.704 374.506,365.680 374.775 C 366.657 375.044,367.748 375.590,368.105 375.989 C 368.463 376.387,369.839 377.183,371.163 377.757 C 372.487 378.332,373.570 378.952,373.570 379.136 C 373.570 379.320,374.324 379.853,375.247 380.319 C 376.169 380.786,377.063 381.407,377.234 381.700 C 377.405 381.993,378.382 382.714,379.404 383.301 C 380.426 383.889,381.795 384.773,382.446 385.265 C 385.130 387.295,387.499 389.211,388.491 390.155 C 389.072 390.707,390.212 391.564,391.026 392.061 C 391.907 392.599,392.505 393.270,392.505 393.721 C 392.505 394.383,392.801 394.477,394.872 394.477 C 397.717 394.477,398.114 393.441,396.055 391.382 C 395.404 390.731,394.872 390.048,394.872 389.863 C 394.872 389.679,393.001 387.691,390.715 385.446 C 388.429 383.200,386.273 380.808,385.924 380.129 C 385.576 379.451,384.695 378.279,383.967 377.526 C 383.239 376.773,382.643 375.959,382.643 375.716 C 382.643 375.473,382.199 375.072,381.657 374.825 C 381.114 374.578,380.671 374.168,380.671 373.914 C 380.671 373.258,373.779 366.592,368.179 361.831 C 364.823 358.978,362.712 357.396,362.258 357.396 C 361.996 357.396,361.548 357.075,361.265 356.682 C 360.981 356.288,360.128 355.537,359.369 355.013 C 358.609 354.488,357.544 353.685,357.002 353.227 C 356.460 352.769,355.394 352.152,354.635 351.856 C 353.876 351.559,352.787 350.855,352.215 350.291 C 351.644 349.727,350.436 349.043,349.532 348.772 C 348.627 348.501,347.794 348.037,347.680 347.740 C 347.567 347.444,346.733 346.908,345.828 346.549 C 344.922 346.191,343.649 345.401,342.998 344.794 C 342.347 344.187,341.339 343.578,340.757 343.442 C 340.176 343.306,339.048 342.579,338.251 341.828 C 337.454 341.076,336.475 340.357,336.074 340.230 C 335.674 340.103,335.240 339.666,335.111 339.259 C 334.982 338.852,334.260 338.155,333.507 337.711 C 332.754 337.267,331.973 336.470,331.772 335.941 C 331.571 335.412,331.060 334.869,330.637 334.735 C 330.214 334.600,329.657 333.983,329.400 333.362 C 329.143 332.741,328.590 331.864,328.170 331.414 C 327.220 330.394,327.997 329.771,331.164 329.018 C 332.249 328.759,333.491 328.320,333.925 328.042 C 334.834 327.459,337.709 326.786,340.803 326.432 C 341.982 326.297,344.024 325.682,345.339 325.065 C 347.364 324.116,348.429 323.905,352.268 323.692 C 354.763 323.554,358.580 323.090,360.750 322.662 C 364.786 321.867,367.272 321.449,372.265 320.726 C 373.826 320.500,375.694 319.967,376.416 319.541 C 377.138 319.115,379.057 318.568,380.679 318.326 C 385.456 317.615,385.608 317.539,385.560 315.897 C 385.530 314.882,385.105 313.969,384.081 312.719 C 383.290 311.754,382.643 310.772,382.643 310.538 C 382.643 310.304,382.296 310.002,381.873 309.868 C 381.449 309.733,380.830 309.078,380.497 308.411 C 379.467 306.346,372.612 298.932,369.437 296.450 C 368.604 295.799,367.282 294.601,366.497 293.787 C 365.713 292.973,364.864 292.308,364.609 292.308 C 364.355 292.308,363.915 291.989,363.632 291.600 C 363.348 291.210,362.406 290.367,361.538 289.726 C 360.671 289.085,359.729 288.250,359.445 287.870 C 359.162 287.490,358.707 287.179,358.435 287.179 C 357.944 287.179,354.547 284.567,352.663 282.740 C 352.120 282.214,350.966 281.309,350.099 280.728 C 349.231 280.148,347.456 278.888,346.154 277.929 C 344.852 276.970,343.123 275.787,342.312 275.301 C 341.501 274.814,340.739 274.107,340.619 273.730 C 340.500 273.353,339.879 272.862,339.240 272.639 C 338.602 272.417,337.252 271.603,336.241 270.831 C 335.230 270.059,334.217 269.428,333.989 269.428 C 333.760 269.428,333.075 268.950,332.466 268.367 C 331.284 267.234,328.682 265.627,325.919 264.323 C 324.987 263.883,323.655 263.101,322.960 262.584 C 322.265 262.068,320.823 261.355,319.757 261.001 C 318.690 260.648,317.521 260.091,317.160 259.764 C 316.799 259.437,315.276 258.752,313.775 258.241 C 312.274 257.730,310.355 256.842,309.511 256.269 C 308.667 255.696,307.459 255.227,306.825 255.227 C 306.129 255.227,305.075 254.746,304.160 254.011 C 303.328 253.342,301.874 252.623,300.929 252.413 C 299.984 252.203,298.590 251.621,297.830 251.120 C 297.071 250.620,295.435 249.996,294.194 249.734 C 291.341 249.133,287.981 246.454,286.757 243.805 C 286.301 242.819,285.617 241.746,285.238 241.420 C 284.859 241.095,284.226 239.954,283.832 238.885 C 283.438 237.816,282.704 236.333,282.200 235.591 C 281.696 234.848,281.170 233.592,281.032 232.801 C 280.894 232.009,280.281 230.722,279.670 229.941 C 279.059 229.160,278.444 227.906,278.303 227.154 C 278.162 226.402,277.438 225.019,276.696 224.081 C 275.907 223.084,275.345 221.928,275.345 221.301 C 275.345 220.706,274.827 219.575,274.185 218.767 C 273.547 217.964,272.721 216.387,272.349 215.261 C 271.977 214.136,271.367 212.999,270.995 212.735 C 270.622 212.470,270.107 211.420,269.851 210.402 C 269.594 209.383,268.869 207.824,268.238 206.937 C 267.608 206.051,266.923 204.554,266.716 203.611 C 266.509 202.669,265.969 201.504,265.517 201.023 C 265.065 200.541,264.435 199.269,264.116 198.195 C 263.797 197.121,263.086 195.633,262.537 194.889 C 261.988 194.144,261.538 193.248,261.538 192.897 C 261.538 192.545,260.740 190.692,259.763 188.779 C 258.787 186.866,257.988 184.941,257.988 184.502 C 257.988 184.063,257.515 183.083,256.936 182.325 C 256.358 181.566,255.673 180.040,255.415 178.934 C 255.157 177.828,254.492 176.255,253.937 175.439 C 253.382 174.622,252.801 173.203,252.646 172.285 C 252.491 171.367,251.861 169.726,251.247 168.639 C 250.634 167.551,249.928 165.686,249.678 164.494 C 249.429 163.302,248.819 161.884,248.322 161.341 C 247.825 160.799,247.297 159.605,247.148 158.689 C 246.999 157.772,246.360 156.264,245.727 155.336 C 245.095 154.408,244.391 152.974,244.162 152.149 C 243.933 151.324,243.396 150.299,242.968 149.872 C 242.541 149.444,241.777 148.167,241.271 147.033 C 240.765 145.898,239.970 144.632,239.505 144.219 C 239.039 143.806,238.659 143.265,238.659 143.017 C 238.659 142.461,235.481 137.410,234.362 136.185 C 233.911 135.693,233.248 134.716,232.887 134.016 C 232.527 133.315,231.726 132.124,231.106 131.370 C 230.487 130.615,229.980 129.692,229.980 129.319 C 229.980 128.945,229.359 128.166,228.600 127.587 C 227.840 127.007,227.219 126.320,227.219 126.060 C 227.219 125.799,226.623 124.888,225.895 124.036 C 225.166 123.183,224.451 122.108,224.306 121.647 C 224.160 121.186,223.469 120.171,222.770 119.393 C 222.071 118.614,220.878 117.240,220.118 116.339 C 219.359 115.438,218.235 114.161,217.622 113.502 C 217.008 112.842,216.211 111.842,215.851 111.280 C 215.129 110.151,212.398 106.711,211.211 105.434 C 210.795 104.986,209.744 103.791,208.876 102.779 C 205.634 98.998,189.235 82.840,188.640 82.840 C 188.536 82.840,187.710 82.175,186.804 81.361 C 183.651 78.529,182.229 77.370,180.903 76.550 C 180.169 76.097,179.280 75.285,178.927 74.747 C 178.574 74.208,178.039 73.767,177.738 73.767 C 177.437 73.767,176.758 73.253,176.229 72.625 C 175.701 71.997,174.740 71.210,174.095 70.876 C 173.449 70.542,172.700 70.003,172.430 69.677 C 172.159 69.352,171.275 68.739,170.464 68.317 C 169.653 67.894,168.436 66.995,167.760 66.318 C 167.083 65.642,166.260 65.089,165.930 65.089 C 165.601 65.089,165.099 64.764,164.815 64.368 C 164.312 63.665,160.654 61.094,158.614 60.010 C 158.053 59.712,157.061 58.968,156.410 58.358 C 155.759 57.748,154.428 56.877,153.452 56.425 C 151.451 55.496,149.808 54.435,147.487 52.572 C 146.614 51.871,145.206 51.110,144.357 50.882 C 143.509 50.653,142.644 50.149,142.437 49.761 C 142.230 49.374,141.295 48.721,140.359 48.311 C 139.424 47.901,138.126 47.184,137.475 46.717 C 136.824 46.250,135.715 45.676,135.011 45.440 C 134.306 45.205,133.144 44.565,132.428 44.019 C 131.712 43.473,130.046 42.774,128.725 42.466 C 127.405 42.158,125.816 41.540,125.194 41.092 C 124.572 40.644,122.909 40.083,121.499 39.844 C 118.626 39.358,115.391 38.389,114.201 37.659 C 113.767 37.392,112.038 37.067,110.358 36.936 C 108.679 36.804,106.282 36.355,105.033 35.937 C 101.112 34.624,98.284 34.282,89.351 34.038 L 80.674 33.801 79.626 32.680 C 79.050 32.063,78.411 31.558,78.206 31.558 C 78.000 31.558,76.508 30.428,74.888 29.046 C 73.269 27.665,71.192 26.059,70.273 25.479 C 69.354 24.899,68.505 24.174,68.388 23.868 C 68.271 23.562,67.525 23.098,66.730 22.836 C 65.936 22.575,64.423 21.767,63.368 21.042 C 62.313 20.317,61.238 19.724,60.979 19.724 C 60.720 19.724,59.913 19.284,59.185 18.747 C 58.457 18.210,57.224 17.565,56.445 17.314 C 55.667 17.063,54.258 16.343,53.315 15.714 C 52.372 15.085,50.753 14.389,49.717 14.167 C 48.681 13.945,47.489 13.442,47.068 13.049 C 45.873 11.937,44.932 11.539,42.801 11.249 C 41.716 11.101,39.763 10.478,38.462 9.865 C 34.707 8.096,23.862 7.370,16.963 8.425 M87.179 74.589 C 83.122 75.367,82.446 75.836,82.446 77.871 C 82.446 78.796,82.694 79.294,83.333 79.645 C 83.821 79.914,84.703 80.787,85.291 81.586 C 85.880 82.384,87.253 84.180,88.343 85.577 C 89.432 86.974,90.530 88.750,90.784 89.522 C 91.037 90.295,91.637 91.460,92.119 92.110 C 92.600 92.761,93.112 93.798,93.258 94.414 C 94.515 99.719,98.159 100.081,99.848 95.069 C 100.104 94.310,100.642 93.070,101.044 92.314 C 102.089 90.349,102.068 85.989,101.010 85.031 C 100.589 84.650,99.965 83.518,99.623 82.515 C 99.024 80.757,96.812 78.307,94.602 76.955 C 92.481 75.657,89.597 74.165,89.288 74.205 C 89.105 74.229,88.156 74.401,87.179 74.589 M165.321 310.432 C 165.029 310.612,164.912 310.957,165.061 311.198 C 165.386 311.724,166.336 311.777,166.639 311.287 C 166.975 310.744,165.921 310.061,165.321 310.432 M174.011 319.103 C 173.615 319.348,173.638 319.468,174.116 319.652 C 174.453 319.781,174.826 319.729,174.944 319.537 C 175.256 319.033,174.610 318.733,174.011 319.103 " stroke="none" fill="#ffffff" fill-rule="evenodd"></path></g></svg>