<svg id="svg" version="1.1" width="400" height="400" viewBox="0 0 400 400" xmlns="http://www.w3.org/2000/svg" xmlns:xlink="http://www.w3.org/1999/xlink" ><g id="svgg"><path id="path0" d="M243.600 32.642 C 243.600 33.547,244.009 34.234,246.006 36.683 C 246.223 36.949,246.400 37.354,246.400 37.583 C 246.400 37.812,246.580 38.000,246.800 38.000 C 247.020 38.000,247.200 38.191,247.200 38.423 C 247.200 38.766,249.190 41.592,250.001 42.400 C 250.111 42.510,250.456 43.095,250.768 43.700 C 251.080 44.305,251.485 44.800,251.668 44.800 C 251.850 44.800,252.000 45.160,252.000 45.600 C 252.000 46.040,252.180 46.400,252.400 46.400 C 252.620 46.400,252.800 46.670,252.800 47.000 C 252.800 47.330,252.980 47.600,253.200 47.600 C 253.420 47.600,253.600 47.870,253.600 48.200 C 253.600 48.530,253.746 48.800,253.925 48.800 C 254.104 48.800,254.498 49.430,254.800 50.200 C 255.102 50.970,255.496 51.600,255.675 51.600 C 255.854 51.600,256.000 51.870,256.000 52.200 C 256.000 52.530,256.146 52.800,256.325 52.800 C 256.504 52.800,256.898 53.430,257.200 54.200 C 257.502 54.970,257.896 55.600,258.075 55.600 C 258.254 55.600,258.400 55.960,258.400 56.400 C 258.400 56.840,258.580 57.200,258.800 57.200 C 259.020 57.200,259.200 57.470,259.200 57.800 C 259.200 58.130,259.380 58.400,259.600 58.400 C 259.820 58.400,260.000 58.586,260.000 58.813 C 260.000 59.210,262.120 63.576,264.748 68.589 C 265.437 69.903,266.000 71.208,266.000 71.489 C 266.000 71.770,266.180 72.000,266.400 72.000 C 266.620 72.000,266.800 72.236,266.800 72.525 C 266.800 72.814,267.160 73.795,267.600 74.706 C 268.040 75.616,268.400 76.640,268.400 76.981 C 268.400 77.321,268.580 77.600,268.800 77.600 C 269.020 77.600,269.200 77.960,269.200 78.400 C 269.200 78.840,269.380 79.200,269.600 79.200 C 269.820 79.200,270.000 79.560,270.000 80.000 C 270.000 80.440,270.180 80.800,270.400 80.800 C 270.620 80.800,270.800 81.340,270.800 82.000 C 270.800 82.660,270.935 83.201,271.100 83.203 C 271.456 83.207,272.400 85.141,272.400 85.868 C 272.400 86.147,272.760 87.017,273.200 87.800 C 273.640 88.583,274.000 89.579,274.000 90.012 C 274.000 90.445,274.180 90.800,274.400 90.800 C 274.620 90.800,274.800 91.340,274.800 92.000 C 274.800 92.660,274.980 93.200,275.200 93.200 C 275.420 93.200,275.600 93.549,275.600 93.976 C 275.600 94.403,275.780 94.864,276.000 95.000 C 276.220 95.136,276.400 95.777,276.400 96.424 C 276.400 97.071,276.580 97.600,276.800 97.600 C 277.020 97.600,277.202 98.005,277.204 98.500 C 277.207 98.995,277.493 100.300,277.841 101.400 C 278.188 102.500,278.514 103.670,278.564 104.000 C 278.654 104.585,278.929 105.375,279.606 107.000 C 279.790 107.440,280.051 108.340,280.188 109.000 C 280.324 109.660,280.600 110.830,280.800 111.600 C 281.703 115.077,282.072 116.699,282.254 118.000 C 282.361 118.770,282.607 119.760,282.800 120.200 C 283.129 120.951,283.302 121.869,283.856 125.800 C 283.980 126.680,284.244 127.571,284.441 127.780 C 284.638 127.989,284.800 129.279,284.800 130.647 C 284.800 132.014,284.970 133.193,285.178 133.267 C 285.386 133.340,285.593 134.705,285.639 136.300 C 285.684 137.895,285.858 139.200,286.024 139.200 C 286.542 139.200,286.875 147.290,286.873 159.800 C 286.871 171.100,286.586 176.416,285.630 183.000 C 285.407 184.540,285.125 186.610,285.005 187.600 C 284.751 189.693,284.011 193.531,283.694 194.400 C 283.574 194.730,283.430 195.630,283.375 196.400 C 283.319 197.170,283.236 197.890,283.189 198.000 C 283.143 198.110,283.127 198.335,283.153 198.500 C 283.179 198.665,282.999 198.800,282.753 198.800 C 282.493 198.800,282.386 199.216,282.498 199.800 C 282.603 200.350,282.513 200.800,282.298 200.800 C 282.083 200.800,281.992 201.245,282.096 201.788 C 282.211 202.393,282.128 202.679,281.879 202.525 C 281.631 202.372,281.561 202.609,281.700 203.137 C 281.824 203.612,281.801 204.000,281.650 204.000 C 281.498 204.000,281.337 204.450,281.292 205.000 C 281.246 205.550,281.387 206.000,281.604 206.000 C 281.822 206.000,282.000 206.366,282.000 206.814 C 282.000 207.521,281.881 207.571,281.100 207.192 C 280.288 206.798,280.268 206.811,280.900 207.322 C 281.716 207.982,281.815 209.020,281.104 209.459 C 280.478 209.846,282.003 210.304,284.100 210.360 C 284.925 210.382,285.600 210.580,285.600 210.800 C 285.600 211.020,286.320 211.200,287.200 211.200 C 288.080 211.200,288.800 211.380,288.800 211.600 C 288.800 211.820,289.430 212.000,290.200 212.000 C 290.970 212.000,291.600 212.180,291.600 212.400 C 291.600 212.620,292.320 212.800,293.200 212.800 C 294.080 212.800,294.800 212.980,294.800 213.200 C 294.800 213.420,295.520 213.600,296.400 213.600 C 297.280 213.600,298.000 213.780,298.000 214.000 C 298.000 214.220,298.720 214.400,299.600 214.400 C 300.480 214.400,301.200 214.580,301.200 214.800 C 301.200 215.020,301.920 215.200,302.800 215.200 C 303.680 215.200,304.400 215.380,304.400 215.600 C 304.400 215.820,305.120 216.000,306.000 216.000 C 306.880 216.000,307.600 216.180,307.600 216.400 C 307.600 216.620,308.230 216.800,309.000 216.800 C 309.770 216.800,310.400 216.980,310.400 217.200 C 310.400 217.420,311.120 217.600,312.000 217.600 C 312.880 217.600,313.600 217.780,313.600 218.000 C 313.600 218.220,314.320 218.400,315.200 218.400 C 316.080 218.400,316.800 218.580,316.800 218.800 C 316.800 219.020,317.520 219.200,318.400 219.200 C 319.280 219.200,320.000 219.380,320.000 219.600 C 320.000 219.820,320.720 220.000,321.600 220.000 C 322.480 220.000,323.200 220.180,323.200 220.400 C 323.200 220.620,323.830 220.800,324.600 220.800 C 325.370 220.800,326.000 220.980,326.000 221.200 C 326.000 221.420,326.720 221.600,327.600 221.600 C 328.480 221.600,329.200 221.780,329.200 222.000 C 329.200 222.220,329.920 222.400,330.800 222.400 C 331.680 222.400,332.400 222.580,332.400 222.800 C 332.400 223.020,333.120 223.200,334.000 223.200 C 334.880 223.200,335.600 223.380,335.600 223.600 C 335.600 223.820,336.320 224.000,337.200 224.000 C 338.080 224.000,338.800 224.180,338.800 224.400 C 338.800 224.620,339.430 224.800,340.200 224.800 C 340.970 224.800,341.600 224.980,341.600 225.200 C 341.600 225.420,342.320 225.600,343.200 225.600 C 344.080 225.600,344.800 225.780,344.800 226.000 C 344.800 226.220,345.520 226.400,346.400 226.400 C 347.280 226.400,348.000 226.561,348.000 226.758 C 348.000 226.955,349.440 227.244,351.200 227.400 C 352.960 227.556,354.400 227.845,354.400 228.042 C 354.400 228.239,355.120 228.400,356.000 228.400 C 356.880 228.400,357.600 228.580,357.600 228.800 C 357.600 229.020,358.230 229.200,359.000 229.200 C 359.770 229.200,360.400 229.380,360.400 229.600 C 360.400 229.820,361.120 230.000,362.000 230.000 C 362.880 230.000,363.600 230.180,363.600 230.400 C 363.600 231.071,365.994 230.876,366.050 230.200 C 366.078 229.870,366.123 229.390,366.150 229.133 C 366.178 228.877,366.450 228.583,366.756 228.481 C 367.134 228.355,367.211 228.472,366.997 228.848 C 366.779 229.230,366.814 229.277,367.111 229.000 C 367.612 228.532,367.277 226.305,366.754 226.628 C 366.559 226.749,366.400 226.676,366.400 226.466 C 366.400 226.257,366.670 225.982,367.000 225.855 C 367.797 225.550,367.771 223.641,366.966 223.332 C 366.618 223.198,366.505 222.979,366.716 222.844 C 366.927 222.710,367.231 221.992,367.393 221.250 C 367.598 220.305,367.553 219.982,367.244 220.173 C 366.936 220.363,366.906 220.166,367.145 219.523 C 367.551 218.428,367.526 211.793,367.114 211.381 C 366.957 211.223,367.008 210.758,367.228 210.347 C 367.479 209.880,367.484 209.600,367.243 209.600 C 367.032 209.600,366.765 208.115,366.651 206.300 C 366.344 201.444,365.835 197.059,365.520 196.574 C 365.369 196.340,365.200 195.295,365.146 194.251 C 365.092 193.207,364.902 192.263,364.724 192.153 C 364.546 192.043,364.400 191.279,364.400 190.456 C 364.400 189.633,364.238 188.789,364.041 188.580 C 363.844 188.371,363.580 187.480,363.456 186.600 C 362.978 183.211,362.699 181.985,362.356 181.773 C 362.160 181.652,362.000 180.933,362.000 180.176 C 362.000 179.419,361.820 178.800,361.600 178.800 C 361.380 178.800,361.200 178.069,361.200 177.176 C 361.200 176.196,361.042 175.651,360.800 175.800 C 360.562 175.947,360.400 175.471,360.400 174.624 C 360.400 173.841,360.220 173.200,360.000 173.200 C 359.780 173.200,359.600 172.570,359.600 171.800 C 359.600 171.030,359.443 170.400,359.251 170.400 C 359.059 170.400,358.762 169.635,358.590 168.700 C 358.195 166.545,358.265 166.769,357.618 165.600 C 357.314 165.050,357.107 164.600,357.158 164.600 C 357.257 164.600,357.201 164.427,356.176 161.600 C 355.818 160.610,355.431 159.305,355.317 158.700 C 355.203 158.095,354.978 157.600,354.819 157.600 C 354.659 157.600,354.288 156.835,353.994 155.900 C 353.701 154.965,353.312 154.029,353.130 153.820 C 352.949 153.611,352.800 153.116,352.800 152.720 C 352.800 152.324,352.620 152.000,352.400 152.000 C 352.180 152.000,352.000 151.550,352.000 151.000 C 352.000 150.450,351.865 149.999,351.700 149.997 C 351.341 149.993,350.400 148.056,350.400 147.320 C 350.400 147.034,350.220 146.800,350.000 146.800 C 349.780 146.800,349.600 146.339,349.600 145.776 C 349.600 145.196,349.427 144.860,349.200 145.000 C 348.980 145.136,348.800 144.877,348.800 144.424 C 348.800 143.971,348.620 143.600,348.400 143.600 C 348.180 143.600,348.000 143.240,348.000 142.800 C 348.000 142.360,347.820 142.000,347.600 142.000 C 347.380 142.000,347.200 141.640,347.200 141.200 C 347.200 140.760,347.020 140.400,346.800 140.400 C 346.580 140.400,346.400 140.040,346.400 139.600 C 346.400 139.160,346.220 138.800,346.000 138.800 C 345.780 138.800,345.600 138.440,345.600 138.000 C 345.600 137.560,345.420 137.200,345.200 137.200 C 344.980 137.200,344.800 136.922,344.800 136.583 C 344.800 136.244,344.440 135.580,344.000 135.108 C 343.560 134.636,343.200 133.957,343.200 133.600 C 343.200 133.243,342.840 132.564,342.400 132.092 C 341.960 131.620,341.600 131.018,341.600 130.754 C 341.600 130.491,341.150 129.686,340.600 128.964 C 340.050 128.243,339.600 127.371,339.600 127.027 C 339.600 126.682,339.442 126.400,339.249 126.400 C 339.055 126.400,338.673 125.860,338.400 125.200 C 338.127 124.540,337.790 123.998,337.651 123.995 C 337.513 123.993,337.068 123.298,336.663 122.451 C 336.257 121.604,335.537 120.475,335.063 119.941 C 334.588 119.407,334.141 118.707,334.070 118.385 C 333.998 118.063,333.773 117.740,333.570 117.667 C 333.366 117.593,333.200 117.268,333.200 116.943 C 333.200 116.618,333.020 116.464,332.800 116.600 C 332.580 116.736,332.400 116.594,332.400 116.286 C 332.400 115.977,332.040 115.398,331.600 115.000 C 331.160 114.602,330.800 113.933,330.800 113.514 C 330.800 113.096,330.655 112.842,330.479 112.951 C 330.302 113.060,329.720 112.441,329.184 111.575 C 328.649 110.709,328.086 110.000,327.933 110.000 C 327.779 110.000,327.549 109.685,327.422 109.300 C 327.294 108.915,326.562 107.882,325.795 107.004 C 325.028 106.127,324.400 105.297,324.400 105.159 C 324.400 105.022,323.862 104.210,323.205 103.355 C 322.547 102.500,321.871 101.620,321.703 101.400 C 321.240 100.798,317.458 96.269,317.000 95.769 C 316.780 95.529,315.790 94.378,314.800 93.210 C 313.810 92.043,312.055 90.127,310.900 88.953 C 309.745 87.778,308.800 86.639,308.800 86.420 C 308.800 85.983,294.997 72.145,290.427 68.000 C 288.851 66.570,286.895 64.791,286.080 64.047 C 285.266 63.304,283.796 62.044,282.814 61.247 C 281.832 60.451,280.303 59.125,279.416 58.300 C 278.530 57.475,277.654 56.800,277.471 56.800 C 277.287 56.800,276.446 56.080,275.600 55.200 C 274.754 54.320,273.959 53.600,273.832 53.600 C 273.705 53.600,272.859 52.880,271.952 52.000 C 271.045 51.120,270.100 50.391,269.852 50.380 C 269.603 50.370,268.680 49.651,267.800 48.783 C 266.920 47.916,266.057 47.204,265.883 47.203 C 265.709 47.201,265.184 46.844,264.717 46.408 C 264.249 45.973,263.132 45.118,262.234 44.508 C 261.335 43.899,260.540 43.265,260.467 43.100 C 260.393 42.935,260.080 42.800,259.770 42.800 C 259.460 42.800,258.982 42.440,258.707 42.000 C 258.432 41.560,257.981 41.200,257.704 41.200 C 257.427 41.200,257.200 41.020,257.200 40.800 C 257.200 40.580,256.930 40.400,256.600 40.400 C 256.270 40.400,256.000 40.259,256.000 40.086 C 256.000 39.914,255.505 39.479,254.900 39.121 C 254.295 38.763,253.260 38.004,252.600 37.435 C 251.940 36.866,251.215 36.401,250.988 36.400 C 250.762 36.400,250.317 36.040,250.000 35.600 C 249.683 35.160,249.169 34.800,248.859 34.800 C 248.548 34.800,248.003 34.477,247.647 34.082 C 247.060 33.431,244.205 31.600,243.777 31.600 C 243.680 31.600,243.600 32.069,243.600 32.642 M90.320 65.505 C 89.604 65.659,90.108 67.600,90.864 67.600 C 91.049 67.600,91.200 67.971,91.200 68.424 C 91.200 68.877,91.380 69.136,91.600 69.000 C 91.820 68.864,92.000 68.994,92.000 69.288 C 92.000 69.583,92.360 70.083,92.800 70.400 C 93.240 70.717,93.600 71.254,93.600 71.592 C 93.600 71.931,93.960 72.432,94.400 72.707 C 94.840 72.982,95.200 73.377,95.200 73.586 C 95.200 74.070,96.924 76.731,97.986 77.886 C 98.434 78.373,98.800 78.924,98.800 79.110 C 98.800 79.297,99.156 79.831,99.591 80.299 C 100.027 80.766,100.432 81.383,100.491 81.670 C 100.551 81.957,101.095 82.671,101.700 83.257 C 102.305 83.842,102.800 84.520,102.800 84.764 C 102.800 85.008,103.340 85.772,104.000 86.463 C 104.660 87.154,105.200 87.973,105.200 88.283 C 105.200 88.593,105.380 88.736,105.600 88.600 C 105.820 88.464,106.000 88.607,106.000 88.917 C 106.000 89.227,106.495 90.006,107.100 90.648 C 107.705 91.289,108.455 92.306,108.768 92.907 C 109.080 93.508,109.485 94.000,109.668 94.000 C 109.850 94.000,110.000 94.283,110.000 94.629 C 110.000 94.974,110.225 95.490,110.500 95.775 C 111.621 96.938,112.781 98.400,112.582 98.400 C 112.465 98.400,112.721 98.778,113.152 99.241 C 113.583 99.703,114.436 100.873,115.048 101.841 C 115.659 102.808,116.304 103.600,116.480 103.600 C 116.656 103.600,116.800 103.788,116.800 104.018 C 116.800 104.248,117.237 104.873,117.771 105.407 C 118.305 105.941,119.064 106.923,119.457 107.589 C 119.851 108.255,120.314 108.800,120.486 108.800 C 120.659 108.800,120.800 109.025,120.801 109.300 C 120.801 109.575,121.341 110.430,122.000 111.200 C 122.659 111.970,123.199 112.743,123.199 112.918 C 123.200 113.093,123.650 113.686,124.200 114.236 C 124.750 114.786,125.200 115.386,125.200 115.568 C 125.200 115.750,125.830 116.587,126.600 117.428 C 127.370 118.269,128.000 119.191,128.000 119.478 C 128.000 119.765,128.191 120.000,128.424 120.000 C 128.657 120.000,128.764 120.135,128.662 120.300 C 128.560 120.465,129.180 121.315,130.039 122.189 C 130.897 123.063,131.600 123.916,131.600 124.085 C 131.600 124.379,132.446 125.505,133.500 126.616 C 133.775 126.906,134.000 127.265,134.000 127.414 C 134.000 127.563,134.405 128.173,134.900 128.771 C 135.395 129.369,136.250 130.458,136.800 131.192 C 137.350 131.926,138.025 132.755,138.300 133.035 C 138.575 133.314,138.800 133.836,138.800 134.195 C 138.800 134.554,138.980 134.736,139.200 134.600 C 139.420 134.464,139.600 134.498,139.600 134.676 C 139.601 134.854,140.006 135.480,140.500 136.066 C 142.525 138.466,142.800 138.817,142.800 139.000 C 142.800 139.178,143.136 139.610,144.900 141.695 C 145.285 142.150,145.600 142.662,145.600 142.833 C 145.600 143.003,145.828 143.381,146.106 143.671 C 147.037 144.645,149.270 147.600,149.074 147.600 C 148.967 147.600,149.447 148.185,150.140 148.900 C 150.833 149.615,151.850 150.819,152.400 151.575 C 152.950 152.331,153.805 153.309,154.300 153.747 C 154.795 154.186,155.200 154.752,155.200 155.006 C 155.200 155.259,155.920 156.247,156.800 157.200 C 157.680 158.153,158.400 159.101,158.400 159.306 C 158.400 159.511,158.895 160.174,159.500 160.779 C 160.559 161.837,161.434 162.886,163.932 166.087 C 164.570 166.905,165.206 167.460,165.346 167.321 C 165.486 167.181,165.600 167.343,165.600 167.681 C 165.600 168.285,167.446 170.628,169.789 172.997 C 170.443 173.659,170.940 174.329,170.894 174.486 C 170.847 174.644,171.257 175.221,171.805 175.768 C 172.352 176.316,172.801 176.637,172.801 176.482 C 172.802 176.327,173.178 176.815,173.636 177.567 C 174.288 178.636,174.548 178.810,174.829 178.367 C 175.164 177.837,175.253 177.947,175.367 179.032 C 175.392 179.270,175.917 179.932,176.533 180.503 C 177.150 181.074,177.687 181.690,177.727 181.871 C 177.767 182.052,178.043 182.172,178.340 182.138 C 178.824 182.082,179.929 182.857,181.425 184.300 C 181.710 184.575,182.406 184.800,182.971 184.800 C 183.537 184.800,184.000 184.980,184.000 185.200 C 184.000 185.420,184.720 185.600,185.600 185.600 C 186.480 185.600,187.200 185.780,187.200 186.000 C 187.200 186.220,187.920 186.400,188.800 186.400 C 189.680 186.400,190.400 186.580,190.400 186.800 C 190.400 187.020,191.030 187.200,191.800 187.200 C 192.570 187.200,193.200 187.380,193.200 187.600 C 193.200 187.820,193.740 188.000,194.400 188.000 C 195.060 188.000,195.600 188.180,195.600 188.400 C 195.600 188.620,196.320 188.800,197.200 188.800 C 198.080 188.800,198.800 188.980,198.800 189.200 C 198.800 189.420,199.520 189.600,200.400 189.600 C 201.280 189.600,202.000 189.780,202.000 190.000 C 202.000 190.220,202.720 190.400,203.600 190.400 C 204.480 190.400,205.200 190.580,205.200 190.800 C 205.200 191.020,205.920 191.200,206.800 191.200 C 207.680 191.200,208.400 191.380,208.400 191.600 C 208.400 191.820,209.030 192.000,209.800 192.000 C 210.570 192.000,211.200 192.180,211.200 192.400 C 211.200 192.620,211.920 192.800,212.800 192.800 C 213.680 192.800,214.400 192.961,214.400 193.158 C 214.400 193.355,215.840 193.644,217.600 193.800 C 219.360 193.956,220.800 194.245,220.800 194.442 C 220.800 194.639,221.520 194.800,222.400 194.800 C 223.280 194.800,224.000 194.980,224.000 195.200 C 224.000 195.420,224.630 195.600,225.400 195.600 C 226.170 195.600,226.800 195.780,226.800 196.000 C 226.800 196.220,227.520 196.400,228.400 196.400 C 229.280 196.400,230.000 196.580,230.000 196.800 C 230.000 197.020,230.720 197.200,231.600 197.200 C 232.480 197.200,233.200 197.380,233.200 197.600 C 233.200 197.820,233.920 198.000,234.800 198.000 C 235.680 198.000,236.400 198.180,236.400 198.400 C 236.400 198.620,237.120 198.800,238.000 198.800 C 238.880 198.800,239.600 198.980,239.600 199.200 C 239.600 199.420,240.230 199.600,241.000 199.600 C 241.770 199.600,242.400 199.780,242.400 200.000 C 242.400 200.220,243.120 200.400,244.000 200.400 C 244.880 200.400,245.600 200.580,245.600 200.800 C 245.600 201.020,246.320 201.200,247.200 201.200 C 248.080 201.200,248.800 201.380,248.800 201.600 C 248.800 201.820,249.520 202.000,250.400 202.000 C 251.280 202.000,252.000 202.180,252.000 202.400 C 252.000 202.620,252.720 202.800,253.600 202.800 C 254.480 202.800,255.200 202.980,255.200 203.200 C 255.200 203.420,255.492 203.600,255.849 203.600 C 256.407 203.600,256.421 203.508,255.949 202.939 C 255.647 202.575,255.454 201.961,255.519 201.574 C 255.585 201.187,255.466 200.765,255.256 200.635 C 255.040 200.501,254.965 200.746,255.084 201.199 C 255.336 202.163,254.251 202.308,253.371 201.429 C 252.876 200.933,252.884 200.773,253.429 200.229 C 253.991 199.667,253.899 199.442,253.146 199.537 C 253.006 199.555,252.238 198.935,251.439 198.159 C 250.641 197.384,249.642 196.723,249.219 196.691 C 248.796 196.660,248.361 196.293,248.252 195.877 C 248.143 195.460,247.868 195.234,247.642 195.374 C 247.415 195.515,246.874 195.274,246.440 194.840 C 245.904 194.304,245.803 193.988,246.125 193.857 C 246.386 193.750,246.285 193.649,245.900 193.632 C 245.515 193.614,245.200 193.426,245.200 193.213 C 245.200 192.999,244.930 192.929,244.600 193.055 C 244.220 193.201,244.000 193.050,244.000 192.643 C 244.000 192.289,243.745 192.000,243.433 192.000 C 243.122 192.000,242.776 191.775,242.665 191.500 C 242.504 191.100,242.457 191.100,242.432 191.500 C 242.379 192.338,241.600 192.057,241.600 191.200 C 241.600 190.760,241.414 190.400,241.187 190.400 C 240.959 190.400,240.239 189.854,239.587 189.186 C 238.934 188.519,238.400 188.082,238.400 188.215 C 238.400 188.349,237.929 188.087,237.353 187.634 C 236.777 187.182,236.102 186.927,235.853 187.070 C 235.604 187.212,235.519 187.196,235.664 187.033 C 235.925 186.742,233.739 184.400,233.207 184.400 C 233.056 184.400,232.153 183.680,231.200 182.800 C 230.247 181.920,229.237 181.200,228.956 181.200 C 228.675 181.200,228.202 180.853,227.905 180.429 C 227.608 180.005,226.878 179.436,226.283 179.165 C 225.687 178.894,225.200 178.520,225.200 178.336 C 225.200 178.151,224.900 178.000,224.533 178.000 C 224.167 178.000,223.986 177.881,224.131 177.735 C 224.277 177.590,223.729 177.018,222.915 176.465 C 222.101 175.911,220.923 175.003,220.299 174.447 C 219.674 173.890,218.450 172.963,217.579 172.386 C 216.708 171.810,216.117 171.217,216.264 171.069 C 216.412 170.921,216.302 170.800,216.019 170.800 C 215.737 170.800,214.925 170.305,214.216 169.700 C 213.507 169.095,212.503 168.330,211.986 168.000 C 211.469 167.670,210.624 166.996,210.107 166.502 C 209.590 166.008,208.646 165.334,208.008 165.004 C 207.370 164.674,206.613 164.089,206.324 163.702 C 206.036 163.316,205.329 162.758,204.754 162.462 C 204.179 162.165,203.279 161.530,202.754 161.050 C 202.229 160.570,201.170 159.741,200.400 159.208 C 199.630 158.675,198.910 158.135,198.800 158.009 C 198.690 157.883,197.790 157.159,196.800 156.400 C 195.810 155.641,194.910 154.917,194.800 154.791 C 194.690 154.665,193.970 154.124,193.200 153.589 C 192.430 153.055,191.426 152.253,190.969 151.809 C 190.512 151.364,189.528 150.550,188.782 150.000 C 188.036 149.450,186.846 148.433,186.139 147.740 C 185.432 147.047,184.776 146.557,184.682 146.652 C 184.587 146.746,183.926 146.278,183.213 145.612 C 182.499 144.945,181.776 144.400,181.606 144.400 C 181.436 144.400,180.555 143.680,179.648 142.800 C 178.741 141.920,177.854 141.200,177.678 141.200 C 177.501 141.200,176.687 140.587,175.870 139.838 C 175.052 139.089,173.833 138.054,173.162 137.538 C 172.491 137.022,171.437 136.150,170.822 135.600 C 170.206 135.050,169.011 134.060,168.166 133.400 C 166.013 131.718,161.903 128.329,161.271 127.714 C 160.981 127.431,160.579 127.200,160.378 127.200 C 160.053 127.200,159.221 126.500,155.742 123.300 C 155.204 122.805,154.690 122.400,154.600 122.400 C 154.510 122.400,154.009 121.995,153.487 121.500 C 152.964 121.005,151.767 119.970,150.826 119.200 C 149.886 118.430,148.595 117.291,147.958 116.669 C 147.321 116.047,146.800 115.679,146.800 115.850 C 146.800 116.022,146.125 115.526,145.300 114.748 C 144.475 113.969,143.260 112.927,142.600 112.431 C 141.442 111.561,137.171 107.844,135.440 106.200 C 134.976 105.760,133.608 104.590,132.400 103.600 C 131.191 102.610,129.380 100.990,128.376 100.000 C 127.372 99.010,125.841 97.707,124.975 97.105 C 124.109 96.502,122.975 95.467,122.455 94.805 C 121.935 94.142,121.342 93.600,121.137 93.600 C 120.586 93.600,118.808 91.725,119.091 91.442 C 119.224 91.309,119.047 91.200,118.696 91.200 C 118.346 91.200,116.412 89.580,114.400 87.600 C 112.388 85.620,110.674 84.000,110.592 84.000 C 110.339 84.000,105.328 79.257,99.756 73.745 C 96.835 70.854,94.344 68.589,94.222 68.711 C 94.100 68.833,94.000 68.633,94.000 68.267 C 94.000 67.900,93.854 67.600,93.676 67.600 C 93.498 67.600,92.823 67.096,92.176 66.479 C 91.529 65.863,90.694 65.424,90.320 65.505 M41.600 85.771 C 41.600 86.086,41.870 86.613,42.200 86.943 C 42.530 87.273,42.800 87.659,42.800 87.800 C 42.800 87.941,43.025 88.289,43.300 88.573 C 44.803 90.123,46.000 91.642,46.000 91.999 C 46.000 92.223,46.450 92.797,47.000 93.275 C 47.550 93.753,48.000 94.392,48.000 94.696 C 48.000 94.999,48.167 95.144,48.371 95.018 C 48.575 94.892,48.857 95.151,48.998 95.594 C 49.139 96.037,49.410 96.400,49.600 96.400 C 49.790 96.400,50.055 96.742,50.187 97.160 C 50.320 97.577,50.896 98.387,51.469 98.960 C 52.041 99.532,52.413 100.000,52.295 100.000 C 52.177 100.000,52.647 100.608,53.340 101.350 C 54.033 102.093,55.050 103.287,55.600 104.005 C 56.150 104.722,57.005 105.726,57.500 106.236 C 57.995 106.746,58.400 107.272,58.400 107.404 C 58.400 107.535,58.939 108.219,59.598 108.922 C 60.257 109.625,60.797 110.415,60.798 110.677 C 60.799 110.940,61.119 111.390,61.508 111.677 C 62.380 112.322,64.967 115.600,64.603 115.600 C 64.458 115.600,64.892 116.066,65.569 116.636 C 66.246 117.205,66.800 117.827,66.800 118.017 C 66.800 118.208,67.205 118.795,67.700 119.321 C 69.922 121.686,71.600 123.718,71.600 124.045 C 71.600 124.240,71.780 124.400,72.000 124.400 C 72.220 124.400,72.400 124.700,72.400 125.067 C 72.400 125.433,72.519 125.614,72.665 125.469 C 72.810 125.323,73.382 125.878,73.936 126.702 C 74.490 127.526,75.271 128.491,75.671 128.847 C 76.072 129.203,76.400 129.608,76.400 129.747 C 76.400 129.886,76.715 130.328,77.100 130.730 C 77.485 131.131,78.430 132.239,79.200 133.191 C 80.730 135.083,82.264 136.976,83.200 138.127 C 83.530 138.532,84.160 139.266,84.600 139.758 C 85.040 140.250,86.030 141.439,86.800 142.401 C 87.570 143.363,88.666 144.633,89.236 145.223 C 89.806 145.813,90.699 146.905,91.220 147.648 C 91.742 148.392,92.671 149.477,93.285 150.060 C 93.898 150.644,94.400 151.329,94.400 151.584 C 94.400 151.839,94.580 151.936,94.800 151.800 C 95.020 151.664,95.200 151.833,95.200 152.176 C 95.200 152.519,95.481 152.800,95.824 152.800 C 96.167 152.800,96.344 152.966,96.219 153.170 C 95.891 153.700,98.237 156.148,98.762 155.824 C 99.133 155.594,99.410 156.509,99.100 156.939 C 99.045 157.015,99.247 157.375,99.549 157.739 C 100.169 158.486,101.409 158.661,100.962 157.938 C 100.784 157.650,100.852 157.585,101.145 157.766 C 101.402 157.925,101.502 158.234,101.367 158.453 C 101.232 158.672,101.396 159.154,101.732 159.525 C 102.068 159.896,102.368 160.380,102.398 160.600 C 102.428 160.820,102.713 160.947,103.032 160.881 C 103.350 160.816,103.723 161.055,103.860 161.412 C 103.997 161.769,104.545 162.227,105.079 162.430 C 105.612 162.633,105.937 162.979,105.800 163.199 C 105.659 163.429,106.009 163.600,106.619 163.600 C 107.378 163.600,107.623 163.764,107.467 164.171 C 107.346 164.485,107.505 164.955,107.819 165.216 C 108.134 165.477,108.281 165.870,108.146 166.088 C 107.994 166.333,108.227 166.382,108.750 166.216 C 109.254 166.056,109.600 166.120,109.600 166.373 C 109.600 166.608,110.320 166.800,111.200 166.800 C 112.080 166.800,112.800 166.980,112.800 167.200 C 112.800 167.420,113.520 167.600,114.400 167.600 C 115.280 167.600,116.000 167.780,116.000 168.000 C 116.000 168.220,116.720 168.400,117.600 168.400 C 118.480 168.400,119.200 168.580,119.200 168.800 C 119.200 169.020,119.740 169.200,120.400 169.200 C 121.060 169.200,121.600 169.380,121.600 169.600 C 121.600 169.820,122.320 170.000,123.200 170.000 C 124.080 170.000,124.800 170.180,124.800 170.400 C 124.800 170.620,125.430 170.800,126.200 170.800 C 126.970 170.800,127.600 170.980,127.600 171.200 C 127.600 171.420,128.320 171.600,129.200 171.600 C 130.080 171.600,130.800 171.780,130.800 172.000 C 130.800 172.220,131.520 172.400,132.400 172.400 C 133.280 172.400,134.000 172.580,134.000 172.800 C 134.000 173.020,134.720 173.200,135.600 173.200 C 136.480 173.200,137.200 173.380,137.200 173.600 C 137.200 173.820,137.920 174.000,138.800 174.000 C 139.680 174.000,140.400 174.180,140.400 174.400 C 140.400 174.620,141.030 174.800,141.800 174.800 C 142.570 174.800,143.200 174.980,143.200 175.200 C 143.200 175.420,143.920 175.600,144.800 175.600 C 145.680 175.600,146.400 175.780,146.400 176.000 C 146.400 176.220,147.120 176.400,148.000 176.400 C 148.880 176.400,149.600 176.561,149.600 176.758 C 149.600 176.955,151.040 177.244,152.800 177.400 C 154.560 177.556,156.000 177.845,156.000 178.042 C 156.000 178.239,156.540 178.400,157.200 178.400 C 157.860 178.400,158.400 178.220,158.400 178.000 C 158.400 177.780,158.199 177.600,157.953 177.600 C 157.704 177.600,157.599 177.247,157.716 176.800 C 157.831 176.361,157.734 175.883,157.501 175.739 C 157.261 175.590,157.193 175.665,157.345 175.911 C 157.706 176.496,156.834 176.994,156.330 176.490 C 156.064 176.224,156.084 175.995,156.391 175.805 C 157.087 175.375,155.675 174.000,154.538 174.000 C 154.022 174.000,153.600 173.809,153.600 173.576 C 153.600 173.343,153.420 173.264,153.199 173.400 C 152.979 173.537,152.623 173.187,152.409 172.624 C 152.195 172.061,151.735 171.600,151.386 171.600 C 151.004 171.600,150.868 171.414,151.042 171.132 C 151.238 170.815,151.111 170.749,150.645 170.927 C 150.239 171.083,150.058 171.030,150.202 170.797 C 150.336 170.581,149.985 170.194,149.423 169.937 C 148.860 169.681,148.400 169.301,148.400 169.093 C 148.400 168.885,148.132 168.817,147.805 168.943 C 147.461 169.075,147.250 168.966,147.305 168.686 C 147.357 168.419,147.072 168.199,146.670 168.197 C 146.269 168.195,145.765 167.880,145.550 167.497 C 145.025 166.558,142.909 165.472,142.719 166.043 C 142.640 166.281,142.311 165.963,141.988 165.337 C 141.196 163.805,140.302 163.116,139.909 163.734 C 139.696 164.068,139.611 164.047,139.606 163.660 C 139.603 163.364,139.060 162.617,138.400 162.000 C 137.740 161.383,137.200 160.978,137.200 161.098 C 137.200 161.218,136.759 160.841,136.219 160.258 C 135.680 159.676,135.072 159.200,134.870 159.200 C 134.667 159.200,133.713 158.480,132.751 157.600 C 131.788 156.720,130.844 156.000,130.654 156.000 C 130.289 156.000,126.658 153.426,125.575 152.400 C 124.061 150.966,122.400 149.611,122.400 149.811 C 122.400 149.930,121.866 149.481,121.213 148.814 C 120.561 148.146,119.794 147.600,119.510 147.600 C 119.225 147.600,118.768 147.240,118.493 146.800 C 118.218 146.360,117.725 146.000,117.397 146.000 C 117.068 146.000,116.800 145.719,116.800 145.376 C 116.800 145.033,116.620 144.864,116.400 145.000 C 116.180 145.136,116.000 145.095,116.000 144.910 C 116.000 144.724,115.505 144.279,114.900 143.921 C 114.295 143.563,113.260 142.804,112.600 142.235 C 111.940 141.666,111.254 141.201,111.076 141.200 C 110.898 141.200,110.881 140.992,111.038 140.738 C 111.209 140.462,111.149 140.385,110.888 140.546 C 110.648 140.694,109.998 140.362,109.444 139.808 C 108.890 139.253,108.323 138.800,108.184 138.800 C 108.045 138.800,107.362 138.247,106.666 137.572 C 105.970 136.897,104.832 135.952,104.139 135.472 C 100.892 133.227,99.629 132.155,99.615 131.633 C 99.607 131.322,99.484 131.183,99.342 131.324 C 99.117 131.550,97.911 130.697,95.500 128.607 C 95.115 128.273,94.696 128.000,94.569 128.000 C 94.441 128.000,93.669 127.325,92.852 126.500 C 92.035 125.675,91.223 124.973,91.048 124.941 C 90.872 124.909,90.337 124.549,89.858 124.141 C 89.379 123.733,88.000 122.590,86.794 121.600 C 85.587 120.610,84.540 119.665,84.467 119.500 C 84.393 119.335,84.093 119.200,83.800 119.200 C 83.507 119.200,83.207 119.058,83.133 118.884 C 83.060 118.710,81.650 117.496,80.000 116.186 C 78.350 114.875,76.910 113.712,76.800 113.599 C 76.690 113.487,75.912 112.882,75.070 112.255 C 74.229 111.627,72.930 110.503,72.184 109.757 C 71.437 109.011,70.707 108.400,70.560 108.400 C 70.414 108.400,70.003 108.076,69.647 107.681 C 69.291 107.286,68.370 106.524,67.600 105.988 C 66.830 105.452,65.628 104.445,64.930 103.750 C 64.231 103.055,62.972 101.972,62.132 101.343 C 61.293 100.714,60.226 99.840,59.762 99.400 C 59.297 98.960,58.483 98.240,57.953 97.800 C 57.422 97.360,56.066 96.235,54.938 95.300 C 53.811 94.365,52.774 93.600,52.634 93.600 C 52.494 93.600,51.581 92.835,50.606 91.900 C 47.527 88.949,46.458 88.000,46.212 88.000 C 46.081 88.000,45.343 87.370,44.573 86.600 C 43.145 85.172,41.600 84.741,41.600 85.771 M159.300 178.198 C 158.643 178.944,158.669 179.200,159.400 179.200 C 159.733 179.200,160.000 178.844,160.000 178.400 C 160.000 177.462,159.959 177.450,159.300 178.198 " stroke="none" fill="#ffffff" fill-rule="evenodd"></path><path id="path1" d="M94.564 73.531 C 94.911 74.201,95.363 74.854,95.570 74.981 C 95.776 75.109,95.676 74.674,95.347 74.015 C 95.018 73.355,94.566 72.703,94.342 72.564 C 94.117 72.425,94.218 72.860,94.564 73.531 M41.246 85.700 C 41.279 86.338,41.345 86.403,41.471 85.925 C 41.569 85.553,42.043 85.173,42.525 85.079 C 43.245 84.939,43.206 84.899,42.300 84.854 C 41.397 84.810,41.208 84.962,41.246 85.700 M117.287 90.391 C 117.565 90.836,117.929 91.200,118.096 91.200 C 118.674 91.200,118.397 90.591,117.591 90.087 C 116.841 89.619,116.819 89.641,117.287 90.391 M51.200 92.225 C 51.200 92.525,52.273 93.600,52.571 93.600 C 53.080 93.600,52.751 92.962,52.000 92.493 C 51.560 92.218,51.200 92.098,51.200 92.225 M124.200 96.588 C 124.860 97.129,125.570 97.578,125.778 97.586 C 125.985 97.594,125.545 97.150,124.800 96.600 C 123.057 95.314,122.635 95.305,124.200 96.588 M131.078 102.566 C 131.695 103.097,132.274 103.458,132.364 103.369 C 132.580 103.153,130.782 101.600,130.316 101.600 C 130.118 101.600,130.460 102.035,131.078 102.566 M65.200 103.784 C 65.200 104.216,67.316 106.018,67.549 105.784 C 67.651 105.683,67.658 105.555,67.567 105.500 C 67.475 105.445,66.905 104.964,66.300 104.430 C 65.695 103.897,65.200 103.606,65.200 103.784 M118.422 106.600 C 118.427 107.129,119.542 108.591,119.769 108.365 C 119.866 108.268,119.602 107.741,119.182 107.194 C 118.761 106.647,118.420 106.380,118.422 106.600 M72.812 110.271 C 72.827 110.664,76.360 113.379,76.566 113.155 C 76.644 113.070,75.829 112.312,74.754 111.471 C 73.680 110.630,72.806 110.090,72.812 110.271 M141.600 111.566 C 142.590 112.464,143.565 113.198,143.767 113.199 C 143.968 113.200,144.058 113.149,143.967 113.086 C 143.875 113.023,142.900 112.289,141.800 111.453 L 139.800 109.935 141.600 111.566 M62.800 113.525 C 62.800 113.881,64.313 115.600,64.628 115.600 C 64.736 115.600,64.425 115.060,63.937 114.400 C 63.010 113.146,62.800 112.985,62.800 113.525 M79.200 115.517 C 79.970 116.180,80.666 116.658,80.748 116.580 C 80.977 116.359,79.890 115.381,78.792 114.819 C 78.072 114.452,78.185 114.643,79.200 115.517 M151.200 119.500 C 151.200 119.669,151.560 120.032,152.000 120.307 C 152.440 120.582,152.800 120.669,152.800 120.500 C 152.800 120.331,152.440 119.968,152.000 119.693 C 151.560 119.418,151.200 119.331,151.200 119.500 M129.216 121.486 C 129.239 121.922,131.600 124.648,131.600 124.238 C 131.600 124.055,131.060 123.291,130.400 122.539 C 129.740 121.787,129.207 121.313,129.216 121.486 M70.013 122.300 C 70.036 122.843,71.187 124.147,71.429 123.904 C 71.560 123.774,71.292 123.292,70.833 122.833 C 70.375 122.375,70.006 122.135,70.013 122.300 M95.200 128.367 C 95.200 128.772,96.756 129.782,96.995 129.532 C 97.065 129.460,96.689 129.077,96.161 128.681 C 95.632 128.286,95.200 128.145,95.200 128.367 M76.792 130.900 C 77.024 131.175,77.571 131.833,78.007 132.361 C 78.443 132.890,78.800 133.198,78.800 133.045 C 78.800 132.583,77.074 130.400,76.709 130.400 C 76.522 130.400,76.559 130.625,76.792 130.900 M99.600 131.904 C 99.600 132.071,99.960 132.432,100.400 132.707 C 101.330 133.288,101.454 132.997,100.629 132.171 C 99.998 131.541,99.600 131.437,99.600 131.904 M80.060 134.900 C 81.113 136.399,81.847 137.200,82.166 137.200 C 82.513 137.200,79.841 133.653,79.473 133.625 C 79.293 133.611,79.557 134.185,80.060 134.900 M103.322 135.013 C 103.940 135.556,104.643 136.000,104.885 136.000 C 105.126 136.000,104.801 135.550,104.162 135.000 C 103.523 134.451,102.820 134.006,102.600 134.013 C 102.380 134.020,102.705 134.470,103.322 135.013 M140.893 137.200 C 141.168 137.640,141.531 138.000,141.700 138.000 C 141.869 138.000,141.782 137.640,141.507 137.200 C 141.232 136.760,140.869 136.400,140.700 136.400 C 140.531 136.400,140.618 136.760,140.893 137.200 M107.151 138.040 C 107.647 138.502,108.163 138.770,108.297 138.636 C 108.432 138.502,108.195 138.129,107.771 137.809 C 106.593 136.918,106.131 137.090,107.151 138.040 M83.200 138.667 C 83.200 138.874,83.867 139.663,84.683 140.422 C 85.498 141.180,85.906 141.440,85.590 141.000 C 84.629 139.662,83.200 138.268,83.200 138.667 M109.600 139.904 C 109.600 140.071,109.964 140.435,110.409 140.713 C 111.159 141.181,111.181 141.159,110.713 140.409 C 110.209 139.603,109.600 139.326,109.600 139.904 M86.851 143.098 C 87.808 144.316,88.400 144.868,88.387 144.529 C 88.369 144.085,86.944 142.400,86.587 142.400 C 86.430 142.400,86.549 142.714,86.851 143.098 M180.000 143.095 C 180.000 143.484,181.614 144.519,181.851 144.282 C 181.947 144.186,181.569 143.810,181.012 143.445 C 180.456 143.080,180.000 142.922,180.000 143.095 M182.400 144.973 C 182.400 145.068,182.985 145.543,183.700 146.029 L 185.000 146.912 183.917 145.856 C 182.901 144.864,182.400 144.573,182.400 144.973 M116.800 145.600 C 116.800 145.820,117.060 146.000,117.377 146.000 C 117.695 146.000,118.190 146.327,118.477 146.726 C 118.765 147.126,119.360 147.584,119.800 147.743 C 120.249 147.906,119.897 147.415,119.000 146.625 C 117.345 145.167,116.800 144.913,116.800 145.600 M90.422 147.000 C 90.427 147.529,91.542 148.991,91.769 148.765 C 91.866 148.668,91.602 148.141,91.182 147.594 C 90.761 147.047,90.420 146.780,90.422 147.000 M120.800 148.135 C 120.800 148.214,121.160 148.693,121.600 149.200 C 122.120 149.800,122.400 149.925,122.400 149.557 C 122.400 149.247,122.040 148.768,121.600 148.493 C 121.160 148.218,120.800 148.057,120.800 148.135 M150.422 149.400 C 150.427 149.929,151.542 151.391,151.769 151.165 C 151.866 151.068,151.602 150.541,151.182 149.994 C 150.761 149.447,150.420 149.180,150.422 149.400 M124.202 151.202 C 124.602 151.644,125.011 151.922,125.112 151.821 C 125.328 151.605,124.188 150.400,123.767 150.400 C 123.607 150.400,123.803 150.761,124.202 151.202 M93.844 151.300 C 95.259 153.734,101.256 160.400,102.031 160.400 C 102.350 160.400,102.277 160.127,101.823 159.625 C 101.437 159.199,101.232 158.672,101.367 158.453 C 101.502 158.234,101.402 157.925,101.145 157.766 C 100.852 157.585,100.784 157.650,100.962 157.938 C 101.351 158.568,100.209 158.534,99.683 157.900 C 99.249 157.378,99.200 157.201,99.200 156.176 C 99.200 155.826,99.008 155.672,98.762 155.824 C 98.237 156.148,95.891 153.700,96.219 153.170 C 96.344 152.966,96.167 152.800,95.824 152.800 C 95.481 152.800,95.200 152.519,95.200 152.176 C 95.200 151.833,95.020 151.664,94.800 151.800 C 94.580 151.936,94.400 151.767,94.400 151.424 C 94.400 151.081,94.209 150.800,93.976 150.800 C 93.743 150.800,93.684 151.025,93.844 151.300 M191.600 152.304 C 191.600 152.471,191.960 152.832,192.400 153.107 C 193.330 153.688,193.454 153.397,192.629 152.571 C 191.998 151.941,191.600 151.837,191.600 152.304 M127.441 153.946 C 128.298 154.577,129.064 155.038,129.142 154.971 C 129.456 154.702,127.191 152.800,126.559 152.800 C 126.127 152.800,126.447 153.216,127.441 153.946 M154.094 154.152 C 154.475 154.442,154.670 154.796,154.527 154.940 C 154.384 155.083,154.477 155.200,154.733 155.200 C 154.990 155.200,155.200 155.056,155.200 154.880 C 155.200 154.415,154.310 153.598,153.820 153.613 C 153.589 153.620,153.712 153.863,154.094 154.152 M194.800 154.587 C 194.800 154.944,196.485 156.369,196.929 156.387 C 197.268 156.400,196.716 155.808,195.498 154.851 C 195.114 154.549,194.800 154.430,194.800 154.587 M156.000 156.800 C 156.000 157.020,156.180 157.200,156.400 157.200 C 156.620 157.200,156.800 157.451,156.800 157.757 C 156.800 158.064,157.081 158.422,157.425 158.554 C 157.896 158.735,157.839 158.498,157.198 157.597 C 156.302 156.339,156.000 156.138,156.000 156.800 M133.594 158.382 C 134.141 158.802,134.657 159.076,134.742 158.992 C 135.004 158.729,133.686 157.600,133.129 157.609 C 132.838 157.614,133.047 157.961,133.594 158.382 M198.800 157.904 C 198.800 158.071,199.160 158.432,199.600 158.707 C 200.530 159.288,200.654 158.997,199.829 158.171 C 199.198 157.541,198.800 157.437,198.800 157.904 M136.484 160.560 C 136.768 160.867,137.051 161.071,137.114 161.012 C 137.363 160.778,139.600 163.156,139.606 163.660 C 139.611 164.047,139.696 164.068,139.909 163.734 C 140.302 163.116,141.196 163.805,141.988 165.337 C 142.311 165.963,142.640 166.281,142.719 166.043 C 142.919 165.442,145.061 166.593,145.594 167.589 C 145.843 168.054,146.256 168.277,146.615 168.139 C 147.228 167.903,145.479 166.002,144.647 166.000 C 144.453 166.000,144.003 165.685,143.647 165.300 C 143.291 164.915,142.100 163.976,141.000 163.212 C 139.900 162.449,138.552 161.414,138.004 160.912 C 136.882 159.884,135.584 159.583,136.484 160.560 M202.009 160.273 C 202.013 160.453,202.778 161.133,203.709 161.784 C 204.639 162.435,205.146 162.652,204.836 162.265 C 204.084 161.329,201.998 159.859,202.009 160.273 M159.213 160.700 C 159.206 160.975,159.352 161.200,159.539 161.200 C 159.725 161.200,160.073 161.605,160.312 162.100 C 160.551 162.595,160.758 162.795,160.773 162.544 C 160.788 162.294,160.446 161.664,160.013 161.144 C 159.581 160.625,159.221 160.425,159.213 160.700 M102.800 161.618 C 102.800 162.560,104.625 164.555,105.176 164.215 C 105.379 164.090,105.675 164.198,105.834 164.455 C 106.015 164.748,105.950 164.816,105.662 164.638 C 105.408 164.481,105.200 164.564,105.200 164.823 C 105.200 165.096,105.535 165.206,106.000 165.084 C 106.867 164.857,107.119 165.405,106.300 165.735 C 106.010 165.852,106.104 165.950,106.524 165.968 C 106.922 165.986,107.135 166.181,106.998 166.403 C 106.861 166.624,107.030 166.913,107.372 167.045 C 107.715 167.176,107.893 167.450,107.767 167.653 C 107.642 167.856,108.048 168.512,108.670 169.111 C 109.291 169.710,110.505 171.100,111.366 172.200 C 112.227 173.300,113.585 174.830,114.384 175.600 C 115.182 176.370,116.274 177.626,116.809 178.390 C 117.345 179.155,118.822 180.836,120.092 182.125 C 121.361 183.415,122.400 184.637,122.400 184.842 C 122.400 185.047,123.570 186.385,125.000 187.815 C 126.430 189.245,127.600 190.560,127.600 190.737 C 127.600 190.914,128.831 192.328,130.336 193.878 C 131.841 195.428,133.504 197.305,134.032 198.048 C 134.560 198.792,136.254 200.681,137.796 202.246 C 139.338 203.812,141.320 205.956,142.200 207.012 C 143.080 208.067,145.060 210.211,146.600 211.775 C 148.140 213.339,149.926 215.319,150.569 216.174 C 151.467 217.367,156.446 222.462,159.701 225.517 C 159.867 225.673,162.027 227.945,164.501 230.567 C 166.975 233.188,171.142 237.418,173.760 239.967 C 176.378 242.515,180.614 246.671,183.174 249.203 C 185.734 251.735,188.720 254.525,189.809 255.403 C 190.897 256.281,192.615 257.810,193.625 258.800 C 194.636 259.790,196.061 261.050,196.792 261.600 C 197.524 262.150,199.109 263.545,200.315 264.700 C 201.521 265.855,202.663 266.800,202.853 266.800 C 203.043 266.800,203.941 267.520,204.848 268.400 C 205.755 269.280,206.673 270.000,206.888 270.000 C 207.103 270.000,207.783 270.540,208.400 271.200 C 209.017 271.860,209.685 272.400,209.886 272.400 C 210.086 272.400,210.768 272.940,211.400 273.600 C 212.032 274.260,212.758 274.800,213.013 274.800 C 213.267 274.800,213.999 275.250,214.638 275.800 C 215.277 276.349,215.985 276.799,216.212 276.800 C 216.438 276.800,216.883 277.160,217.200 277.600 C 217.517 278.040,218.057 278.400,218.400 278.400 C 218.743 278.400,219.283 278.760,219.600 279.200 C 219.917 279.640,220.497 280.000,220.888 280.000 C 221.280 280.000,221.600 280.180,221.600 280.400 C 221.600 280.620,221.870 280.800,222.200 280.800 C 222.530 280.800,222.800 280.980,222.800 281.200 C 222.800 281.420,222.530 281.600,222.200 281.600 C 221.870 281.600,221.600 281.780,221.600 282.000 C 221.600 282.220,221.240 282.400,220.800 282.400 C 220.360 282.400,219.999 282.535,219.997 282.700 C 219.995 282.865,219.590 283.199,219.097 283.441 C 218.604 283.684,217.147 284.449,215.859 285.141 C 214.572 285.834,213.267 286.400,212.959 286.400 C 212.652 286.400,212.400 286.580,212.400 286.800 C 212.400 287.020,212.166 287.200,211.880 287.200 C 211.144 287.200,209.207 288.141,209.203 288.500 C 209.201 288.665,208.761 288.800,208.224 288.800 C 207.687 288.800,207.136 288.980,207.000 289.200 C 206.864 289.420,206.403 289.600,205.976 289.600 C 205.549 289.600,205.200 289.780,205.200 290.000 C 205.200 290.220,204.761 290.400,204.224 290.400 C 203.687 290.400,203.136 290.580,203.000 290.800 C 202.864 291.020,202.403 291.200,201.976 291.200 C 201.549 291.200,201.200 291.380,201.200 291.600 C 201.200 291.820,200.660 292.000,200.000 292.000 C 199.340 292.000,198.800 292.180,198.800 292.400 C 198.800 292.620,198.260 292.800,197.600 292.800 C 196.940 292.800,196.400 292.956,196.400 293.146 C 196.400 293.336,195.553 293.607,194.519 293.749 C 192.566 294.017,190.304 294.643,189.105 295.249 C 188.723 295.442,187.879 295.600,187.229 295.600 C 186.579 295.600,185.936 295.780,185.800 296.000 C 185.664 296.220,184.944 296.400,184.200 296.400 C 183.456 296.400,182.736 296.580,182.600 296.800 C 182.464 297.020,181.654 297.200,180.800 297.200 C 179.946 297.200,179.136 297.380,179.000 297.600 C 178.864 297.820,177.863 298.000,176.776 298.000 C 175.689 298.000,174.800 298.180,174.800 298.400 C 174.800 298.620,173.821 298.800,172.624 298.800 C 171.427 298.800,170.336 298.980,170.200 299.200 C 170.064 299.420,168.804 299.600,167.400 299.600 C 165.996 299.600,164.736 299.780,164.600 300.000 C 164.463 300.221,162.663 300.400,160.576 300.400 C 158.325 300.400,156.800 300.562,156.800 300.800 C 156.800 301.059,151.933 301.200,143.000 301.200 C 134.067 301.200,129.200 301.059,129.200 300.800 C 129.200 300.559,127.533 300.400,125.000 300.400 C 122.467 300.400,120.800 300.241,120.800 300.000 C 120.800 299.767,119.467 299.600,117.600 299.600 C 115.733 299.600,114.400 299.433,114.400 299.200 C 114.400 298.978,113.333 298.800,112.000 298.800 C 110.667 298.800,109.600 298.622,109.600 298.400 C 109.600 298.180,108.621 298.000,107.424 298.000 C 106.227 298.000,105.148 297.839,105.026 297.642 C 104.905 297.445,104.129 297.182,103.303 297.058 C 102.476 296.933,101.080 296.723,100.200 296.591 C 99.320 296.458,98.240 296.194,97.800 296.002 C 97.360 295.811,96.370 295.546,95.600 295.413 C 92.655 294.904,91.787 294.689,91.383 294.369 C 91.153 294.188,89.758 293.916,88.283 293.764 C 86.807 293.613,85.600 293.334,85.600 293.145 C 85.600 292.955,85.060 292.800,84.400 292.800 C 83.740 292.800,83.200 292.620,83.200 292.400 C 83.200 292.180,82.660 292.000,82.000 292.000 C 81.340 292.000,80.800 291.820,80.800 291.600 C 80.800 291.380,80.260 291.200,79.600 291.200 C 78.940 291.200,78.400 291.020,78.400 290.800 C 78.400 290.580,77.871 290.400,77.224 290.400 C 76.577 290.400,75.936 290.220,75.800 290.000 C 75.664 289.780,75.113 289.600,74.576 289.600 C 74.039 289.600,73.600 289.420,73.600 289.200 C 73.600 288.980,73.161 288.800,72.624 288.800 C 72.087 288.800,71.536 288.620,71.400 288.400 C 71.264 288.180,70.713 288.000,70.176 288.000 C 69.639 288.000,69.200 287.820,69.200 287.600 C 69.200 287.380,68.660 287.200,68.000 287.200 C 67.340 287.200,66.800 287.020,66.800 286.800 C 66.800 286.580,66.451 286.400,66.024 286.400 C 65.597 286.400,65.136 286.220,65.000 286.000 C 64.864 285.780,64.313 285.600,63.776 285.600 C 63.239 285.600,62.800 285.420,62.800 285.200 C 62.800 284.980,62.440 284.800,62.000 284.800 C 61.560 284.800,61.200 284.620,61.200 284.400 C 61.200 284.180,60.660 284.000,60.000 284.000 C 59.340 284.000,58.800 283.820,58.800 283.600 C 58.800 283.380,58.440 283.200,58.000 283.200 C 57.560 283.200,57.200 283.020,57.200 282.800 C 57.200 282.580,56.928 282.400,56.595 282.400 C 56.262 282.400,55.677 282.234,55.295 282.032 C 54.913 281.830,52.980 280.921,51.000 280.012 C 49.020 279.103,47.107 278.201,46.749 278.007 C 46.391 277.813,45.446 277.532,44.649 277.383 C 43.852 277.233,43.200 276.951,43.200 276.755 C 43.200 276.560,42.840 276.400,42.400 276.400 C 41.960 276.400,41.600 276.220,41.600 276.000 C 41.600 275.780,41.330 275.600,41.000 275.600 C 40.670 275.600,40.400 275.420,40.400 275.200 C 40.400 274.980,40.040 274.800,39.600 274.800 C 39.160 274.800,38.800 274.620,38.800 274.400 C 38.800 274.180,38.440 274.000,38.000 274.000 C 37.560 274.000,37.200 273.820,37.200 273.600 C 37.200 273.380,36.840 273.200,36.400 273.200 C 35.960 273.200,35.599 273.065,35.597 272.900 C 35.595 272.735,35.190 272.402,34.697 272.160 C 32.289 270.978,30.187 269.770,30.067 269.500 C 29.993 269.335,29.588 269.200,29.167 269.200 C 28.745 269.200,28.400 269.020,28.400 268.800 C 28.400 268.580,28.122 268.400,27.783 268.400 C 27.444 268.400,26.780 268.040,26.308 267.600 C 25.836 267.160,25.213 266.800,24.925 266.800 C 24.636 266.800,24.400 266.654,24.400 266.475 C 24.400 266.296,23.770 265.902,23.000 265.600 C 22.230 265.298,21.600 264.940,21.600 264.804 C 21.600 264.668,20.703 264.117,19.606 263.579 C 18.510 263.040,17.610 262.487,17.606 262.349 C 17.603 262.210,17.060 261.873,16.400 261.600 C 15.740 261.327,15.200 260.959,15.200 260.783 C 15.200 260.607,14.660 260.345,14.000 260.200 C 13.340 260.055,12.800 259.771,12.800 259.568 C 12.800 259.366,12.480 259.200,12.088 259.200 C 11.697 259.200,11.117 258.840,10.800 258.400 C 10.483 257.960,9.943 257.600,9.600 257.600 C 9.257 257.600,8.717 257.240,8.400 256.800 C 7.463 255.500,6.000 255.743,6.000 257.200 C 6.000 257.860,6.180 258.400,6.400 258.400 C 6.620 258.400,6.800 258.588,6.800 258.817 C 6.800 259.046,7.160 259.620,7.600 260.092 C 8.040 260.564,8.400 261.187,8.400 261.475 C 8.400 261.764,8.580 262.000,8.800 262.000 C 9.020 262.000,9.200 262.189,9.200 262.419 C 9.200 262.962,11.996 267.359,12.452 267.533 C 12.643 267.607,12.800 267.888,12.800 268.158 C 12.800 268.428,13.115 268.999,13.500 269.426 C 13.885 269.853,15.010 271.281,16.000 272.598 C 16.990 273.915,18.205 275.407,18.700 275.914 C 19.195 276.421,19.600 277.002,19.600 277.205 C 19.600 277.408,20.230 278.203,21.000 278.973 C 21.770 279.743,22.400 280.541,22.400 280.746 C 22.400 280.951,23.255 282.006,24.300 283.091 C 25.345 284.175,26.470 285.530,26.800 286.101 C 28.122 288.390,51.819 312.800,52.719 312.800 C 52.950 312.800,54.414 314.060,55.972 315.600 C 57.531 317.140,58.974 318.400,59.180 318.400 C 59.386 318.400,59.790 318.723,60.077 319.117 C 60.365 319.511,61.405 320.456,62.389 321.217 C 63.372 321.978,64.722 323.095,65.389 323.701 C 66.055 324.307,66.956 324.917,67.392 325.057 C 67.828 325.197,68.665 325.827,69.252 326.456 C 69.840 327.085,70.537 327.600,70.800 327.600 C 71.063 327.600,71.783 328.140,72.400 328.800 C 73.017 329.460,73.727 330.000,73.979 330.000 C 74.230 330.000,74.856 330.405,75.368 330.900 C 76.893 332.374,77.984 333.200,78.405 333.200 C 78.622 333.200,78.800 333.380,78.800 333.600 C 78.800 333.820,79.070 334.000,79.400 334.000 C 79.730 334.000,80.000 334.150,80.000 334.332 C 80.000 334.515,80.495 334.920,81.100 335.232 C 81.705 335.545,82.549 336.115,82.975 336.500 C 83.402 336.885,83.904 337.200,84.092 337.200 C 84.280 337.200,84.820 337.560,85.292 338.000 C 85.764 338.440,86.387 338.800,86.675 338.800 C 86.964 338.800,87.200 338.958,87.200 339.151 C 87.200 339.345,87.740 339.727,88.400 340.000 C 89.060 340.273,89.600 340.641,89.600 340.817 C 89.600 340.993,90.140 341.255,90.800 341.400 C 91.460 341.545,92.000 341.829,92.000 342.032 C 92.000 342.234,92.278 342.400,92.617 342.400 C 92.956 342.400,93.620 342.760,94.092 343.200 C 94.564 343.640,95.456 344.224,96.075 344.497 C 96.694 344.771,97.200 345.131,97.200 345.298 C 97.200 345.464,97.560 345.600,98.000 345.600 C 98.440 345.600,98.800 345.780,98.800 346.000 C 98.800 346.220,99.070 346.400,99.400 346.400 C 99.730 346.400,100.000 346.580,100.000 346.800 C 100.000 347.020,100.270 347.200,100.600 347.200 C 100.930 347.200,101.200 347.380,101.200 347.600 C 101.200 347.820,101.560 348.000,102.000 348.000 C 102.440 348.000,102.800 348.180,102.800 348.400 C 102.800 348.620,103.160 348.800,103.600 348.800 C 104.040 348.800,104.400 348.980,104.400 349.200 C 104.400 349.420,104.760 349.600,105.200 349.600 C 105.640 349.600,106.000 349.780,106.000 350.000 C 106.000 350.220,106.360 350.400,106.800 350.400 C 107.240 350.400,107.600 350.580,107.600 350.800 C 107.600 351.020,107.960 351.200,108.400 351.200 C 108.840 351.200,109.201 351.335,109.201 351.500 C 109.202 351.665,110.192 352.250,111.400 352.800 C 112.608 353.350,113.598 353.935,113.599 354.100 C 113.599 354.265,113.960 354.400,114.400 354.400 C 114.840 354.400,115.200 354.580,115.200 354.800 C 115.200 355.020,115.436 355.200,115.725 355.200 C 116.216 355.200,118.929 356.346,120.495 357.215 C 120.877 357.427,121.462 357.600,121.795 357.600 C 122.128 357.600,122.400 357.764,122.400 357.965 C 122.400 358.166,123.120 358.451,124.000 358.600 C 124.880 358.749,125.600 359.034,125.600 359.235 C 125.600 359.436,125.962 359.600,126.405 359.600 C 127.183 359.600,127.569 359.742,129.495 360.738 C 129.987 360.992,130.662 361.200,130.995 361.200 C 131.328 361.200,131.600 361.380,131.600 361.600 C 131.600 361.820,131.962 362.000,132.405 362.000 C 132.848 362.000,133.568 362.180,134.005 362.400 C 134.442 362.620,135.158 362.980,135.595 363.200 C 136.032 363.420,136.752 363.600,137.195 363.600 C 137.638 363.600,138.000 363.780,138.000 364.000 C 138.000 364.220,138.540 364.400,139.200 364.400 C 139.860 364.400,140.400 364.580,140.400 364.800 C 140.400 365.020,140.940 365.200,141.600 365.200 C 142.260 365.200,142.800 365.380,142.800 365.600 C 142.800 365.820,143.340 366.000,144.000 366.000 C 144.660 366.000,145.200 366.180,145.200 366.400 C 145.200 366.620,145.830 366.800,146.600 366.800 C 147.370 366.800,148.000 366.980,148.000 367.200 C 148.000 367.420,148.540 367.600,149.200 367.600 C 149.860 367.600,150.400 367.780,150.400 368.000 C 150.400 368.220,151.019 368.400,151.776 368.400 C 152.533 368.400,153.264 368.580,153.400 368.800 C 153.536 369.020,154.177 369.200,154.824 369.200 C 155.471 369.200,156.000 369.380,156.000 369.600 C 156.000 369.820,156.720 370.000,157.600 370.000 C 158.480 370.000,159.200 370.180,159.200 370.400 C 159.200 370.620,159.909 370.800,160.776 370.800 C 161.643 370.800,162.464 370.980,162.600 371.200 C 162.736 371.420,163.557 371.600,164.424 371.600 C 165.291 371.600,166.000 371.763,166.000 371.961 C 166.000 372.160,166.855 372.425,167.900 372.551 C 173.036 373.167,173.828 373.304,174.180 373.639 C 174.389 373.837,175.256 374.000,176.106 374.000 C 176.957 374.000,177.963 374.166,178.342 374.369 C 178.722 374.572,181.410 374.868,184.316 375.026 C 187.222 375.184,189.600 375.467,189.600 375.656 C 189.600 375.845,191.490 376.000,193.800 376.000 C 196.333 376.000,198.000 376.159,198.000 376.400 C 198.000 376.654,200.992 376.800,206.176 376.800 C 211.196 376.800,214.448 376.954,214.600 377.200 C 214.741 377.429,216.796 377.600,219.400 377.600 C 222.004 377.600,224.059 377.429,224.200 377.200 C 224.347 376.962,226.871 376.800,230.424 376.800 C 234.141 376.800,236.400 376.649,236.400 376.400 C 236.400 376.169,237.667 376.000,239.400 376.000 C 241.133 376.000,242.400 375.831,242.400 375.600 C 242.400 375.380,243.345 375.185,244.500 375.166 C 246.748 375.130,249.770 374.715,253.000 373.999 C 254.100 373.755,255.587 373.456,256.304 373.334 C 257.021 373.212,257.706 372.951,257.827 372.756 C 257.948 372.560,258.656 372.400,259.400 372.400 C 260.144 372.400,260.864 372.220,261.000 372.000 C 261.136 371.780,261.777 371.600,262.424 371.600 C 263.071 371.600,263.600 371.420,263.600 371.200 C 263.600 370.980,264.140 370.800,264.800 370.800 C 265.460 370.800,266.000 370.620,266.000 370.400 C 266.000 370.180,266.540 370.000,267.200 370.000 C 267.860 370.000,268.400 369.820,268.400 369.600 C 268.400 369.380,268.940 369.200,269.600 369.200 C 270.260 369.200,270.800 369.020,270.800 368.800 C 270.800 368.580,271.250 368.400,271.800 368.400 C 272.350 368.400,272.800 368.220,272.800 368.000 C 272.800 367.780,273.250 367.600,273.800 367.600 C 274.350 367.600,274.800 367.420,274.800 367.200 C 274.800 366.980,275.250 366.800,275.800 366.800 C 276.350 366.800,276.800 366.620,276.800 366.400 C 276.800 366.180,277.160 366.000,277.600 366.000 C 278.040 366.000,278.400 365.820,278.400 365.600 C 278.400 365.380,278.839 365.200,279.376 365.200 C 279.913 365.200,280.464 365.020,280.600 364.800 C 280.736 364.580,281.197 364.400,281.624 364.400 C 282.051 364.400,282.400 364.220,282.400 364.000 C 282.400 363.780,282.760 363.600,283.200 363.600 C 283.640 363.600,284.000 363.420,284.000 363.200 C 284.000 362.980,284.360 362.800,284.800 362.800 C 285.240 362.800,285.600 362.620,285.600 362.400 C 285.600 362.180,285.960 362.000,286.400 362.000 C 286.840 362.000,287.200 361.820,287.200 361.600 C 287.200 361.380,287.560 361.200,288.000 361.200 C 288.440 361.200,288.800 361.020,288.800 360.800 C 288.800 360.580,289.160 360.400,289.600 360.400 C 290.040 360.400,290.400 360.262,290.400 360.094 C 290.400 359.723,293.369 358.400,294.203 358.400 C 294.531 358.400,294.800 358.220,294.800 358.000 C 294.800 357.780,295.160 357.600,295.600 357.600 C 296.040 357.600,296.400 357.420,296.400 357.200 C 296.400 356.980,296.760 356.800,297.200 356.800 C 297.640 356.800,298.000 356.620,298.000 356.400 C 298.000 356.180,298.360 356.000,298.800 356.000 C 299.240 356.000,299.600 355.820,299.600 355.600 C 299.600 355.380,299.945 355.200,300.367 355.200 C 300.788 355.200,301.193 355.063,301.267 354.896 C 301.340 354.729,303.020 353.786,305.000 352.800 C 306.980 351.814,308.660 350.871,308.733 350.704 C 308.807 350.537,309.201 350.400,309.610 350.400 C 310.018 350.400,310.464 350.220,310.600 350.000 C 310.736 349.780,311.287 349.600,311.824 349.600 C 312.361 349.600,312.800 349.420,312.800 349.200 C 312.800 348.980,313.160 348.800,313.600 348.800 C 314.040 348.800,314.400 348.620,314.400 348.400 C 314.400 348.180,314.940 348.000,315.600 348.000 C 316.260 348.000,316.800 347.820,316.800 347.600 C 316.800 347.380,317.239 347.200,317.776 347.200 C 318.313 347.200,318.864 347.020,319.000 346.800 C 319.136 346.580,319.676 346.400,320.200 346.400 C 320.724 346.400,321.264 346.220,321.400 346.000 C 321.536 345.780,322.256 345.600,323.000 345.600 C 323.744 345.600,324.464 345.420,324.600 345.200 C 324.736 344.980,325.827 344.800,327.024 344.800 C 328.221 344.800,329.200 344.620,329.200 344.400 C 329.200 344.154,331.200 344.000,334.400 344.000 C 337.600 344.000,339.600 344.154,339.600 344.400 C 339.600 344.620,340.579 344.800,341.776 344.800 C 342.973 344.800,344.064 344.980,344.200 345.200 C 344.336 345.420,345.067 345.600,345.824 345.600 C 346.581 345.600,347.200 345.780,347.200 346.000 C 347.200 346.220,347.740 346.400,348.400 346.400 C 349.060 346.400,349.600 346.580,349.600 346.800 C 349.600 347.020,350.140 347.200,350.800 347.200 C 351.460 347.200,352.000 347.380,352.000 347.600 C 352.000 347.820,352.272 348.000,352.605 348.000 C 352.938 348.000,353.613 348.208,354.105 348.462 C 355.982 349.433,356.407 349.600,356.995 349.600 C 357.328 349.600,357.600 349.758,357.600 349.951 C 357.600 350.145,358.140 350.527,358.800 350.800 C 359.460 351.073,360.000 351.411,360.000 351.551 C 360.000 351.690,360.585 352.064,361.300 352.380 C 362.015 352.697,362.949 353.280,363.375 353.678 C 363.802 354.075,364.305 354.400,364.494 354.400 C 364.682 354.400,365.286 354.850,365.836 355.400 C 366.386 355.950,366.989 356.400,367.176 356.400 C 367.482 356.400,368.496 357.227,371.086 359.591 C 371.573 360.036,372.142 360.400,372.351 360.400 C 372.820 360.400,377.108 364.662,378.200 366.212 C 379.258 367.716,380.795 369.589,381.871 370.688 C 382.350 371.178,383.064 372.123,383.457 372.789 C 383.851 373.455,384.314 374.000,384.486 374.000 C 384.659 374.000,384.800 374.182,384.800 374.404 C 384.800 374.626,385.307 375.337,385.926 375.986 C 387.277 377.400,388.800 377.289,388.800 375.777 C 388.800 375.266,388.980 374.736,389.200 374.600 C 389.420 374.464,389.600 373.924,389.600 373.400 C 389.600 372.876,389.780 372.336,390.000 372.200 C 390.220 372.064,390.400 371.459,390.400 370.856 C 390.400 370.253,390.573 369.587,390.785 369.375 C 390.997 369.163,391.294 367.237,391.444 365.095 C 391.595 362.953,391.872 361.200,392.059 361.200 C 392.504 361.200,392.505 343.712,392.060 343.437 C 391.873 343.321,391.594 341.286,391.441 338.914 C 391.287 336.543,390.991 334.431,390.781 334.221 C 390.571 334.011,390.400 333.257,390.400 332.544 C 390.400 331.831,390.220 331.136,390.000 331.000 C 389.780 330.864,389.600 330.133,389.600 329.376 C 389.600 328.619,389.420 328.000,389.200 328.000 C 388.980 328.000,388.800 327.460,388.800 326.800 C 388.800 326.140,388.620 325.600,388.400 325.600 C 388.180 325.600,388.000 325.060,388.000 324.400 C 388.000 323.740,387.820 323.200,387.600 323.200 C 387.380 323.200,387.200 322.660,387.200 322.000 C 387.200 321.340,387.020 320.800,386.800 320.800 C 386.580 320.800,386.400 320.361,386.400 319.824 C 386.400 319.287,386.220 318.736,386.000 318.600 C 385.780 318.464,385.600 318.003,385.600 317.576 C 385.600 317.149,385.420 316.800,385.200 316.800 C 384.980 316.800,384.800 316.361,384.800 315.824 C 384.800 315.287,384.620 314.736,384.400 314.600 C 384.180 314.464,384.000 314.003,384.000 313.576 C 384.000 313.149,383.820 312.800,383.600 312.800 C 383.380 312.800,383.200 312.440,383.200 312.000 C 383.200 311.560,383.020 311.200,382.800 311.200 C 382.580 311.200,382.400 310.851,382.400 310.424 C 382.400 309.997,382.220 309.536,382.000 309.400 C 381.780 309.264,381.600 308.803,381.600 308.376 C 381.600 307.949,381.420 307.600,381.200 307.600 C 380.980 307.600,380.800 307.240,380.800 306.800 C 380.800 306.360,380.620 306.000,380.400 306.000 C 380.180 306.000,380.000 305.640,380.000 305.200 C 380.000 304.760,379.820 304.400,379.600 304.400 C 379.380 304.400,379.200 304.164,379.200 303.875 C 379.200 303.587,378.840 302.964,378.400 302.492 C 377.960 302.020,377.600 301.356,377.600 301.017 C 377.600 300.678,377.420 300.400,377.200 300.400 C 376.980 300.400,376.800 300.055,376.800 299.633 C 376.800 299.212,376.659 298.807,376.487 298.733 C 376.315 298.660,375.659 297.570,375.028 296.311 C 374.397 295.053,373.548 293.665,373.140 293.228 C 372.733 292.791,372.400 292.156,372.400 291.817 C 372.400 291.478,372.250 291.200,372.068 291.200 C 371.885 291.200,371.480 290.705,371.168 290.100 C 370.855 289.495,370.285 288.651,369.900 288.225 C 369.515 287.798,369.200 287.253,369.200 287.013 C 369.200 286.773,368.840 286.317,368.400 286.000 C 367.960 285.683,367.600 285.143,367.600 284.800 C 367.600 284.457,367.240 283.917,366.800 283.600 C 366.360 283.283,366.000 282.793,366.000 282.512 C 366.000 282.230,365.820 282.000,365.600 282.000 C 365.380 282.000,365.200 281.770,365.200 281.488 C 365.200 281.207,364.840 280.717,364.400 280.400 C 363.960 280.083,363.600 279.655,363.600 279.450 C 363.600 279.244,362.880 278.391,362.000 277.554 C 361.120 276.717,360.400 275.755,360.400 275.416 C 360.400 275.077,360.220 274.800,360.000 274.800 C 359.780 274.800,359.600 274.440,359.600 274.000 C 359.600 273.560,359.780 273.200,360.000 273.200 C 360.220 273.200,360.400 272.660,360.400 272.000 C 360.400 271.340,360.580 270.800,360.800 270.800 C 361.020 270.800,361.200 270.260,361.200 269.600 C 361.200 268.940,361.380 268.400,361.600 268.400 C 361.820 268.400,362.000 267.871,362.000 267.224 C 362.000 266.577,362.180 265.936,362.400 265.800 C 362.620 265.664,362.800 264.933,362.800 264.176 C 362.800 263.419,362.980 262.800,363.200 262.800 C 363.420 262.800,363.600 262.080,363.600 261.200 C 363.600 260.320,363.780 259.600,364.000 259.600 C 364.220 259.600,364.400 258.801,364.400 257.824 C 364.400 256.847,364.580 255.936,364.800 255.800 C 365.020 255.664,365.200 254.764,365.200 253.800 C 365.200 252.836,365.380 251.936,365.600 251.800 C 365.820 251.664,366.000 250.393,366.000 248.976 C 366.000 247.525,366.175 246.400,366.400 246.400 C 366.635 246.400,366.800 245.008,366.800 243.024 C 366.800 241.167,366.974 239.539,367.187 239.408 C 367.882 238.978,367.510 228.600,366.800 228.600 C 366.470 228.600,366.178 228.825,366.150 229.100 C 366.123 229.375,366.078 229.870,366.050 230.200 C 365.994 230.876,363.600 231.071,363.600 230.400 C 363.600 230.180,362.880 230.000,362.000 230.000 C 361.120 230.000,360.400 229.820,360.400 229.600 C 360.400 229.380,359.770 229.200,359.000 229.200 C 358.230 229.200,357.600 229.020,357.600 228.800 C 357.600 228.580,356.880 228.400,356.000 228.400 C 355.120 228.400,354.400 228.239,354.400 228.042 C 354.400 227.845,352.960 227.556,351.200 227.400 C 349.440 227.244,348.000 226.955,348.000 226.758 C 348.000 226.561,347.280 226.400,346.400 226.400 C 345.520 226.400,344.800 226.220,344.800 226.000 C 344.800 225.780,344.080 225.600,343.200 225.600 C 342.320 225.600,341.600 225.420,341.600 225.200 C 341.600 224.980,340.970 224.800,340.200 224.800 C 339.430 224.800,338.800 224.620,338.800 224.400 C 338.800 224.180,338.080 224.000,337.200 224.000 C 336.320 224.000,335.600 223.820,335.600 223.600 C 335.600 223.380,334.880 223.200,334.000 223.200 C 333.120 223.200,332.400 223.020,332.400 222.800 C 332.400 222.580,331.680 222.400,330.800 222.400 C 329.920 222.400,329.200 222.220,329.200 222.000 C 329.200 221.780,328.480 221.600,327.600 221.600 C 326.720 221.600,326.000 221.420,326.000 221.200 C 326.000 220.980,325.370 220.800,324.600 220.800 C 323.830 220.800,323.200 220.620,323.200 220.400 C 323.200 220.180,322.480 220.000,321.600 220.000 C 320.720 220.000,320.000 219.820,320.000 219.600 C 320.000 219.380,319.280 219.200,318.400 219.200 C 317.520 219.200,316.800 219.020,316.800 218.800 C 316.800 218.580,316.080 218.400,315.200 218.400 C 314.320 218.400,313.600 218.220,313.600 218.000 C 313.600 217.780,312.880 217.600,312.000 217.600 C 311.120 217.600,310.400 217.420,310.400 217.200 C 310.400 216.980,309.770 216.800,309.000 216.800 C 308.230 216.800,307.600 216.620,307.600 216.400 C 307.600 216.180,306.880 216.000,306.000 216.000 C 305.120 216.000,304.400 215.820,304.400 215.600 C 304.400 215.380,303.680 215.200,302.800 215.200 C 301.920 215.200,301.200 215.020,301.200 214.800 C 301.200 214.580,300.480 214.400,299.600 214.400 C 298.720 214.400,298.000 214.220,298.000 214.000 C 298.000 213.780,297.280 213.600,296.400 213.600 C 295.520 213.600,294.800 213.420,294.800 213.200 C 294.800 212.980,294.080 212.800,293.200 212.800 C 292.320 212.800,291.600 212.620,291.600 212.400 C 291.600 212.180,290.970 212.000,290.200 212.000 C 289.430 212.000,288.800 211.820,288.800 211.600 C 288.800 211.380,288.080 211.200,287.200 211.200 C 286.320 211.200,285.600 211.020,285.600 210.800 C 285.600 210.580,285.083 210.400,284.450 210.400 C 282.365 210.400,280.756 209.935,281.158 209.449 C 281.766 208.713,282.152 206.000,281.649 206.000 C 281.407 206.000,281.246 205.550,281.292 205.000 C 281.337 204.450,281.526 204.000,281.711 204.000 C 281.896 204.000,281.934 203.817,281.796 203.593 C 281.368 202.901,280.800 203.589,280.800 204.800 C 280.800 205.434,280.620 206.064,280.400 206.200 C 280.180 206.336,280.000 207.067,280.000 207.824 C 280.000 208.581,279.820 209.200,279.600 209.200 C 279.380 209.200,279.200 209.639,279.200 210.176 C 279.200 210.713,279.020 211.264,278.800 211.400 C 278.580 211.536,278.400 212.076,278.400 212.600 C 278.400 213.124,278.220 213.664,278.000 213.800 C 277.780 213.936,277.600 214.487,277.600 215.024 C 277.600 215.561,277.508 216.000,277.395 216.000 C 276.974 216.000,275.387 214.977,274.757 214.300 C 274.399 213.915,273.917 213.600,273.686 213.600 C 273.456 213.600,273.207 213.462,273.133 213.293 C 272.949 212.868,267.736 209.200,267.317 209.200 C 267.130 209.200,266.717 208.840,266.400 208.400 C 266.083 207.960,265.575 207.600,265.272 207.600 C 264.969 207.600,264.217 207.060,263.600 206.400 C 262.983 205.740,262.191 205.200,261.840 205.200 C 261.488 205.200,261.200 205.001,261.200 204.757 C 261.200 204.514,260.939 204.414,260.620 204.537 C 260.273 204.670,260.115 204.567,260.225 204.279 C 260.496 203.572,258.822 202.618,258.273 203.167 C 257.730 203.710,257.200 203.726,257.200 203.200 C 257.200 202.980,257.403 202.845,257.650 202.900 C 257.898 202.955,258.183 202.775,258.283 202.500 C 258.384 202.225,258.182 202.000,257.833 202.000 C 257.485 202.000,257.200 201.820,257.200 201.600 C 257.200 201.380,256.930 201.200,256.600 201.200 C 256.270 201.200,256.000 201.020,256.000 200.800 C 256.000 200.580,255.859 200.400,255.687 200.400 C 255.192 200.400,255.405 202.283,255.978 202.974 C 256.414 203.498,256.392 203.600,255.849 203.600 C 255.492 203.600,255.200 203.420,255.200 203.200 C 255.200 202.980,254.480 202.800,253.600 202.800 C 252.720 202.800,252.000 202.620,252.000 202.400 C 252.000 202.180,251.280 202.000,250.400 202.000 C 249.520 202.000,248.800 201.820,248.800 201.600 C 248.800 201.380,248.080 201.200,247.200 201.200 C 246.320 201.200,245.600 201.020,245.600 200.800 C 245.600 200.580,244.880 200.400,244.000 200.400 C 243.120 200.400,242.400 200.220,242.400 200.000 C 242.400 199.780,241.770 199.600,241.000 199.600 C 240.230 199.600,239.600 199.420,239.600 199.200 C 239.600 198.980,238.880 198.800,238.000 198.800 C 237.120 198.800,236.400 198.620,236.400 198.400 C 236.400 198.180,235.680 198.000,234.800 198.000 C 233.920 198.000,233.200 197.820,233.200 197.600 C 233.200 197.380,232.480 197.200,231.600 197.200 C 230.720 197.200,230.000 197.020,230.000 196.800 C 230.000 196.580,229.280 196.400,228.400 196.400 C 227.520 196.400,226.800 196.220,226.800 196.000 C 226.800 195.780,226.170 195.600,225.400 195.600 C 224.630 195.600,224.000 195.420,224.000 195.200 C 224.000 194.980,223.280 194.800,222.400 194.800 C 221.520 194.800,220.800 194.639,220.800 194.442 C 220.800 194.245,219.360 193.956,217.600 193.800 C 215.840 193.644,214.400 193.355,214.400 193.158 C 214.400 192.961,213.680 192.800,212.800 192.800 C 211.920 192.800,211.200 192.620,211.200 192.400 C 211.200 192.180,210.570 192.000,209.800 192.000 C 209.030 192.000,208.400 191.820,208.400 191.600 C 208.400 191.380,207.680 191.200,206.800 191.200 C 205.920 191.200,205.200 191.020,205.200 190.800 C 205.200 190.580,204.480 190.400,203.600 190.400 C 202.720 190.400,202.000 190.220,202.000 190.000 C 202.000 189.780,201.280 189.600,200.400 189.600 C 199.520 189.600,198.800 189.420,198.800 189.200 C 198.800 188.980,198.080 188.800,197.200 188.800 C 196.320 188.800,195.600 188.620,195.600 188.400 C 195.600 188.180,195.060 188.000,194.400 188.000 C 193.740 188.000,193.200 187.820,193.200 187.600 C 193.200 187.380,192.570 187.200,191.800 187.200 C 191.030 187.200,190.400 187.020,190.400 186.800 C 190.400 186.580,189.680 186.400,188.800 186.400 C 187.920 186.400,187.200 186.220,187.200 186.000 C 187.200 185.780,186.480 185.600,185.600 185.600 C 184.720 185.600,184.000 185.420,184.000 185.200 C 184.000 184.980,183.551 184.800,183.003 184.800 C 182.127 184.800,181.074 184.136,179.409 182.534 C 179.143 182.278,178.672 182.098,178.363 182.134 C 178.053 182.170,177.767 182.052,177.727 181.871 C 177.687 181.690,177.147 181.071,176.527 180.496 C 175.907 179.921,175.450 179.228,175.511 178.955 C 175.571 178.683,175.436 178.346,175.211 178.207 C 174.985 178.067,174.800 178.154,174.800 178.400 C 174.800 178.646,174.617 178.734,174.393 178.596 C 174.170 178.458,174.108 178.149,174.255 177.911 C 174.409 177.662,174.339 177.591,174.091 177.744 C 173.851 177.892,173.538 177.635,173.389 177.166 C 173.204 176.582,172.992 176.448,172.707 176.733 C 172.421 177.019,172.900 177.751,174.246 179.089 C 175.321 180.156,176.470 181.505,176.800 182.085 C 178.002 184.198,188.008 194.800,188.801 194.800 C 189.046 194.800,189.136 194.980,189.000 195.200 C 188.864 195.420,188.973 195.600,189.243 195.600 C 189.513 195.600,189.620 195.713,189.482 195.851 C 189.344 195.990,188.353 195.540,187.280 194.851 C 186.208 194.163,185.070 193.600,184.753 193.600 C 184.436 193.600,183.917 193.240,183.600 192.800 C 183.283 192.360,182.703 192.000,182.312 192.000 C 181.920 192.000,181.600 191.809,181.600 191.576 C 181.600 191.343,181.420 191.264,181.200 191.400 C 180.980 191.536,180.800 191.367,180.800 191.024 C 180.800 190.667,180.458 190.400,180.000 190.400 C 179.560 190.400,179.200 190.250,179.200 190.068 C 179.200 189.885,178.705 189.480,178.100 189.168 C 177.495 188.856,176.910 188.511,176.800 188.401 C 176.275 187.874,173.995 186.400,173.705 186.400 C 173.524 186.400,173.117 186.040,172.800 185.600 C 172.483 185.160,171.783 184.800,171.245 184.800 C 170.707 184.800,170.378 184.689,170.514 184.552 C 170.824 184.242,169.815 183.200,169.205 183.200 C 168.956 183.200,168.882 183.425,169.041 183.700 C 169.208 183.990,169.176 184.060,168.964 183.867 C 168.764 183.683,168.600 183.383,168.600 183.200 C 168.600 182.820,166.819 181.200,166.401 181.200 C 166.249 181.200,165.601 180.745,164.962 180.188 C 164.323 179.631,163.485 179.254,163.100 179.350 C 162.716 179.446,162.283 179.334,162.139 179.101 C 161.984 178.851,162.067 178.794,162.338 178.962 C 162.592 179.119,162.800 179.090,162.800 178.898 C 162.800 178.494,160.234 177.200,159.433 177.200 C 159.136 177.200,158.799 176.840,158.684 176.400 C 158.391 175.281,157.791 175.402,157.692 176.600 C 157.646 177.150,157.787 177.600,158.004 177.600 C 158.222 177.600,158.400 177.780,158.400 178.000 C 158.400 178.220,157.860 178.400,157.200 178.400 C 156.540 178.400,156.000 178.239,156.000 178.042 C 156.000 177.845,154.560 177.556,152.800 177.400 C 151.040 177.244,149.600 176.955,149.600 176.758 C 149.600 176.561,148.880 176.400,148.000 176.400 C 147.120 176.400,146.400 176.220,146.400 176.000 C 146.400 175.780,145.680 175.600,144.800 175.600 C 143.920 175.600,143.200 175.420,143.200 175.200 C 143.200 174.980,142.570 174.800,141.800 174.800 C 141.030 174.800,140.400 174.620,140.400 174.400 C 140.400 174.180,139.680 174.000,138.800 174.000 C 137.920 174.000,137.200 173.820,137.200 173.600 C 137.200 173.380,136.480 173.200,135.600 173.200 C 134.720 173.200,134.000 173.020,134.000 172.800 C 134.000 172.580,133.280 172.400,132.400 172.400 C 131.520 172.400,130.800 172.220,130.800 172.000 C 130.800 171.780,130.080 171.600,129.200 171.600 C 128.320 171.600,127.600 171.420,127.600 171.200 C 127.600 170.980,126.970 170.800,126.200 170.800 C 125.430 170.800,124.800 170.620,124.800 170.400 C 124.800 170.180,124.080 170.000,123.200 170.000 C 122.320 170.000,121.600 169.820,121.600 169.600 C 121.600 169.380,121.060 169.200,120.400 169.200 C 119.740 169.200,119.200 169.020,119.200 168.800 C 119.200 168.580,118.480 168.400,117.600 168.400 C 116.720 168.400,116.000 168.220,116.000 168.000 C 116.000 167.780,115.280 167.600,114.400 167.600 C 113.520 167.600,112.800 167.420,112.800 167.200 C 112.800 166.980,112.080 166.800,111.200 166.800 C 110.320 166.800,109.600 166.608,109.600 166.373 C 109.600 166.120,109.254 166.056,108.750 166.216 C 108.227 166.382,107.994 166.333,108.146 166.088 C 108.281 165.870,108.134 165.477,107.819 165.216 C 107.505 164.955,107.346 164.485,107.467 164.171 C 107.623 163.764,107.378 163.600,106.619 163.600 C 106.009 163.600,105.659 163.429,105.800 163.199 C 105.937 162.979,105.612 162.633,105.079 162.430 C 104.545 162.227,104.000 161.777,103.867 161.431 C 103.520 160.526,102.800 160.653,102.800 161.618 M161.200 162.929 C 161.200 163.311,162.796 165.601,163.619 166.399 C 163.959 166.730,164.672 167.630,165.204 168.400 C 165.735 169.170,166.671 170.277,167.285 170.860 C 167.898 171.444,168.400 172.042,168.400 172.189 C 168.400 172.337,168.666 172.723,168.991 173.048 C 169.316 173.373,169.743 173.926,169.939 174.276 C 170.134 174.626,170.499 174.786,170.749 174.631 C 171.047 174.447,170.754 173.911,169.899 173.075 C 167.614 170.843,165.600 168.316,165.600 167.681 C 165.600 167.343,165.486 167.181,165.346 167.321 C 165.206 167.460,164.567 166.905,163.925 166.087 C 163.283 165.269,162.408 164.156,161.979 163.613 C 161.551 163.070,161.200 162.763,161.200 162.929 M206.367 163.756 C 206.679 164.134,207.309 164.643,207.767 164.887 C 208.525 165.291,208.549 165.269,208.033 164.644 C 207.721 164.266,207.091 163.757,206.633 163.513 C 205.875 163.109,205.851 163.131,206.367 163.756 M147.362 168.862 C 147.184 169.149,147.252 169.215,147.541 169.036 C 147.797 168.878,148.296 169.039,148.651 169.394 C 149.005 169.748,149.385 169.948,149.495 169.838 C 149.757 169.577,148.576 168.400,148.052 168.400 C 147.829 168.400,147.519 168.608,147.362 168.862 M150.133 170.562 C 150.133 170.897,150.376 171.031,150.732 170.894 C 151.122 170.744,151.230 170.828,151.042 171.132 C 150.868 171.414,151.004 171.600,151.386 171.600 C 151.735 171.600,152.195 172.061,152.409 172.624 C 152.623 173.187,152.979 173.537,153.199 173.400 C 153.420 173.264,153.600 173.343,153.600 173.576 C 153.600 173.809,153.960 174.000,154.400 174.000 C 154.840 174.000,155.200 173.801,155.200 173.557 C 155.200 173.314,154.932 173.217,154.605 173.343 C 154.269 173.472,154.051 173.368,154.105 173.104 C 154.157 172.847,154.020 172.628,153.800 172.618 C 153.580 172.608,152.788 172.014,152.041 171.300 C 150.548 169.873,150.133 169.712,150.133 170.562 M216.251 171.117 C 216.142 171.295,216.400 171.657,216.826 171.923 C 217.735 172.491,217.845 172.188,217.026 171.368 C 216.710 171.052,216.361 170.939,216.251 171.117 M286.406 171.700 C 286.411 172.428,286.486 172.485,286.800 172.000 C 287.301 171.224,287.301 170.800,286.800 170.800 C 286.580 170.800,286.403 171.205,286.406 171.700 M155.024 174.613 C 154.596 174.936,154.451 175.200,154.700 175.200 C 154.949 175.200,155.269 175.011,155.412 174.781 C 155.589 174.494,155.852 174.511,156.241 174.834 C 156.651 175.174,156.691 175.449,156.386 175.817 C 155.936 176.359,156.611 177.123,157.104 176.630 C 157.653 176.081,157.578 174.800,156.997 174.800 C 156.669 174.800,156.400 174.620,156.400 174.400 C 156.400 173.848,155.941 173.919,155.024 174.613 M224.204 177.594 C 224.066 177.817,224.233 178.000,224.576 178.000 C 224.919 178.000,225.200 178.151,225.200 178.336 C 225.200 178.670,227.200 179.734,227.418 179.515 C 227.481 179.452,226.841 178.902,225.994 178.294 C 225.074 177.632,224.354 177.351,224.204 177.594 M160.000 178.400 C 160.000 178.844,159.733 179.200,159.400 179.200 C 158.669 179.200,158.643 178.944,159.300 178.198 C 159.959 177.450,160.000 177.462,160.000 178.400 M285.606 180.100 C 285.611 180.828,285.686 180.885,286.000 180.400 C 286.501 179.624,286.501 179.200,286.000 179.200 C 285.780 179.200,285.603 179.605,285.606 180.100 M228.000 180.600 C 228.274 180.930,228.724 181.200,229.000 181.200 C 229.276 181.200,229.730 181.474,230.008 181.810 C 230.286 182.145,230.600 182.334,230.705 182.229 C 230.938 181.996,230.075 181.174,228.890 180.500 C 227.717 179.833,227.393 179.869,228.000 180.600 M231.860 183.344 C 232.511 184.224,234.000 185.052,234.000 184.534 C 234.000 184.245,233.081 183.464,232.044 182.872 L 231.120 182.343 231.860 183.344 M234.400 185.174 C 234.400 185.383,234.759 185.806,235.197 186.113 C 235.636 186.420,235.861 186.819,235.697 187.000 C 235.534 187.181,235.604 187.212,235.853 187.070 C 236.102 186.927,236.777 187.182,237.353 187.634 C 238.753 188.735,238.692 188.157,237.270 186.843 C 235.832 185.514,234.400 184.682,234.400 185.174 M284.806 185.700 C 284.811 186.428,284.886 186.485,285.200 186.000 C 285.701 185.224,285.701 184.800,285.200 184.800 C 284.980 184.800,284.803 185.205,284.806 185.700 M238.800 188.254 C 238.800 188.639,240.787 190.400,241.221 190.400 C 241.429 190.400,241.600 190.760,241.600 191.200 C 241.600 191.640,241.780 192.000,242.000 192.000 C 242.220 192.000,242.400 191.640,242.400 191.200 C 242.400 190.760,242.247 190.400,242.059 190.400 C 241.872 190.400,241.154 189.860,240.463 189.200 C 239.213 188.005,238.800 187.770,238.800 188.254 M284.292 189.842 C 284.131 190.002,284.011 190.598,284.025 191.167 L 284.051 192.200 284.437 191.234 C 284.853 190.194,284.767 189.367,284.292 189.842 M244.000 192.600 C 244.000 192.930,244.180 193.200,244.400 193.200 C 244.620 193.200,244.800 192.930,244.800 192.600 C 244.800 192.270,244.620 192.000,244.400 192.000 C 244.180 192.000,244.000 192.270,244.000 192.600 M246.638 195.000 C 247.799 196.077,248.219 196.277,247.762 195.538 C 247.585 195.252,247.652 195.185,247.938 195.362 C 248.192 195.519,248.400 195.868,248.400 196.138 C 248.400 196.409,248.757 196.657,249.194 196.690 C 249.630 196.722,250.641 197.384,251.439 198.159 C 252.238 198.935,253.006 199.555,253.146 199.537 C 253.899 199.442,253.991 199.667,253.429 200.229 C 252.716 200.941,253.383 202.000,254.545 202.000 C 255.629 202.000,255.233 199.750,254.040 199.136 C 253.468 198.841,252.587 198.195,252.082 197.700 C 251.577 197.205,251.005 196.800,250.810 196.800 C 250.616 196.800,250.219 196.571,249.929 196.291 C 248.569 194.983,247.023 194.000,246.325 194.000 C 245.653 194.000,245.692 194.123,246.638 195.000 M282.667 197.467 C 282.230 197.904,282.364 198.800,282.867 198.800 C 283.123 198.800,283.215 198.682,283.070 198.537 C 282.925 198.392,283.007 198.032,283.252 197.737 C 283.697 197.201,283.174 196.960,282.667 197.467 M281.600 201.376 C 281.600 201.913,281.763 202.454,281.963 202.577 C 282.162 202.700,282.226 202.422,282.105 201.960 C 281.976 201.466,282.116 200.972,282.443 200.765 C 282.888 200.483,282.859 200.411,282.300 200.406 C 281.823 200.402,281.600 200.711,281.600 201.376 M367.200 221.967 C 367.200 222.388,366.984 222.805,366.720 222.893 C 366.420 222.993,366.495 223.151,366.920 223.314 C 367.466 223.523,367.600 223.341,367.600 222.387 C 367.600 221.734,367.510 221.200,367.400 221.200 C 367.290 221.200,367.200 221.545,367.200 221.967 M366.900 225.865 C 366.625 225.976,366.400 226.242,366.400 226.457 C 366.400 226.672,366.567 226.744,366.771 226.618 C 366.976 226.491,367.221 226.796,367.317 227.294 C 367.444 227.956,367.506 227.850,367.546 226.900 C 367.575 226.185,367.555 225.614,367.500 225.632 C 367.445 225.649,367.175 225.754,366.900 225.865 " stroke="none" fill="#ffffff" fill-rule="evenodd"></path></g></svg>