<svg id="svg" version="1.1" width="400" height="345.36256323777405" viewBox="0 0 400 345.36256323777405" xmlns="http://www.w3.org/2000/svg" xmlns:xlink="http://www.w3.org/1999/xlink" ><g id="svgg"><path id="path0" d="M79.102 0.119 C 79.102 0.184,80.444 2.555,82.083 5.387 C 83.723 8.218,85.334 11.002,85.662 11.572 C 85.991 12.142,86.769 13.463,87.392 14.508 C 88.015 15.553,88.794 16.874,89.122 17.444 C 89.451 18.014,91.393 21.356,93.437 24.870 C 95.481 28.385,97.424 31.727,97.754 32.297 C 98.427 33.460,102.723 40.854,108.292 50.432 C 110.335 53.946,112.278 57.288,112.609 57.858 C 112.939 58.428,114.027 60.294,115.026 62.003 C 116.025 63.713,117.109 65.579,117.435 66.149 C 117.761 66.718,119.706 70.060,121.757 73.575 C 123.808 77.090,125.753 80.432,126.080 81.002 C 126.407 81.572,127.162 82.861,127.758 83.867 C 128.355 84.872,128.843 85.750,128.843 85.818 C 128.843 85.885,129.492 87.005,130.284 88.307 C 131.450 90.220,138.234 101.865,140.944 106.603 C 141.283 107.196,142.196 108.727,142.973 110.007 C 143.751 111.286,144.387 112.398,144.387 112.476 C 144.387 112.555,145.065 113.744,145.894 115.118 C 146.724 116.492,149.157 120.648,151.301 124.352 C 155.230 131.139,159.501 138.498,160.623 140.415 C 160.957 140.984,162.904 144.326,164.950 147.841 C 166.996 151.356,169.444 155.553,170.389 157.168 C 171.335 158.782,172.378 160.570,172.705 161.140 C 173.033 161.710,175.599 166.140,178.408 170.984 C 181.216 175.829,183.782 180.259,184.109 180.829 C 184.437 181.399,185.215 182.720,185.838 183.765 C 186.461 184.810,187.239 186.131,187.568 186.701 C 187.897 187.271,189.842 190.613,191.890 194.128 C 193.938 197.642,196.540 202.119,197.672 204.075 C 198.804 206.031,199.899 207.575,200.106 207.507 C 200.452 207.391,201.780 205.369,202.313 204.145 C 202.437 203.860,203.190 202.539,203.986 201.209 C 205.134 199.290,210.528 189.967,216.626 179.361 C 216.981 178.744,217.565 177.733,217.923 177.116 C 218.282 176.498,219.735 173.972,221.151 171.503 C 222.568 169.033,225.481 163.981,227.625 160.276 C 229.769 156.572,231.814 153.035,232.169 152.418 C 232.525 151.801,233.107 150.790,233.464 150.173 C 235.316 146.969,240.584 137.817,241.268 136.615 C 241.701 135.855,243.182 133.290,244.560 130.915 C 245.937 128.541,247.453 125.898,247.929 125.043 C 248.404 124.188,249.532 122.245,250.433 120.725 C 251.335 119.206,253.043 116.252,254.228 114.162 C 255.413 112.073,256.656 109.896,256.989 109.326 C 257.923 107.730,269.076 88.413,269.853 87.047 C 270.231 86.382,270.656 85.682,270.799 85.492 C 270.941 85.302,271.525 84.292,272.097 83.247 C 272.668 82.202,275.741 76.839,278.925 71.330 C 285.735 59.549,285.807 59.424,286.701 57.858 C 287.081 57.193,287.703 56.105,288.083 55.440 C 288.463 54.775,289.067 53.726,289.425 53.109 C 289.783 52.491,292.990 46.934,296.551 40.760 C 300.112 34.585,303.299 29.067,303.633 28.497 C 303.967 27.927,305.403 25.440,306.824 22.971 C 308.907 19.350,313.469 11.439,317.780 3.972 C 318.109 3.402,318.711 2.392,319.119 1.727 C 319.526 1.062,319.860 0.402,319.861 0.259 C 319.862 -0.048,245.904 -0.096,245.106 0.210 C 244.805 0.325,244.560 0.679,244.560 0.997 C 244.560 1.315,244.249 1.799,243.869 2.073 C 243.489 2.346,243.178 2.847,243.178 3.185 C 243.178 3.523,243.022 3.800,242.832 3.800 C 242.642 3.800,242.487 4.111,242.487 4.491 C 242.487 4.870,242.332 5.181,242.142 5.181 C 241.952 5.181,241.796 5.458,241.796 5.796 C 241.796 6.134,241.485 6.635,241.105 6.908 C 240.725 7.182,240.415 7.683,240.415 8.021 C 240.415 8.359,240.259 8.636,240.069 8.636 C 239.879 8.636,239.724 8.772,239.724 8.939 C 239.724 9.106,239.180 10.146,238.515 11.250 C 237.850 12.355,237.306 13.539,237.306 13.883 C 237.306 14.227,237.150 14.508,236.960 14.508 C 236.770 14.508,236.615 14.741,236.615 15.026 C 236.615 15.311,236.459 15.544,236.269 15.544 C 236.079 15.544,235.924 15.777,235.924 16.062 C 235.924 16.347,235.769 16.580,235.579 16.580 C 235.389 16.580,235.233 16.891,235.233 17.271 C 235.233 17.651,235.078 17.962,234.888 17.962 C 234.698 17.962,234.542 18.239,234.542 18.577 C 234.542 18.915,234.231 19.415,233.851 19.689 C 233.472 19.963,233.161 20.464,233.161 20.802 C 233.161 21.140,233.005 21.416,232.815 21.416 C 232.625 21.416,232.470 21.727,232.470 22.107 C 232.470 22.487,232.314 22.798,232.124 22.798 C 231.934 22.798,231.779 23.031,231.779 23.316 C 231.779 23.601,231.623 23.834,231.434 23.834 C 231.244 23.834,231.088 24.067,231.088 24.352 C 231.088 24.637,230.933 24.870,230.743 24.870 C 230.553 24.870,230.397 25.104,230.397 25.389 C 230.397 25.674,230.242 25.907,230.052 25.907 C 229.862 25.907,229.706 26.218,229.706 26.598 C 229.706 26.978,229.551 27.288,229.361 27.288 C 229.171 27.288,229.016 27.528,229.016 27.821 C 229.016 28.114,228.705 28.687,228.325 29.095 C 227.945 29.503,227.634 30.041,227.634 30.290 C 227.634 30.539,227.478 30.743,227.288 30.743 C 227.098 30.743,226.943 31.054,226.943 31.434 C 226.943 31.813,226.788 32.124,226.598 32.124 C 226.408 32.124,226.252 32.364,226.252 32.657 C 226.252 32.950,225.941 33.523,225.561 33.931 C 225.181 34.339,224.870 34.876,224.870 35.126 C 224.870 35.375,224.715 35.579,224.525 35.579 C 224.335 35.579,224.180 35.889,224.180 36.269 C 224.180 36.649,224.063 36.961,223.921 36.962 C 223.778 36.962,223.374 37.662,223.023 38.516 C 222.671 39.370,222.244 40.069,222.073 40.069 C 221.902 40.069,221.762 40.380,221.762 40.760 C 221.762 41.140,221.606 41.451,221.416 41.451 C 221.226 41.451,221.071 41.655,221.071 41.904 C 221.071 42.153,220.760 42.690,220.380 43.098 C 220.000 43.506,219.689 44.080,219.689 44.372 C 219.689 44.665,219.534 44.905,219.344 44.905 C 219.154 44.905,218.998 45.203,218.998 45.567 C 218.998 45.931,218.854 46.281,218.679 46.344 C 218.503 46.408,218.309 46.693,218.247 46.978 C 218.185 47.263,217.863 47.747,217.530 48.054 C 217.198 48.362,216.926 48.867,216.926 49.177 C 216.926 49.487,216.770 49.741,216.580 49.741 C 216.390 49.741,216.235 49.995,216.235 50.305 C 216.235 50.615,215.951 51.120,215.604 51.428 C 215.257 51.735,214.753 52.491,214.484 53.109 C 214.214 53.726,213.876 54.231,213.733 54.231 C 213.589 54.231,213.472 54.471,213.472 54.764 C 213.472 55.057,213.161 55.630,212.781 56.038 C 212.401 56.446,212.090 56.984,212.090 57.233 C 212.090 57.482,211.934 57.686,211.744 57.686 C 211.554 57.686,211.399 57.997,211.399 58.377 C 211.399 58.756,211.244 59.067,211.054 59.067 C 210.864 59.067,210.708 59.378,210.708 59.758 C 210.708 60.138,210.581 60.449,210.427 60.449 C 210.083 60.449,208.981 62.696,208.981 63.397 C 208.981 63.675,208.826 63.903,208.636 63.903 C 208.446 63.903,208.290 64.180,208.290 64.518 C 208.290 64.856,207.979 65.357,207.599 65.630 C 207.219 65.904,206.908 66.327,206.908 66.570 C 206.908 66.813,206.753 67.012,206.563 67.012 C 206.373 67.012,206.218 67.323,206.218 67.703 C 206.218 68.083,206.062 68.394,205.872 68.394 C 205.682 68.394,205.527 68.598,205.527 68.847 C 205.527 69.096,205.216 69.633,204.836 70.041 C 204.456 70.449,204.145 71.023,204.145 71.315 C 204.145 71.608,203.990 71.848,203.800 71.848 C 203.610 71.848,203.454 72.159,203.454 72.539 C 203.454 72.919,203.299 73.230,203.109 73.230 C 202.919 73.230,202.763 73.506,202.763 73.844 C 202.763 74.182,202.453 74.683,202.073 74.957 C 201.693 75.231,201.382 75.731,201.382 76.069 C 201.382 76.407,201.226 76.684,201.036 76.684 C 200.846 76.684,200.691 76.995,200.691 77.375 C 200.691 77.835,200.461 78.066,200.000 78.066 C 199.539 78.066,199.309 77.835,199.309 77.375 C 199.309 76.995,199.154 76.684,198.964 76.684 C 198.774 76.684,198.618 76.407,198.618 76.069 C 198.618 75.731,198.307 75.231,197.927 74.957 C 197.547 74.683,197.237 74.182,197.237 73.844 C 197.237 73.506,197.081 73.230,196.891 73.230 C 196.701 73.230,196.546 72.990,196.546 72.697 C 196.546 72.404,196.235 71.831,195.855 71.423 C 195.475 71.015,195.164 70.478,195.164 70.228 C 195.164 69.979,195.009 69.775,194.819 69.775 C 194.629 69.775,194.473 69.465,194.473 69.085 C 194.473 68.705,194.318 68.394,194.128 68.394 C 193.938 68.394,193.782 68.227,193.782 68.024 C 193.782 67.820,193.549 67.420,193.264 67.135 C 192.979 66.850,192.746 66.318,192.746 65.951 C 192.746 65.585,192.610 65.285,192.443 65.285 C 192.276 65.285,191.946 64.819,191.710 64.249 C 191.474 63.679,191.144 63.212,190.977 63.212 C 190.810 63.212,190.674 62.902,190.674 62.522 C 190.674 62.142,190.518 61.831,190.328 61.831 C 190.138 61.831,189.983 61.591,189.983 61.298 C 189.983 61.005,189.672 60.432,189.292 60.024 C 188.912 59.616,188.601 59.079,188.601 58.830 C 188.601 58.580,188.446 58.377,188.256 58.377 C 188.066 58.377,187.910 58.066,187.910 57.686 C 187.910 57.306,187.755 56.995,187.565 56.995 C 187.375 56.995,187.219 56.791,187.219 56.542 C 187.219 56.293,186.908 55.755,186.528 55.347 C 186.149 54.939,185.838 54.366,185.838 54.073 C 185.838 53.780,185.682 53.541,185.492 53.541 C 185.302 53.541,185.147 53.309,185.147 53.025 C 185.147 52.742,184.836 52.316,184.456 52.079 C 184.076 51.841,183.765 51.374,183.765 51.040 C 183.765 50.705,183.610 50.432,183.420 50.432 C 183.230 50.432,183.074 50.121,183.074 49.741 C 183.074 49.361,182.919 49.050,182.729 49.050 C 182.539 49.050,182.383 48.817,182.383 48.532 C 182.383 48.247,182.228 48.014,182.038 48.014 C 181.848 48.014,181.693 47.781,181.693 47.496 C 181.693 47.211,181.537 46.978,181.347 46.978 C 181.157 46.978,181.002 46.667,181.002 46.287 C 181.002 45.907,180.846 45.596,180.656 45.596 C 180.466 45.596,180.311 45.319,180.311 44.981 C 180.311 44.643,180.000 44.143,179.620 43.869 C 179.240 43.595,178.929 43.177,178.929 42.941 C 178.929 42.368,177.823 40.069,177.548 40.069 C 177.429 40.069,177.118 39.525,176.857 38.860 C 176.596 38.195,176.275 37.651,176.143 37.651 C 176.012 37.651,175.711 37.185,175.475 36.615 C 175.239 36.045,174.909 35.579,174.742 35.579 C 174.575 35.579,174.439 35.268,174.439 34.888 C 174.439 34.508,174.283 34.197,174.093 34.197 C 173.903 34.197,173.748 33.993,173.748 33.744 C 173.748 33.495,173.437 32.957,173.057 32.549 C 172.677 32.142,172.366 31.568,172.366 31.275 C 172.366 30.982,172.211 30.743,172.021 30.743 C 171.831 30.743,171.675 30.466,171.675 30.128 C 171.675 29.790,171.364 29.289,170.984 29.016 C 170.604 28.742,170.294 28.241,170.294 27.903 C 170.294 27.565,170.138 27.288,169.948 27.288 C 169.758 27.288,169.603 27.012,169.603 26.674 C 169.603 26.336,169.292 25.835,168.912 25.561 C 168.532 25.287,168.221 24.787,168.221 24.449 C 168.221 24.111,168.066 23.834,167.876 23.834 C 167.686 23.834,167.530 23.614,167.530 23.345 C 167.530 23.076,167.386 22.804,167.211 22.740 C 167.035 22.677,166.841 22.392,166.779 22.107 C 166.717 21.822,166.395 21.338,166.062 21.030 C 165.730 20.723,165.458 20.218,165.458 19.908 C 165.458 19.597,165.302 19.344,165.112 19.344 C 164.922 19.344,164.767 19.096,164.767 18.793 C 164.767 18.300,163.831 16.334,163.385 15.889 C 163.289 15.794,162.991 15.289,162.722 14.767 C 162.452 14.244,162.103 13.817,161.945 13.817 C 161.787 13.817,161.658 13.506,161.658 13.126 C 161.658 12.746,161.532 12.435,161.377 12.435 C 161.223 12.435,160.883 11.891,160.622 11.226 C 160.361 10.561,160.021 10.017,159.866 10.017 C 159.712 10.017,159.585 9.784,159.585 9.499 C 159.585 9.214,159.430 8.981,159.240 8.981 C 159.050 8.981,158.895 8.748,158.895 8.463 C 158.895 8.178,158.739 7.945,158.549 7.945 C 158.359 7.945,158.204 7.705,158.204 7.412 C 158.204 7.119,157.893 6.546,157.513 6.138 C 157.133 5.730,156.822 5.193,156.822 4.944 C 156.822 4.694,156.667 4.491,156.477 4.491 C 156.287 4.491,156.131 4.180,156.131 3.800 C 156.131 3.420,155.976 3.109,155.786 3.109 C 155.596 3.109,155.440 2.832,155.440 2.494 C 155.440 2.156,155.130 1.656,154.750 1.382 C 154.370 1.108,154.059 0.685,154.059 0.442 C 154.059 0.086,146.790 0.000,116.580 0.000 C 95.967 0.000,79.102 0.053,79.102 0.119 " stroke="none" fill="#ededed" fill-rule="evenodd"></path><path id="path1" d="M0.136 1.404 C 0.260 2.177,0.668 3.139,1.044 3.542 C 1.420 3.945,1.727 4.479,1.727 4.728 C 1.727 4.977,1.845 5.181,1.988 5.181 C 2.132 5.181,2.470 5.687,2.739 6.304 C 3.009 6.921,3.513 7.678,3.860 7.985 C 4.207 8.293,4.491 8.798,4.491 9.108 C 4.491 9.418,4.646 9.672,4.836 9.672 C 5.026 9.672,5.181 9.983,5.181 10.363 C 5.181 10.743,5.337 11.054,5.527 11.054 C 5.717 11.054,5.872 11.330,5.872 11.668 C 5.872 12.006,6.183 12.507,6.563 12.781 C 6.943 13.055,7.254 13.555,7.254 13.893 C 7.254 14.231,7.409 14.508,7.599 14.508 C 7.789 14.508,7.945 14.819,7.945 15.199 C 7.945 15.579,8.100 15.889,8.290 15.889 C 8.480 15.889,8.636 16.067,8.636 16.283 C 8.636 16.500,9.335 17.841,10.190 19.263 C 11.045 20.685,11.744 21.985,11.744 22.151 C 11.744 22.317,11.900 22.453,12.090 22.453 C 12.280 22.453,12.435 22.763,12.435 23.143 C 12.435 23.523,12.591 23.834,12.781 23.834 C 12.971 23.834,13.126 24.038,13.126 24.287 C 13.126 24.536,13.437 25.074,13.817 25.482 C 14.197 25.890,14.508 26.450,14.508 26.727 C 14.508 27.004,14.624 27.283,14.767 27.346 C 15.091 27.490,16.213 29.330,16.469 30.138 C 16.575 30.471,16.798 30.743,16.966 30.743 C 17.134 30.743,17.271 31.054,17.271 31.434 C 17.271 31.813,17.427 32.124,17.617 32.124 C 17.807 32.124,17.962 32.328,17.962 32.577 C 17.962 32.827,18.273 33.364,18.653 33.772 C 19.033 34.180,19.344 34.753,19.344 35.046 C 19.344 35.339,19.499 35.579,19.689 35.579 C 19.879 35.579,20.035 35.812,20.035 36.097 C 20.035 36.382,20.190 36.615,20.380 36.615 C 20.570 36.615,20.725 36.935,20.725 37.326 C 20.725 37.717,20.881 37.941,21.071 37.824 C 21.261 37.706,21.416 37.853,21.416 38.149 C 21.416 38.445,21.572 38.687,21.762 38.687 C 21.952 38.687,22.107 38.998,22.107 39.378 C 22.107 39.758,22.263 40.069,22.453 40.069 C 22.642 40.069,22.798 40.369,22.798 40.735 C 22.798 41.102,23.031 41.635,23.316 41.920 C 23.601 42.205,23.834 42.682,23.834 42.981 C 23.834 43.279,23.959 43.523,24.111 43.523 C 24.263 43.523,24.734 44.184,25.158 44.991 C 26.678 47.889,27.465 49.225,27.720 49.338 C 27.863 49.401,27.979 49.673,27.979 49.942 C 27.979 50.212,28.135 50.432,28.325 50.432 C 28.515 50.432,28.670 50.665,28.670 50.950 C 28.670 51.235,28.826 51.468,29.016 51.468 C 29.206 51.468,29.361 51.779,29.361 52.159 C 29.361 52.539,29.516 52.850,29.706 52.850 C 29.896 52.850,30.052 53.126,30.052 53.464 C 30.052 53.802,30.363 54.303,30.743 54.577 C 31.123 54.851,31.434 55.351,31.434 55.689 C 31.434 56.027,31.589 56.304,31.779 56.304 C 31.969 56.304,32.124 56.544,32.124 56.837 C 32.124 57.129,32.435 57.703,32.815 58.111 C 33.195 58.519,33.506 59.056,33.506 59.305 C 33.506 59.554,33.661 59.758,33.851 59.758 C 34.041 59.758,34.197 60.069,34.197 60.449 C 34.197 60.829,34.352 61.140,34.542 61.140 C 34.732 61.140,34.888 61.416,34.888 61.754 C 34.888 62.093,35.199 62.593,35.579 62.867 C 35.959 63.141,36.269 63.642,36.269 63.980 C 36.269 64.318,36.425 64.594,36.615 64.594 C 36.805 64.594,36.960 64.827,36.960 65.112 C 36.960 65.397,37.116 65.630,37.306 65.630 C 37.496 65.630,37.651 65.932,37.651 66.301 C 37.651 66.670,37.797 67.061,37.975 67.171 C 38.399 67.434,39.378 69.407,39.378 70.001 C 39.378 70.257,39.515 70.466,39.682 70.466 C 39.849 70.466,40.178 70.933,40.415 71.503 C 40.651 72.073,40.980 72.539,41.147 72.539 C 41.314 72.539,41.451 72.850,41.451 73.230 C 41.451 73.610,41.606 73.921,41.796 73.921 C 41.986 73.921,42.142 74.124,42.142 74.374 C 42.142 74.623,42.453 75.160,42.832 75.568 C 43.212 75.976,43.523 76.549,43.523 76.842 C 43.523 77.135,43.679 77.375,43.869 77.375 C 44.059 77.375,44.214 77.608,44.214 77.893 C 44.214 78.178,44.370 78.411,44.560 78.411 C 44.750 78.411,44.905 78.615,44.905 78.864 C 44.905 79.113,45.216 79.651,45.596 80.059 C 45.976 80.466,46.287 81.040,46.287 81.333 C 46.287 81.626,46.442 81.865,46.632 81.865 C 46.822 81.865,46.978 82.105,46.978 82.398 C 46.978 82.691,47.288 83.264,47.668 83.672 C 48.048 84.080,48.359 84.617,48.359 84.867 C 48.359 85.116,48.515 85.320,48.705 85.320 C 48.895 85.320,49.050 85.630,49.050 86.010 C 49.050 86.390,49.206 86.701,49.396 86.701 C 49.585 86.701,49.741 86.905,49.741 87.154 C 49.741 87.403,50.052 87.941,50.432 88.349 C 50.812 88.757,51.123 89.330,51.123 89.623 C 51.123 89.916,51.278 90.155,51.468 90.155 C 51.658 90.155,51.813 90.430,51.813 90.766 C 51.813 91.102,52.202 91.949,52.677 92.648 C 53.152 93.347,53.541 94.082,53.541 94.282 C 53.541 94.482,53.696 94.646,53.886 94.646 C 54.076 94.646,54.231 94.957,54.231 95.337 C 54.231 95.717,54.368 96.028,54.535 96.028 C 54.702 96.028,55.032 96.494,55.268 97.064 C 55.504 97.634,55.834 98.100,56.000 98.100 C 56.167 98.100,56.304 98.411,56.304 98.791 C 56.304 99.171,56.459 99.482,56.649 99.482 C 56.839 99.482,56.995 99.758,56.995 100.096 C 56.995 100.434,57.306 100.935,57.686 101.209 C 58.066 101.483,58.377 101.983,58.377 102.322 C 58.377 102.660,58.503 102.936,58.657 102.936 C 58.812 102.936,59.152 103.480,59.413 104.145 C 59.674 104.810,60.014 105.354,60.168 105.354 C 60.323 105.354,60.449 105.587,60.449 105.872 C 60.449 106.157,60.604 106.390,60.794 106.390 C 60.984 106.390,61.140 106.701,61.140 107.081 C 61.140 107.461,61.295 107.772,61.485 107.772 C 61.675 107.772,61.831 107.971,61.831 108.214 C 61.831 108.457,62.142 108.880,62.522 109.154 C 62.902 109.428,63.212 109.928,63.212 110.266 C 63.212 110.604,63.368 110.881,63.558 110.881 C 63.748 110.881,63.903 111.192,63.903 111.572 C 63.903 111.952,64.059 112.263,64.249 112.263 C 64.439 112.263,64.594 112.516,64.594 112.826 C 64.594 113.137,64.880 113.642,65.230 113.949 C 65.579 114.256,65.978 114.962,66.115 115.517 C 66.252 116.072,66.665 116.909,67.034 117.377 C 67.402 117.845,67.703 118.440,67.703 118.699 C 67.703 118.959,67.820 119.171,67.964 119.171 C 68.108 119.171,68.446 119.676,68.715 120.294 C 68.985 120.911,69.489 121.668,69.836 121.975 C 70.183 122.282,70.466 122.787,70.466 123.098 C 70.466 123.408,70.583 123.663,70.725 123.664 C 71.016 123.667,71.848 125.323,71.848 125.899 C 71.848 126.105,72.159 126.496,72.539 126.770 C 72.919 127.044,73.230 127.545,73.230 127.883 C 73.230 128.221,73.385 128.497,73.575 128.497 C 73.765 128.497,73.921 128.808,73.921 129.188 C 73.921 129.568,74.076 129.879,74.266 129.879 C 74.456 129.879,74.611 130.083,74.611 130.332 C 74.611 130.581,74.922 131.119,75.302 131.527 C 75.682 131.934,75.993 132.508,75.993 132.801 C 75.993 133.094,76.149 133.333,76.339 133.333 C 76.528 133.333,76.684 133.566,76.684 133.851 C 76.684 134.136,76.821 134.370,76.989 134.370 C 77.157 134.370,77.380 134.642,77.486 134.974 C 77.674 135.566,78.760 137.482,79.102 137.824 C 79.549 138.270,80.484 140.235,80.484 140.727 C 80.484 141.030,80.621 141.278,80.789 141.278 C 80.957 141.278,81.180 141.550,81.286 141.883 C 81.473 142.474,82.560 144.391,82.902 144.732 C 83.243 145.074,84.330 146.990,84.518 147.582 C 84.623 147.915,84.818 148.187,84.950 148.187 C 85.082 148.187,85.404 148.731,85.665 149.396 C 85.926 150.060,86.247 150.604,86.378 150.604 C 86.510 150.604,86.811 151.071,87.047 151.641 C 87.283 152.211,87.612 152.677,87.779 152.677 C 87.946 152.677,88.083 152.988,88.083 153.368 C 88.083 153.748,88.238 154.059,88.428 154.059 C 88.618 154.059,88.774 154.298,88.774 154.591 C 88.774 154.884,89.085 155.458,89.465 155.865 C 89.845 156.273,90.155 156.811,90.155 157.060 C 90.155 157.309,90.311 157.513,90.501 157.513 C 90.691 157.513,90.846 157.824,90.846 158.204 C 90.846 158.584,91.002 158.895,91.192 158.895 C 91.382 158.895,91.537 159.098,91.537 159.348 C 91.537 159.597,91.848 160.134,92.228 160.542 C 92.608 160.950,92.919 161.523,92.919 161.816 C 92.919 162.109,93.039 162.349,93.187 162.349 C 93.334 162.349,93.762 163.047,94.137 163.900 C 94.512 164.753,94.906 165.453,95.013 165.454 C 95.120 165.456,95.421 166.002,95.682 166.667 C 95.943 167.332,96.254 167.876,96.373 167.876 C 96.492 167.876,96.803 168.420,97.064 169.085 C 97.325 169.750,97.665 170.294,97.819 170.294 C 97.974 170.294,98.100 170.604,98.100 170.984 C 98.100 171.364,98.237 171.675,98.404 171.675 C 98.571 171.675,98.900 172.142,99.136 172.712 C 99.373 173.282,99.702 173.748,99.869 173.748 C 100.036 173.748,100.173 174.059,100.173 174.439 C 100.173 174.819,100.328 175.130,100.518 175.130 C 100.708 175.130,100.864 175.296,100.864 175.499 C 100.864 175.702,101.296 176.518,101.824 177.313 C 102.352 178.107,103.012 179.223,103.290 179.793 C 103.568 180.363,104.068 181.080,104.402 181.388 C 104.736 181.695,105.009 182.200,105.009 182.510 C 105.009 182.820,105.164 183.074,105.354 183.074 C 105.544 183.074,105.699 183.385,105.699 183.765 C 105.699 184.145,105.855 184.456,106.045 184.456 C 106.235 184.456,106.390 184.733,106.390 185.071 C 106.390 185.409,106.701 185.909,107.081 186.183 C 107.461 186.457,107.772 186.958,107.772 187.296 C 107.772 187.634,107.927 187.910,108.117 187.910 C 108.307 187.910,108.463 188.151,108.463 188.445 C 108.463 188.739,109.007 189.830,109.672 190.870 C 110.337 191.909,110.881 192.955,110.881 193.195 C 110.881 193.434,111.192 193.854,111.572 194.128 C 111.952 194.402,112.263 194.902,112.263 195.240 C 112.263 195.578,112.418 195.855,112.608 195.855 C 112.798 195.855,112.953 196.166,112.953 196.546 C 112.953 196.926,113.109 197.237,113.299 197.237 C 113.489 197.237,113.644 197.470,113.644 197.755 C 113.644 198.040,113.800 198.273,113.990 198.273 C 114.180 198.273,114.335 198.506,114.335 198.791 C 114.335 199.076,114.491 199.309,114.680 199.309 C 114.870 199.309,115.026 199.620,115.026 200.000 C 115.026 200.380,115.181 200.691,115.371 200.691 C 115.561 200.691,115.717 200.967,115.717 201.305 C 115.717 201.643,116.028 202.144,116.408 202.418 C 116.788 202.692,117.098 203.192,117.098 203.530 C 117.098 203.869,117.225 204.145,117.379 204.145 C 117.534 204.145,117.874 204.689,118.135 205.354 C 118.396 206.019,118.736 206.563,118.890 206.563 C 119.045 206.563,119.171 206.796,119.171 207.081 C 119.171 207.366,119.326 207.599,119.516 207.599 C 119.706 207.599,119.862 207.832,119.862 208.117 C 119.862 208.402,120.017 208.636,120.207 208.636 C 120.397 208.636,120.553 208.934,120.553 209.298 C 120.553 209.662,120.696 210.012,120.872 210.075 C 121.048 210.138,121.242 210.423,121.304 210.708 C 121.366 210.993,121.688 211.478,122.021 211.785 C 122.353 212.092,122.625 212.597,122.625 212.908 C 122.625 213.218,122.781 213.472,122.971 213.472 C 123.161 213.472,123.316 213.771,123.316 214.138 C 123.316 214.504,123.549 215.037,123.834 215.322 C 124.119 215.607,124.352 216.084,124.352 216.383 C 124.352 216.681,124.479 216.926,124.633 216.926 C 124.788 216.926,125.128 217.470,125.389 218.135 C 125.650 218.800,125.966 219.344,126.092 219.344 C 126.218 219.344,126.834 220.354,127.461 221.589 C 128.088 222.824,128.733 223.834,128.895 223.834 C 129.056 223.834,129.188 224.067,129.188 224.352 C 129.188 224.637,129.344 224.870,129.534 224.870 C 129.724 224.870,129.879 225.168,129.879 225.533 C 129.879 225.897,129.996 226.246,130.138 226.310 C 130.462 226.454,131.584 228.294,131.841 229.102 C 131.946 229.434,132.170 229.706,132.337 229.706 C 132.505 229.706,132.642 230.017,132.642 230.397 C 132.642 230.777,132.798 231.088,132.988 231.088 C 133.178 231.088,133.333 231.321,133.333 231.606 C 133.333 231.891,133.489 232.124,133.679 232.124 C 133.869 232.124,134.024 232.358,134.024 232.642 C 134.024 232.927,134.180 233.161,134.370 233.161 C 134.560 233.161,134.715 233.472,134.715 233.851 C 134.715 234.231,134.870 234.542,135.060 234.542 C 135.250 234.542,135.406 234.775,135.406 235.060 C 135.406 235.345,135.561 235.579,135.751 235.579 C 135.941 235.579,136.097 235.812,136.097 236.097 C 136.097 236.382,136.252 236.615,136.442 236.615 C 136.632 236.615,136.788 236.848,136.788 237.133 C 136.788 237.418,136.943 237.651,137.133 237.651 C 137.323 237.651,137.478 237.940,137.478 238.294 C 137.478 238.647,137.867 239.509,138.342 240.209 C 138.817 240.909,139.206 241.708,139.206 241.984 C 139.206 242.261,139.361 242.487,139.551 242.487 C 139.741 242.487,139.896 242.798,139.896 243.178 C 139.896 243.558,140.041 243.869,140.219 243.869 C 140.396 243.869,140.639 244.179,140.759 244.558 C 140.880 244.936,141.163 245.442,141.389 245.680 C 141.615 245.919,142.173 246.852,142.630 247.755 C 143.086 248.657,143.590 249.396,143.750 249.396 C 143.910 249.396,144.041 249.706,144.041 250.086 C 144.041 250.466,144.197 250.777,144.387 250.777 C 144.577 250.777,144.732 251.010,144.732 251.295 C 144.732 251.580,144.888 251.813,145.078 251.813 C 145.268 251.813,145.423 252.090,145.423 252.428 C 145.423 252.766,145.734 253.267,146.114 253.541 C 146.494 253.814,146.805 254.315,146.805 254.653 C 146.805 254.991,146.960 255.268,147.150 255.268 C 147.340 255.268,147.496 255.579,147.496 255.959 C 147.496 256.339,147.651 256.649,147.841 256.649 C 148.031 256.649,148.187 256.853,148.187 257.102 C 148.187 257.352,148.497 257.889,148.877 258.297 C 149.257 258.705,149.568 259.278,149.568 259.571 C 149.568 259.864,149.724 260.104,149.914 260.104 C 150.104 260.104,150.259 260.307,150.259 260.557 C 150.259 260.806,150.545 261.316,150.894 261.691 C 151.243 262.065,151.642 262.824,151.780 263.376 C 152.033 264.385,153.281 266.394,153.787 266.609 C 153.937 266.672,154.059 267.022,154.059 267.386 C 154.059 267.750,154.214 268.048,154.404 268.048 C 154.594 268.048,154.750 268.359,154.750 268.739 C 154.750 269.119,154.886 269.430,155.053 269.430 C 155.220 269.430,155.550 269.896,155.786 270.466 C 156.022 271.036,156.352 271.503,156.519 271.503 C 156.686 271.503,156.822 271.813,156.822 272.193 C 156.822 272.573,156.978 272.884,157.168 272.884 C 157.358 272.884,157.513 273.124,157.513 273.417 C 157.513 273.710,157.824 274.283,158.204 274.691 C 158.584 275.099,158.895 275.636,158.895 275.886 C 158.895 276.135,159.050 276.339,159.240 276.339 C 159.430 276.339,159.585 276.578,159.585 276.871 C 159.585 277.164,159.896 277.737,160.276 278.145 C 160.656 278.553,160.967 279.091,160.967 279.340 C 160.967 279.589,161.123 279.793,161.313 279.793 C 161.503 279.793,161.658 280.026,161.658 280.311 C 161.658 280.596,161.813 280.829,162.003 280.829 C 162.193 280.829,162.349 281.106,162.349 281.444 C 162.349 281.782,162.660 282.282,163.040 282.556 C 163.420 282.830,163.731 283.331,163.731 283.669 C 163.731 284.007,163.886 284.283,164.076 284.283 C 164.266 284.283,164.421 284.594,164.421 284.974 C 164.421 285.354,164.577 285.665,164.767 285.665 C 164.957 285.665,165.112 285.976,165.112 286.356 C 165.112 286.736,165.265 287.047,165.451 287.047 C 165.637 287.047,165.895 287.474,166.022 287.997 C 166.150 288.519,166.348 289.024,166.461 289.119 C 166.743 289.356,167.448 290.495,167.957 291.537 C 168.190 292.012,168.473 292.478,168.587 292.573 C 168.701 292.668,169.014 293.251,169.283 293.869 C 169.552 294.486,169.870 294.991,169.991 294.991 C 170.111 294.991,170.403 295.458,170.639 296.028 C 170.875 296.598,171.205 297.064,171.372 297.064 C 171.539 297.064,171.675 297.362,171.675 297.726 C 171.675 298.090,171.819 298.440,171.995 298.503 C 172.171 298.566,172.365 298.851,172.427 299.136 C 172.488 299.421,172.811 299.906,173.143 300.213 C 173.476 300.520,173.748 301.026,173.748 301.336 C 173.748 301.646,173.903 301.900,174.093 301.900 C 174.283 301.900,174.439 302.211,174.439 302.591 C 174.439 302.971,174.575 303.282,174.742 303.282 C 174.909 303.282,175.239 303.748,175.475 304.318 C 175.711 304.888,176.041 305.354,176.208 305.354 C 176.375 305.354,176.511 305.665,176.511 306.045 C 176.511 306.425,176.628 306.736,176.771 306.736 C 176.914 306.736,177.402 307.435,177.855 308.290 C 178.309 309.145,178.814 309.845,178.977 309.845 C 179.141 309.845,179.275 310.155,179.275 310.535 C 179.275 310.915,179.430 311.226,179.620 311.226 C 179.810 311.226,179.965 311.526,179.965 311.892 C 179.965 312.259,180.199 312.792,180.484 313.077 C 180.769 313.362,181.002 313.826,181.002 314.109 C 181.002 314.392,181.118 314.675,181.261 314.738 C 181.585 314.882,182.707 316.722,182.963 317.530 C 183.069 317.863,183.292 318.135,183.460 318.135 C 183.628 318.135,183.765 318.306,183.765 318.516 C 183.765 318.726,184.231 319.589,184.801 320.434 C 185.371 321.278,185.838 322.194,185.838 322.470 C 185.838 322.745,185.993 322.971,186.183 322.971 C 186.373 322.971,186.528 323.204,186.528 323.489 C 186.528 323.774,186.684 324.007,186.874 324.007 C 187.064 324.007,187.219 324.283,187.219 324.621 C 187.219 324.960,187.530 325.460,187.910 325.734 C 188.290 326.008,188.601 326.509,188.601 326.847 C 188.601 327.185,188.756 327.461,188.946 327.461 C 189.136 327.461,189.292 327.701,189.292 327.994 C 189.292 328.287,189.603 328.860,189.983 329.268 C 190.363 329.676,190.674 330.213,190.674 330.462 C 190.674 330.712,190.829 330.915,191.019 330.915 C 191.209 330.915,191.364 331.226,191.364 331.606 C 191.364 331.986,191.520 332.297,191.710 332.297 C 191.900 332.297,192.055 332.574,192.055 332.912 C 192.055 333.250,192.366 333.750,192.746 334.024 C 193.126 334.298,193.437 334.799,193.437 335.137 C 193.437 335.475,193.592 335.751,193.782 335.751 C 193.972 335.751,194.128 336.062,194.128 336.442 C 194.128 336.822,194.266 337.133,194.436 337.133 C 194.605 337.133,194.841 337.522,194.960 337.997 C 195.080 338.472,195.330 338.860,195.516 338.860 C 195.702 338.860,195.855 339.171,195.855 339.551 C 195.855 339.931,196.010 340.242,196.200 340.242 C 196.390 340.242,196.546 340.518,196.546 340.856 C 196.546 341.194,196.857 341.695,197.237 341.969 C 197.617 342.243,197.927 342.743,197.927 343.081 C 197.927 343.419,198.083 343.696,198.273 343.696 C 198.463 343.696,198.618 343.996,198.618 344.364 C 198.618 344.731,198.929 345.130,199.309 345.250 C 200.331 345.575,201.382 345.125,201.382 344.364 C 201.382 343.996,201.537 343.696,201.727 343.696 C 201.917 343.696,202.073 343.456,202.073 343.163 C 202.073 342.871,202.383 342.297,202.763 341.889 C 203.143 341.481,203.454 340.944,203.454 340.695 C 203.454 340.446,203.610 340.242,203.800 340.242 C 203.990 340.242,204.145 339.944,204.145 339.580 C 204.145 339.216,204.262 338.866,204.404 338.803 C 204.757 338.646,206.788 335.293,207.072 334.399 C 207.198 334.003,207.445 333.679,207.623 333.679 C 207.800 333.679,207.945 333.368,207.945 332.988 C 207.945 332.608,208.100 332.297,208.290 332.297 C 208.480 332.297,208.636 331.986,208.636 331.606 C 208.636 331.226,208.791 330.915,208.981 330.915 C 209.171 330.915,209.326 330.682,209.326 330.397 C 209.326 330.112,209.482 329.879,209.672 329.879 C 209.862 329.879,210.017 329.646,210.017 329.361 C 210.017 329.076,210.173 328.843,210.363 328.843 C 210.553 328.843,210.708 328.532,210.708 328.152 C 210.708 327.772,210.864 327.461,211.054 327.461 C 211.244 327.461,211.399 327.150,211.399 326.770 C 211.399 326.390,211.536 326.079,211.702 326.079 C 211.869 326.079,212.199 325.613,212.435 325.043 C 212.671 324.473,213.001 324.007,213.168 324.007 C 213.335 324.007,213.472 323.774,213.472 323.489 C 213.472 323.204,213.627 322.971,213.817 322.971 C 214.007 322.971,214.162 322.660,214.162 322.280 C 214.162 321.900,214.318 321.589,214.508 321.589 C 214.698 321.589,214.853 321.356,214.853 321.071 C 214.853 320.786,215.009 320.553,215.199 320.553 C 215.389 320.553,215.544 320.320,215.544 320.035 C 215.544 319.750,215.699 319.516,215.889 319.516 C 216.079 319.516,216.235 319.218,216.235 318.854 C 216.235 318.490,216.351 318.140,216.494 318.077 C 216.818 317.933,217.940 316.093,218.196 315.285 C 218.302 314.953,218.525 314.680,218.693 314.680 C 218.861 314.680,218.998 314.370,218.998 313.990 C 218.998 313.610,219.135 313.299,219.302 313.299 C 219.469 313.299,219.798 312.832,220.035 312.263 C 220.271 311.693,220.600 311.226,220.767 311.226 C 220.934 311.226,221.071 310.951,221.071 310.616 C 221.071 310.280,221.459 309.433,221.934 308.734 C 222.409 308.035,222.798 307.300,222.798 307.100 C 222.798 306.899,222.953 306.736,223.143 306.736 C 223.333 306.736,223.489 306.496,223.489 306.203 C 223.489 305.910,223.800 305.337,224.180 304.929 C 224.560 304.521,224.870 303.984,224.870 303.735 C 224.870 303.485,225.026 303.282,225.216 303.282 C 225.406 303.282,225.561 302.971,225.561 302.591 C 225.561 302.211,225.717 301.900,225.907 301.900 C 226.097 301.900,226.252 301.623,226.252 301.285 C 226.252 300.947,226.563 300.447,226.943 300.173 C 227.323 299.899,227.634 299.398,227.634 299.060 C 227.634 298.722,227.789 298.446,227.979 298.446 C 228.169 298.446,228.325 298.135,228.325 297.755 C 228.325 297.375,228.461 297.064,228.628 297.064 C 228.795 297.064,229.125 296.598,229.361 296.028 C 229.597 295.458,229.889 294.991,230.009 294.991 C 230.130 294.991,230.448 294.486,230.717 293.869 C 230.986 293.251,231.296 292.668,231.406 292.573 C 231.640 292.371,232.303 291.228,233.307 289.292 C 233.702 288.532,234.119 287.832,234.235 287.737 C 234.631 287.413,235.579 285.355,235.579 284.819 C 235.579 284.524,235.734 284.283,235.924 284.283 C 236.114 284.283,236.269 284.007,236.269 283.669 C 236.269 283.331,236.580 282.830,236.960 282.556 C 237.340 282.282,237.651 281.782,237.651 281.444 C 237.651 281.106,237.807 280.829,237.997 280.829 C 238.187 280.829,238.342 280.596,238.342 280.311 C 238.342 280.026,238.497 279.793,238.687 279.793 C 238.877 279.793,239.033 279.560,239.033 279.275 C 239.033 278.990,239.159 278.756,239.314 278.756 C 239.468 278.756,239.808 278.212,240.069 277.547 C 240.330 276.883,240.670 276.339,240.824 276.339 C 240.979 276.339,241.105 276.135,241.105 275.886 C 241.105 275.636,241.416 275.099,241.796 274.691 C 242.176 274.283,242.487 273.710,242.487 273.417 C 242.487 273.124,242.642 272.884,242.832 272.884 C 243.022 272.884,243.178 272.645,243.178 272.352 C 243.178 272.059,243.489 271.485,243.869 271.078 C 244.249 270.670,244.560 270.132,244.560 269.883 C 244.560 269.634,244.715 269.430,244.905 269.430 C 245.095 269.430,245.250 269.119,245.250 268.739 C 245.250 268.359,245.406 268.048,245.596 268.048 C 245.786 268.048,245.941 267.809,245.941 267.516 C 245.941 267.223,246.231 266.672,246.586 266.292 C 246.940 265.911,247.599 264.868,248.049 263.974 C 248.500 263.080,248.948 262.271,249.045 262.176 C 249.433 261.799,250.432 259.799,250.432 259.400 C 250.432 259.167,250.704 258.724,251.036 258.417 C 251.369 258.110,251.691 257.625,251.753 257.340 C 251.815 257.055,252.009 256.770,252.185 256.707 C 252.361 256.644,252.504 256.294,252.504 255.930 C 252.504 255.566,252.660 255.268,252.850 255.268 C 253.040 255.268,253.195 254.991,253.195 254.653 C 253.195 254.315,253.506 253.814,253.886 253.541 C 254.266 253.267,254.577 252.766,254.577 252.428 C 254.577 252.090,254.694 251.813,254.838 251.813 C 254.982 251.813,255.323 251.308,255.596 250.691 C 255.869 250.073,256.373 249.267,256.717 248.899 C 257.060 248.530,257.340 248.025,257.340 247.776 C 257.340 247.527,257.496 247.323,257.686 247.323 C 257.876 247.323,258.031 247.012,258.031 246.632 C 258.031 246.252,258.156 245.941,258.309 245.941 C 258.461 245.941,258.966 245.166,259.431 244.220 C 259.896 243.273,260.393 242.495,260.535 242.492 C 260.678 242.489,260.794 242.176,260.794 241.796 C 260.794 241.416,260.931 241.105,261.098 241.105 C 261.265 241.105,261.595 240.639,261.831 240.069 C 262.067 239.499,262.397 239.033,262.563 239.033 C 262.730 239.033,262.867 238.722,262.867 238.342 C 262.867 237.962,262.988 237.651,263.135 237.651 C 263.282 237.651,263.710 236.953,264.085 236.100 C 264.460 235.247,264.883 234.547,265.026 234.546 C 265.168 234.544,265.285 234.231,265.285 233.851 C 265.285 233.472,265.440 233.161,265.630 233.161 C 265.820 233.161,265.976 232.957,265.976 232.708 C 265.976 232.458,266.287 231.921,266.667 231.513 C 267.047 231.105,267.358 230.532,267.358 230.239 C 267.358 229.946,267.513 229.706,267.703 229.706 C 267.893 229.706,268.048 229.430,268.048 229.092 C 268.048 228.754,268.359 228.253,268.739 227.979 C 269.119 227.705,269.430 227.205,269.430 226.867 C 269.430 226.529,269.585 226.252,269.775 226.252 C 269.965 226.252,270.121 225.954,270.121 225.590 C 270.121 225.226,270.237 224.876,270.380 224.813 C 270.775 224.637,272.011 222.762,272.562 221.503 C 272.832 220.885,273.170 220.380,273.314 220.380 C 273.458 220.380,273.575 220.147,273.575 219.862 C 273.575 219.577,273.731 219.344,273.921 219.344 C 274.111 219.344,274.266 219.111,274.266 218.826 C 274.266 218.541,274.421 218.307,274.611 218.307 C 274.801 218.307,274.957 217.997,274.957 217.617 C 274.957 217.237,275.073 216.923,275.216 216.920 C 275.358 216.917,275.855 216.140,276.320 215.193 C 276.785 214.246,277.290 213.472,277.443 213.472 C 277.595 213.472,277.720 213.161,277.720 212.781 C 277.720 212.401,277.863 212.090,278.038 212.090 C 278.213 212.090,278.459 211.623,278.584 211.054 C 278.709 210.484,278.954 210.017,279.129 210.017 C 279.304 210.017,279.447 209.706,279.447 209.326 C 279.447 208.946,279.603 208.636,279.793 208.636 C 279.983 208.636,280.138 208.402,280.138 208.117 C 280.138 207.832,280.294 207.599,280.484 207.599 C 280.674 207.599,280.829 207.366,280.829 207.081 C 280.829 206.796,280.984 206.563,281.174 206.563 C 281.364 206.563,281.520 206.330,281.520 206.045 C 281.520 205.760,281.675 205.527,281.865 205.527 C 282.055 205.527,282.211 205.216,282.211 204.836 C 282.211 204.456,282.366 204.145,282.556 204.145 C 282.746 204.145,282.902 203.905,282.902 203.612 C 282.902 203.320,283.212 202.746,283.592 202.338 C 283.972 201.931,284.283 201.393,284.283 201.144 C 284.283 200.895,284.439 200.691,284.629 200.691 C 284.819 200.691,284.974 200.380,284.974 200.000 C 284.974 199.620,285.130 199.309,285.320 199.309 C 285.509 199.309,285.665 199.105,285.665 198.856 C 285.665 198.607,285.976 198.069,286.356 197.662 C 286.736 197.254,287.047 196.680,287.047 196.388 C 287.047 196.095,287.202 195.855,287.392 195.855 C 287.582 195.855,287.737 195.615,287.737 195.322 C 287.737 195.029,288.048 194.456,288.428 194.048 C 288.808 193.640,289.119 193.103,289.119 192.854 C 289.119 192.605,289.275 192.401,289.465 192.401 C 289.655 192.401,289.810 192.168,289.810 191.883 C 289.810 191.598,289.965 191.364,290.155 191.364 C 290.345 191.364,290.501 191.054,290.501 190.674 C 290.501 190.294,290.638 189.983,290.806 189.983 C 291.138 189.983,292.919 186.534,292.919 185.890 C 292.919 185.671,293.074 185.492,293.264 185.492 C 293.454 185.492,293.610 185.259,293.610 184.974 C 293.610 184.689,293.765 184.456,293.955 184.456 C 294.145 184.456,294.301 184.145,294.301 183.765 C 294.301 183.385,294.456 183.074,294.646 183.074 C 294.836 183.074,294.991 182.798,294.991 182.460 C 294.991 182.122,295.302 181.621,295.682 181.347 C 296.062 181.073,296.373 180.650,296.373 180.407 C 296.373 180.164,296.528 179.965,296.718 179.965 C 296.908 179.965,297.064 179.717,297.064 179.414 C 297.064 178.850,298.377 176.776,298.865 176.569 C 299.014 176.505,299.136 176.156,299.136 175.792 C 299.136 175.427,299.292 175.130,299.482 175.130 C 299.672 175.130,299.827 174.890,299.827 174.597 C 299.827 174.304,300.138 173.731,300.518 173.323 C 300.898 172.915,301.209 172.377,301.209 172.128 C 301.209 171.879,301.364 171.675,301.554 171.675 C 301.744 171.675,301.900 171.377,301.900 171.013 C 301.900 170.649,302.016 170.299,302.159 170.236 C 302.483 170.092,303.605 168.252,303.861 167.444 C 303.967 167.111,304.190 166.839,304.358 166.839 C 304.526 166.839,304.663 166.528,304.663 166.149 C 304.663 165.769,304.800 165.458,304.967 165.458 C 305.134 165.458,305.463 164.991,305.699 164.421 C 305.936 163.851,306.258 163.385,306.417 163.385 C 306.575 163.385,306.807 162.841,306.931 162.176 C 307.056 161.511,307.277 160.967,307.423 160.967 C 307.569 160.967,307.881 160.501,308.117 159.931 C 308.354 159.361,308.683 158.895,308.850 158.895 C 309.017 158.895,309.154 158.584,309.154 158.204 C 309.154 157.824,309.309 157.513,309.499 157.513 C 309.689 157.513,309.845 157.193,309.845 156.802 C 309.845 156.411,310.000 156.187,310.190 156.304 C 310.380 156.421,310.535 156.275,310.535 155.979 C 310.535 155.683,310.691 155.440,310.881 155.440 C 311.071 155.440,311.226 155.130,311.226 154.750 C 311.226 154.370,311.382 154.059,311.572 154.059 C 311.762 154.059,311.917 153.748,311.917 153.368 C 311.917 152.988,312.073 152.677,312.263 152.677 C 312.453 152.677,312.608 152.435,312.608 152.139 C 312.608 151.842,312.763 151.696,312.953 151.813 C 313.143 151.931,313.299 151.707,313.299 151.316 C 313.299 150.925,313.454 150.604,313.644 150.604 C 313.834 150.604,313.990 150.371,313.990 150.086 C 313.990 149.801,314.145 149.568,314.335 149.568 C 314.525 149.568,314.680 149.257,314.680 148.877 C 314.680 148.497,314.811 148.187,314.972 148.187 C 315.132 148.187,315.637 147.448,316.094 146.546 C 316.552 145.643,317.042 144.853,317.185 144.790 C 317.327 144.727,317.444 144.448,317.444 144.171 C 317.444 143.894,317.755 143.333,318.135 142.926 C 318.515 142.518,318.826 141.980,318.826 141.731 C 318.826 141.482,318.981 141.278,319.171 141.278 C 319.361 141.278,319.516 140.967,319.516 140.587 C 319.516 140.207,319.653 139.896,319.820 139.896 C 319.987 139.896,320.317 139.430,320.553 138.860 C 320.789 138.290,321.106 137.824,321.258 137.824 C 321.410 137.824,321.632 137.379,321.751 136.834 C 321.871 136.290,322.272 135.519,322.642 135.122 C 323.013 134.724,323.316 134.159,323.316 133.866 C 323.316 133.573,323.472 133.333,323.661 133.333 C 323.851 133.333,324.007 133.094,324.007 132.801 C 324.007 132.508,324.318 131.934,324.698 131.527 C 325.078 131.119,325.389 130.581,325.389 130.332 C 325.389 130.083,325.544 129.879,325.734 129.879 C 325.924 129.879,326.079 129.568,326.079 129.188 C 326.079 128.808,326.235 128.497,326.425 128.497 C 326.615 128.497,326.770 128.221,326.770 127.883 C 326.770 127.545,327.081 127.044,327.461 126.770 C 327.841 126.496,328.152 125.996,328.152 125.658 C 328.152 125.320,328.307 125.043,328.497 125.043 C 328.687 125.043,328.843 124.732,328.843 124.352 C 328.843 123.972,328.998 123.661,329.188 123.661 C 329.378 123.661,329.534 123.430,329.534 123.147 C 329.534 122.675,330.078 121.867,331.174 120.712 C 331.412 120.461,331.606 120.012,331.606 119.714 C 331.606 119.415,331.723 119.170,331.865 119.168 C 332.008 119.167,332.300 118.817,332.514 118.391 C 332.729 117.965,333.254 116.917,333.682 116.062 C 334.110 115.207,334.574 114.430,334.712 114.335 C 335.121 114.055,336.097 111.997,336.097 111.416 C 336.097 111.122,336.252 110.881,336.442 110.881 C 336.632 110.881,336.788 110.677,336.788 110.428 C 336.788 110.179,337.098 109.641,337.478 109.233 C 337.858 108.825,338.169 108.330,338.169 108.132 C 338.169 107.934,338.325 107.772,338.515 107.772 C 338.705 107.772,338.860 107.461,338.860 107.081 C 338.860 106.701,339.016 106.390,339.206 106.390 C 339.396 106.390,339.551 106.186,339.551 105.937 C 339.551 105.688,339.862 105.151,340.242 104.743 C 340.622 104.335,340.933 103.762,340.933 103.469 C 340.933 103.176,341.088 102.936,341.278 102.936 C 341.468 102.936,341.623 102.696,341.623 102.404 C 341.623 102.111,341.934 101.537,342.314 101.129 C 342.694 100.722,343.005 100.184,343.005 99.935 C 343.005 99.686,343.161 99.482,343.351 99.482 C 343.541 99.482,343.696 99.184,343.696 98.820 C 343.696 98.456,343.813 98.106,343.955 98.043 C 344.279 97.898,345.401 96.059,345.657 95.250 C 345.763 94.918,345.986 94.646,346.154 94.646 C 346.322 94.646,346.459 94.480,346.459 94.276 C 346.459 94.073,346.904 93.257,347.448 92.463 C 347.992 91.669,348.541 90.688,348.668 90.283 C 348.794 89.878,349.204 89.194,349.578 88.762 C 349.953 88.330,350.259 87.690,350.259 87.339 C 350.259 86.988,350.415 86.701,350.604 86.701 C 350.794 86.701,350.950 86.390,350.950 86.010 C 350.950 85.630,351.105 85.320,351.295 85.320 C 351.485 85.320,351.641 85.116,351.641 84.867 C 351.641 84.617,351.952 84.080,352.332 83.672 C 352.712 83.264,353.022 82.691,353.022 82.398 C 353.022 82.105,353.178 81.865,353.368 81.865 C 353.558 81.865,353.713 81.589,353.713 81.251 C 353.713 80.913,354.024 80.412,354.404 80.138 C 354.784 79.864,355.095 79.364,355.095 79.026 C 355.095 78.688,355.250 78.411,355.440 78.411 C 355.630 78.411,355.786 78.191,355.786 77.922 C 355.786 77.653,355.902 77.381,356.045 77.317 C 356.369 77.173,357.491 75.333,357.747 74.525 C 357.853 74.193,358.076 73.921,358.244 73.921 C 358.412 73.921,358.549 73.610,358.549 73.230 C 358.549 72.850,358.705 72.539,358.895 72.539 C 359.085 72.539,359.240 72.306,359.240 72.021 C 359.240 71.736,359.357 71.502,359.499 71.501 C 359.642 71.501,360.147 70.646,360.622 69.603 C 361.097 68.559,361.583 67.705,361.702 67.704 C 361.822 67.703,362.113 67.237,362.349 66.667 C 362.585 66.097,362.883 65.630,363.011 65.630 C 363.139 65.630,363.532 64.931,363.885 64.076 C 364.237 63.221,364.658 62.522,364.819 62.522 C 364.980 62.522,365.112 62.211,365.112 61.831 C 365.112 61.451,365.268 61.140,365.458 61.140 C 365.648 61.140,365.803 60.829,365.803 60.449 C 365.803 60.069,365.959 59.758,366.149 59.758 C 366.339 59.758,366.494 59.438,366.494 59.047 C 366.494 58.656,366.649 58.432,366.839 58.549 C 367.029 58.667,367.185 58.520,367.185 58.224 C 367.185 57.928,367.340 57.686,367.530 57.686 C 367.720 57.686,367.876 57.375,367.876 56.995 C 367.876 56.615,368.031 56.304,368.221 56.304 C 368.411 56.304,368.566 56.064,368.566 55.771 C 368.566 55.478,368.877 54.905,369.257 54.497 C 369.637 54.089,369.948 53.552,369.948 53.303 C 369.948 53.054,370.104 52.850,370.294 52.850 C 370.484 52.850,370.639 52.610,370.639 52.317 C 370.639 52.024,370.950 51.451,371.330 51.043 C 371.709 50.636,372.214 49.865,372.450 49.331 C 372.687 48.796,372.998 48.359,373.141 48.359 C 373.285 48.359,373.402 48.120,373.402 47.827 C 373.402 47.534,373.713 46.960,374.093 46.553 C 374.473 46.145,374.784 45.607,374.784 45.358 C 374.784 45.109,374.940 44.905,375.130 44.905 C 375.320 44.905,375.475 44.594,375.475 44.214 C 375.475 43.834,375.592 43.521,375.734 43.518 C 375.877 43.515,376.373 42.738,376.838 41.791 C 377.303 40.844,377.808 40.069,377.961 40.069 C 378.113 40.069,378.238 39.769,378.238 39.403 C 378.238 39.037,378.472 38.504,378.756 38.219 C 379.041 37.934,379.275 37.456,379.275 37.158 C 379.275 36.859,379.392 36.615,379.536 36.615 C 379.679 36.615,380.020 36.110,380.294 35.492 C 380.567 34.875,381.071 34.068,381.414 33.700 C 381.757 33.332,382.038 32.827,382.038 32.577 C 382.038 32.328,382.193 32.124,382.383 32.124 C 382.573 32.124,382.729 31.826,382.729 31.462 C 382.729 31.098,382.845 30.748,382.988 30.685 C 383.312 30.541,384.434 28.701,384.690 27.893 C 384.796 27.560,385.019 27.288,385.187 27.288 C 385.355 27.288,385.492 26.991,385.492 26.626 C 385.492 26.262,385.636 25.912,385.812 25.849 C 385.987 25.786,386.182 25.501,386.244 25.216 C 386.305 24.931,386.628 24.446,386.960 24.139 C 387.293 23.832,387.565 23.327,387.565 23.016 C 387.565 22.706,387.720 22.453,387.910 22.453 C 388.100 22.453,388.256 22.219,388.256 21.934 C 388.256 21.649,388.372 21.415,388.515 21.414 C 388.657 21.412,388.942 21.062,389.148 20.636 C 389.867 19.147,391.458 16.403,391.900 15.889 C 392.146 15.604,392.462 14.905,392.602 14.335 C 392.742 13.765,393.143 13.047,393.492 12.740 C 393.842 12.433,394.128 11.928,394.128 11.618 C 394.128 11.307,394.283 11.054,394.473 11.054 C 394.663 11.054,394.819 10.743,394.819 10.363 C 394.819 9.983,394.974 9.672,395.164 9.672 C 395.354 9.672,395.509 9.418,395.509 9.108 C 395.509 8.798,395.793 8.293,396.140 7.985 C 396.487 7.678,396.991 6.921,397.261 6.304 C 397.530 5.687,397.868 5.181,398.012 5.181 C 398.155 5.181,398.273 4.928,398.273 4.617 C 398.273 4.307,398.578 3.789,398.950 3.466 C 399.323 3.143,399.732 2.230,399.858 1.439 L 400.088 0.000 360.039 0.000 L 319.990 0.000 319.416 1.123 C 319.100 1.740,318.468 2.867,318.011 3.627 C 317.224 4.938,312.492 13.120,306.824 22.971 C 305.403 25.440,303.967 27.927,303.633 28.497 C 303.299 29.067,300.112 34.585,296.551 40.760 C 292.990 46.934,289.783 52.491,289.425 53.109 C 289.067 53.726,288.463 54.775,288.083 55.440 C 287.703 56.105,287.081 57.193,286.701 57.858 C 285.807 59.424,285.735 59.549,278.925 71.330 C 275.741 76.839,272.668 82.202,272.097 83.247 C 271.525 84.292,270.941 85.302,270.799 85.492 C 270.656 85.682,270.231 86.382,269.853 87.047 C 269.076 88.413,257.923 107.730,256.989 109.326 C 256.656 109.896,255.413 112.073,254.228 114.162 C 253.043 116.252,251.335 119.206,250.433 120.725 C 249.532 122.245,248.404 124.188,247.929 125.043 C 247.453 125.898,245.937 128.541,244.560 130.915 C 243.182 133.290,241.701 135.855,241.268 136.615 C 240.584 137.817,235.316 146.969,233.464 150.173 C 233.107 150.790,232.525 151.801,232.169 152.418 C 231.814 153.035,229.769 156.572,227.625 160.276 C 225.481 163.981,222.568 169.033,221.151 171.503 C 219.735 173.972,218.282 176.498,217.923 177.116 C 217.565 177.733,216.981 178.744,216.626 179.361 C 210.528 189.967,205.134 199.290,203.986 201.209 C 203.190 202.539,202.437 203.860,202.313 204.145 C 201.780 205.369,200.452 207.391,200.106 207.507 C 199.899 207.575,198.804 206.031,197.672 204.075 C 196.540 202.119,193.938 197.642,191.890 194.128 C 189.842 190.613,187.897 187.271,187.568 186.701 C 187.239 186.131,186.461 184.810,185.838 183.765 C 185.215 182.720,184.437 181.399,184.109 180.829 C 183.782 180.259,181.216 175.829,178.408 170.984 C 175.599 166.140,173.033 161.710,172.705 161.140 C 172.378 160.570,171.335 158.782,170.389 157.168 C 169.444 155.553,166.996 151.356,164.950 147.841 C 162.904 144.326,160.957 140.984,160.623 140.415 C 159.501 138.498,155.230 131.139,151.301 124.352 C 149.157 120.648,146.724 116.492,145.894 115.118 C 145.065 113.744,144.387 112.555,144.387 112.476 C 144.387 112.398,143.751 111.286,142.973 110.007 C 142.196 108.727,141.283 107.196,140.944 106.603 C 138.234 101.865,131.450 90.220,130.284 88.307 C 129.492 87.005,128.843 85.885,128.843 85.818 C 128.843 85.750,128.355 84.872,127.758 83.867 C 127.162 82.861,126.407 81.572,126.080 81.002 C 125.753 80.432,123.808 77.090,121.757 73.575 C 119.706 70.060,117.761 66.718,117.435 66.149 C 117.109 65.579,116.025 63.713,115.026 62.003 C 114.027 60.294,112.939 58.428,112.609 57.858 C 112.278 57.288,110.335 53.946,108.292 50.432 C 102.723 40.854,98.427 33.460,97.754 32.297 C 97.424 31.727,95.481 28.385,93.437 24.870 C 91.393 21.356,89.451 18.014,89.121 17.444 C 88.792 16.874,87.922 15.397,87.188 14.162 C 86.454 12.927,85.616 11.504,85.327 11.000 C 85.038 10.496,83.493 7.814,81.895 5.042 L 78.988 0.000 39.450 0.000 L -0.088 0.000 0.136 1.404 " stroke="none" fill="#ffffff" fill-rule="evenodd"></path></g></svg>