<svg id="svg" version="1.1" width="400" height="400" viewBox="0 0 400 400" xmlns="http://www.w3.org/2000/svg" xmlns:xlink="http://www.w3.org/1999/xlink" ><g id="svgg"><path id="path0" d="M43.800 67.572 C 39.993 68.219,39.445 69.474,39.670 77.029 C 39.966 86.992,37.185 86.175,71.282 86.310 L 99.164 86.421 99.282 114.110 C 99.404 142.703,99.424 143.069,100.960 144.094 C 101.202 144.256,114.045 144.391,129.500 144.394 L 157.600 144.400 157.600 172.181 C 157.600 200.680,157.644 201.525,159.154 202.278 C 159.509 202.455,172.349 202.651,187.687 202.713 L 215.574 202.826 215.687 230.984 C 215.799 258.860,215.808 259.153,216.639 260.271 C 218.261 262.455,217.279 262.388,247.500 262.394 L 275.600 262.400 275.600 290.525 C 275.600 323.002,275.210 320.131,279.684 320.592 C 284.653 321.103,350.119 320.646,351.086 320.093 C 354.143 318.345,353.363 303.203,350.153 301.982 C 349.550 301.753,338.283 301.600,321.994 301.600 L 294.840 301.600 294.720 273.900 C 294.591 244.174,294.635 244.774,292.550 243.981 C 291.950 243.753,280.171 243.600,263.174 243.600 L 234.800 243.600 234.798 215.900 C 234.796 198.667,234.644 187.656,234.396 186.760 C 233.514 183.588,235.712 183.814,204.558 183.687 L 176.800 183.574 176.777 156.487 C 176.753 127.581,176.721 127.086,174.800 126.116 C 174.024 125.725,167.589 125.610,146.108 125.606 L 118.416 125.600 118.308 97.611 C 118.185 65.626,118.540 68.385,114.442 67.608 C 112.031 67.151,46.476 67.117,43.800 67.572 " stroke="none" fill="#ffffff" fill-rule="evenodd"></path><path id="path1" d="" stroke="none" fill="#ffffff" fill-rule="evenodd"></path><path id="path2" d="" stroke="none" fill="#ffffff" fill-rule="evenodd"></path></g></svg>